<svg xmlns="http://www.w3.org/2000/svg" viewBox="0 0 35 39.35"><defs><style>.cls-1{fill:#173042;}</style></defs><title>bank_icon</title><g id="Layer_2" data-name="Layer 2"><g id="icons"><path class="cls-1" d="M19.35,23.88l-2.3-1.19a.85.85,0,0,1-.45-.92.79.79,0,0,1,.73-.66,1.53,1.53,0,0,1,1.54.91,1.25,1.25,0,0,0,2.3-1,4,4,0,0,0-2-2.06v-.62a1.25,1.25,0,0,0-2.5,0v.35a3.23,3.23,0,0,0-2.48,2.61,3.33,3.33,0,0,0,1.75,3.6l2.31,1.19a.85.85,0,0,1,.45.91.73.73,0,0,1-.63.65l-.11,0a1.54,1.54,0,0,1-1.54-.92,1.25,1.25,0,0,0-2.3,1A4,4,0,0,0,16.63,30v.34a1.25,1.25,0,0,0,2.5,0v-.42a3.22,3.22,0,0,0,2-2.52A3.31,3.31,0,0,0,19.35,23.88Z"/><path class="cls-1" d="M34,34.85H1a1,1,0,0,0-1,1v3a.5.5,0,0,0,.5.5h34a.5.5,0,0,0,.5-.5v-3A1,1,0,0,0,34,34.85Zm-29.5-4v1a.5.5,0,0,0,.5.5h5a.5.5,0,0,0,.5-.5v-1a.5.5,0,0,0-.5-.5v-12a.5.5,0,0,0,.5-.5v-1a.5.5,0,0,0-.5-.5H5a.5.5,0,0,0-.5.5v1a.5.5,0,0,0,.5.5v12A.5.5,0,0,0,4.5,30.85Zm30-21.29L18,.13a1,1,0,0,0-1,0L.5,9.56a1,1,0,0,0-.5.87v2.92a.5.5,0,0,0,.5.5h34a.5.5,0,0,0,.5-.5V10.43A1,1,0,0,0,34.5,9.56Zm-17,1.54a2.88,2.88,0,1,1,2.88-2.88A2.87,2.87,0,0,1,17.5,11.1Zm7,19.75v1a.5.5,0,0,0,.5.5h5a.5.5,0,0,0,.5-.5v-1a.5.5,0,0,0-.5-.5v-12a.5.5,0,0,0,.5-.5v-1a.5.5,0,0,0-.5-.5H25a.5.5,0,0,0-.5.5v1a.49.49,0,0,0,.4.48v12A.49.49,0,0,0,24.5,30.85Z"/></g></g></svg>
