<svg xmlns="http://www.w3.org/2000/svg" xmlns:xlink="http://www.w3.org/1999/xlink" viewBox="0 0 261.26 63.38"><defs><style>.cls-1{fill:url(#linear-gradient);}.cls-2{fill:url(#linear-gradient-2);}.cls-3{fill:#d15700;}.cls-3,.cls-4{fill-rule:evenodd;}.cls-4{fill:#b04a00;fill-opacity:0.5;}.cls-5,.cls-6{fill:#fd0;}.cls-5{fill-opacity:0.3;}.cls-7{fill:url(#linear-gradient-3);}.cls-8{fill:url(#linear-gradient-4);}.cls-9{fill:#fffbcc;}</style><linearGradient id="linear-gradient" x1="199.62" y1="29.37" x2="261.26" y2="29.37" gradientUnits="userSpaceOnUse"><stop offset="0.09" stop-color="#ff8a1c" stop-opacity="0.4"/><stop offset="0.59" stop-color="#ff8a1c" stop-opacity="0.4"/></linearGradient><linearGradient id="linear-gradient-2" x1="99.8" y1="29.37" x2="161.44" y2="29.37" xlink:href="#linear-gradient"/><linearGradient id="linear-gradient-3" x1="0" y1="29.37" x2="61.64" y2="29.37" xlink:href="#linear-gradient"/><linearGradient id="linear-gradient-4" x1="29.61" y1="27.46" x2="29.61" y2="1.52" gradientUnits="userSpaceOnUse"><stop offset="0.26" stop-color="#ff0" stop-opacity="0.4"/><stop offset="0.85" stop-color="#ff0" stop-opacity="0.4"/></linearGradient></defs><title>one_star</title><g id="Layer_2" data-name="Layer 2"><g id="objects"><path class="cls-1" d="M261.16,22.3C259.72,18,240.8,18,240.8,18S233.67,0,230.46,0s-10.34,18-10.34,18-18.58.43-20.36,4.26,14,15.42,14,15.42S208.92,56,211.49,58.4s19-8.52,19-8.52,15.12,10.85,19,8.52-2.24-20.68-2.24-20.68S262.6,26.57,261.16,22.3Zm-7.54,8.06c-3.56,3.22-7.36,6-7.4,6a1.66,1.66,0,0,0-.61,1.87s1.48,4.48,2.49,9.15c1.8,8.33.48,9.57.47,9.58a1.11,1.11,0,0,1-.55.09c-3.42,0-12-5.24-16.59-8.54a1.65,1.65,0,0,0-1-.31,1.68,1.68,0,0,0-.93.28c-5,3.32-14,8.59-16.89,8.59h0c-.76-1.81.46-10.28,2.74-18.94a1.67,1.67,0,0,0-.63-1.77C207.32,30.93,201,24.88,201.29,23s9.59-3,18.87-3.25a1.66,1.66,0,0,0,1.51-1.05c2.89-7.32,7.16-16.9,8.79-16.9s5.9,9.58,8.79,16.9a1.66,1.66,0,0,0,1.55,1.05s4.72,0,9.49.53c8.49.92,9.29,2.58,9.29,2.6S260,24.62,253.62,30.36Z"/><path class="cls-2" d="M161.35,22.3C159.91,18,141,18,141,18S133.86,0,130.64,0,120.3,18,120.3,18s-18.58.43-20.36,4.26,14,15.42,14,15.42S109.1,56,111.67,58.4s19-8.52,19-8.52,15.12,10.85,19,8.52-2.24-20.68-2.24-20.68S162.78,26.57,161.35,22.3Zm-7.55,8.06c-3.56,3.22-7.36,6-7.4,6a1.65,1.65,0,0,0-.6,1.87s1.48,4.48,2.48,9.15c1.8,8.33.49,9.57.47,9.58a1.07,1.07,0,0,1-.55.09c-3.42,0-12-5.24-16.58-8.54a1.65,1.65,0,0,0-1-.31,1.63,1.63,0,0,0-.92.28c-5,3.32-14,8.59-16.9,8.59h0c-.75-1.81.46-10.28,2.74-18.94a1.66,1.66,0,0,0-.62-1.77c-7.4-5.44-13.76-11.49-13.43-13.41s9.6-3,18.87-3.25a1.65,1.65,0,0,0,1.51-1.05c2.9-7.32,7.17-16.9,8.79-16.9s5.9,9.58,8.8,16.9A1.65,1.65,0,0,0,141,19.71s4.72,0,9.48.53c8.5.92,9.29,2.58,9.29,2.6S160.13,24.62,153.8,30.36Z"/><path class="cls-3" d="M30.84,3.71c3.21,0,10.35,18,10.35,18s17.54-3.13,20.35.59a23.47,23.47,0,0,1,.32,4.13c0,4.5-14.28,15-14.28,15s3.48,8.68,3.62,14.84c0,2.11-1.36,6.53-2.72,7-4.27,1.42-17.64-9.66-17.64-9.66S15.13,65,12.71,62.38c-1.45-1.55-1.58-4.1-1.6-5.58-.09-5.91,3-15.37,3-15.37s-13.72-9.79-14-14c-.2-2.86-.14-4.89.29-5.19,4.18-2.92,20.1-.49,20.1-.49S27.63,3.71,30.84,3.71Z"/><path class="cls-4" d="M53.7,36.53c1.35-1.16,2.73-2.42,4-3.69l-.21-5.72-15.64.52L24.38,36.56,16.75,53.62l-1.64,8.94A29,29,0,0,0,21.4,59.7l.39-8.15s4.53-2.2,4.91-2.2c.2,0-.53,3.95-1.32,7.93,3.06-2,4.06-2.64,4.06-2.64l.76-10.79L46.48,45l2.29-.22c-.66-2-1.19-3.31-1.19-3.31s1.12-.82,2.73-2.1l-.47-7.95,4.65-2.06Z"/><path class="cls-5" d="M2.88,31.91a55.55,55.55,0,0,0,4.7,4.4A47.41,47.41,0,0,1,9,26c.52-.52-4.9-.9-4.9-.9Zm11.67-.4-5.16,6.3c.78.63,1.52,1.21,2.17,1.72,2.12-3.5,4.35-7.11,4.54-7.24C16.49,32,14.55,31.51,14.55,31.51ZM34.49,56.42c1.18.89,2.57,1.87,4,2.83L42,49,37.3,46.38S35.8,51.68,34.49,56.42ZM42,61.36c.83.45,1.64.85,2.41,1.18.92-4.08,2-8.66,2-8.66l-1-3Z"/><path class="cls-6" d="M30.84,0c3.21,0,10.35,18,10.35,18S60.1,18,61.54,22.3s-14,15.42-14,15.42,6.09,18.34,2.24,20.68-19-8.52-19-8.52-16.4,10.94-19,8.52,2.24-20.68,2.24-20.68S-1.63,26.14.14,22.3,20.5,18,20.5,18,27.63,0,30.84,0Z"/><path class="cls-7" d="M61.54,22.3C60.1,18,41.19,18,41.19,18S34.05,0,30.84,0,20.5,18,20.5,18,1.92,18.47.14,22.3s14,15.42,14,15.42S9.3,56,11.87,58.4s19-8.52,19-8.52S46,60.73,49.82,58.4s-2.24-20.68-2.24-20.68S63,26.57,61.54,22.3ZM54,30.36c-3.56,3.22-7.36,6-7.4,6A1.66,1.66,0,0,0,46,38.24s1.48,4.48,2.49,9.15C50.28,55.72,49,57,49,57a1.07,1.07,0,0,1-.55.09c-3.42,0-12-5.24-16.58-8.54a1.7,1.7,0,0,0-1-.31,1.63,1.63,0,0,0-.92.28c-5,3.32-14,8.59-16.9,8.59h0c-.75-1.81.46-10.28,2.74-18.94a1.67,1.67,0,0,0-.63-1.77C7.7,30.93,1.34,24.88,1.67,23s9.59-3,18.87-3.25a1.66,1.66,0,0,0,1.51-1.05c2.89-7.32,7.17-16.9,8.79-16.9s5.9,9.58,8.79,16.9a1.66,1.66,0,0,0,1.56,1.05s4.71,0,9.48.53c8.5.92,9.29,2.58,9.29,2.6S60.33,24.62,54,30.36Z"/><path class="cls-8" d="M41.18,20.83a9.45,9.45,0,0,1-1.62-.44,2.22,2.22,0,0,1-1-1.32c-2.43-6.14-6.33-15.68-7.76-15.68s-5.33,9.54-7.75,15.68a11.32,11.32,0,0,1-.78,1.14,5.3,5.3,0,0,1-1.75.61C12.89,21,3.32,22,2.94,23.39S9.61,31,15.7,35.44A249.73,249.73,0,0,1,56.29,22.3,69.6,69.6,0,0,0,41.18,20.83Z"/><path class="cls-9" d="M30.94,5.69c-1.56-.44-4.55,6.68-2.88,8.16S32.24,6.07,30.94,5.69Z"/><path class="cls-9" d="M27,14.69c-1.47-.59-2.41,3.61-.83,3.61S27.88,15.06,27,14.69Z"/><path class="cls-9" d="M5.44,23.59c.18,1.48,8.71-1.11,8.34-1.58S5.34,21.92,5.44,23.59Z"/><path class="cls-9" d="M45.77,21.74c-.37.64,5.2,2,5.2.74S46.15,20.72,45.77,21.74Z"/></g></g></svg>