<svg xmlns="http://www.w3.org/2000/svg" xmlns:xlink="http://www.w3.org/1999/xlink" viewBox="0 0 385 385"><defs><style>.cls-1,.cls-11,.cls-2,.cls-3,.cls-7,.cls-8{fill:none;}.cls-2,.cls-3{stroke:#231f20;}.cls-2{stroke-linecap:square;stroke-width:0.3px;}.cls-11,.cls-15,.cls-16,.cls-3,.cls-7,.cls-8{stroke-linecap:round;}.cls-3{stroke-width:0.75px;}.cls-4{opacity:0.1;fill:url(#Bird_Feet);}.cls-5{fill:#2980b9;}.cls-6{fill:blue;}.cls-11,.cls-15,.cls-16,.cls-7{stroke:#1d1d1b;}.cls-11,.cls-15,.cls-16,.cls-7,.cls-8{stroke-linejoin:round;}.cls-7{stroke-width:1.79px;}.cls-8{stroke:#7f8c8d;}.cls-13,.cls-15,.cls-16,.cls-8{stroke-width:0.6px;}.cls-9{fill:#fff;}.cls-10{opacity:0;}.cls-11{stroke-width:1.2px;}.cls-12,.cls-16{opacity:0.3;}.cls-13{fill:#cc93cc;stroke:#fff;stroke-miterlimit:10;}.cls-13,.cls-14,.cls-15{opacity:0.5;}.cls-15{fill:#810094;}.cls-16{fill:#5ffcff;fill-opacity:0.5;stroke-opacity:0.5;}</style><pattern id="Bird_Feet" data-name="Bird Feet" width="65.25" height="65.25" patternUnits="userSpaceOnUse" viewBox="0 0 65.25 65.25"><rect class="cls-1" width="65.25" height="65.25"/><line class="cls-2" x1="67.54" y1="61.59" x2="62.02" y2="65.89"/><line class="cls-2" x1="70" y1="64.75" x2="64.47" y2="69.05"/><line class="cls-2" x1="47.19" y1="62.53" x2="43.5" y2="68"/><line class="cls-2" x1="49.93" y1="65.44" x2="44.83" y2="70.23"/><line class="cls-2" x1="53.13" y1="64.47" x2="55.5" y2="70.25"/><line class="cls-2" x1="56.25" y1="63.25" x2="59" y2="70"/><line class="cls-2" x1="28" y1="63.75" x2="22.31" y2="68.13"/><line class="cls-2" x1="32" y1="64.75" x2="25.3" y2="70.79"/><line class="cls-2" x1="9.25" y1="64.5" x2="9" y2="66"/><line class="cls-2" x1="14.22" y1="62.67" x2="18.5" y2="68.5"/><line class="cls-2" x1="17.05" y1="59.84" x2="21.33" y2="65.67"/><line class="cls-2" x1="38.75" y1="62.75" x2="39.25" y2="69.25"/><line class="cls-2" x1="36" y1="62" x2="34.5" y2="68.75"/><line class="cls-2" x1="2.29" y1="61.59" x2="-3.23" y2="65.89"/><line class="cls-2" x1="4.75" y1="64.75" x2="-0.78" y2="69.05"/><line class="cls-2" x1="22.49" y1="23.04" x2="19.25" y2="29.25"/><line class="cls-2" x1="36.42" y1="43.45" x2="44" y2="45.5"/><line class="cls-2" x1="37.5" y1="40.5" x2="45.25" y2="41.75"/><line class="cls-2" x1="30" y1="60.75" x2="32.75" y2="55.5"/><line class="cls-2" x1="26.5" y1="60.25" x2="29.52" y2="54.46"/><line class="cls-2" x1="46" y1="55.5" x2="41.25" y2="59"/><line class="cls-2" x1="47.25" y1="58" x2="43.5" y2="62"/><line class="cls-2" x1="49.88" y1="46.3" x2="50.78" y2="53.25"/><line class="cls-2" x1="45.98" y1="47.21" x2="47.53" y2="53.75"/><line class="cls-2" x1="14.22" y1="62.67" x2="18.5" y2="68.5"/><line class="cls-2" x1="17.05" y1="59.84" x2="21.33" y2="65.67"/><line class="cls-2" x1="20.53" y1="48.64" x2="23.96" y2="54.74"/><line class="cls-2" x1="24.23" y1="47.13" x2="26.87" y2="53.61"/><line class="cls-2" x1="33" y1="44.5" x2="27.75" y2="47.5"/><line class="cls-2" x1="35.5" y1="47.75" x2="29.75" y2="49.75"/><line class="cls-2" x1="47.19" y1="62.53" x2="43.5" y2="68"/><line class="cls-2" x1="49.93" y1="65.44" x2="44.83" y2="70.23"/><line class="cls-2" x1="53.13" y1="64.47" x2="55.5" y2="70.25"/><line class="cls-2" x1="28" y1="63.75" x2="22.31" y2="68.13"/><line class="cls-2" x1="32" y1="64.75" x2="25.3" y2="70.79"/><line class="cls-2" x1="21.5" y1="58.25" x2="22" y2="59.5"/><line class="cls-2" x1="37.75" y1="60.25" x2="38.75" y2="61.25"/><line class="cls-2" x1="38.75" y1="62.75" x2="39.25" y2="69.25"/><line class="cls-2" x1="36" y1="62" x2="34.5" y2="68.75"/><line class="cls-2" x1="53.28" y1="50" x2="54.53" y2="49.5"/><line class="cls-2" x1="32.5" y1="50.5" x2="32.75" y2="52"/><line class="cls-2" x1="50.5" y1="62" x2="51.75" y2="62"/><line class="cls-2" x1="33.75" y1="60" x2="32.75" y2="61.75"/><line class="cls-2" x1="38" y1="47.25" x2="39.25" y2="46.75"/><line class="cls-2" x1="40.24" y1="55.47" x2="35.81" y2="52.75"/><line class="cls-2" x1="42.97" y1="53.07" x2="36.62" y2="50.14"/><line class="cls-2" x1="35.5" y1="55.75" x2="36.75" y2="56"/><line class="cls-2" x1="42.28" y1="49" x2="43.53" y2="49.25"/><line class="cls-2" x1="18.62" y1="54.25" x2="20.25" y2="53.75"/><line class="cls-2" x1="26.99" y1="8.45" x2="27.12" y2="15.45"/><line class="cls-2" x1="30.99" y1="8.38" x2="30.25" y2="15"/><line class="cls-2" x1="43.64" y1="27.73" x2="50.12" y2="30.38"/><line class="cls-2" x1="45.15" y1="24.03" x2="51.63" y2="26.67"/><line class="cls-2" x1="27.12" y1="23.58" x2="31.89" y2="19.94"/><line class="cls-2" x1="24.09" y1="21.57" x2="30" y2="17.82"/><line class="cls-2" x1="18.5" y1="41.38" x2="11.72" y2="43.13"/><line class="cls-2" x1="19.25" y1="45" x2="12.47" y2="46.76"/><line class="cls-2" x1="19.69" y1="21.19" x2="16.45" y2="27.4"/><line class="cls-2" x1="8.74" y1="9.89" x2="10.07" y2="16.76"/><line class="cls-2" x1="12.66" y1="9.13" x2="14" y2="16"/><line class="cls-2" x1="0.57" y1="6.97" x2="6.75" y2="10.25"/><line class="cls-2" x1="3.5" y1="16.5" x2="2.32" y2="22.49"/><line class="cls-2" x1="7.57" y1="16.38" x2="6.25" y2="23.25"/><line class="cls-2" x1="56.37" y1="44.2" x2="58.78" y2="51.75"/><line class="cls-2" x1="60.53" y1="44.25" x2="61.28" y2="50.75"/><line class="cls-2" x1="53.03" y1="36.46" x2="49.02" y2="42.2"/><line class="cls-2" x1="55.77" y1="37.79" x2="54.03" y2="43.25"/><line class="cls-2" x1="26.95" y1="27.8" x2="27.75" y2="34.75"/><line class="cls-2" x1="29.93" y1="26.99" x2="31.63" y2="33.78"/><line class="cls-2" x1="52.81" y1="4.88" x2="46.46" y2="7.84"/><line class="cls-2" x1="54.25" y1="7.75" x2="48.16" y2="11.46"/><line class="cls-2" x1="17.65" y1="12.48" x2="19.25" y2="19"/><line class="cls-2" x1="19.73" y1="10.2" x2="22.83" y2="16.48"/><line class="cls-2" x1="37.5" y1="14.25" x2="34" y2="20.5"/><line class="cls-2" x1="40.13" y1="15.42" x2="36.19" y2="21.2"/><line class="cls-2" x1="50" y1="15.75" x2="43.75" y2="18.25"/><line class="cls-2" x1="50.5" y1="20.25" x2="44.25" y2="20.5"/><line class="cls-2" x1="56.22" y1="17.42" x2="54.53" y2="23.75"/><line class="cls-2" x1="58.95" y1="19.91" x2="55.47" y2="25.98"/><line class="cls-2" x1="57.14" y1="53.16" x2="50.8" y2="56.13"/><line class="cls-2" x1="58.84" y1="56.78" x2="52.5" y2="59.75"/><line class="cls-2" x1="47.25" y1="37" x2="43" y2="32.25"/><line class="cls-2" x1="44.5" y1="37.75" x2="39.68" y2="33.34"/><line class="cls-2" x1="30.53" y1="39.25" x2="34.5" y2="34.25"/><line class="cls-2" x1="32.93" y1="42.45" x2="37.25" y2="36.5"/><line class="cls-2" x1="22.43" y1="31.52" x2="15.47" y2="30.78"/><line class="cls-2" x1="21.5" y1="34.75" x2="14.66" y2="33.28"/><line class="cls-2" x1="6.75" y1="36.75" x2="12.35" y2="40.95"/><line class="cls-2" x1="9.15" y1="33.55" x2="14.75" y2="37.75"/><line class="cls-2" x1="13.99" y1="49.49" x2="13.42" y2="56.47"/><line class="cls-2" x1="17.75" y1="50" x2="16.81" y2="57.42"/><line class="cls-2" x1="20.17" y1="40.33" x2="25.12" y2="45.28"/><line class="cls-2" x1="23" y1="37.5" x2="27.95" y2="42.45"/><line class="cls-2" x1="8.5" y1="46.25" x2="3.93" y2="50.46"/><line class="cls-2" x1="10.78" y1="48.7" x2="5.25" y2="53"/><line class="cls-2" x1="56.12" y1="14.59" x2="63.1" y2="13.99"/><line class="cls-2" x1="56.25" y1="11.25" x2="62.75" y2="10"/><line class="cls-2" x1="36.25" y1="23.25" x2="37" y2="30.25"/><line class="cls-2" x1="40.25" y1="23.25" x2="39.75" y2="28.75"/><line class="cls-2" x1="11.96" y1="1.11" x2="9.1" y2="6.08"/><line class="cls-2" x1="6.46" y1="32.23" x2="12.21" y2="28.24"/><line class="cls-2" x1="4.18" y1="28.94" x2="9.94" y2="24.95"/><line class="cls-2" x1="4.14" y1="58.23" x2="8.5" y2="62.5"/><line class="cls-2" x1="6.57" y1="56.56" x2="10.5" y2="60"/><line class="cls-2" x1="60.75" y1="22.25" x2="65.07" y2="27.76"/><line class="cls-2" x1="63.4" y1="20.03" x2="67.72" y2="25.54"/><line class="cls-2" x1="58.5" y1="28.63" x2="51.72" y2="30.38"/><line class="cls-2" x1="59.5" y1="32.5" x2="52.72" y2="34.26"/><line class="cls-2" x1="15.75" y1="19.5" x2="8.84" y2="19.07"/><line class="cls-2" x1="16.25" y1="22.25" x2="9.29" y2="23.04"/><line class="cls-2" x1="60.26" y1="55.7" x2="64.19" y2="61.5"/><line class="cls-2" x1="63.57" y1="53.46" x2="67.5" y2="59.25"/><line class="cls-2" x1="63.75" y1="30.75" x2="60.04" y2="35.09"/><line class="cls-2" x1="67.13" y1="31.26" x2="63.44" y2="37.2"/><line class="cls-2" x1="67.54" y1="61.59" x2="62.02" y2="65.89"/><line class="cls-2" x1="56.25" y1="63.25" x2="59" y2="70"/><line class="cls-2" x1="63.94" y1="10.5" x2="70.12" y2="13.78"/><line class="cls-2" x1="16.58" y1="9.47" x2="21" y2="6.75"/><line class="cls-2" x1="13.84" y1="7.07" x2="20.2" y2="4.14"/><line class="cls-2" x1="36.12" y1="8.13" x2="40.87" y2="12.88"/><line class="cls-2" x1="39.27" y1="5.66" x2="43.59" y2="11.17"/><line class="cls-2" x1="67.73" y1="39.48" x2="62.5" y2="42"/><line class="cls-2" x1="70.56" y1="42.08" x2="64.45" y2="45.49"/><line class="cls-2" x1="30" y1="3.75" x2="31.25" y2="4"/><line class="cls-2" x1="29.25" y1="6.75" x2="29" y2="6"/><line class="cls-2" x1="34" y1="12.25" x2="34.75" y2="11.75"/><line class="cls-2" x1="45" y1="10" x2="46.25" y2="10"/><line class="cls-2" x1="51.75" y1="14.5" x2="52.5" y2="15.25"/><line class="cls-2" x1="60.75" y1="18" x2="61.5" y2="17.25"/><line class="cls-2" x1="62.25" y1="5.75" x2="61.75" y2="6.75"/><line class="cls-2" x1="6" y1="13.5" x2="6.75" y2="14"/><line class="cls-2" x1="12.25" y1="30.75" x2="12.25" y2="31.5"/><line class="cls-2" x1="5.5" y1="34.75" x2="4" y2="34.75"/><line class="cls-2" x1="9.75" y1="54.5" x2="10.25" y2="53.25"/><line class="cls-2" x1="18.25" y1="37.75" x2="17.5" y2="36.75"/><line class="cls-2" x1="49.25" y1="34.25" x2="50" y2="33.5"/><line class="cls-2" x1="39.28" y1="37" x2="39.78" y2="38"/><line class="cls-2" x1="25.5" y1="18.75" x2="26.25" y2="18"/><line class="cls-2" x1="23.25" y1="27.75" x2="24.5" y2="28.5"/><line class="cls-2" x1="9.25" y1="64.5" x2="9" y2="66"/><line class="cls-2" x1="38.25" y1="33.75" x2="37.75" y2="32.5"/><line class="cls-2" x1="67.54" y1="-3.66" x2="62.02" y2="0.64"/><line class="cls-2" x1="70" y1="-0.5" x2="64.47" y2="3.8"/><line class="cls-2" x1="47.19" y1="-2.72" x2="43.5" y2="2.75"/><line class="cls-2" x1="49.93" y1="0.19" x2="44.83" y2="4.98"/><line class="cls-2" x1="53.13" y1="-0.78" x2="55.5" y2="5"/><line class="cls-2" x1="56.25" y1="-2" x2="59" y2="4.75"/><line class="cls-2" x1="28" y1="-1.5" x2="22.31" y2="2.88"/><line class="cls-2" x1="32" y1="-0.5" x2="25.3" y2="5.54"/><line class="cls-2" x1="9.25" y1="-0.75" x2="9" y2="0.75"/><line class="cls-2" x1="14.22" y1="-2.58" x2="18.5" y2="3.25"/><line class="cls-2" x1="17.05" y1="-5.41" x2="21.33" y2="0.42"/><line class="cls-2" x1="58.53" y1="59.5" x2="59.03" y2="60.75"/><line class="cls-2" x1="38.75" y1="-2.5" x2="39.25" y2="4"/><line class="cls-2" x1="36" y1="-3.25" x2="34.5" y2="3.5"/><line class="cls-2" x1="45.75" y1="13.75" x2="46.5" y2="14.5"/><line class="cls-2" x1="32.75" y1="25.5" x2="34" y2="25.75"/><line class="cls-2" x1="63.5" y1="51" x2="64.25" y2="50.25"/><line class="cls-2" x1="8.25" y1="1.75" x2="4.85" y2="6.08"/><line class="cls-2" x1="61.5" y1="38.25" x2="62.75" y2="38.5"/><line class="cls-2" x1="23.25" y1="10" x2="24.25" y2="10.75"/><line class="cls-2" x1="36.25" y1="4.5" x2="36.5" y2="5.75"/><line class="cls-2" x1="11" y1="8.5" x2="11.5" y2="7"/><line class="cls-3" x1="3.25" y1="3.75" x2="3.25" y2="3.75"/><line class="cls-3" x1="6.25" y1="7" x2="6.25" y2="7"/><line class="cls-3" x1="13" y1="1.5" x2="13" y2="1.5"/><line class="cls-3" x1="23.25" y1="8.5" x2="23.25" y2="8.5"/><line class="cls-3" x1="17" y1="15.25" x2="17" y2="15.25"/><line class="cls-3" x1="14.5" y1="25" x2="14.5" y2="25"/><line class="cls-3" x1="3.75" y1="24" x2="3.75" y2="24"/><line class="cls-3" x1="20.5" y1="36" x2="20.5" y2="36"/><line class="cls-3" x1="25.75" y1="31.75" x2="25.75" y2="31.75"/><line class="cls-3" x1="33.5" y1="23.25" x2="33.5" y2="23.25"/><line class="cls-3" x1="28" y1="40.25" x2="28" y2="40.25"/><line class="cls-3" x1="32.75" y1="43" x2="32.75" y2="43"/><line class="cls-3" x1="18.75" y1="47.25" x2="18.75" y2="47.25"/><line class="cls-3" x1="42" y1="24.75" x2="42" y2="24.75"/><line class="cls-3" x1="41.75" y1="16.25" x2="41.75" y2="16.25"/><line class="cls-3" x1="58.25" y1="7.5" x2="58.25" y2="7.5"/><line class="cls-3" x1="50.25" y1="4" x2="50.25" y2="4"/><line class="cls-3" x1="61" y1="27.25" x2="61" y2="27.25"/><line class="cls-3" x1="59.5" y1="38.25" x2="59.5" y2="38.25"/><line class="cls-3" x1="54" y1="45" x2="54" y2="45"/><line class="cls-3" x1="57.5" y1="55" x2="57.5" y2="55"/><line class="cls-3" x1="50" y1="59.75" x2="50" y2="59.75"/><line class="cls-3" x1="28.5" y1="61" x2="28.5" y2="61"/><line class="cls-3" x1="39.5" y1="63.5" x2="39.5" y2="63.5"/><line class="cls-3" x1="25.25" y1="15.75" x2="25.25" y2="15.75"/><line class="cls-3" x1="10.75" y1="62.75" x2="10.75" y2="62.75"/><line class="cls-3" x1="0.75" y1="51.5" x2="0.75" y2="51.5"/><line class="cls-3" x1="3.75" y1="44.25" x2="3.75" y2="44.25"/><line class="cls-3" x1="9" y1="40.5" x2="9" y2="40.5"/><line class="cls-3" x1="9.75" y1="44.25" x2="9.75" y2="44.25"/><line class="cls-3" x1="50.75" y1="22.5" x2="50.75" y2="22.5"/><line class="cls-3" x1="48" y1="32.25" x2="48" y2="32.25"/><line class="cls-3" x1="46.25" y1="40.5" x2="46.25" y2="40.5"/><line class="cls-3" x1="27.75" y1="24.75" x2="27.75" y2="24.75"/><line class="cls-3" x1="24.25" y1="55.5" x2="24.25" y2="55.5"/><line class="cls-3" x1="24.25" y1="63.5" x2="24.25" y2="63.5"/><line class="cls-3" x1="18.87" y1="59.5" x2="18.87" y2="59.5"/><line class="cls-3" x1="26.62" y1="37" x2="26.62" y2="37"/><line class="cls-3" x1="61" y1="62" x2="61" y2="62"/><line class="cls-3" x1="4.5" y1="56" x2="4.5" y2="56"/><line class="cls-3" x1="33.75" y1="29.75" x2="33.75" y2="29.75"/><line class="cls-3" x1="33.25" y1="14.75" x2="33.25" y2="14.75"/><line class="cls-3" x1="34.5" y1="8" x2="34.5" y2="8"/><line class="cls-3" x1="49.75" y1="55.75" x2="49.75" y2="55.75"/><line class="cls-3" x1="49" y1="44.75" x2="49" y2="44.75"/><line class="cls-3" x1="62.75" y1="47.25" x2="62.75" y2="47.25"/><line class="cls-3" x1="52.25" y1="17.5" x2="52.25" y2="17.5"/><line class="cls-3" x1="53" y1="19.25" x2="53" y2="19.25"/><line class="cls-3" x1="53.25" y1="10.5" x2="53.25" y2="10.5"/><line class="cls-3" x1="40" y1="19.75" x2="40" y2="19.75"/><line class="cls-3" x1="49" y1="27.25" x2="49" y2="27.25"/><line class="cls-3" x1="59.5" y1="24" x2="59.5" y2="24"/><line class="cls-3" x1="61" y1="31.25" x2="61" y2="31.25"/><line class="cls-3" x1="1" y1="16.25" x2="1" y2="16.25"/><line class="cls-2" x1="-4.5" y1="22.25" x2="-0.18" y2="27.76"/><line class="cls-2" x1="-1.85" y1="20.03" x2="2.47" y2="25.54"/><line class="cls-2" x1="-1.68" y1="53.46" x2="2.25" y2="59.25"/><line class="cls-2" x1="1.88" y1="31.26" x2="-1.81" y2="37.2"/><line class="cls-2" x1="2.29" y1="61.59" x2="-3.23" y2="65.89"/><line class="cls-2" x1="-1.31" y1="10.5" x2="4.88" y2="13.78"/><line class="cls-2" x1="2.48" y1="39.48" x2="-2.75" y2="42"/><line class="cls-2" x1="5.31" y1="42.08" x2="-0.8" y2="45.49"/><line class="cls-2" x1="2.29" y1="-3.66" x2="-3.23" y2="0.64"/><line class="cls-2" x1="4.75" y1="-0.5" x2="-0.78" y2="3.8"/><line class="cls-2" x1="14.22" y1="-2.58" x2="18.5" y2="3.25"/><line class="cls-2" x1="17.05" y1="-5.41" x2="21.33" y2="0.42"/><line class="cls-2" x1="47.19" y1="-2.72" x2="43.5" y2="2.75"/><line class="cls-2" x1="49.93" y1="0.19" x2="44.83" y2="4.98"/><line class="cls-2" x1="53.13" y1="-0.78" x2="55.5" y2="5"/><line class="cls-2" x1="28" y1="-1.5" x2="22.31" y2="2.88"/><line class="cls-2" x1="32" y1="-0.5" x2="25.3" y2="5.54"/><line class="cls-2" x1="38.75" y1="-2.5" x2="39.25" y2="4"/><line class="cls-2" x1="36" y1="-3.25" x2="34.5" y2="3.5"/><line class="cls-2" x1="67.54" y1="-3.66" x2="62.02" y2="0.64"/><line class="cls-2" x1="56.25" y1="-2" x2="59" y2="4.75"/><line class="cls-2" x1="9.25" y1="-0.75" x2="9" y2="0.75"/><line class="cls-2" x1="2.29" y1="-3.66" x2="-3.23" y2="0.64"/></pattern></defs><title>sbs_mtfr_coverimg_square</title><g id="Layer_2" data-name="Layer 2"><g id="Mathematic_Background" data-name="Mathematic Background"><rect class="cls-4" width="385" height="385"/><rect width="385" height="28.52"/><rect y="376.92" width="385" height="8.08"/><path class="cls-5" d="M40.16,113.88H38.51V101h1.65l4.47,7.82h.07L49.16,101h1.65v12.84H49.16v-7.62l.08-2.15h-.08l-4,7h-1l-4-7h-.07l.07,2.15Z"/><path class="cls-5" d="M60.64,113.88H59.06v-1.22H59a2.94,2.94,0,0,1-1.15,1.08,3.42,3.42,0,0,1-1.63.43,3.24,3.24,0,0,1-2.48-.93,3.67,3.67,0,0,1-.87-2.62v-5.53h1.65v5.42a1.94,1.94,0,0,0,2.17,2.15,2,2,0,0,0,1.65-.8A2.9,2.9,0,0,0,59,110v-4.86h1.65Z"/><path class="cls-5" d="M64.3,101v12.84H62.65V101Z"/><path class="cls-5" d="M69.88,114a2.54,2.54,0,0,1-1.79-.66,2.46,2.46,0,0,1-.72-1.85V106.6H65.82v-1.51h1.55V102.4H69v2.69h2.15v1.51H69V111a1.6,1.6,0,0,0,.34,1.19,1.08,1.08,0,0,0,.77.31,1.67,1.67,0,0,0,.73-.16l.52,1.47A4.3,4.3,0,0,1,69.88,114Z"/><path class="cls-5" d="M75,102.06a1.12,1.12,0,0,1-.34.83,1.17,1.17,0,0,1-1.65,0,1.12,1.12,0,0,1-.34-.83,1.09,1.09,0,0,1,.34-.82,1.17,1.17,0,0,1,1.65,0A1.09,1.09,0,0,1,75,102.06Zm-.34,3v8.79H73v-8.79Z"/><path class="cls-5" d="M81.36,114.17a3.85,3.85,0,0,1-1.77-.41,3.14,3.14,0,0,1-1.23-1.1h-.07l.07,1.22v3.88H76.71V105.09h1.58v1.22h.07a3.12,3.12,0,0,1,1.23-1.09,3.72,3.72,0,0,1,1.77-.41,3.76,3.76,0,0,1,2.94,1.36,5.1,5.1,0,0,1,0,6.64A3.79,3.79,0,0,1,81.36,114.17Zm-.27-1.51a2.59,2.59,0,0,0,2-.89,3.24,3.24,0,0,0,.8-2.28,3.27,3.27,0,0,0-.8-2.28,2.57,2.57,0,0,0-2-.9,2.6,2.6,0,0,0-2,.9,3.7,3.7,0,0,0,0,4.57A2.61,2.61,0,0,0,81.09,112.66Z"/><path class="cls-5" d="M88.51,101v12.84H86.86V101Z"/><path class="cls-5" d="M98.38,105.09l-5.51,12.67h-1.7l2-4.43-3.62-8.24h1.79L94,111.41h0l2.54-6.32Z"/><path class="cls-5" d="M106.88,114a2.38,2.38,0,0,1-2.52-2.51V106.6h-1.54v-1.51h1.54V102.4H106v2.69h2.15v1.51H106V111a1.6,1.6,0,0,0,.34,1.19,1.08,1.08,0,0,0,.77.31,1.58,1.58,0,0,0,.38,0,1.8,1.8,0,0,0,.35-.12l.52,1.47A4.3,4.3,0,0,1,106.88,114Z"/><path class="cls-5" d="M109.84,101h1.65v4l-.08,1.22h.08a2.85,2.85,0,0,1,1.15-1.07,3.28,3.28,0,0,1,1.62-.43,3.24,3.24,0,0,1,2.49.92,3.69,3.69,0,0,1,.87,2.63v5.52H116v-5.2q0-2.37-2.1-2.37a2.11,2.11,0,0,0-1.69.84,2.89,2.89,0,0,0-.69,1.94v4.79h-1.65Z"/><path class="cls-5" d="M123.5,114.17a4.19,4.19,0,0,1-3.19-1.33,4.66,4.66,0,0,1-1.26-3.35,4.8,4.8,0,0,1,1.22-3.35,4.41,4.41,0,0,1,6.24-.07,5,5,0,0,1,1.15,3.54l0,.18h-6.9a2.84,2.84,0,0,0,.86,2.08,2.78,2.78,0,0,0,4.45-.79l1.47.72a4.43,4.43,0,0,1-1.64,1.74A4.53,4.53,0,0,1,123.5,114.17Zm-2.64-5.74h5a2.15,2.15,0,0,0-.74-1.52,2.61,2.61,0,0,0-1.8-.6,2.38,2.38,0,0,0-1.61.58A2.74,2.74,0,0,0,120.86,108.43Z"/><path class="cls-5" d="M133.11,105.09h1.58v1.22h.07a2.88,2.88,0,0,1,1.16-1.07,3.28,3.28,0,0,1,1.62-.43,3.24,3.24,0,0,1,2.49.92,3.69,3.69,0,0,1,.87,2.63v5.52h-1.65v-5.41a2,2,0,0,0-2.17-2.16,2.06,2.06,0,0,0-1.65.8,2.91,2.91,0,0,0-.67,1.91v4.86h-1.65Z"/><path class="cls-5" d="M150.55,113.88H149v-1.22h-.07a3,3,0,0,1-1.16,1.08,3.39,3.39,0,0,1-1.62.43,3.24,3.24,0,0,1-2.49-.93,3.67,3.67,0,0,1-.87-2.62v-5.53h1.65v5.42a1.94,1.94,0,0,0,2.17,2.15,2,2,0,0,0,1.65-.8,2.91,2.91,0,0,0,.67-1.91v-4.86h1.65Z"/><path class="cls-5" d="M154.2,113.88h-1.65v-8.79h1.58v1.22h.07a3,3,0,0,1,1.16-1.07,3.16,3.16,0,0,1,1.55-.43,3.3,3.3,0,0,1,1.71.44,2.63,2.63,0,0,1,1.07,1.24,3.43,3.43,0,0,1,3-1.68,3,3,0,0,1,2.35.93,3.88,3.88,0,0,1,.83,2.65v5.49h-1.65v-5.24a2.82,2.82,0,0,0-.45-1.78,1.86,1.86,0,0,0-1.51-.55,2,2,0,0,0-1.59.81,3,3,0,0,0-.65,1.9v4.86H158.4v-5.24a2.82,2.82,0,0,0-.45-1.78,1.86,1.86,0,0,0-1.5-.55,2,2,0,0,0-1.6.81,3,3,0,0,0-.65,1.9Z"/><path class="cls-5" d="M171.78,114.17a4.17,4.17,0,0,1-3.19-1.33,4.66,4.66,0,0,1-1.26-3.35,4.8,4.8,0,0,1,1.22-3.35,4.05,4.05,0,0,1,3.12-1.33,4,4,0,0,1,3.11,1.26,5,5,0,0,1,1.16,3.54l0,.18H169a2.84,2.84,0,0,0,.86,2.08,2.78,2.78,0,0,0,4.45-.79l1.47.72a4.43,4.43,0,0,1-1.64,1.74A4.53,4.53,0,0,1,171.78,114.17Zm-2.64-5.74h5a2.15,2.15,0,0,0-.74-1.52,2.61,2.61,0,0,0-1.8-.6,2.38,2.38,0,0,0-1.61.58A2.74,2.74,0,0,0,169.14,108.43Z"/><path class="cls-5" d="M179.1,113.88h-1.65v-8.79H179v1.44h.07a2.34,2.34,0,0,1,1-1.19,2.86,2.86,0,0,1,1.53-.5,3,3,0,0,1,1.22.22l-.5,1.59a2.86,2.86,0,0,0-1-.12,2.14,2.14,0,0,0-1.62.75,2.52,2.52,0,0,0-.69,1.76Z"/><path class="cls-5" d="M186.94,104.81a4.08,4.08,0,0,1,2.88,1,3.48,3.48,0,0,1,1.06,2.69v5.41H189.3v-1.22h-.07a3.13,3.13,0,0,1-2.72,1.51,3.6,3.6,0,0,1-2.44-.86,2.76,2.76,0,0,1-1-2.16,2.62,2.62,0,0,1,1-2.17,4.39,4.39,0,0,1,2.75-.8,4.84,4.84,0,0,1,2.42.54v-.38a1.86,1.86,0,0,0-.68-1.46,2.33,2.33,0,0,0-1.59-.6,2.53,2.53,0,0,0-2.19,1.16l-1.46-.91A4.07,4.07,0,0,1,186.94,104.81Zm-2.14,6.38a1.32,1.32,0,0,0,.55,1.08,2,2,0,0,0,1.28.43,2.67,2.67,0,0,0,1.86-.77,2.44,2.44,0,0,0,.81-1.82,3.42,3.42,0,0,0-2.15-.6,2.83,2.83,0,0,0-1.68.48A1.45,1.45,0,0,0,184.8,111.19Z"/><path class="cls-5" d="M196.05,114a2.52,2.52,0,0,1-1.79-.66,2.46,2.46,0,0,1-.72-1.85V106.6H192v-1.51h1.55V102.4h1.65v2.69h2.15v1.51h-2.15V111a1.6,1.6,0,0,0,.34,1.19,1.08,1.08,0,0,0,.77.31,1.58,1.58,0,0,0,.38,0,1.8,1.8,0,0,0,.35-.12l.52,1.47A4.3,4.3,0,0,1,196.05,114Z"/><path class="cls-5" d="M198.32,109.49a4.67,4.67,0,0,1,1.28-3.36,4.34,4.34,0,0,1,3.24-1.32,4.29,4.29,0,0,1,3.23,1.32,4.64,4.64,0,0,1,1.29,3.36,4.57,4.57,0,0,1-1.29,3.35,4.26,4.26,0,0,1-3.23,1.33,4.31,4.31,0,0,1-3.24-1.33A4.63,4.63,0,0,1,198.32,109.49Zm1.65,0a3.21,3.21,0,0,0,.83,2.29,2.82,2.82,0,0,0,4.09,0,3.59,3.59,0,0,0,0-4.57,2.77,2.77,0,0,0-4.09,0A3.21,3.21,0,0,0,200,109.49Z"/><path class="cls-5" d="M210.34,113.88h-1.65v-8.79h1.58v1.44h.07a2.34,2.34,0,0,1,1-1.19,2.86,2.86,0,0,1,1.54-.5,2.94,2.94,0,0,1,1.21.22l-.5,1.59a2.82,2.82,0,0,0-1-.12,2.14,2.14,0,0,0-1.62.75,2.52,2.52,0,0,0-.69,1.76Z"/><path class="cls-5" d="M221.57,111.44a2.39,2.39,0,0,1-1,1.94,4.36,4.36,0,0,1-4.86.1,3.83,3.83,0,0,1-1.43-1.82l1.47-.63a2.68,2.68,0,0,0,.94,1.23,2.29,2.29,0,0,0,1.35.44,2.44,2.44,0,0,0,1.32-.34,1,1,0,0,0,.53-.81c0-.56-.43-1-1.29-1.24l-1.51-.37c-1.71-.43-2.56-1.26-2.56-2.48a2.3,2.3,0,0,1,1-1.93,4.52,4.52,0,0,1,4.61-.17,3,3,0,0,1,1.31,1.49l-1.47.61a1.84,1.84,0,0,0-.81-.87,2.57,2.57,0,0,0-1.27-.31,2.06,2.06,0,0,0-1.15.32.94.94,0,0,0-.51.79q0,.75,1.41,1.08l1.33.34C220.69,109.24,221.57,110.11,221.57,111.44Z"/><path class="cls-5" d="M225.3,112.77a1.21,1.21,0,0,1-.35.86,1.19,1.19,0,0,1-.87.36,1.16,1.16,0,0,1-.86-.36,1.18,1.18,0,0,1-.36-.86,1.15,1.15,0,0,1,.36-.87,1.19,1.19,0,0,1,.86-.35,1.22,1.22,0,0,1,.87.35A1.18,1.18,0,0,1,225.3,112.77Z"/><path class="cls-5" d="M40.16,203.56H38.51V190.71h1.65l4.47,7.82h.07l4.46-7.82h1.65v12.85H49.16v-7.63l.08-2.15h-.08l-4,7.05h-1l-4-7.05h-.07l.07,2.15Z"/><path class="cls-5" d="M60.64,203.56H59.06v-1.22H59a2.92,2.92,0,0,1-1.15,1.07,3.31,3.31,0,0,1-1.63.43,3.27,3.27,0,0,1-2.48-.92,3.69,3.69,0,0,1-.87-2.63v-5.52h1.65v5.41a1.94,1.94,0,0,0,2.17,2.16,2.06,2.06,0,0,0,1.65-.8,2.9,2.9,0,0,0,.66-1.91v-4.86h1.65Z"/><path class="cls-5" d="M64.3,190.71v12.85H62.65V190.71Z"/><path class="cls-5" d="M69.88,203.7a2.5,2.5,0,0,1-1.79-.67,2.44,2.44,0,0,1-.72-1.84v-4.92H65.82v-1.5h1.55v-2.69H69v2.69h2.15v1.5H69v4.38a1.58,1.58,0,0,0,.34,1.19,1.09,1.09,0,0,0,.77.32,1.89,1.89,0,0,0,.73-.17l.52,1.48A4.55,4.55,0,0,1,69.88,203.7Z"/><path class="cls-5" d="M75,191.74a1.16,1.16,0,1,1-.34-.83A1.11,1.11,0,0,1,75,191.74Zm-.34,3v8.79H73v-8.79Z"/><path class="cls-5" d="M81.36,203.84a3.85,3.85,0,0,1-1.77-.41,3.19,3.19,0,0,1-1.23-1.09h-.07l.07,1.22v3.87H76.71V194.77h1.58V196h.07a3.14,3.14,0,0,1,1.23-1.1,3.85,3.85,0,0,1,1.77-.41,3.79,3.79,0,0,1,2.94,1.36,5.1,5.1,0,0,1,0,6.64A3.76,3.76,0,0,1,81.36,203.84Zm-.27-1.5a2.57,2.57,0,0,0,2-.9,3.24,3.24,0,0,0,.8-2.28,3.27,3.27,0,0,0-.8-2.28,2.59,2.59,0,0,0-2-.89,2.62,2.62,0,0,0-2,.89,3.31,3.31,0,0,0-.79,2.28,3.35,3.35,0,0,0,.79,2.3A2.64,2.64,0,0,0,81.09,202.34Z"/><path class="cls-5" d="M88.51,190.71v12.85H86.86V190.71Z"/><path class="cls-5" d="M98.38,194.77l-5.51,12.66h-1.7l2-4.43-3.62-8.23h1.79L94,201.08h0l2.54-6.31Z"/><path class="cls-5" d="M106.88,203.7a2.4,2.4,0,0,1-2.52-2.51v-4.92h-1.54v-1.5h1.54v-2.69H106v2.69h2.15v1.5H106v4.38a1.58,1.58,0,0,0,.34,1.19,1.09,1.09,0,0,0,.77.32,1.58,1.58,0,0,0,.38,0,1.8,1.8,0,0,0,.35-.12l.52,1.48A4.55,4.55,0,0,1,106.88,203.7Z"/><path class="cls-5" d="M109.84,190.71h1.65v4.06l-.08,1.22h.08a2.94,2.94,0,0,1,1.15-1.08,3.6,3.6,0,0,1,4.11.49,3.71,3.71,0,0,1,.87,2.63v5.53H116v-5.21c0-1.57-.7-2.36-2.1-2.36a2.12,2.12,0,0,0-1.69.83,2.91,2.91,0,0,0-.69,2v4.79h-1.65Z"/><path class="cls-5" d="M123.5,203.84a4.22,4.22,0,0,1-3.19-1.32,4.7,4.7,0,0,1-1.26-3.36,4.77,4.77,0,0,1,1.22-3.34,4.39,4.39,0,0,1,6.24-.08,5.09,5.09,0,0,1,1.15,3.55l0,.18h-6.9a2.85,2.85,0,0,0,.86,2.08,2.78,2.78,0,0,0,4.45-.79l1.47.72a4.34,4.34,0,0,1-1.64,1.73A4.53,4.53,0,0,1,123.5,203.84Zm-2.64-5.74h5a2.13,2.13,0,0,0-.74-1.51,2.61,2.61,0,0,0-1.8-.6,2.42,2.42,0,0,0-1.61.57A2.78,2.78,0,0,0,120.86,198.1Z"/><path class="cls-5" d="M136.79,203.84a3.86,3.86,0,0,1-3-1.36,5.13,5.13,0,0,1,0-6.64,3.89,3.89,0,0,1,3-1.36,3.85,3.85,0,0,1,1.77.41,3.14,3.14,0,0,1,1.23,1.1h.07l-.07-1.22v-4.06h1.65v12.85h-1.58v-1.22h-.07a3.19,3.19,0,0,1-1.23,1.09A3.85,3.85,0,0,1,136.79,203.84Zm.27-1.5a2.54,2.54,0,0,0,2-.88,3.64,3.64,0,0,0,0-4.58,2.56,2.56,0,0,0-2-.89,2.59,2.59,0,0,0-2,.89,3.28,3.28,0,0,0-.81,2.28,3.25,3.25,0,0,0,.81,2.28A2.57,2.57,0,0,0,137.06,202.34Z"/><path class="cls-5" d="M147.3,203.84a4.2,4.2,0,0,1-3.19-1.32,4.7,4.7,0,0,1-1.26-3.36,4.77,4.77,0,0,1,1.22-3.34,4.38,4.38,0,0,1,6.23-.08,5,5,0,0,1,1.16,3.55l0,.18h-6.9a2.85,2.85,0,0,0,.86,2.08,2.78,2.78,0,0,0,4.45-.79l1.47.72a4.34,4.34,0,0,1-1.64,1.73A4.55,4.55,0,0,1,147.3,203.84Zm-2.64-5.74h5a2.13,2.13,0,0,0-.74-1.51,2.61,2.61,0,0,0-1.8-.6,2.4,2.4,0,0,0-1.61.57A2.78,2.78,0,0,0,144.66,198.1Z"/><path class="cls-5" d="M153,194.77h1.58V196h.07a2.94,2.94,0,0,1,1.15-1.08,3.31,3.31,0,0,1,1.63-.43,3.27,3.27,0,0,1,2.48.92,3.71,3.71,0,0,1,.87,2.63v5.53H159.1v-5.42a1.93,1.93,0,0,0-2.17-2.15,2.05,2.05,0,0,0-1.65.79,2.92,2.92,0,0,0-.66,1.91v4.87H153Z"/><path class="cls-5" d="M162.19,199.16a4.63,4.63,0,0,1,1.27-3.35,4.32,4.32,0,0,1,3.25-1.33,4.25,4.25,0,0,1,3.22,1.33,5,5,0,0,1,0,6.71,4.28,4.28,0,0,1-3.22,1.32,4.35,4.35,0,0,1-3.25-1.32A4.67,4.67,0,0,1,162.19,199.16Zm1.65,0a3.22,3.22,0,0,0,.82,2.3,2.82,2.82,0,0,0,4.09,0,3.61,3.61,0,0,0,0-4.58,2.79,2.79,0,0,0-4.09,0A3.21,3.21,0,0,0,163.84,199.16Z"/><path class="cls-5" d="M174.2,203.56h-1.65v-8.79h1.58V196h.07a3,3,0,0,1,1.16-1.08,3.22,3.22,0,0,1,3.25,0,2.66,2.66,0,0,1,1.08,1.24,3.42,3.42,0,0,1,3-1.69,3,3,0,0,1,2.35.93,3.89,3.89,0,0,1,.83,2.66v5.49h-1.65v-5.24a2.83,2.83,0,0,0-.45-1.79,1.86,1.86,0,0,0-1.51-.54,2,2,0,0,0-1.6.8,3,3,0,0,0-.64,1.9v4.87H178.4v-5.24a2.83,2.83,0,0,0-.45-1.79,1.86,1.86,0,0,0-1.51-.54,2,2,0,0,0-1.59.8,3,3,0,0,0-.65,1.9Z"/><path class="cls-5" d="M190,191.74a1.15,1.15,0,0,1-.34.82,1.13,1.13,0,0,1-.83.34,1.09,1.09,0,0,1-.82-.34,1.17,1.17,0,0,1,0-1.65,1.09,1.09,0,0,1,.82-.34,1.13,1.13,0,0,1,.83.34A1.16,1.16,0,0,1,190,191.74Zm-.34,3v8.79H188v-8.79Z"/><path class="cls-5" d="M191.78,194.77h1.58V196h.07a2.94,2.94,0,0,1,1.15-1.08,3.31,3.31,0,0,1,1.63-.43,3.27,3.27,0,0,1,2.48.92,3.71,3.71,0,0,1,.87,2.63v5.53h-1.65v-5.42a1.93,1.93,0,0,0-2.17-2.15,2.05,2.05,0,0,0-1.65.79,2.92,2.92,0,0,0-.66,1.91v4.87h-1.65Z"/><path class="cls-5" d="M204.74,194.48a4.1,4.1,0,0,1,2.89,1,3.44,3.44,0,0,1,1.06,2.68v5.42h-1.58v-1.22H207a3.15,3.15,0,0,1-2.73,1.5,3.54,3.54,0,0,1-2.43-.86,2.74,2.74,0,0,1-1-2.15,2.61,2.61,0,0,1,1-2.17,4.33,4.33,0,0,1,2.75-.81,4.84,4.84,0,0,1,2.42.54V198a1.89,1.89,0,0,0-.68-1.46,2.34,2.34,0,0,0-1.6-.6,2.5,2.5,0,0,0-2.18,1.17l-1.46-.92A4,4,0,0,1,204.74,194.48Zm-2.13,6.38a1.31,1.31,0,0,0,.55,1.08,2,2,0,0,0,1.28.43,2.67,2.67,0,0,0,1.86-.77,2.42,2.42,0,0,0,.81-1.81,3.36,3.36,0,0,0-2.15-.61,2.83,2.83,0,0,0-1.68.48A1.45,1.45,0,0,0,202.61,200.86Z"/><path class="cls-5" d="M213.86,203.7a2.4,2.4,0,0,1-2.52-2.51v-4.92H209.8v-1.5h1.54v-2.69H213v2.69h2.16v1.5H213v4.38a1.58,1.58,0,0,0,.35,1.19,1.09,1.09,0,0,0,.77.32,1.58,1.58,0,0,0,.38,0,1.8,1.8,0,0,0,.35-.12l.52,1.48A4.55,4.55,0,0,1,213.86,203.7Z"/><path class="cls-5" d="M216.13,199.16a4.63,4.63,0,0,1,1.28-3.35,4.31,4.31,0,0,1,3.24-1.33,4.26,4.26,0,0,1,3.23,1.33,5,5,0,0,1,0,6.71,4.29,4.29,0,0,1-3.23,1.32,4.34,4.34,0,0,1-3.24-1.32A4.67,4.67,0,0,1,216.13,199.16Zm1.65,0a3.23,3.23,0,0,0,.83,2.3,2.82,2.82,0,0,0,4.09,0,3.61,3.61,0,0,0,0-4.58,2.79,2.79,0,0,0-4.09,0A3.21,3.21,0,0,0,217.78,199.16Z"/><path class="cls-5" d="M228.15,203.56H226.5v-8.79h1.58v1.43h.07a2.42,2.42,0,0,1,1-1.19,2.84,2.84,0,0,1,1.53-.49,3.14,3.14,0,0,1,1.22.21l-.5,1.6a2.55,2.55,0,0,0-1-.13,2.11,2.11,0,0,0-1.62.76,2.5,2.5,0,0,0-.69,1.75Z"/><path class="cls-5" d="M239.38,201.12a2.37,2.37,0,0,1-1,1.93,3.94,3.94,0,0,1-2.53.79,4,4,0,0,1-2.33-.69,3.77,3.77,0,0,1-1.43-1.82l1.47-.63a2.68,2.68,0,0,0,.94,1.23,2.23,2.23,0,0,0,1.35.44,2.36,2.36,0,0,0,1.32-.34,1,1,0,0,0,.53-.81q0-.84-1.29-1.23l-1.51-.38c-1.71-.43-2.56-1.26-2.56-2.48a2.25,2.25,0,0,1,1-1.92,4,4,0,0,1,2.5-.73,4.08,4.08,0,0,1,2.11.56,3,3,0,0,1,1.31,1.48l-1.47.61a1.78,1.78,0,0,0-.81-.86,2.58,2.58,0,0,0-1.27-.32,2.14,2.14,0,0,0-1.15.32.93.93,0,0,0-.52.79c0,.51.48.86,1.42,1.08l1.33.34C238.5,198.91,239.38,199.79,239.38,201.12Z"/><path class="cls-5" d="M243.11,202.44a1.21,1.21,0,0,1-1.22,1.22,1.16,1.16,0,0,1-.86-.36,1.15,1.15,0,0,1-.36-.86,1.21,1.21,0,0,1,1.22-1.22,1.2,1.2,0,0,1,1.22,1.22Z"/><path class="cls-6" d="M287.61,105.52a3.4,3.4,0,0,1-1.24,2.68,4.77,4.77,0,0,1-6.07,0,3.39,3.39,0,0,1-1.23-2.68,3.31,3.31,0,0,1,.53-1.82,3.76,3.76,0,0,1,1.53-1.29v-.08a4,4,0,0,1-1.19-1.17,2.7,2.7,0,0,1-.45-1.48,3.35,3.35,0,0,1,1.09-2.55,4.24,4.24,0,0,1,5.52,0,3.38,3.38,0,0,1,1.08,2.55,2.7,2.7,0,0,1-.45,1.48,4,4,0,0,1-1.18,1.17v.08a3.66,3.66,0,0,1,1.52,1.29A3.24,3.24,0,0,1,287.61,105.52Zm-6.81-.09a2,2,0,0,0,.19.9,2.28,2.28,0,0,0,.53.7,2.38,2.38,0,0,0,.8.47,3.12,3.12,0,0,0,2,0,2.29,2.29,0,0,0,.8-.47,2.13,2.13,0,0,0,.53-.7,2,2,0,0,0,.2-.9,2,2,0,0,0-.74-1.59,2.63,2.63,0,0,0-1.8-.64,2.7,2.7,0,0,0-1.82.64A2.05,2.05,0,0,0,280.8,105.43Zm.42-5.78a1.84,1.84,0,0,0,.59,1.42,2.39,2.39,0,0,0,3.05,0,1.81,1.81,0,0,0,.59-1.42,1.74,1.74,0,0,0-.59-1.4,2.5,2.5,0,0,0-3.05,0A1.77,1.77,0,0,0,281.22,99.65Z"/><path d="M284.13,113.87v12.58h-1.69V116L280,117l-.65-1.43,3.7-1.73Z"/><line class="cls-7" x1="274.34" y1="111.52" x2="292.34" y2="111.52"/><path class="cls-6" d="M325.66,107.38V109h-8V107.3l3.26-3.29a32.09,32.09,0,0,0,2.27-2.51,3,3,0,0,0,.62-1.76,1.85,1.85,0,0,0-.64-1.42,2.37,2.37,0,0,0-1.66-.59,2.24,2.24,0,0,0-1.49.52,2.28,2.28,0,0,0-.81,1.25l-1.55-.63a4,4,0,0,1,3.89-2.76,4,4,0,0,1,2.85,1,3.37,3.37,0,0,1,1.14,2.58,6,6,0,0,1-2,3.94l-3.69,3.7Z"/><path d="M325.66,124.83v1.62h-8v-1.69l3.26-3.29a32.09,32.09,0,0,0,2.27-2.51,3,3,0,0,0,.62-1.76,1.85,1.85,0,0,0-.64-1.42,2.37,2.37,0,0,0-1.66-.59,2.24,2.24,0,0,0-1.49.52,2.28,2.28,0,0,0-.81,1.25l-1.55-.63a4,4,0,0,1,3.89-2.76,4,4,0,0,1,2.85,1.05,3.37,3.37,0,0,1,1.14,2.58,6,6,0,0,1-2,3.94l-3.69,3.69Z"/><line class="cls-7" x1="312.68" y1="111.52" x2="330.68" y2="111.52"/><path class="cls-6" d="M356.56,96.41V109h-1.69V98.51l-2.45,1.06-.64-1.43,3.7-1.73Z"/><path class="cls-6" d="M363.63,101a3.7,3.7,0,0,1,2.72,1.21,3.88,3.88,0,0,1,1.22,2.86,4,4,0,0,1-1.29,3,4.25,4.25,0,0,1-3,1.25,4.19,4.19,0,0,1-3.07-1.25,4,4,0,0,1-1.25-3,6.73,6.73,0,0,1,1.23-3.48l3.66-5.49,1.36.94-3.11,4.31,0,0A2.62,2.62,0,0,1,363.63,101Zm-3,4.08a2.5,2.5,0,0,0,.75,1.84,2.59,2.59,0,0,0,1.86.74,2.56,2.56,0,0,0,2.6-2.58,2.44,2.44,0,0,0-.78-1.82,2.48,2.48,0,0,0-1.82-.75,2.59,2.59,0,0,0-1.84.75A2.46,2.46,0,0,0,360.65,105.09Z"/><path d="M360.4,123h-1.73v-.87a2.91,2.91,0,0,1,.3-1.34,5.76,5.76,0,0,1,1.16-1.38,8.18,8.18,0,0,0,1.16-1.25,1.9,1.9,0,0,0,.31-1,1.75,1.75,0,0,0-.56-1.37,2.09,2.09,0,0,0-1.49-.51,2.19,2.19,0,0,0-2.17,1.77l-1.58-.66a4.14,4.14,0,0,1,1.44-2,3.67,3.67,0,0,1,2.31-.76,3.83,3.83,0,0,1,2.72,1,3.28,3.28,0,0,1,1.06,2.51,3,3,0,0,1-.39,1.48,7.25,7.25,0,0,1-1.45,1.68,2.77,2.77,0,0,0-1.09,1.94Zm.39,2.94a1.21,1.21,0,0,1-.36.88,1.19,1.19,0,0,1-.89.37,1.2,1.2,0,0,1-.89-.37,1.24,1.24,0,0,1,0-1.77,1.23,1.23,0,0,1,.89-.36,1.23,1.23,0,0,1,1.25,1.25Z"/><line class="cls-7" x1="350.67" y1="111.52" x2="368.67" y2="111.52"/><path d="M344.42,110h-8.28v-1.4h8.28Zm0,3.49h-8.28v-1.4h8.28Z"/><path class="cls-6" d="M306.33,114.76l-.94.94-2.94-2.87-2.95,2.87-.94-.94,2.93-2.85-2.93-2.85.94-.94,2.95,2.87,2.94-2.87.94.94-2.93,2.85Z"/><path d="M287.61,194.7a3.42,3.42,0,0,1-1.24,2.69,4.77,4.77,0,0,1-6.07,0,3.41,3.41,0,0,1-1.23-2.69,3.3,3.3,0,0,1,.53-1.81,3.78,3.78,0,0,1,1.53-1.3v-.07a3.94,3.94,0,0,1-1.19-1.18,2.64,2.64,0,0,1-.45-1.47,3.37,3.37,0,0,1,1.09-2.56,4.28,4.28,0,0,1,5.52,0,3.4,3.4,0,0,1,1.08,2.56,2.64,2.64,0,0,1-.45,1.47,3.91,3.91,0,0,1-1.18,1.18v.07a3.68,3.68,0,0,1,1.52,1.3A3.23,3.23,0,0,1,287.61,194.7Zm-6.81-.09a2,2,0,0,0,.19.9,2.32,2.32,0,0,0,.53.71,2.56,2.56,0,0,0,.8.47,3.12,3.12,0,0,0,2,0,2.45,2.45,0,0,0,.8-.47,2.17,2.17,0,0,0,.53-.71,2,2,0,0,0,.2-.9,2,2,0,0,0-.74-1.58,2.63,2.63,0,0,0-1.8-.64,2.7,2.7,0,0,0-1.82.64A2,2,0,0,0,280.8,194.61Zm.42-5.78a1.86,1.86,0,0,0,.59,1.43,2.42,2.42,0,0,0,3.05,0,1.83,1.83,0,0,0,.59-1.43,1.72,1.72,0,0,0-.59-1.39,2.5,2.5,0,0,0-3.05,0A1.75,1.75,0,0,0,281.22,188.83Z"/><path class="cls-6" d="M284.13,203.05v12.59h-1.69V205.15L280,206.22l-.65-1.44,3.7-1.73Z"/><line class="cls-7" x1="274.34" y1="200.7" x2="292.34" y2="200.7"/><path d="M325.66,196.56v1.62h-8v-1.69l3.26-3.3a28.77,28.77,0,0,0,2.27-2.51,2.92,2.92,0,0,0,.62-1.75,1.84,1.84,0,0,0-.64-1.42,2.37,2.37,0,0,0-1.66-.59,2.24,2.24,0,0,0-1.49.52,2.28,2.28,0,0,0-.81,1.25l-1.55-.63a4,4,0,0,1,3.89-2.76,4,4,0,0,1,2.85,1,3.37,3.37,0,0,1,1.14,2.58,6,6,0,0,1-2,3.93l-3.69,3.7Z"/><path class="cls-6" d="M325.66,214v1.62h-8V214l3.26-3.3a28.77,28.77,0,0,0,2.27-2.51,2.93,2.93,0,0,0,.62-1.76,1.83,1.83,0,0,0-.64-1.41,2.33,2.33,0,0,0-1.66-.59,2.28,2.28,0,0,0-1.49.51,2.32,2.32,0,0,0-.81,1.25l-1.55-.62a4,4,0,0,1,1.42-2,3.91,3.91,0,0,1,2.47-.8,4,4,0,0,1,2.85,1.05,3.37,3.37,0,0,1,1.14,2.57,6,6,0,0,1-2,3.94l-3.69,3.7Z"/><line class="cls-7" x1="312.68" y1="200.7" x2="330.68" y2="200.7"/><path d="M356.56,185.6v12.58h-1.69V187.69l-2.45,1.07-.64-1.44,3.7-1.72Z"/><path d="M363.63,190.19a3.71,3.71,0,0,1,2.72,1.22,3.87,3.87,0,0,1,1.22,2.85,4,4,0,0,1-1.29,3,4.22,4.22,0,0,1-3,1.26,4.16,4.16,0,0,1-3.07-1.26,4,4,0,0,1-1.25-3,6.73,6.73,0,0,1,1.23-3.48l3.66-5.48,1.36.94-3.11,4.3,0,0A2.62,2.62,0,0,1,363.63,190.19Zm-3,4.09a2.51,2.51,0,0,0,.75,1.84,2.59,2.59,0,0,0,1.86.74,2.49,2.49,0,0,0,1.84-.74,2.52,2.52,0,0,0,.76-1.84,2.44,2.44,0,0,0-.78-1.82,2.49,2.49,0,0,0-1.82-.76,2.61,2.61,0,0,0-1.84.76A2.46,2.46,0,0,0,360.65,194.28Z"/><path class="cls-6" d="M363.65,214.62v1.62h-8v-1.7l3.25-3.29a30.34,30.34,0,0,0,2.27-2.51,3,3,0,0,0,.62-1.76,1.87,1.87,0,0,0-.64-1.42,2.37,2.37,0,0,0-1.66-.58,2.34,2.34,0,0,0-2.3,1.76l-1.54-.62a3.84,3.84,0,0,1,1.41-2,3.91,3.91,0,0,1,2.47-.8,4.08,4.08,0,0,1,2.85,1A3.37,3.37,0,0,1,363.5,207a6,6,0,0,1-2,3.94l-3.68,3.7Z"/><line class="cls-7" x1="350.67" y1="200.7" x2="368.67" y2="200.7"/><path d="M344.42,199.16h-8.28v-1.4h8.28Zm0,3.5h-8.28v-1.4h8.28Z"/><path class="cls-6" d="M306.33,204l-.94.94L302.45,202l-2.95,2.87-.94-.94,2.93-2.85-2.93-2.86.94-.94,2.95,2.87,2.94-2.87.94.94-2.93,2.86Z"/><line class="cls-8" x1="26.46" y1="158.55" x2="301.59" y2="158.55"/><path class="cls-9" d="M59.87,7.71h2.42v5.13h5.39V7.71h2.43V20.55H67.68V15.13H62.29v5.42H59.87Z"/><path class="cls-9" d="M76.56,11.47a5,5,0,0,1,1.88.35,4.76,4.76,0,0,1,1.47,1,4.58,4.58,0,0,1,1,1.48,5,5,0,0,1,.35,1.88A5.08,5.08,0,0,1,80.88,18a4.69,4.69,0,0,1-1,1.48,4.56,4.56,0,0,1-1.47,1,4.81,4.81,0,0,1-1.88.35,4.76,4.76,0,0,1-1.87-.35A4.31,4.31,0,0,1,72.25,18a5.08,5.08,0,0,1-.35-1.89,5,5,0,0,1,.35-1.88,4.28,4.28,0,0,1,1-1.48,4.54,4.54,0,0,1,1.47-1A4.94,4.94,0,0,1,76.56,11.47Zm0,7.19A2.32,2.32,0,0,0,78.18,18a2.45,2.45,0,0,0,.51-.79,3,3,0,0,0,0-2.11,2.27,2.27,0,0,0-2.13-1.46,2.38,2.38,0,0,0-.88.17,2.26,2.26,0,0,0-.73.5,2.08,2.08,0,0,0-.51.79,3,3,0,0,0,0,2.11A2.16,2.16,0,0,0,75,18a2.09,2.09,0,0,0,.73.49A2.19,2.19,0,0,0,76.56,18.66Z"/><path class="cls-9" d="M81.62,11.76h2.64l1.45,5.51h.12l1.74-5.51H90l1.75,5.51h.13l1.43-5.51h2.6L93.1,20.55H90.57L88.81,15h-.12l-1.76,5.54H84.44Z"/><path class="cls-9" d="M107.48,19.49h-.14a2.66,2.66,0,0,1-1,1,3.31,3.31,0,0,1-1.68.39,3.74,3.74,0,0,1-1.61-.35,4.23,4.23,0,0,1-1.34-1,4.77,4.77,0,0,1-.93-1.48,5.29,5.29,0,0,1-.34-1.89,5.19,5.19,0,0,1,.34-1.88,4.66,4.66,0,0,1,.93-1.48,4.42,4.42,0,0,1,1.34-1,3.89,3.89,0,0,1,1.61-.35,3.22,3.22,0,0,1,1.68.4,2.66,2.66,0,0,1,1,1h.14l-.14-1.26V7.71h2.35V20.55h-2.21Zm-2.35-.83a2.24,2.24,0,0,0,.89-.17,2,2,0,0,0,.74-.49,2.31,2.31,0,0,0,.52-.79,2.88,2.88,0,0,0,0-2.11A2.35,2.35,0,0,0,106,13.81a2.43,2.43,0,0,0-.89-.17,2.28,2.28,0,0,0-.89.18,2.36,2.36,0,0,0-.74.5,2.41,2.41,0,0,0-.52.79,2.68,2.68,0,0,0-.2,1,2.64,2.64,0,0,0,.2,1,2.31,2.31,0,0,0,.52.79,2.06,2.06,0,0,0,.74.5A2.12,2.12,0,0,0,105.13,18.66Z"/><path class="cls-9" d="M115.77,11.47a4.94,4.94,0,0,1,1.87.35,4.54,4.54,0,0,1,1.47,1,4.42,4.42,0,0,1,1,1.48,5,5,0,0,1,.35,1.88,5.08,5.08,0,0,1-.35,1.89,4.53,4.53,0,0,1-1,1.48,4.36,4.36,0,0,1-1.47,1,4.76,4.76,0,0,1-1.87.35,4.81,4.81,0,0,1-1.88-.35,4.56,4.56,0,0,1-1.47-1,4.69,4.69,0,0,1-1-1.48,5.08,5.08,0,0,1-.35-1.89,5,5,0,0,1,.35-1.88,4.58,4.58,0,0,1,1-1.48,4.76,4.76,0,0,1,1.47-1A5,5,0,0,1,115.77,11.47Zm0,7.19a2.18,2.18,0,0,0,.87-.17,2,2,0,0,0,.74-.49,2.16,2.16,0,0,0,.51-.79,3,3,0,0,0,0-2.11,2.08,2.08,0,0,0-.51-.79,2.2,2.2,0,0,0-.74-.5,2.36,2.36,0,0,0-.87-.17,2.34,2.34,0,0,0-.88.17,2.3,2.3,0,0,0-.74.5,2.34,2.34,0,0,0-.51.79,3,3,0,0,0,0,2.11,2.45,2.45,0,0,0,.51.79,2.13,2.13,0,0,0,.74.49A2.16,2.16,0,0,0,115.77,18.66Z"/><path class="cls-9" d="M128.64,20.12,125,11.76h2.67l2.23,5.33H130l2.14-5.33h2.61l-5.5,12.66h-2.53Z"/><path class="cls-9" d="M139.6,11.47a5,5,0,0,1,1.88.35,4.76,4.76,0,0,1,1.47,1,4.58,4.58,0,0,1,1,1.48,5,5,0,0,1,.35,1.88,5.08,5.08,0,0,1-.35,1.89,4.69,4.69,0,0,1-1,1.48,4.56,4.56,0,0,1-1.47,1,4.81,4.81,0,0,1-1.88.35,4.76,4.76,0,0,1-1.87-.35A4.31,4.31,0,0,1,135.29,18a5.08,5.08,0,0,1-.35-1.89,5,5,0,0,1,.35-1.88,4.28,4.28,0,0,1,1-1.48,4.54,4.54,0,0,1,1.47-1A4.94,4.94,0,0,1,139.6,11.47Zm0,7.19a2.32,2.32,0,0,0,1.62-.66,2.45,2.45,0,0,0,.51-.79,3,3,0,0,0,0-2.11,2.27,2.27,0,0,0-2.13-1.46,2.38,2.38,0,0,0-.88.17,2.26,2.26,0,0,0-.73.5,2.08,2.08,0,0,0-.51.79,3,3,0,0,0,0,2.11A2.16,2.16,0,0,0,138,18a2.09,2.09,0,0,0,.73.49A2.19,2.19,0,0,0,139.6,18.66Z"/><path class="cls-9" d="M151.76,19.4h-.14a3.11,3.11,0,0,1-1.11,1.05,3.24,3.24,0,0,1-1.6.38,3,3,0,0,1-2.48-1,4.2,4.2,0,0,1-.82-2.72V11.76H148v5a2,2,0,0,0,.42,1.41,1.6,1.6,0,0,0,1.23.45,1.67,1.67,0,0,0,.85-.2,1.88,1.88,0,0,0,.63-.56,2.6,2.6,0,0,0,.39-.82,3.75,3.75,0,0,0,.14-1v-4.3H154v8.79h-2.21Z"/><path class="cls-9" d="M159.92,11.76h2.21v1.15h.14A3.19,3.19,0,0,1,165,11.47a3,3,0,0,1,1.69.47,2.67,2.67,0,0,1,1,1.15A3.42,3.42,0,0,1,168.78,12a3.33,3.33,0,0,1,1.83-.48,3.5,3.5,0,0,1,1.4.26,2.77,2.77,0,0,1,1,.73,3.22,3.22,0,0,1,.58,1.12,5,5,0,0,1,.2,1.43v5.54h-2.35V15.44q0-1.8-1.47-1.8a1.63,1.63,0,0,0-.83.21,1.86,1.86,0,0,0-.6.55,2.68,2.68,0,0,0-.37.84,3.84,3.84,0,0,0-.14,1v4.27h-2.35V15.44c0-1.2-.51-1.8-1.54-1.8a1.48,1.48,0,0,0-.79.21,1.76,1.76,0,0,0-.57.55,2.67,2.67,0,0,0-.36.84,3.85,3.85,0,0,0-.13,1v4.27h-2.35Z"/><path class="cls-9" d="M181.78,19.4h-.14a3,3,0,0,1-1.11,1.05,3.24,3.24,0,0,1-1.6.38,3,3,0,0,1-2.48-1,4.2,4.2,0,0,1-.82-2.72V11.76H178v5a2,2,0,0,0,.42,1.41,1.6,1.6,0,0,0,1.23.45,1.67,1.67,0,0,0,.85-.2,1.88,1.88,0,0,0,.63-.56,2.61,2.61,0,0,0,.4-.82,3.75,3.75,0,0,0,.13-1v-4.3H184v8.79h-2.21Z"/><path class="cls-9" d="M186,20.55V7.71h2.35V20.55Z"/><path class="cls-9" d="M191.41,13.77h-1.54v-2h1.54V9.07h2.35v2.69h2.16v2h-2.16v3.51a2.63,2.63,0,0,0,.07.58,1,1,0,0,0,.24.46.92.92,0,0,0,.72.29,1.56,1.56,0,0,0,.48-.06,1.54,1.54,0,0,0,.34-.17l.67,2.06a4.44,4.44,0,0,1-.89.3,5.71,5.71,0,0,1-1,.09,3.19,3.19,0,0,1-1.19-.21,2.53,2.53,0,0,1-.89-.57,3.15,3.15,0,0,1-.85-2.35Z"/><path class="cls-9" d="M199,10.58a1.48,1.48,0,0,1-.59-.12,1.75,1.75,0,0,1-.48-.32,1.39,1.39,0,0,1-.32-.48,1.45,1.45,0,0,1-.12-.59,1.41,1.41,0,0,1,.12-.59A1.39,1.39,0,0,1,198,8a1.55,1.55,0,0,1,.48-.32,1.48,1.48,0,0,1,.59-.12,1.5,1.5,0,0,1,1.07.44,1.5,1.5,0,0,1,0,2.14A1.5,1.5,0,0,1,199,10.58Zm-1.17,10V11.76h2.35v8.79Z"/><path class="cls-9" d="M202.3,11.76h2.21v1.06h.14a2.63,2.63,0,0,1,1-1,3.28,3.28,0,0,1,1.69-.4,3.89,3.89,0,0,1,1.61.35,4.55,4.55,0,0,1,1.34,1,4.46,4.46,0,0,1,.92,1.48,5,5,0,0,1,.34,1.88,5.08,5.08,0,0,1-.34,1.89,4.57,4.57,0,0,1-.92,1.48,4.34,4.34,0,0,1-1.34,1,3.74,3.74,0,0,1-1.61.35,3.38,3.38,0,0,1-1.69-.39,2.63,2.63,0,0,1-1-1h-.14l.14,1.25v3.68H202.3Zm4.56,6.9a2,2,0,0,0,.88-.18,2.19,2.19,0,0,0,.75-.5,2.47,2.47,0,0,0,.52-.79,2.64,2.64,0,0,0,.2-1,2.68,2.68,0,0,0-.2-1,2.58,2.58,0,0,0-.52-.79,2.52,2.52,0,0,0-.75-.5,2.2,2.2,0,0,0-.88-.18,2.39,2.39,0,0,0-.89.17,2.35,2.35,0,0,0-.75.5,2.52,2.52,0,0,0-.52.79,3,3,0,0,0,0,2.11,2.65,2.65,0,0,0,.52.79,2.17,2.17,0,0,0,.75.49A2.21,2.21,0,0,0,206.86,18.66Z"/><path class="cls-9" d="M212.88,20.55V7.71h2.35V20.55Z"/><path class="cls-9" d="M220,20.12l-3.69-8.36H219l2.22,5.33h.13l2.13-5.33h2.62l-5.5,12.66h-2.53Z"/><path class="cls-9" d="M235.09,7.56a4.59,4.59,0,0,1,.93.09,4.09,4.09,0,0,1,.77.24L236.13,10a2.24,2.24,0,0,0-.39-.14,1.91,1.91,0,0,0-.51-.05,1.08,1.08,0,0,0-.83.33,1.32,1.32,0,0,0-.3.92v.72h2.19v2H234.1v6.78h-2.35V13.77h-1.58v-2h1.58V10.9A4,4,0,0,1,232,9.47a2.79,2.79,0,0,1,.69-1,3.07,3.07,0,0,1,1.06-.64A3.86,3.86,0,0,1,235.09,7.56Z"/><path class="cls-9" d="M237.86,11.76h2.21V13h.14a2.48,2.48,0,0,1,.43-.59,2.83,2.83,0,0,1,.61-.47,3,3,0,0,1,.71-.32,2.31,2.31,0,0,1,.77-.13,3,3,0,0,1,.79.1,2.51,2.51,0,0,1,.57.26l-.63,2.1a2.17,2.17,0,0,0-.47-.17,3,3,0,0,0-.64-.06,2,2,0,0,0-.88.19,1.82,1.82,0,0,0-.67.53,2.37,2.37,0,0,0-.43.8,3,3,0,0,0-.16,1v4.33h-2.35Z"/><path class="cls-9" d="M250.22,19.61h-.14a4,4,0,0,1-1,.87,2.88,2.88,0,0,1-1.49.35,3.64,3.64,0,0,1-1.29-.22,3.43,3.43,0,0,1-1.05-.62,2.9,2.9,0,0,1-.7-.95,3.06,3.06,0,0,1-.25-1.22,2.68,2.68,0,0,1,1-2.17,3.49,3.49,0,0,1,1.13-.6,4.71,4.71,0,0,1,1.43-.21,6.17,6.17,0,0,1,1.42.14,6.27,6.27,0,0,1,.91.28V15a1.44,1.44,0,0,0-.55-1.16,2.13,2.13,0,0,0-1.38-.46,2.57,2.57,0,0,0-2.07,1l-1.7-1.17a4.61,4.61,0,0,1,3.82-1.76,4.55,4.55,0,0,1,3.12,1,3.61,3.61,0,0,1,1.08,2.84v5.28h-2.32Zm0-2.63a5.12,5.12,0,0,0-.85-.32,4.08,4.08,0,0,0-1-.11,2,2,0,0,0-1.3.37,1.12,1.12,0,0,0-.46.9,1,1,0,0,0,.44.86,1.66,1.66,0,0,0,1,.33,2.07,2.07,0,0,0,.86-.18,2.23,2.23,0,0,0,.67-.44,2,2,0,0,0,.43-.65A2,2,0,0,0,250.22,17Z"/><path class="cls-9" d="M262.65,18.31a5,5,0,0,1-1.6,1.82,4.48,4.48,0,0,1-2.58.7,4.76,4.76,0,0,1-1.87-.35,4.24,4.24,0,0,1-1.47-1,4.37,4.37,0,0,1-1-1.48,5.22,5.22,0,0,1,0-3.76,4.28,4.28,0,0,1,1-1.48,4.54,4.54,0,0,1,1.47-1,4.94,4.94,0,0,1,1.87-.35,4.57,4.57,0,0,1,2.57.7A4.16,4.16,0,0,1,262.56,14l-2.15.9a2.23,2.23,0,0,0-.78-.92,2.13,2.13,0,0,0-1.19-.32,2.16,2.16,0,0,0-.88.18,2.31,2.31,0,0,0-.73.5,2.35,2.35,0,0,0-.49.79,2.87,2.87,0,0,0-.18,1,2.84,2.84,0,0,0,.18,1,2.25,2.25,0,0,0,.49.79,2.25,2.25,0,0,0,1.61.68,2.23,2.23,0,0,0,1.24-.33,2.29,2.29,0,0,0,.82-1Z"/><path class="cls-9" d="M265,13.77h-1.54v-2H265V9.07h2.35v2.69h2.16v2h-2.16v3.51a2.15,2.15,0,0,0,.07.58,1,1,0,0,0,.24.46.92.92,0,0,0,.72.29,1.56,1.56,0,0,0,.48-.06,1.54,1.54,0,0,0,.34-.17l.66,2.06a4.15,4.15,0,0,1-.88.3,5.71,5.71,0,0,1-1.05.09,3.25,3.25,0,0,1-1.2-.21,2.57,2.57,0,0,1-.88-.57A3.11,3.11,0,0,1,265,17.7Z"/><path class="cls-9" d="M272.59,10.58a1.48,1.48,0,0,1-.59-.12,1.75,1.75,0,0,1-.48-.32,1.39,1.39,0,0,1-.32-.48,1.45,1.45,0,0,1-.12-.59,1.41,1.41,0,0,1,.12-.59,1.39,1.39,0,0,1,.32-.48,1.55,1.55,0,0,1,.48-.32,1.48,1.48,0,0,1,.59-.12,1.5,1.5,0,0,1,1.07.44,1.5,1.5,0,0,1,0,2.14A1.5,1.5,0,0,1,272.59,10.58Zm-1.17,10V11.76h2.35v8.79Z"/><path class="cls-9" d="M280,11.47a5,5,0,0,1,1.88.35,4.36,4.36,0,0,1,2.44,2.45,5,5,0,0,1,.35,1.88,5.08,5.08,0,0,1-.35,1.89,4.69,4.69,0,0,1-1,1.48,4.36,4.36,0,0,1-1.47,1,4.81,4.81,0,0,1-1.88.35,4.76,4.76,0,0,1-1.87-.35,4.36,4.36,0,0,1-1.47-1,4.53,4.53,0,0,1-1-1.48,5.08,5.08,0,0,1-.35-1.89,5,5,0,0,1,.35-1.88,4.42,4.42,0,0,1,1-1.48,4.54,4.54,0,0,1,1.47-1A4.94,4.94,0,0,1,280,11.47Zm0,7.19a2.32,2.32,0,0,0,1.62-.66,2.45,2.45,0,0,0,.51-.79,3,3,0,0,0,0-2.11A2.27,2.27,0,0,0,280,13.64a2.38,2.38,0,0,0-.88.17,2.26,2.26,0,0,0-.73.5,2.08,2.08,0,0,0-.51.79,3,3,0,0,0,0,2.11,2.16,2.16,0,0,0,.51.79,2.09,2.09,0,0,0,.73.49A2.19,2.19,0,0,0,280,18.66Z"/><path class="cls-9" d="M288.19,12.91h.14a3,3,0,0,1,1.11-1.05,3.24,3.24,0,0,1,1.6-.39,3.61,3.61,0,0,1,1.45.27,2.78,2.78,0,0,1,1,.76,3.42,3.42,0,0,1,.6,1.19,5.24,5.24,0,0,1,.21,1.53v5.33H292v-5a2,2,0,0,0-.42-1.41,1.57,1.57,0,0,0-1.23-.46,1.67,1.67,0,0,0-.85.21,2.07,2.07,0,0,0-.63.55,2.65,2.65,0,0,0-.39.83,3.68,3.68,0,0,0-.14,1v4.31H286V11.76h2.21Z"/><path class="cls-9" d="M299.67,20.83a5.17,5.17,0,0,1-1.54-.21,4,4,0,0,1-1.16-.57,3.77,3.77,0,0,1-.84-.8,4.35,4.35,0,0,1-.52-.93l2.1-.89a2.33,2.33,0,0,0,.82,1,2.05,2.05,0,0,0,1.14.33,2,2,0,0,0,1-.23.67.67,0,0,0,.38-.56.69.69,0,0,0-.32-.58,3.26,3.26,0,0,0-1.08-.4l-1.24-.27a4.28,4.28,0,0,1-.85-.29,3.27,3.27,0,0,1-.8-.5,2.51,2.51,0,0,1-.59-.74,2,2,0,0,1-.24-1,2.42,2.42,0,0,1,.28-1.15,2.6,2.6,0,0,1,.77-.85,3.82,3.82,0,0,1,1.13-.54,5,5,0,0,1,1.41-.19,4.89,4.89,0,0,1,2.24.5,3,3,0,0,1,1.46,1.56l-2,.83a1.5,1.5,0,0,0-.74-.75,2.13,2.13,0,0,0-1-.24,1.76,1.76,0,0,0-.88.21.61.61,0,0,0-.38.53.55.55,0,0,0,.31.48,3.87,3.87,0,0,0,.86.33l1.34.32a3.87,3.87,0,0,1,2,1,2.37,2.37,0,0,1,.66,1.68,2.34,2.34,0,0,1-.27,1.09,2.81,2.81,0,0,1-.77.92,3.52,3.52,0,0,1-1.18.64A4.64,4.64,0,0,1,299.67,20.83Z"/><path class="cls-9" d="M307.22,16.14v-.6a3.29,3.29,0,0,1,.09-.79,2.56,2.56,0,0,1,.28-.71,3,3,0,0,1,.5-.68,8.16,8.16,0,0,1,.78-.74,5.86,5.86,0,0,0,.75-.79,1.42,1.42,0,0,0,.27-.88,1.32,1.32,0,0,0-.4-.95,1.5,1.5,0,0,0-1.11-.41,1.87,1.87,0,0,0-.68.12,1.93,1.93,0,0,0-.54.35,2,2,0,0,0-.38.48,2.28,2.28,0,0,0-.23.56l-2.06-.87a4.23,4.23,0,0,1,.46-1,4,4,0,0,1,.79-.91,4.22,4.22,0,0,1,1.12-.65,3.9,3.9,0,0,1,1.45-.25,4.67,4.67,0,0,1,1.58.26,3.57,3.57,0,0,1,1.23.72,3.17,3.17,0,0,1,.8,1.08,3.23,3.23,0,0,1,.28,1.35,3.38,3.38,0,0,1-.12.93,4.09,4.09,0,0,1-.34.77,4.67,4.67,0,0,1-.5.67c-.2.21-.4.42-.61.62s-.38.37-.52.52a3,3,0,0,0-.32.46,2,2,0,0,0-.17.47,3.3,3.3,0,0,0-.05.58v.29Zm1.15,4.41a1.47,1.47,0,0,1-1.1-.46,1.52,1.52,0,0,1-.45-1.1,1.54,1.54,0,0,1,1.55-1.55,1.55,1.55,0,0,1,1.1,2.65A1.49,1.49,0,0,1,308.37,20.55Z"/><g class="cls-10"><path d="M148.94,281.8v14.72h-2V284.26l-2.86,1.24-.75-1.67,4.32-2Z"/><path d="M157.21,287.18a4.37,4.37,0,0,1,3.18,1.42,4.53,4.53,0,0,1,1.42,3.34,4.69,4.69,0,0,1-1.51,3.46,5,5,0,0,1-7.12,0,4.74,4.74,0,0,1-1.46-3.46,7.87,7.87,0,0,1,1.44-4.07l4.28-6.41,1.59,1.1-3.63,5,0,.05A3,3,0,0,1,157.21,287.18ZM153.72,292a2.91,2.91,0,0,0,.88,2.15,3,3,0,0,0,2.18.86,3,3,0,1,0,0-6,3,3,0,0,0-2.16.88A2.88,2.88,0,0,0,153.72,292Z"/><path d="M157.22,314.29v1.89h-9.39v-2l3.81-3.85a31.82,31.82,0,0,0,2.65-2.94,3.34,3.34,0,0,0,.73-2.05,2.17,2.17,0,0,0-.75-1.66,2.76,2.76,0,0,0-1.94-.69,2.62,2.62,0,0,0-1.74.61,2.69,2.69,0,0,0-1,1.46l-1.81-.73a4.74,4.74,0,0,1,4.54-3.23,4.74,4.74,0,0,1,3.34,1.23,3.91,3.91,0,0,1,1.33,3c0,1.42-.78,3-2.34,4.6l-4.31,4.33Z"/><line class="cls-11" x1="142.16" y1="299.25" x2="163.08" y2="299.25"/><path d="M134.91,298.26h-9.68v-1.63h9.68Zm0,4.09h-9.68v-1.63h9.68Z"/></g><g class="cls-12"><rect class="cls-13" x="61.13" y="261.04" width="23.91" height="23.91" transform="translate(346.09 199.91) rotate(90)"/><rect class="cls-13" x="85.04" y="261.04" width="23.91" height="23.91" transform="translate(370 176) rotate(90)"/><rect class="cls-13" x="157.07" y="261.04" width="23.91" height="23.91" transform="translate(442.02 103.98) rotate(90)"/><rect class="cls-13" x="180.98" y="261.04" width="23.91" height="23.91" transform="translate(465.93 80.07) rotate(90)"/><rect class="cls-13" x="205.17" y="261.04" width="23.91" height="23.91" transform="translate(490.13 55.87) rotate(90)"/><rect class="cls-13" x="229.37" y="261.04" width="23.91" height="23.91" transform="translate(514.33 31.67) rotate(90)"/><rect class="cls-13" x="108.96" y="261.04" width="23.91" height="23.91" transform="translate(393.91 152.09) rotate(90)"/><rect class="cls-13" x="133.01" y="261.04" width="23.91" height="23.91" transform="translate(417.97 128.03) rotate(90)"/></g><g class="cls-14"><rect class="cls-15" x="67.96" y="290.43" width="11.96" height="23.91" transform="translate(376.32 228.45) rotate(90)"/><rect class="cls-15" x="67.96" y="302.39" width="11.96" height="23.91" transform="translate(388.28 240.41) rotate(90)"/><rect class="cls-15" x="91.87" y="290.43" width="11.96" height="23.91" transform="translate(400.23 204.54) rotate(90)"/><rect class="cls-15" x="91.87" y="302.39" width="11.96" height="23.91" transform="translate(412.19 216.49) rotate(90)"/><rect class="cls-15" x="115.78" y="290.43" width="11.96" height="23.91" transform="translate(424.15 180.63) rotate(90)"/><rect class="cls-15" x="115.78" y="302.39" width="11.96" height="23.91" transform="translate(436.1 192.58) rotate(90)"/><rect class="cls-15" x="139.69" y="290.43" width="11.96" height="23.91" transform="translate(448.06 156.71) rotate(90)"/><rect class="cls-15" x="139.69" y="302.39" width="11.96" height="23.91" transform="translate(460.02 168.67) rotate(90)"/><rect class="cls-15" x="163.61" y="290.43" width="11.96" height="23.91" transform="translate(471.97 132.8) rotate(90)"/><rect class="cls-15" x="163.61" y="302.39" width="11.96" height="23.91" transform="translate(483.93 144.76) rotate(90)"/><rect class="cls-15" x="187.52" y="290.43" width="11.96" height="23.91" transform="translate(495.88 108.89) rotate(90)"/><rect class="cls-15" x="187.52" y="302.39" width="11.96" height="23.91" transform="translate(507.84 120.84) rotate(90)"/><rect class="cls-15" x="211.43" y="290.43" width="11.96" height="23.91" transform="translate(519.8 84.97) rotate(90)"/><rect class="cls-15" x="211.43" y="302.39" width="11.96" height="23.91" transform="translate(531.75 96.93) rotate(90)"/><rect class="cls-15" x="235.35" y="290.43" width="11.96" height="23.91" transform="translate(543.71 61.06) rotate(90)"/><rect class="cls-15" x="235.35" y="302.39" width="11.96" height="23.91" transform="translate(555.67 73.02) rotate(90)"/></g><rect class="cls-16" x="32.91" y="290.43" width="11.96" height="23.91" transform="translate(341.28 263.49) rotate(90)"/><rect class="cls-16" x="32.91" y="302.39" width="11.96" height="23.91" transform="translate(353.23 275.45) rotate(90)"/><path d="M39.57,274.58,36.23,278l-1.09-1.1,3.35-3.44L35.14,270l1.09-1.1,3.34,3.43,3.34-3.43L44,270l-3.35,3.45L44,276.91,42.91,278Z"/><polyline class="cls-7" points="253.28 290.17 56.86 290.17 56.86 326.12"/></g></g></svg>