<svg xmlns="http://www.w3.org/2000/svg" xmlns:xlink="http://www.w3.org/1999/xlink" viewBox="0 0 644 447.18"><defs><style>.cls-1,.cls-11,.cls-2,.cls-3,.cls-7,.cls-8{fill:none;}.cls-2,.cls-3{stroke:#231f20;}.cls-2{stroke-linecap:square;stroke-width:0.3px;}.cls-11,.cls-15,.cls-16,.cls-3,.cls-7,.cls-8{stroke-linecap:round;}.cls-3{stroke-width:0.75px;}.cls-4{opacity:0.1;fill:url(#Bird_Feet);}.cls-5{fill:#2980b9;}.cls-6{fill:blue;}.cls-11,.cls-15,.cls-16,.cls-7{stroke:#1d1d1b;}.cls-11,.cls-15,.cls-16,.cls-7,.cls-8{stroke-linejoin:round;}.cls-7{stroke-width:3px;}.cls-8{stroke:#7f8c8d;}.cls-9{fill:#fff;}.cls-10{opacity:0;}.cls-11{stroke-width:2px;}.cls-12,.cls-16{opacity:0.3;}.cls-13{fill:#cc93cc;stroke:#fff;stroke-miterlimit:10;}.cls-13,.cls-14,.cls-15{opacity:0.5;}.cls-15{fill:#810094;}.cls-16{fill:#5ffcff;fill-opacity:0.5;stroke-opacity:0.5;}</style><pattern id="Bird_Feet" data-name="Bird Feet" width="65.25" height="65.25" patternUnits="userSpaceOnUse" viewBox="0 0 65.25 65.25"><rect class="cls-1" width="65.25" height="65.25"/><line class="cls-2" x1="67.54" y1="61.59" x2="62.02" y2="65.89"/><line class="cls-2" x1="70" y1="64.75" x2="64.47" y2="69.05"/><line class="cls-2" x1="47.19" y1="62.53" x2="43.5" y2="68"/><line class="cls-2" x1="49.93" y1="65.44" x2="44.83" y2="70.23"/><line class="cls-2" x1="53.13" y1="64.47" x2="55.5" y2="70.25"/><line class="cls-2" x1="56.25" y1="63.25" x2="59" y2="70"/><line class="cls-2" x1="28" y1="63.75" x2="22.31" y2="68.13"/><line class="cls-2" x1="32" y1="64.75" x2="25.3" y2="70.79"/><line class="cls-2" x1="9.25" y1="64.5" x2="9" y2="66"/><line class="cls-2" x1="14.22" y1="62.67" x2="18.5" y2="68.5"/><line class="cls-2" x1="17.05" y1="59.84" x2="21.33" y2="65.67"/><line class="cls-2" x1="38.75" y1="62.75" x2="39.25" y2="69.25"/><line class="cls-2" x1="36" y1="62" x2="34.5" y2="68.75"/><line class="cls-2" x1="2.29" y1="61.59" x2="-3.23" y2="65.89"/><line class="cls-2" x1="4.75" y1="64.75" x2="-0.78" y2="69.05"/><line class="cls-2" x1="22.49" y1="23.04" x2="19.25" y2="29.25"/><line class="cls-2" x1="36.42" y1="43.45" x2="44" y2="45.5"/><line class="cls-2" x1="37.5" y1="40.5" x2="45.25" y2="41.75"/><line class="cls-2" x1="30" y1="60.75" x2="32.75" y2="55.5"/><line class="cls-2" x1="26.5" y1="60.25" x2="29.52" y2="54.46"/><line class="cls-2" x1="46" y1="55.5" x2="41.25" y2="59"/><line class="cls-2" x1="47.25" y1="58" x2="43.5" y2="62"/><line class="cls-2" x1="49.88" y1="46.3" x2="50.78" y2="53.25"/><line class="cls-2" x1="45.98" y1="47.21" x2="47.53" y2="53.75"/><line class="cls-2" x1="14.22" y1="62.67" x2="18.5" y2="68.5"/><line class="cls-2" x1="17.05" y1="59.84" x2="21.33" y2="65.67"/><line class="cls-2" x1="20.53" y1="48.64" x2="23.96" y2="54.74"/><line class="cls-2" x1="24.23" y1="47.13" x2="26.87" y2="53.61"/><line class="cls-2" x1="33" y1="44.5" x2="27.75" y2="47.5"/><line class="cls-2" x1="35.5" y1="47.75" x2="29.75" y2="49.75"/><line class="cls-2" x1="47.19" y1="62.53" x2="43.5" y2="68"/><line class="cls-2" x1="49.93" y1="65.44" x2="44.83" y2="70.23"/><line class="cls-2" x1="53.13" y1="64.47" x2="55.5" y2="70.25"/><line class="cls-2" x1="28" y1="63.75" x2="22.31" y2="68.13"/><line class="cls-2" x1="32" y1="64.75" x2="25.3" y2="70.79"/><line class="cls-2" x1="21.5" y1="58.25" x2="22" y2="59.5"/><line class="cls-2" x1="37.75" y1="60.25" x2="38.75" y2="61.25"/><line class="cls-2" x1="38.75" y1="62.75" x2="39.25" y2="69.25"/><line class="cls-2" x1="36" y1="62" x2="34.5" y2="68.75"/><line class="cls-2" x1="53.28" y1="50" x2="54.53" y2="49.5"/><line class="cls-2" x1="32.5" y1="50.5" x2="32.75" y2="52"/><line class="cls-2" x1="50.5" y1="62" x2="51.75" y2="62"/><line class="cls-2" x1="33.75" y1="60" x2="32.75" y2="61.75"/><line class="cls-2" x1="38" y1="47.25" x2="39.25" y2="46.75"/><line class="cls-2" x1="40.24" y1="55.47" x2="35.81" y2="52.75"/><line class="cls-2" x1="42.97" y1="53.07" x2="36.62" y2="50.14"/><line class="cls-2" x1="35.5" y1="55.75" x2="36.75" y2="56"/><line class="cls-2" x1="42.28" y1="49" x2="43.53" y2="49.25"/><line class="cls-2" x1="18.62" y1="54.25" x2="20.25" y2="53.75"/><line class="cls-2" x1="26.99" y1="8.45" x2="27.12" y2="15.45"/><line class="cls-2" x1="30.99" y1="8.38" x2="30.25" y2="15"/><line class="cls-2" x1="43.64" y1="27.73" x2="50.12" y2="30.38"/><line class="cls-2" x1="45.15" y1="24.03" x2="51.63" y2="26.67"/><line class="cls-2" x1="27.12" y1="23.58" x2="31.89" y2="19.94"/><line class="cls-2" x1="24.09" y1="21.57" x2="30" y2="17.82"/><line class="cls-2" x1="18.5" y1="41.38" x2="11.72" y2="43.13"/><line class="cls-2" x1="19.25" y1="45" x2="12.47" y2="46.76"/><line class="cls-2" x1="19.69" y1="21.19" x2="16.45" y2="27.4"/><line class="cls-2" x1="8.74" y1="9.89" x2="10.07" y2="16.76"/><line class="cls-2" x1="12.66" y1="9.13" x2="14" y2="16"/><line class="cls-2" x1="0.57" y1="6.97" x2="6.75" y2="10.25"/><line class="cls-2" x1="3.5" y1="16.5" x2="2.32" y2="22.49"/><line class="cls-2" x1="7.57" y1="16.38" x2="6.25" y2="23.25"/><line class="cls-2" x1="56.37" y1="44.2" x2="58.78" y2="51.75"/><line class="cls-2" x1="60.53" y1="44.25" x2="61.28" y2="50.75"/><line class="cls-2" x1="53.03" y1="36.46" x2="49.02" y2="42.2"/><line class="cls-2" x1="55.77" y1="37.79" x2="54.03" y2="43.25"/><line class="cls-2" x1="26.95" y1="27.8" x2="27.75" y2="34.75"/><line class="cls-2" x1="29.93" y1="26.99" x2="31.63" y2="33.78"/><line class="cls-2" x1="52.81" y1="4.88" x2="46.46" y2="7.84"/><line class="cls-2" x1="54.25" y1="7.75" x2="48.16" y2="11.46"/><line class="cls-2" x1="17.65" y1="12.48" x2="19.25" y2="19"/><line class="cls-2" x1="19.73" y1="10.2" x2="22.83" y2="16.48"/><line class="cls-2" x1="37.5" y1="14.25" x2="34" y2="20.5"/><line class="cls-2" x1="40.13" y1="15.42" x2="36.19" y2="21.2"/><line class="cls-2" x1="50" y1="15.75" x2="43.75" y2="18.25"/><line class="cls-2" x1="50.5" y1="20.25" x2="44.25" y2="20.5"/><line class="cls-2" x1="56.22" y1="17.42" x2="54.53" y2="23.75"/><line class="cls-2" x1="58.95" y1="19.91" x2="55.47" y2="25.98"/><line class="cls-2" x1="57.14" y1="53.16" x2="50.8" y2="56.13"/><line class="cls-2" x1="58.84" y1="56.78" x2="52.5" y2="59.75"/><line class="cls-2" x1="47.25" y1="37" x2="43" y2="32.25"/><line class="cls-2" x1="44.5" y1="37.75" x2="39.68" y2="33.34"/><line class="cls-2" x1="30.53" y1="39.25" x2="34.5" y2="34.25"/><line class="cls-2" x1="32.93" y1="42.45" x2="37.25" y2="36.5"/><line class="cls-2" x1="22.43" y1="31.52" x2="15.47" y2="30.78"/><line class="cls-2" x1="21.5" y1="34.75" x2="14.66" y2="33.28"/><line class="cls-2" x1="6.75" y1="36.75" x2="12.35" y2="40.95"/><line class="cls-2" x1="9.15" y1="33.55" x2="14.75" y2="37.75"/><line class="cls-2" x1="13.99" y1="49.49" x2="13.42" y2="56.47"/><line class="cls-2" x1="17.75" y1="50" x2="16.81" y2="57.42"/><line class="cls-2" x1="20.17" y1="40.33" x2="25.12" y2="45.28"/><line class="cls-2" x1="23" y1="37.5" x2="27.95" y2="42.45"/><line class="cls-2" x1="8.5" y1="46.25" x2="3.93" y2="50.46"/><line class="cls-2" x1="10.78" y1="48.7" x2="5.25" y2="53"/><line class="cls-2" x1="56.12" y1="14.59" x2="63.1" y2="13.99"/><line class="cls-2" x1="56.25" y1="11.25" x2="62.75" y2="10"/><line class="cls-2" x1="36.25" y1="23.25" x2="37" y2="30.25"/><line class="cls-2" x1="40.25" y1="23.25" x2="39.75" y2="28.75"/><line class="cls-2" x1="11.96" y1="1.11" x2="9.1" y2="6.08"/><line class="cls-2" x1="6.46" y1="32.23" x2="12.21" y2="28.24"/><line class="cls-2" x1="4.18" y1="28.94" x2="9.94" y2="24.95"/><line class="cls-2" x1="4.14" y1="58.23" x2="8.5" y2="62.5"/><line class="cls-2" x1="6.57" y1="56.56" x2="10.5" y2="60"/><line class="cls-2" x1="60.75" y1="22.25" x2="65.07" y2="27.76"/><line class="cls-2" x1="63.4" y1="20.03" x2="67.72" y2="25.54"/><line class="cls-2" x1="58.5" y1="28.63" x2="51.72" y2="30.38"/><line class="cls-2" x1="59.5" y1="32.5" x2="52.72" y2="34.26"/><line class="cls-2" x1="15.75" y1="19.5" x2="8.84" y2="19.07"/><line class="cls-2" x1="16.25" y1="22.25" x2="9.29" y2="23.04"/><line class="cls-2" x1="60.26" y1="55.7" x2="64.19" y2="61.5"/><line class="cls-2" x1="63.57" y1="53.46" x2="67.5" y2="59.25"/><line class="cls-2" x1="63.75" y1="30.75" x2="60.04" y2="35.09"/><line class="cls-2" x1="67.13" y1="31.26" x2="63.44" y2="37.2"/><line class="cls-2" x1="67.54" y1="61.59" x2="62.02" y2="65.89"/><line class="cls-2" x1="56.25" y1="63.25" x2="59" y2="70"/><line class="cls-2" x1="63.94" y1="10.5" x2="70.12" y2="13.78"/><line class="cls-2" x1="16.58" y1="9.47" x2="21" y2="6.75"/><line class="cls-2" x1="13.84" y1="7.07" x2="20.2" y2="4.14"/><line class="cls-2" x1="36.12" y1="8.13" x2="40.87" y2="12.88"/><line class="cls-2" x1="39.27" y1="5.66" x2="43.59" y2="11.17"/><line class="cls-2" x1="67.73" y1="39.48" x2="62.5" y2="42"/><line class="cls-2" x1="70.56" y1="42.08" x2="64.45" y2="45.49"/><line class="cls-2" x1="30" y1="3.75" x2="31.25" y2="4"/><line class="cls-2" x1="29.25" y1="6.75" x2="29" y2="6"/><line class="cls-2" x1="34" y1="12.25" x2="34.75" y2="11.75"/><line class="cls-2" x1="45" y1="10" x2="46.25" y2="10"/><line class="cls-2" x1="51.75" y1="14.5" x2="52.5" y2="15.25"/><line class="cls-2" x1="60.75" y1="18" x2="61.5" y2="17.25"/><line class="cls-2" x1="62.25" y1="5.75" x2="61.75" y2="6.75"/><line class="cls-2" x1="6" y1="13.5" x2="6.75" y2="14"/><line class="cls-2" x1="12.25" y1="30.75" x2="12.25" y2="31.5"/><line class="cls-2" x1="5.5" y1="34.75" x2="4" y2="34.75"/><line class="cls-2" x1="9.75" y1="54.5" x2="10.25" y2="53.25"/><line class="cls-2" x1="18.25" y1="37.75" x2="17.5" y2="36.75"/><line class="cls-2" x1="49.25" y1="34.25" x2="50" y2="33.5"/><line class="cls-2" x1="39.28" y1="37" x2="39.78" y2="38"/><line class="cls-2" x1="25.5" y1="18.75" x2="26.25" y2="18"/><line class="cls-2" x1="23.25" y1="27.75" x2="24.5" y2="28.5"/><line class="cls-2" x1="9.25" y1="64.5" x2="9" y2="66"/><line class="cls-2" x1="38.25" y1="33.75" x2="37.75" y2="32.5"/><line class="cls-2" x1="67.54" y1="-3.66" x2="62.02" y2="0.64"/><line class="cls-2" x1="70" y1="-0.5" x2="64.47" y2="3.8"/><line class="cls-2" x1="47.19" y1="-2.72" x2="43.5" y2="2.75"/><line class="cls-2" x1="49.93" y1="0.19" x2="44.83" y2="4.98"/><line class="cls-2" x1="53.13" y1="-0.78" x2="55.5" y2="5"/><line class="cls-2" x1="56.25" y1="-2" x2="59" y2="4.75"/><line class="cls-2" x1="28" y1="-1.5" x2="22.31" y2="2.88"/><line class="cls-2" x1="32" y1="-0.5" x2="25.3" y2="5.54"/><line class="cls-2" x1="9.25" y1="-0.75" x2="9" y2="0.75"/><line class="cls-2" x1="14.22" y1="-2.58" x2="18.5" y2="3.25"/><line class="cls-2" x1="17.05" y1="-5.41" x2="21.33" y2="0.42"/><line class="cls-2" x1="58.53" y1="59.5" x2="59.03" y2="60.75"/><line class="cls-2" x1="38.75" y1="-2.5" x2="39.25" y2="4"/><line class="cls-2" x1="36" y1="-3.25" x2="34.5" y2="3.5"/><line class="cls-2" x1="45.75" y1="13.75" x2="46.5" y2="14.5"/><line class="cls-2" x1="32.75" y1="25.5" x2="34" y2="25.75"/><line class="cls-2" x1="63.5" y1="51" x2="64.25" y2="50.25"/><line class="cls-2" x1="8.25" y1="1.75" x2="4.85" y2="6.08"/><line class="cls-2" x1="61.5" y1="38.25" x2="62.75" y2="38.5"/><line class="cls-2" x1="23.25" y1="10" x2="24.25" y2="10.75"/><line class="cls-2" x1="36.25" y1="4.5" x2="36.5" y2="5.75"/><line class="cls-2" x1="11" y1="8.5" x2="11.5" y2="7"/><line class="cls-3" x1="3.25" y1="3.75" x2="3.25" y2="3.75"/><line class="cls-3" x1="6.25" y1="7" x2="6.25" y2="7"/><line class="cls-3" x1="13" y1="1.5" x2="13" y2="1.5"/><line class="cls-3" x1="23.25" y1="8.5" x2="23.25" y2="8.5"/><line class="cls-3" x1="17" y1="15.25" x2="17" y2="15.25"/><line class="cls-3" x1="14.5" y1="25" x2="14.5" y2="25"/><line class="cls-3" x1="3.75" y1="24" x2="3.75" y2="24"/><line class="cls-3" x1="20.5" y1="36" x2="20.5" y2="36"/><line class="cls-3" x1="25.75" y1="31.75" x2="25.75" y2="31.75"/><line class="cls-3" x1="33.5" y1="23.25" x2="33.5" y2="23.25"/><line class="cls-3" x1="28" y1="40.25" x2="28" y2="40.25"/><line class="cls-3" x1="32.75" y1="43" x2="32.75" y2="43"/><line class="cls-3" x1="18.75" y1="47.25" x2="18.75" y2="47.25"/><line class="cls-3" x1="42" y1="24.75" x2="42" y2="24.75"/><line class="cls-3" x1="41.75" y1="16.25" x2="41.75" y2="16.25"/><line class="cls-3" x1="58.25" y1="7.5" x2="58.25" y2="7.5"/><line class="cls-3" x1="50.25" y1="4" x2="50.25" y2="4"/><line class="cls-3" x1="61" y1="27.25" x2="61" y2="27.25"/><line class="cls-3" x1="59.5" y1="38.25" x2="59.5" y2="38.25"/><line class="cls-3" x1="54" y1="45" x2="54" y2="45"/><line class="cls-3" x1="57.5" y1="55" x2="57.5" y2="55"/><line class="cls-3" x1="50" y1="59.75" x2="50" y2="59.75"/><line class="cls-3" x1="28.5" y1="61" x2="28.5" y2="61"/><line class="cls-3" x1="39.5" y1="63.5" x2="39.5" y2="63.5"/><line class="cls-3" x1="25.25" y1="15.75" x2="25.25" y2="15.75"/><line class="cls-3" x1="10.75" y1="62.75" x2="10.75" y2="62.75"/><line class="cls-3" x1="0.75" y1="51.5" x2="0.75" y2="51.5"/><line class="cls-3" x1="3.75" y1="44.25" x2="3.75" y2="44.25"/><line class="cls-3" x1="9" y1="40.5" x2="9" y2="40.5"/><line class="cls-3" x1="9.75" y1="44.25" x2="9.75" y2="44.25"/><line class="cls-3" x1="50.75" y1="22.5" x2="50.75" y2="22.5"/><line class="cls-3" x1="48" y1="32.25" x2="48" y2="32.25"/><line class="cls-3" x1="46.25" y1="40.5" x2="46.25" y2="40.5"/><line class="cls-3" x1="27.75" y1="24.75" x2="27.75" y2="24.75"/><line class="cls-3" x1="24.25" y1="55.5" x2="24.25" y2="55.5"/><line class="cls-3" x1="24.25" y1="63.5" x2="24.25" y2="63.5"/><line class="cls-3" x1="18.87" y1="59.5" x2="18.87" y2="59.5"/><line class="cls-3" x1="26.62" y1="37" x2="26.62" y2="37"/><line class="cls-3" x1="61" y1="62" x2="61" y2="62"/><line class="cls-3" x1="4.5" y1="56" x2="4.5" y2="56"/><line class="cls-3" x1="33.75" y1="29.75" x2="33.75" y2="29.75"/><line class="cls-3" x1="33.25" y1="14.75" x2="33.25" y2="14.75"/><line class="cls-3" x1="34.5" y1="8" x2="34.5" y2="8"/><line class="cls-3" x1="49.75" y1="55.75" x2="49.75" y2="55.75"/><line class="cls-3" x1="49" y1="44.75" x2="49" y2="44.75"/><line class="cls-3" x1="62.75" y1="47.25" x2="62.75" y2="47.25"/><line class="cls-3" x1="52.25" y1="17.5" x2="52.25" y2="17.5"/><line class="cls-3" x1="53" y1="19.25" x2="53" y2="19.25"/><line class="cls-3" x1="53.25" y1="10.5" x2="53.25" y2="10.5"/><line class="cls-3" x1="40" y1="19.75" x2="40" y2="19.75"/><line class="cls-3" x1="49" y1="27.25" x2="49" y2="27.25"/><line class="cls-3" x1="59.5" y1="24" x2="59.5" y2="24"/><line class="cls-3" x1="61" y1="31.25" x2="61" y2="31.25"/><line class="cls-3" x1="1" y1="16.25" x2="1" y2="16.25"/><line class="cls-2" x1="-4.5" y1="22.25" x2="-0.18" y2="27.76"/><line class="cls-2" x1="-1.85" y1="20.03" x2="2.47" y2="25.54"/><line class="cls-2" x1="-1.68" y1="53.46" x2="2.25" y2="59.25"/><line class="cls-2" x1="1.88" y1="31.26" x2="-1.81" y2="37.2"/><line class="cls-2" x1="2.29" y1="61.59" x2="-3.23" y2="65.89"/><line class="cls-2" x1="-1.31" y1="10.5" x2="4.88" y2="13.78"/><line class="cls-2" x1="2.48" y1="39.48" x2="-2.75" y2="42"/><line class="cls-2" x1="5.31" y1="42.08" x2="-0.8" y2="45.49"/><line class="cls-2" x1="2.29" y1="-3.66" x2="-3.23" y2="0.64"/><line class="cls-2" x1="4.75" y1="-0.5" x2="-0.78" y2="3.8"/><line class="cls-2" x1="14.22" y1="-2.58" x2="18.5" y2="3.25"/><line class="cls-2" x1="17.05" y1="-5.41" x2="21.33" y2="0.42"/><line class="cls-2" x1="47.19" y1="-2.72" x2="43.5" y2="2.75"/><line class="cls-2" x1="49.93" y1="0.19" x2="44.83" y2="4.98"/><line class="cls-2" x1="53.13" y1="-0.78" x2="55.5" y2="5"/><line class="cls-2" x1="28" y1="-1.5" x2="22.31" y2="2.88"/><line class="cls-2" x1="32" y1="-0.5" x2="25.3" y2="5.54"/><line class="cls-2" x1="38.75" y1="-2.5" x2="39.25" y2="4"/><line class="cls-2" x1="36" y1="-3.25" x2="34.5" y2="3.5"/><line class="cls-2" x1="67.54" y1="-3.66" x2="62.02" y2="0.64"/><line class="cls-2" x1="56.25" y1="-2" x2="59" y2="4.75"/><line class="cls-2" x1="9.25" y1="-0.75" x2="9" y2="0.75"/><line class="cls-2" x1="2.29" y1="-3.66" x2="-3.23" y2="0.64"/></pattern></defs><title>sbs_mtfr_coverimg_1</title><g id="Layer_2" data-name="Layer 2"><g id="Mathematic_Background" data-name="Mathematic Background"><rect class="cls-4" width="644" height="446.21"/><rect width="644" height="47.7"/><rect y="433.66" width="644" height="13.52"/><path class="cls-5" d="M67.18,138.64H64.42V117.16h2.76l7.47,13.08h.12l7.47-13.08H85v21.48H82.24V125.89l.12-3.6h-.12l-6.72,11.79H73.9l-6.72-11.79h-.12l.12,3.6Z"/><path class="cls-5" d="M101.44,138.64H98.8v-2h-.12a4.92,4.92,0,0,1-1.94,1.8,5.53,5.53,0,0,1-2.71.72,5.45,5.45,0,0,1-4.16-1.55,6.15,6.15,0,0,1-1.45-4.39v-9.24h2.76V133q.09,3.6,3.63,3.6a3.45,3.45,0,0,0,2.76-1.34,4.82,4.82,0,0,0,1.11-3.19v-8.13h2.76Z"/><path class="cls-5" d="M107.56,117.16v21.48H104.8V117.16Z"/><path class="cls-5" d="M116.89,138.88a4.21,4.21,0,0,1-3-1.11,4.12,4.12,0,0,1-1.21-3.09v-8.22h-2.58v-2.52h2.58v-4.5h2.76v4.5h3.6v2.52h-3.6v7.32a2.67,2.67,0,0,0,.57,2,1.86,1.86,0,0,0,1.29.53,2.74,2.74,0,0,0,.64-.08,3.4,3.4,0,0,0,.59-.19l.87,2.46A7.41,7.41,0,0,1,116.89,138.88Z"/><path class="cls-5" d="M125.41,118.87a1.95,1.95,0,1,1-.57-1.38A1.88,1.88,0,0,1,125.41,118.87Zm-.57,5.07v14.7h-2.76v-14.7Z"/><path class="cls-5" d="M136.09,139.12a6.36,6.36,0,0,1-3-.69,5.16,5.16,0,0,1-2-1.83H131l.12,2v6.48h-2.76V123.94H131v2h.12a5.16,5.16,0,0,1,2-1.83,6.53,6.53,0,0,1,7.88,1.59,8.48,8.48,0,0,1,0,11.1A6.31,6.31,0,0,1,136.09,139.12Zm-.45-2.52a4.3,4.3,0,0,0,3.33-1.5,5.41,5.41,0,0,0,1.35-3.81,5.48,5.48,0,0,0-1.35-3.81,4.48,4.48,0,0,0-6.69,0,6.2,6.2,0,0,0,0,7.65A4.38,4.38,0,0,0,135.64,136.6Z"/><path class="cls-5" d="M148.06,117.16v21.48H145.3V117.16Z"/><path class="cls-5" d="M164.56,123.94l-9.21,21.18H152.5l3.42-7.41-6.06-13.77h3l4.38,10.56h.06l4.26-10.56Z"/><path class="cls-5" d="M178.78,138.88a4.21,4.21,0,0,1-3-1.11,4.12,4.12,0,0,1-1.21-3.09v-8.22H172v-2.52h2.58v-4.5h2.76v4.5h3.6v2.52h-3.6v7.32a2.67,2.67,0,0,0,.57,2,1.86,1.86,0,0,0,1.29.53,2.74,2.74,0,0,0,.64-.08,3.4,3.4,0,0,0,.59-.19l.87,2.46A7.41,7.41,0,0,1,178.78,138.88Z"/><path class="cls-5" d="M183.72,117.16h2.76v6.78l-.12,2h.12a4.92,4.92,0,0,1,1.94-1.8,5.53,5.53,0,0,1,2.71-.72,5.44,5.44,0,0,1,4.16,1.54,6.18,6.18,0,0,1,1.45,4.4v9.24H194v-8.7q0-4-3.51-4a3.53,3.53,0,0,0-2.83,1.39,5,5,0,0,0-1.16,3.26v8h-2.76Z"/><path class="cls-5" d="M206.58,139.12a7,7,0,0,1-5.34-2.22,7.84,7.84,0,0,1-2.1-5.61,8,8,0,0,1,2-5.6,7.35,7.35,0,0,1,10.43-.12,8.47,8.47,0,0,1,1.93,5.93l0,.3H202a4.79,4.79,0,0,0,1.44,3.48,4.65,4.65,0,0,0,7.44-1.32l2.46,1.2a7.32,7.32,0,0,1-2.74,2.91A7.61,7.61,0,0,1,206.58,139.12Zm-4.41-9.6h8.43a3.67,3.67,0,0,0-1.24-2.54,4.37,4.37,0,0,0-3-1,4,4,0,0,0-2.68,1A4.59,4.59,0,0,0,202.17,129.52Z"/><path class="cls-5" d="M222.66,123.94h2.64v2h.12a4.92,4.92,0,0,1,1.94-1.8,5.53,5.53,0,0,1,2.71-.72,5.44,5.44,0,0,1,4.16,1.54,6.18,6.18,0,0,1,1.45,4.4v9.24h-2.76v-9.06q-.09-3.6-3.63-3.6a3.44,3.44,0,0,0-2.76,1.33,4.85,4.85,0,0,0-1.11,3.2v8.13h-2.76Z"/><path class="cls-5" d="M251.82,138.64h-2.64v-2h-.12a4.89,4.89,0,0,1-1.93,1.8,5.56,5.56,0,0,1-2.72.72,5.42,5.42,0,0,1-4.15-1.55,6.16,6.16,0,0,1-1.46-4.39v-9.24h2.76V133q.09,3.6,3.63,3.6a3.45,3.45,0,0,0,2.76-1.34,4.82,4.82,0,0,0,1.11-3.19v-8.13h2.76Z"/><path class="cls-5" d="M257.94,138.64h-2.76v-14.7h2.64v2h.12a4.92,4.92,0,0,1,1.94-1.8,5.39,5.39,0,0,1,5.44,0,4.42,4.42,0,0,1,1.8,2.07,5.74,5.74,0,0,1,5.07-2.82,5,5,0,0,1,3.93,1.56,6.49,6.49,0,0,1,1.38,4.44v9.18h-2.76v-8.76a4.73,4.73,0,0,0-.75-3,3.09,3.09,0,0,0-2.52-.91,3.3,3.3,0,0,0-2.67,1.35,4.94,4.94,0,0,0-1.08,3.18v8.13H265v-8.76a4.73,4.73,0,0,0-.75-3,3.09,3.09,0,0,0-2.52-.91,3.3,3.3,0,0,0-2.67,1.35,4.94,4.94,0,0,0-1.08,3.18Z"/><path class="cls-5" d="M287.34,139.12A7,7,0,0,1,282,136.9a7.84,7.84,0,0,1-2.1-5.61,8,8,0,0,1,2-5.6,7.35,7.35,0,0,1,10.43-.12,8.47,8.47,0,0,1,1.93,5.93l0,.3H282.72a4.79,4.79,0,0,0,1.44,3.48A4.65,4.65,0,0,0,291.6,134l2.46,1.2a7.32,7.32,0,0,1-2.74,2.91A7.61,7.61,0,0,1,287.34,139.12Zm-4.41-9.6h8.43a3.67,3.67,0,0,0-1.24-2.54,4.37,4.37,0,0,0-3-1,4,4,0,0,0-2.68,1A4.59,4.59,0,0,0,282.93,129.52Z"/><path class="cls-5" d="M299.58,138.64h-2.76v-14.7h2.64v2.4h.12a4,4,0,0,1,1.73-2,4.76,4.76,0,0,1,2.56-.82,5.17,5.17,0,0,1,2,.36l-.84,2.67a4.57,4.57,0,0,0-1.62-.21,3.56,3.56,0,0,0-2.71,1.26,4.22,4.22,0,0,0-1.16,2.94Z"/><path class="cls-5" d="M312.69,123.46a6.84,6.84,0,0,1,4.83,1.63,5.82,5.82,0,0,1,1.77,4.49v9.06h-2.64v-2h-.12a5.27,5.27,0,0,1-4.56,2.52,5.91,5.91,0,0,1-4.06-1.44,4.6,4.6,0,0,1-1.64-3.6,4.37,4.37,0,0,1,1.73-3.63,7.25,7.25,0,0,1,4.6-1.35,8.15,8.15,0,0,1,4,.9v-.63a3.15,3.15,0,0,0-1.14-2.45,3.91,3.91,0,0,0-2.67-1,4.23,4.23,0,0,0-3.66,2l-2.43-1.53A6.78,6.78,0,0,1,312.69,123.46Zm-3.57,10.68a2.21,2.21,0,0,0,.92,1.8,3.35,3.35,0,0,0,2.14.72,4.41,4.41,0,0,0,3.11-1.29,4,4,0,0,0,1.36-3,5.67,5.67,0,0,0-3.6-1,4.66,4.66,0,0,0-2.8.81A2.41,2.41,0,0,0,309.12,134.14Z"/><path class="cls-5" d="M327.93,138.88a4.18,4.18,0,0,1-3-1.11,4.12,4.12,0,0,1-1.22-3.09v-8.22h-2.58v-2.52h2.58v-4.5h2.76v4.5h3.6v2.52h-3.6v7.32a2.67,2.67,0,0,0,.57,2,1.86,1.86,0,0,0,1.29.53,2.82,2.82,0,0,0,.65-.08,3.29,3.29,0,0,0,.58-.19l.87,2.46A7.41,7.41,0,0,1,327.93,138.88Z"/><path class="cls-5" d="M331.74,131.29a7.78,7.78,0,0,1,2.13-5.61,7.26,7.26,0,0,1,5.43-2.22,7.16,7.16,0,0,1,5.4,2.22,8.37,8.37,0,0,1,0,11.22,7.16,7.16,0,0,1-5.4,2.22,7.26,7.26,0,0,1-5.43-2.22A7.78,7.78,0,0,1,331.74,131.29Zm2.76,0a5.38,5.38,0,0,0,1.38,3.84,4.71,4.71,0,0,0,6.84,0,6,6,0,0,0,0-7.65,4.65,4.65,0,0,0-6.84,0A5.34,5.34,0,0,0,334.5,131.29Z"/><path class="cls-5" d="M351.84,138.64h-2.76v-14.7h2.64v2.4h.12a4,4,0,0,1,1.73-2,4.76,4.76,0,0,1,2.56-.82,5.17,5.17,0,0,1,2,.36l-.84,2.67a4.57,4.57,0,0,0-1.62-.21A3.56,3.56,0,0,0,353,127.6a4.22,4.22,0,0,0-1.16,2.94Z"/><path class="cls-5" d="M370.62,134.56a4,4,0,0,1-1.68,3.24,6.64,6.64,0,0,1-4.23,1.32,6.72,6.72,0,0,1-3.9-1.16,6.36,6.36,0,0,1-2.4-3l2.46-1a4.56,4.56,0,0,0,1.58,2,3.82,3.82,0,0,0,2.26.74,4,4,0,0,0,2.21-.57,1.61,1.61,0,0,0,.88-1.35q0-1.41-2.16-2.07l-2.52-.63q-4.29-1.08-4.29-4.14a3.84,3.84,0,0,1,1.64-3.23,7.51,7.51,0,0,1,7.71-.28,5,5,0,0,1,2.2,2.49l-2.46,1a3.1,3.1,0,0,0-1.36-1.46,4.3,4.3,0,0,0-2.12-.52,3.53,3.53,0,0,0-1.93.54,1.56,1.56,0,0,0-.86,1.32q0,1.26,2.37,1.8l2.22.57Q370.62,131.23,370.62,134.56Z"/><path class="cls-5" d="M376.86,136.78a2,2,0,0,1-.58,1.44,2.05,2.05,0,0,1-2.9-2.9,2,2,0,0,1,3.48,1.46Z"/><path class="cls-5" d="M67.18,252.64H64.42V231.16h2.76l7.47,13.08h.12l7.47-13.08H85v21.48H82.24V239.89l.12-3.6h-.12l-6.72,11.79H73.9l-6.72-11.79h-.12l.12,3.6Z"/><path class="cls-5" d="M101.44,252.64H98.8v-2h-.12a4.92,4.92,0,0,1-1.94,1.8,5.53,5.53,0,0,1-2.71.72,5.45,5.45,0,0,1-4.16-1.55,6.15,6.15,0,0,1-1.45-4.39v-9.24h2.76V247q.09,3.6,3.63,3.6a3.45,3.45,0,0,0,2.76-1.34,4.82,4.82,0,0,0,1.11-3.19v-8.13h2.76Z"/><path class="cls-5" d="M107.56,231.16v21.48H104.8V231.16Z"/><path class="cls-5" d="M116.89,252.88a4.21,4.21,0,0,1-3-1.11,4.12,4.12,0,0,1-1.21-3.09v-8.22h-2.58v-2.52h2.58v-4.5h2.76v4.5h3.6v2.52h-3.6v7.32a2.67,2.67,0,0,0,.57,2,1.86,1.86,0,0,0,1.29.53,2.74,2.74,0,0,0,.64-.08,3.4,3.4,0,0,0,.59-.19l.87,2.46A7.41,7.41,0,0,1,116.89,252.88Z"/><path class="cls-5" d="M125.41,232.87a1.95,1.95,0,1,1-.57-1.38A1.88,1.88,0,0,1,125.41,232.87Zm-.57,5.07v14.7h-2.76v-14.7Z"/><path class="cls-5" d="M136.09,253.12a6.36,6.36,0,0,1-3-.69,5.16,5.16,0,0,1-2-1.83H131l.12,2v6.48h-2.76V237.94H131v2h.12a5.16,5.16,0,0,1,2-1.83,6.53,6.53,0,0,1,7.88,1.59,8.48,8.48,0,0,1,0,11.1A6.31,6.31,0,0,1,136.09,253.12Zm-.45-2.52a4.3,4.3,0,0,0,3.33-1.5,5.41,5.41,0,0,0,1.35-3.81,5.48,5.48,0,0,0-1.35-3.81,4.48,4.48,0,0,0-6.69,0,6.2,6.2,0,0,0,0,7.65A4.38,4.38,0,0,0,135.64,250.6Z"/><path class="cls-5" d="M148.06,231.16v21.48H145.3V231.16Z"/><path class="cls-5" d="M164.56,237.94l-9.21,21.18H152.5l3.42-7.41-6.06-13.77h3l4.38,10.56h.06l4.26-10.56Z"/><path class="cls-5" d="M178.78,252.88a4.21,4.21,0,0,1-3-1.11,4.12,4.12,0,0,1-1.21-3.09v-8.22H172v-2.52h2.58v-4.5h2.76v4.5h3.6v2.52h-3.6v7.32a2.67,2.67,0,0,0,.57,2,1.86,1.86,0,0,0,1.29.53,2.74,2.74,0,0,0,.64-.08,3.4,3.4,0,0,0,.59-.19l.87,2.46A7.41,7.41,0,0,1,178.78,252.88Z"/><path class="cls-5" d="M183.72,231.16h2.76v6.78l-.12,2h.12a4.92,4.92,0,0,1,1.94-1.8,5.53,5.53,0,0,1,2.71-.72,5.44,5.44,0,0,1,4.16,1.54,6.18,6.18,0,0,1,1.45,4.4v9.24H194v-8.7q0-4-3.51-4a3.53,3.53,0,0,0-2.83,1.39,5,5,0,0,0-1.16,3.26v8h-2.76Z"/><path class="cls-5" d="M206.58,253.12a7,7,0,0,1-5.34-2.22,7.84,7.84,0,0,1-2.1-5.61,8,8,0,0,1,2-5.6,7.35,7.35,0,0,1,10.43-.12,8.47,8.47,0,0,1,1.93,5.93l0,.3H202a4.79,4.79,0,0,0,1.44,3.48,4.65,4.65,0,0,0,7.44-1.32l2.46,1.2a7.32,7.32,0,0,1-2.74,2.91A7.61,7.61,0,0,1,206.58,253.12Zm-4.41-9.6h8.43a3.67,3.67,0,0,0-1.24-2.54,4.37,4.37,0,0,0-3-1,4,4,0,0,0-2.68,1A4.59,4.59,0,0,0,202.17,243.52Z"/><path class="cls-5" d="M228.81,253.12a6.46,6.46,0,0,1-4.95-2.28,8.57,8.57,0,0,1,0-11.1,6.46,6.46,0,0,1,4.95-2.28,6.36,6.36,0,0,1,3,.69,5.16,5.16,0,0,1,2,1.83h.12l-.12-2v-6.78h2.76v21.48h-2.64v-2h-.12a5.16,5.16,0,0,1-2,1.83A6.36,6.36,0,0,1,228.81,253.12Zm.45-2.52a4.23,4.23,0,0,0,3.33-1.47,6.09,6.09,0,0,0,0-7.65,4.25,4.25,0,0,0-3.33-1.5,4.3,4.3,0,0,0-3.33,1.5,5.48,5.48,0,0,0-1.35,3.81,5.41,5.41,0,0,0,1.35,3.81A4.3,4.3,0,0,0,229.26,250.6Z"/><path class="cls-5" d="M246.39,253.12a7,7,0,0,1-5.34-2.22,7.84,7.84,0,0,1-2.1-5.61,8,8,0,0,1,2-5.6,7.35,7.35,0,0,1,10.43-.12,8.47,8.47,0,0,1,1.93,5.93l0,.3H241.77a4.79,4.79,0,0,0,1.44,3.48,4.65,4.65,0,0,0,7.44-1.32l2.46,1.2a7.32,7.32,0,0,1-2.74,2.91A7.61,7.61,0,0,1,246.39,253.12Zm-4.41-9.6h8.43a3.67,3.67,0,0,0-1.24-2.54,4.37,4.37,0,0,0-3-1,4,4,0,0,0-2.68,1A4.59,4.59,0,0,0,242,243.52Z"/><path class="cls-5" d="M255.87,237.94h2.64v2h.12a4.92,4.92,0,0,1,1.94-1.8,5.53,5.53,0,0,1,2.71-.72,5.44,5.44,0,0,1,4.16,1.54,6.18,6.18,0,0,1,1.45,4.4v9.24h-2.76v-9.06Q266,240,262.5,240a3.44,3.44,0,0,0-2.76,1.33,4.85,4.85,0,0,0-1.11,3.2v8.13h-2.76Z"/><path class="cls-5" d="M271.29,245.29a7.78,7.78,0,0,1,2.13-5.61,7.26,7.26,0,0,1,5.43-2.22,7.16,7.16,0,0,1,5.4,2.22,8.37,8.37,0,0,1,0,11.22,7.16,7.16,0,0,1-5.4,2.22,7.26,7.26,0,0,1-5.43-2.22A7.78,7.78,0,0,1,271.29,245.29Zm2.76,0a5.38,5.38,0,0,0,1.38,3.84,4.71,4.71,0,0,0,6.84,0,6,6,0,0,0,0-7.65,4.65,4.65,0,0,0-6.84,0A5.34,5.34,0,0,0,274.05,245.29Z"/><path class="cls-5" d="M291.39,252.64h-2.76v-14.7h2.64v2h.12a4.92,4.92,0,0,1,1.94-1.8,5.39,5.39,0,0,1,5.44,0,4.42,4.42,0,0,1,1.8,2.07,5.74,5.74,0,0,1,5.07-2.82,5,5,0,0,1,3.93,1.56,6.49,6.49,0,0,1,1.38,4.44v9.18h-2.76v-8.76a4.73,4.73,0,0,0-.75-3,3.09,3.09,0,0,0-2.52-.91,3.3,3.3,0,0,0-2.67,1.35,4.94,4.94,0,0,0-1.08,3.18v8.13h-2.76v-8.76a4.73,4.73,0,0,0-.75-3,3.09,3.09,0,0,0-2.52-.91,3.3,3.3,0,0,0-2.67,1.35,4.94,4.94,0,0,0-1.08,3.18Z"/><path class="cls-5" d="M317.76,232.87a1.95,1.95,0,1,1-.57-1.38A1.88,1.88,0,0,1,317.76,232.87Zm-.57,5.07v14.7h-2.76v-14.7Z"/><path class="cls-5" d="M320.79,237.94h2.64v2h.12a4.92,4.92,0,0,1,1.94-1.8,5.53,5.53,0,0,1,2.71-.72,5.44,5.44,0,0,1,4.16,1.54,6.18,6.18,0,0,1,1.45,4.4v9.24h-2.76v-9.06q-.09-3.6-3.63-3.6a3.44,3.44,0,0,0-2.76,1.33,4.85,4.85,0,0,0-1.11,3.2v8.13h-2.76Z"/><path class="cls-5" d="M342.48,237.46a6.84,6.84,0,0,1,4.83,1.63,5.82,5.82,0,0,1,1.77,4.49v9.06h-2.64v-2h-.12a5.27,5.27,0,0,1-4.56,2.52,5.91,5.91,0,0,1-4.06-1.44,4.6,4.6,0,0,1-1.64-3.6,4.37,4.37,0,0,1,1.73-3.63,7.25,7.25,0,0,1,4.6-1.35,8.15,8.15,0,0,1,4.05.9v-.63a3.15,3.15,0,0,0-1.14-2.45,3.91,3.91,0,0,0-2.67-1,4.23,4.23,0,0,0-3.66,2l-2.43-1.53A6.78,6.78,0,0,1,342.48,237.46Zm-3.57,10.68a2.21,2.21,0,0,0,.92,1.8,3.35,3.35,0,0,0,2.14.72,4.41,4.41,0,0,0,3.11-1.29,4,4,0,0,0,1.36-3,5.67,5.67,0,0,0-3.6-1,4.66,4.66,0,0,0-2.8.81A2.41,2.41,0,0,0,338.91,248.14Z"/><path class="cls-5" d="M357.72,252.88a4.18,4.18,0,0,1-3-1.11,4.12,4.12,0,0,1-1.22-3.09v-8.22h-2.58v-2.52h2.58v-4.5h2.76v4.5h3.6v2.52h-3.6v7.32a2.67,2.67,0,0,0,.57,2,1.86,1.86,0,0,0,1.29.53,2.82,2.82,0,0,0,.65-.08,3.29,3.29,0,0,0,.58-.19l.87,2.46A7.41,7.41,0,0,1,357.72,252.88Z"/><path class="cls-5" d="M361.53,245.29a7.78,7.78,0,0,1,2.13-5.61,7.26,7.26,0,0,1,5.43-2.22,7.16,7.16,0,0,1,5.4,2.22,8.37,8.37,0,0,1,0,11.22,7.16,7.16,0,0,1-5.4,2.22,7.26,7.26,0,0,1-5.43-2.22A7.78,7.78,0,0,1,361.53,245.29Zm2.76,0a5.38,5.38,0,0,0,1.38,3.84,4.71,4.71,0,0,0,6.84,0,6,6,0,0,0,0-7.65,4.65,4.65,0,0,0-6.84,0A5.34,5.34,0,0,0,364.29,245.29Z"/><path class="cls-5" d="M381.63,252.64h-2.76v-14.7h2.64v2.4h.12a4,4,0,0,1,1.73-2,4.76,4.76,0,0,1,2.56-.82,5.17,5.17,0,0,1,2,.36l-.84,2.67a4.57,4.57,0,0,0-1.62-.21,3.56,3.56,0,0,0-2.71,1.26,4.22,4.22,0,0,0-1.16,2.94Z"/><path class="cls-5" d="M400.41,248.56a4,4,0,0,1-1.68,3.24,6.64,6.64,0,0,1-4.23,1.32,6.72,6.72,0,0,1-3.9-1.16,6.36,6.36,0,0,1-2.4-3l2.46-1a4.56,4.56,0,0,0,1.58,2,3.82,3.82,0,0,0,2.26.74,4,4,0,0,0,2.21-.57,1.61,1.61,0,0,0,.88-1.35q0-1.41-2.16-2.07l-2.52-.63q-4.29-1.08-4.29-4.14a3.84,3.84,0,0,1,1.64-3.23,7.51,7.51,0,0,1,7.71-.28,5,5,0,0,1,2.2,2.49l-2.46,1a3.1,3.1,0,0,0-1.36-1.46,4.3,4.3,0,0,0-2.12-.52,3.53,3.53,0,0,0-1.93.54,1.56,1.56,0,0,0-.86,1.32q0,1.26,2.37,1.8l2.22.57Q400.41,245.23,400.41,248.56Z"/><path class="cls-5" d="M406.65,250.78a2,2,0,0,1-.58,1.44,2.05,2.05,0,0,1-2.9-2.9,2,2,0,0,1,3.48,1.46Z"/><path class="cls-6" d="M481.09,124.65a5.68,5.68,0,0,1-2.07,4.49,8,8,0,0,1-10.15,0,5.68,5.68,0,0,1-2.07-4.49,5.39,5.39,0,0,1,.9-3,6,6,0,0,1,2.55-2.17v-.13a6.53,6.53,0,0,1-2-2,4.42,4.42,0,0,1-.76-2.46,5.68,5.68,0,0,1,1.82-4.28,7.15,7.15,0,0,1,9.23,0,5.68,5.68,0,0,1,1.82,4.28,4.42,4.42,0,0,1-.76,2.46,6.53,6.53,0,0,1-2,2v.13a6,6,0,0,1,2.55,2.17A5.39,5.39,0,0,1,481.09,124.65Zm-11.39-.16A3.52,3.52,0,0,0,470,126a3.83,3.83,0,0,0,.89,1.19,4,4,0,0,0,1.34.78,4.89,4.89,0,0,0,1.7.28,4.83,4.83,0,0,0,1.69-.28,4,4,0,0,0,1.34-.78,3.83,3.83,0,0,0,.89-1.19,3.38,3.38,0,0,0,.32-1.51,3.31,3.31,0,0,0-1.23-2.64,4.4,4.4,0,0,0-3-1.08,4.53,4.53,0,0,0-3.05,1.08A3.4,3.4,0,0,0,469.7,124.49Zm.71-9.66a3.06,3.06,0,0,0,1,2.38,4,4,0,0,0,5.11,0,3.07,3.07,0,0,0,1-2.38,2.93,2.93,0,0,0-1-2.34,4.23,4.23,0,0,0-5.11,0A2.92,2.92,0,0,0,470.41,114.83Z"/><path d="M475.27,138.61v21.06h-2.83V142.12l-4.1,1.79-1.07-2.4,6.18-2.9Z"/><line class="cls-7" x1="458.89" y1="134.68" x2="489" y2="134.68"/><path class="cls-6" d="M544.74,127.76v2.7H531.32v-2.83l5.45-5.51a47.31,47.31,0,0,0,3.78-4.2A4.81,4.81,0,0,0,541.6,115a3.11,3.11,0,0,0-1.08-2.37,4,4,0,0,0-2.77-1,3.75,3.75,0,0,0-2.49.86,3.89,3.89,0,0,0-1.36,2.09l-2.58-1a6.76,6.76,0,0,1,6.49-4.62,6.77,6.77,0,0,1,4.77,1.75,5.64,5.64,0,0,1,1.91,4.31q0,3-3.35,6.59L535,127.76Z"/><path d="M544.74,157v2.71H531.32v-2.83l5.45-5.51a48.53,48.53,0,0,0,3.78-4.21,4.81,4.81,0,0,0,1.05-2.93,3.08,3.08,0,0,0-1.08-2.37,3.93,3.93,0,0,0-2.77-1,3.81,3.81,0,0,0-2.49.86,3.91,3.91,0,0,0-1.36,2.1l-2.58-1a6.76,6.76,0,0,1,6.49-4.62,6.77,6.77,0,0,1,4.77,1.76,5.63,5.63,0,0,1,1.91,4.31q0,3-3.35,6.58L535,157Z"/><line class="cls-7" x1="523.04" y1="134.68" x2="553.14" y2="134.68"/><path class="cls-6" d="M596.43,109.41v21.05H593.6V112.92l-4.09,1.79-1.08-2.41,6.19-2.89Z"/><path class="cls-6" d="M608.25,117.11a6.22,6.22,0,0,1,4.56,2,6.47,6.47,0,0,1,2,4.77,6.71,6.71,0,0,1-2.16,5,7.22,7.22,0,0,1-10.18,0,6.74,6.74,0,0,1-2.1-5,11.24,11.24,0,0,1,2.07-5.82l6.12-9.17,2.28,1.57-5.2,7.2.06.06A4.42,4.42,0,0,1,608.25,117.11Zm-5,6.83a4.19,4.19,0,0,0,1.26,3.08,4.28,4.28,0,0,0,3.11,1.23,4.27,4.27,0,0,0,4.34-4.31,4.08,4.08,0,0,0-1.3-3,4.14,4.14,0,0,0-3-1.26,4.33,4.33,0,0,0-3.08,1.26A4.11,4.11,0,0,0,603.27,123.94Z"/><path d="M602.85,153.83H600v-1.44a4.84,4.84,0,0,1,.51-2.25,8.94,8.94,0,0,1,1.94-2.31,12.79,12.79,0,0,0,1.93-2.09,3.1,3.1,0,0,0,.51-1.75,3,3,0,0,0-.92-2.3,3.57,3.57,0,0,0-2.49-.84q-2.69,0-3.64,3l-2.64-1.11a7,7,0,0,1,2.4-3.29,6.24,6.24,0,0,1,3.88-1.26,6.44,6.44,0,0,1,4.54,1.64,5.5,5.5,0,0,1,1.77,4.21,5.09,5.09,0,0,1-.65,2.47,12,12,0,0,1-2.43,2.82,4.67,4.67,0,0,0-1.82,3.23Zm.65,4.93a2.05,2.05,0,0,1-.6,1.48,2.11,2.11,0,0,1-3,0,2,2,0,0,1-.62-1.48,2,2,0,0,1,.62-1.49,2.09,2.09,0,0,1,3.57,1.49Z"/><line class="cls-7" x1="586.58" y1="134.68" x2="616.69" y2="134.68"/><path d="M576.12,132.11H562.27v-2.34h13.85Zm0,5.85H562.27v-2.34h13.85Z"/><path class="cls-6" d="M512.41,140.11l-1.57,1.57-4.93-4.8-4.92,4.8-1.57-1.57,4.89-4.77-4.89-4.77L501,129l4.92,4.8,4.93-4.8,1.57,1.57-4.9,4.77Z"/><path d="M481.09,235.36a5.68,5.68,0,0,1-2.07,4.49,8,8,0,0,1-10.15,0,5.68,5.68,0,0,1-2.07-4.49,5.39,5.39,0,0,1,.9-3,6,6,0,0,1,2.55-2.17V230a6.53,6.53,0,0,1-2-2,4.42,4.42,0,0,1-.76-2.46,5.68,5.68,0,0,1,1.82-4.28,7.15,7.15,0,0,1,9.23,0,5.68,5.68,0,0,1,1.82,4.28,4.42,4.42,0,0,1-.76,2.46,6.53,6.53,0,0,1-2,2v.13a6,6,0,0,1,2.55,2.17A5.39,5.39,0,0,1,481.09,235.36Zm-11.39-.15a3.51,3.51,0,0,0,.32,1.5,3.83,3.83,0,0,0,.89,1.19,4,4,0,0,0,1.34.78,4.89,4.89,0,0,0,1.7.28,4.83,4.83,0,0,0,1.69-.28,4,4,0,0,0,1.34-.78,3.83,3.83,0,0,0,.89-1.19,3.53,3.53,0,0,0-.91-4.15,4.4,4.4,0,0,0-3-1.08,4.53,4.53,0,0,0-3.05,1.08A3.42,3.42,0,0,0,469.7,235.21Zm.71-9.67a3.1,3.1,0,0,0,1,2.39,4.08,4.08,0,0,0,5.11,0,3.11,3.11,0,0,0,1-2.39,2.94,2.94,0,0,0-1-2.34,4.23,4.23,0,0,0-5.11,0A2.94,2.94,0,0,0,470.41,225.54Z"/><path class="cls-6" d="M475.27,249.33v21h-2.83V252.84l-4.1,1.78-1.07-2.4,6.18-2.89Z"/><line class="cls-7" x1="458.89" y1="245.39" x2="489" y2="245.39"/><path d="M544.74,238.47v2.71H531.32v-2.84l5.45-5.5a48.53,48.53,0,0,0,3.78-4.21,4.81,4.81,0,0,0,1.05-2.94,3.11,3.11,0,0,0-1.08-2.37,4,4,0,0,0-2.77-1,3.81,3.81,0,0,0-2.49.86,3.93,3.93,0,0,0-1.36,2.09l-2.58-1a6.53,6.53,0,0,1,2.37-3.28,6.61,6.61,0,0,1,4.12-1.34,6.81,6.81,0,0,1,4.77,1.75,5.64,5.64,0,0,1,1.91,4.31c0,2-1.12,4.23-3.35,6.59L535,238.47Z"/><path class="cls-6" d="M544.74,267.67v2.71H531.32v-2.83l5.45-5.51a50.37,50.37,0,0,0,3.78-4.2,4.86,4.86,0,0,0,1.05-2.94,3.08,3.08,0,0,0-1.08-2.37,3.93,3.93,0,0,0-2.77-1,3.81,3.81,0,0,0-2.49.86,4,4,0,0,0-1.36,2.1l-2.58-1.05a6.76,6.76,0,0,1,6.49-4.62,6.77,6.77,0,0,1,4.77,1.76,5.63,5.63,0,0,1,1.91,4.31q0,3-3.35,6.58L535,267.67Z"/><line class="cls-7" x1="523.04" y1="245.39" x2="553.14" y2="245.39"/><path d="M596.43,220.12v21.06H593.6V223.63l-4.09,1.79-1.08-2.4,6.19-2.9Z"/><path d="M608.25,227.82a6.26,6.26,0,0,1,4.56,2,6.47,6.47,0,0,1,2,4.77,6.75,6.75,0,0,1-2.16,5,7.24,7.24,0,0,1-10.18,0,6.78,6.78,0,0,1-2.1-5,11.24,11.24,0,0,1,2.07-5.82l6.12-9.17,2.28,1.57-5.2,7.2.06.06A4.42,4.42,0,0,1,608.25,227.82Zm-5,6.83a4.19,4.19,0,0,0,1.26,3.08,4.28,4.28,0,0,0,3.11,1.23,4.27,4.27,0,0,0,4.34-4.31,4.37,4.37,0,0,0-4.34-4.31,4.33,4.33,0,0,0-3.08,1.26A4.13,4.13,0,0,0,603.27,234.65Z"/><path class="cls-6" d="M608.28,268.67v2.71H594.86v-2.83l5.45-5.51a49.14,49.14,0,0,0,3.79-4.2,4.84,4.84,0,0,0,1-2.94,3.1,3.1,0,0,0-1.07-2.37,4,4,0,0,0-2.77-1,3.83,3.83,0,0,0-2.5.86,3.93,3.93,0,0,0-1.35,2.1l-2.59-1.05a6.76,6.76,0,0,1,6.5-4.62,6.77,6.77,0,0,1,4.77,1.76A5.63,5.63,0,0,1,608,255.9q0,3-3.36,6.58l-6.15,6.19Z"/><line class="cls-7" x1="586.58" y1="245.39" x2="616.69" y2="245.39"/><path d="M576.12,242.82H562.27v-2.34h13.85Zm0,5.85H562.27v-2.34h13.85Z"/><path class="cls-6" d="M512.41,250.82l-1.57,1.57-4.93-4.8-4.92,4.8-1.57-1.57,4.89-4.77-4.89-4.77,1.57-1.57,4.92,4.8,4.93-4.8,1.57,1.57-4.9,4.77Z"/><line class="cls-8" x1="44.26" y1="193.29" x2="504.48" y2="193.29"/><path class="cls-9" d="M100.14,12.89h4v8.58h9V12.89h4V34.37h-4V25.31h-9v9.06h-4Z"/><path class="cls-9" d="M128.07,19.19a8.15,8.15,0,0,1,3.13.59,7.28,7.28,0,0,1,4.08,4.09,8.7,8.7,0,0,1,0,6.3,7.26,7.26,0,0,1-4.08,4.1,8.76,8.76,0,0,1-6.27,0,7.26,7.26,0,0,1-4.08-4.1,8.84,8.84,0,0,1,0-6.3,7.28,7.28,0,0,1,4.08-4.09A8.21,8.21,0,0,1,128.07,19.19Zm0,12a3.82,3.82,0,0,0,1.45-.28,3.74,3.74,0,0,0,1.25-.83,3.9,3.9,0,0,0,.85-1.32,5.06,5.06,0,0,0,0-3.54,3.9,3.9,0,0,0-.85-1.32,3.72,3.72,0,0,0-1.25-.82,3.82,3.82,0,0,0-2.92,0,3.74,3.74,0,0,0-1.23.82,3.92,3.92,0,0,0-.86,1.32,5.21,5.21,0,0,0,0,3.54,3.92,3.92,0,0,0,.86,1.32,3.77,3.77,0,0,0,1.23.83A3.81,3.81,0,0,0,128.07,31.22Z"/><path class="cls-9" d="M136.53,19.67h4.41l2.43,9.21h.21l2.91-9.21h4l2.94,9.21h.21l2.4-9.21h4.35l-4.71,14.7H151.5l-2.94-9.27h-.21l-2.94,9.27h-4.17Z"/><path class="cls-9" d="M179.79,32.6h-.24a4.46,4.46,0,0,1-1.68,1.59,5.55,5.55,0,0,1-2.82.66,6.38,6.38,0,0,1-2.69-.58,7.18,7.18,0,0,1-2.25-1.62,7.71,7.71,0,0,1-1.54-2.48,9,9,0,0,1,0-6.3,7.66,7.66,0,0,1,1.54-2.47,7.18,7.18,0,0,1,2.25-1.62,6.39,6.39,0,0,1,2.69-.59,5.55,5.55,0,0,1,2.82.66,4.46,4.46,0,0,1,1.68,1.59h.24l-.24-2.1V12.89h3.93V34.37h-3.69Zm-3.93-1.38a3.9,3.9,0,0,0,1.48-.28,3.74,3.74,0,0,0,1.25-.83,4.1,4.1,0,0,0,.87-1.32,4.91,4.91,0,0,0,0-3.54,4.1,4.1,0,0,0-.87-1.32,3.72,3.72,0,0,0-1.25-.82,3.9,3.9,0,0,0-1.48-.29,3.78,3.78,0,0,0-1.49.3,3.89,3.89,0,0,0-1.24.84,4.1,4.1,0,0,0-.87,1.32,4.75,4.75,0,0,0,0,3.48,4.1,4.1,0,0,0,.87,1.32,3.89,3.89,0,0,0,1.24.84A3.78,3.78,0,0,0,175.86,31.22Z"/><path class="cls-9" d="M193.65,19.19a8.15,8.15,0,0,1,3.13.59,7.28,7.28,0,0,1,4.08,4.09,8.7,8.7,0,0,1,0,6.3,7.26,7.26,0,0,1-4.08,4.1,8.76,8.76,0,0,1-6.27,0,7.26,7.26,0,0,1-4.08-4.1,8.84,8.84,0,0,1,0-6.3,7.28,7.28,0,0,1,4.08-4.09A8.21,8.21,0,0,1,193.65,19.19Zm0,12a3.82,3.82,0,0,0,1.45-.28,3.74,3.74,0,0,0,1.25-.83,3.9,3.9,0,0,0,.85-1.32,5.06,5.06,0,0,0,0-3.54,3.9,3.9,0,0,0-.85-1.32,3.72,3.72,0,0,0-1.25-.82,3.82,3.82,0,0,0-2.92,0,3.74,3.74,0,0,0-1.23.82,3.92,3.92,0,0,0-.86,1.32,5.21,5.21,0,0,0,0,3.54,3.92,3.92,0,0,0,.86,1.32,3.77,3.77,0,0,0,1.23.83A3.81,3.81,0,0,0,193.65,31.22Z"/><path class="cls-9" d="M215.19,33.65l-6.18-14h4.47l3.72,8.91h.21L221,19.67h4.38l-9.21,21.18h-4.23Z"/><path class="cls-9" d="M233.52,19.19a8.15,8.15,0,0,1,3.13.59,7.28,7.28,0,0,1,4.08,4.09,8.7,8.7,0,0,1,0,6.3,7.26,7.26,0,0,1-4.08,4.1,8.76,8.76,0,0,1-6.27,0,7.26,7.26,0,0,1-4.08-4.1,8.84,8.84,0,0,1,0-6.3,7.28,7.28,0,0,1,4.08-4.09A8.21,8.21,0,0,1,233.52,19.19Zm0,12a3.82,3.82,0,0,0,1.45-.28,3.74,3.74,0,0,0,1.25-.83,3.9,3.9,0,0,0,.85-1.32,5.06,5.06,0,0,0,0-3.54,3.9,3.9,0,0,0-.85-1.32,3.72,3.72,0,0,0-1.25-.82,3.82,3.82,0,0,0-2.92,0,3.74,3.74,0,0,0-1.23.82,3.92,3.92,0,0,0-.86,1.32,5.21,5.21,0,0,0,0,3.54,3.92,3.92,0,0,0,.86,1.32,3.77,3.77,0,0,0,1.23.83A3.81,3.81,0,0,0,233.52,31.22Z"/><path class="cls-9" d="M253.86,32.45h-.24a5,5,0,0,1-1.86,1.76,5.55,5.55,0,0,1-2.67.64,5,5,0,0,1-4.16-1.71,7.1,7.1,0,0,1-1.36-4.56V19.67h3.93V28.1a3.4,3.4,0,0,0,.7,2.36,2.67,2.67,0,0,0,2.06.76,2.84,2.84,0,0,0,1.42-.34,3.33,3.33,0,0,0,1-.93,4.21,4.21,0,0,0,.66-1.38,6.23,6.23,0,0,0,.23-1.7v-7.2h3.93v14.7h-3.69Z"/><path class="cls-9" d="M267.51,19.67h3.69v1.92h.24a5.14,5.14,0,0,1,1.87-1.74,5.32,5.32,0,0,1,2.63-.66,4.88,4.88,0,0,1,2.82.78,4.37,4.37,0,0,1,1.62,1.92,6,6,0,0,1,1.95-1.9,5.62,5.62,0,0,1,3.06-.8,5.78,5.78,0,0,1,2.34.44,4.33,4.33,0,0,1,1.63,1.21,5.51,5.51,0,0,1,1,1.88,8.2,8.2,0,0,1,.33,2.38v9.27h-3.93V25.82q0-3-2.46-3a2.72,2.72,0,0,0-1.38.35,3.09,3.09,0,0,0-1,.93,4.56,4.56,0,0,0-.63,1.39,6.48,6.48,0,0,0-.22,1.74v7.14h-3.93V25.82q0-3-2.58-3a2.5,2.5,0,0,0-1.32.35,3,3,0,0,0-1,.93,4.3,4.3,0,0,0-.6,1.39,6.91,6.91,0,0,0-.21,1.74v7.14h-3.93Z"/><path class="cls-9" d="M304.08,32.45h-.24A5,5,0,0,1,302,34.21a5.55,5.55,0,0,1-2.67.64,5,5,0,0,1-4.16-1.71,7.1,7.1,0,0,1-1.36-4.56V19.67h3.93V28.1a3.4,3.4,0,0,0,.7,2.36,2.67,2.67,0,0,0,2.06.76,2.84,2.84,0,0,0,1.42-.34A3.33,3.33,0,0,0,303,30a4.21,4.21,0,0,0,.66-1.38,6.23,6.23,0,0,0,.23-1.7v-7.2h3.93v14.7h-3.69Z"/><path class="cls-9" d="M311.13,34.37V12.89h3.92V34.37Z"/><path class="cls-9" d="M320.18,23H317.6V19.67h2.58v-4.5h3.93v4.5h3.6V23h-3.6V28.9a4.26,4.26,0,0,0,.11,1,1.6,1.6,0,0,0,.4.76,1.48,1.48,0,0,0,1.2.49,2.1,2.1,0,0,0,1.38-.39l1.11,3.45a6.45,6.45,0,0,1-1.48.5,8.72,8.72,0,0,1-1.76.16,5.43,5.43,0,0,1-2-.35,4.32,4.32,0,0,1-1.49-1,5.23,5.23,0,0,1-1.41-3.92Z"/><path class="cls-9" d="M332.93,17.69a2.47,2.47,0,0,1-1-.19,2.5,2.5,0,0,1-.81-.54,2.57,2.57,0,0,1-.54-.8,2.55,2.55,0,0,1,0-2A2.53,2.53,0,0,1,332,12.85a2.52,2.52,0,0,1,2.77.54,2.5,2.5,0,0,1,0,3.57A2.48,2.48,0,0,1,332.93,17.69ZM331,34.37V19.67h3.93v14.7Z"/><path class="cls-9" d="M338.39,19.67h3.69v1.77h.24A4.46,4.46,0,0,1,344,19.85a5.55,5.55,0,0,1,2.82-.66,6.39,6.39,0,0,1,2.69.59,7.18,7.18,0,0,1,2.25,1.62,7.66,7.66,0,0,1,1.54,2.47,9,9,0,0,1,0,6.3,7.71,7.71,0,0,1-1.54,2.48,7.18,7.18,0,0,1-2.25,1.62,6.38,6.38,0,0,1-2.69.58,5.55,5.55,0,0,1-2.82-.66,4.46,4.46,0,0,1-1.68-1.59h-.24l.24,2.1v6.15h-3.93ZM346,31.22a3.78,3.78,0,0,0,1.49-.3,3.89,3.89,0,0,0,1.24-.84,4.1,4.1,0,0,0,.87-1.32,4.75,4.75,0,0,0,0-3.48,4.1,4.1,0,0,0-.87-1.32,3.89,3.89,0,0,0-1.24-.84,3.78,3.78,0,0,0-1.49-.3,3.9,3.9,0,0,0-1.48.29,3.72,3.72,0,0,0-1.25.82,4.1,4.1,0,0,0-.87,1.32,4.91,4.91,0,0,0,0,3.54,4.1,4.1,0,0,0,.87,1.32,3.74,3.74,0,0,0,1.25.83A3.9,3.9,0,0,0,346,31.22Z"/><path class="cls-9" d="M356.09,34.37V12.89H360V34.37Z"/><path class="cls-9" d="M368,33.65l-6.18-14h4.47L370,28.58h.21l3.57-8.91h4.38L369,40.85h-4.23Z"/><path class="cls-9" d="M393.23,12.65a7.65,7.65,0,0,1,1.56.15,7,7,0,0,1,1.29.39L395,16.7a3.25,3.25,0,0,0-.64-.24,3.49,3.49,0,0,0-.86-.09,1.79,1.79,0,0,0-1.38.56,2.18,2.18,0,0,0-.51,1.54v1.2h3.66V23h-3.66V34.37h-3.93V23H385V19.67h2.64V18.23a6.48,6.48,0,0,1,.41-2.38,4.69,4.69,0,0,1,1.15-1.74A5.14,5.14,0,0,1,391,13,6.48,6.48,0,0,1,393.23,12.65Z"/><path class="cls-9" d="M397.88,19.67h3.69v2h.24a3.8,3.8,0,0,1,.72-1,5.14,5.14,0,0,1,1-.78,5,5,0,0,1,1.2-.54,4.07,4.07,0,0,1,1.27-.21,4.75,4.75,0,0,1,1.34.17,3.27,3.27,0,0,1,.94.43l-1.05,3.51a3.68,3.68,0,0,0-.79-.28,4.63,4.63,0,0,0-1.07-.11,3.37,3.37,0,0,0-1.47.32,3.23,3.23,0,0,0-1.12.89,4.2,4.2,0,0,0-.72,1.34,5.27,5.27,0,0,0-.26,1.67v7.24h-3.93Z"/><path class="cls-9" d="M418.55,32.81h-.24a6.61,6.61,0,0,1-1.66,1.44,4.74,4.74,0,0,1-2.51.6,6.06,6.06,0,0,1-2.14-.37,5.62,5.62,0,0,1-1.76-1,4.63,4.63,0,0,1-1.17-1.59,4.9,4.9,0,0,1-.42-2,4.57,4.57,0,0,1,.45-2,4.69,4.69,0,0,1,1.26-1.58,5.7,5.7,0,0,1,1.91-1,7.87,7.87,0,0,1,2.38-.35,10.3,10.3,0,0,1,2.37.23,11.57,11.57,0,0,1,1.53.46v-.45a2.39,2.39,0,0,0-.93-1.93,3.52,3.52,0,0,0-2.31-.77,4.32,4.32,0,0,0-3.45,1.71L409,22.13a7.73,7.73,0,0,1,6.39-2.94,7.6,7.6,0,0,1,5.22,1.61,6,6,0,0,1,1.8,4.75v8.82h-3.87Zm0-4.41a8.06,8.06,0,0,0-1.42-.52,6.28,6.28,0,0,0-1.61-.2,3.38,3.38,0,0,0-2.17.62,1.87,1.87,0,0,0-.77,1.51,1.7,1.7,0,0,0,.74,1.44,2.77,2.77,0,0,0,1.69.54,3.61,3.61,0,0,0,2.57-1,3.31,3.31,0,0,0,1-2.36Z"/><path class="cls-9" d="M439.34,30.62a8.21,8.21,0,0,1-2.68,3.05,7.44,7.44,0,0,1-4.31,1.18,8.15,8.15,0,0,1-3.13-.58,7.32,7.32,0,0,1-2.46-1.64,7.57,7.57,0,0,1-1.62-2.47,8.21,8.21,0,0,1-.59-3.14,8.29,8.29,0,0,1,.59-3.15,7.28,7.28,0,0,1,4.08-4.09,8.15,8.15,0,0,1,3.13-.59,7.52,7.52,0,0,1,4.29,1.17,6.93,6.93,0,0,1,2.55,3l-3.6,1.5a3.84,3.84,0,0,0-1.3-1.54,3.57,3.57,0,0,0-2-.53,3.65,3.65,0,0,0-1.47.3,3.76,3.76,0,0,0-1.21.84,3.86,3.86,0,0,0-.83,1.32,5.2,5.2,0,0,0,0,3.48,3.86,3.86,0,0,0,.83,1.32,3.76,3.76,0,0,0,1.21.84,3.65,3.65,0,0,0,1.47.3,3.76,3.76,0,0,0,2.09-.55,3.88,3.88,0,0,0,1.36-1.61Z"/><path class="cls-9" d="M443.21,23h-2.58V19.67h2.58v-4.5h3.93v4.5h3.6V23h-3.6V28.9a4.26,4.26,0,0,0,.11,1,1.6,1.6,0,0,0,.4.76,1.48,1.48,0,0,0,1.2.49,2.1,2.1,0,0,0,1.38-.39l1.11,3.45a6.45,6.45,0,0,1-1.48.5,8.72,8.72,0,0,1-1.76.16,5.43,5.43,0,0,1-2-.35,4.32,4.32,0,0,1-1.49-1,5.23,5.23,0,0,1-1.41-3.92Z"/><path class="cls-9" d="M456,17.69a2.47,2.47,0,0,1-1-.19,2.5,2.5,0,0,1-.81-.54,2.57,2.57,0,0,1-.54-.8,2.55,2.55,0,0,1,0-2A2.53,2.53,0,0,1,455,12.85a2.52,2.52,0,0,1,2.77.54,2.5,2.5,0,0,1,0,3.57A2.48,2.48,0,0,1,456,17.69ZM454,34.37V19.67h3.93v14.7Z"/><path class="cls-9" d="M468.35,19.19a8.21,8.21,0,0,1,3.14.59,7.28,7.28,0,0,1,4.08,4.09,8.84,8.84,0,0,1,0,6.3,7.26,7.26,0,0,1-4.08,4.1,8.76,8.76,0,0,1-6.27,0,7.26,7.26,0,0,1-4.08-4.1,8.7,8.7,0,0,1,0-6.3,7.28,7.28,0,0,1,4.08-4.09A8.15,8.15,0,0,1,468.35,19.19Zm0,12a3.87,3.87,0,0,0,1.46-.28,3.7,3.7,0,0,0,1.24-.83,3.92,3.92,0,0,0,.86-1.32,5.21,5.21,0,0,0,0-3.54,3.92,3.92,0,0,0-.86-1.32,3.68,3.68,0,0,0-1.24-.82,3.88,3.88,0,0,0-1.46-.29,3.82,3.82,0,0,0-1.47.29,3.74,3.74,0,0,0-1.23.82,3.9,3.9,0,0,0-.85,1.32,5.06,5.06,0,0,0,0,3.54,3.9,3.9,0,0,0,.85,1.32,3.77,3.77,0,0,0,1.23.83A3.81,3.81,0,0,0,468.35,31.22Z"/><path class="cls-9" d="M482.06,21.59h.24a5,5,0,0,1,1.86-1.75,5.44,5.44,0,0,1,2.67-.65,6.12,6.12,0,0,1,2.43.45A4.48,4.48,0,0,1,491,20.92a5.63,5.63,0,0,1,1,2,8.91,8.91,0,0,1,.34,2.56v8.91h-3.93V25.94a3.37,3.37,0,0,0-.7-2.35,2.67,2.67,0,0,0-2.06-.77,2.85,2.85,0,0,0-1.42.35,3.33,3.33,0,0,0-1.05.93,4.21,4.21,0,0,0-.66,1.38,6.16,6.16,0,0,0-.23,1.69v7.2h-3.93V19.67h3.69Z"/><path class="cls-9" d="M501.26,34.85a8.38,8.38,0,0,1-2.56-.36,7.07,7.07,0,0,1-1.95-.94,6.21,6.21,0,0,1-1.4-1.35,6.53,6.53,0,0,1-.87-1.55l3.51-1.5a3.82,3.82,0,0,0,1.37,1.7,3.4,3.4,0,0,0,1.9.55A3.23,3.23,0,0,0,503,31a1.11,1.11,0,0,0,.63-.93,1.14,1.14,0,0,0-.52-1,5.45,5.45,0,0,0-1.82-.68L499.19,28a7.21,7.21,0,0,1-1.42-.48,5.61,5.61,0,0,1-1.34-.84,4.26,4.26,0,0,1-1-1.23,3.47,3.47,0,0,1-.39-1.68,3.9,3.9,0,0,1,.47-1.92,4.3,4.3,0,0,1,1.27-1.42,6.13,6.13,0,0,1,1.91-.9,8.45,8.45,0,0,1,2.35-.32,8.27,8.27,0,0,1,3.75.83,5.07,5.07,0,0,1,2.43,2.62L503.84,24a2.6,2.6,0,0,0-1.23-1.26,3.71,3.71,0,0,0-1.62-.39,3,3,0,0,0-1.47.35,1,1,0,0,0-.63.88.91.91,0,0,0,.53.81,6,6,0,0,0,1.42.54l2.25.54a6.52,6.52,0,0,1,3.35,1.73,4,4,0,0,1,1.09,2.8,3.93,3.93,0,0,1-.45,1.83,4.9,4.9,0,0,1-1.27,1.55,6.24,6.24,0,0,1-2,1.06A8,8,0,0,1,501.26,34.85Z"/><path class="cls-9" d="M513.89,27V26a5.58,5.58,0,0,1,.15-1.33,4.84,4.84,0,0,1,.47-1.19,5.94,5.94,0,0,1,.84-1.14,14.52,14.52,0,0,1,1.3-1.23,9.32,9.32,0,0,0,1.26-1.32,2.38,2.38,0,0,0,.45-1.47,2.2,2.2,0,0,0-.67-1.59,2.47,2.47,0,0,0-1.85-.69,2.93,2.93,0,0,0-2,.78,3.31,3.31,0,0,0-.64.81,3.72,3.72,0,0,0-.38.93l-3.45-1.44a6.62,6.62,0,0,1,.77-1.68,6.54,6.54,0,0,1,3.19-2.61,6.66,6.66,0,0,1,2.43-.42,7.7,7.7,0,0,1,2.64.44,6.25,6.25,0,0,1,2.06,1.2,5.42,5.42,0,0,1,1.33,1.81,5.66,5.66,0,0,1,.27,3.81,5.75,5.75,0,0,1-.57,1.29,7,7,0,0,1-.84,1.13c-.32.35-.66.69-1,1s-.62.61-.85.87a3.88,3.88,0,0,0-.54.77,3.12,3.12,0,0,0-.29.79,4.61,4.61,0,0,0-.09,1V27Zm1.92,7.38a2.46,2.46,0,0,1-1.83-.76,2.55,2.55,0,0,1-.75-1.85,2.56,2.56,0,0,1,2.58-2.58,2.55,2.55,0,0,1,1.85.75,2.46,2.46,0,0,1,.76,1.83,2.59,2.59,0,0,1-2.61,2.61Z"/><g class="cls-10"><path d="M249.14,326.24v24.62h-3.31V330.34L241,332.43l-1.26-2.81,7.23-3.38Z"/><path d="M263,335.24a7.3,7.3,0,0,1,5.33,2.37,7.58,7.58,0,0,1,2.38,5.58,7.94,7.94,0,0,1-2.52,5.8,8.32,8.32,0,0,1-5.91,2.45,8.18,8.18,0,0,1-6-2.45,7.94,7.94,0,0,1-2.45-5.8,13.2,13.2,0,0,1,2.41-6.8l7.17-10.73L266,327.5l-6.08,8.42.07.07A5.2,5.2,0,0,1,263,335.24Zm-5.83,8a4.9,4.9,0,0,0,1.48,3.6,5,5,0,0,0,3.63,1.44,5,5,0,1,0,0-10.08,5.06,5.06,0,0,0-3.6,1.47A4.82,4.82,0,0,0,257.13,343.23Z"/><path d="M263,380.58v3.17h-15.7v-3.32l6.38-6.44a55.7,55.7,0,0,0,4.42-4.91,5.66,5.66,0,0,0,1.23-3.44,3.61,3.61,0,0,0-1.26-2.77,4.61,4.61,0,0,0-3.24-1.16,4.47,4.47,0,0,0-2.92,1,4.57,4.57,0,0,0-1.58,2.45l-3-1.22a7.9,7.9,0,0,1,7.6-5.4,7.93,7.93,0,0,1,5.58,2.05,6.58,6.58,0,0,1,2.23,5q0,3.56-3.92,7.7l-7.2,7.24Z"/><line class="cls-11" x1="237.79" y1="355.41" x2="272.79" y2="355.41"/><path d="M225.67,353.77h-16.2V351h16.2Zm0,6.84h-16.2v-2.74h16.2Z"/></g><g class="cls-12"><rect class="cls-13" x="102.26" y="291.51" width="40" height="40" transform="translate(433.76 189.25) rotate(90)"/><rect class="cls-13" x="142.26" y="291.51" width="40" height="40" transform="translate(473.76 149.25) rotate(90)"/><rect class="cls-13" x="262.73" y="291.51" width="40" height="40" transform="translate(594.24 28.78) rotate(90)"/><rect class="cls-13" x="302.73" y="291.51" width="40" height="40" transform="translate(634.24 -11.22) rotate(90)"/><rect class="cls-13" x="343.2" y="291.51" width="40" height="40" transform="translate(674.71 -51.69) rotate(90)"/><rect class="cls-13" x="383.67" y="291.51" width="40" height="40" transform="translate(715.18 -92.16) rotate(90)"/><rect class="cls-13" x="182.26" y="291.51" width="40" height="40" transform="translate(513.76 109.25) rotate(90)"/><rect class="cls-13" x="222.49" y="291.51" width="40" height="40" transform="translate(554 69.02) rotate(90)"/></g><g class="cls-14"><rect class="cls-15" x="113.67" y="340.66" width="20" height="40" transform="translate(484.33 236.99) rotate(90)"/><rect class="cls-15" x="113.67" y="360.66" width="20" height="40" transform="translate(504.33 256.99) rotate(90)"/><rect class="cls-15" x="153.67" y="340.66" width="20" height="40" transform="translate(524.33 196.99) rotate(90)"/><rect class="cls-15" x="153.67" y="360.66" width="20" height="40" transform="translate(544.33 216.99) rotate(90)"/><rect class="cls-15" x="193.67" y="340.66" width="20" height="40" transform="translate(564.33 156.99) rotate(90)"/><rect class="cls-15" x="193.67" y="360.66" width="20" height="40" transform="translate(584.33 176.99) rotate(90)"/><rect class="cls-15" x="233.67" y="340.66" width="20" height="40" transform="translate(604.33 116.99) rotate(90)"/><rect class="cls-15" x="233.67" y="360.66" width="20" height="40" transform="translate(624.33 136.99) rotate(90)"/><rect class="cls-15" x="273.67" y="340.66" width="20" height="40" transform="translate(644.33 76.99) rotate(90)"/><rect class="cls-15" x="273.67" y="360.66" width="20" height="40" transform="translate(664.33 96.99) rotate(90)"/><rect class="cls-15" x="313.67" y="340.66" width="20" height="40" transform="translate(684.33 36.99) rotate(90)"/><rect class="cls-15" x="313.67" y="360.66" width="20" height="40" transform="translate(704.33 56.99) rotate(90)"/><rect class="cls-15" x="353.67" y="340.66" width="20" height="40" transform="translate(724.33 -3.01) rotate(90)"/><rect class="cls-15" x="353.67" y="360.66" width="20" height="40" transform="translate(744.33 16.99) rotate(90)"/><rect class="cls-15" x="393.67" y="340.66" width="20" height="40" transform="translate(764.33 -43.01) rotate(90)"/><rect class="cls-15" x="393.67" y="360.66" width="20" height="40" transform="translate(784.33 -23.01) rotate(90)"/></g><rect class="cls-16" x="55.06" y="340.66" width="20" height="40" transform="translate(425.72 295.61) rotate(90)"/><rect class="cls-16" x="55.06" y="360.66" width="20" height="40" transform="translate(445.72 315.61) rotate(90)"/><path d="M66.19,314.16l-5.58,5.72-1.83-1.83,5.61-5.76-5.61-5.76,1.83-1.84,5.58,5.73,5.58-5.73,1.84,1.84L68,312.29l5.62,5.76-1.84,1.83Z"/><polyline class="cls-7" points="423.67 340.24 95.12 340.24 95.12 400.36"/></g></g></svg>