<svg id="Mathematic_Background" data-name="Mathematic Background" xmlns="http://www.w3.org/2000/svg" viewBox="0 0 644 644"><defs><style>.cls-1{fill:#1d1d1b;}.cls-2{fill:#15a085;}.cls-3,.cls-4{fill:none;stroke-miterlimit:10;stroke-width:2px;}.cls-3{stroke:#1d1d1b;}.cls-4{stroke:#15a085;}</style></defs><title>sbs_wntr6_square</title><path class="cls-1" d="M383.14,297.59q2.72-2.71,10.79-10.92t11.22-11.62a48.23,48.23,0,0,0,6.06-7.55,12.88,12.88,0,0,0,1.57-6.57,9.62,9.62,0,0,0-1.36-5,10.16,10.16,0,0,0-3.94-3.77,12.45,12.45,0,0,0-6.19-1.45,10.44,10.44,0,0,0-7.58,2.76,13.19,13.19,0,0,0-3.73,6l-6.84-2.72a19.7,19.7,0,0,1,9.3-11,18.36,18.36,0,0,1,9.12-2.15,19.88,19.88,0,0,1,9.78,2.36,17.51,17.51,0,0,1,6.62,6.32,16.24,16.24,0,0,1,2.37,8.51q0,9.21-9.65,19l-18,18.07H421V305H383.14Z"/><path class="cls-1" d="M458,292.15H429.19v-5.61l28.06-41.49h8.07v40.08H473v7h-7.72V305H458Zm0-7v-29.2h-.35l-19.91,29.2Z"/><path class="cls-2" d="M386.76,320.56h41.75v6.14H386.76Z"/><path class="cls-2" d="M428.51,320.56h41.75v6.14H428.51Z"/><path class="cls-2" d="M418.18,399.06a18.42,18.42,0,0,1-7.28-6.45,16.44,16.44,0,0,1-2.63-9.08,14.78,14.78,0,0,1,2.76-8.9,19.2,19.2,0,0,1,7.24-6v-.35a17.39,17.39,0,0,1-5.75-5.57,13.15,13.15,0,0,1-2.23-7.24,16.17,16.17,0,0,1,8.81-14.64,21.12,21.12,0,0,1,18.77,0,16.2,16.2,0,0,1,8.82,14.64,13.16,13.16,0,0,1-2.24,7.24,17.7,17.7,0,0,1-5.66,5.57v.35a19.13,19.13,0,0,1,7.24,6,14.78,14.78,0,0,1,2.76,8.9,16.24,16.24,0,0,1-2.67,9.08,18.78,18.78,0,0,1-7.33,6.45,23.68,23.68,0,0,1-20.61,0Zm19.34-7.85a10.17,10.17,0,0,0,3.64-8.12,10,10,0,0,0-3.64-7.93,13.33,13.33,0,0,0-9-3.12,13.47,13.47,0,0,0-9,3.12,9.91,9.91,0,0,0-3.69,7.93,10.12,10.12,0,0,0,3.69,8.12,13.52,13.52,0,0,0,9,3.11A13.38,13.38,0,0,0,437.52,391.21Zm-1.36-28.82a9.15,9.15,0,0,0,3-7.1,8.71,8.71,0,0,0-3-7,12.53,12.53,0,0,0-15.26,0,8.69,8.69,0,0,0-3,7,9.09,9.09,0,0,0,3,7.1,11,11,0,0,0,7.67,2.72A10.86,10.86,0,0,0,436.16,362.39Z"/><path class="cls-2" d="M183.06,320.24h41.75v6.14H183.06Z"/><path class="cls-2" d="M202.78,350.15l-10.52,7.54L188.4,352l17.1-12.28h4.74v60h-7.46Z"/><path class="cls-1" d="M197.23,304.87a20,20,0,0,1-7.15-5,19.72,19.72,0,0,1-4.6-8.46l6.75-2.81a15.22,15.22,0,0,0,4.78,7.9,12,12,0,0,0,7.94,2.8,13.81,13.81,0,0,0,6.23-1.44,11.64,11.64,0,0,0,4.6-4,10.18,10.18,0,0,0,1.71-5.74,9.87,9.87,0,0,0-1.71-5.62,11.82,11.82,0,0,0-4.64-4,14.47,14.47,0,0,0-6.45-1.45h-5.18v-6.92h4.65a12,12,0,0,0,8.07-2.77,9.15,9.15,0,0,0,3.25-7.32,8.27,8.27,0,0,0-3.16-6.76,12.09,12.09,0,0,0-7.81-2.54,10.16,10.16,0,0,0-7.14,2.37,13.46,13.46,0,0,0-3.73,5.79L186.8,256a19.21,19.21,0,0,1,6.09-8.55q4.52-3.81,11.62-3.81a21,21,0,0,1,9.48,2.1,16.5,16.5,0,0,1,6.62,5.88,15.27,15.27,0,0,1,2.41,8.42,13,13,0,0,1-2.37,7.89,17,17,0,0,1-5.87,5.09v.35a17.35,17.35,0,0,1,7.36,5.66,14.45,14.45,0,0,1,2.9,9,17.23,17.23,0,0,1-2.68,9.47,18.39,18.39,0,0,1-7.28,6.58A21.79,21.79,0,0,1,205,306.45,20.77,20.77,0,0,1,197.23,304.87Z"/><path d="M200.37,158.81h3.89v3.6h.19a8.21,8.21,0,0,1,3.21-3.1,9.38,9.38,0,0,1,4.71-1.27q4.41,0,6.74,2.57a10,10,0,0,1,2.33,7v15.7h-4.08V168.22q0-3.41-1.63-4.95a6.28,6.28,0,0,0-4.47-1.53,6,6,0,0,0-3.52,1.1,7.44,7.44,0,0,0-2.43,2.91,8.62,8.62,0,0,0-.86,3.76v13.78h-4.08Z"/><path d="M229.43,181.46c-1.55-1.72-2.33-4.14-2.33-7.24V158.81h4.08v14.78q0,3.51,1.59,5.14a5.66,5.66,0,0,0,4.27,1.63,6.35,6.35,0,0,0,3.67-1.1,7.57,7.57,0,0,0,2.5-2.88,8.31,8.31,0,0,0,.89-3.75V158.81h4.08v24.48h-3.89v-3.55h-.19a8.18,8.18,0,0,1-3.22,3.07,9.42,9.42,0,0,1-4.7,1.25Q231.76,184.06,229.43,181.46Z"/><path d="M254.22,158.81h3.89v3.6h.19a8.48,8.48,0,0,1,3.17-3.12,8.68,8.68,0,0,1,4.47-1.25,8.35,8.35,0,0,1,4.68,1.3,7.22,7.22,0,0,1,2.85,3.45,10,10,0,0,1,3.43-3.45,9.35,9.35,0,0,1,5-1.3q4.23,0,6.36,2.57a10.55,10.55,0,0,1,2.14,7v15.7h-4V168.22q0-3.41-1.4-4.95a5.28,5.28,0,0,0-4.12-1.53,5.65,5.65,0,0,0-3.32,1,7.16,7.16,0,0,0-2.32,2.84,8.83,8.83,0,0,0-.84,3.83v13.83h-4.08v-15c0-2.31-.47-4-1.4-5a5.21,5.21,0,0,0-4.08-1.53,5.51,5.51,0,0,0-3.31,1.08,7.31,7.31,0,0,0-2.33,2.88,9,9,0,0,0-.84,3.86v13.73h-4.08Z"/><path d="M300.83,182.38a11.74,11.74,0,0,1-4.34-4.63,14,14,0,0,1-1.56-6.65,14.65,14.65,0,0,1,1.46-6.53,11.88,11.88,0,0,1,4.15-4.75,11.05,11.05,0,0,1,6.24-1.78,11.78,11.78,0,0,1,6.24,1.61,10.63,10.63,0,0,1,4.06,4.44,14.36,14.36,0,0,1,1.42,6.48,4.6,4.6,0,0,1-.15,1.25H299a9.62,9.62,0,0,0,1.34,4.7,7.85,7.85,0,0,0,3,2.88,8.26,8.26,0,0,0,3.86,1,8,8,0,0,0,7.25-4.42l3.46,1.69a12.35,12.35,0,0,1-4.3,4.7,12.94,12.94,0,0,1-12.84,0Zm13.35-13.92a8,8,0,0,0-.87-3.07,6.59,6.59,0,0,0-2.42-2.6,7.63,7.63,0,0,0-4.15-1,6.92,6.92,0,0,0-4.88,1.84,8.93,8.93,0,0,0-2.61,4.88Z"/><path d="M323.25,158.81h3.88v3.94h.2a6.52,6.52,0,0,1,2.78-3.34,7.92,7.92,0,0,1,4.32-1.32,7.75,7.75,0,0,1,2.88.48V163a7.65,7.65,0,0,0-3.46-.76,5.63,5.63,0,0,0-3.26,1,7.3,7.3,0,0,0-2.38,2.71,7.83,7.83,0,0,0-.88,3.67v13.68h-4.08Z"/><path d="M343.31,183a7.88,7.88,0,0,1-3.26-2.9,7.75,7.75,0,0,1-1.15-4.2,7.14,7.14,0,0,1,2.92-6.07,12,12,0,0,1,7.4-2.19,16.7,16.7,0,0,1,4.1.48,10.46,10.46,0,0,1,2.9,1.11v-1.49a5.49,5.49,0,0,0-1.92-4.39,7.11,7.11,0,0,0-4.84-1.66,8.24,8.24,0,0,0-3.8.89,6.86,6.86,0,0,0-2.73,2.47l-3.07-2.3a9.75,9.75,0,0,1,4-3.46,12.44,12.44,0,0,1,5.59-1.25c3.33,0,5.94.87,7.85,2.62a9.19,9.19,0,0,1,2.85,7.13v15.5h-3.89v-3.5H356a8.72,8.72,0,0,1-3.17,3,9.16,9.16,0,0,1-4.75,1.25A10.65,10.65,0,0,1,343.31,183Zm9-3.6a8,8,0,0,0,2.84-2.83,7.49,7.49,0,0,0,1.05-3.89,10,10,0,0,0-2.83-1.25,12.85,12.85,0,0,0-3.55-.48,7.83,7.83,0,0,0-5.06,1.4,4.4,4.4,0,0,0-1.71,3.59,4,4,0,0,0,1.54,3.27,6,6,0,0,0,3.89,1.25A7.3,7.3,0,0,0,352.33,179.4Z"/><path d="M371.94,183.19a6.26,6.26,0,0,1-2.13-1.29,5.93,5.93,0,0,1-1.44-2.11,7.92,7.92,0,0,1-.48-2.93V162.5h-4.27v-3.69h4.27V151.9H372v6.91h5.95v3.69H372v13.35a4.77,4.77,0,0,0,.76,3,3.32,3.32,0,0,0,2.65,1,4.92,4.92,0,0,0,2.68-.82v4a6.74,6.74,0,0,1-1.46.48,10,10,0,0,1-1.9.14A7.77,7.77,0,0,1,371.94,183.19Z"/><path d="M386.61,182.33a12.08,12.08,0,0,1-4.49-4.7,14.25,14.25,0,0,1,0-13.16,12.08,12.08,0,0,1,4.49-4.7,13,13,0,0,1,13,0,12.15,12.15,0,0,1,4.49,4.7,14.33,14.33,0,0,1,0,13.16,12.15,12.15,0,0,1-4.49,4.7,13,13,0,0,1-13,0Zm10.68-3.1a8.39,8.39,0,0,0,3.12-3.24,11,11,0,0,0,0-9.89,8.44,8.44,0,0,0-3.12-3.23,8.17,8.17,0,0,0-4.2-1.13,8.35,8.35,0,0,0-7.37,4.36,11,11,0,0,0,0,9.89,8.39,8.39,0,0,0,11.57,3.24Z"/><path d="M409.94,158.81h3.88v3.94h.2a6.52,6.52,0,0,1,2.78-3.34,7.89,7.89,0,0,1,4.32-1.32,7.75,7.75,0,0,1,2.88.48V163a7.68,7.68,0,0,0-3.46-.76,5.63,5.63,0,0,0-3.26,1,7.3,7.3,0,0,0-2.38,2.71,7.83,7.83,0,0,0-.88,3.67v13.68h-4.08Z"/><path d="M428.94,182.21a10.1,10.1,0,0,1-3.74-4.73l3.65-1.63a7.36,7.36,0,0,0,2.71,3.41,7,7,0,0,0,4,1.2,7.74,7.74,0,0,0,3.94-.94,2.93,2.93,0,0,0,1.63-2.66,2.88,2.88,0,0,0-1.3-2.47,11.84,11.84,0,0,0-4.08-1.61l-3-.77a10.63,10.63,0,0,1-4.8-2.45,6.15,6.15,0,0,1-.6-8.18,8,8,0,0,1,3.38-2.47,12.48,12.48,0,0,1,10.3.52,7.87,7.87,0,0,1,3.57,3.89L441,165c-1.09-2.17-3-3.26-5.81-3.26a6.54,6.54,0,0,0-3.53.94,2.75,2.75,0,0,0-1.51,2.37,2.65,2.65,0,0,0,1.06,2.19,8.35,8.35,0,0,0,3.17,1.36l3.55.91a11.64,11.64,0,0,1,5.42,2.72,5.92,5.92,0,0,1,1.83,4.39,6.4,6.4,0,0,1-1.3,4,8.21,8.21,0,0,1-3.5,2.62,12.92,12.92,0,0,1-4.9.91A11.23,11.23,0,0,1,428.94,182.21Z"/><path class="cls-2" d="M179.63,493.93a11.85,11.85,0,0,1-4.2-4.63,15.37,15.37,0,0,1,0-13.37,11.86,11.86,0,0,1,4.2-4.66,10.89,10.89,0,0,1,5.93-1.68,9.89,9.89,0,0,1,5,1.28A9.2,9.2,0,0,1,194,474h.19L194,470.6V460.47H198v34.37h-3.89v-3.6H194a9.45,9.45,0,0,1-3.36,3.1,9.88,9.88,0,0,1-5,1.27A10.89,10.89,0,0,1,179.63,493.93Zm10.42-3.17a8.39,8.39,0,0,0,3-3.26,11.17,11.17,0,0,0,0-9.79,8.42,8.42,0,0,0-3-3.27,7.51,7.51,0,0,0-8,0,8.33,8.33,0,0,0-3,3.29,11.06,11.06,0,0,0,0,9.74,8.26,8.26,0,0,0,3,3.29,7.51,7.51,0,0,0,8,0Z"/><path class="cls-2" d="M208.46,493.93a11.63,11.63,0,0,1-4.35-4.63,14,14,0,0,1-1.56-6.65,14.56,14.56,0,0,1,1.47-6.53,11.81,11.81,0,0,1,4.15-4.75,11.08,11.08,0,0,1,6.24-1.78,11.78,11.78,0,0,1,6.24,1.61,10.61,10.61,0,0,1,4,4.44,14.23,14.23,0,0,1,1.42,6.48,5.07,5.07,0,0,1-.14,1.25H206.63a9.7,9.7,0,0,0,1.35,4.7,7.83,7.83,0,0,0,3,2.88,8.3,8.3,0,0,0,3.87,1,8,8,0,0,0,7.25-4.41l3.45,1.68a12.33,12.33,0,0,1-4.29,4.7,12.94,12.94,0,0,1-12.84.05ZM221.8,480a7.89,7.89,0,0,0-.86-3.07,6.52,6.52,0,0,0-2.43-2.59,7.52,7.52,0,0,0-4.15-1.06,6.91,6.91,0,0,0-4.87,1.85,8.88,8.88,0,0,0-2.62,4.87Z"/><path class="cls-2" d="M230.87,470.36h3.89V474H235a8.22,8.22,0,0,1,3.22-3.09,9.25,9.25,0,0,1,4.7-1.28c2.95,0,5.19.86,6.75,2.57a10,10,0,0,1,2.32,7v15.69h-4.08V479.77q0-3.4-1.63-4.94a6.22,6.22,0,0,0-4.46-1.54,6,6,0,0,0-3.53,1.1,7.41,7.41,0,0,0-2.42,2.91,8.54,8.54,0,0,0-.87,3.77v13.77h-4.08Z"/><path class="cls-2" d="M262.6,493.88a12.08,12.08,0,0,1-4.49-4.7,14.23,14.23,0,0,1,0-13.15,12,12,0,0,1,4.49-4.71,13,13,0,0,1,13,0,12,12,0,0,1,4.49,4.71,14.23,14.23,0,0,1,0,13.15,12.08,12.08,0,0,1-4.49,4.7,13,13,0,0,1-13,0Zm10.68-3.09a8.39,8.39,0,0,0,3.12-3.24,11,11,0,0,0,0-9.89,8.27,8.27,0,0,0-7.32-4.37,8.37,8.37,0,0,0-4.22,1.13,8.26,8.26,0,0,0-3.15,3.24,11,11,0,0,0,0,9.89,8.33,8.33,0,0,0,7.37,4.36A8.26,8.26,0,0,0,273.28,490.79Z"/><path class="cls-2" d="M285.93,470.36h3.89V474H290a8.41,8.41,0,0,1,3.17-3.12,8.62,8.62,0,0,1,4.46-1.25,8.43,8.43,0,0,1,4.68,1.3,7.27,7.27,0,0,1,2.86,3.46,9.88,9.88,0,0,1,3.43-3.46,9.42,9.42,0,0,1,5-1.3q4.21,0,6.36,2.57a10.61,10.61,0,0,1,2.13,7v15.69h-4V479.77q0-3.4-1.39-4.94a5.28,5.28,0,0,0-4.13-1.54,5.54,5.54,0,0,0-3.31,1.06,7,7,0,0,0-2.33,2.83A8.84,8.84,0,0,0,306,481v13.82H302v-15q0-3.46-1.39-5a5.21,5.21,0,0,0-4.08-1.54,5.49,5.49,0,0,0-3.31,1.08,7.22,7.22,0,0,0-2.33,2.88,9,9,0,0,0-.84,3.86v13.73h-4.08Z"/><path class="cls-2" d="M328.26,465a2.86,2.86,0,0,1-.86-2.07,2.76,2.76,0,0,1,.86-2,2.88,2.88,0,0,1,2.07-.84,2.84,2.84,0,0,1,2.06.84,2.73,2.73,0,0,1,.87,2,2.92,2.92,0,0,1-.84,2.07,2.82,2.82,0,0,1-2.09.86A2.86,2.86,0,0,1,328.26,465Zm.05,5.37h4v24.48h-4Z"/><path class="cls-2" d="M338.78,470.36h3.88V474h.2a8.19,8.19,0,0,1,3.21-3.09,9.26,9.26,0,0,1,4.71-1.28q4.41,0,6.74,2.57a10,10,0,0,1,2.33,7v15.69h-4.08V479.77q0-3.4-1.64-4.94a6.2,6.2,0,0,0-4.46-1.54,6,6,0,0,0-3.53,1.1,7.41,7.41,0,0,0-2.42,2.91,8.53,8.53,0,0,0-.86,3.77v13.77h-4.08Z"/><path class="cls-2" d="M368.49,494.55a7.65,7.65,0,0,1-4.42-7.1,7.15,7.15,0,0,1,2.93-6.07,12,12,0,0,1,7.39-2.19,16.79,16.79,0,0,1,4.11.48,10.46,10.46,0,0,1,2.9,1.11v-1.49a5.51,5.51,0,0,0-1.92-4.39,7.14,7.14,0,0,0-4.85-1.66,8.17,8.17,0,0,0-3.79.89,7,7,0,0,0-2.74,2.47L365,474.3a9.82,9.82,0,0,1,4-3.46,12.47,12.47,0,0,1,5.59-1.25,11.19,11.19,0,0,1,7.85,2.62,9.2,9.2,0,0,1,2.86,7.13v15.5H381.4v-3.5h-.19a8.8,8.8,0,0,1-3.17,3,9.18,9.18,0,0,1-4.75,1.25A10.49,10.49,0,0,1,368.49,494.55Zm9-3.6a7.91,7.91,0,0,0,2.83-2.83,7.41,7.41,0,0,0,1.06-3.89,10.14,10.14,0,0,0-2.83-1.24,12.9,12.9,0,0,0-3.55-.48A7.88,7.88,0,0,0,370,483.9a4.45,4.45,0,0,0-1.7,3.6,4,4,0,0,0,1.53,3.26,6,6,0,0,0,3.89,1.25A7.31,7.31,0,0,0,377.51,491Z"/><path class="cls-2" d="M397.12,494.75a6.42,6.42,0,0,1-2.14-1.3,5.93,5.93,0,0,1-1.44-2.11,7.92,7.92,0,0,1-.48-2.93V474.06h-4.27v-3.7h4.27v-6.91h4.08v6.91h5.95v3.7h-5.95V487.4a4.75,4.75,0,0,0,.77,3,3.31,3.31,0,0,0,2.64,1.05,5,5,0,0,0,2.69-.81v4a5.81,5.81,0,0,1-1.46.48,9.93,9.93,0,0,1-1.9.15A7.77,7.77,0,0,1,397.12,494.75Z"/><path class="cls-2" d="M411.78,493.88a12.05,12.05,0,0,1-4.48-4.7,14.23,14.23,0,0,1,0-13.15,12,12,0,0,1,4.48-4.71,13,13,0,0,1,13,0,12,12,0,0,1,4.49,4.71,14.23,14.23,0,0,1,0,13.15,12.08,12.08,0,0,1-4.49,4.7,13,13,0,0,1-13,0Zm10.68-3.09a8.39,8.39,0,0,0,3.12-3.24,11,11,0,0,0,0-9.89,8.27,8.27,0,0,0-7.32-4.37,8.37,8.37,0,0,0-4.22,1.13,8.23,8.23,0,0,0-3.14,3.24,11,11,0,0,0,0,9.89,8.3,8.3,0,0,0,7.36,4.36A8.21,8.21,0,0,0,422.46,490.79Z"/><path class="cls-2" d="M435.11,470.36H439v3.94h.19A6.54,6.54,0,0,1,442,471a7.87,7.87,0,0,1,4.32-1.32,7.75,7.75,0,0,1,2.88.48v4.42a7.68,7.68,0,0,0-3.46-.77,5.71,5.71,0,0,0-3.26,1,7.13,7.13,0,0,0-2.38,2.71,7.86,7.86,0,0,0-.89,3.67v13.68h-4.08Z"/><path class="cls-2" d="M454.12,493.76a10,10,0,0,1-3.74-4.73L454,487.4a7.29,7.29,0,0,0,2.71,3.41,7,7,0,0,0,4,1.2,7.73,7.73,0,0,0,3.93-.94,3,3,0,0,0,.34-5.13,12,12,0,0,0-4.08-1.61l-3-.77a10.63,10.63,0,0,1-4.8-2.45,6.18,6.18,0,0,1-.6-8.18,8.12,8.12,0,0,1,3.39-2.47,11.83,11.83,0,0,1,4.56-.87,11.63,11.63,0,0,1,5.73,1.4,7.87,7.87,0,0,1,3.58,3.88l-3.55,1.64q-1.64-3.27-5.81-3.27a6.51,6.51,0,0,0-3.53.94,2.73,2.73,0,0,0-1.51,2.37,2.67,2.67,0,0,0,1.05,2.19,8.58,8.58,0,0,0,3.17,1.37l3.55.91a11.73,11.73,0,0,1,5.43,2.71,6,6,0,0,1,1.82,4.39,6.35,6.35,0,0,1-1.29,4,8.3,8.3,0,0,1-3.51,2.62,12.64,12.64,0,0,1-4.89.91A11.2,11.2,0,0,1,454.12,493.76Z"/><path class="cls-3" d="M160.86,170c-27.31-2.36-51.76,14.6-58.2,38.07-6.67,24.32,7,51.94,32.24,63"/><polygon class="cls-1" points="127.27 276.06 132.63 270.06 132.03 262.04 146.27 274.7 127.27 276.06"/><path class="cls-3" d="M479.77,166.07c27.31-2.37,51.76,14.6,58.19,38.07,6.67,24.32-7,51.94-32.24,63"/><polygon class="cls-1" points="508.59 258.13 508 266.16 513.36 272.16 494.36 270.8 508.59 258.13"/><path class="cls-4" d="M160.86,484.87c-27.31,2.36-51.76-14.6-58.2-38.07-6.67-24.32,7-51.94,32.24-63"/><polygon class="cls-2" points="132.03 392.8 132.63 384.78 127.27 378.78 146.27 380.14 132.03 392.8"/><path class="cls-4" d="M479.77,484.87c27.31,2.36,51.76-14.6,58.19-38.07,6.67-24.32-7-51.94-32.24-63"/><polygon class="cls-2" points="513.36 378.78 508 384.78 508.59 392.8 494.36 380.14 513.36 378.78"/></svg>