<svg id="Mathematic_Background" data-name="Mathematic Background" xmlns="http://www.w3.org/2000/svg" viewBox="0 0 644 393.5"><defs><style>.cls-1{fill:#15a085;}</style></defs><title>sbs_wntr1</title><path class="cls-1" d="M245,216.1a19.93,19.93,0,0,1-7.14-5,19.63,19.63,0,0,1-4.61-8.46l6.75-2.81a15.18,15.18,0,0,0,4.78,7.9,12,12,0,0,0,7.94,2.8,13.81,13.81,0,0,0,6.23-1.44,11.64,11.64,0,0,0,4.6-4,10.18,10.18,0,0,0,1.71-5.74,9.87,9.87,0,0,0-1.71-5.62,11.82,11.82,0,0,0-4.64-4,14.46,14.46,0,0,0-6.45-1.44h-5.18v-6.93h4.65A12,12,0,0,0,260,178.6a9.15,9.15,0,0,0,3.25-7.32,8.23,8.23,0,0,0-3.16-6.75,12,12,0,0,0-7.81-2.55,10.16,10.16,0,0,0-7.14,2.37,13.46,13.46,0,0,0-3.73,5.79l-6.84-2.89a19.19,19.19,0,0,1,6.09-8.56q4.51-3.81,11.62-3.81a21,21,0,0,1,9.48,2.1,16.5,16.5,0,0,1,6.62,5.88,15.29,15.29,0,0,1,2.41,8.42,13,13,0,0,1-2.37,7.89,17,17,0,0,1-5.87,5.09v.35a17.43,17.43,0,0,1,7.36,5.66,14.45,14.45,0,0,1,2.9,9,17.21,17.21,0,0,1-2.68,9.47,18.39,18.39,0,0,1-7.28,6.58,21.79,21.79,0,0,1-10.13,2.37A20.81,20.81,0,0,1,245,216.1Z"/><path class="cls-1" d="M302.44,176.89h39.12V183H302.44Zm0,16.67h39.12v6.14H302.44Z"/><path class="cls-1" d="M382.43,165.37a20.3,20.3,0,0,1-7.15-5,19.61,19.61,0,0,1-4.6-8.46l6.75-2.81a15.19,15.19,0,0,0,4.78,7.89,12,12,0,0,0,7.94,2.81,13.69,13.69,0,0,0,6.23-1.45,11.62,11.62,0,0,0,4.6-4,10.21,10.21,0,0,0,1.71-5.75A9.86,9.86,0,0,0,401,143a11.62,11.62,0,0,0-4.65-4,14.32,14.32,0,0,0-6.44-1.45h-5.18v-6.93h4.65a12,12,0,0,0,8.07-2.76,9.14,9.14,0,0,0,3.24-7.32,8.26,8.26,0,0,0-3.15-6.76,12.09,12.09,0,0,0-7.81-2.54,10.2,10.2,0,0,0-7.15,2.37,13.55,13.55,0,0,0-3.73,5.79l-6.84-2.9a19.21,19.21,0,0,1,6.1-8.55q4.52-3.81,11.62-3.82a20.9,20.9,0,0,1,9.47,2.11,16.23,16.23,0,0,1,6.62,5.88,15.28,15.28,0,0,1,2.42,8.42,13,13,0,0,1-2.37,7.89,17,17,0,0,1-5.88,5.09v.35a17.38,17.38,0,0,1,7.37,5.66,14.43,14.43,0,0,1,2.89,9,17.34,17.34,0,0,1-2.67,9.48,18.53,18.53,0,0,1-7.28,6.58,21.93,21.93,0,0,1-10.13,2.36A20.71,20.71,0,0,1,382.43,165.37Z"/><path class="cls-1" d="M372.26,188.58H414v6.14H372.26Z"/><path class="cls-1" d="M390.59,224.16l-10.53,7.54L376.2,226l17.11-12.28H398v60h-7.45Z"/></svg>