<?xml version="1.0" encoding="UTF-8"?>
<svg id="Layer_1" data-name="Layer 1" xmlns="http://www.w3.org/2000/svg" viewBox="0 0 450 450">
  <g>
    <line x1="283.32" y1="307.19" x2="60.57" y2="426.59" style="fill: none; stroke: #aaa; stroke-linecap: round; stroke-linejoin: round; stroke-width: 3px;"/>
    <polygon points="61.88 418.32 62.53 425.54 68.17 430.07 51.1 431.66 61.88 418.32" style="fill: #aaa;"/>
  </g>
  <g>
    <line x1="283.32" y1="307.19" x2="394.91" y2="28.31" style="fill: none; stroke: #aaa; stroke-linecap: round; stroke-linejoin: round; stroke-width: 3px;"/>
    <polygon points="399.22 35.48 394.08 30.38 386.84 30.53 398.9 18.34 399.22 35.48" style="fill: #aaa;"/>
  </g>
  <circle cx="196.78" cy="353.58" r="5.97"/>
  <circle cx="357.79" cy="121.07" r="5.97"/>
  <circle cx="283.32" cy="307.19" r="5.97" style="fill: #fff; stroke: #000; stroke-miterlimit: 10;"/>
  <path d="M203.26,375.79c0,1.32-.48,2.37-1.45,3.17-.98,.78-2.17,1.18-3.57,1.18-1.25,0-2.35-.36-3.3-1.09-.95-.73-1.61-1.72-1.97-2.98l1.85-.76c.13,.45,.3,.85,.52,1.22,.22,.36,.49,.67,.79,.93,.3,.26,.63,.46,1,.61,.36,.15,.75,.22,1.15,.22,.88,0,1.6-.23,2.16-.68,.56-.46,.84-1.06,.84-1.82,0-.63-.23-1.17-.69-1.62-.43-.43-1.25-.85-2.44-1.26-1.2-.43-1.95-.73-2.25-.88-1.6-.81-2.39-2.01-2.39-3.59,0-1.11,.44-2.05,1.32-2.83,.9-.78,2-1.18,3.3-1.18,1.15,0,2.14,.29,2.98,.88,.84,.57,1.4,1.3,1.68,2.16l-1.81,.76c-.17-.56-.5-1.03-1-1.4s-1.1-.56-1.82-.56c-.76,0-1.39,.21-1.91,.63-.52,.39-.78,.9-.78,1.53,0,.52,.2,.97,.61,1.34,.45,.38,1.42,.83,2.92,1.34,1.53,.52,2.61,1.15,3.27,1.9s.98,1.67,.98,2.76Z"/>
  <path d="M372.45,145.34l-1.51,.99-1.03-1.53c-1.18,.57-2.38,.86-3.61,.86-2.18,0-4.02-.76-5.5-2.27-1.48-1.5-2.23-3.36-2.23-5.59s.74-4.09,2.23-5.59c1.48-1.51,3.32-2.27,5.5-2.27s4.02,.76,5.5,2.29c1.48,1.5,2.23,3.35,2.23,5.56,0,1.18-.23,2.28-.68,3.3-.46,1.02-1.1,1.91-1.94,2.67l1.05,1.58Zm-6.15-1.53c.9,0,1.74-.2,2.54-.59l-1.76-2.65,1.51-1.03,1.74,2.62c1.15-1.11,1.72-2.56,1.72-4.37s-.55-3.18-1.66-4.31c-1.09-1.13-2.46-1.7-4.09-1.7s-3.01,.57-4.12,1.7c-1.09,1.13-1.64,2.57-1.64,4.31s.55,3.17,1.64,4.31c1.11,1.13,2.48,1.7,4.12,1.7Z"/>
  <path d="M300.8,319.13h-1.93v-15.04h5.12c1.3,0,2.41,.43,3.33,1.29s1.38,1.92,1.38,3.18c0,1.04-.34,1.96-1.02,2.76-.68,.8-1.54,1.32-2.57,1.54l-.04,.06,4.22,6.11v.08h-2.29l-4.05-6.09h-2.14v6.09Zm0-13.19v5.29h3.11c.78,0,1.45-.26,2-.77s.82-1.14,.82-1.9c0-.7-.26-1.31-.77-1.84-.51-.52-1.15-.79-1.92-.79h-3.23Z"/>
</svg>