<?xml version="1.0" encoding="UTF-8"?>
<svg id="Layer_1" data-name="Layer 1" xmlns="http://www.w3.org/2000/svg" viewBox="0 0 450 450">
  <g>
    <line x1="420.11" y1="390.41" x2="31.84" y2="110.24" style="fill: none; stroke: #aaa; stroke-linecap: round; stroke-linejoin: round; stroke-width: 3px;"/>
    <polygon points="39.84 107.79 33.64 111.54 32.04 118.6 23.12 103.95 39.84 107.79" style="fill: #aaa;"/>
  </g>
  <g>
    <line x1="420.11" y1="390.41" x2="272.89" y2="62.62" style="fill: none; stroke: #aaa; stroke-linecap: round; stroke-linejoin: round; stroke-width: 3px;"/>
    <polygon points="281.04 64.5 273.8 64.65 268.88 69.97 268.49 52.82 281.04 64.5" style="fill: #aaa;"/>
  </g>
  <circle cx="420.11" cy="390.41" r="5.97" style="fill: #fff; stroke: #000; stroke-miterlimit: 10;"/>
  <circle cx="158.19" cy="201.41" r="5.97"/>
  <circle cx="314.44" cy="155.13" r="5.97"/>
  <path d="M141.74,215.17v6.45h-1.93v-15.04h8.78v1.85h-6.85v4.94h6.17v1.81h-6.17Z"/>
  <path d="M320,145.45v-15.04h4.6c2.3,0,4.14,.69,5.53,2.08,1.39,1.39,2.09,3.2,2.09,5.44s-.7,4.07-2.09,5.45c-1.39,1.38-3.24,2.07-5.53,2.07h-4.6Zm1.93-13.19v11.34h2.67c1.75,0,3.13-.5,4.14-1.5,1.01-1,1.51-2.39,1.51-4.17s-.5-3.15-1.51-4.16c-1.01-1.01-2.39-1.51-4.14-1.51h-2.67Z"/>
  <path d="M414.51,399.66v1.85h-6.85v4.77h6.17v1.81h-6.17v4.77h6.85v1.85h-8.78v-15.04h8.78Z"/>
</svg>