<?xml version="1.0" encoding="UTF-8"?>
<svg id="Layer_1" data-name="Layer 1" xmlns="http://www.w3.org/2000/svg" viewBox="0 0 450 450">
  <path d="M307.6,61.16c0,2.1-.62,3.77-1.87,5.02-1.4,1.48-3.24,2.23-5.52,2.23s-4.03-.76-5.54-2.27c-1.51-1.51-2.27-3.37-2.27-5.59s.76-4.07,2.27-5.59,3.36-2.27,5.54-2.27c1.11,0,2.15,.2,3.13,.59,.98,.39,1.79,.95,2.42,1.66l-1.39,1.39c-.46-.56-1.06-1-1.8-1.31-.74-.32-1.52-.47-2.36-.47-1.64,0-3.02,.57-4.16,1.7-1.12,1.15-1.68,2.58-1.68,4.31s.56,3.16,1.68,4.31c1.13,1.13,2.52,1.7,4.16,1.7,1.5,0,2.74-.42,3.74-1.26,.99-.84,1.57-2,1.72-3.46h-5.46v-1.81h7.29c.07,.39,.1,.77,.1,1.13Z"/>
  <g>
    <line x1="335.14" y1="42.99" x2="111.92" y2="381.66" style="fill: none; stroke: #aaa; stroke-linecap: round; stroke-linejoin: round; stroke-width: 3px;"/>
    <polygon points="326.79 43.54 333.92 44.85 337.93 50.88 341.06 34.02 326.79 43.54" style="fill: #aaa;"/>
    <polygon points="109.14 373.77 113.14 379.8 120.27 381.1 106.01 390.63 109.14 373.77" style="fill: #aaa;"/>
  </g>
  <circle cx="129.38" cy="355.17" r="5.97"/>
  <path d="M118.05,346.12c-1.13,0-2.11-.31-2.94-.92-.83-.62-1.41-1.47-1.74-2.56l1.83-.76c.48,1.6,1.43,2.39,2.86,2.39,.78,0,1.42-.28,1.9-.83s.72-1.27,.72-2.15v-10.54h1.93v10.38c0,1.55-.41,2.78-1.23,3.66-.82,.89-1.93,1.33-3.33,1.33Z"/>
  <path d="M206.14,204.56h-1.93v-15.04h1.93v6.45h7.52v-6.45h1.93v15.04h-1.93v-6.78h-7.52v6.78Z"/>
  <circle cx="318.61" cy="68.07" r="5.97"/>
  <circle cx="225" cy="210.1" r="5.97"/>
</svg>