<?xml version="1.0" encoding="UTF-8"?>
<svg id="Layer_1" data-name="Layer 1" xmlns="http://www.w3.org/2000/svg" viewBox="0 0 450 450">
  <g>
    <g>
      <line x1="47.42" y1="377.33" x2="175.3" y2="48.61" style="fill: none; stroke: #aaa; stroke-linecap: round; stroke-linejoin: round; stroke-width: 3px;"/>
      <polygon points="179.68 55.74 174.49 50.68 167.26 50.91 179.2 38.6 179.68 55.74" style="fill: #aaa;"/>
    </g>
    <g>
      <line x1="47.42" y1="377.33" x2="407.37" y2="219" style="fill: none; stroke: #aaa; stroke-linecap: round; stroke-linejoin: round; stroke-width: 3px;"/>
      <polygon points="405.43 227.14 405.34 219.9 400.06 214.94 417.21 214.68 405.43 227.14" style="fill: #aaa;"/>
    </g>
  </g>
  <circle cx="47.42" cy="377.33" r="5.97" style="fill: #fff; stroke: #000; stroke-miterlimit: 10;"/>
  <circle cx="139.95" cy="139.48" r="5.97"/>
  <circle cx="350.02" cy="244.23" r="5.97"/>
  <path d="M118.76,137.48h-2.14l5.67-15.04h2.18l5.67,15.04h-2.14l-1.45-4.07h-6.32l-1.47,4.07Zm4.58-12.66l-2.46,6.78h5l-2.46-6.78h-.08Z"/>
  <path d="M354.98,269.77c-2.23,0-4.09-.75-5.59-2.25-1.48-1.5-2.23-3.37-2.23-5.61s.74-4.1,2.23-5.59c1.48-1.51,3.35-2.27,5.59-2.27s4.11,.82,5.52,2.46l-1.39,1.34c-1.08-1.3-2.46-1.95-4.14-1.95s-3.06,.56-4.18,1.68c-1.11,1.11-1.66,2.55-1.66,4.33s.55,3.22,1.66,4.33c1.12,1.12,2.51,1.68,4.18,1.68,1.75,0,3.27-.73,4.56-2.2l1.41,1.36c-.71,.85-1.59,1.52-2.62,1.98-1.04,.47-2.15,.7-3.34,.7Z"/>
  <path d="M39.22,404.5v-15.04h5.44c1.19,0,2.21,.39,3.07,1.18,.85,.77,1.28,1.74,1.28,2.92,0,1.48-.68,2.53-2.04,3.13v.08c.77,.25,1.39,.69,1.85,1.31,.46,.62,.69,1.33,.69,2.13,0,1.23-.45,2.25-1.34,3.07-.87,.81-1.94,1.22-3.21,1.22h-5.73Zm1.93-13.19v4.6h3.51c.69,0,1.26-.23,1.72-.69,.46-.48,.69-1.02,.69-1.62s-.22-1.12-.67-1.6c-.45-.46-1-.69-1.66-.69h-3.59Zm0,6.4v4.94h3.89c.7,0,1.29-.24,1.78-.73,.48-.49,.71-1.07,.71-1.74s-.25-1.23-.74-1.72-1.11-.74-1.85-.74h-3.8Z"/>
</svg>