<?xml version="1.0" encoding="UTF-8"?>
<svg id="Layer_1" data-name="Layer 1" xmlns="http://www.w3.org/2000/svg" viewBox="0 0 65 65">
  <g>
    <path d="M39.54,15.57c.86-.01,1.97,.46,2.53-.1,.51-.51,.1-1.6,.16-2.44,.03-.4-.14-.91,.38-1.1,.45-.16,.68,.28,.94,.54,2.27,2.25,4.51,4.53,6.79,6.77,.56,.55,.55,.93,0,1.47-2.31,2.26-4.58,4.56-6.87,6.84-.24,.24-.46,.62-.87,.46-.46-.17-.35-.63-.37-1-.05-.87,.38-2.02-.16-2.54-.58-.56-1.73-.15-2.63-.17-.83-.02-1.93-.27-2.43,.16-.53,.45-.15,1.58-.16,2.41,0,.9-.38,2.06,.15,2.64,.5,.55,1.66,.11,2.53,.17,.38,.02,.84-.09,1.02,.35,.18,.46-.26,.69-.52,.95-2.25,2.27-4.53,4.51-6.77,6.79-.53,.54-.91,.61-1.47,.03-2.26-2.31-4.56-4.58-6.84-6.87-.25-.25-.69-.48-.45-.95,.2-.39,.6-.29,.94-.3,.87-.03,2.03,.28,2.54-.16,.6-.52,.16-1.71,.19-2.61,.03-.84,.29-1.95-.14-2.44-.5-.57-1.65-.15-2.51-.18-.87-.03-2.01-.29-2.55,.14-.58,.47-.12,1.65-.19,2.52-.03,.37,.11,.83-.33,1.03-.47,.21-.69-.23-.95-.49-2.29-2.28-4.57-4.58-6.87-6.84-.52-.51-.51-.89,0-1.4,2.33-2.29,4.63-4.61,6.94-6.92,.24-.23,.46-.61,.88-.41,.4,.19,.31,.59,.33,.93,0,.07,0,.14,0,.21,.07,.83-.38,1.97,.19,2.41,.52,.42,1.61,.16,2.45,.14,.9-.03,2.09,.4,2.61-.19,.44-.5,.17-1.67,.13-2.54-.03-.86,.4-2.01-.19-2.5-.5-.42-1.61-.12-2.44-.16-.37-.01-.82,.12-1.04-.31-.24-.47,.2-.7,.45-.95,2.28-2.29,4.58-4.56,6.84-6.87,.57-.58,.95-.49,1.47,.04,2.24,2.28,4.52,4.53,6.77,6.79,.26,.26,.7,.49,.51,.95-.18,.45-.64,.32-1.02,.35-.87,.06-2-.38-2.54,.17-.52,.54-.15,1.67-.14,2.54,0,.87-.4,2.06,.16,2.51,.52,.43,1.67,.09,2.53,.09Z"/>
    <path d="M26.25,30.78c.51,0,.71,0,.91,0,2.48,0,2.07,.2,2.09-2.16,.02-1.51-.02-3.02,.01-4.53,.01-.62-.2-.89-.85-.88-1.93,.03-3.86,.03-5.79,0-.69-.01-.95,.26-.93,.93,.02,.59,0,1.19,0,2.05-.8-.8-1.45-1.45-2.1-2.1-1.22-1.22-2.43-2.43-3.65-3.65-.23-.23-.57-.39-.14-.81,1.92-1.88,3.8-3.8,5.89-5.9,0,.89,.01,1.5,0,2.12-.01,.59,.18,.9,.85,.9,1.97-.03,3.93-.02,5.9,0,.58,0,.83-.2,.82-.8-.02-1.97-.02-3.93,0-5.9,0-.65-.26-.89-.87-.87-.62,.02-1.24,0-2.15,0,2.12-2.11,4.06-4.02,5.97-5.94,.32-.32,.46-.1,.66,.1,1.89,1.88,3.78,3.75,5.88,5.84-.86,0-1.47,.02-2.07,0-.64-.02-.96,.18-.95,.9,.03,1.93,.03,3.86,0,5.79,0,.62,.2,.89,.85,.88,1.93-.03,3.86-.03,5.79,0,.69,.01,.95-.26,.93-.93-.02-.59,0-1.19,0-2.05,.8,.8,1.45,1.45,2.1,2.1,1.22,1.22,2.43,2.43,3.65,3.65,.23,.23,.57,.39,.14,.81-1.92,1.88-3.8,3.8-5.89,5.89,0-.88-.01-1.49,0-2.1,.01-.59-.18-.91-.85-.9-1.97,.03-3.93,.02-5.9,0-.58,0-.83,.2-.82,.8,.02,1.97,.02,3.93,0,5.9,0,.65,.26,.89,.87,.87,.62-.02,1.24,0,2.15,0-2.12,2.11-4.06,4.02-5.97,5.94-.32,.32-.46,.1-.66-.1-1.89-1.88-3.78-3.75-5.88-5.84Z" style="fill: #fefefe;"/>
  </g>
  <g>
    <path d="M18.61,52.9h-1.23v-9.6h1.23l3.34,5.85h.05l3.34-5.85h1.23v9.6h-1.23v-5.7l.05-1.61h-.05l-3,5.27h-.72l-3-5.27h-.05l.05,1.61v5.7Z"/>
    <path d="M27.92,49.62c0-1.01,.32-1.85,.95-2.51,.64-.66,1.45-.99,2.43-.99s1.78,.33,2.41,.99c.64,.66,.96,1.5,.96,2.51s-.32,1.86-.96,2.51c-.64,.66-1.44,.99-2.41,.99s-1.78-.33-2.43-.99c-.63-.66-.95-1.5-.95-2.51Zm1.23,0c0,.71,.21,1.28,.62,1.72,.41,.44,.92,.66,1.53,.66s1.12-.22,1.53-.66c.41-.44,.62-1.01,.62-1.72s-.21-1.26-.62-1.7c-.42-.45-.93-.67-1.53-.67s-1.11,.22-1.53,.67c-.41,.44-.62,1.01-.62,1.7Z"/>
    <path d="M38.86,52.9h-1.23l-2.66-6.57h1.34l1.93,5.1h.03l1.96-5.1h1.31l-2.68,6.57Z"/>
    <path d="M45.1,53.12c-.97,0-1.76-.33-2.39-.99-.63-.66-.94-1.5-.94-2.51s.3-1.83,.91-2.5c.61-.67,1.39-1,2.33-1s1.75,.32,2.33,.95c.58,.63,.87,1.51,.87,2.65v.13h-5.18c.02,.64,.23,1.16,.64,1.56,.41,.39,.9,.59,1.48,.59,.79,0,1.4-.39,1.85-1.18l1.1,.54c-.29,.55-.7,.99-1.23,1.3-.52,.31-1.12,.47-1.78,.47Zm-1.97-4.29h3.77c-.04-.46-.22-.83-.56-1.13-.33-.3-.78-.45-1.35-.45-.46,0-.87,.14-1.2,.43s-.56,.67-.66,1.15Z"/>
  </g>
</svg>