<?xml version="1.0" encoding="UTF-8"?>
<svg id="Layer_1" data-name="Layer 1" xmlns="http://www.w3.org/2000/svg" viewBox="0 0 65 65">
  <g>
    <path d="M6.89,50.49c0,.79-.29,1.43-.87,1.91-.59,.47-1.31,.71-2.15,.71-.75,0-1.41-.22-1.99-.66-.57-.44-.97-1.04-1.19-1.8l1.11-.46c.08,.27,.18,.51,.32,.73,.13,.22,.29,.41,.47,.56,.18,.16,.38,.28,.6,.37,.22,.09,.45,.13,.7,.13,.53,0,.97-.14,1.3-.41,.34-.27,.51-.64,.51-1.09,0-.38-.14-.7-.42-.97-.26-.26-.75-.51-1.47-.76-.73-.26-1.18-.44-1.35-.53-.96-.49-1.44-1.21-1.44-2.16,0-.67,.27-1.24,.8-1.71,.54-.47,1.2-.71,1.99-.71,.69,0,1.29,.18,1.8,.53,.51,.35,.84,.78,1.01,1.3l-1.09,.46c-.1-.34-.3-.62-.6-.84-.3-.22-.66-.33-1.1-.33-.46,0-.84,.13-1.15,.38-.31,.24-.47,.54-.47,.92,0,.31,.12,.58,.37,.81,.27,.23,.86,.5,1.76,.81,.92,.31,1.58,.69,1.97,1.15,.39,.45,.59,1.01,.59,1.66Z"/>
    <path d="M8.09,43.84h1.16v2.86l-.05,.86h.05c.18-.3,.45-.56,.82-.76,.37-.2,.75-.3,1.15-.3,.76,0,1.34,.22,1.75,.65s.61,1.05,.61,1.85v3.9h-1.16v-3.67c0-1.11-.49-1.67-1.48-1.67-.47,0-.87,.2-1.2,.59-.33,.39-.49,.85-.49,1.37v3.38h-1.16v-9.06Z"/>
    <path d="M14.6,49.8c0-.95,.3-1.74,.9-2.37,.61-.62,1.37-.94,2.29-.94s1.68,.31,2.28,.94c.61,.62,.91,1.41,.91,2.37s-.3,1.75-.91,2.37c-.6,.62-1.36,.94-2.28,.94s-1.68-.31-2.29-.94c-.6-.62-.9-1.41-.9-2.37Zm1.16,0c0,.67,.19,1.21,.58,1.62,.39,.41,.87,.62,1.44,.62s1.05-.21,1.44-.62c.39-.41,.58-.95,.58-1.62s-.19-1.19-.58-1.61c-.4-.42-.88-.63-1.44-.63s-1.05,.21-1.44,.63c-.39,.41-.58,.95-.58,1.61Z"/>
    <path d="M30.7,46.7l-2,6.2h-1.19l-1.54-4.76-1.53,4.76h-1.18l-2-6.2h1.21l1.38,4.68h.01l1.53-4.68h1.2l1.53,4.68h.01l1.37-4.68h1.19Z"/>
    <path d="M35.51,54.42h-1.06v-11.54h1.06v11.54Z"/>
    <path d="M41.28,52.9h-1.17v-9.06h1.17v3.89h4.53v-3.89h1.17v9.06h-1.17v-4.09h-4.53v4.09Z"/>
    <path d="M50.1,44.56c0,.23-.08,.42-.24,.58-.16,.16-.35,.24-.58,.24s-.42-.08-.58-.24c-.16-.16-.24-.35-.24-.58s.08-.42,.24-.58c.16-.16,.35-.24,.58-.24s.42,.08,.58,.24,.24,.35,.24,.58Zm-.24,2.14v6.2h-1.16v-6.2h1.16Z"/>
    <path d="M53.91,53.11c-.81,0-1.51-.32-2.09-.96-.57-.65-.86-1.43-.86-2.34s.29-1.69,.86-2.34c.58-.64,1.28-.96,2.09-.96,.46,0,.87,.1,1.25,.29,.38,.19,.66,.45,.87,.77h.05l-.05-.86v-2.86h1.16v9.06h-1.11v-.86h-.05c-.2,.32-.49,.58-.87,.77-.38,.19-.79,.29-1.25,.29Zm.19-1.06c.57,0,1.04-.21,1.41-.62,.38-.41,.57-.95,.57-1.62s-.19-1.19-.57-1.61c-.37-.42-.84-.63-1.41-.63s-1.02,.21-1.4,.63-.57,.96-.57,1.61,.19,1.19,.57,1.61c.38,.42,.85,.63,1.4,.63Z"/>
    <path d="M61.33,53.11c-.91,0-1.66-.31-2.25-.94-.59-.62-.89-1.41-.89-2.37s.29-1.73,.86-2.36c.57-.63,1.31-.94,2.2-.94s1.65,.3,2.2,.89c.54,.59,.82,1.43,.82,2.5v.13h-4.89c.02,.61,.22,1.1,.61,1.47,.39,.37,.85,.56,1.39,.56,.74,0,1.33-.37,1.75-1.11l1.04,.51c-.28,.52-.67,.93-1.16,1.23-.49,.29-1.05,.44-1.68,.44Zm-1.86-4.05h3.56c-.03-.43-.21-.79-.53-1.07-.32-.28-.74-.42-1.27-.42-.44,0-.82,.13-1.13,.41s-.53,.63-.63,1.09Z"/>
  </g>
  <path d="M53.91,20.02s0-.06-.01-.08c0-.01,0-.03-.01-.05,0-.02,0-.04-.02-.06v-.03h-.01v-.03h-.01v-.02s-.04-.08-.07-.12c-.01-.02-.03-.04-.05-.07,0-.01-.02-.03-.03-.04-.05-.05-4.58-5.11-11.23-8.24l2.59-2.59c.32-.32,.33-.85,0-1.18-.32-.32-.85-.33-1.18,0l-3.05,3.05c-2.83-1.13-5.63-1.7-8.33-1.7-11.61,0-21.11,10.54-21.2,10.65h0s-.03,.04-.04,.05c-.02,.03-.04,.05-.04,.06,0,.01-.02,.03-.03,.04-.01,.02-.02,.04-.03,.07v.03l-.03,.04s-.02,.07-.02,.1c0,.01,0,.05-.01,.07,0,.03,0,.06,0,.09,0,.03,0,.05,0,.08,0,.01,0,.05,0,.06,0,.03,.01,.06,.03,.11v.04s.04,.07,.06,.1l.02,.03s.03,.05,.04,.07c.02,.02,.03,.04,.05,.06h0c.05,.06,4.61,5.12,11.23,8.24l-2.59,2.59c-.16,.16-.24,.37-.24,.59s.09,.43,.24,.59c.16,.16,.37,.25,.59,.25s.43-.09,.59-.24l3.05-3.05c2.83,1.13,5.63,1.7,8.33,1.7,11.61,0,21.11-10.54,21.2-10.64,.01-.02,.03-.03,.04-.05,.02-.02,.03-.04,.04-.05,.03-.04,.05-.08,.06-.12h0v-.02l.02-.03s0-.03,.01-.04v-.04s.02-.03,.02-.04c0-.03,.01-.07,.01-.08,0-.02,0-.07,0-.09,0-.02,0-.05,0-.07Zm-.52,.05h0Zm-35.26,4.31c1.94,.8,4.23,1.56,6.8,2.11l-1.15,1.15c-2.11-.94-4.02-2.1-5.65-3.26Zm28.91-8.44c-2.29-.98-4.63-1.72-6.98-2.23l1.15-1.15c2.18,.97,4.15,2.18,5.82,3.38Zm-19.52-1c3.03-.44,6.08-.48,9.08-.12l-9.72,9.72c-1-1.27-1.55-2.82-1.55-4.44,0-1.94,.79-3.8,2.19-5.15Zm9.96,10.31c-2.99,.44-6.04,.47-9.07,.11l9.72-9.72c1,1.27,1.55,2.83,1.55,4.45,0,1.93-.8,3.81-2.2,5.16Zm3.86-5.16c0-1.67-.47-3.29-1.35-4.7,3.92,.87,7.79,2.45,11.51,4.7-3.73,2.25-7.59,3.82-11.51,4.7,.88-1.4,1.35-3.03,1.35-4.7Zm-3.26-6.76c-3.78-.59-7.63-.58-11.45,.05-3.26,.53-6.14,1.45-8.5,2.43,3.67-2.61,8.78-5.26,14.37-5.26,2.27,0,4.63,.44,7.04,1.32l-1.46,1.46Zm-13.06,2.06c-.88,1.4-1.35,3.03-1.35,4.7s.47,3.3,1.35,4.7c-5.63-1.23-9.78-3.54-11.61-4.7,1.83-1.16,5.97-3.47,11.61-4.7Zm1.91,11.45c3.81,.59,7.69,.58,11.44-.04,2.92-.48,5.83-1.34,8.68-2.55-3.71,2.67-8.87,5.38-14.55,5.38-2.27,0-4.63-.44-7.04-1.32l1.46-1.46Z" style="fill: #231f20;"/>
</svg>