<?xml version="1.0" encoding="UTF-8"?>
<svg id="Layer_1" data-name="Layer 1" xmlns="http://www.w3.org/2000/svg" viewBox="0 0 65 65">
  <g>
    <path d="M14.37,19.95c0-9.75,7.92-17.69,17.65-17.58,5.18,.05,9.58,2.03,13.05,5.91,.58,.65,.88,.71,1.43,.03,.53-.64,1.17-1.19,1.75-1.78,.25-.25,.49-.49,.88-.37,.38,.11,.35,.45,.39,.74,.36,3.39,.72,6.78,1.09,10.17,.08,.74-.18,1.06-.95,.97-3.39-.37-6.78-.72-10.17-1.08-.29-.03-.63,0-.76-.36-.14-.4,.1-.64,.35-.89,.83-.83,1.62-1.71,2.51-2.48,.55-.48,.47-.8,.04-1.27-3.46-3.87-7.75-5.41-12.79-4.12-4.93,1.26-8.1,4.56-9.14,9.55-1.07,5.13,.59,9.5,4.8,12.63,4.17,3.1,8.72,3.32,13.38,1,1.45-.72,2.55-.65,3.43,.27,.75,.78,.91,1.99,.4,2.94-.26,.49-.66,.81-1.13,1.08-10.49,6.09-24.25-.61-26-12.64-.13-.91-.2-1.81-.2-2.72Z"/>
    <path d="M48.48,7.9c.3,2.93,.56,5.57,.87,8.2,.08,.65-.07,.77-.69,.7-2.63-.31-5.27-.58-8.17-1.14,.81-.71,1.61-1.43,2.44-2.13,.56-.47,.64-.89,.2-1.54-2.95-4.26-8.76-6.6-13.79-5.5-5.68,1.24-9.96,5.54-10.85,10.91-1.42,8.51,4.46,15.87,13.08,16.27,2.42,.11,4.73-.49,6.88-1.64,1.08-.58,1.87-.45,2.24,.38,.43,.97-.09,1.54-.92,2-9.7,5.41-22.36-.78-24-11.75-1.36-9.09,4.31-17.28,13.34-18.87,6.29-1.11,11.56,1.04,15.69,5.92,.89,1.06,.87,1.09,1.88,.06,.55-.56,1.1-1.13,1.82-1.88Z" style="fill: #fefefe;"/>
  </g>
  <g>
    <path d="M15.64,52.9h-1.23v-9.6h3.27c.83,0,1.54,.27,2.13,.82,.58,.55,.88,1.23,.88,2.03,0,.66-.22,1.25-.65,1.76-.43,.51-.98,.84-1.64,.99l-.03,.04,2.7,3.9v.05h-1.46l-2.59-3.89h-1.37v3.89Zm0-8.42v3.38h1.98c.5,0,.93-.16,1.27-.49,.35-.33,.52-.73,.52-1.21,0-.45-.16-.84-.49-1.17s-.74-.5-1.23-.5h-2.07Z"/>
    <path d="M21.44,49.62c0-1.01,.32-1.85,.95-2.51,.64-.66,1.45-.99,2.43-.99s1.78,.33,2.41,.99c.64,.66,.96,1.5,.96,2.51s-.32,1.86-.96,2.51c-.64,.66-1.44,.99-2.41,.99s-1.78-.33-2.43-.99c-.63-.66-.95-1.5-.95-2.51Zm1.23,0c0,.71,.21,1.28,.62,1.72,.41,.44,.92,.66,1.53,.66s1.12-.22,1.53-.66c.41-.44,.62-1.01,.62-1.72s-.21-1.26-.62-1.7c-.42-.45-.93-.67-1.53-.67s-1.11,.22-1.53,.67c-.41,.44-.62,1-.62,1.7Z"/>
    <path d="M31.72,53.01c-.54,0-.98-.17-1.33-.5-.35-.33-.53-.79-.54-1.38v-3.67h-1.15v-1.13h1.15v-2.01h1.23v2.01h1.61v1.13h-1.61v3.27c0,.44,.08,.74,.25,.89,.17,.16,.36,.24,.58,.24,.1,0,.19-.01,.29-.03,.09-.02,.18-.05,.26-.09l.39,1.1c-.32,.12-.7,.17-1.13,.17Z"/>
    <path d="M36.23,46.12c.91,0,1.63,.24,2.16,.73s.79,1.16,.79,2v4.05h-1.18v-.91h-.05c-.51,.75-1.19,1.13-2.04,1.13-.72,0-1.33-.21-1.82-.64-.49-.43-.73-.96-.73-1.61,0-.68,.26-1.22,.77-1.62s1.2-.6,2.06-.6c.73,0,1.34,.13,1.81,.4v-.28c0-.43-.17-.79-.51-1.09-.34-.3-.74-.45-1.19-.45-.69,0-1.23,.29-1.64,.87l-1.09-.68c.6-.86,1.48-1.29,2.66-1.29Zm-1.6,4.77c0,.32,.14,.59,.41,.8,.27,.21,.59,.32,.96,.32,.52,0,.98-.19,1.39-.58,.41-.38,.61-.84,.61-1.35-.38-.3-.92-.46-1.61-.46-.5,0-.92,.12-1.25,.36s-.5,.54-.5,.9Z"/>
    <path d="M43.04,53.01c-.54,0-.98-.17-1.33-.5-.35-.33-.53-.79-.54-1.38v-3.67h-1.15v-1.13h1.15v-2.01h1.23v2.01h1.61v1.13h-1.61v3.27c0,.44,.08,.74,.25,.89,.17,.16,.36,.24,.58,.24,.1,0,.19-.01,.29-.03,.09-.02,.18-.05,.26-.09l.39,1.1c-.32,.12-.7,.17-1.13,.17Z"/>
    <path d="M48.07,53.12c-.97,0-1.76-.33-2.39-.99-.63-.66-.94-1.5-.94-2.51s.3-1.83,.91-2.5c.61-.67,1.39-1,2.33-1s1.75,.32,2.33,.95c.58,.63,.87,1.51,.87,2.65v.13h-5.18c.02,.64,.23,1.16,.64,1.56s.9,.59,1.48,.59c.79,0,1.4-.39,1.85-1.18l1.1,.54c-.29,.55-.7,.99-1.23,1.3-.52,.31-1.12,.47-1.78,.47Zm-1.97-4.29h3.77c-.04-.46-.22-.83-.56-1.13s-.78-.45-1.35-.45c-.46,0-.87,.14-1.2,.43-.33,.29-.56,.67-.66,1.15Z"/>
  </g>
</svg>