<?xml version="1.0" encoding="UTF-8"?>
<svg id="Layer_1" data-name="Layer 1" xmlns="http://www.w3.org/2000/svg" viewBox="0 0 65 65">
  <path d="M53.87,19.85s-.01-.05-.02-.06c-.03-.06-.06-.12-.1-.18-.01-.02-.03-.04-.05-.06-.09-.11-9.58-10.65-21.2-10.65S11.39,19.44,11.3,19.54h-.01c-.06,.08-.1,.16-.14,.24v.03c-.04,.08-.06,.16-.06,.26v.04c0,.09,.02,.19,.05,.29,.03,.08,.07,.15,.11,.21,.01,.02,.02,.03,.04,.04h0c.09,.11,9.6,10.66,21.2,10.66s21.11-10.54,21.2-10.64c.01-.02,.03-.03,.04-.05,.02-.02,.03-.04,.04-.06,.03-.05,.06-.1,.08-.16h0s0-.03,.01-.04c.02-.07,.04-.14,.04-.22,0-.02,0-.04,0-.05,0-.08-.02-.16-.04-.24Zm-21.37,6.46c-3.81,0-6.9-3.1-6.9-6.9,0-1.62,.56-3.18,1.59-4.41l.46-.07c.1-.01,.2-.03,.3-.04l.4-.05c.1-.01,.19-.02,.29-.03l.19-.02c.07,0,.14-.02,.22-.02,.1,0,.19-.02,.29-.03l.41-.04c.1,0,.2-.01,.29-.02l.41-.03c.1,0,.19-.01,.29-.01h.21c.07-.01,.14-.02,.2-.02,.1,0,.2,0,.29,0h.4c.13-.01,.27-.02,.4-.02h.06c.16,0,.33,0,.5,0h.1c.11,0,.22,0,.32,0,.07,0,.14,0,.21,0h.23c.08,0,.17,.01,.25,.01,.07,0,.15,0,.22,.01h.21c.09,.01,.18,.02,.26,.02,.07,0,.15,0,.22,.01h.2c.09,.02,.18,.03,.27,.03,.07,0,.14,.01,.22,.02l.19,.02c.09,0,.19,.02,.28,.03l.38,.04c.1,.01,.21,.02,.31,.04l.39,.05c.1,.01,.2,.03,.3,.04l.34,.05,.1,.02c1.03,1.24,1.6,2.8,1.6,4.42,0,3.81-3.1,6.9-6.9,6.9Zm5.87-12.92c-.24-.04-.48-.08-.73-.11-1.69-.24-3.39-.37-5.1-.37-1.87,0-3.75,.15-5.62,.44l-.11,.02c-.06,0-.13,.02-.19,.03-3.26,.53-6.13,1.45-8.5,2.43,3.67-2.61,8.78-5.26,14.37-5.26s10.84,2.71,14.55,5.38c-2.85-1.22-5.75-2.07-8.68-2.56Zm-13.46,2.03c-.64,1.22-.98,2.58-.98,3.98,0,4.73,3.85,8.57,8.57,8.57s8.57-3.85,8.57-8.57c0-1.4-.34-2.76-.98-3.98,3.98,.9,7.9,2.52,11.67,4.84-2.34,2.33-10.14,9.37-19.27,9.37s-16.98-7.08-19.3-9.4c1.73-1.12,5.92-3.53,11.71-4.81Z" style="fill: #231f20;"/>
  <g>
    <path d="M6.89,50.49c0,.79-.29,1.43-.87,1.91-.59,.47-1.31,.71-2.15,.71-.75,0-1.41-.22-1.99-.66-.57-.44-.97-1.04-1.19-1.8l1.11-.46c.08,.27,.18,.51,.32,.73,.13,.22,.29,.41,.47,.56,.18,.16,.38,.28,.6,.37,.22,.09,.45,.13,.7,.13,.53,0,.97-.14,1.3-.41,.34-.27,.51-.64,.51-1.09,0-.38-.14-.7-.42-.97-.26-.26-.75-.51-1.47-.76-.73-.26-1.18-.44-1.35-.53-.96-.49-1.44-1.21-1.44-2.16,0-.67,.27-1.24,.8-1.71,.54-.47,1.2-.71,1.99-.71,.69,0,1.29,.18,1.8,.53,.51,.35,.84,.78,1.01,1.3l-1.09,.46c-.1-.34-.3-.62-.6-.84-.3-.22-.66-.33-1.1-.33-.46,0-.84,.13-1.15,.38-.31,.24-.47,.54-.47,.92,0,.31,.12,.58,.37,.81,.27,.23,.86,.5,1.76,.81,.92,.31,1.58,.69,1.97,1.15,.39,.45,.59,1.01,.59,1.66Z"/>
    <path d="M8.09,43.84h1.16v2.86l-.05,.86h.05c.18-.3,.45-.56,.82-.76,.37-.2,.75-.3,1.15-.3,.76,0,1.34,.22,1.75,.65s.61,1.05,.61,1.85v3.9h-1.16v-3.67c0-1.11-.49-1.67-1.48-1.67-.47,0-.87,.2-1.2,.59-.33,.39-.49,.85-.49,1.37v3.38h-1.16v-9.06Z"/>
    <path d="M14.6,49.8c0-.95,.3-1.74,.9-2.37,.61-.62,1.37-.94,2.29-.94s1.68,.31,2.28,.94c.61,.62,.91,1.41,.91,2.37s-.3,1.75-.91,2.37c-.6,.62-1.36,.94-2.28,.94s-1.68-.31-2.29-.94c-.6-.62-.9-1.41-.9-2.37Zm1.16,0c0,.67,.19,1.21,.58,1.62,.39,.41,.87,.62,1.44,.62s1.05-.21,1.44-.62c.39-.41,.58-.95,.58-1.62s-.19-1.19-.58-1.61c-.4-.42-.88-.63-1.44-.63s-1.05,.21-1.44,.63c-.39,.41-.58,.95-.58,1.61Z"/>
    <path d="M30.7,46.7l-2,6.2h-1.19l-1.54-4.76-1.53,4.76h-1.18l-2-6.2h1.21l1.38,4.68h.01l1.53-4.68h1.2l1.53,4.68h.01l1.37-4.68h1.19Z"/>
    <path d="M35.51,54.42h-1.06v-11.54h1.06v11.54Z"/>
    <path d="M41.28,52.9h-1.17v-9.06h1.17v3.89h4.53v-3.89h1.17v9.06h-1.17v-4.09h-4.53v4.09Z"/>
    <path d="M50.1,44.56c0,.23-.08,.42-.24,.58-.16,.16-.35,.24-.58,.24s-.42-.08-.58-.24c-.16-.16-.24-.35-.24-.58s.08-.42,.24-.58c.16-.16,.35-.24,.58-.24s.42,.08,.58,.24,.24,.35,.24,.58Zm-.24,2.14v6.2h-1.16v-6.2h1.16Z"/>
    <path d="M53.91,53.11c-.81,0-1.51-.32-2.09-.96-.57-.65-.86-1.43-.86-2.34s.29-1.69,.86-2.34c.58-.64,1.28-.96,2.09-.96,.46,0,.87,.1,1.25,.29,.38,.19,.66,.45,.87,.77h.05l-.05-.86v-2.86h1.16v9.06h-1.11v-.86h-.05c-.2,.32-.49,.58-.87,.77-.38,.19-.79,.29-1.25,.29Zm.19-1.06c.57,0,1.04-.21,1.41-.62,.38-.41,.57-.95,.57-1.62s-.19-1.19-.57-1.61c-.37-.42-.84-.63-1.41-.63s-1.02,.21-1.4,.63-.57,.96-.57,1.61,.19,1.19,.57,1.61c.38,.42,.85,.63,1.4,.63Z"/>
    <path d="M61.33,53.11c-.91,0-1.66-.31-2.25-.94-.59-.62-.89-1.41-.89-2.37s.29-1.73,.86-2.36c.57-.63,1.31-.94,2.2-.94s1.65,.3,2.2,.89c.54,.59,.82,1.43,.82,2.5v.13h-4.89c.02,.61,.22,1.1,.61,1.47,.39,.37,.85,.56,1.39,.56,.74,0,1.33-.37,1.75-1.11l1.04,.51c-.28,.52-.67,.93-1.16,1.23-.49,.29-1.05,.44-1.68,.44Zm-1.86-4.05h3.56c-.03-.43-.21-.79-.53-1.07-.32-.28-.74-.42-1.27-.42-.44,0-.82,.13-1.13,.41s-.53,.63-.63,1.09Z"/>
  </g>
</svg>