<svg id="Layer_1" data-name="Layer 1" xmlns="http://www.w3.org/2000/svg" viewBox="0 0 300 300"><defs><style>.cls-1,.cls-10,.cls-11,.cls-13,.cls-3,.cls-5{fill:none;}.cls-1,.cls-5{stroke:#662d91;stroke-width:3px;}.cls-1,.cls-13,.cls-3,.cls-5,.cls-7,.cls-8{stroke-linecap:round;stroke-linejoin:round;}.cls-1,.cls-2{opacity:0.2;}.cls-3{stroke:#c69c6d;}.cls-10,.cls-11,.cls-13,.cls-3,.cls-8{stroke-width:2px;}.cls-4{fill:#c69c6d;}.cls-6{fill:#662d91;}.cls-7{fill:#603813;stroke-width:0.75px;}.cls-13,.cls-7,.cls-8{stroke:#603813;}.cls-12,.cls-8{fill:#fff;}.cls-9{opacity:0.3;}.cls-10,.cls-11{stroke:#999;stroke-miterlimit:10;}.cls-11{stroke-dasharray:6 4;}.cls-13{stroke-dasharray:2.82 2.82;}.cls-14{fill:#ccc;}</style></defs><title>const_transform</title><line class="cls-1" x1="34" y1="285" x2="267" y2="-11"/><g class="cls-2"><line class="cls-3" x1="92" y1="137" x2="92" y2="205.03"/><polygon class="cls-4" points="88.3 202.22 92 203.79 95.7 202.22 92 211 88.3 202.22"/></g><g class="cls-2"><line class="cls-3" x1="208.31" y1="137" x2="208.31" y2="68.97"/><polygon class="cls-4" points="212.02 71.78 208.31 70.2 204.61 71.78 208.31 63 212.02 71.78"/></g><g class="cls-2"><line class="cls-3" x1="266.81" y1="137" x2="266.81" y2="-5.03"/></g><g class="cls-2"><line class="cls-3" x1="34" y1="137" x2="34" y2="279.03"/><polygon class="cls-4" points="30.3 276.22 34 277.8 37.7 276.22 34 285 30.3 276.22"/></g><line class="cls-5" x1="9.2" y1="137.25" x2="291.3" y2="137.25"/><polygon class="cls-6" points="13.42 142.81 11.06 137.25 13.42 131.69 0.25 137.25 13.42 142.81"/><polygon class="cls-6" points="287.08 142.81 289.44 137.25 287.08 131.69 300.25 137.25 287.08 142.81"/><path d="M17.53,124.18a9.13,9.13,0,0,1,.45-2.9,7.14,7.14,0,0,1,1.31-2.38h.95A8.26,8.26,0,0,0,19,121.39a9.32,9.32,0,0,0-.42,2.78,8.88,8.88,0,0,0,.43,2.75,8.72,8.72,0,0,0,1.25,2.45h-.94A7,7,0,0,1,18,127,8.88,8.88,0,0,1,17.53,124.18Z"/><path d="M21.08,124.7v-.89h5v.89Z"/><path d="M32.81,127.47H27.18v-.84l2.26-2.27a16.94,16.94,0,0,0,1.36-1.48,3.87,3.87,0,0,0,.49-.87,2.49,2.49,0,0,0,.17-.91A1.44,1.44,0,0,0,31,120a1.63,1.63,0,0,0-1.16-.4,2.87,2.87,0,0,0-1,.18,3.92,3.92,0,0,0-1.06.64l-.52-.67a4,4,0,0,1,2.58-1,2.75,2.75,0,0,1,1.9.62,2.13,2.13,0,0,1,.68,1.66,3.16,3.16,0,0,1-.46,1.61,10.16,10.16,0,0,1-1.71,2l-1.87,1.83v0h4.4Z"/><path d="M35.51,126.07l.09.14c-.1.39-.25.84-.44,1.36s-.39,1-.6,1.45h-.73c.1-.41.22-.91.35-1.51s.21-1.08.26-1.44Z"/><path d="M42.78,122.24a3.14,3.14,0,0,1,2.13.67,2.28,2.28,0,0,1,.78,1.83,2.64,2.64,0,0,1-.85,2.09,3.38,3.38,0,0,1-2.33.76,4.25,4.25,0,0,1-2.21-.47v-.93a3.44,3.44,0,0,0,1,.41,4.93,4.93,0,0,0,1.2.15,2.36,2.36,0,0,0,1.6-.49,1.73,1.73,0,0,0,.57-1.4c0-1.2-.73-1.8-2.2-1.8a9,9,0,0,0-1.48.17l-.51-.32.32-4h4.26v.9H41.66l-.22,2.57A6.83,6.83,0,0,1,42.78,122.24Z"/><path d="M49.45,124.18a8.86,8.86,0,0,1-.45,2.87,7,7,0,0,1-1.31,2.32h-.94A8.59,8.59,0,0,0,48,126.92a8.88,8.88,0,0,0,.43-2.75,9,9,0,0,0-.43-2.78,8.23,8.23,0,0,0-1.26-2.49h.95A7.34,7.34,0,0,1,49,121.28,9.17,9.17,0,0,1,49.45,124.18Z"/><path d="M75.86,124.18a9.13,9.13,0,0,1,.45-2.9,7.32,7.32,0,0,1,1.31-2.38h.95a8.23,8.23,0,0,0-1.26,2.49,9,9,0,0,0-.43,2.78,8.88,8.88,0,0,0,.43,2.75,8.72,8.72,0,0,0,1.25,2.45h-.94A7,7,0,0,1,76.31,127,8.88,8.88,0,0,1,75.86,124.18Z"/><path d="M79.41,124.7v-.89h5v.89Z"/><path d="M89.12,127.47h-1v-6.11c0-.5,0-1,0-1.44l-.28.26c-.1.09-.56.47-1.39,1.14l-.52-.67,2.27-1.75h.82Z"/><path d="M93.84,126.07l.09.14c-.1.39-.25.84-.44,1.36s-.39,1-.6,1.45h-.73c.11-.41.22-.91.35-1.51s.22-1.08.27-1.44Z"/><path d="M101.11,122.24a3.11,3.11,0,0,1,2.13.67,2.28,2.28,0,0,1,.78,1.83,2.64,2.64,0,0,1-.85,2.09,3.38,3.38,0,0,1-2.33.76,4.27,4.27,0,0,1-2.21-.47v-.93a3.44,3.44,0,0,0,1,.41,5.06,5.06,0,0,0,1.2.15,2.36,2.36,0,0,0,1.6-.49,1.73,1.73,0,0,0,.57-1.4q0-1.8-2.19-1.8a9.12,9.12,0,0,0-1.49.17l-.5-.32.32-4h4.26v.9H100l-.22,2.57A6.83,6.83,0,0,1,101.11,122.24Z"/><path d="M107.78,124.18a8.86,8.86,0,0,1-.45,2.87,6.86,6.86,0,0,1-1.31,2.32h-.94a8.59,8.59,0,0,0,1.25-2.45,8.88,8.88,0,0,0,.43-2.75,9.32,9.32,0,0,0-.42-2.78,8.26,8.26,0,0,0-1.27-2.49h1a7.34,7.34,0,0,1,1.31,2.38A9.17,9.17,0,0,1,107.78,124.18Z"/><path d="M143.19,155.18a9.13,9.13,0,0,1,.46-2.9A7.14,7.14,0,0,1,145,149.9h.95a8,8,0,0,0-1.27,2.49,9,9,0,0,0-.43,2.78,8.89,8.89,0,0,0,.44,2.75,8.47,8.47,0,0,0,1.25,2.45H145a6.83,6.83,0,0,1-1.31-2.33A8.62,8.62,0,0,1,143.19,155.18Z"/><path d="M152.53,154.17a6.34,6.34,0,0,1-.7,3.32,2.58,2.58,0,0,1-4.25,0,6.11,6.11,0,0,1-.72-3.29,6.19,6.19,0,0,1,.7-3.32,2.59,2.59,0,0,1,4.24.05A6,6,0,0,1,152.53,154.17Zm-4.68,0a6.2,6.2,0,0,0,.44,2.73,1.58,1.58,0,0,0,2.81,0,8.72,8.72,0,0,0,0-5.41,1.49,1.49,0,0,0-1.41-.86,1.46,1.46,0,0,0-1.4.85A6.1,6.1,0,0,0,147.85,154.17Z"/><path d="M155.18,157.07l.08.14c-.1.39-.24.84-.43,1.36s-.4,1-.6,1.45h-.73c.1-.41.22-.91.34-1.51s.22-1.08.27-1.44Z"/><path d="M162.45,153.24a3.14,3.14,0,0,1,2.13.67,2.27,2.27,0,0,1,.77,1.83,2.66,2.66,0,0,1-.84,2.09,3.41,3.41,0,0,1-2.34.76,4.3,4.3,0,0,1-2.21-.47v-.93a3.68,3.68,0,0,0,1,.41,5.06,5.06,0,0,0,1.2.15,2.38,2.38,0,0,0,1.61-.49,1.73,1.73,0,0,0,.57-1.4c0-1.2-.73-1.8-2.2-1.8a9.12,9.12,0,0,0-1.49.17l-.5-.32.32-4h4.26v.9h-3.43l-.21,2.57A6.76,6.76,0,0,1,162.45,153.24Z"/><path d="M169.12,155.18a8.86,8.86,0,0,1-.46,2.87,6.86,6.86,0,0,1-1.31,2.32h-.93a8.57,8.57,0,0,0,1.24-2.45,8.89,8.89,0,0,0,.44-2.75,9,9,0,0,0-.43-2.78,8,8,0,0,0-1.27-2.49h.95a7.37,7.37,0,0,1,1.32,2.38A9.17,9.17,0,0,1,169.12,155.18Z"/><path d="M194.53,155.18a9.13,9.13,0,0,1,.45-2.9,7.14,7.14,0,0,1,1.31-2.38h1a8.26,8.26,0,0,0-1.27,2.49,9.32,9.32,0,0,0-.42,2.78,8.88,8.88,0,0,0,.43,2.75,8.72,8.72,0,0,0,1.25,2.45h-.94A7,7,0,0,1,195,158,8.88,8.88,0,0,1,194.53,155.18Z"/><path d="M201.79,158.47h-.95v-6.11c0-.5,0-1,0-1.44l-.27.26-1.4,1.14-.51-.67L201,149.9h.82Z"/><path d="M206.51,157.07l.09.14c-.1.39-.25.84-.44,1.36s-.39,1-.6,1.45h-.73c.1-.41.22-.91.35-1.51s.21-1.08.26-1.44Z"/><path d="M213.78,153.24a3.14,3.14,0,0,1,2.13.67,2.28,2.28,0,0,1,.78,1.83,2.64,2.64,0,0,1-.85,2.09,3.38,3.38,0,0,1-2.33.76,4.25,4.25,0,0,1-2.21-.47v-.93a3.44,3.44,0,0,0,1,.41,4.93,4.93,0,0,0,1.2.15,2.36,2.36,0,0,0,1.6-.49,1.73,1.73,0,0,0,.57-1.4c0-1.2-.73-1.8-2.2-1.8a9,9,0,0,0-1.48.17l-.51-.32.32-4h4.26v.9h-3.42l-.22,2.57A6.83,6.83,0,0,1,213.78,153.24Z"/><path d="M220.45,155.18a8.86,8.86,0,0,1-.45,2.87,7,7,0,0,1-1.31,2.32h-.94a8.59,8.59,0,0,0,1.25-2.45,8.88,8.88,0,0,0,.43-2.75,9,9,0,0,0-.43-2.78,8.23,8.23,0,0,0-1.26-2.49h.95a7.34,7.34,0,0,1,1.31,2.38A9.17,9.17,0,0,1,220.45,155.18Z"/><circle class="cls-7" cx="33.88" cy="137.25" r="4.5"/><circle class="cls-7" cx="208.31" cy="137" r="4.5"/><circle class="cls-7" cx="92.06" cy="137" r="4.5"/><circle class="cls-8" cx="150.25" cy="137" r="4.5"/><circle class="cls-7" cx="266.81" cy="137" r="4.5"/><path d="M253.53,155.18a9.13,9.13,0,0,1,.45-2.9,7.14,7.14,0,0,1,1.31-2.38h1a8.26,8.26,0,0,0-1.27,2.49,9.32,9.32,0,0,0-.42,2.78,8.88,8.88,0,0,0,.43,2.75,8.72,8.72,0,0,0,1.25,2.45h-.94A7,7,0,0,1,254,158,8.88,8.88,0,0,1,253.53,155.18Z"/><path d="M262.81,158.47h-5.63v-.84l2.26-2.27a16.94,16.94,0,0,0,1.36-1.48,3.87,3.87,0,0,0,.49-.87,2.49,2.49,0,0,0,.17-.91A1.44,1.44,0,0,0,261,151a1.63,1.63,0,0,0-1.16-.4,2.87,2.87,0,0,0-1,.18,3.92,3.92,0,0,0-1.06.64l-.52-.67a4,4,0,0,1,2.58-1,2.75,2.75,0,0,1,1.9.62,2.13,2.13,0,0,1,.68,1.66,3.16,3.16,0,0,1-.46,1.61,10.16,10.16,0,0,1-1.71,2l-1.87,1.83v0h4.4Z"/><path d="M265.51,157.07l.09.14c-.1.39-.25.84-.44,1.36s-.39,1-.6,1.45h-.73c.1-.41.22-.91.35-1.51s.21-1.08.26-1.44Z"/><path d="M272.78,153.24a3.14,3.14,0,0,1,2.13.67,2.28,2.28,0,0,1,.78,1.83,2.64,2.64,0,0,1-.85,2.09,3.38,3.38,0,0,1-2.33.76,4.25,4.25,0,0,1-2.21-.47v-.93a3.44,3.44,0,0,0,1,.41,4.93,4.93,0,0,0,1.2.15,2.36,2.36,0,0,0,1.6-.49,1.73,1.73,0,0,0,.57-1.4c0-1.2-.73-1.8-2.2-1.8a9,9,0,0,0-1.48.17l-.51-.32.32-4h4.26v.9h-3.42l-.22,2.57A6.83,6.83,0,0,1,272.78,153.24Z"/><path d="M279.45,155.18a8.86,8.86,0,0,1-.45,2.87,7,7,0,0,1-1.31,2.32h-.94a8.59,8.59,0,0,0,1.25-2.45,8.88,8.88,0,0,0,.43-2.75,9,9,0,0,0-.43-2.78,8.23,8.23,0,0,0-1.26-2.49h.95a7.34,7.34,0,0,1,1.31,2.38A9.17,9.17,0,0,1,279.45,155.18Z"/><g class="cls-9"><line class="cls-10" x1="300" y1="211" x2="297" y2="211"/><line class="cls-11" x1="293" y1="211" x2="5" y2="211"/><line class="cls-10" x1="3" y1="211" y2="211"/></g><circle class="cls-12" cx="34" cy="285" r="4.5"/><circle class="cls-13" cx="34" cy="285" r="4.5"/><circle class="cls-12" cx="92" cy="211" r="4.5"/><circle class="cls-13" cx="92" cy="211" r="4.5"/><circle class="cls-12" cx="208.31" cy="64" r="4.5"/><circle class="cls-13" cx="208.31" cy="64" r="4.5"/><path class="cls-14" d="M264.17,222.12l-2.11-3.2h2l1.27,2.08,1.28-2.08h2l-2.13,3.2,2.23,3.35h-2l-1.38-2.25L264,225.47h-2Z"/><path class="cls-14" d="M269.19,223v-1.46h3.14V223Z"/><path class="cls-14" d="M277.79,225.47l-.35-.89h-.05a2.72,2.72,0,0,1-.92.79,3.15,3.15,0,0,1-1.25.22,2,2,0,0,1-1.48-.54,2,2,0,0,1-.55-1.54,1.75,1.75,0,0,1,.73-1.54,4.2,4.2,0,0,1,2.2-.54l1.14,0v-.29a.89.89,0,0,0-1-1,4.79,4.79,0,0,0-1.85.47l-.59-1.2a5.29,5.29,0,0,1,2.51-.6,3.08,3.08,0,0,1,2,.58,2.11,2.11,0,0,1,.71,1.74v4.37Zm-.53-3-.69,0a2.17,2.17,0,0,0-1.16.28.86.86,0,0,0-.38.78c0,.51.29.76.86.76a1.38,1.38,0,0,0,1-.36,1.24,1.24,0,0,0,.37-.95Z"/><path class="cls-14" d="M282.22,222.12l-2.11-3.2h2l1.28,2.08,1.28-2.08h2l-2.14,3.2,2.24,3.35h-2l-1.37-2.25L282,225.47h-2Z"/><path class="cls-14" d="M287.74,217.22c0-.58.32-.87,1-.87s1,.29,1,.87a.85.85,0,0,1-.24.65,1,1,0,0,1-.73.23C288.06,218.1,287.74,217.81,287.74,217.22Zm1.86,8.25h-1.79v-6.55h1.79Z"/><path class="cls-14" d="M296,223.52a1.79,1.79,0,0,1-.7,1.54,3.44,3.44,0,0,1-2.09.53,7,7,0,0,1-1.22-.1,5.41,5.41,0,0,1-.94-.28v-1.48a6.11,6.11,0,0,0,1.12.39,4.35,4.35,0,0,0,1.1.16c.65,0,1-.19,1-.56a.48.48,0,0,0-.13-.35,1.94,1.94,0,0,0-.44-.29,7.17,7.17,0,0,0-.85-.39,6,6,0,0,1-1.11-.59,1.65,1.65,0,0,1-.51-.62,2,2,0,0,1-.16-.86,1.56,1.56,0,0,1,.67-1.35,3.28,3.28,0,0,1,1.92-.48,5.47,5.47,0,0,1,2.3.52l-.53,1.29c-.33-.14-.64-.26-.92-.35a2.93,2.93,0,0,0-.88-.13c-.52,0-.79.14-.79.43a.49.49,0,0,0,.26.41,6.71,6.71,0,0,0,1.11.52,5.46,5.46,0,0,1,1.13.58,1.76,1.76,0,0,1,.53.63A1.92,1.92,0,0,1,296,223.52Z"/><path class="cls-4" d="M47.53,286.18a9.13,9.13,0,0,1,.45-2.9,7.14,7.14,0,0,1,1.31-2.38h1A8.26,8.26,0,0,0,49,283.39a9.32,9.32,0,0,0-.42,2.78,8.88,8.88,0,0,0,.43,2.75,8.72,8.72,0,0,0,1.25,2.45h-.94A7,7,0,0,1,48,289,8.88,8.88,0,0,1,47.53,286.18Z"/><path class="cls-4" d="M51.08,286.7v-.89h5v.89Z"/><path class="cls-4" d="M62.81,289.47H57.18v-.84l2.26-2.27a16.94,16.94,0,0,0,1.36-1.48,3.87,3.87,0,0,0,.49-.87,2.49,2.49,0,0,0,.17-.91A1.44,1.44,0,0,0,61,282a1.63,1.63,0,0,0-1.16-.4,2.87,2.87,0,0,0-1,.18,3.92,3.92,0,0,0-1.06.64l-.52-.67a4,4,0,0,1,2.58-1,2.75,2.75,0,0,1,1.9.62,2.13,2.13,0,0,1,.68,1.66,3.16,3.16,0,0,1-.46,1.61,10.16,10.16,0,0,1-1.71,2l-1.87,1.83v.05h4.4Z"/><path class="cls-4" d="M65.51,288.07l.09.14c-.1.39-.25.84-.44,1.36s-.39,1-.6,1.45h-.73c.1-.41.22-.91.35-1.51s.21-1.08.26-1.44Z"/><path class="cls-4" d="M72.78,284.24a3.14,3.14,0,0,1,2.13.67,2.28,2.28,0,0,1,.78,1.83,2.64,2.64,0,0,1-.85,2.09,3.38,3.38,0,0,1-2.33.76,4.25,4.25,0,0,1-2.21-.47v-.93a3.44,3.44,0,0,0,1,.41,4.93,4.93,0,0,0,1.2.15,2.36,2.36,0,0,0,1.6-.49,1.73,1.73,0,0,0,.57-1.4c0-1.2-.73-1.8-2.2-1.8a9,9,0,0,0-1.48.17l-.51-.32.32-4h4.26v.9H71.66l-.22,2.57A6.83,6.83,0,0,1,72.78,284.24Z"/><path class="cls-4" d="M85,282.58l.57.58-2.07,2.07,2,2.06-.56.59-2.07-2.06-2,2.06-.59-.59,2-2.06-2.06-2.06.58-.59,2.07,2.08Z"/><path class="cls-4" d="M90,286.7v-.89h5v.89Z"/><path class="cls-4" d="M101.69,289.47H96.06v-.84l2.26-2.27a18.79,18.79,0,0,0,1.36-1.48,4.3,4.3,0,0,0,.49-.87,2.49,2.49,0,0,0,.16-.91,1.47,1.47,0,0,0-.41-1.09,1.65,1.65,0,0,0-1.16-.4,2.87,2.87,0,0,0-1,.18,3.77,3.77,0,0,0-1.06.64l-.52-.67a4,4,0,0,1,2.58-1,2.72,2.72,0,0,1,1.89.62,2.11,2.11,0,0,1,.69,1.66,3.16,3.16,0,0,1-.46,1.61,10.16,10.16,0,0,1-1.71,2l-1.87,1.83v.05h4.4Z"/><path class="cls-4" d="M105.41,286.18a8.86,8.86,0,0,1-.46,2.87,6.86,6.86,0,0,1-1.31,2.32h-.93a8.57,8.57,0,0,0,1.24-2.45,8.89,8.89,0,0,0,.44-2.75,9,9,0,0,0-.43-2.78,8,8,0,0,0-1.27-2.49h1a7.37,7.37,0,0,1,1.32,2.38A9.17,9.17,0,0,1,105.41,286.18Z"/><path class="cls-4" d="M96.53,225.18a9.13,9.13,0,0,1,.45-2.9,7.14,7.14,0,0,1,1.31-2.38h.95A8.26,8.26,0,0,0,98,222.39a9.32,9.32,0,0,0-.42,2.78,8.88,8.88,0,0,0,.43,2.75,8.72,8.72,0,0,0,1.25,2.45h-.94A7,7,0,0,1,97,228,8.88,8.88,0,0,1,96.53,225.18Z"/><path class="cls-4" d="M100.08,225.7v-.89h5v.89Z"/><path class="cls-4" d="M109.79,228.47h-1v-6.11c0-.5,0-1,0-1.44l-.27.26-1.4,1.14-.51-.67L109,219.9h.82Z"/><path class="cls-4" d="M114.51,227.07l.09.14c-.1.39-.25.84-.44,1.36s-.39,1-.6,1.45h-.73c.1-.41.22-.91.35-1.51s.21-1.08.26-1.44Z"/><path class="cls-4" d="M121.78,223.24a3.14,3.14,0,0,1,2.13.67,2.28,2.28,0,0,1,.78,1.83,2.64,2.64,0,0,1-.85,2.09,3.38,3.38,0,0,1-2.33.76,4.25,4.25,0,0,1-2.21-.47v-.93a3.44,3.44,0,0,0,1,.41,4.93,4.93,0,0,0,1.2.15,2.36,2.36,0,0,0,1.6-.49,1.73,1.73,0,0,0,.57-1.4c0-1.2-.73-1.8-2.2-1.8a9,9,0,0,0-1.48.17l-.51-.32.32-4h4.26v.9h-3.42l-.22,2.57A6.83,6.83,0,0,1,121.78,223.24Z"/><path class="cls-4" d="M134,221.58l.57.58-2.07,2.07,2.05,2.06-.56.59-2.07-2.06-2,2.06-.59-.59,2.05-2.06-2.06-2.06.58-.59,2.07,2.08Z"/><path class="cls-4" d="M139,225.7v-.89h5v.89Z"/><path class="cls-4" d="M148.66,228.47h-.95v-6.11c0-.5,0-1,0-1.44l-.27.26-1.4,1.14-.51-.67,2.26-1.75h.82Z"/><path class="cls-4" d="M154.41,225.18a8.86,8.86,0,0,1-.46,2.87,6.86,6.86,0,0,1-1.31,2.32h-.93a8.57,8.57,0,0,0,1.24-2.45,8.89,8.89,0,0,0,.44-2.75,9,9,0,0,0-.43-2.78,8,8,0,0,0-1.27-2.49h.95a7.37,7.37,0,0,1,1.32,2.38A9.17,9.17,0,0,1,154.41,225.18Z"/><path class="cls-4" d="M153.53,56.18a9.13,9.13,0,0,1,.45-2.9,7.14,7.14,0,0,1,1.31-2.38h1A8.26,8.26,0,0,0,155,53.39a9.32,9.32,0,0,0-.42,2.78,8.88,8.88,0,0,0,.43,2.75,8.72,8.72,0,0,0,1.25,2.45h-.94A7,7,0,0,1,154,59,8.88,8.88,0,0,1,153.53,56.18Z"/><path class="cls-4" d="M160.79,59.47h-.95V53.36c0-.5,0-1,0-1.44l-.27.26-1.4,1.14-.51-.67L160,50.9h.82Z"/><path class="cls-4" d="M165.51,58.07l.09.14c-.1.39-.25.84-.44,1.36s-.39,1-.6,1.45h-.73c.1-.41.22-.91.35-1.51s.21-1.08.26-1.44Z"/><path class="cls-4" d="M172.78,54.24a3.14,3.14,0,0,1,2.13.67,2.28,2.28,0,0,1,.78,1.83,2.64,2.64,0,0,1-.85,2.09,3.38,3.38,0,0,1-2.33.76,4.25,4.25,0,0,1-2.21-.47v-.93a3.44,3.44,0,0,0,1,.41,4.93,4.93,0,0,0,1.2.15,2.36,2.36,0,0,0,1.6-.49,1.73,1.73,0,0,0,.57-1.4c0-1.2-.73-1.8-2.2-1.8a9,9,0,0,0-1.48.17l-.51-.32.32-4h4.26v.9h-3.42l-.22,2.57A6.83,6.83,0,0,1,172.78,54.24Z"/><path class="cls-4" d="M185,52.58l.57.58-2.07,2.07,2.05,2.06-.56.59-2.07-2.06-2,2.06-.59-.59,2.05-2.06-2.06-2.06.58-.59,2.07,2.08Z"/><path class="cls-4" d="M193.66,59.47h-.95V53.36c0-.5,0-1,0-1.44l-.27.26-1.4,1.14-.51-.67,2.26-1.75h.82Z"/><path class="cls-4" d="M199.41,56.18a8.86,8.86,0,0,1-.46,2.87,6.86,6.86,0,0,1-1.31,2.32h-.93A8.57,8.57,0,0,0,198,58.92a8.89,8.89,0,0,0,.44-2.75,9,9,0,0,0-.43-2.78,8,8,0,0,0-1.27-2.49h.95A7.37,7.37,0,0,1,199,53.28,9.17,9.17,0,0,1,199.41,56.18Z"/></svg>