<svg id="Layer_1" data-name="Layer 1" xmlns="http://www.w3.org/2000/svg" xmlns:xlink="http://www.w3.org/1999/xlink" viewBox="0 0 280 300"><defs><style>.cls-1,.cls-23,.cls-24{fill:none;}.cls-2{clip-path:url(#clip-path);}.cls-3{fill:#fefefe;}.cls-4{fill:aqua;}.cls-4,.cls-6,.cls-7{opacity:0.17;}.cls-5{fill:#f7931e;}.cls-6{fill:red;}.cls-7{fill:lime;}.cls-8{fill:#584f96;}.cls-9{fill:#784c9a;}.cls-10{fill:#774c99;}.cls-11{fill:#3f8a62;}.cls-12{fill:#3f8a63;}.cls-13{fill:#f2e9ef;}.cls-14{fill:#fcfdfd;}.cls-15{fill:#fbfcfc;}.cls-16{fill:#e9f1f1;}.cls-17{fill:#f9fbfb;}.cls-18{fill:#abc7d3;}.cls-19{fill:#468f6a;}.cls-20{fill:#d7e4eb;}.cls-21{fill:#dfebe9;}.cls-22{fill:#a0c3c2;}.cls-23,.cls-24{stroke:#000;}.cls-23{stroke-miterlimit:10;stroke-width:0.5px;}.cls-24{stroke-linecap:round;stroke-linejoin:round;}</style><clipPath id="clip-path"><rect class="cls-1" x="-11" y="4" width="248" height="292"/></clipPath></defs><title>quad_transform</title><g class="cls-2"><path class="cls-3" d="M214.6,11.39q37.62,0,75.23,0c1.43,0,1.77.24,1.76,1.74q-.06,169.47,0,338.94c0,1.63-.44,1.82-1.89,1.82q-169.38-.06-338.74,0c-1.45,0-1.89-.19-1.89-1.82q.08-169.47,0-338.94c0-1.49.33-1.74,1.77-1.74q33.12.09,66.25,0a5.88,5.88,0,0,1,.95,3Q22.48,39,27.2,63.55c3.83,19.86,7.94,39.66,12.45,59.38,5.82,25.48,12.15,50.83,19.88,75.82,5,16,10.37,31.84,17.24,47.12C81.91,257.3,87.49,268.55,96,278c4.19,4.66,8.83,8.69,15.11,10.31a12,12,0,0,0,2.29.48,10.49,10.49,0,0,0,5.22-.11,11.42,11.42,0,0,0,1.64-.36c4.6-1,8.3-3.62,11.67-6.77,8.21-7.67,13.74-17.2,18.69-27.12,9.79-19.64,16.7-40.37,23-61.32,7.63-25.32,13.91-51,19.67-76.78,7.5-33.57,14-67.35,20-101.24C213.48,13.81,213.44,12.37,214.6,11.39Z"/><path class="cls-3" d="M77.38,11.39H153.9a2.77,2.77,0,0,1,.57,2.21c-.84,8.35-1.25,16.74-1.92,25.1s-1.26,16.6-1.9,24.9c-.59,7.66-1.27,15.31-1.92,23-.63,7.3-1.21,14.61-1.87,21.91-.88,9.77-1.72,19.56-2.72,29.33-1.06,10.41-2.09,20.82-3.24,31.21-2.16,19.54-4.49,39.05-7.47,58.47a390.74,390.74,0,0,1-7.35,38.39c-1.44,5.58-2.9,11.17-5.6,16.33a20.18,20.18,0,0,1-1.94,3.05,3.74,3.74,0,0,1-1.37,1.28,3.51,3.51,0,0,1-1.84.22,3.1,3.1,0,0,1-1.69-.82c-3.34-3.63-4.79-8.21-6.19-12.76-3.92-12.77-6.2-25.9-8.35-39-3.23-19.69-5.64-39.48-7.89-59.29Q89,155.41,87.14,136c-1.13-11.75-2.23-23.52-3.2-35.29-.76-9.22-1.62-18.43-2.37-27.64-.66-8-1.23-16-1.88-24.05-.7-8.64-1.28-17.3-2-25.95-.27-3.4-.61-6.81-.65-10.23A2,2,0,0,1,77.38,11.39Z"/><path class="cls-3" d="M186,11.39h25.65c.56,2.62-.47,5.07-.91,7.56-6.19,35.06-13,70-20.93,104.72-6.13,26.79-12.84,53.44-21.18,79.65-5.56,17.47-11.78,34.66-20,51.08A106.55,106.55,0,0,1,136,274.66c-1.49,1.82-3.21,3.43-4.84,5.12-.54.56-1.16,1.33-2.18.83-.3-.87.23-1.51.64-2.16a112,112,0,0,0,10.29-22c7.38-20.42,12.3-41.5,16.87-62.68,4.49-20.83,8.21-41.8,11.7-62.81,3.8-22.91,7.15-45.88,10.32-68.88C181,46.19,183.1,30.31,185,14.4A5.33,5.33,0,0,1,186,11.39Z"/><path class="cls-3" d="M20.09,11.39H45.31c1,.52.95,1.49,1.07,2.41q3.21,25.75,6.74,51.47,3.85,27.62,8.2,55.16c3.39,21.46,7.14,42.86,11.46,64.16,3.83,18.92,8,37.76,13.63,56.26,3.78,12.49,7.93,24.84,14.55,36.2a3.69,3.69,0,0,1,.61,1.8.82.82,0,0,1-.64.78c-1.73-.25-2.59-1.68-3.61-2.82a89,89,0,0,1-11-15.95c-7.65-13.59-13.34-28-18.44-42.71-10.41-29.92-18.3-60.54-25.41-91.37C37.45,105.25,33,83.63,28.72,62Q24.16,38.57,20.06,15.1C19.84,13.9,19.19,12.61,20.09,11.39Z"/><path class="cls-3" d="M165.87,11.39H183a2.78,2.78,0,0,1,.36,2.44c-4.62,36.52-9.54,73-15.42,109.33-5.36,33.12-11.29,66.13-19.44,98.69-3.51,14-7.48,27.93-13.07,41.31a84.89,84.89,0,0,1-5.79,11.9c-.55.89-1,2-2.29,2-.86-.57-.38-1.29-.15-1.9,7.1-18.91,10.59-38.69,14.09-58.47,4.34-24.55,7.58-49.26,10.59-74,2.11-17.31,4-34.65,5.78-52q2.1-20.28,4.07-40.57c1.1-11.61,2.25-23.22,3.16-34.85A7,7,0,0,1,165.87,11.39Z"/><path class="cls-3" d="M48.31,11.39H65.83c1.12,2.18.78,4.59,1,6.89,1,10.34,1.87,20.69,2.9,31,.91,9.21,1.73,18.42,2.68,27.63,1.16,11.4,2.33,22.8,3.58,34.19,1.45,13.16,2.92,26.32,4.59,39.46,3.28,25.72,6.74,51.41,11.55,76.9a362.71,362.71,0,0,0,9.34,39.71c.71,2.31,1.64,4.55,2.39,6.86.28.87.72,1.73.2,2.66-1.43.48-1.64-.84-2.08-1.55a95,95,0,0,1-7.83-16.83c-6.75-18.06-11.43-36.7-15.66-55.48-6.26-27.74-11.13-55.74-15.62-83.8Q56.51,79.29,51.45,39.33,49.88,27,48.25,14.76A6.43,6.43,0,0,1,48.31,11.39Z"/><path class="cls-4" d="M20.09,11.39C21.4,19,22.63,26.52,24,34.06,29.49,63.48,35.24,92.84,41.9,122c7.32,32,15.34,63.86,26.12,94.92,6,17.21,12.58,34.17,22.4,49.65a57.32,57.32,0,0,0,10.44,12.88,7.5,7.5,0,0,1,1.68.95,9.35,9.35,0,0,1,2.08,2,19.49,19.49,0,0,0,4.82,4.59c.69.47,1.72.71,1.71,1.86-5-.85-8.83-3.81-12.37-7.14C91.2,274.57,86,265.77,81.27,256.61,71.2,236.89,64.11,216,57.75,194.9c-12.43-41.3-21.62-83.37-30-125.64C24,50.57,20.61,31.83,17.21,13.09a13.73,13.73,0,0,1-.11-1.7Z"/><path class="cls-4" d="M129.11,280.76c5.51-4.45,9.55-10.13,13.16-16.12,10.13-16.79,17-35,23.17-53.54,9.3-27.8,16.53-56.18,23.09-84.74,7.78-33.81,14.52-67.84,20.6-102,.77-4.33,1.65-8.65,2.48-13h3c-1.71,9.37-3.4,18.74-5.14,28.11-5.94,31.94-12.36,63.78-19.83,95.4-6.51,27.55-13.68,54.91-22.9,81.7-5.13,14.94-10.84,29.66-18.42,43.57-4.52,8.28-9.55,16.21-16.72,22.52-3.33,2.93-6.9,5.49-11.47,6.16-.18-.89.61-1,1.09-1.34a22.61,22.61,0,0,0,5.3-4.89A4,4,0,0,1,129.11,280.76Z"/><path class="cls-5" d="M104.29,282.51l-2.14-1.87a3.55,3.55,0,0,1-.8-1.68c-9.76-16.41-14.83-34.57-19.66-52.79-6.38-24.07-11.08-48.5-15.48-73S58,103.8,54.42,79c-2.82-19.78-5.27-39.62-7.9-59.43-.37-2.74-.8-5.47-1.21-8.21h3c.91,3.88,1.11,7.87,1.64,11.81,1.82,13.39,3.46,26.8,5.31,40.18s3.79,26.61,5.82,39.9c2.09,13.63,4.22,27.26,6.56,40.85,3.82,22.14,8,44.22,13.15,66.09,4.06,17.16,8.53,34.21,15,50.67A94.34,94.34,0,0,0,103,275.65c.27.44.32,1.14,1.07,1.19,1.77,1.06,2,3.21,3.18,4.66.35,1,1.33,1.89,1,3.15C106.24,285.09,105.43,283.5,104.29,282.51Z"/><path class="cls-5" d="M129.11,280.76l-2.16,2c-1.16.81-2,2.3-3.75,1.93-.51-1.18.65-1.84.87-2.8,1.19-1.6,1.42-3.84,3.32-5,2.61-2.81,4-6.33,5.56-9.74,7.57-16.88,12.32-34.67,16.66-52.58,5.82-24.05,10.38-48.37,14.57-72.75q5.32-30.91,9.71-62c2.8-19.64,5.5-39.3,7.87-59,.38-3.17.8-6.35,1.21-9.52h3c-.89,7.27-1.73,14.54-2.69,21.8Q181.07,50,178.72,66.8C176.87,80,175.05,93.14,173,106.27c-2.53,16.15-5.13,32.3-8,48.39-5.24,29.32-11,58.54-19.58,87.11-3.52,11.73-7.5,23.28-13.43,34.07C131.05,277.5,129.66,278.89,129.11,280.76Z"/><path class="cls-3" d="M156.89,11.39h6c1,2.14.26,4.36.06,6.48-1,10.63-1.88,21.27-2.91,31.89s-2,21-3.09,31.45q-2,19-4.08,38c-1.12,10-2.32,20-3.54,29.91-2.87,23.47-6.15,46.88-10.19,70.19q-1.49,8.52-3.27,17a4,4,0,0,1-1.08,2.5c-.5.22-.71-.12-.91-.48-.45-1.8.12-3.54.4-5.28,3.33-20.75,5.84-41.61,8.21-62.49,1.58-13.93,3-27.89,4.24-41.86,1.11-12,2.21-24.1,3.2-36.16.91-11.2,2-22.4,2.79-33.61.75-10.15,1.65-20.29,2.32-30.44.32-5,.54-9.95,1.16-14.89A3.69,3.69,0,0,1,156.89,11.39Z"/><path class="cls-3" d="M68.83,11.39h5.55a2.91,2.91,0,0,1,1,2.25c.27,6.61.89,13.2,1.37,19.79q.88,12.24,1.91,24.46c.52,6.31,1,12.62,1.48,18.93C80.74,84,81.38,91.14,82,98.3c.76,8.71,1.59,17.42,2.37,26.14.85,9.49,1.83,19,2.75,28.46,1.43,14.74,3.19,29.44,5,44.13q2.28,18.54,5.21,37a6.79,6.79,0,0,1,.1,3.38c-.18.37-.38.71-.89.56-1-.85-1.05-2.14-1.28-3.3-3.63-18.31-6.51-36.75-9.12-55.24-3.74-26.52-6.83-53.12-9.69-79.74-1.61-15-3.08-30-4.51-45-1.26-13.18-2.37-26.38-3.67-39.55C68.14,13.83,67.93,12.51,68.83,11.39Z"/><path class="cls-6" d="M97.09,237.43c-.92-6.33-1.91-12.65-2.76-19-1.43-10.57-2.87-21.14-4.11-31.74q-2.44-21-4.58-42c-1.14-11.11-2.14-22.23-3.13-33.36q-1.71-19-3.28-38.06Q77.81,56,76.53,38.61c-.64-8.51-1.22-17-1.84-25.55a14,14,0,0,0-.31-1.67h3c.76,4.79.82,9.63,1.22,14.45C79.78,40.24,80.83,54.64,82,69c1,12.77,2,25.54,3.16,38.29,1.27,14.1,2.67,28.19,4.09,42.28,1.13,11.25,2.28,22.5,3.58,33.74,1.67,14.34,3.49,28.66,5.69,42.93,2.13,13.84,4.44,27.65,8,41.23a90.88,90.88,0,0,0,3.73,11.55,25.68,25.68,0,0,0,3.92,6.79c-1.46.56-2.08-.64-2.73-1.45a32.09,32.09,0,0,1-4.57-7.9c-1.38-3.28-2.54-6.64-3.62-10a9.19,9.19,0,0,0-1.18-2.73,92.82,92.82,0,0,1-2.85-12.32,15.48,15.48,0,0,0-.35-2.25c-.19-1.14-.63-2.22-.79-3.37a20.45,20.45,0,0,0-.51-3.64c-.17-.71-.2-1.46-.44-2.16C96.74,239.15,97.23,238.29,97.09,237.43Z"/><path class="cls-7" d="M98.34,245.64a7,7,0,0,1,.83,3.36c.5.68-.09,1.57.44,2.24.85,3.81,1.69,7.62,2.55,11.43a6.91,6.91,0,0,0,.39.94c1.66,5.52,3.26,11.05,5.42,16.39a3.21,3.21,0,0,1,.37,2.25c-.93.79-1-.52-1.59-.63L104,276.84c-1.5-4.66-3.1-9.29-4.47-14C95,247.4,92.13,231.61,89.37,215.78c-2.56-14.63-4.7-29.33-6.7-44.05-1.62-11.9-3-23.83-4.45-35.76s-2.82-24-4.12-36C73,89.55,72,79.15,71,68.74,69.84,57.49,68.66,46.25,67.72,35c-.66-7.86-1.74-15.69-1.89-23.59h3c0,6.34,1,12.61,1.47,18.92.67,8.29,1.54,16.56,2.36,24.84Q74.28,71.71,76,88.26c1.15,11.18,2.31,22.35,3.58,33.51s2.65,22.59,4.09,33.88c1.41,11,2.86,22,4.45,33,2.36,16.17,5,32.31,8.27,48.32a9.21,9.21,0,0,0,.31,1,4.26,4.26,0,0,1,.6,2.11,12.57,12.57,0,0,1,.44,2.18A26.4,26.4,0,0,1,98.34,245.64Z"/><path class="cls-6" d="M156.89,11.39q-1.21,16.4-2.42,32.79-1.09,14.48-2.27,28.94-1.6,19.26-3.32,38.49c-1.15,12.76-2.29,25.51-3.59,38.25-1.26,12.32-2.72,24.61-4.08,36.91-1.48,13.36-3.32,26.67-5.27,40q-.85,5.81-1.73,11.6c-.18.82.31,1.65,0,2.47a19.46,19.46,0,0,0-.55,3.8,1.75,1.75,0,0,1,0,.56,3.34,3.34,0,0,0-.45,2.33,19,19,0,0,1-.72,2.76,7.81,7.81,0,0,0-.29,2.09c-.8,2.9-1,6-2.11,8.76-1,1.95-1.27,4.11-2,6.13-1.89,5.78-3.72,11.6-7.48,16.53-.63.83-1.14,2.08-2.62,1.62,5.13-7.86,7-16.89,9-25.81,3.87-17.06,6.33-34.38,8.67-51.71,2-15,3.77-30.05,5.38-45.11,1.46-13.65,2.74-27.32,4-41q2.16-23.27,4.13-46.55c1-11.69,1.82-23.4,2.7-35.11q1.08-14.35,2.12-28.73Z"/><path class="cls-7" d="M132.09,249.9c.54-.75,0-1.85.83-2.51-.46-.83.05-1.48.41-2.16,0-.13,0-.27,0-.4a21,21,0,0,1,.51-3.53c.27-.82.15-1.76.73-2.49,1.93-8.16,3.3-16.44,4.73-24.7,2.37-13.66,4.39-27.37,6.26-41.1,1.61-11.84,3-23.7,4.46-35.55q2.16-18,4.12-36c1.28-11.88,2.42-23.77,3.59-35.66q1.68-17,3.28-34c.64-6.79,1.22-13.6,1.83-20.4h3q-1.63,17.74-3.28,35.49c-.89,9.5-1.77,19-2.72,28.47q-1.56,15.41-3.23,30.78c-1,9.4-2,18.81-3.17,28.2-1.41,11.8-2.81,23.59-4.43,35.36-1.82,13.17-3.71,26.34-5.87,39.45-3.4,20.7-7,41.36-13.58,61.37-.71,2.16-1.89,4.15-2.2,6.43L124.5,282c-.54.16-.62,1.38-1.55.68a3.68,3.68,0,0,1,.52-2.63c1.69-4,2.88-8.11,4.2-12.2.62-2.28,1.25-4.56,1.87-6.84.71-3,1.43-6,2.14-9C132.18,251.4,131.6,250.55,132.09,249.9Z"/><path class="cls-8" d="M123.06,282.87l1.44-.84-1.33,2.48c0,1.57-1.33,2.13-2.2,3a20.63,20.63,0,0,1-2.13,1.67,8.64,8.64,0,0,1-5.55.09c-2.2-1.05-4.35-2.17-5.15-4.75-.46-1-.93-1.95-1.39-2.93l1.39.85a1.24,1.24,0,0,1,1,.67c1.27,2.67,3.84,2.78,6.23,3.25l1.52-.13C119.47,286,121.33,284.58,123.06,282.87Z"/><path class="cls-9" d="M108.14,284.55a24.72,24.72,0,0,0,5.15,4.75,3.9,3.9,0,0,1-2.14-.46c-1.89-1.56-4.13-2.67-5.7-4.63-.43-.53-1.11-.9-1.16-1.7C105.62,283.12,106.62,284.32,108.14,284.55Z"/><path class="cls-10" d="M118.84,289.21l4.33-4.7c1.51,0,2.43-1.37,3.78-1.74a22.35,22.35,0,0,1-6.83,6.08C119.73,289.1,119.35,289.39,118.84,289.21Z"/><path class="cls-11" d="M115.4,286.39c-3.34.4-5.91-.63-7.25-3.92a144.32,144.32,0,0,1-5.27-17c-.14-.62-.22-1.25-.33-1.88,1.75,3.32,2.44,7,3.86,10.48a47.94,47.94,0,0,0,4.76,9.19c.75,1.09,1.52,2.23,3,2.57Z"/><path class="cls-12" d="M123.06,282.87c-1.21,2.65-3.2,3.88-6.14,3.39l1-.87c2.57-1.44,3.74-4,5-6.44a57.25,57.25,0,0,0,4.53-11.9c.8,0,.64.41.43.88a67.69,67.69,0,0,1-3.66,12C123.79,280.88,123.43,281.88,123.06,282.87Z"/><path class="cls-13" d="M101.35,279a1.94,1.94,0,0,1,.8,1.68,2.42,2.42,0,0,1-1.29-1.19Z"/><path class="cls-14" d="M134.61,238.81l-.45,2.54c-.39.07-.61,0-.42-.46.12-.86-.07-1.77.47-2.55Z"/><path class="cls-15" d="M97.1,240.1c-.14-.71-.29-1.43-.43-2.15l.42-.52a5.36,5.36,0,0,1,.46,2.65A.3.3,0,0,1,97.1,240.1Z"/><path class="cls-16" d="M98.34,245.64a10.51,10.51,0,0,1-.82-3.41c.13-.19.27-.2.41,0A5.09,5.09,0,0,1,98.34,245.64Z"/><path class="cls-17" d="M97.93,242.23h-.41l-.42-2.13.45,0A3.73,3.73,0,0,1,97.93,242.23Z"/><path class="cls-18" d="M99.61,251.24c-.68-.64-.39-1.47-.44-2.24C99.87,249.64,99.54,250.48,99.61,251.24Z"/><path class="cls-19" d="M127.84,267.93a1,1,0,0,0-.43-.88c1-1.91,1-4.16,2.13-6A26.84,26.84,0,0,1,127.84,267.93Z"/><path class="cls-20" d="M133.74,240.89l.42.46a13,13,0,0,1-.79,3.48C132.66,243.44,133.42,242.18,133.74,240.89Z"/><path class="cls-21" d="M133.33,245.23c-.14.72-.27,1.44-.41,2.16C132.18,246.5,132.48,245.82,133.33,245.23Z"/><path class="cls-22" d="M132.09,249.9c-.06.73.29,1.54-.41,2.15C131.71,251.31,131.42,250.51,132.09,249.9Z"/></g><path d="M248.81,49h-1v-7.2h0L246.26,43l-.6-.73,2.28-1.84h.87Z"/><path d="M245.37,62.21l3.2-3.12c.81-.78,1.2-1.24,1.2-2.07a1.44,1.44,0,0,0-1.54-1.44,1.57,1.57,0,0,0-1.61,1.36l-1.09-.1a2.48,2.48,0,0,1,2.66-2.12,2.33,2.33,0,0,1,2.59,2.3,3.9,3.9,0,0,1-1.65,2.92l-2.62,2.46v0h4.33v.94h-5.47Z"/><line class="cls-23" x1="241" y1="52.2" x2="254" y2="52.2"/><path d="M257.58,52.32l-2-2.59h1.23l1.48,2,1.41-2h1.14l-1.93,2.59,2.31,3H260l-1.78-2.42-1.75,2.42h-1.16Z"/><path d="M261.62,51.18l2-1.81c.44-.39.71-.66.71-1.16a.83.83,0,0,0-.87-.85,1,1,0,0,0-1,.8l-.76-.06a1.58,1.58,0,0,1,1.73-1.39,1.49,1.49,0,0,1,1.68,1.5A2.31,2.31,0,0,1,264.07,50l-1.44,1.25v0h2.56v.65h-3.57Z"/><line class="cls-24" x1="236" y1="52" x2="214.98" y2="52"/><polygon points="216.39 50.15 215.6 52 216.39 53.85 212 52 216.39 50.15"/><path d="M108.69,94.45H109c.84,0,1.93-.19,1.93-1.47a1.35,1.35,0,0,0-1.45-1.41,1.64,1.64,0,0,0-1.56,1l-1-.37a2.54,2.54,0,0,1,2.46-1.44,2.27,2.27,0,0,1,2.53,2.22,2,2,0,0,1-1.45,1.94v0A2.07,2.07,0,0,1,112.22,97a2.51,2.51,0,0,1-2.8,2.46,2.63,2.63,0,0,1-2.74-1.79l1-.33a1.56,1.56,0,0,0,1.72,1.25A1.65,1.65,0,0,0,111.15,97c0-1.25-1.11-1.65-2.15-1.65h-.31Z"/><path d="M115.25,96.32l-2-2.59h1.22l1.49,2,1.4-2h1.14l-1.93,2.59,2.31,3h-1.23l-1.78-2.42-1.75,2.42H113Z"/><path d="M119.3,95.18l2-1.81c.44-.39.71-.66.71-1.16a.83.83,0,0,0-.86-.85,1,1,0,0,0-1,.8l-.76-.06a1.58,1.58,0,0,1,1.73-1.39,1.49,1.49,0,0,1,1.68,1.5A2.31,2.31,0,0,1,121.74,94l-1.44,1.25v0h2.56v.65H119.3Z"/><line class="cls-24" x1="101.5" y1="95.5" x2="92.48" y2="95.5"/><polygon points="93.89 93.65 93.1 95.5 93.89 97.35 89.5 95.5 93.89 93.65"/><line class="cls-24" x1="138.52" y1="95.5" x2="129.5" y2="95.5"/><polygon points="137.11 93.65 137.9 95.5 137.11 97.35 141.5 95.5 137.11 93.65"/></svg>