<svg xmlns="http://www.w3.org/2000/svg" viewBox="0 0 424.81 460.27"><defs><style>.cls-1{isolation:isolate;}.cls-2{fill:#f4c7a2;}.cls-3{fill:#ffca22;}.cls-18,.cls-4{fill:#333;}.cls-5{fill:#ce8900;}.cls-6{fill:#191919;}.cls-7{fill:#d8b04e;opacity:0.7;}.cls-14,.cls-18,.cls-19,.cls-7{mix-blend-mode:multiply;}.cls-8{fill:#fcd2ac;}.cls-9{fill:#f1f1f1;}.cls-10{fill:#e5e5e5;}.cls-11{fill:#c1c1c1;}.cls-12{fill:#c69158;}.cls-13,.cls-14{fill:#c9a873;}.cls-14,.cls-18{opacity:0.5;}.cls-15{fill:none;stroke:#ffd41d;stroke-linecap:round;stroke-linejoin:round;stroke-width:1.4px;}.cls-16{fill:#fff;}.cls-17{fill:#442d1c;}.cls-19{fill:#f4c59f;opacity:0.4;}.cls-20{fill:#1e1e1e;}</style></defs><title>breakdance_boy</title><g class="cls-1"><g id="Layer_2" data-name="Layer 2"><g id="Layer_1-2" data-name="Layer 1"><path class="cls-2" d="M151.09,276.4c-16,1.26-8.4,20.3-8.4,20.3,8.22,8.92,19.77,0,19.77,0S166.66,275.18,151.09,276.4Z"/><path class="cls-3" d="M138.31,274.13c-6.8,8.34-5.13,18.72-3.76,23.66,5.16-.5,8.14-1.09,8.14-1.09s-7.62-19,8.4-20.3c15.57-1.22,11.37,20.3,11.37,20.3,1.75.3,3.46.56,5.17.82C174.85,268.57,147.47,262.9,138.31,274.13Z"/><path class="cls-3" d="M246.27,271.68c-7.53-11-6.83-24.15-6.83-24.15q-4.24,2.25-7.84,4.3c-17.31,9.8-23.91,15.74-25.75,13.9-2.1-2.1-3-20.65,2.1-35.52s16.27-16.44,15.39-22-17.14-18.32-17.14-18.32c8,8.28,10.15,15.69,9.45,18.14s-12.43,7.35-37.8,8.57-39.54-5.94-50.56-13.82-17.15-14.87-24.85-17.32c-3.14-1-5.08-1.81-5.66-2.66-2,.89-3.14,1.89-2.21,2.89,9.62,10.43,11.43,17.5,12.13,43.67s7.46,39.62,7.46,39.62c-9.21-3.41-20.75-10.69-28.39-15.88-4.93-3.34-8.23-5.82-8.23-5.82s4.14,20-17.26,34.76c0,0,1.69,2.37,6.48,5.3,4.6,2.81,12,6.12,23.61,8.35a157.76,157.76,0,0,0,44.18,2.14c-1.37-4.94-3-15.32,3.76-23.66,9.16-11.23,36.54-5.56,29.32,23.39,48.14,7.3,76.27-1.53,88.59-7.31a44.32,44.32,0,0,0,7.49-4.24S253.79,282.7,246.27,271.68Z"/><path class="cls-4" d="M187.25,223.71c20.7-5.39,25.36-5.21,31.54-8.8h0c2.87-2.49,5-4.21,4.55-6.74-.87-5.6-17.14-18.32-17.14-18.32,8,8.28,10.15,15.69,9.45,18.14s-12.43,7.35-37.8,8.57-39.54-5.94-50.56-13.82-17.15-14.87-24.85-17.32c-3.14-1-5.08-1.81-5.66-2.66-2,.89-3.14,1.89-2.21,2.89a41.2,41.2,0,0,1,7.26,10.15c3.44,1.32,7,4.08,13.12,9.22C132.13,219.48,160.39,230.71,187.25,223.71Z"/><path class="cls-4" d="M206.06,237a63.23,63.23,0,0,1,1.89-6.83c.35-1,.73-2,1.13-2.88A100.65,100.65,0,0,0,190,234c-23.09,10.49-52.95,1.63-67.88-10.27-8.87-7.07-12.55-10.6-16.38-12.21.45,4.26.72,9.3.91,15.46,8.9,7.72,27.29,20.54,52.44,21.71C187.66,250,194.34,241.89,206.06,237Z"/><path class="cls-4" d="M105.82,265.19c-2.73-1.39-5.49-2.94-8.17-4.53.77,4.84,2.28,20.53-7,35,4.17.8,8.2,1.38,12.07,1.8C108.35,279.09,106.71,268.65,105.82,265.19Z"/><path class="cls-4" d="M91,256.53c-1.88-1.21-3.65-2.38-5.24-3.47.86,8.63-.76,23.74-19,34.24a50.84,50.84,0,0,0,6.81,3.44C90.05,283.22,91.37,265,91,256.53Z"/><path class="cls-4" d="M219.19,259.23l-5,3.13c-1.08,7.51-.44,21.09,12.55,36.2,4.18-.62,8-1.37,11.42-2.2C221.42,288.46,219.14,269.34,219.19,259.23Z"/><path class="cls-4" d="M204.24,251.65c-9.74,7-25,13.68-52.32,9.82-22.09-3.11-36.24-10.85-44-16.47a98.41,98.41,0,0,0,4.85,20.64c5.43,2.21,14.09,4.64,27.74,6.35,6.07-4.63,16.15-4.43,22.49,1.55,21-.15,34.67-5.73,41.94-9.9A49.44,49.44,0,0,1,204.24,251.65Z"/><path class="cls-4" d="M249.75,292.89c2.5-.92,4.66-1.83,6.47-2.68-21.58-9.17-24.76-27.62-24.62-38.38-1.85,1-3.56,2-5.18,3C226.2,265,228.6,285.18,249.75,292.89Z"/><path class="cls-4" d="M112.37,298.27a153.43,153.43,0,0,0,22.18-.48,30.41,30.41,0,0,1-.49-15.14,78.85,78.85,0,0,1-20.42-6.3C114.15,281.81,114.06,291.6,112.37,298.27Z"/><path class="cls-4" d="M208.21,277.8c-14.68,5.67-27.82,6.48-39.74,6.34.9,5-.13,10.54-.84,13.38,20.13,3.05,36.75,3.27,50.19,2.09C212.3,293.54,209.2,284.13,208.21,277.8Z"/><path class="cls-5" d="M77.54,247.24C55.61,257.45,60.28,282,60.28,282,81.68,267.27,77.54,247.24,77.54,247.24Z"/><path class="cls-5" d="M246.27,271.68c7.52,11,17.44,14.29,17.44,14.29,1.86-18.9-21.29-40-24.27-38.44C239.44,247.53,238.74,260.66,246.27,271.68Z"/><path class="cls-6" d="M115,180.61c-.33.21-.64.42-.9.61-4.43,3.27-6-1.63-6-1.63s-7.32,1.36-11.32,3.17c.58.85,2.52,1.66,5.66,2.66,4.3,1.36,8.1,4.15,12.54,7.71C115.06,187.51,115,183.24,115,180.61Z"/><path class="cls-6" d="M206.2,189.85s-.29,13.14-.22,22.89c6.2-1.68,9.32-3.52,9.67-4.75C216.35,205.54,214.2,198.13,206.2,189.85Z"/><path class="cls-7" d="M246.27,271.68c-7.53-11-6.83-24.15-6.83-24.15q-4.24,2.25-7.84,4.3c-17.31,9.8-23.91,15.74-25.75,13.9-2.1-2.1-3-20.65,2.1-35.52s16.27-16.44,15.39-22-17.14-18.32-17.14-18.32c8,8.28,10.15,15.69,9.45,18.14s-12.43,7.35-37.8,8.57-39.54-5.94-50.56-13.82-17.15-14.87-24.85-17.32c-3.14-1-5.08-1.81-5.66-2.66-2,.89-3.14,1.89-2.21,2.89,9.62,10.43,11.43,17.5,12.13,43.67s7.46,39.62,7.46,39.62c-9.21-3.41-20.75-10.69-28.39-15.88-4.93-3.34-8.23-5.82-8.23-5.82s4.14,20-17.26,34.76c0,0,1.69,2.37,6.48,5.3,4.6,2.81,12,6.12,23.61,8.35a157.76,157.76,0,0,0,44.18,2.14c-1.37-4.94-3-15.32,3.76-23.66,9.16-11.23,36.54-5.56,29.32,23.39,48.14,7.3,76.27-1.53,88.59-7.31a44.32,44.32,0,0,0,7.49-4.24S253.79,282.7,246.27,271.68Zm-12.08,21.21c-22.08,3.6-56.51-2-61.24-8.75-2.27-3.26-8.57-18.59-21.88-17.43s-16.43,8.12-21,19.26-28.52,11.43-42.69,6.92-24.85-6.52-17-14c13.46-12.79,6.77-22.11,15.69-18.82,20.62,7.63,40.19,23.79,38.79,20.77s-7-12.14-11.43-34.77c-6.42-32.76-4.67-51.77,3-44.78s21.55,17.24,40.9,20.75,37.25-2.06,46.11-5.35,4.2,5.81-.93,12.11-8.81,17.09-7.49,31.85,7.78,24.14,10.88,18.42,10.2-14.4,22.71-20.52c11.11-5.44,3.06,4.2,14.79,17.79C248.12,281.76,256.28,289.29,234.19,292.89Z"/><path class="cls-7" d="M138.31,274.13c-6.8,8.34-5.13,18.72-3.76,23.66,5.16-.5,8.14-1.09,8.14-1.09s-7.62-19,8.4-20.3c15.57-1.22,11.37,20.3,11.37,20.3,1.75.3,3.46.56,5.17.82C174.85,268.57,147.47,262.9,138.31,274.13Zm25.32,13.28c0-5.68-3.74-13-11.71-13.87s-12,6.13-12.78,11.84-4.56,5.84-4.59,1.29a16.3,16.3,0,0,1,17.37-16.8,17,17,0,0,1,15.2,15.63C167.4,292.18,163.63,293.08,163.63,287.41Z"/><path class="cls-4" d="M107.87,173.29s-1.4.93-1.05,2.1,1.28,4.2,1.28,4.2,1.52,4.9,6,1.63,18.78-9.45,44.91-7.46,31.14,5,47.41,10.78c3.85.53,7.2,2.13,7.55-1a34.7,34.7,0,0,0-.14-7c-12.36-6.65-24.61-11.44-56.22-12.25S107.87,173.29,107.87,173.29Z"/><path class="cls-4" d="M338.47,26.9C322.2,35.32,288.32,67.72,277,76.24s-11.08,9.21-10.38,11.55-6.88.58-9.45,1.4-2,5.83-2,7.93-14.11,6.65-32,15.4-33.36,17.61-49.58,22.16-20.06-.7-28.22-11S125,97.47,125,97.47s26.13,6.88,34.65,3.27,8.86-36.4,6.06-38.5C132.09,37,79.87,42.88,69.84,59s-.93,38.72,14,73.83,24,40.48,24,40.48,18.08-9.8,49.69-9,43.86,5.6,56.22,12.25c0,0,37.91-19.13,72.55-43.75S365.24,65.39,368,59.44,343.55,24.27,338.47,26.9Z"/><path class="cls-8" d="M206.2,189.85l.17-5.31c-16.27-5.77-21.29-8.8-47.41-10.78-24.57-1.87-38.72,3.49-44,6.85.06,2.63.11,6.9,0,12.52,3.52,2.82,7.43,6.13,12.31,9.61,11,7.88,25.19,15,50.56,13.82,12.67-.61,21.94-2.13,28.13-3.82C205.91,203,206.2,189.85,206.2,189.85Z"/><path class="cls-4" d="M166.49,63.86c1.63,6.14,1,27.11-4.22,34.55,6.59,3.41,12-3,11.61-19.14C173.58,66.88,169.36,64.22,166.49,63.86Z"/><path class="cls-4" d="M372.88,49.41c.23-4.66-19.82-23.33-26.12-25.43-3.83-1.27-5.37,1.07-6,3.1,6.86,2.6,23.05,19.74,26.71,28.41C370.44,55.35,372.71,53,372.88,49.41Z"/><path class="cls-9" d="M195,29.65c2.55,9.1.48,27.07-3.66,41.69-4.76,16.84-8.16,26.24-13.27,30.09.3.07.59.15.91.21,9.1,1.85,11.66-6.5,18-26.57C203,55.86,206.26,34.3,195,29.65Z"/><path class="cls-10" d="M412.08,38C394,15.33,373.32-3.17,361.82.46c-.82,4.69,2.56,13.42,14.1,27.31,19.52,23.52,40.67,39.48,48.78,37.89C425.46,59.9,422.11,50.58,412.08,38Z"/><path class="cls-9" d="M423,69.81a8,8,0,0,0,1.73-4.15c-8.11,1.59-29.26-14.37-48.78-37.89C364.38,13.88,361,5.15,361.82.46a8.73,8.73,0,0,0-2,.89,21.76,21.76,0,0,0-4.15,3.37c.55,6.72,6.8,17.87,21.82,34.08C398.88,61.87,413.51,70.41,423,69.81Z"/><path class="cls-9" d="M195.48,50.6c1-8.31,1-16-.44-21a9.22,9.22,0,0,0-1.56-.53c-6.16-1.55-12.17,6.48-16.78,15.38C179.92,48,185.57,51,195.48,50.6Z"/><path class="cls-9" d="M181.12,53.38a74,74,0,0,0-6.85-3.87c-1.39,3.06-2.6,6-3.56,8.57,2.34,2.06,5.64,4.21,6.44,4.05C178.32,61.9,181.82,54.08,181.12,53.38Z"/><path class="cls-3" d="M176.7,44.5c-.86,1.66-1.67,3.35-2.43,5a74,74,0,0,1,6.85,3.87c.7.7-2.8,8.52-4,8.75-.8.16-4.1-2-6.44-4.05-1.09,2.84-1.87,5.14-2.28,6.39,2.53,1.3,5.21,5,5.45,14.8.24,9.36-1.5,15.42-4.27,18.22a21.74,21.74,0,0,0,8.5,3.94c5.11-3.85,8.51-13.25,13.27-30.09a134.91,134.91,0,0,0,4.1-20.74C185.57,51,179.92,48,176.7,44.5Z"/><path class="cls-9" d="M384,47.9c-.82-1.76-6.77-4.79-8.17-5.14-1-.25-1.7,4.19-2,6.76a23,23,0,0,1,7.74,2.93,22.4,22.4,0,0,1,1.86,1.25C384.06,51.37,384.46,49,384,47.9Z"/><path class="cls-3" d="M377.49,38.8c-15-16.21-21.27-27.36-21.82-34.08C348.31,12.31,346.76,24,346.76,24c6.3,2.1,26.35,20.77,26.12,25.43,0,0,.34,0,.9.11.32-2.57,1-7,2-6.76,1.4.35,7.35,3.38,8.17,5.14.49,1.05.09,3.47-.59,5.8,6.07,4.43,20.67,16.92,31,18.58,3.73.59,6.75-.28,8.56-2.47C413.51,70.41,398.88,61.87,377.49,38.8Z"/><path class="cls-11" d="M363.34,8.68a17.75,17.75,0,0,1,1.86-1.15,36.72,36.72,0,0,1,4.3-2A39,39,0,0,1,374,4.07a19.19,19.19,0,0,1,2.15-.41,15.89,15.89,0,0,1-1.85,1.16,36.8,36.8,0,0,1-4.3,2,37.27,37.27,0,0,1-4.52,1.45A16.38,16.38,0,0,1,363.34,8.68Z"/><path class="cls-11" d="M367.63,16.63s1-.65,2.54-1.46,3.66-1.8,5.81-2.67,4.36-1.64,6-2.13a29.12,29.12,0,0,1,2.85-.71s-1,.65-2.55,1.46-3.66,1.8-5.81,2.67-4.36,1.63-6,2.12S367.63,16.63,367.63,16.63Z"/><path class="cls-11" d="M374.83,26.46s1.09-.77,2.78-1.76,4-2.23,6.36-3.35,4.77-2.14,6.62-2.81,3.12-1,3.12-1-1.08.77-2.78,1.76-4,2.23-6.36,3.35-4.77,2.13-6.61,2.81S374.83,26.46,374.83,26.46Z"/><path class="cls-11" d="M381.94,34.74s.28-.2.78-.52,1.23-.77,2.11-1.27c1.76-1,4.16-2.28,6.6-3.43s4.95-2.19,6.86-2.89c.95-.35,1.77-.59,2.33-.79s.9-.27.9-.27-.28.2-.79.51-1.22.78-2.1,1.28c-1.76,1-4.16,2.28-6.6,3.43s-4.95,2.18-6.86,2.88c-.95.36-1.77.6-2.33.8Z"/><path class="cls-11" d="M390.91,44.11s1-.84,2.61-1.93,3.79-2.45,6-3.71,4.56-2.41,6.33-3.2,3-1.22,3-1.22-1,.83-2.61,1.92-3.79,2.46-6,3.72-4.56,2.41-6.33,3.19S390.91,44.11,390.91,44.11Z"/><path class="cls-11" d="M398.9,51.48s.88-.81,2.28-1.88,3.34-2.41,5.33-3.65,4.05-2.36,5.64-3.14,2.7-1.2,2.7-1.2-.87.82-2.28,1.89-3.33,2.41-5.32,3.64-4.05,2.37-5.64,3.14S398.9,51.48,398.9,51.48Z"/><path class="cls-11" d="M406.88,57.85A21.73,21.73,0,0,1,408.57,56a49.65,49.65,0,0,1,4.06-3.55,52,52,0,0,1,4.44-3.07,21.22,21.22,0,0,1,2.18-1.18,23.81,23.81,0,0,1-1.69,1.82,49.7,49.7,0,0,1-4.06,3.54,52.84,52.84,0,0,1-4.44,3.07A24.42,24.42,0,0,1,406.88,57.85Z"/><path class="cls-11" d="M414.42,62.7a11.22,11.22,0,0,1,1.08-1.41,23.66,23.66,0,0,1,2.76-2.63,24,24,0,0,1,3.13-2.18A12.29,12.29,0,0,1,423,55.7a11.22,11.22,0,0,1-1.08,1.41,24.29,24.29,0,0,1-5.88,4.8A12.12,12.12,0,0,1,414.42,62.7Z"/><path class="cls-12" d="M162,186.92c-.11,1.67-.9,3-1.78,2.93s-1.49-1.46-1.39-3.13.91-3,1.78-2.93S162.09,185.25,162,186.92Z"/><path class="cls-8" d="M270.76,244.21c-1.22-21.35-15.46-36.74-15.46-36.74s5.84-3.17,9.8-12.43c5.2-12.16-1.28-20.35-2.8-12.28S258.45,195,258.45,195c6.19-21.53-5.13-23.27-4.43-13.35s-2.41,15.51-2.41,15.51c4.31-24.49-8.32-26.13-6.45-16.33s-.29,16.1-.29,16.1c-2.63-17.38-14.88-20.41-9.28-7.12,3.81,9-.7,17.79-5.77,16.74s-10.15,4-2.1,7.52a12.12,12.12,0,0,0,13.59-2.64c14.86,29.64,7.24,47.2,1.88,54.65a34.88,34.88,0,0,0,3.08,5.56A40.27,40.27,0,0,0,259.47,284C265.38,276.56,271.79,262.16,270.76,244.21Z"/><path class="cls-8" d="M76.09,262c-11.7-6.33-47.48-29.95-39.84-79.26,0,0,9.15-2.89,12.3-9.39s0-16.62-3.67-9.11-8.05,6.31-11.9,0-3-4,0-11.21,3.32-10.67.7-11.72-7.52,6.65-9.27,12.6a25.17,25.17,0,0,0,0,12.24s-3.68-3.49-3.56-11,2.8-12.48.7-14.47S10,149.86,16.07,164.26c0,0-3.92-2-5.14-12.08-.46-3.85-.11-7.47-2.56-7.94S3.24,155,9.53,165.36c0,0-1.39,1-5.24-7.59s-7,.12-.7,11.9,13.06,11.83,13.29,13.09-10.24,64.42,45,98.09C70,274.78,74.11,267.93,76.09,262Z"/><path class="cls-13" d="M223.11,356.77a6.48,6.48,0,0,1-4.14-4.52c-.17,1.14,1.92,10.24,1.05,11.81-10.24,18.43-26.59,18.72-26.59,18.72s12.24-7.7,10.49-7.87c-24.86-2.49-32.36,14.87-32.36,14.87-.36-6.38-8.05-12.25-7.7-10.32s-.89,10.32-.89,10.32c-8.23-9.62-31.31-13.82-31-11s5.25,8.82,5.25,8.82c-8-6.13-29.57-14.6-28.87-12a34.43,34.43,0,0,0,2.63,6.12c-4.68-4.67-16.28-10-16.28-10a49.58,49.58,0,0,1,.88-9.45c1-6.47,0-8.75,0-8.75-3.85,7.35-12.72,3.56-12.72,3.56s-5.13,6.76,5.6,14.23,26.83,20.76,75.82,24.5,68.82-25.78,68.36-40.24C231.16,356.75,229.41,359,223.11,356.77Z"/><path class="cls-14" d="M223.11,356.77a6.48,6.48,0,0,1-4.14-4.52c-.17,1.14,1.92,10.24,1.05,11.81-10.24,18.43-26.59,18.72-26.59,18.72s12.24-7.7,10.49-7.87c-24.86-2.49-32.36,14.87-32.36,14.87-.36-6.38-8.05-12.25-7.7-10.32s-.89,10.32-.89,10.32c-8.23-9.62-31.31-13.82-31-11s5.25,8.82,5.25,8.82c-8-6.13-29.57-14.6-28.87-12a34.43,34.43,0,0,0,2.63,6.12c-4.68-4.67-16.28-10-16.28-10a49.58,49.58,0,0,1,.88-9.45c1-6.47,0-8.75,0-8.75-3.85,7.35-12.72,3.56-12.72,3.56s-5.13,6.76,5.6,14.23,26.83,20.76,75.82,24.5,68.82-25.78,68.36-40.24C231.16,356.75,229.41,359,223.11,356.77Zm-41.2,37.44c-34.07,3.71-60.4-7.11-64.6-9.91s7.82-1.75,27.77,7.58c0,0-9.15-7-9.92-10.5s20.6,1.41,28.58,11.67c0,0,1.12-5.8,1.4-9.56s5.6,1.86,5,9.56c0,0,10.73-13.07,17.38-14.35s3.58,5.4-3.23,8.88c0,0,21.32-1.3,30.53-12.38S227.33,389.28,181.91,394.21Z"/><path class="cls-15" d="M219.05,352.52l-.08-.27S219,352.37,219.05,352.52Z"/><path class="cls-2" d="M93.17,331.69c-3.73-2.1-16.56-.46-16.56,11.44s6.29,14,6.29,14,8.87,3.79,12.72-3.56a103.18,103.18,0,0,0-2.45-11.37A19.6,19.6,0,0,1,93.17,331.69Z"/><path class="cls-2" d="M235.94,337.47c-5.07-6.65-11.43-3.68-11.43-3.68a37.29,37.29,0,0,1-2.57,8c-1.86,4.08-3.08,9-3,10.41l.08.27a6.4,6.4,0,0,0,4.06,4.25c6.3,2.22,8,0,9.57-1.16a10,10,0,0,0,3.26-3.27C236.82,350.76,241,344.12,235.94,337.47Z"/><path class="cls-8" d="M221.94,341.84a37.29,37.29,0,0,0,2.57-8c0-8.4,3-15.63-16.79-28.92s-64.32-21.19-92.7-2.4c-18.33,12.14-21.85,29.22-21.85,29.22a19.6,19.6,0,0,0,0,10.5,103.18,103.18,0,0,1,2.45,11.37s1,2.28,0,8.75a49.58,49.58,0,0,0-.88,9.45s11.6,5.3,16.28,10a34.43,34.43,0,0,1-2.63-6.12c-.7-2.63,20.83,5.84,28.87,12,0,0-4.9-6-5.25-8.82s22.73,1.4,31,11c0,0,1.24-8.4.89-10.32s7.34,3.94,7.7,10.32c0,0,7.5-17.36,32.36-14.87,1.75.17-10.49,7.87-10.49,7.87s16.35-.29,26.59-18.72c.87-1.57-1.22-10.67-1.05-11.81C218.86,350.87,220.08,345.92,221.94,341.84Z"/><path class="cls-16" d="M181.35,307c.74,1-24.19-4.85-40.47,11.72-3.27,3.33-3.55-15.28,13.84-18.46C168.83,297.7,178.38,303,181.35,307Z"/><path class="cls-12" d="M168.83,320.32a10.43,10.43,0,0,1,2.61,1.6,8,8,0,0,1,1.1,1,7.23,7.23,0,0,1,1.05,1.39,5.59,5.59,0,0,1,.71,1.79,6.91,6.91,0,0,1,.1,1,9.44,9.44,0,0,1-.14,1,8.76,8.76,0,0,1-.42,1,8.55,8.55,0,0,1-.51.78,3.73,3.73,0,0,1-1.7,1.21,4.06,4.06,0,0,1-1.82.24,5.38,5.38,0,0,1-1.53-.33,8.24,8.24,0,0,1-2-1,6.3,6.3,0,0,1-.66-.52,8.08,8.08,0,0,0,.78.27,13.9,13.9,0,0,0,2.08.48,6.62,6.62,0,0,0,1.35.06,3.72,3.72,0,0,0,1.35-.33,2.88,2.88,0,0,0,1-.84,4.72,4.72,0,0,0,.45-.72c.07-.15.16-.45.24-.66s.09-.49.13-.73a6.32,6.32,0,0,0-.06-.75,5,5,0,0,0-.47-1.45,8,8,0,0,0-.77-1.31c-.28-.41-.57-.78-.85-1.12A26.16,26.16,0,0,0,168.83,320.32Z"/><path class="cls-13" d="M125.83,358.75s2.57,6.07,10.5,6.3,12.83-8.63,12.83-8.63.09,11-10.73,11.9C126.76,369.25,125.83,358.75,125.83,358.75Z"/><path class="cls-13" d="M183.92,355.61s4.2,7.69,12.71,5.71a15.33,15.33,0,0,0,11-8.8s.46,11.93-9.33,12.88C187.54,366.46,183.92,355.61,183.92,355.61Z"/><path class="cls-17" d="M141.64,345.78c0,4.3-1.45,7.78-3.24,7.78s-3.24-3.48-3.24-7.78,1.45-7.79,3.24-7.79S141.64,341.48,141.64,345.78Z"/><path class="cls-16" d="M141,345.78c0,2.44-.82,4.42-1.84,4.42s-1.84-2-1.84-4.42.82-4.42,1.84-4.42S141,343.33,141,345.78Z"/><path class="cls-17" d="M197.19,343.24c0,4.3-1.45,7.79-3.24,7.79s-3.24-3.49-3.24-7.79,1.45-7.79,3.24-7.79S197.19,338.94,197.19,343.24Z"/><path class="cls-16" d="M196.92,343.68c0,2.44-.82,4.42-1.83,4.42s-1.84-2-1.84-4.42.82-4.42,1.84-4.42S196.92,341.24,196.92,343.68Z"/><path class="cls-12" d="M88.27,336.59s.29.23.78.66a10.8,10.8,0,0,1,1.71,2.15,9.17,9.17,0,0,1,.82,1.66,8.93,8.93,0,0,1,.55,2,7.67,7.67,0,0,1,.05,2.3,6.23,6.23,0,0,1-.77,2.32,5.32,5.32,0,0,1-1.76,1.77,4.84,4.84,0,0,1-2.25.77,3.85,3.85,0,0,1-2.24-.53,5.7,5.7,0,0,1-1.5-1.17,10.25,10.25,0,0,1-1.57-2.26,6.3,6.3,0,0,1-.41-.94s.22.3.64.79a12.26,12.26,0,0,0,1.88,1.81,6,6,0,0,0,1.42.83,3,3,0,0,0,1.61.24,3.93,3.93,0,0,0,1.7-.68A4.1,4.1,0,0,0,90.2,347a4.62,4.62,0,0,0,.64-1.8,7.09,7.09,0,0,0,.07-1.95,12.1,12.1,0,0,0-.32-1.85,11.38,11.38,0,0,0-.55-1.62,14.45,14.45,0,0,0-1.19-2.33C88.47,336.91,88.27,336.59,88.27,336.59Z"/><path class="cls-12" d="M84.65,341.36s0-.19.16-.5a3.65,3.65,0,0,1,.41-.52,2.67,2.67,0,0,1,.7-.47,2.83,2.83,0,0,1,1-.26,3.4,3.4,0,0,1,1.14.05,3.85,3.85,0,0,1,1.15.44,5.3,5.3,0,0,1,1,.77,6.31,6.31,0,0,1,.71,1,4,4,0,0,1,.42,1.1,4.58,4.58,0,0,1,.17,1.06,4.17,4.17,0,0,1,0,.94,5.25,5.25,0,0,1-.28,1.36,3.48,3.48,0,0,1-.17.49s0-.19-.1-.51c0-.16-.06-.35-.1-.57s-.11-.46-.16-.71a6.45,6.45,0,0,0-.21-.81,5.93,5.93,0,0,0-.31-.86,4.59,4.59,0,0,0-.43-.82,4.3,4.3,0,0,0-.55-.74,3.74,3.74,0,0,0-.69-.57,3.42,3.42,0,0,0-.78-.41,5,5,0,0,0-.8-.21,3.22,3.22,0,0,0-.76,0A2.72,2.72,0,0,0,85,341Z"/><path class="cls-12" d="M224.68,340.56s-.07.34-.22.93a13.58,13.58,0,0,0-.39,2.41c-.07.49,0,1,0,1.6a13.42,13.42,0,0,0,.22,1.73,9.22,9.22,0,0,0,.57,1.73,5.57,5.57,0,0,0,1,1.5,3.14,3.14,0,0,0,3,1.13,3.9,3.9,0,0,0,.78-.23,3.57,3.57,0,0,0,.68-.4,4.63,4.63,0,0,0,1-1.07,8.54,8.54,0,0,0,1.1-2.14c.21-.56.3-.9.3-.9a5.81,5.81,0,0,1,0,1,7.49,7.49,0,0,1-.68,2.49,4.76,4.76,0,0,1-1.07,1.46,4.12,4.12,0,0,1-.83.63,4.63,4.63,0,0,1-1,.4,3.76,3.76,0,0,1-2.32-.07,4.72,4.72,0,0,1-2-1.3,7.15,7.15,0,0,1-1.23-1.91,8.92,8.92,0,0,1-.54-2.07c0-.35-.08-.68-.08-1l0-1a9.38,9.38,0,0,1,.3-1.7,7.19,7.19,0,0,1,.46-1.38,9.93,9.93,0,0,1,.46-1C224.49,340.86,224.68,340.56,224.68,340.56Z"/><path class="cls-12" d="M224,348.84s-.11-.16-.28-.46a2.17,2.17,0,0,1-.27-.55,5.23,5.23,0,0,1-.22-.83,4.74,4.74,0,0,1,0-1,5.23,5.23,0,0,1,.21-1.12,5.36,5.36,0,0,1,1.24-2.14,5.49,5.49,0,0,1,1-.81,4.24,4.24,0,0,1,1.15-.52,3.25,3.25,0,0,1,1.19-.13,2.52,2.52,0,0,1,1.05.29,2,2,0,0,1,.7.53,1.39,1.39,0,0,1,.37.53c.16.33.22.5.22.5l-.42-.31a1.69,1.69,0,0,0-.5-.29,1.72,1.72,0,0,0-.64-.2,2.35,2.35,0,0,0-.75,0,4,4,0,0,0-1.61.73,4.11,4.11,0,0,0-.73.66,4.65,4.65,0,0,0-.62.77,5.86,5.86,0,0,0-.48.84,5.64,5.64,0,0,0-.33.86c-.09.28-.12.55-.19.82s0,.48-.06.71a2.94,2.94,0,0,0,0,.6C224,348.64,224,348.84,224,348.84Z"/><path class="cls-3" d="M161.49,422.91c-59.72.23-82.78-28.23-82.78-28.23s1.63,70.46,85.38,65.32,77.68-76.51,77.68-76.51S221.21,422.67,161.49,422.91Z"/><path class="cls-3" d="M242.24,357.94c-2.45-6.83-6.3-5.6-6.3-5.6a10,10,0,0,1-3.26,3.27c.46,14.46-19.37,44-68.36,40.24s-65.08-17-75.82-24.5-5.6-14.23-5.6-14.23-12.36,8.63-12.59,18.27,8.4,19.29,8.4,19.29,23.06,28.46,82.78,28.23,80.28-39.42,80.28-39.42,4.32-4.21,4.85-6.66S244.69,364.76,242.24,357.94Z"/><path class="cls-7" d="M146,401.75c2.05.13,15.28,4.67,34,0,1.58-.39,4.74,8.1,4.34,12.84s-27.44,6.11-41.66,1.38C141,415.44,144.06,401.63,146,401.75Z"/><path class="cls-4" d="M147.93,402.73c1.83.11,13.55,4.14,30.1,0,1.4-.35,4.2,7.17,3.85,11.37s-24.32,5.42-36.92,1.23C143.56,414.86,146.24,402.62,147.93,402.73Z"/><path class="cls-18" d="M178,402.73c-16.55,4.14-28.27.11-30.1,0s-4.37,12.13-3,12.6c12.6,4.19,36.57,3,36.92-1.23S179.43,402.38,178,402.73Zm.65,10.72c-.29,3.49-20.15,4.5-30.59,1-1.16-.39,1.06-10.53,2.47-10.44s11.22,3.43,24.93,0C176.65,403.74,179,410,178.68,413.45Z"/><path class="cls-7" d="M242.24,357.94c-2.45-6.83-6.3-5.6-6.3-5.6a10,10,0,0,1-3.26,3.27c.46,14.46-19.37,44-68.36,40.24s-65.08-17-75.82-24.5-5.6-14.23-5.6-14.23-12.36,8.63-12.59,18.27,8.4,19.29,8.4,19.29,23.06,28.46,82.78,28.23,80.28-39.42,80.28-39.42,4.32-4.21,4.85-6.66S244.69,364.76,242.24,357.94Zm-51.53,58C138.19,428,103.2,409.79,86.64,396.17s-11.43-27.62-2-20c17,13.61,61.42,28.35,97.26,22.75s42.6-19.24,48.43-24.67S243.23,403.78,190.71,415.91Z"/><path class="cls-7" d="M241.77,383.49s-20.56,39.18-80.28,39.42-82.78-28.23-82.78-28.23,1.63,70.46,85.38,65.32S241.77,383.49,241.77,383.49Zm-88.06,74.88C88.62,454,82.73,404.07,94.1,412c15.41,10.66,81.1,24.06,118.79,3.34C228.09,406.93,218.8,462.74,153.71,458.37Z"/><path class="cls-18" d="M338.47,26.9C322.2,35.32,288.32,67.72,277,76.24s-11.08,9.21-10.38,11.55-6.88.58-9.45,1.4-2,5.83-2,7.93-14.11,6.65-32,15.4-33.36,17.61-49.58,22.16-20.06-.7-28.22-11S125,97.47,125,97.47s26.13,6.88,34.65,3.27,8.86-36.4,6.06-38.5C132.09,37,79.87,42.88,69.84,59s-.93,38.72,14,73.83,24,40.48,24,40.48,18.08-9.8,49.69-9,43.86,5.6,56.22,12.25c0,0,37.91-19.13,72.55-43.75S365.24,65.39,368,59.44,343.55,24.27,338.47,26.9ZM316.78,96.19c-41.3,30.44-88.34,75.83-123.3,68.07-30-6.66-51.84-6.14-70-1.24-14.33,3.87-22.49-1.35-26.72-9.79-23.06-46-34.06-78-23.21-92.74s34.47-15,58.44-11,37.1,23.06,28.35,35.13-50.22-.18-50.22-.18,18.37,29.57,29,46.55,23.28,18.37,53.72,2.62,66.14-27.47,66.66-31-3.67-9.8,5.43-8.22,1.92-6,14.35-17.15,46.71-46,62.63-42.14S358.07,65.74,316.78,96.19Z"/><path class="cls-19" d="M206.37,184.54c-16.27-5.77-21.29-8.8-47.41-10.78-24.57-1.87-38.72,3.49-44,6.85.06,2.63.11,6.9,0,12.52,3.52,2.82,7.43,6.13,12.31,9.61,11,7.88,25.19,15,50.56,13.82,12.67-.61,21.94-2.13,28.13-3.82-.07-9.75.22-22.89.22-22.89Zm-45.71,28.2c-39.27-2.82-44-31.94-38.33-33.15,2.25-.48,40.11-8.64,80,5.83C206.3,186.85,199.93,215.57,160.66,212.74Z"/><path class="cls-20" d="M38.05,393.05s-.86.38-2.29,1.14a50.1,50.1,0,0,0-5.66,3.58,32.09,32.09,0,0,0-6.7,6.5,21.25,21.25,0,0,0-2.63,4.48,14,14,0,0,0-.89,2.52l-.33,1.29c-.11.44-.1.89-.17,1.33l-.14,1.34a9.81,9.81,0,0,0,0,1.33l0,1.39a11.16,11.16,0,0,0,.18,1.31l.2,1.28c.08.42.22.84.33,1.26s.23.84.36,1.25l.49,1.18a22.46,22.46,0,0,0,2.36,4.27c.44.66,1,1.22,1.4,1.81s1,1.06,1.46,1.57c1,.95,1.94,1.79,2.82,2.49s1.69,1.26,2.37,1.7a22.65,22.65,0,0,0,2.2,1.3,17.72,17.72,0,0,1-2.33-1.06c-.73-.39-1.59-.89-2.54-1.52l-1.5-1.05c-.5-.39-1-.84-1.56-1.29s-1.05-1-1.58-1.54-1.07-1.14-1.55-1.8a20.26,20.26,0,0,1-2.68-4.38c-.18-.42-.37-.83-.55-1.25s-.28-.87-.42-1.31-.28-.88-.39-1.34l-.24-1.42a15,15,0,0,1-.24-2.8,11.47,11.47,0,0,1,0-1.45l.15-1.43a11.58,11.58,0,0,1,.19-1.44l.37-1.39a14.61,14.61,0,0,1,1-2.69,21.25,21.25,0,0,1,2.89-4.7A27.65,27.65,0,0,1,26,399.85a38.3,38.3,0,0,1,3.66-2.72A30.85,30.85,0,0,1,33,395.21c1-.53,1.91-.94,2.67-1.26A23.34,23.34,0,0,1,38.05,393.05Z"/><path class="cls-20" d="M32.05,408.45,31,410.22a19.91,19.91,0,0,0-.95,2.14l-.45,1.36c-.1.49-.21,1-.32,1.54a9.27,9.27,0,0,0-.15,1.7,6.93,6.93,0,0,0,.08,1.81c0,.31.06.62.1.94s.17.61.25.93a9.08,9.08,0,0,0,.64,1.88,17,17,0,0,0,2.11,3.58l1.42,1.64a18.85,18.85,0,0,0,1.61,1.47,30.91,30.91,0,0,0,3.49,2.66c1.24.76,2.5,1.46,3.69,2.16s2.48,1.18,3.64,1.75,2.31.93,3.35,1.36,2,.81,2.87,1.09l2.24.77,1.95.71-2-.44-2.33-.54a23.37,23.37,0,0,1-3-.85c-1.08-.36-2.26-.7-3.48-1.16s-2.49-1-3.8-1.59-2.59-1.33-3.87-2.13a31,31,0,0,1-3.68-2.73,23,23,0,0,1-1.69-1.59l-1.5-1.76A17,17,0,0,1,29,423a8.6,8.6,0,0,1-.61-2.07c-.07-.35-.15-.69-.21-1s0-.69-.05-1a7.91,7.91,0,0,1,.05-2,10.15,10.15,0,0,1,.27-1.79c.16-.56.28-1.1.45-1.6s.42-.93.61-1.36a23.18,23.18,0,0,1,1.21-2.09c.39-.53.74-.92.95-1.19Z"/><path class="cls-20" d="M292.63,381.85a32.31,32.31,0,0,1,3.83,1.19,42.31,42.31,0,0,1,4.23,1.83,27.55,27.55,0,0,1,5.09,3.21,16.94,16.94,0,0,1,4.63,5.49,11.61,11.61,0,0,1,.84,8c-.2.77-.45,1.33-.67,2a15.23,15.23,0,0,1-.76,2l-1,1.95-.51,1-.61.9a33.14,33.14,0,0,1-2.57,3.56l-1.4,1.71c-.47.56-1,1.08-1.5,1.62l-1.54,1.58-1.62,1.48-1.62,1.47-1.68,1.38c-1.12.91-2.23,1.81-3.39,2.62s-2.25,1.68-3.41,2.42c-2.25,1.57-4.54,2.91-6.71,4.17L279,433.17,276,434.7c-2,.94-3.81,1.77-5.47,2.4l-2.33.89-2,.66a27.38,27.38,0,0,1-2.85.8l-1,.26,1-.33c.64-.23,1.61-.5,2.78-1l2-.77,2.26-1c.81-.35,1.66-.77,2.54-1.22s1.84-.87,2.79-1.4l3-1.62,3.12-1.84c2.11-1.32,4.32-2.74,6.55-4.29,1.13-.75,2.22-1.58,3.34-2.43s2.22-1.7,3.31-2.62l1.64-1.37,1.57-1.46,1.58-1.47,1.49-1.57c.49-.52,1-1,1.49-1.56l1.37-1.65a32,32,0,0,0,2.52-3.42l.6-.86.49-.91,1-1.8a13.62,13.62,0,0,0,.77-1.93c.22-.62.53-1.34.66-1.88a11,11,0,0,0-.57-7.31,16,16,0,0,0-4.22-5.33,36.15,36.15,0,0,0-8.92-5.39C294,382.28,292.63,381.85,292.63,381.85Z"/><path class="cls-20" d="M319.46,389.78l.64.48a18.26,18.26,0,0,1,1.73,1.45,19.94,19.94,0,0,1,2.31,2.66,17,17,0,0,1,2.2,4.05,18.71,18.71,0,0,1,.5,11.45,25.74,25.74,0,0,1-2.55,6,33.45,33.45,0,0,1-3.89,5.48,49.1,49.1,0,0,1-4.74,4.72l-2.52,2.09-2.55,1.91c-.86.59-1.7,1.19-2.54,1.74l-2.51,1.54c-1.66,1-3.21,1.88-4.7,2.63s-2.83,1.47-4.07,2-2.3,1.07-3.19,1.44l-2.81,1.17,2.69-1.42c1.72-.88,4.14-2.23,7-3.9,1.44-.81,2.94-1.79,4.54-2.81l2.41-1.62,2.47-1.77,2.48-1.92c.8-.68,1.62-1.37,2.44-2.08a48.77,48.77,0,0,0,4.54-4.66,31.66,31.66,0,0,0,3.83-5.22,24.84,24.84,0,0,0,2.5-5.69,20.33,20.33,0,0,0,.78-5.74,17.27,17.27,0,0,0-.85-5.13,19,19,0,0,0-1.89-4,19.94,19.94,0,0,0-2.08-2.76,21.47,21.47,0,0,0-1.58-1.59Z"/><path class="cls-20" d="M311.53,163.26a13.17,13.17,0,0,1-.27,1.7,17.41,17.41,0,0,1-.46,1.93c-.22.73-.4,1.6-.75,2.47s-.71,1.84-1.09,2.85a32.39,32.39,0,0,1-1.43,3.09c-.55,1-1,2.18-1.68,3.23l-2,3.2a33.83,33.83,0,0,1-2.1,3.11l-2.21,2.89c-.71.94-1.42,1.83-2.11,2.66l-2.08,2.22c-1.27,1.39-2.4,2.47-3.16,3.27l-1.22,1.2,1-1.39c.67-.86,1.59-2.13,2.76-3.59l1.88-2.35,1.93-2.76,2.08-2.92a34.45,34.45,0,0,0,2-3.1l2-3.12c.65-1,1.18-2.11,1.76-3.12s1.17-2,1.59-2.95l1.29-2.71c.4-.84.68-1.65,1-2.34a16.78,16.78,0,0,0,.7-1.83C311.37,163.87,311.53,163.26,311.53,163.26Z"/><path class="cls-20" d="M319.7,173.37a10.44,10.44,0,0,1-.3,1.09c-.22.69-.54,1.66-1,2.81-.21.58-.5,1.18-.8,1.82s-.58,1.33-1,2-.75,1.38-1.16,2.07-.84,1.4-1.3,2.09-.93,1.36-1.39,2a23.33,23.33,0,0,1-1.47,1.87l-1.43,1.7a14.7,14.7,0,0,1-1.38,1.44c-.88.86-1.67,1.53-2.19,2s-.85.74-.85.74.23-.35.66-.93,1-1.41,1.77-2.36c.38-.48.79-1,1.17-1.57l1.27-1.79c.43-.62.92-1.23,1.35-1.9l1.32-2c.95-1.31,1.72-2.73,2.56-4,.41-.64.76-1.29,1.12-1.88s.72-1.15,1-1.69c.6-1.06,1.15-1.93,1.46-2.56S319.7,173.37,319.7,173.37Z"/><path class="cls-20" d="M97.37,8.7s-.5,0-1.44,0-2.3.13-4,.29l-2.85.39L85.71,10c-1.17.31-2.42.6-3.73,1s-2.66.8-4.06,1.3-2.85,1.05-4.3,1.73-3,1.35-4.42,2.22a63,63,0,0,0-8.81,6,61.17,61.17,0,0,0-8.08,8c-1.17,1.56-2.46,3-3.55,4.67l-3.15,5c-.9,1.69-1.8,3.53-2.7,5.29a18.71,18.71,0,0,0-1.15,2.7l-1,2.72L40.22,52c-.14.46-.25.93-.37,1.39-.24.94-.48,1.86-.72,2.78a39.71,39.71,0,0,0-1,5.53,54.77,54.77,0,0,0-.32,10.64,18.57,18.57,0,0,0,.24,2.5c.11.82.22,1.63.32,2.42.23,1.58.65,3.07.94,4.53s.82,2.79,1.19,4.09L41.8,89.5l1.36,3.1c.48.94.91,1.8,1.31,2.57.84,1.53,1.54,2.7,2.05,3.49s.81,1.18.81,1.18-.32-.39-.88-1.14-1.32-1.89-2.22-3.39l-1.41-2.53-1.5-3.08-1.47-3.6c-.42-1.31-.9-2.67-1.31-4.12s-.79-3-1.06-4.58c-.13-.8-.26-1.61-.39-2.45a19.21,19.21,0,0,1-.31-2.53,49.61,49.61,0,0,1,.14-10.87,41.53,41.53,0,0,1,1-5.67c.24-.94.47-1.9.71-2.85.13-.48.23-1,.38-1.43l.51-1.4,1-2.82a19.23,19.23,0,0,1,1.15-2.77c.9-1.79,1.73-3.54,2.7-5.37l3.25-5.09c1.13-1.65,2.45-3.16,3.66-4.73a60.71,60.71,0,0,1,8.32-8.13,55.32,55.32,0,0,1,9.09-5.95c1.5-.86,3.08-1.45,4.55-2.15s3-1.12,4.39-1.65,2.83-.83,4.15-1.21,2.61-.56,3.8-.81L89,9l2.89-.28c1.75-.1,3.12-.11,4.05-.1Z"/><path class="cls-20" d="M20.73,54.25s-.24,1-.52,2.84c-.16.89-.28,2-.45,3.26s-.27,2.7-.33,4.26c0,.78-.09,1.59-.11,2.43v2.61c0,1.78.19,3.66.25,5.61.11,1,.22,1.95.33,2.94.06.5.12,1,.17,1.5l.28,1.5c.19,1,.38,2,.58,3s.53,2,.79,3,.47,2,.82,3,.69,1.94,1,2.9A48.57,48.57,0,0,0,26,98.61c.21.44.41.88.62,1.31s.48.82.7,1.23l1.37,2.38c.47.76.84,1.55,1.35,2.22s1,1.33,1.43,2l1.32,1.82a12.29,12.29,0,0,0,1.24,1.6c.84,1,1.57,1.79,2.18,2.47l1.89,2.18-2.09-2-2.38-2.31a38.69,38.69,0,0,1-2.78-3.29l-1.55-1.93a26.08,26.08,0,0,1-1.47-2.19,37.61,37.61,0,0,1-2.91-4.91,50.38,50.38,0,0,1-2.51-5.57c-.37-1-.74-2-1.1-3s-.6-2-.89-3-.57-2-.77-3.08-.35-2.07-.53-3.1c-.09-.51-.18-1-.26-1.53l-.15-1.53c-.11-1-.2-2-.3-3-.06-2-.16-3.9-.06-5.71q.06-1.36.12-2.64c.06-.85.16-1.67.23-2.46.11-1.57.41-3,.6-4.26s.46-2.36.69-3.25.42-1.59.57-2.05S20.73,54.25,20.73,54.25Z"/></g></g></g></svg>