<svg xmlns="http://www.w3.org/2000/svg" viewBox="0 0 472.01 472"><defs><style>.cls-1{fill:#231f20;}.cls-2{fill:#fff;}</style></defs><title>skier_1</title><g id="Layer_2" data-name="Layer 2"><g id="Layer_1-2" data-name="Layer 1"><path class="cls-1" d="M391.32,471c-6.18,0-16.72-6.48-33.16-20.41-21.13-17.9-109.78-99.69-181.31-166,.6,4.13,1.32,9.2,1.49,10.77a43.9,43.9,0,0,0,1.63,7.76c.64,1.58,3.81,9.44,3.67,12a20,20,0,0,1-.24,3.47c57.27,54.57,89.23,84.51,95,89s12.52,7.78,18.93,10.91c12.17,5.92,22.68,11,20.85,22.8-.66,4.22-2.1,9.06-7.47,9.06-6.15,0-16.65-6.71-33.05-21.11C241.77,397.66,6.75,170.84,4.38,168.55c-2.17-1.86-5.39-6.86-1.67-12.17,1.51-2.14,3.31-3.23,5.37-3.23a8,8,0,0,1,5.11,2.27c.41.39,42.85,41.26,93.14,89.46a12.12,12.12,0,0,1,7.57-3.14,8.81,8.81,0,0,1,1.91.22,53.62,53.62,0,0,1,6.41-8.05C97.54,211,81.28,195.83,81.28,195.83c-2.2-1.82-5.48-6.75-1.84-12.13,1.5-2.22,3.33-3.35,5.43-3.35a8,8,0,0,1,5,2.17h0s21.16,19.66,51.62,47.88c9.77-5.15,26-13.79,29.69-16.33,5.2-3.54,27.4-11.06,36.7-14.12.9-.3,2.35-.68,4.18-1.16,9.41-2.46,31.45-8.23,32.34-17.81,1.13-12,15.39-64.49,22.67-74.21,7-9.3,23.95-25.12,24.67-25.79,1.18-1.07,9.49-8.65,14.55-12.61L69.59,90.7c-.41,4.13-2.47,7.22-5.17,7.66a3.91,3.91,0,0,1-.68.06c-2.67,0-5.1-2.54-6.2-6.4l-19.27-.34,18.69-5c.26-4.44,2.35-7.79,5.23-8.26a5,5,0,0,1,.67,0c2.49,0,4.78,2.19,6,5.65l249.4-25.87.27-4c-2-.73-6.94-3.24-7.67-10.57-1-1.82-2.95-5.8-2.43-7.47l0-.14.08-.12a108.66,108.66,0,0,0,5.65-9.33c.12-.45,1-3.48,1.38-5.59.59-2.91,9.24-8.15,11.84-8.15,1,0,6.53-2.17,10.2-3.61,5.19-2,7.22-2.81,8-2.81h.13c1.26.12,6.45,2.9,8.14,4.15.85-.08,2.87-.26,5.51-.26,6,0,14.15.91,19.53,5.12,1.21-1.42,3.95-4,7.71-4a8.37,8.37,0,0,1,2.59.43c1.09.17,10.36,1.79,23.52,9.92,1.75,1.07,4.62,2.55,5.68,2.66,1.37-1.76,9.27-11.93,11.4-14.88,2.48-3.43,9.29-8.52,16-8.52a11.67,11.67,0,0,1,1.32.07c7.21.73,19.45,8.61,22.21,19.28,2.67,10.38,1.52,26.72.59,31.87l-.2,2.4,0,.11c-.11.33-2.51,7.81-6.24,10.22a9.76,9.76,0,0,1-2.59,5.33l-5.35,5.59c-2.66,2.78-4,4.16-4.33,4.52-.76,1-2.82,3.84-3.7,4.92.17,2.31.81,13.18-2,20-4.83,11.74-13.3,31.88-15.74,34.78s-7.9,11.25-8,11.33l-.27.42-4.6.33-1.49,9.93c-.18,1.19.46,5.24,1.08,9.16,1.22,7.73,1.89,12.53,1,14.07a18,18,0,0,1-1.61,2.33l.93,9.16c1.88.8,7.41,3.7,8.63,10.37.38,1.2,4.32,14.23-3.5,21.51l-.05,0-.05,0c-.33.23-8,5.69-13.66,5.69h0a7.43,7.43,0,0,1-1.45-.14h-.4c-1.53,0-6.05-.29-7.4-3.56-20.11,11.85-49.59,29.34-50.87,30.37l-.08.07-.12.06-34.1,16.91c.39,3.8-.77,7-3,8.35a4.32,4.32,0,0,1-2.24.62c-2.83,0-5.64-2.55-7.14-6.48-.07-.17-.13-.34-.19-.51-1.15.6-2,1-2.3,1.17l-41.4,17.89c.65,2.89,3.07,13.08,6.45,20.08.87,1.79,2.1,4.1,3.39,6.55,6.5,12.23,11.27,21.88,8.93,25.56l-1.48,1.95c50.27,46.14,78.48,71.56,83.86,75.57,6,4.43,12.62,7.51,19.07,10.5,12.26,5.67,22.85,10.56,21.18,22.37C398.23,466.08,396.83,471,391.32,471ZM206.86,255.74a5.22,5.22,0,0,1,1.33.82c1.77,1.4,1.78,6.26,1.6,13.51a52.48,52.48,0,0,0,.08,7.05c.06.37.3,1.57.84,1.57a4.15,4.15,0,0,0,2.45-2c1.39-2,6.61-4.37,8.62-5.21-.34-2.71-.75-6.64-.51-7.49l.11-.36.32-.21c12.11-7.66,31.77-20.49,33-22.26l.2-.46.45,0c2.91-.73,7.94-2.3,9-3.43l.14-.14.19-.08c9.47-4.12,30.23-13.08,36-15L289,198.36c-11.64,23.63-12.42,23.8-13,23.92l-1.31.17c-1.09,3-5.54,3.88-7.24,4.1-2.31,5.38-13.15,9-15.91,9.91-3.06,7.62-25.17,10.88-25.4,10.91-3.05.37-7.44,3.42-9.55,4.89l-1,.67a16.67,16.67,0,0,1-4.2,1.39A28,28,0,0,0,206.86,255.74Zm-18.52,18c.2-.19.41-.39.63-.58a3.28,3.28,0,0,1,2.25-.73,14.26,14.26,0,0,1,2.16.24,15,15,0,0,0,2.28.25,4.58,4.58,0,0,0,1-.1c1.07-.24,2.14-3.64,2.93-6.13a35.42,35.42,0,0,1,2.26-6c.34-.63.63-1.2.89-1.71s.45-.87.66-1.24c-3,1.43-7.27,2.93-8.25,3.27a20.92,20.92,0,0,1-10.61,3.13,11.13,11.13,0,0,1-.7,5.42Zm154.28-96.37c1.53,5.85,11,42.36,11.17,50.8,0,1.14.06,2.27.1,3.37.27,7.58.52,14.73-4.82,19L346,253.05c-3.27,2.62-5.86,4.69-6.18,5.05a11,11,0,0,1-1.14,1l8-4.35,51.4-33.07c-.28-1.8-.71-6.34,1.77-8.18a25.77,25.77,0,0,0-3-7.58c-1.36-2.08-9.14-15-9.14-17.58,0-3.26,0-11.51-.21-14.14-1.7-.52-5.92-2.14-7.49-5.9-1.15-2.76-.61-6,1.59-9.64-.27-1-.91-2.52-1.64-2.52-.25,0-.93.15-2.08,1.58-3.25,4-3.25,4-3.84,4h-.61l-.28-.54a14.52,14.52,0,0,0-2.15-.22,2.54,2.54,0,0,0-.39,0C368.8,162.09,351.08,172.43,342.62,177.36Z"/><path class="cls-2" d="M445.81,2c.41,0,.81,0,1.22.06,6.89.7,18.69,8.28,21.34,18.54s1.51,26.36.56,31.49l-.18,2.33s-2.55,8-6.24,9.92a8.6,8.6,0,0,1-2.36,5.24c-2.26,2.34-9.35,9.8-9.72,10.15,0,0-3.5,4.78-4,5.25,0,0,1.13,12.59-1.89,19.94s-13,31.49-15.58,34.52-8,11.43-8,11.43l-4.91.35s-1.14,7.58-1.61,10.73,3.59,20.52,2.17,22.85-1.79,2.45-1.79,2.45l1,10.27s7.27,2.44,8.59,9.91c0,0,4.44,13.41-3.21,20.52,0,0-7.72,5.51-13.08,5.51a6.7,6.7,0,0,1-1.37-.14h-.48c-1.6,0-6.63-.33-6.79-4.44l-.19.46s-50.42,29.74-51.93,31L312.67,277.6c.54,3.55-.37,6.85-2.46,8.07a3.43,3.43,0,0,1-1.74.48c-2.31,0-4.84-2.26-6.21-5.84a16.28,16.28,0,0,1-.51-1.59c-1.71.88-2.93,1.51-3.35,1.71l-42.11,18.19s2.64,12.72,6.7,21.11,15.21,26.71,12.37,31.14l-2,2.61c43.11,39.57,78.42,71.64,84.61,76.25,17.54,13.06,42.24,15.06,39.86,31.92-.67,4.7-2.11,8.35-6.53,8.35-5.3,0-14.88-5.23-32.51-20.17C337.44,431.73,247.18,348.43,175.46,282c.71,4.86,1.69,11.7,1.89,13.52,0,0,.76,5.84,1.7,8,0,0,3.78,9.22,3.59,11.55a19.6,19.6,0,0,1-.32,3.84c47.81,45.56,88.77,84.23,95.46,89.41,17.35,13.43,42,15.95,39.4,32.77-.72,4.62-2.18,8.21-6.48,8.21-5.26,0-14.78-5.39-32.39-20.86C242,396.56,5.08,167.83,5.08,167.83S-.65,162.92,3.53,157c1.5-2.14,3.11-2.81,4.55-2.81a7,7,0,0,1,4.4,2s42.66,41.08,93.82,90.12c1.34-1.26,4.18-3.5,7.6-3.5a8,8,0,0,1,2.36.37,52.19,52.19,0,0,1,7.42-9.22C98.56,210.55,82,195.1,82,195.1s-5.8-4.79-1.7-10.84c1.5-2.21,3.14-2.91,4.6-2.91a7,7,0,0,1,4.33,1.89s21.41,19.89,52.16,48.38c9.64-5.08,26.55-14.09,30.42-16.73,5.47-3.73,30.78-12.13,36.45-14s36.07-7.7,37.2-19.83,15.49-64.37,22.47-73.7,24.55-25.66,24.55-25.66S307,68.42,310,67L68.66,89.79c-.17,4-1.93,7.18-4.4,7.59a4.38,4.38,0,0,1-.52,0c-2.36,0-4.56-2.64-5.43-6.38l-12.87-.23,12.27-3.27.22-.05c0-4.19,1.85-7.63,4.42-8a2.92,2.92,0,0,1,.51,0c2.23,0,4.31,2.33,5.26,5.73l251.06-26,.37-5.6s-7-1.4-7.74-10.15c0,0-2.93-5.36-2.45-6.88,0,0,4.9-7.46,5.75-9.56,0,0,.95-3.38,1.42-5.71s8.69-7.35,10.86-7.35,16.74-6.42,18.19-6.42h0c1.23.11,7.46,3.61,7.94,4.19a51.4,51.4,0,0,1,5.81-.3c5.76,0,14.47.87,19.68,5.55,0,0,3-4.48,7.56-4.48a7.31,7.31,0,0,1,2.36.4s9.53,1.34,23.22,9.8c.51.31,4.71,2.81,6.32,2.81a.72.72,0,0,0,.48-.13s9.26-11.9,11.62-15.16C432.82,7,439.31,2,445.81,2M374,160.68s.23-.37.23-.37a22.5,22.5,0,0,0-3.27-.39,1.59,1.59,0,0,0-.89.16c-.57.47-28.61,16.79-28.61,16.79s11.14,42.34,11.33,51.32,1.32,17-4.34,21.57-9.07,7.23-9.44,7.7-9.26,7-12.28,8.39c-1.57.73-8.59,4.37-15.27,7.83.15.32.3.66.43,1h0l35.23-19.1,52-33.47s-1.41-6.76,1.8-8.16a27.83,27.83,0,0,0-3.31-8.63c-2.36-3.62-9-15-9-17,0,0,0-13.06-.28-14.93,0,0-13.13-2.91-5.76-14.57,0,0-.7-3.7-2.72-3.7-.75,0-1.69.52-2.85,2a39.13,39.13,0,0,1-3.06,3.63M183.91,263.18h-.52a10.33,10.33,0,0,1-.73,6.68l5.75,5.31a9.94,9.94,0,0,1,1.21-1.26,2.37,2.37,0,0,1,1.6-.48c1.27,0,2.88.49,4.44.49a5.74,5.74,0,0,0,1.24-.13c2.64-.58,3.58-8.39,5.85-12.59,1.62-3,2.18-4.64,3.23-4.64a2.83,2.83,0,0,1,1.58.79c2.37,1.87.67,15.86,1.33,19.94.28,1.76,1,2.41,1.82,2.41,1.09,0,2.42-1.14,3.28-2.41,1.51-2.21,8.87-5.13,8.87-5.13s-.88-7-.63-7.85c0,0,32.41-20.52,33.33-22.65,0,0,7.82-2,9.5-3.71,0,0,35.23-15.31,36.95-15.31h0l-13-26.55s-12.29,25-13.2,25.22l-1.89.23c-.57,3.61-7.18,4.08-7.18,4.08-1.7,5.83-16,10-16,10-1.79,6.53-20.87,10.26-24.74,10.73s-9.35,4.66-10.95,5.71-7.84,1.75-9.73,3.39-10.67,4.66-10.67,4.66a20.35,20.35,0,0,1-10.81,3m126.24,8.35,0-.08h0l.06.07M445.81,0C438.66,0,431.66,5.23,429,8.94c-2,2.72-8.91,11.67-11,14.34a28.63,28.63,0,0,1-4.76-2.4c-13-8-22.33-9.8-23.81-10a9.18,9.18,0,0,0-2.82-.45,11.21,11.21,0,0,0-7.84,3.71c-5.58-3.91-13.49-4.78-19.4-4.78-2.35,0-4.23.14-5.24.23-2.16-1.5-6.88-4-8.32-4.12h-.22c-.91,0-2.5.58-8.36,2.88-3.28,1.29-8.78,3.45-9.88,3.54h0c-2.58,0-12,5.33-12.77,9-.4,2-1.18,4.84-1.35,5.45-.66,1.52-3.72,6.36-5.54,9.12l-.15.24-.08.27c-.33,1-.16,3.27,2.41,8.07.71,6.43,4.63,9.7,7.59,11l-.16,2.36L69.49,83c-1.41-3.44-3.9-5.58-6.63-5.58a4.76,4.76,0,0,0-.84.07c-3.17.51-5.52,3.9-6,8.45l-11.1,3L31.09,92.55l14.31.26,11.4.2c1.32,3.89,4,6.41,6.94,6.41a4.76,4.76,0,0,0,.84-.07c3-.49,5.27-3.51,5.91-7.73L303.12,69.68c-4.72,3.91-10.43,9.11-12,10.56-.73.68-17.78,16.56-24.8,25.93-7.34,9.81-21.73,62.64-22.86,74.72-.83,8.88-23.18,14.73-31.6,16.94-1.85.48-3.32.86-4.24,1.17-11.61,3.82-31.84,10.76-36.95,14.24-2.69,1.83-13.22,7.63-29,15.95-29.51-27.35-50.43-46.78-51.11-47.41a8.87,8.87,0,0,0-5.7-2.43c-1.69,0-4.14.66-6.26,3.79-4,5.94-.45,11.37,2,13.46.91.85,16.75,15.6,40.15,37.34a57.55,57.55,0,0,0-5.45,6.91,10,10,0,0,0-1.44-.11,12.66,12.66,0,0,0-7.51,2.81C56.73,196,14.88,155.66,13.88,154.7a8.89,8.89,0,0,0-5.8-2.55c-1.65,0-4.06.63-6.19,3.66-4.1,5.85-.62,11.36,1.84,13.5,4.19,4,237.51,229.21,273.26,260.63,21.79,19.14,29.68,21.36,33.71,21.36,6.91,0,8-7.19,8.46-9.9,1.94-12.49-9.4-18-21.4-23.86-6.37-3.1-12.95-6.31-18.76-10.8s-37.53-34.22-94.54-88.55a22,22,0,0,0,.18-3.09c.1-2.64-2.57-9.48-3.74-12.33a41.82,41.82,0,0,1-1.57-7.55c-.13-1.2-.6-4.57-1.08-8,71.15,65.94,158.3,146.34,179.27,164.1,16.63,14.08,27.37,20.64,33.8,20.64,7.08,0,8.12-7.31,8.51-10.07,1.77-12.53-9.65-17.82-21.75-23.41-6.4-3-13-6-18.89-10.4-5.33-4-33.29-29.16-83.12-74.88l.88-1.16L277,352l.05-.07c2.64-4.14-2-13.62-8.88-26.57-1.3-2.44-2.52-4.74-3.38-6.52-3.07-6.36-5.35-15.43-6.19-19.06l40.6-17.53,0,0,0,0c.23-.11.66-.32,1.34-.67,1.7,4,4.74,6.59,7.86,6.59a5.44,5.44,0,0,0,2.75-.75c2.46-1.44,3.8-4.74,3.58-8.62l33.5-16.62.22-.1.16-.14c1.75-1.29,30.08-18.1,49.87-29.78,1.39,2,4.12,3.19,7.77,3.19h.32a9.47,9.47,0,0,0,1.53.13c5.83,0,13.4-5.28,14.24-5.88l.11-.07.09-.09c8.14-7.57,4.3-20.87,3.79-22.48a15.22,15.22,0,0,0-8.66-10.8l-.83-8.18a22.18,22.18,0,0,0,1.42-2.12c1.08-1.78.58-5.86-.82-14.75-.55-3.48-1.24-7.82-1.08-8.85.34-2.24,1-6.75,1.37-9.14l3.31-.24,1-.07.54-.83c.05-.08,5.44-8.33,7.88-11.23s10-20.64,15.9-35c2.75-6.68,2.3-17,2.1-20.05.83-1.07,2.23-2.95,3.43-4.59l4.29-4.48c2-2.13,4.25-4.46,5.35-5.58a10.79,10.79,0,0,0,2.78-5.45c3.74-2.77,6-9.66,6.28-10.5l.07-.22,0-.22.18-2.24c.83-4.64,2.24-21.15-.62-32.24C467.4,8.85,454.91.85,447.23.07A13.37,13.37,0,0,0,445.81,0ZM374,162.68c1.07,0,1.07,0,4.61-4.37a4.57,4.57,0,0,1,1.23-1.16,4.21,4.21,0,0,1,.64,1.33c-2.19,3.78-2.67,7.19-1.43,10.16,1.54,3.7,5.34,5.51,7.45,6.25.12,2.81.17,9.28.17,13.41,0,3.3,9.21,18,9.3,18.12a24,24,0,0,1,2.73,6.69c-2.09,2.1-2,5.94-1.73,8l-48.76,31.37,1.49-1.2c5.72-4.59,5.47-12,5.19-19.82,0-1.1-.08-2.22-.1-3.36-.17-8.25-9-42.61-11-50.3,15.92-9.27,25-14.61,27.11-15.92H371a12.69,12.69,0,0,1,1.5.13l.32.63Zm-98.57,60.69.65-.08h.09l.09,0c1.16-.25,1.5-.33,8.3-13.73,1.65-3.25,3.29-6.52,4.47-8.91l10.19,20.8c-2.45.91-7.27,2.85-17.11,7-8.93,3.79-17.76,7.62-17.85,7.66l-.37.16-.28.29c-.68.71-4.67,2.18-8.53,3.14l-1,.24-.31.73c-1.88,2-18.1,12.73-32.64,21.94l-.64.4-.21.73c-.1.36-.33,1.15.38,7.15-2.58,1.1-6.95,3.21-8.36,5.27a5.17,5.17,0,0,1-1.34,1.38,4.81,4.81,0,0,1-.13-.58,51.91,51.91,0,0,1-.07-6.86c.2-8.14.09-12.33-1.73-14.1.89-.27,1.86-.51,2.65-.71a16.08,16.08,0,0,0,4.5-1.52l1-.69c2-1.42,6.29-4.38,9.09-4.72.23,0,22-3.13,26-11.08,3.28-1.06,13-4.58,15.84-9.81,2-.32,5.85-1.29,7.27-4.1ZM195.62,262c1-.35,3.29-1.17,5.59-2.12l-.22.41a36.3,36.3,0,0,0-2.34,6.14c-.58,1.85-1.55,4.92-2.26,5.47a4.07,4.07,0,0,1-.73.06,13.5,13.5,0,0,1-2.12-.24,15.37,15.37,0,0,0-2.32-.25,4.24,4.24,0,0,0-2.88.95l-1.18-1.09-2.13-2a11.79,11.79,0,0,0,.6-4.19,21.53,21.53,0,0,0,10-3.17Z"/></g></g></svg>