<svg id="Mathematic_Background" data-name="Mathematic Background" xmlns="http://www.w3.org/2000/svg" viewBox="0 0 644 393.5">
  <defs>
    <style>
      .cls-1 {
        fill: orange;
        opacity: 0.5;
      }

      .cls-2, .cls-4 {
        fill: none;
        stroke-linecap: round;
        stroke-linejoin: round;
      }

      .cls-2 {
        stroke: #9964aa;
        stroke-width: 2px;
      }

      .cls-3 {
        fill: #9964aa;
      }

      .cls-4 {
        stroke: #000;
      }
    </style>
  </defs>
  <title>sbs_cotf2</title>
  <rect class="cls-1" x="471.16" y="146.89" width="148.03" height="200"/>
  <rect class="cls-1" x="26.42" y="246.89" width="148.03" height="100"/>
  <rect class="cls-2" x="471.16" y="46.89" width="148.03" height="300"/>
  <rect class="cls-2" x="26.42" y="46.89" width="148.03" height="300"/>
  <g>
    <path class="cls-1" d="M229.71,184.5a11.76,11.76,0,0,1,1.37-6,27.11,27.11,0,0,1,4.89-5.69,27,27,0,0,0,4.14-4.43,7.6,7.6,0,0,0,1.26-4.42,7.32,7.32,0,0,0-2.23-5.58,8.6,8.6,0,0,0-6.19-2.13,7.91,7.91,0,0,0-5.73,2.06,13,13,0,0,0-3.2,5.07L218.33,161a18.7,18.7,0,0,1,5.19-7.37,13.54,13.54,0,0,1,9.36-3.21,16.12,16.12,0,0,1,7.66,1.77,12.8,12.8,0,0,1,5.19,4.85,13.36,13.36,0,0,1,1.83,6.92,11.28,11.28,0,0,1-2,6.73,35.47,35.47,0,0,1-5.07,5.58,16.84,16.84,0,0,0-3.46,4.1,9.21,9.21,0,0,0-1.08,4.54v3h-6.26Zm-.11,17.75a4.47,4.47,0,0,1-1.33-3.28,4.56,4.56,0,0,1,4.53-4.54,4.46,4.46,0,0,1,3.28,1.34,4.33,4.33,0,0,1,1.33,3.2,4.54,4.54,0,0,1-4.61,4.61A4.4,4.4,0,0,1,229.6,202.25Z"/>
    <path d="M215.24,219.06h34.27v5H215.24Z"/>
    <path class="cls-3" d="M227.69,294.8a16.52,16.52,0,0,1-5.87-4.07,16.12,16.12,0,0,1-3.78-6.94l5.55-2.31a12.39,12.39,0,0,0,3.92,6.48,9.87,9.87,0,0,0,6.52,2.31,11.29,11.29,0,0,0,5.11-1.19,9.64,9.64,0,0,0,3.78-3.31,8.35,8.35,0,0,0,1.4-4.72,8,8,0,0,0-1.4-4.61,9.62,9.62,0,0,0-3.82-3.27,11.68,11.68,0,0,0-5.29-1.19h-4.25v-5.69h3.82A9.85,9.85,0,0,0,240,264a7.48,7.48,0,0,0,2.67-6,6.81,6.81,0,0,0-2.59-5.55,9.91,9.91,0,0,0-6.41-2.08,8.4,8.4,0,0,0-5.87,1.94,11,11,0,0,0-3.06,4.75l-5.61-2.37a15.68,15.68,0,0,1,5-7,14.26,14.26,0,0,1,9.54-3.14,17.14,17.14,0,0,1,7.77,1.73,13.36,13.36,0,0,1,5.44,4.83,12.55,12.55,0,0,1,2,6.91,10.75,10.75,0,0,1-1.94,6.48,14,14,0,0,1-4.83,4.18V269a14.26,14.26,0,0,1,6,4.65,11.9,11.9,0,0,1,2.38,7.38,14.2,14.2,0,0,1-2.2,7.77,15,15,0,0,1-6,5.4,17.85,17.85,0,0,1-8.31,2A16.88,16.88,0,0,1,227.69,294.8Z"/>
  </g>
  <g>
    <path class="cls-1" d="M416.55,184.5a11.86,11.86,0,0,1,1.37-6,27.11,27.11,0,0,1,4.89-5.69A27.55,27.55,0,0,0,427,168.4a7.66,7.66,0,0,0,1.25-4.42A7.32,7.32,0,0,0,426,158.4a8.6,8.6,0,0,0-6.19-2.13,7.87,7.87,0,0,0-5.72,2.06,13,13,0,0,0-3.21,5.07L405.17,161a18.7,18.7,0,0,1,5.19-7.37,13.54,13.54,0,0,1,9.36-3.21,16.16,16.16,0,0,1,7.67,1.77,12.78,12.78,0,0,1,5.18,4.85,13.36,13.36,0,0,1,1.84,6.92,11.28,11.28,0,0,1-2,6.73,35.57,35.57,0,0,1-5.08,5.58,17.31,17.31,0,0,0-3.46,4.1,9.21,9.21,0,0,0-1.08,4.54v3h-6.26Zm-.11,17.75a4.47,4.47,0,0,1-1.33-3.28,4.33,4.33,0,0,1,1.33-3.2,4.38,4.38,0,0,1,3.21-1.34,4.45,4.45,0,0,1,3.27,1.34,4.33,4.33,0,0,1,1.33,3.2,4.54,4.54,0,0,1-4.6,4.61A4.41,4.41,0,0,1,416.44,202.25Z"/>
    <path d="M402.08,219.06h34.27v5H402.08Z"/>
    <path class="cls-3" d="M414.54,294.8a16.43,16.43,0,0,1-5.87-4.07,15.91,15.91,0,0,1-3.78-6.94l5.54-2.31a12.46,12.46,0,0,0,3.92,6.48,9.87,9.87,0,0,0,6.52,2.31,11.29,11.29,0,0,0,5.11-1.19,9.5,9.5,0,0,0,3.78-3.31,8.36,8.36,0,0,0,1.41-4.72,8.06,8.06,0,0,0-1.41-4.61,9.59,9.59,0,0,0-3.81-3.27,11.74,11.74,0,0,0-5.29-1.19h-4.25v-5.69h3.81a9.9,9.9,0,0,0,6.63-2.27,7.51,7.51,0,0,0,2.66-6,6.78,6.78,0,0,0-2.59-5.55,9.91,9.91,0,0,0-6.41-2.08,8.4,8.4,0,0,0-5.87,1.94,11.22,11.22,0,0,0-3.06,4.75L406,254.7a15.68,15.68,0,0,1,5-7,14.26,14.26,0,0,1,9.54-3.14,17.21,17.21,0,0,1,7.78,1.73,13.4,13.4,0,0,1,5.43,4.83,12.55,12.55,0,0,1,2,6.91,10.75,10.75,0,0,1-1.94,6.48,14,14,0,0,1-4.83,4.18V269A14.26,14.26,0,0,1,435,273.6a11.84,11.84,0,0,1,2.38,7.38,14.12,14.12,0,0,1-2.2,7.77,15,15,0,0,1-6,5.4,17.9,17.9,0,0,1-8.32,2A16.87,16.87,0,0,1,414.54,294.8Z"/>
  </g>
  <rect class="cls-2" x="26.42" y="246.89" width="148.03" height="100"/>
  <rect class="cls-2" x="26.42" y="146.89" width="148.03" height="100"/>
  <rect class="cls-2" x="471.16" y="246.89" width="148.03" height="100"/>
  <rect class="cls-2" x="471.16" y="146.89" width="148.03" height="100"/>
  <g>
    <path d="M225.43,363.48a5,5,0,0,1-1.87-2.36l1.82-.82a3.71,3.71,0,0,0,1.36,1.71,3.49,3.49,0,0,0,2,.6,3.93,3.93,0,0,0,2-.47,1.47,1.47,0,0,0,.81-1.33,1.45,1.45,0,0,0-.64-1.24,6.11,6.11,0,0,0-2-.8l-1.49-.39a5.36,5.36,0,0,1-2.4-1.22,3.07,3.07,0,0,1-.3-4.09,4.05,4.05,0,0,1,1.69-1.24,6.29,6.29,0,0,1,5.15.26,4,4,0,0,1,1.79,2l-1.78.81a3,3,0,0,0-2.9-1.63,3.32,3.32,0,0,0-1.77.47,1.38,1.38,0,0,0-.75,1.19,1.32,1.32,0,0,0,.52,1.09,4.16,4.16,0,0,0,1.59.68l1.77.46a5.93,5.93,0,0,1,2.72,1.36,3,3,0,0,1,.91,2.19,3.16,3.16,0,0,1-.65,2,4.09,4.09,0,0,1-1.75,1.31,6.44,6.44,0,0,1-2.45.46A5.58,5.58,0,0,1,225.43,363.48Z"/>
    <path d="M237.43,363.88a3.85,3.85,0,0,1-2.21-3.55,3.57,3.57,0,0,1,1.47-3,6,6,0,0,1,3.69-1.09,8.43,8.43,0,0,1,2.06.24,5.31,5.31,0,0,1,1.45.55v-.74a2.75,2.75,0,0,0-1-2.2,3.6,3.6,0,0,0-2.43-.83,4,4,0,0,0-1.89.45,3.47,3.47,0,0,0-1.37,1.23l-1.54-1.15a4.91,4.91,0,0,1,2-1.73,6.32,6.32,0,0,1,2.8-.62,5.55,5.55,0,0,1,3.92,1.31,4.56,4.56,0,0,1,1.43,3.56V364h-1.94v-1.75h-.1a4.34,4.34,0,0,1-1.58,1.51,4.58,4.58,0,0,1-2.38.63A5.36,5.36,0,0,1,237.43,363.88Zm4.51-1.8a3.94,3.94,0,0,0,1.42-1.42,3.75,3.75,0,0,0,.53-1.94,5,5,0,0,0-1.42-.63,6.41,6.41,0,0,0-1.77-.24,4,4,0,0,0-2.54.7,2.24,2.24,0,0,0-.85,1.8,2,2,0,0,0,.77,1.63,3,3,0,0,0,1.94.63A3.7,3.7,0,0,0,241.94,362.08Z"/>
    <path d="M248.66,351.78h2v1.8h.09a4.55,4.55,0,0,1,3.82-2.18,4.11,4.11,0,0,1,2.34.65,3.64,3.64,0,0,1,1.43,1.72,4.94,4.94,0,0,1,1.71-1.72,4.65,4.65,0,0,1,2.49-.65,3.91,3.91,0,0,1,3.18,1.28,5.31,5.31,0,0,1,1.07,3.49V364h-2v-7.53A3.62,3.62,0,0,0,264,354a2.64,2.64,0,0,0-2.06-.76,2.82,2.82,0,0,0-1.66.52,3.69,3.69,0,0,0-1.16,1.42,4.42,4.42,0,0,0-.42,1.92V364h-2v-7.51a3.66,3.66,0,0,0-.7-2.5,2.61,2.61,0,0,0-2-.76,2.74,2.74,0,0,0-1.65.54,3.62,3.62,0,0,0-1.17,1.44,4.5,4.5,0,0,0-.42,1.93V364h-2Z"/>
    <path d="M272,363.57a5.85,5.85,0,0,1-2.17-2.32,7,7,0,0,1-.78-3.32,7.3,7.3,0,0,1,.73-3.27,6,6,0,0,1,2.07-2.37,5.56,5.56,0,0,1,3.12-.89,5.93,5.93,0,0,1,3.12.8,5.38,5.38,0,0,1,2,2.22,7.21,7.21,0,0,1,.71,3.24,2.38,2.38,0,0,1-.07.63h-9.67a4.77,4.77,0,0,0,.67,2.35,4,4,0,0,0,1.52,1.44,4.15,4.15,0,0,0,1.93.48,4,4,0,0,0,3.63-2.21l1.73.84a6.18,6.18,0,0,1-2.15,2.35,6.45,6.45,0,0,1-6.42,0Zm6.67-7a4,4,0,0,0-.43-1.54,3.4,3.4,0,0,0-1.21-1.3,3.85,3.85,0,0,0-2.08-.52,3.45,3.45,0,0,0-2.44.92,4.43,4.43,0,0,0-1.3,2.44Z"/>
    <path d="M291,363.57a6,6,0,0,1-2.1-2.32,7.72,7.72,0,0,1,0-6.68,6,6,0,0,1,2.1-2.33,5.46,5.46,0,0,1,3-.84,4.92,4.92,0,0,1,2.52.64,4.64,4.64,0,0,1,1.68,1.57h.09l-.09-1.71v-5.06h2V364h-1.95v-1.8h-.09a4.77,4.77,0,0,1-1.68,1.55,5,5,0,0,1-2.52.64A5.46,5.46,0,0,1,291,363.57Zm5.21-1.59a4.21,4.21,0,0,0,1.49-1.63,5.62,5.62,0,0,0,0-4.89,4.24,4.24,0,0,0-1.49-1.64,3.78,3.78,0,0,0-4,0,4.08,4.08,0,0,0-1.5,1.65,5.49,5.49,0,0,0,0,4.87,4,4,0,0,0,1.5,1.64,3.72,3.72,0,0,0,4,0Z"/>
    <path d="M305.38,363.57a5.87,5.87,0,0,1-2.18-2.32,7,7,0,0,1-.78-3.32,7.43,7.43,0,0,1,.73-3.27,5.9,5.9,0,0,1,2.08-2.37,5.56,5.56,0,0,1,3.12-.89,5.93,5.93,0,0,1,3.12.8,5.38,5.38,0,0,1,2,2.22,7.21,7.21,0,0,1,.71,3.24,2.88,2.88,0,0,1-.07.63h-9.68a4.78,4.78,0,0,0,.68,2.35,3.81,3.81,0,0,0,1.52,1.44,4.12,4.12,0,0,0,1.93.48,4,4,0,0,0,3.63-2.21l1.72.84a6.08,6.08,0,0,1-2.14,2.35,6.45,6.45,0,0,1-6.42,0Zm6.67-7a3.86,3.86,0,0,0-.44-1.54,3.25,3.25,0,0,0-1.21-1.3,3.79,3.79,0,0,0-2.07-.52,3.45,3.45,0,0,0-2.44.92,4.5,4.5,0,0,0-1.31,2.44Z"/>
    <path d="M316.58,351.78h1.95v1.8h.09a4.07,4.07,0,0,1,1.61-1.54,4.59,4.59,0,0,1,2.35-.64,4.37,4.37,0,0,1,3.38,1.28,5,5,0,0,1,1.16,3.49V364h-2v-7.53a3.27,3.27,0,0,0-.82-2.48,3.11,3.11,0,0,0-2.23-.76,2.94,2.94,0,0,0-1.76.55,3.65,3.65,0,0,0-1.21,1.45,4.29,4.29,0,0,0-.44,1.88V364h-2Z"/>
    <path d="M332.45,363.54a6.05,6.05,0,0,1-2.25-2.35,7.17,7.17,0,0,1,0-6.58,6.12,6.12,0,0,1,2.25-2.35,6.53,6.53,0,0,1,6.48,0,6.1,6.1,0,0,1,2.24,2.35,7.09,7.09,0,0,1,0,6.58,6,6,0,0,1-2.24,2.35,6.47,6.47,0,0,1-6.48,0Zm5.34-1.54a4.2,4.2,0,0,0,1.56-1.62,5.49,5.49,0,0,0,0-4.95,4.2,4.2,0,0,0-1.56-1.62,4.24,4.24,0,0,0-4.21,0,4.24,4.24,0,0,0-1.58,1.62,5.57,5.57,0,0,0,0,4.95,4.24,4.24,0,0,0,1.58,1.62,4.24,4.24,0,0,0,4.21,0Z"/>
    <path d="M344.11,351.78h1.94v1.8h.1a4.3,4.3,0,0,1,1.58-1.56,4.4,4.4,0,0,1,2.24-.62,4.16,4.16,0,0,1,2.34.65,3.56,3.56,0,0,1,1.42,1.72,5.05,5.05,0,0,1,1.72-1.72,4.61,4.61,0,0,1,2.48-.65,3.91,3.91,0,0,1,3.18,1.28,5.26,5.26,0,0,1,1.07,3.49V364h-2v-7.53a3.67,3.67,0,0,0-.7-2.48,2.64,2.64,0,0,0-2.06-.76,2.82,2.82,0,0,0-1.66.52,3.61,3.61,0,0,0-1.16,1.42,4.42,4.42,0,0,0-.42,1.92V364h-2v-7.51a3.71,3.71,0,0,0-.7-2.5,2.61,2.61,0,0,0-2-.76,2.77,2.77,0,0,0-1.66.54,3.69,3.69,0,0,0-1.16,1.44,4.5,4.5,0,0,0-.42,1.93V364h-2Z"/>
    <path d="M365.28,349.09a1.38,1.38,0,0,1-.43-1,1.36,1.36,0,0,1,.43-1,1.47,1.47,0,0,1,2.06,0,1.36,1.36,0,0,1,.43,1,1.41,1.41,0,0,1-.42,1,1.38,1.38,0,0,1-1,.44A1.41,1.41,0,0,1,365.28,349.09Zm0,2.69h2V364h-2Z"/>
    <path d="M370.53,351.78h2v1.8h.09a4.13,4.13,0,0,1,1.61-1.54,4.59,4.59,0,0,1,2.35-.64,4.35,4.35,0,0,1,3.38,1.28,5,5,0,0,1,1.16,3.49V364h-2v-7.53a3.27,3.27,0,0,0-.82-2.48,3.11,3.11,0,0,0-2.23-.76,3,3,0,0,0-1.76.55,3.65,3.65,0,0,0-1.21,1.45,4.29,4.29,0,0,0-.44,1.88V364h-2Z"/>
    <path d="M385.39,363.88a3.85,3.85,0,0,1-2.21-3.55,3.57,3.57,0,0,1,1.47-3,6,6,0,0,1,3.69-1.09,8.43,8.43,0,0,1,2.06.24,5.31,5.31,0,0,1,1.45.55v-.74a2.75,2.75,0,0,0-1-2.2,3.6,3.6,0,0,0-2.43-.83,4,4,0,0,0-1.89.45,3.47,3.47,0,0,0-1.37,1.23l-1.54-1.15a4.91,4.91,0,0,1,2-1.73,6.32,6.32,0,0,1,2.8-.62,5.55,5.55,0,0,1,3.92,1.31,4.6,4.6,0,0,1,1.43,3.56V364h-1.94v-1.75h-.1a4.34,4.34,0,0,1-1.58,1.51,4.58,4.58,0,0,1-2.38.63A5.3,5.3,0,0,1,385.39,363.88Zm4.51-1.8a3.94,3.94,0,0,0,1.42-1.42,3.75,3.75,0,0,0,.53-1.94,5,5,0,0,0-1.42-.63,6.41,6.41,0,0,0-1.77-.24,4,4,0,0,0-2.54.7,2.21,2.21,0,0,0-.85,1.8A2,2,0,0,0,386,362a3,3,0,0,0,1.94.63A3.7,3.7,0,0,0,389.9,362.08Z"/>
    <path d="M399.71,364a3,3,0,0,1-1.07-.64,3,3,0,0,1-.72-1.06,4,4,0,0,1-.24-1.46v-7.18h-2.14v-1.85h2.14v-3.45h2v3.45h3v1.85h-3v6.67a2.42,2.42,0,0,0,.38,1.49,1.67,1.67,0,0,0,1.32.53,2.53,2.53,0,0,0,1.35-.41v2a3.46,3.46,0,0,1-.73.24,5.05,5.05,0,0,1-1,.07A3.85,3.85,0,0,1,399.71,364Z"/>
    <path d="M407,363.54a6,6,0,0,1-2.24-2.35,7.09,7.09,0,0,1,0-6.58,6,6,0,0,1,2.24-2.35,6.53,6.53,0,0,1,6.48,0,6,6,0,0,1,2.24,2.35,7.09,7.09,0,0,1,0,6.58,6,6,0,0,1-2.24,2.35,6.47,6.47,0,0,1-6.48,0Zm5.34-1.54a4.2,4.2,0,0,0,1.56-1.62,5.49,5.49,0,0,0,0-4.95,4.2,4.2,0,0,0-1.56-1.62,4.24,4.24,0,0,0-4.21,0,4.15,4.15,0,0,0-1.57,1.62,5.49,5.49,0,0,0,0,4.95,4.15,4.15,0,0,0,1.57,1.62,4.24,4.24,0,0,0,4.21,0Z"/>
    <path d="M418.7,351.78h1.95v2h.09a3.3,3.3,0,0,1,1.4-1.67,4.07,4.07,0,0,1,3.6-.42v2.21a3.92,3.92,0,0,0-1.73-.38,2.8,2.8,0,0,0-1.63.5,3.57,3.57,0,0,0-1.19,1.36,3.87,3.87,0,0,0-.45,1.83V364h-2Z"/>
    <path d="M428.21,363.48a5,5,0,0,1-1.87-2.36l1.82-.82a3.65,3.65,0,0,0,1.36,1.71,3.49,3.49,0,0,0,2,.6,3.89,3.89,0,0,0,2-.47,1.5,1.5,0,0,0,.17-2.57,5.93,5.93,0,0,0-2-.8l-1.49-.39a5.46,5.46,0,0,1-2.4-1.22,3.1,3.1,0,0,1-.3-4.09,4.09,4.09,0,0,1,1.7-1.24,6.27,6.27,0,0,1,5.14.26,4,4,0,0,1,1.79,2l-1.77.81a3,3,0,0,0-2.91-1.63,3.28,3.28,0,0,0-1.76.47,1.37,1.37,0,0,0-.76,1.19,1.33,1.33,0,0,0,.53,1.09,4.11,4.11,0,0,0,1.58.68l1.78.46a5.89,5.89,0,0,1,2.71,1.36,3,3,0,0,1,.91,2.19,3.15,3.15,0,0,1-.64,2,4.13,4.13,0,0,1-1.76,1.31,6.39,6.39,0,0,1-2.44.46A5.56,5.56,0,0,1,428.21,363.48Z"/>
  </g>
  <g>
    <line class="cls-4" x1="307.1" y1="341.27" x2="264.88" y2="299.05"/>
    <polygon points="268.57 298.55 265.58 299.75 264.38 302.74 261.5 295.68 268.57 298.55"/>
  </g>
  <g>
    <line class="cls-4" x1="348.4" y1="341.27" x2="390.62" y2="299.05"/>
    <polygon points="391.12 302.74 389.92 299.75 386.93 298.55 393.99 295.68 391.12 302.74"/>
  </g>
</svg>
