<svg id="Layer_1" data-name="Layer 1" xmlns="http://www.w3.org/2000/svg" viewBox="0 0 422.95 215.75"><defs><style>.cls-1{fill:#00fefe;}.cls-2{fill:#010101;}.cls-3{fill:#040404;}.cls-4{fill:#fdfdfd;}</style></defs><title>slopehintimg1</title><path class="cls-1" d="M332.32,3.39c-.33,1.63-1.59,2.33-2.95,3-12.93,6.45-25.93,12.78-38.76,19.43-15.43,8-31.17,15.43-46.56,23.5-14.8,7.76-29.92,14.86-44.7,22.63C184,80,168.34,87.32,153,95.38c-14.7,7.73-29.74,14.79-44.45,22.51-15.32,8-31,15.37-46.33,23.4C47.46,149,32.38,156.23,17.55,163.9c-1.45.75-2.83,1.67-4.31,2.36-1.24.59-2.76,1.09-3.53-.57-.7-1.51.09-2.51,1.62-3.27,16.08-8.07,32.18-16.1,48.16-24.37,15.45-8,31.18-15.41,46.57-23.49,14.71-7.73,29.75-14.8,44.46-22.52,15.32-8,31-15.36,46.33-23.39,14.79-7.76,29.91-14.86,44.69-22.63,15.31-8.05,31-15.38,46.32-23.41C301,15.69,314.45,9.25,327.7,2.47a5.7,5.7,0,0,1,2.68-.87C331.69,1.61,331.89,2.59,332.32,3.39Z"/><path d="M20.66,195.06l-9.46-4.72,9.47-4.77c-.65,3,.75,3.24,3,3.23q55.59-.12,111.19,0c.85,0,2.33-1,2.61,1.06s-1,2.08-2.48,2.08q-55.59,0-111.19-.07C21.68,191.87,20,191.86,20.66,195.06Z"/><path class="cls-2" d="M321.3,185.9l9.51,4.87a73.35,73.35,0,0,1-9.33,4.59c.49-2.84-.92-3.07-3.17-3.06-16.46,0-32.92,0-49.37-.12q-21.52-.1-43-.27c-1.15,0-2.42.45-2.36-1.68s1.28-1.48,2.29-1.47q34.32.11,68.64.25c7.92,0,15.84.05,23.75.21C320.48,189.27,322.17,189.2,321.3,185.9Z"/><path d="M408.15,85.15c-2.73,0-5.46.15-8.18-.05-2.23-.16-2.24.92-1.8,2.48A8.34,8.34,0,0,0,404.52,94a8.13,8.13,0,0,0,8.55-2.73c.56-.65.79-1.75,2.22-1.21,2.7,1,2.89,1.46,1,3.71-3.62,4.21-8.3,5.16-13.39,3.86s-8-5-9-10a15.61,15.61,0,0,1,1.19-10A12.39,12.39,0,0,1,409.69,71c5.35,1.43,9.05,6.89,8.71,12.66-.07,1.16-.43,1.49-1.54,1.47C414,85.11,411.05,85.15,408.15,85.15Z"/><path class="cls-2" d="M185,204.14a10.59,10.59,0,0,1-9.07,4.39c-5.16-.18-8.66-3.39-8.84-8.56-.18-5.54,0-11.08-.1-16.62,0-1.76,1-1.52,2-1.47s2.33-.49,2.28,1.51c-.12,4.57-.07,9.14,0,13.72,0,4.95,1.77,7.24,5.52,7.51,4.06.29,7.35-2.32,8-6.73s.16-9.13.24-13.7c0-1.38-.19-2.5,1.94-2.4,1.79.08,2.36.46,2.33,2.34-.12,7.12-.08,14.25,0,21.37,0,1.51-.07,2.42-2,2.34-1.64-.06-2.44-.37-2.13-2.15A8.08,8.08,0,0,0,185,204.14Z"/><path d="M199.54,185.75c3-3.56,6.24-5.05,10.33-4.52,4.49.57,7.45,3.32,7.76,8.21.36,5.7.15,11.43.18,17.15,0,2.18-1.64.92-2.52,1.14s-1.85.21-1.82-1.35c.1-4.57,0-9.15,0-13.72,0-5.19-1.8-7.48-5.94-7.62a7.46,7.46,0,0,0-7.7,7.6c-.12,4.4-.16,8.81,0,13.2.1,2.09-1,1.89-2.35,2-1.59.1-2.08-.32-2.06-2,.11-7.21.06-14.43,0-21.64,0-1.42-.11-2.44,2-2.39,1.85.05,2.28.68,2.07,2.28A15.34,15.34,0,0,0,199.54,185.75Z"/><path d="M380.4,98.07c-4.52,0-8-1.41-10.34-5.12-.36-.59-1.51-1.58-.1-2,1.11-.34,2.28-2.56,3.66-.25,1.93,3.24,5,4,8.42,3.41,1.86-.32,3.64-1,3.84-3.34s-1.34-3.16-3.06-3.75c-2.15-.73-4.39-1.21-6.57-1.86-4.16-1.26-6.41-4-6.21-7.44.19-3.27,3-6.12,7-6.79,4.18-.71,8.09-.15,11.14,3.12.54.58,2.14,1.52.6,2.43-1,.59-2.19,2.23-3.78.27a7.13,7.13,0,0,0-8.42-1.61,3.26,3.26,0,0,0-2.21,2.71,2.92,2.92,0,0,0,2.1,3c2.4.84,4.88,1.43,7.3,2.18,4.71,1.45,6.93,4.38,6.37,8.35-.49,3.49-3.85,6.1-8.47,6.58Z"/><path d="M371.06,11.71c-.4-.87.14-1.26.34-1.68,1.19-2.49,2.47-4.93,3.93-7.79.89,1.75,1.63,3.19,2.35,4.64s1.47,3,2.36,4.78c-3.31-.74-3.17,1.16-3.16,3.3.06,14.17,0,28.33,0,42.49,0,1.11.52,2.42-1.63,2.4s-1.5-1.48-1.51-2.5V14.86C373.75,12.91,374.29,10.6,371.06,11.71Z"/><path d="M380.75,154.33,375.93,164l-4.79-9.56c3.07.63,3.18-.91,3.17-3-.08-14.36-.05-28.72,0-43.08,0-.75-.74-2,1-2.13,1.4-.06,2.2,0,2.17,1.87-.12,8.72-.05,17.44-.05,26.16,0,5.81.14,11.63-.07,17.44C377.29,154.12,378,154.94,380.75,154.33Z"/><path d="M344.68,75.36c2-3.14,4.52-4.64,7.84-4.68,2,0,3.24.5,2.82,2.83a13.35,13.35,0,0,0,0,2c-2.23-.34-4.38-1-6.4.15a7.92,7.92,0,0,0-4.16,7.16c0,4.23-.13,8.46,0,12.67.09,2-1,1.75-2.25,1.81s-2.19,0-2.16-1.88c.13-7.31.07-14.62,0-21.92,0-1.36,0-2.36,1.86-2.18,1.43.13,2.68,0,2.3,2A11.61,11.61,0,0,0,344.68,75.36Z"/><path d="M152.31,185.8c2-3.11,4.5-4.61,7.82-4.65,2,0,3.24.5,2.81,2.84a13.35,13.35,0,0,0,0,2c-2.23-.34-4.39-1-6.4.15a7.89,7.89,0,0,0-4.16,7.16c0,4.23-.14,8.46,0,12.68.08,2-1,1.74-2.26,1.8s-2.19,0-2.16-1.89c.13-7.21.06-14.43.06-21.65,0-1.27-.44-2.6,1.84-2.47,1.79.1,2.62.43,2.3,2.33A8.09,8.09,0,0,0,152.31,185.8Z"/><path d="M364.23,84.62c0,3.69-.12,7.39,0,11.07.09,1.91-1,1.67-2.13,1.6s-2.29.55-2.26-1.47q.14-11.47,0-22.94c0-2,1.27-1.4,2.27-1.47s2.2-.27,2.12,1.61C364.12,76.89,364.23,80.76,364.23,84.62Z"/><path class="cls-3" d="M365.2,63.57c-.36,1.82-1.26,3.09-3.15,3.05A2.88,2.88,0,0,1,359,63.94a2.34,2.34,0,0,1,0-.53c.07-1.87,1.31-2.81,3.17-2.79S364.85,62,365.2,63.57Z"/><path class="cls-4" d="M405.86,81.55h-6.31c-.92,0-1.44,0-1.09-1.3a7.74,7.74,0,0,1,7.33-5.68c4-.07,6.72,1.84,7.79,5.27.39,1.25.28,1.77-1.16,1.72C410.23,81.49,408,81.55,405.86,81.55Z"/></svg>