<svg id="Mathematic_Background" data-name="Mathematic Background" xmlns="http://www.w3.org/2000/svg" viewBox="0 0 644 393.5">
  <defs>
    <style>
      .cls-1 {
        fill: orange;
        opacity: 0.5;
      }

      .cls-2 {
        fill: #9964aa;
      }

      .cls-3, .cls-4 {
        fill: none;
        stroke-linecap: round;
        stroke-linejoin: round;
      }

      .cls-3 {
        stroke: #9964aa;
        stroke-width: 2px;
      }

      .cls-4 {
        stroke: #000;
      }
    </style>
  </defs>
  <title>sbs_cotf4</title>
  <g>
    <path class="cls-1" d="M218.48,197c1.48-1.48,4.44-4.47,8.85-9s7.49-7.67,9.22-9.54a39.82,39.82,0,0,0,5-6.19,10.63,10.63,0,0,0,1.29-5.4,8,8,0,0,0-1.11-4.07,8.47,8.47,0,0,0-3.24-3.09,10.18,10.18,0,0,0-5.08-1.19,8.54,8.54,0,0,0-6.23,2.27,10.77,10.77,0,0,0-3.06,4.93l-5.61-2.24a16.19,16.19,0,0,1,7.63-9,15.11,15.11,0,0,1,7.49-1.76,16.21,16.21,0,0,1,8,1.94,14.32,14.32,0,0,1,5.43,5.18,13.31,13.31,0,0,1,1.94,7q0,7.56-7.92,15.62l-14.76,14.83h23.26v5.83h-31.1Z"/>
    <path d="M215.24,219.06h34.27v5H215.24Z"/>
    <path class="cls-2" d="M229.71,276.3a11.79,11.79,0,0,1,1.37-6,27.11,27.11,0,0,1,4.89-5.69,27,27,0,0,0,4.14-4.42,7.67,7.67,0,0,0,1.26-4.43,7.32,7.32,0,0,0-2.23-5.58,8.6,8.6,0,0,0-6.19-2.13,7.91,7.91,0,0,0-5.73,2.06,13,13,0,0,0-3.2,5.07l-5.69-2.37a18.66,18.66,0,0,1,5.19-7.38,13.54,13.54,0,0,1,9.36-3.21,16.24,16.24,0,0,1,7.66,1.76,12.85,12.85,0,0,1,5.19,4.87,13.29,13.29,0,0,1,1.83,6.91,11.28,11.28,0,0,1-2,6.73,35.47,35.47,0,0,1-5.07,5.58,16.84,16.84,0,0,0-3.46,4.1,9.21,9.21,0,0,0-1.08,4.54v3h-6.26ZM229.6,294a4.41,4.41,0,0,1-1.33-3.27,4.56,4.56,0,0,1,4.53-4.54,4.46,4.46,0,0,1,3.28,1.34,4.33,4.33,0,0,1,1.33,3.2,4.41,4.41,0,0,1-1.33,3.27,4.46,4.46,0,0,1-3.28,1.34A4.38,4.38,0,0,1,229.6,294Z"/>
  </g>
  <g>
    <path class="cls-1" d="M405.32,197q2.24-2.22,8.85-9t9.22-9.54a39.22,39.22,0,0,0,5-6.19,10.63,10.63,0,0,0,1.3-5.4,8,8,0,0,0-1.12-4.07,8.47,8.47,0,0,0-3.24-3.09,10.18,10.18,0,0,0-5.08-1.19,8.5,8.5,0,0,0-6.22,2.27,10.71,10.71,0,0,0-3.07,4.93l-5.61-2.24a16.19,16.19,0,0,1,7.63-9,15.11,15.11,0,0,1,7.49-1.76,16.21,16.21,0,0,1,8,1.94,14.25,14.25,0,0,1,5.43,5.18,13.32,13.32,0,0,1,2,7q0,7.56-7.92,15.62l-14.76,14.83h23.25v5.83h-31.1Z"/>
    <path d="M402.08,219.06h34.27v5H402.08Z"/>
    <path class="cls-2" d="M416.55,276.3a11.89,11.89,0,0,1,1.37-6,27.11,27.11,0,0,1,4.89-5.69,27.56,27.56,0,0,0,4.15-4.42,7.74,7.74,0,0,0,1.25-4.43A7.32,7.32,0,0,0,426,250.2a8.6,8.6,0,0,0-6.19-2.13,7.87,7.87,0,0,0-5.72,2.06,13,13,0,0,0-3.21,5.07l-5.69-2.37a18.66,18.66,0,0,1,5.19-7.38,13.54,13.54,0,0,1,9.36-3.21,16.28,16.28,0,0,1,7.67,1.76,12.82,12.82,0,0,1,5.18,4.87,13.3,13.3,0,0,1,1.84,6.91,11.28,11.28,0,0,1-2,6.73,35.57,35.57,0,0,1-5.08,5.58,17.31,17.31,0,0,0-3.46,4.1,9.21,9.21,0,0,0-1.08,4.54v3h-6.26ZM416.44,294a4.41,4.41,0,0,1-1.33-3.27,4.33,4.33,0,0,1,1.33-3.2,4.38,4.38,0,0,1,3.21-1.34,4.45,4.45,0,0,1,3.27,1.34,4.33,4.33,0,0,1,1.33,3.2,4.58,4.58,0,0,1-7.81,3.27Z"/>
  </g>
  <g>
    <rect class="cls-1" x="471.16" y="296.93" width="148.03" height="49.96"/>
    <rect class="cls-1" x="471.16" y="246.89" width="148.03" height="49.96"/>
    <rect class="cls-3" x="471.16" y="46.89" width="148.03" height="300"/>
    <rect class="cls-3" x="471.16" y="296.93" width="148.03" height="49.96"/>
    <rect class="cls-3" x="471.16" y="246.97" width="148.03" height="49.96"/>
    <rect class="cls-3" x="471.16" y="196.86" width="148.03" height="49.96"/>
    <rect class="cls-3" x="471.16" y="146.75" width="148.03" height="49.96"/>
    <rect class="cls-3" x="471.16" y="96.79" width="148.03" height="49.96"/>
  </g>
  <g>
    <rect class="cls-1" x="26.42" y="146.89" width="148.03" height="200"/>
    <rect class="cls-3" x="26.42" y="46.89" width="148.03" height="300"/>
    <rect class="cls-3" x="26.42" y="246.89" width="148.03" height="100"/>
    <rect class="cls-3" x="26.42" y="146.89" width="148.03" height="100"/>
  </g>
  <g>
    <path d="M234.43,93.09a5.09,5.09,0,0,1-1.87-2.37l1.82-.81a3.73,3.73,0,0,0,1.36,1.7,3.49,3.49,0,0,0,2,.6,3.83,3.83,0,0,0,2-.47,1.5,1.5,0,0,0,.17-2.56,6.09,6.09,0,0,0-2-.81L236.33,88a5.27,5.27,0,0,1-2.4-1.23,3.07,3.07,0,0,1-.3-4.09,4,4,0,0,1,1.69-1.23,6.19,6.19,0,0,1,5.15.26,4,4,0,0,1,1.79,1.94l-1.78.82a3,3,0,0,0-2.9-1.63,3.23,3.23,0,0,0-1.77.47,1.36,1.36,0,0,0-.75,1.18,1.34,1.34,0,0,0,.52,1.1,4.32,4.32,0,0,0,1.59.68l1.77.46a5.83,5.83,0,0,1,2.72,1.35,3,3,0,0,1,.91,2.2,3.2,3.2,0,0,1-.65,2,4.18,4.18,0,0,1-1.75,1.31,6.44,6.44,0,0,1-2.45.45A5.65,5.65,0,0,1,234.43,93.09Z"/>
    <path d="M246.43,93.48a3.85,3.85,0,0,1-2.21-3.55,3.56,3.56,0,0,1,1.47-3,6,6,0,0,1,3.69-1.1,8.43,8.43,0,0,1,2.06.24,5.28,5.28,0,0,1,1.45.56v-.75a2.74,2.74,0,0,0-1-2.19,3.55,3.55,0,0,0-2.43-.83,4.14,4.14,0,0,0-1.89.44,3.49,3.49,0,0,0-1.37,1.24l-1.54-1.15a4.84,4.84,0,0,1,2-1.73,6.19,6.19,0,0,1,2.8-.63,5.59,5.59,0,0,1,3.92,1.31,4.57,4.57,0,0,1,1.43,3.57v7.75h-1.94V91.88h-.1a4.42,4.42,0,0,1-1.58,1.51,4.67,4.67,0,0,1-2.38.62A5.23,5.23,0,0,1,246.43,93.48Zm4.51-1.8a3.92,3.92,0,0,0,1.42-1.41,3.76,3.76,0,0,0,.53-2,5.33,5.33,0,0,0-1.42-.62,6.41,6.41,0,0,0-1.77-.24,3.93,3.93,0,0,0-2.54.7,2.23,2.23,0,0,0-.85,1.8,2,2,0,0,0,.77,1.63,3,3,0,0,0,1.94.62A3.61,3.61,0,0,0,250.94,91.68Z"/>
    <path d="M257.66,81.39h1.95v1.8h.09a4.18,4.18,0,0,1,1.59-1.56,4.28,4.28,0,0,1,2.23-.63,4.19,4.19,0,0,1,2.34.65,3.66,3.66,0,0,1,1.43,1.73A5,5,0,0,1,269,81.65a4.74,4.74,0,0,1,2.49-.65,3.89,3.89,0,0,1,3.18,1.29,5.29,5.29,0,0,1,1.07,3.49v7.85h-2V86.09a3.59,3.59,0,0,0-.7-2.47,2.64,2.64,0,0,0-2.06-.77,2.83,2.83,0,0,0-1.66.53,3.55,3.55,0,0,0-1.16,1.42,4.42,4.42,0,0,0-.42,1.92v6.91h-2V86.12a3.63,3.63,0,0,0-.7-2.5,2.61,2.61,0,0,0-2-.77,2.74,2.74,0,0,0-1.65.54,3.62,3.62,0,0,0-1.17,1.44,4.53,4.53,0,0,0-.42,1.93v6.87h-2Z"/>
    <path d="M281,93.17a5.82,5.82,0,0,1-2.17-2.31,7.05,7.05,0,0,1-.78-3.33,7.25,7.25,0,0,1,.73-3.26,6,6,0,0,1,2.07-2.38,5.56,5.56,0,0,1,3.12-.89,5.85,5.85,0,0,1,3.12.81,5.26,5.26,0,0,1,2,2.22,7.15,7.15,0,0,1,.71,3.24,2.25,2.25,0,0,1-.07.62h-9.67a4.74,4.74,0,0,0,.67,2.35,4,4,0,0,0,1.52,1.44,4.15,4.15,0,0,0,1.93.48,4,4,0,0,0,3.63-2.2l1.73.84a6.25,6.25,0,0,1-2.15,2.35,6,6,0,0,1-3.28.86A6,6,0,0,1,281,93.17Zm6.67-7a4,4,0,0,0-.43-1.53,3.26,3.26,0,0,0-1.21-1.3,3.85,3.85,0,0,0-2.08-.53,3.46,3.46,0,0,0-2.44.93,4.37,4.37,0,0,0-1.3,2.43Z"/>
    <path d="M297.74,81.39h1.95v1.8h.09a4.15,4.15,0,0,1,1.61-1.55,4.69,4.69,0,0,1,2.35-.64,4.32,4.32,0,0,1,3.38,1.29,5,5,0,0,1,1.16,3.49v7.85h-2V86.09a3.24,3.24,0,0,0-.82-2.47,3.11,3.11,0,0,0-2.23-.77,3,3,0,0,0-1.76.55,3.68,3.68,0,0,0-1.21,1.46,4.25,4.25,0,0,0-.44,1.88v6.89h-2Z"/>
    <path d="M312.28,92.72a5.25,5.25,0,0,1-1.17-3.63v-7.7h2v7.39a3.63,3.63,0,0,0,.79,2.57,2.86,2.86,0,0,0,2.14.81,3.17,3.17,0,0,0,1.84-.55,3.76,3.76,0,0,0,1.24-1.44,4.06,4.06,0,0,0,.45-1.87V81.39h2V93.63H319.7V91.85h-.09A4.07,4.07,0,0,1,318,93.39a4.77,4.77,0,0,1-2.35.62A4.3,4.3,0,0,1,312.28,92.72Z"/>
    <path d="M324.67,81.39h1.95v1.8h.09a4.11,4.11,0,0,1,1.59-1.56,4.4,4.4,0,0,1,4.57,0,3.66,3.66,0,0,1,1.43,1.73A5,5,0,0,1,336,81.65,4.71,4.71,0,0,1,338.5,81a3.91,3.91,0,0,1,3.18,1.29,5.29,5.29,0,0,1,1.06,3.49v7.85h-2V86.09a3.59,3.59,0,0,0-.7-2.47,2.64,2.64,0,0,0-2.06-.77,2.83,2.83,0,0,0-1.66.53,3.55,3.55,0,0,0-1.16,1.42,4.42,4.42,0,0,0-.42,1.92v6.91h-2V86.12a3.63,3.63,0,0,0-.7-2.5,2.61,2.61,0,0,0-2-.77,2.72,2.72,0,0,0-1.65.54,3.62,3.62,0,0,0-1.17,1.44,4.53,4.53,0,0,0-.42,1.93v6.87h-2Z"/>
    <path d="M348,93.17a5.84,5.84,0,0,1-2.18-2.31,7.05,7.05,0,0,1-.78-3.33,7.26,7.26,0,0,1,.74-3.26,5.91,5.91,0,0,1,2.07-2.38A5.56,5.56,0,0,1,351,81a5.85,5.85,0,0,1,3.12.81,5.26,5.26,0,0,1,2,2.22,7.15,7.15,0,0,1,.71,3.24,2.72,2.72,0,0,1-.07.62h-9.68a4.85,4.85,0,0,0,.68,2.35,3.88,3.88,0,0,0,1.52,1.44,4.15,4.15,0,0,0,1.93.48,4,4,0,0,0,3.63-2.2l1.72.84a6.15,6.15,0,0,1-2.14,2.35,6,6,0,0,1-3.28.86A5.93,5.93,0,0,1,348,93.17Zm6.67-7a4,4,0,0,0-.43-1.53,3.22,3.22,0,0,0-1.22-1.3,3.79,3.79,0,0,0-2.07-.53,3.46,3.46,0,0,0-2.44.93,4.44,4.44,0,0,0-1.31,2.43Z"/>
    <path d="M359.18,81.39h1.95v2h.09a3.26,3.26,0,0,1,1.4-1.67,4.07,4.07,0,0,1,3.6-.42v2.21a3.79,3.79,0,0,0-1.73-.39,2.81,2.81,0,0,0-1.63.51A3.47,3.47,0,0,0,361.67,85a3.88,3.88,0,0,0-.45,1.84v6.84h-2Z"/>
    <path d="M369.22,93.48A3.93,3.93,0,0,1,367.58,92a3.89,3.89,0,0,1-.57-2.1,3.57,3.57,0,0,1,1.46-3,6,6,0,0,1,3.7-1.1,8.35,8.35,0,0,1,2.05.24,5.28,5.28,0,0,1,1.45.56v-.75a2.74,2.74,0,0,0-1-2.19,3.54,3.54,0,0,0-2.42-.83,4.18,4.18,0,0,0-1.9.44A3.56,3.56,0,0,0,369,84.51l-1.53-1.15a4.84,4.84,0,0,1,2-1.73,6.15,6.15,0,0,1,2.79-.63,5.6,5.6,0,0,1,3.93,1.31,4.6,4.6,0,0,1,1.43,3.57v7.75h-1.95V91.88h-.09A4.46,4.46,0,0,1,374,93.39a4.6,4.6,0,0,1-2.37.62A5.17,5.17,0,0,1,369.22,93.48Zm4.51-1.8a4,4,0,0,0,1.41-1.41,3.66,3.66,0,0,0,.53-2,5.12,5.12,0,0,0-1.41-.62,6.48,6.48,0,0,0-1.78-.24,3.89,3.89,0,0,0-2.53.7,2.2,2.2,0,0,0-.85,1.8,2,2,0,0,0,.76,1.63,3,3,0,0,0,1.95.62A3.61,3.61,0,0,0,373.73,91.68Z"/>
    <path d="M383.53,93.58a3.26,3.26,0,0,1-1.07-.65,2.9,2.9,0,0,1-.72-1.05,4,4,0,0,1-.24-1.47V83.24h-2.13V81.39h2.13V77.93h2v3.46h3v1.85h-3v6.67a2.35,2.35,0,0,0,.39,1.49,1.64,1.64,0,0,0,1.32.52,2.49,2.49,0,0,0,1.34-.4v2a3.28,3.28,0,0,1-.73.24,5,5,0,0,1-.95.07A3.93,3.93,0,0,1,383.53,93.58Z"/>
    <path d="M390.86,93.15a6.1,6.1,0,0,1-2.24-2.35,7.17,7.17,0,0,1,0-6.58,6,6,0,0,1,2.24-2.35,6.47,6.47,0,0,1,6.48,0,6.05,6.05,0,0,1,2.25,2.35,7.17,7.17,0,0,1,0,6.58,6.12,6.12,0,0,1-2.25,2.35,6.53,6.53,0,0,1-6.48,0Zm5.34-1.55A4.2,4.2,0,0,0,397.76,90a5.47,5.47,0,0,0,0-4.94,4.15,4.15,0,0,0-3.66-2.19,4.15,4.15,0,0,0-2.11.57A4.09,4.09,0,0,0,390.42,85a5.47,5.47,0,0,0,0,4.94A4.22,4.22,0,0,0,392,91.6a4.14,4.14,0,0,0,2.11.56A4,4,0,0,0,396.2,91.6Z"/>
    <path d="M402.53,81.39h1.94v2h.1A3.24,3.24,0,0,1,406,81.69a4,4,0,0,1,2.16-.66,3.88,3.88,0,0,1,1.44.24v2.21a3.76,3.76,0,0,0-1.73-.39,2.83,2.83,0,0,0-1.63.51A3.55,3.55,0,0,0,405,85a4,4,0,0,0-.44,1.84v6.84h-2Z"/>
    <path d="M412,93.09a5.09,5.09,0,0,1-1.87-2.37l1.82-.81a3.73,3.73,0,0,0,1.36,1.7,3.49,3.49,0,0,0,2,.6,3.83,3.83,0,0,0,2-.47,1.5,1.5,0,0,0,.17-2.56,6.09,6.09,0,0,0-2-.81L413.93,88a5.27,5.27,0,0,1-2.4-1.23,3.07,3.07,0,0,1-.3-4.09,4,4,0,0,1,1.69-1.23,6.19,6.19,0,0,1,5.15.26,4,4,0,0,1,1.79,1.94l-1.78.82a3,3,0,0,0-2.9-1.63,3.23,3.23,0,0,0-1.77.47,1.36,1.36,0,0,0-.75,1.18,1.34,1.34,0,0,0,.52,1.1,4.32,4.32,0,0,0,1.59.68l1.77.46a5.83,5.83,0,0,1,2.72,1.35,3,3,0,0,1,.91,2.2,3.2,3.2,0,0,1-.65,2,4.18,4.18,0,0,1-1.75,1.31,6.44,6.44,0,0,1-2.45.45A5.65,5.65,0,0,1,412,93.09Z"/>
  </g>
  <g>
    <g>
      <line class="cls-4" x1="307.1" y1="105.8" x2="264.88" y2="148.01"/>
      <polygon points="264.38 144.32 265.58 147.31 268.57 148.51 261.5 151.39 264.38 144.32"/>
    </g>
    <g>
      <line class="cls-4" x1="348.4" y1="105.8" x2="390.62" y2="148.01"/>
      <polygon points="386.93 148.51 389.92 147.31 391.12 144.32 393.99 151.39 386.93 148.51"/>
    </g>
  </g>
</svg>
