<svg id="Mathematic_Background" data-name="Mathematic Background" xmlns="http://www.w3.org/2000/svg" viewBox="0 0 385 385">
  <defs>
    <style>
      .cls-1 {
        fill: orange;
        opacity: 0.5;
      }

      .cls-2 {
        fill: #9964aa;
      }

      .cls-3 {
        fill: none;
        stroke: #9964aa;
        stroke-linecap: round;
        stroke-linejoin: round;
        stroke-width: 2px;
      }
    </style>
  </defs>
  <title>sbs_cotf5_square</title>
  <g>
    <path class="cls-1" d="M126.77,197.84q1.41-1.41,5.6-5.67t5.82-6a25.22,25.22,0,0,0,3.14-3.91,6.65,6.65,0,0,0,.82-3.41,5.07,5.07,0,0,0-.71-2.58,5.33,5.33,0,0,0-2-2,6.51,6.51,0,0,0-3.21-.75,5.45,5.45,0,0,0-3.94,1.43,6.88,6.88,0,0,0-1.93,3.12l-3.55-1.41a10.1,10.1,0,0,1,1.64-3,10,10,0,0,1,3.18-2.68,9.51,9.51,0,0,1,4.73-1.12,10.24,10.24,0,0,1,5.08,1.23,9,9,0,0,1,3.43,3.28,8.39,8.39,0,0,1,1.23,4.41q0,4.78-5,9.87L131.73,198h14.7v3.68H126.77Z"/>
    <path d="M124.72,211.76h21.66v3.18H124.72Z"/>
    <path class="cls-2" d="M132.59,259.63a10.44,10.44,0,0,1-3.7-2.58,10.06,10.06,0,0,1-2.39-4.39l3.5-1.45a7.86,7.86,0,0,0,2.48,4.09,6.25,6.25,0,0,0,4.12,1.46,7.13,7.13,0,0,0,3.23-.75,6.07,6.07,0,0,0,2.39-2.09,5.32,5.32,0,0,0,.88-3,5.11,5.11,0,0,0-.88-2.91,6.09,6.09,0,0,0-2.41-2.07,7.52,7.52,0,0,0-3.35-.75h-2.68v-3.59h2.41a6.19,6.19,0,0,0,4.18-1.44,4.71,4.71,0,0,0,1.69-3.8,4.28,4.28,0,0,0-1.64-3.5,6.24,6.24,0,0,0-4-1.32,5.29,5.29,0,0,0-3.71,1.23,7,7,0,0,0-1.93,3l-3.55-1.5a10,10,0,0,1,3.16-4.44,9.06,9.06,0,0,1,6-2,10.77,10.77,0,0,1,4.91,1.09,8.43,8.43,0,0,1,3.44,3,8,8,0,0,1,1.25,4.36,6.76,6.76,0,0,1-1.23,4.1,8.8,8.8,0,0,1-3.05,2.64v.18a9.05,9.05,0,0,1,3.83,2.94,7.49,7.49,0,0,1,1.5,4.66,8.9,8.9,0,0,1-1.39,4.91,9.55,9.55,0,0,1-3.78,3.42,11.28,11.28,0,0,1-5.25,1.22A10.87,10.87,0,0,1,132.59,259.63Z"/>
  </g>
  <g>
    <path class="cls-1" d="M244.85,197.84q1.41-1.41,5.59-5.67t5.83-6a25.85,25.85,0,0,0,3.14-3.91,6.75,6.75,0,0,0,.82-3.41,5.07,5.07,0,0,0-.71-2.58,5.29,5.29,0,0,0-2-2,6.46,6.46,0,0,0-3.21-.75,5.43,5.43,0,0,0-3.93,1.43,6.91,6.91,0,0,0-1.94,3.12l-3.54-1.41a10.06,10.06,0,0,1,1.63-3,9.88,9.88,0,0,1,3.19-2.68,9.48,9.48,0,0,1,4.73-1.12,10.23,10.23,0,0,1,5.07,1.23,9,9,0,0,1,3.44,3.28,8.39,8.39,0,0,1,1.23,4.41q0,4.78-5,9.87L249.81,198H264.5v3.68H244.85Z"/>
    <path d="M242.8,211.76h21.66v3.18H242.8Z"/>
    <path class="cls-2" d="M250,258.94a10.56,10.56,0,0,1-3.77-3.89,10.06,10.06,0,0,1-1.34-5,11.76,11.76,0,0,1,1-4.8,34.11,34.11,0,0,1,2.93-5.11L257,227.87,260,230l-7.82,11,.09.09a6.76,6.76,0,0,1,4-1.09,9.12,9.12,0,0,1,4.64,1.32,10.45,10.45,0,0,1,3.71,3.62,9.4,9.4,0,0,1,1.43,5.11,9.66,9.66,0,0,1-1.45,5.12,11.2,11.2,0,0,1-3.89,3.85,10.07,10.07,0,0,1-5.26,1.45A10.35,10.35,0,0,1,250,258.94Zm8.9-3.07a6.69,6.69,0,0,0,2.46-2.41,6.57,6.57,0,0,0,.91-3.39,6.44,6.44,0,0,0-.91-3.34,6.79,6.79,0,0,0-2.46-2.42,6.65,6.65,0,0,0-3.37-.88,6.79,6.79,0,0,0-5.87,3.3,6.44,6.44,0,0,0-.91,3.34,6.57,6.57,0,0,0,.91,3.39,6.67,6.67,0,0,0,2.48,2.41,6.81,6.81,0,0,0,3.39.89A6.66,6.66,0,0,0,258.86,255.87Z"/>
  </g>
  <g>
    <rect class="cls-1" x="286.45" y="260.97" width="93.55" height="31.58"/>
    <rect class="cls-1" x="286.45" y="229.35" width="93.55" height="31.58"/>
    <rect class="cls-3" x="286.45" y="102.96" width="93.55" height="189.59"/>
    <rect class="cls-3" x="286.45" y="260.97" width="93.55" height="31.58"/>
    <rect class="cls-3" x="286.45" y="229.4" width="93.55" height="31.58"/>
    <rect class="cls-3" x="286.45" y="197.73" width="93.55" height="31.58"/>
    <rect class="cls-3" x="286.45" y="166.06" width="93.55" height="31.58"/>
    <rect class="cls-3" x="286.45" y="134.49" width="93.55" height="31.58"/>
  </g>
  <g>
    <rect class="cls-1" x="5.4" y="166.15" width="93.55" height="126.39"/>
    <rect class="cls-3" x="5.4" y="102.96" width="93.55" height="189.59"/>
    <rect class="cls-3" x="5.4" y="229.35" width="93.55" height="63.2"/>
    <rect class="cls-3" x="5.4" y="166.15" width="93.55" height="63.2"/>
  </g>
  <path d="M186.77,218.74l13.33-6.14v-.18l-13.33-6.15v-3.54l17.42,8.37v2.82l-17.42,8.37Z"/>
  <g>
    <path d="M114.49,107.05c.33-.33,1-1,2-2s1.65-1.69,2-2.1a8.42,8.42,0,0,0,1.09-1.36,2.33,2.33,0,0,0,.29-1.19,1.67,1.67,0,0,0-.25-.89,1.79,1.79,0,0,0-.71-.68,2.19,2.19,0,0,0-1.12-.27,1.91,1.91,0,0,0-1.37.5,2.49,2.49,0,0,0-.67,1.09l-1.24-.49a3.82,3.82,0,0,1,.57-1.06,3.67,3.67,0,0,1,1.11-.93,3.35,3.35,0,0,1,1.65-.39,3.54,3.54,0,0,1,1.77.43,3,3,0,0,1,1.19,1.14,2.89,2.89,0,0,1,.43,1.54,5.06,5.06,0,0,1-1.74,3.43l-3.25,3.26h5.12v1.29h-6.85Z"/>
    <path d="M129,108.36a2,2,0,0,1-1.18-1.12,2.73,2.73,0,0,1-.16-1v-4.73h-1.41v-1.22h1.41V98H129v2.28h2v1.22h-2v4.4a1.54,1.54,0,0,0,.25,1,1.06,1.06,0,0,0,.87.35A1.65,1.65,0,0,0,131,107v1.32a3,3,0,0,1-.48.16,3.69,3.69,0,0,1-.63,0A2.45,2.45,0,0,1,129,108.36Z"/>
    <path d="M132.64,97.06H134v3.34l-.06,1.11H134a2.61,2.61,0,0,1,1-1,3.08,3.08,0,0,1,1.58-.41,2.86,2.86,0,0,1,2.25.86,3.34,3.34,0,0,1,.77,2.29v5.18H138.3v-5a2.13,2.13,0,0,0-.56-1.61,2,2,0,0,0-1.44-.52,1.9,1.9,0,0,0-1.16.38,2.58,2.58,0,0,0-.84,1,2.66,2.66,0,0,0-.31,1.25v4.5h-1.35Z"/>
    <path d="M141.68,98.55a.93.93,0,0,1-.28-.68.91.91,0,0,1,.28-.68,1,1,0,0,1,1.37,0,.91.91,0,0,1,.28.68.93.93,0,0,1-.28.68.9.9,0,0,1-.68.28A.94.94,0,0,1,141.68,98.55Zm0,1.77H143v8.08H141.7Z"/>
    <path d="M145.15,100.32h1.29v1.3h.06a2.16,2.16,0,0,1,.92-1.1,2.6,2.6,0,0,1,1.42-.44,2.66,2.66,0,0,1,.95.16v1.46a2.49,2.49,0,0,0-1.14-.26,1.86,1.86,0,0,0-1.07.34,2.43,2.43,0,0,0-.79.89,2.66,2.66,0,0,0-.29,1.21v4.52h-1.35Z"/>
    <path d="M152.08,108.1a3.86,3.86,0,0,1-1.38-1.53,5,5,0,0,1,0-4.41,3.82,3.82,0,0,1,1.38-1.54,3.6,3.6,0,0,1,2-.55,3.28,3.28,0,0,1,1.66.42,3.08,3.08,0,0,1,1.11,1h.06l-.06-1.12V97.06h1.34V108.4h-1.28v-1.19h-.06a3.14,3.14,0,0,1-1.11,1,3.28,3.28,0,0,1-1.66.42A3.69,3.69,0,0,1,152.08,108.1Zm3.44-1a2.78,2.78,0,0,0,1-1.08,3.33,3.33,0,0,0,.37-1.61,3.4,3.4,0,0,0-.37-1.62,2.83,2.83,0,0,0-1-1.07,2.48,2.48,0,0,0-2.64,0,2.73,2.73,0,0,0-1,1.08,3.69,3.69,0,0,0,0,3.22,2.73,2.73,0,0,0,1,1.08,2.48,2.48,0,0,0,2.64,0Z"/>
    <path d="M160.72,108a3.42,3.42,0,0,1-1.24-1.56l1.21-.54a2.47,2.47,0,0,0,.89,1.13,2.34,2.34,0,0,0,1.31.39,2.53,2.53,0,0,0,1.3-.31,1,1,0,0,0,.11-1.69,4,4,0,0,0-1.35-.53l-1-.26a3.43,3.43,0,0,1-1.58-.8,1.92,1.92,0,0,1-.62-1.48,1.9,1.9,0,0,1,.42-1.22,2.62,2.62,0,0,1,1.12-.82,3.89,3.89,0,0,1,1.5-.28,3.78,3.78,0,0,1,1.89.46,2.53,2.53,0,0,1,1.18,1.28l-1.17.54a2,2,0,0,0-1.92-1.08,2.12,2.12,0,0,0-1.16.31.92.92,0,0,0-.5.78.87.87,0,0,0,.35.72,2.59,2.59,0,0,0,1,.45l1.18.31a3.86,3.86,0,0,1,1.79.89,2,2,0,0,1,.6,1.45,2.08,2.08,0,0,1-.43,1.31,2.7,2.7,0,0,1-1.16.86,4.16,4.16,0,0,1-1.61.3A3.66,3.66,0,0,1,160.72,108Z"/>
    <path d="M171.35,98.55a.94.94,0,0,1-.29-.68.92.92,0,0,1,.29-.68.94.94,0,0,1,.68-.27,1,1,0,0,1,.68.27.91.91,0,0,1,.28.68,1,1,0,0,1-.27.68.94.94,0,0,1-.69.28A.91.91,0,0,1,171.35,98.55Zm0,1.77h1.33v8.08h-1.33Z"/>
    <path d="M175.46,108a3.34,3.34,0,0,1-1.23-1.56l1.2-.54a2.42,2.42,0,0,0,.9,1.13,2.31,2.31,0,0,0,1.3.39,2.53,2.53,0,0,0,1.3-.31,1,1,0,0,0,.54-.88.94.94,0,0,0-.43-.81,3.86,3.86,0,0,0-1.34-.53l-1-.26a3.43,3.43,0,0,1-1.58-.8,1.92,1.92,0,0,1-.62-1.48,1.9,1.9,0,0,1,.42-1.22,2.62,2.62,0,0,1,1.12-.82,3.89,3.89,0,0,1,1.5-.28,3.84,3.84,0,0,1,1.9.46,2.62,2.62,0,0,1,1.18,1.28l-1.18.54a1.94,1.94,0,0,0-1.91-1.08,2.15,2.15,0,0,0-1.17.31.92.92,0,0,0-.5.78.87.87,0,0,0,.35.72,2.64,2.64,0,0,0,1.05.45l1.17.31a3.81,3.81,0,0,1,1.79.89,2,2,0,0,1,.6,1.45,2.08,2.08,0,0,1-.43,1.31,2.73,2.73,0,0,1-1.15.86,4.25,4.25,0,0,1-1.62.3A3.68,3.68,0,0,1,175.46,108Z"/>
    <path d="M187.17,111.41a3.32,3.32,0,0,1-1.24-1.6l1.22-.53a2.44,2.44,0,0,0,.89,1.14,2.88,2.88,0,0,0,3.43-.3,2.91,2.91,0,0,0,.68-2.06v-.9h-.06a3,3,0,0,1-1.12,1,3.37,3.37,0,0,1-1.64.38,3.49,3.49,0,0,1-1.9-.53,3.72,3.72,0,0,1-1.37-1.51,5,5,0,0,1,0-4.39,3.74,3.74,0,0,1,1.37-1.52,3.58,3.58,0,0,1,1.9-.53,3.48,3.48,0,0,1,1.64.38,2.87,2.87,0,0,1,1.12,1h.06v-1.16h1.29v7.76a3.89,3.89,0,0,1-1.08,3,4.49,4.49,0,0,1-5.19.36Zm3.68-4.44a2.67,2.67,0,0,0,1-1,3.95,3.95,0,0,0,0-3.25,2.67,2.67,0,0,0-1-1,2.52,2.52,0,0,0-1.33-.35,2.58,2.58,0,0,0-1.33.36,2.49,2.49,0,0,0-.95,1,3.39,3.39,0,0,0-.36,1.61,3.46,3.46,0,0,0,.36,1.62,2.49,2.49,0,0,0,.95,1,2.58,2.58,0,0,0,1.33.36A2.54,2.54,0,0,0,190.85,107Z"/>
    <path d="M195.43,100.32h1.28v1.3h.07a2.16,2.16,0,0,1,.92-1.1,2.6,2.6,0,0,1,1.42-.44,2.66,2.66,0,0,1,.95.16v1.46a2.52,2.52,0,0,0-1.14-.26,1.92,1.92,0,0,0-1.08.34,2.5,2.5,0,0,0-.78.89,2.66,2.66,0,0,0-.29,1.21v4.52h-1.35Z"/>
    <path d="M202.42,108.1a3.86,3.86,0,0,1-1.44-1.53,4.66,4.66,0,0,1-.51-2.2,4.84,4.84,0,0,1,.48-2.15,3.94,3.94,0,0,1,1.37-1.57,3.65,3.65,0,0,1,2.06-.58,3.83,3.83,0,0,1,2.06.53,3.57,3.57,0,0,1,1.34,1.46,4.77,4.77,0,0,1,.46,2.14,1.62,1.62,0,0,1,0,.41h-6.39a3.21,3.21,0,0,0,.45,1.55,2.52,2.52,0,0,0,1,1,2.7,2.7,0,0,0,3.67-1.14l1.14.56a4.08,4.08,0,0,1-1.42,1.55,4,4,0,0,1-2.16.57A4,4,0,0,1,202.42,108.1Zm4.4-4.6a2.63,2.63,0,0,0-.29-1,2.18,2.18,0,0,0-.8-.86,2.51,2.51,0,0,0-1.37-.34,2.24,2.24,0,0,0-1.6.61,2.92,2.92,0,0,0-.87,1.6Z"/>
    <path d="M210.89,108.3a2.53,2.53,0,0,1-1.46-2.34,2.36,2.36,0,0,1,1-2,3.94,3.94,0,0,1,2.43-.72,5.83,5.83,0,0,1,1.36.16,3.63,3.63,0,0,1,1,.37v-.49a1.79,1.79,0,0,0-.64-1.45,2.32,2.32,0,0,0-1.6-.55,2.77,2.77,0,0,0-1.25.29,2.3,2.3,0,0,0-.9.82l-1-.76a3.14,3.14,0,0,1,1.3-1.14,4.05,4.05,0,0,1,1.85-.41,3.67,3.67,0,0,1,2.59.86,3,3,0,0,1,.94,2.35v5.12h-1.28v-1.16h-.07a3,3,0,0,1-1,1,3.09,3.09,0,0,1-1.57.41A3.5,3.5,0,0,1,210.89,108.3Zm3-1.19a2.62,2.62,0,0,0,.94-.93,2.49,2.49,0,0,0,.35-1.28,3.55,3.55,0,0,0-.94-.42,4.47,4.47,0,0,0-1.17-.15,2.56,2.56,0,0,0-1.67.46,1.46,1.46,0,0,0-.56,1.18,1.33,1.33,0,0,0,.5,1.08,2,2,0,0,0,1.29.41A2.35,2.35,0,0,0,213.86,107.11Z"/>
    <path d="M220.33,108.36a2,2,0,0,1-.7-.42,2.08,2.08,0,0,1-.48-.7,2.73,2.73,0,0,1-.16-1v-4.73h-1.41v-1.22H219V98h1.35v2.28h2v1.22h-2v4.4a1.54,1.54,0,0,0,.25,1,1.06,1.06,0,0,0,.87.35,1.63,1.63,0,0,0,.89-.27v1.32a3,3,0,0,1-.48.16,3.62,3.62,0,0,1-.63,0A2.49,2.49,0,0,1,220.33,108.36Z"/>
    <path d="M225.11,108.1a3.93,3.93,0,0,1-1.44-1.53,4.66,4.66,0,0,1-.51-2.2,4.84,4.84,0,0,1,.48-2.15,3.94,3.94,0,0,1,1.37-1.57,3.65,3.65,0,0,1,2.06-.58,3.83,3.83,0,0,1,2.06.53,3.5,3.5,0,0,1,1.34,1.46,4.78,4.78,0,0,1,.47,2.14,1.58,1.58,0,0,1-.05.41h-6.38a3.21,3.21,0,0,0,.44,1.55,2.48,2.48,0,0,0,1,1,2.6,2.6,0,0,0,1.27.32,2.64,2.64,0,0,0,2.39-1.46l1.14.56a4.08,4.08,0,0,1-1.42,1.55,3.91,3.91,0,0,1-2.16.57A4,4,0,0,1,225.11,108.1Zm4.4-4.6a2.79,2.79,0,0,0-.28-1,2.26,2.26,0,0,0-.8-.86,2.56,2.56,0,0,0-1.37-.34,2.26,2.26,0,0,0-1.61.61,2.92,2.92,0,0,0-.87,1.6Z"/>
    <path d="M232.5,100.32h1.29v1.3h.06a2.16,2.16,0,0,1,.92-1.1,2.6,2.6,0,0,1,1.42-.44,2.66,2.66,0,0,1,.95.16v1.46a2.52,2.52,0,0,0-1.14-.26,1.86,1.86,0,0,0-1.07.34,2.43,2.43,0,0,0-.79.89,2.66,2.66,0,0,0-.29,1.21v4.52H232.5Z"/>
    <path d="M244.31,108.36a2,2,0,0,1-.71-.42,1.92,1.92,0,0,1-.47-.7,2.53,2.53,0,0,1-.16-1v-4.73h-1.41v-1.22H243V98h1.35v2.28h2v1.22h-2v4.4a1.54,1.54,0,0,0,.25,1,1.06,1.06,0,0,0,.87.35,1.65,1.65,0,0,0,.89-.27v1.32a3,3,0,0,1-.48.16,3.77,3.77,0,0,1-.63,0A2.45,2.45,0,0,1,244.31,108.36Z"/>
    <path d="M248,97.06h1.35v3.34l-.07,1.11h.07a2.61,2.61,0,0,1,1-1,3.08,3.08,0,0,1,1.58-.41,2.82,2.82,0,0,1,2.24.86,3.3,3.3,0,0,1,.78,2.29v5.18h-1.35v-5a2.12,2.12,0,0,0-.55-1.61,2,2,0,0,0-1.44-.52,1.9,1.9,0,0,0-1.16.38,2.58,2.58,0,0,0-.84,1,2.66,2.66,0,0,0-.31,1.25v4.5H248Z"/>
    <path d="M257.84,108.3a2.65,2.65,0,0,1-1.08-1,2.55,2.55,0,0,1-.38-1.38,2.39,2.39,0,0,1,1-2,4,4,0,0,1,2.44-.72,5.81,5.81,0,0,1,1.35.16,3.49,3.49,0,0,1,1,.37v-.49a1.81,1.81,0,0,0-.63-1.45,2.36,2.36,0,0,0-1.6-.55,2.74,2.74,0,0,0-1.25.29,2.4,2.4,0,0,0-.91.82l-1-.76a3.17,3.17,0,0,1,1.31-1.14,4,4,0,0,1,1.84-.41,3.67,3.67,0,0,1,2.59.86,3,3,0,0,1,.94,2.35v5.12H262.1v-1.16H262a3,3,0,0,1-1.05,1,3.06,3.06,0,0,1-1.57.41A3.5,3.5,0,0,1,257.84,108.3Zm3-1.19a2.59,2.59,0,0,0,.93-.93,2.49,2.49,0,0,0,.35-1.28,3.34,3.34,0,0,0-.93-.42,4.49,4.49,0,0,0-1.18-.15,2.58,2.58,0,0,0-1.67.46,1.46,1.46,0,0,0-.56,1.18,1.31,1.31,0,0,0,.51,1.08,1.93,1.93,0,0,0,1.28.41A2.39,2.39,0,0,0,260.82,107.11Z"/>
    <path d="M265.25,100.32h1.28v1.19h.07a2.68,2.68,0,0,1,1.06-1,3,3,0,0,1,1.55-.42,2.89,2.89,0,0,1,2.23.84,3.33,3.33,0,0,1,.76,2.31v5.18h-1.34v-5a2.15,2.15,0,0,0-.54-1.63,2.09,2.09,0,0,0-1.47-.5,2,2,0,0,0-1.17.36,2.43,2.43,0,0,0-.8,1,2.81,2.81,0,0,0-.28,1.24v4.55h-1.35Z"/>
    <path d="M167.72,126.05c.33-.32,1-1,1.95-2s1.64-1.68,2-2.1a8.62,8.62,0,0,0,1.1-1.36,2.33,2.33,0,0,0,.28-1.19,1.78,1.78,0,0,0-.24-.89,1.89,1.89,0,0,0-.72-.68,2.17,2.17,0,0,0-1.11-.26,1.85,1.85,0,0,0-1.37.5,2.35,2.35,0,0,0-.68,1.08l-1.23-.49a3.22,3.22,0,0,1,.57-1,3.34,3.34,0,0,1,1.11-.94,3.29,3.29,0,0,1,1.64-.39,3.62,3.62,0,0,1,1.77.43,3.29,3.29,0,0,1,1.2,1.14,3,3,0,0,1,.42,1.54,5,5,0,0,1-1.74,3.43l-3.24,3.27h5.11v1.28h-6.84Z"/>
    <path d="M180.64,127a3.24,3.24,0,0,1-1.23-1.56l1.2-.53a2.44,2.44,0,0,0,.89,1.12,2.37,2.37,0,0,0,1.31.4,2.63,2.63,0,0,0,1.3-.31,1,1,0,0,0,.54-.88,1,1,0,0,0-.43-.82,4,4,0,0,0-1.35-.53l-1-.25a3.54,3.54,0,0,1-1.58-.81,2,2,0,0,1-.2-2.7,2.79,2.79,0,0,1,1.12-.82,4.08,4.08,0,0,1,1.5-.28,3.78,3.78,0,0,1,1.89.46,2.57,2.57,0,0,1,1.18,1.28l-1.17.54a2,2,0,0,0-1.91-1.08,2.22,2.22,0,0,0-1.17.31.92.92,0,0,0-.5.79.9.9,0,0,0,.35.72,2.89,2.89,0,0,0,1,.45l1.17.3a3.9,3.9,0,0,1,1.79.89,2,2,0,0,1,.6,1.45,2.08,2.08,0,0,1-.43,1.31,2.73,2.73,0,0,1-1.15.86,4.25,4.25,0,0,1-1.62.3A3.66,3.66,0,0,1,180.64,127Z"/>
    <path d="M187.51,117.55a.93.93,0,0,1-.28-.68.88.88,0,0,1,.28-.67,1,1,0,0,1,1.37,0,.88.88,0,0,1,.28.67.93.93,0,0,1-.28.68.9.9,0,0,1-.69.28A.93.93,0,0,1,187.51,117.55Zm0,1.77h1.33v8.08h-1.33Z"/>
    <path d="M193,123.3l-2.8-4h1.52l2.09,3,2-3h1.57l-2.82,4,2.88,4.1h-1.57l-2.1-3.1-2.06,3.1h-1.57Z"/>
    <path d="M200.89,127.37a2.17,2.17,0,0,1-.71-.43,1.84,1.84,0,0,1-.47-.7,2.47,2.47,0,0,1-.16-1v-4.74h-1.41v-1.22h1.41V117h1.35v2.28h2v1.22h-2V125a1.55,1.55,0,0,0,.25,1,1.09,1.09,0,0,0,.87.35,1.65,1.65,0,0,0,.89-.27v1.31a2.16,2.16,0,0,1-.49.16,3.44,3.44,0,0,1-.62,0A2.67,2.67,0,0,1,200.89,127.37Z"/>
    <path d="M204.57,116.06h1.35v3.34l-.07,1.11h.07a2.67,2.67,0,0,1,1.05-1,3.14,3.14,0,0,1,1.57-.41,2.87,2.87,0,0,1,2.25.86,3.3,3.3,0,0,1,.78,2.29v5.18h-1.35v-5a2.13,2.13,0,0,0-.55-1.62,2.13,2.13,0,0,0-2.61-.14,2.75,2.75,0,0,0-1.14,2.23v4.5h-1.35Z"/>
    <path d="M214.07,127a3.32,3.32,0,0,1-1.24-1.56L214,125a2.44,2.44,0,0,0,.89,1.12,2.35,2.35,0,0,0,1.31.4,2.63,2.63,0,0,0,1.3-.31,1,1,0,0,0,.54-.88,1,1,0,0,0-.43-.82,4.13,4.13,0,0,0-1.35-.53l-1-.25a3.54,3.54,0,0,1-1.58-.81,2,2,0,0,1-.2-2.7,2.79,2.79,0,0,1,1.12-.82,4.08,4.08,0,0,1,1.5-.28,3.78,3.78,0,0,1,1.89.46,2.57,2.57,0,0,1,1.18,1.28l-1.17.54a2,2,0,0,0-1.92-1.08,2.21,2.21,0,0,0-1.16.31.92.92,0,0,0-.5.79.9.9,0,0,0,.35.72,2.89,2.89,0,0,0,1,.45l1.17.3a3.9,3.9,0,0,1,1.79.89,2,2,0,0,1,.6,1.45,2.08,2.08,0,0,1-.43,1.31,2.7,2.7,0,0,1-1.16.86,4.16,4.16,0,0,1-1.61.3A3.66,3.66,0,0,1,214.07,127Z"/>
  </g>
</svg>
