<svg id="Mathematic_Background" data-name="Mathematic Background" xmlns="http://www.w3.org/2000/svg" viewBox="0 0 644 393.5">
  <defs>
    <style>
      .cls-1 {
        fill: orange;
        opacity: 0.5;
      }

      .cls-2 {
        fill: #9964aa;
      }

      .cls-3 {
        fill: none;
        stroke: #9964aa;
        stroke-linecap: round;
        stroke-linejoin: round;
        stroke-width: 2px;
      }
    </style>
  </defs>
  <title>sbs_cotf6</title>
  <g>
    <path class="cls-1" d="M218.48,197c1.48-1.48,4.44-4.47,8.85-9s7.49-7.67,9.22-9.54a39.82,39.82,0,0,0,5-6.19,10.63,10.63,0,0,0,1.29-5.4,8,8,0,0,0-1.11-4.07,8.47,8.47,0,0,0-3.24-3.09,10.18,10.18,0,0,0-5.08-1.19,8.54,8.54,0,0,0-6.23,2.27,10.77,10.77,0,0,0-3.06,4.93l-5.61-2.24a16.19,16.19,0,0,1,7.63-9,15.11,15.11,0,0,1,7.49-1.76,16.21,16.21,0,0,1,8,1.94,14.32,14.32,0,0,1,5.43,5.18,13.31,13.31,0,0,1,1.94,7q0,7.56-7.92,15.62l-14.76,14.83h23.26v5.83h-31.1Z"/>
    <path d="M215.24,219.06h34.27v5H215.24Z"/>
    <path class="cls-2" d="M227.69,294.8a16.52,16.52,0,0,1-5.87-4.07,16.12,16.12,0,0,1-3.78-6.94l5.55-2.31a12.39,12.39,0,0,0,3.92,6.48,9.87,9.87,0,0,0,6.52,2.31,11.29,11.29,0,0,0,5.11-1.19,9.64,9.64,0,0,0,3.78-3.31,8.35,8.35,0,0,0,1.4-4.72,8,8,0,0,0-1.4-4.61,9.62,9.62,0,0,0-3.82-3.27,11.68,11.68,0,0,0-5.29-1.19h-4.25v-5.69h3.82A9.85,9.85,0,0,0,240,264a7.48,7.48,0,0,0,2.67-6,6.81,6.81,0,0,0-2.59-5.55,9.91,9.91,0,0,0-6.41-2.08,8.4,8.4,0,0,0-5.87,1.94,11,11,0,0,0-3.06,4.75l-5.61-2.37a15.68,15.68,0,0,1,5-7,14.26,14.26,0,0,1,9.54-3.14,17.14,17.14,0,0,1,7.77,1.73,13.36,13.36,0,0,1,5.44,4.83,12.55,12.55,0,0,1,2,6.91,10.75,10.75,0,0,1-1.94,6.48,14,14,0,0,1-4.83,4.18V269a14.26,14.26,0,0,1,6,4.65,11.9,11.9,0,0,1,2.38,7.38,14.2,14.2,0,0,1-2.2,7.77,15,15,0,0,1-6,5.4,17.85,17.85,0,0,1-8.31,2A16.88,16.88,0,0,1,227.69,294.8Z"/>
  </g>
  <g>
    <path class="cls-1" d="M405.32,197q2.24-2.22,8.85-9t9.22-9.54a39.22,39.22,0,0,0,5-6.19,10.63,10.63,0,0,0,1.3-5.4,8,8,0,0,0-1.12-4.07,8.47,8.47,0,0,0-3.24-3.09,10.18,10.18,0,0,0-5.08-1.19,8.5,8.5,0,0,0-6.22,2.27,10.71,10.71,0,0,0-3.07,4.93l-5.61-2.24a16.19,16.19,0,0,1,7.63-9,15.11,15.11,0,0,1,7.49-1.76,16.21,16.21,0,0,1,8,1.94,14.25,14.25,0,0,1,5.43,5.18,13.32,13.32,0,0,1,2,7q0,7.56-7.92,15.62l-14.76,14.83h23.25v5.83h-31.1Z"/>
    <path d="M402.08,219.06h34.27v5H402.08Z"/>
    <path class="cls-2" d="M414.54,294.8a16.43,16.43,0,0,1-5.87-4.07,15.91,15.91,0,0,1-3.78-6.94l5.54-2.31a12.46,12.46,0,0,0,3.92,6.48,9.87,9.87,0,0,0,6.52,2.31,11.29,11.29,0,0,0,5.11-1.19,9.5,9.5,0,0,0,3.78-3.31,8.36,8.36,0,0,0,1.41-4.72,8.06,8.06,0,0,0-1.41-4.61,9.59,9.59,0,0,0-3.81-3.27,11.74,11.74,0,0,0-5.29-1.19h-4.25v-5.69h3.81a9.9,9.9,0,0,0,6.63-2.27,7.51,7.51,0,0,0,2.66-6,6.78,6.78,0,0,0-2.59-5.55,9.91,9.91,0,0,0-6.41-2.08,8.4,8.4,0,0,0-5.87,1.94,11.22,11.22,0,0,0-3.06,4.75L406,254.7a15.68,15.68,0,0,1,5-7,14.26,14.26,0,0,1,9.54-3.14,17.21,17.21,0,0,1,7.78,1.73,13.4,13.4,0,0,1,5.43,4.83,12.55,12.55,0,0,1,2,6.91,10.75,10.75,0,0,1-1.94,6.48,14,14,0,0,1-4.83,4.18V269A14.26,14.26,0,0,1,435,273.6a11.84,11.84,0,0,1,2.38,7.38,14.12,14.12,0,0,1-2.2,7.77,15,15,0,0,1-6,5.4,17.9,17.9,0,0,1-8.32,2A16.87,16.87,0,0,1,414.54,294.8Z"/>
  </g>
  <g>
    <rect class="cls-1" x="26.42" y="146.89" width="148.03" height="200"/>
    <rect class="cls-3" x="26.42" y="46.89" width="148.03" height="300"/>
    <rect class="cls-3" x="26.42" y="246.89" width="148.03" height="100"/>
    <rect class="cls-3" x="26.42" y="146.89" width="148.03" height="100"/>
  </g>
  <path d="M313.56,207.43h32.11v5H313.56Zm0,13.68h32.11v5H313.56Z"/>
  <g>
    <path d="M225.5,57.38c.49-.5,1.48-1.49,2.95-3s2.5-2.56,3.07-3.18a13.47,13.47,0,0,0,1.66-2.06,3.53,3.53,0,0,0,.43-1.8,2.62,2.62,0,0,0-.37-1.36,2.82,2.82,0,0,0-1.08-1,3.35,3.35,0,0,0-1.69-.4,2.83,2.83,0,0,0-2.08.76,3.58,3.58,0,0,0-1,1.64l-1.87-.74a5.48,5.48,0,0,1,.86-1.6A5.35,5.35,0,0,1,228,43.21a5,5,0,0,1,2.5-.59,5.28,5.28,0,0,1,2.67.65A4.79,4.79,0,0,1,235,45a4.47,4.47,0,0,1,.64,2.33q0,2.52-2.64,5.21l-4.92,4.94h7.76v2H225.5Z"/>
    <path d="M247.42,59.37a3.26,3.26,0,0,1-1.07-.65,2.9,2.9,0,0,1-.72-1,4,4,0,0,1-.24-1.47V49h-2.13V47.18h2.13V43.72h2v3.46h3V49h-3V55.7a2.35,2.35,0,0,0,.39,1.49,1.64,1.64,0,0,0,1.32.52,2.49,2.49,0,0,0,1.34-.4v2a3.28,3.28,0,0,1-.73.24,5,5,0,0,1-.95.07A3.93,3.93,0,0,1,247.42,59.37Z"/>
    <path d="M253,42.23h2V47.3l-.1,1.68h.1a4,4,0,0,1,1.6-1.56,4.66,4.66,0,0,1,2.38-.63,4.35,4.35,0,0,1,3.41,1.31,5,5,0,0,1,1.18,3.47v7.85h-2V51.88a3.23,3.23,0,0,0-.84-2.45,3.1,3.1,0,0,0-2.19-.79,2.92,2.92,0,0,0-1.76.58,4,4,0,0,0-1.27,1.49A4.1,4.1,0,0,0,255,52.6v6.82h-2Z"/>
    <path d="M266.71,44.49a1.41,1.41,0,0,1-.44-1,1.37,1.37,0,0,1,.44-1,1.41,1.41,0,0,1,1-.42,1.43,1.43,0,0,1,1,.42,1.36,1.36,0,0,1,.43,1,1.43,1.43,0,0,1-.42,1,1.46,1.46,0,0,1-2.07,0Zm0,2.69h2V59.42h-2Z"/>
    <path d="M272,47.18h1.94v2h.1a3.24,3.24,0,0,1,1.39-1.67,4,4,0,0,1,2.16-.66,3.88,3.88,0,0,1,1.44.24v2.21a3.76,3.76,0,0,0-1.73-.39,2.83,2.83,0,0,0-1.63.51,3.64,3.64,0,0,0-1.19,1.35,4,4,0,0,0-.44,1.84v6.84h-2Z"/>
    <path d="M282.46,59a5.87,5.87,0,0,1-2.1-2.31,7.65,7.65,0,0,1,0-6.69,5.86,5.86,0,0,1,2.1-2.33,5.45,5.45,0,0,1,3-.84,5,5,0,0,1,2.52.64A4.68,4.68,0,0,1,289.63,49h.09l-.09-1.7V42.23h2V59.42h-1.95v-1.8h-.09a4.81,4.81,0,0,1-1.69,1.55,5,5,0,0,1-2.52.63A5.45,5.45,0,0,1,282.46,59Zm5.21-1.58a4.36,4.36,0,0,0,1.49-1.63,5.64,5.64,0,0,0,0-4.9,4.28,4.28,0,0,0-1.49-1.63,3.74,3.74,0,0,0-4,0,4.19,4.19,0,0,0-1.5,1.64,5.57,5.57,0,0,0,0,4.87,4.22,4.22,0,0,0,1.5,1.65,3.79,3.79,0,0,0,4,0Z"/>
    <path d="M295.55,58.88a5.09,5.09,0,0,1-1.87-2.37l1.82-.81a3.73,3.73,0,0,0,1.36,1.7,3.49,3.49,0,0,0,2,.6,3.83,3.83,0,0,0,2-.47A1.5,1.5,0,0,0,301,55a6.09,6.09,0,0,0-2-.81l-1.49-.38a5.27,5.27,0,0,1-2.4-1.23,3.07,3.07,0,0,1-.3-4.09,4,4,0,0,1,1.69-1.23,6.19,6.19,0,0,1,5.15.26,4,4,0,0,1,1.79,1.94l-1.78.82a3,3,0,0,0-2.9-1.63,3.23,3.23,0,0,0-1.77.47,1.36,1.36,0,0,0-.75,1.18,1.34,1.34,0,0,0,.52,1.1,4.32,4.32,0,0,0,1.59.68l1.77.46a5.83,5.83,0,0,1,2.72,1.35,3,3,0,0,1,.91,2.2,3.2,3.2,0,0,1-.65,2,4.18,4.18,0,0,1-1.75,1.31,6.44,6.44,0,0,1-2.45.45A5.65,5.65,0,0,1,295.55,58.88Z"/>
    <path d="M311.66,44.49a1.41,1.41,0,0,1-.44-1,1.37,1.37,0,0,1,.44-1,1.41,1.41,0,0,1,1-.42,1.43,1.43,0,0,1,1,.42,1.36,1.36,0,0,1,.43,1,1.43,1.43,0,0,1-.42,1,1.46,1.46,0,0,1-2.07,0Zm0,2.69h2V59.42h-2Z"/>
    <path d="M317.9,58.88A5.11,5.11,0,0,1,316,56.51l1.83-.81a3.65,3.65,0,0,0,1.35,1.7,3.49,3.49,0,0,0,2,.6,3.81,3.81,0,0,0,2-.47,1.49,1.49,0,0,0,.17-2.56,5.91,5.91,0,0,0-2-.81l-1.49-.38a5.37,5.37,0,0,1-2.4-1.23,2.9,2.9,0,0,1-.93-2.23,3,3,0,0,1,.63-1.86,4.1,4.1,0,0,1,1.69-1.23,6,6,0,0,1,2.28-.44,5.86,5.86,0,0,1,2.87.7,3.91,3.91,0,0,1,1.79,1.94l-1.78.82a3,3,0,0,0-2.9-1.63,3.2,3.2,0,0,0-1.76.47,1.34,1.34,0,0,0-.23,2.28,4.26,4.26,0,0,0,1.58.68l1.78.46a5.79,5.79,0,0,1,2.71,1.35,3,3,0,0,1,.91,2.2,3.14,3.14,0,0,1-.65,2,4.11,4.11,0,0,1-1.75,1.31,6.4,6.4,0,0,1-2.45.45A5.62,5.62,0,0,1,317.9,58.88Z"/>
    <path d="M336.14,59A5.84,5.84,0,0,1,334,56.65a7.05,7.05,0,0,1-.78-3.33,7.26,7.26,0,0,1,.74-3.26A5.91,5.91,0,0,1,336,47.68a5.56,5.56,0,0,1,3.12-.89,5.85,5.85,0,0,1,3.12.81,5.26,5.26,0,0,1,2,2.22,7.15,7.15,0,0,1,.71,3.24,2.72,2.72,0,0,1-.07.62h-9.68A4.85,4.85,0,0,0,335.9,56a3.81,3.81,0,0,0,1.52,1.44,4.15,4.15,0,0,0,1.93.48,4,4,0,0,0,3.63-2.2l1.72.84a6.15,6.15,0,0,1-2.14,2.35,6,6,0,0,1-3.28.86A5.93,5.93,0,0,1,336.14,59Zm6.67-7a4,4,0,0,0-.43-1.53,3.22,3.22,0,0,0-1.22-1.3,3.79,3.79,0,0,0-2.07-.53,3.46,3.46,0,0,0-2.44.93A4.44,4.44,0,0,0,335.34,52Z"/>
    <path d="M356.85,59.3l.09-1.68h-.09a4.86,4.86,0,0,1-1.68,1.55,5,5,0,0,1-2.52.63,5.46,5.46,0,0,1-3-.84,6,6,0,0,1-2.1-2.31,7.74,7.74,0,0,1,0-6.69,6,6,0,0,1,2.1-2.33,5.46,5.46,0,0,1,3-.84,5,5,0,0,1,2.52.64A4.72,4.72,0,0,1,356.85,49h.09V47.18h1.95V64.6h-2Zm-2-1.92a4.28,4.28,0,0,0,1.49-1.63,5.64,5.64,0,0,0,0-4.9,4.21,4.21,0,0,0-1.49-1.63,3.72,3.72,0,0,0-4,0,4,4,0,0,0-1.5,1.64,5.49,5.49,0,0,0,0,4.87,4.08,4.08,0,0,0,1.5,1.65,3.78,3.78,0,0,0,4,0Z"/>
    <path d="M362.88,58.51a5.29,5.29,0,0,1-1.16-3.63v-7.7h2v7.39a3.58,3.58,0,0,0,.79,2.57,2.86,2.86,0,0,0,2.14.81,3.11,3.11,0,0,0,1.83-.55A3.79,3.79,0,0,0,369.77,56a4.05,4.05,0,0,0,.44-1.87V47.18h2V59.42h-1.94V57.64h-.1a4,4,0,0,1-1.6,1.54,4.78,4.78,0,0,1-2.36.62A4.31,4.31,0,0,1,362.88,58.51Z"/>
    <path d="M376.67,59.27a3.85,3.85,0,0,1-2.21-3.55,3.56,3.56,0,0,1,1.47-3,6,6,0,0,1,3.69-1.1,8.29,8.29,0,0,1,2.05.24,5.23,5.23,0,0,1,1.46.56v-.75a2.74,2.74,0,0,0-1-2.19,3.55,3.55,0,0,0-2.43-.83,4.11,4.11,0,0,0-1.89.44,3.49,3.49,0,0,0-1.37,1.24l-1.54-1.15a4.84,4.84,0,0,1,2-1.73,6.19,6.19,0,0,1,2.8-.63,5.59,5.59,0,0,1,3.92,1.31,4.6,4.6,0,0,1,1.43,3.57v7.75h-1.94V57.67H383a4.42,4.42,0,0,1-1.58,1.51,4.67,4.67,0,0,1-2.38.62A5.2,5.2,0,0,1,376.67,59.27Zm4.51-1.8a3.92,3.92,0,0,0,1.42-1.41,3.76,3.76,0,0,0,.53-2,5.33,5.33,0,0,0-1.42-.62,6.41,6.41,0,0,0-1.77-.24,3.93,3.93,0,0,0-2.54.7,2.2,2.2,0,0,0-.85,1.8,2,2,0,0,0,.77,1.63,3,3,0,0,0,1.94.62A3.61,3.61,0,0,0,381.18,57.47Z"/>
    <path d="M387.9,42.23h2V59.42h-2Z"/>
    <path d="M401.86,59.37a3.16,3.16,0,0,1-1.07-.65,2.9,2.9,0,0,1-.72-1,4,4,0,0,1-.24-1.47V49h-2.14V47.18h2.14V43.72h2v3.46h3V49h-3V55.7a2.42,2.42,0,0,0,.38,1.49,1.67,1.67,0,0,0,1.32.52,2.5,2.5,0,0,0,1.35-.4v2a3.46,3.46,0,0,1-.73.24,5.05,5.05,0,0,1-.95.07A3.85,3.85,0,0,1,401.86,59.37Z"/>
    <path d="M409.19,58.94A6,6,0,0,1,407,56.59,7.09,7.09,0,0,1,407,50a6,6,0,0,1,2.24-2.35,6.47,6.47,0,0,1,6.48,0A6,6,0,0,1,417.91,50a7.09,7.09,0,0,1,0,6.58,6,6,0,0,1-2.24,2.35,6.53,6.53,0,0,1-6.48,0Zm5.34-1.55a4.2,4.2,0,0,0,1.56-1.62,5.47,5.47,0,0,0,0-4.94,4.15,4.15,0,0,0-3.66-2.19,4.13,4.13,0,0,0-2.11.57,4,4,0,0,0-1.57,1.62,5.47,5.47,0,0,0,0,4.94A4.15,4.15,0,0,0,412.43,58,4.08,4.08,0,0,0,414.53,57.39Z"/>
    <path d="M283.08,86.18l3-3q2.2-2.25,3.07-3.18A13.26,13.26,0,0,0,290.76,78a3.53,3.53,0,0,0,.44-1.8,2.64,2.64,0,0,0-.38-1.36,2.69,2.69,0,0,0-1.08-1,3.33,3.33,0,0,0-1.69-.4,2.83,2.83,0,0,0-2.07.76,3.58,3.58,0,0,0-1,1.64L283.08,75a5.3,5.3,0,0,1,.87-1.6A5.13,5.13,0,0,1,285.63,72a4.93,4.93,0,0,1,2.49-.59,5.35,5.35,0,0,1,2.68.65,4.69,4.69,0,0,1,1.81,1.72,4.48,4.48,0,0,1,.65,2.33q0,2.52-2.64,5.21l-4.92,4.94h7.75v2H283.08Z"/>
    <path d="M305,88.17a3.16,3.16,0,0,1-1.07-.65,2.9,2.9,0,0,1-.72-1A4,4,0,0,1,303,85V77.83h-2.14V76H303V72.52h2V76h3v1.85h-3V84.5A2.42,2.42,0,0,0,305.4,86a1.67,1.67,0,0,0,1.32.52,2.5,2.5,0,0,0,1.35-.4v2a3.46,3.46,0,0,1-.73.24,5.05,5.05,0,0,1-.95.07A3.85,3.85,0,0,1,305,88.17Z"/>
    <path d="M310.59,71h2V76.1l-.1,1.68h.1a3.92,3.92,0,0,1,1.59-1.56,4.72,4.72,0,0,1,2.39-.63A4.35,4.35,0,0,1,320,76.9a5,5,0,0,1,1.18,3.47v7.85h-2V80.68a3.23,3.23,0,0,0-.84-2.45,3.1,3.1,0,0,0-2.19-.79,2.9,2.9,0,0,0-1.76.58,4.26,4.26,0,0,0-1.74,3.38v6.82h-2Z"/>
    <path d="M324.29,73.29a1.4,1.4,0,0,1-.43-1,1.36,1.36,0,0,1,.43-1,1.43,1.43,0,0,1,1-.42,1.45,1.45,0,0,1,1,.42,1.4,1.4,0,0,1,.43,1,1.43,1.43,0,0,1-.42,1,1.47,1.47,0,0,1-2.08,0Zm0,2.69h2V88.22h-2Z"/>
    <path d="M329.55,76h1.94v2h.1A3.24,3.24,0,0,1,333,76.28a4,4,0,0,1,2.16-.66,3.88,3.88,0,0,1,1.44.24v2.21a3.76,3.76,0,0,0-1.73-.39,2.81,2.81,0,0,0-1.63.51A3.55,3.55,0,0,0,332,79.54a4,4,0,0,0-.44,1.84v6.84h-2Z"/>
    <path d="M340.05,87.76a5.87,5.87,0,0,1-2.1-2.31,7.65,7.65,0,0,1,0-6.69,5.86,5.86,0,0,1,2.1-2.33,5.43,5.43,0,0,1,3-.84,5,5,0,0,1,2.52.64,4.56,4.56,0,0,1,1.68,1.57h.1l-.1-1.7V71h2V88.22h-1.94v-1.8h-.1A4.69,4.69,0,0,1,345.53,88a5,5,0,0,1-2.52.63A5.43,5.43,0,0,1,340.05,87.76Zm5.21-1.58a4.26,4.26,0,0,0,1.48-1.63,5.55,5.55,0,0,0,0-4.9A4.18,4.18,0,0,0,345.26,78a3.74,3.74,0,0,0-4,0,4.19,4.19,0,0,0-1.5,1.64,5.57,5.57,0,0,0,0,4.87,4.22,4.22,0,0,0,1.5,1.65,3.79,3.79,0,0,0,4,0Z"/>
    <path d="M353.14,87.68a5,5,0,0,1-1.87-2.37l1.82-.81a3.73,3.73,0,0,0,1.36,1.7,3.49,3.49,0,0,0,2,.6,3.83,3.83,0,0,0,2-.47,1.46,1.46,0,0,0,.81-1.33,1.43,1.43,0,0,0-.65-1.23,5.91,5.91,0,0,0-2-.81L355,82.58a5.27,5.27,0,0,1-2.4-1.23,2.87,2.87,0,0,1-.94-2.23,3,3,0,0,1,.63-1.86A4.07,4.07,0,0,1,354,76a6.19,6.19,0,0,1,5.15.26A3.89,3.89,0,0,1,361,78.23l-1.77.82a3,3,0,0,0-2.91-1.63,3.2,3.2,0,0,0-1.76.47,1.37,1.37,0,0,0-.76,1.18,1.35,1.35,0,0,0,.53,1.1,4.25,4.25,0,0,0,1.59.68l1.77.46a5.79,5.79,0,0,1,2.71,1.35,3,3,0,0,1,.92,2.2,3.2,3.2,0,0,1-.65,2,4.18,4.18,0,0,1-1.75,1.31,6.48,6.48,0,0,1-2.45.45A5.65,5.65,0,0,1,353.14,87.68Z"/>
  </g>
  <g>
    <rect class="cls-1" x="471.16" y="146.89" width="148.03" height="200"/>
    <rect class="cls-3" x="471.16" y="46.89" width="148.03" height="300"/>
    <rect class="cls-3" x="471.16" y="246.89" width="148.03" height="100"/>
    <rect class="cls-3" x="471.16" y="146.89" width="148.03" height="100"/>
  </g>
</svg>
