<svg id="Mathematic_Background" data-name="Mathematic Background" xmlns="http://www.w3.org/2000/svg" viewBox="0 0 385 385">
  <defs>
    <style>
      .cls-1 {
        fill: orange;
        opacity: 0.5;
      }

      .cls-2, .cls-4 {
        fill: none;
        stroke-linecap: round;
        stroke-linejoin: round;
      }

      .cls-2 {
        stroke: #9964aa;
        stroke-width: 2px;
      }

      .cls-3 {
        fill: #9964aa;
      }

      .cls-4 {
        stroke: #000;
      }
    </style>
  </defs>
  <title>sbs_cotf1_square</title>
  <g>
    <rect class="cls-1" x="10.1" y="223.63" width="90.69" height="61.27"/>
    <rect class="cls-1" x="282.56" y="162.37" width="90.69" height="122.53"/>
    <rect class="cls-2" x="282.56" y="101.1" width="90.69" height="183.8"/>
    <rect class="cls-2" x="10.1" y="101.1" width="90.69" height="183.8"/>
    <g>
      <path class="cls-1" d="M134.64,185.4a7.23,7.23,0,0,1,.84-3.66,16.57,16.57,0,0,1,3-3.48,16.65,16.65,0,0,0,2.53-2.71,4.66,4.66,0,0,0,.78-2.72,4.52,4.52,0,0,0-1.37-3.42,5.32,5.32,0,0,0-3.8-1.3,4.81,4.81,0,0,0-3.5,1.26,8,8,0,0,0-2,3.11L127.67,171a11.54,11.54,0,0,1,3.18-4.52,8.29,8.29,0,0,1,5.73-2,9.93,9.93,0,0,1,4.7,1.08,7.8,7.8,0,0,1,3.17,3,8.12,8.12,0,0,1,1.13,4.23,7,7,0,0,1-1.21,4.13,22.3,22.3,0,0,1-3.11,3.42,10.35,10.35,0,0,0-2.12,2.51,5.63,5.63,0,0,0-.66,2.78v1.85h-3.84Zm-.07,10.88a2.76,2.76,0,0,1-.81-2,2.8,2.8,0,0,1,4.78-2,2.65,2.65,0,0,1,.82,2,2.78,2.78,0,0,1-2.82,2.82A2.7,2.7,0,0,1,134.57,196.28Z"/>
      <path d="M125.77,206.58h21v3.09h-21Z"/>
      <path class="cls-3" d="M134.64,241.65a7.3,7.3,0,0,1,.84-3.67,16.57,16.57,0,0,1,3-3.48,16.65,16.65,0,0,0,2.53-2.71,4.66,4.66,0,0,0,.78-2.72,4.48,4.48,0,0,0-1.37-3.41,5.28,5.28,0,0,0-3.8-1.31,4.81,4.81,0,0,0-3.5,1.26,8,8,0,0,0-2,3.11l-3.49-1.45a11.5,11.5,0,0,1,3.18-4.53,8.33,8.33,0,0,1,5.73-2,9.93,9.93,0,0,1,4.7,1.08,7.86,7.86,0,0,1,3.17,3,8.14,8.14,0,0,1,1.13,4.23,7,7,0,0,1-1.21,4.13,22.3,22.3,0,0,1-3.11,3.42,10.35,10.35,0,0,0-2.12,2.51,5.66,5.66,0,0,0-.66,2.78v1.85h-3.84Zm-.07,10.87a2.73,2.73,0,0,1-.81-2,2.68,2.68,0,0,1,.81-2,2.81,2.81,0,0,1,4,0,2.65,2.65,0,0,1,.82,2,2.7,2.7,0,0,1-.82,2,2.81,2.81,0,0,1-4,0Z"/>
    </g>
    <g>
      <path class="cls-1" d="M249.11,185.4a7.23,7.23,0,0,1,.84-3.66,16.57,16.57,0,0,1,3-3.48,16.65,16.65,0,0,0,2.53-2.71,4.66,4.66,0,0,0,.78-2.72,4.52,4.52,0,0,0-1.37-3.42,5.32,5.32,0,0,0-3.8-1.3,4.8,4.8,0,0,0-3.5,1.26,8.12,8.12,0,0,0-2,3.11L242.14,171a11.44,11.44,0,0,1,3.18-4.52,8.29,8.29,0,0,1,5.73-2,10,10,0,0,1,4.7,1.08,7.8,7.8,0,0,1,3.17,3,8.12,8.12,0,0,1,1.13,4.23,7,7,0,0,1-1.21,4.13,22.3,22.3,0,0,1-3.11,3.42,10.35,10.35,0,0,0-2.12,2.51,5.63,5.63,0,0,0-.66,2.78v1.85h-3.84ZM249,196.28a2.76,2.76,0,0,1-.81-2,2.8,2.8,0,0,1,4.78-2,2.65,2.65,0,0,1,.82,2,2.78,2.78,0,0,1-2.82,2.82A2.7,2.7,0,0,1,249,196.28Z"/>
      <path d="M240.24,206.58h21v3.09h-21Z"/>
      <path class="cls-3" d="M249.11,241.65A7.3,7.3,0,0,1,250,238a16.57,16.57,0,0,1,3-3.48,16.65,16.65,0,0,0,2.53-2.71,4.66,4.66,0,0,0,.78-2.72,4.48,4.48,0,0,0-1.37-3.41,5.28,5.28,0,0,0-3.8-1.31,4.8,4.8,0,0,0-3.5,1.26,8.12,8.12,0,0,0-2,3.11l-3.48-1.45a11.4,11.4,0,0,1,3.18-4.53,8.33,8.33,0,0,1,5.73-2,10,10,0,0,1,4.7,1.08,7.86,7.86,0,0,1,3.17,3,8.14,8.14,0,0,1,1.13,4.23,7,7,0,0,1-1.21,4.13,22.3,22.3,0,0,1-3.11,3.42,10.35,10.35,0,0,0-2.12,2.51,5.66,5.66,0,0,0-.66,2.78v1.85h-3.84ZM249,252.52a2.73,2.73,0,0,1-.81-2,2.68,2.68,0,0,1,.81-2,2.81,2.81,0,0,1,4,0,2.65,2.65,0,0,1,.82,2,2.7,2.7,0,0,1-.82,2,2.81,2.81,0,0,1-4,0Z"/>
    </g>
    <g>
      <path d="M153.16,111.47A3.13,3.13,0,0,1,152,110l1.12-.5a2.22,2.22,0,0,0,.83,1,2.1,2.1,0,0,0,1.21.37,2.41,2.41,0,0,0,1.21-.28.92.92,0,0,0,.5-.82.89.89,0,0,0-.4-.76,3.71,3.71,0,0,0-1.25-.49l-.91-.24a3.12,3.12,0,0,1-1.47-.75,1.76,1.76,0,0,1-.57-1.36,1.79,1.79,0,0,1,.39-1.14,2.5,2.5,0,0,1,1-.76,3.6,3.6,0,0,1,1.4-.26,3.63,3.63,0,0,1,1.76.42,2.42,2.42,0,0,1,1.09,1.19l-1.09.5a1.81,1.81,0,0,0-1.77-1,2,2,0,0,0-1.09.29.85.85,0,0,0-.46.73.83.83,0,0,0,.32.67,2.68,2.68,0,0,0,1,.42l1.09.27a3.55,3.55,0,0,1,1.66.84,1.77,1.77,0,0,1,.56,1.34,2,2,0,0,1-.39,1.21,2.62,2.62,0,0,1-1.08.81,4,4,0,0,1-1.5.27A3.4,3.4,0,0,1,153.16,111.47Z"/>
      <path d="M160.51,111.71a2.34,2.34,0,0,1-1.35-2.17,2.19,2.19,0,0,1,.89-1.86,3.68,3.68,0,0,1,2.27-.67,5.59,5.59,0,0,1,1.26.14,3.38,3.38,0,0,1,.89.34V107a1.71,1.71,0,0,0-.59-1.35,2.19,2.19,0,0,0-1.49-.51,2.51,2.51,0,0,0-1.16.27,2.28,2.28,0,0,0-.84.76l-.94-.7a3,3,0,0,1,1.21-1.06,3.78,3.78,0,0,1,1.72-.38,3.38,3.38,0,0,1,2.4.8,2.82,2.82,0,0,1,.88,2.18v4.75h-1.19v-1.07h-.06a2.69,2.69,0,0,1-1,.92A2.79,2.79,0,0,1,162,112,3.18,3.18,0,0,1,160.51,111.71Zm2.76-1.1a2.42,2.42,0,0,0,.87-.87,2.25,2.25,0,0,0,.33-1.19,3.17,3.17,0,0,0-.87-.38,3.88,3.88,0,0,0-1.09-.15,2.37,2.37,0,0,0-1.55.43,1.34,1.34,0,0,0-.52,1.1,1.22,1.22,0,0,0,.47,1,1.84,1.84,0,0,0,1.19.38A2.29,2.29,0,0,0,163.27,110.61Z"/>
      <path d="M167.39,104.3h1.19v1.1h.06a2.78,2.78,0,0,1,2.34-1.33,2.57,2.57,0,0,1,1.43.39,2.27,2.27,0,0,1,.88,1.06,3,3,0,0,1,1.05-1.06,2.91,2.91,0,0,1,1.52-.39,2.41,2.41,0,0,1,1.95.78,3.24,3.24,0,0,1,.65,2.14v4.81h-1.23v-4.62a2.18,2.18,0,0,0-.43-1.51,1.58,1.58,0,0,0-1.26-.47,1.76,1.76,0,0,0-1,.32,2.26,2.26,0,0,0-.71.87,2.71,2.71,0,0,0-.26,1.17v4.24H172.3v-4.6a2.26,2.26,0,0,0-.42-1.53,1.59,1.59,0,0,0-1.25-.47,1.7,1.7,0,0,0-1,.33,2.22,2.22,0,0,0-.71.88,2.79,2.79,0,0,0-.26,1.18v4.21h-1.25Z"/>
      <path d="M181.67,111.52a3.57,3.57,0,0,1-1.33-1.42,4.27,4.27,0,0,1-.48-2,4.41,4.41,0,0,1,.45-2,3.6,3.6,0,0,1,1.27-1.46,3.42,3.42,0,0,1,1.91-.54,3.57,3.57,0,0,1,1.91.49,3.29,3.29,0,0,1,1.25,1.36,4.5,4.5,0,0,1,.43,2,1.51,1.51,0,0,1,0,.39h-5.93a3.08,3.08,0,0,0,.41,1.44,2.47,2.47,0,0,0,.94.88,2.57,2.57,0,0,0,1.18.29,2.44,2.44,0,0,0,2.22-1.35l1.06.51a3.85,3.85,0,0,1-1.32,1.45,4,4,0,0,1-3.93,0Zm4.09-4.26a2.44,2.44,0,0,0-.27-1,2.06,2.06,0,0,0-.74-.79,2.37,2.37,0,0,0-1.27-.32,2.16,2.16,0,0,0-1.5.56,2.81,2.81,0,0,0-.8,1.5Z"/>
      <path d="M191.12,104.3h1.28l1.8,5.93h0l1.88-5.93h1.3l1.89,5.91h0l1.78-5.91h1.26l-2.42,7.5h-1.27l-1.94-6-1.93,6h-1.25Z"/>
      <path d="M203.37,101.27h1.25v3.1l-.06,1h.06a2.43,2.43,0,0,1,1-1,2.84,2.84,0,0,1,1.46-.38,2.65,2.65,0,0,1,2.09.8,3,3,0,0,1,.72,2.12v4.81h-1.25v-4.62a2,2,0,0,0-.51-1.5,1.9,1.9,0,0,0-1.34-.48,1.85,1.85,0,0,0-1.08.35,2.61,2.61,0,0,0-1.07,2.07v4.18h-1.25Z"/>
      <path d="M213.13,111.51a3.82,3.82,0,0,1-1.37-1.45,4.37,4.37,0,0,1,0-4,3.68,3.68,0,0,1,3.36-2,3.71,3.71,0,0,1,3.36,2,4.37,4.37,0,0,1,0,4,3.71,3.71,0,0,1-3.36,2A3.81,3.81,0,0,1,213.13,111.51Zm3.28-1a2.55,2.55,0,0,0,1-1,3.35,3.35,0,0,0,0-3,2.57,2.57,0,0,0-3.53-1,2.46,2.46,0,0,0-1,1,3.35,3.35,0,0,0,0,3,2.46,2.46,0,0,0,1,1,2.62,2.62,0,0,0,2.58,0Z"/>
      <path d="M220.35,101.27h1.25V111.8h-1.25Z"/>
      <path d="M224.79,111.52a3.64,3.64,0,0,1-1.33-1.42,4.26,4.26,0,0,1-.47-2,4.4,4.4,0,0,1,.44-2,3.63,3.63,0,0,1,1.28-1.46,3.39,3.39,0,0,1,1.91-.54,3.6,3.6,0,0,1,1.91.49,3.26,3.26,0,0,1,1.24,1.36,4.37,4.37,0,0,1,.44,2,1.48,1.48,0,0,1-.05.39h-5.92a2.86,2.86,0,0,0,.41,1.44,2.38,2.38,0,0,0,.93.88,2.6,2.6,0,0,0,1.18.29,2.44,2.44,0,0,0,2.22-1.35l1.06.51a3.83,3.83,0,0,1-1.31,1.45,4,4,0,0,1-3.94,0Zm4.09-4.26a2.6,2.6,0,0,0-.26-1,2.09,2.09,0,0,0-.75-.79,2.34,2.34,0,0,0-1.27-.32,2.14,2.14,0,0,0-1.49.56,2.74,2.74,0,0,0-.8,1.5Z"/>
    </g>
    <g>
      <line class="cls-4" x1="146.73" y1="107.35" x2="112.01" y2="107.35"/>
      <polygon points="114.25 104.39 113 107.35 114.25 110.31 107.23 107.35 114.25 104.39"/>
    </g>
    <g>
      <line class="cls-4" x1="235.85" y1="107.35" x2="270.57" y2="107.35"/>
      <polygon points="268.33 110.31 269.58 107.35 268.33 104.39 275.35 107.35 268.33 110.31"/>
    </g>
  </g>
</svg>
