<svg id="Mathematic_Background" data-name="Mathematic Background" xmlns="http://www.w3.org/2000/svg" viewBox="0 0 644 393.5">
  <defs>
    <style>
      .cls-1 {
        fill: orange;
        opacity: 0.5;
      }

      .cls-2, .cls-4 {
        fill: none;
        stroke-linecap: round;
        stroke-linejoin: round;
      }

      .cls-2 {
        stroke: #9964aa;
        stroke-width: 2px;
      }

      .cls-3 {
        fill: #9964aa;
      }

      .cls-4 {
        stroke: #000;
      }
    </style>
  </defs>
  <title>sbs_cotf1</title>
  <rect class="cls-1" x="26.42" y="246.89" width="148.03" height="100"/>
  <rect class="cls-1" x="471.16" y="146.89" width="148.03" height="200"/>
  <rect class="cls-2" x="471.16" y="46.89" width="148.03" height="300"/>
  <rect class="cls-2" x="26.42" y="46.89" width="148.03" height="300"/>
  <g>
    <path class="cls-1" d="M229.71,184.5a11.76,11.76,0,0,1,1.37-6,27.11,27.11,0,0,1,4.89-5.69,27,27,0,0,0,4.14-4.43,7.6,7.6,0,0,0,1.26-4.42,7.32,7.32,0,0,0-2.23-5.58,8.6,8.6,0,0,0-6.19-2.13,7.91,7.91,0,0,0-5.73,2.06,13,13,0,0,0-3.2,5.07L218.33,161a18.7,18.7,0,0,1,5.19-7.37,13.54,13.54,0,0,1,9.36-3.21,16.12,16.12,0,0,1,7.66,1.77,12.8,12.8,0,0,1,5.19,4.85,13.36,13.36,0,0,1,1.83,6.92,11.28,11.28,0,0,1-2,6.73,35.47,35.47,0,0,1-5.07,5.58,16.84,16.84,0,0,0-3.46,4.1,9.21,9.21,0,0,0-1.08,4.54v3h-6.26Zm-.11,17.75a4.47,4.47,0,0,1-1.33-3.28,4.56,4.56,0,0,1,4.53-4.54,4.46,4.46,0,0,1,3.28,1.34,4.33,4.33,0,0,1,1.33,3.2,4.54,4.54,0,0,1-4.61,4.61A4.4,4.4,0,0,1,229.6,202.25Z"/>
    <path d="M215.24,219.06h34.27v5H215.24Z"/>
    <path class="cls-3" d="M229.71,276.3a11.79,11.79,0,0,1,1.37-6,27.11,27.11,0,0,1,4.89-5.69,27,27,0,0,0,4.14-4.42,7.67,7.67,0,0,0,1.26-4.43,7.32,7.32,0,0,0-2.23-5.58,8.6,8.6,0,0,0-6.19-2.13,7.91,7.91,0,0,0-5.73,2.06,13,13,0,0,0-3.2,5.07l-5.69-2.37a18.66,18.66,0,0,1,5.19-7.38,13.54,13.54,0,0,1,9.36-3.21,16.24,16.24,0,0,1,7.66,1.76,12.85,12.85,0,0,1,5.19,4.87,13.29,13.29,0,0,1,1.83,6.91,11.28,11.28,0,0,1-2,6.73,35.47,35.47,0,0,1-5.07,5.58,16.84,16.84,0,0,0-3.46,4.1,9.21,9.21,0,0,0-1.08,4.54v3h-6.26ZM229.6,294a4.41,4.41,0,0,1-1.33-3.27,4.56,4.56,0,0,1,4.53-4.54,4.46,4.46,0,0,1,3.28,1.34,4.33,4.33,0,0,1,1.33,3.2,4.41,4.41,0,0,1-1.33,3.27,4.46,4.46,0,0,1-3.28,1.34A4.38,4.38,0,0,1,229.6,294Z"/>
  </g>
  <g>
    <path class="cls-1" d="M416.55,184.5a11.86,11.86,0,0,1,1.37-6,27.11,27.11,0,0,1,4.89-5.69A27.55,27.55,0,0,0,427,168.4a7.66,7.66,0,0,0,1.25-4.42A7.32,7.32,0,0,0,426,158.4a8.6,8.6,0,0,0-6.19-2.13,7.87,7.87,0,0,0-5.72,2.06,13,13,0,0,0-3.21,5.07L405.17,161a18.7,18.7,0,0,1,5.19-7.37,13.54,13.54,0,0,1,9.36-3.21,16.16,16.16,0,0,1,7.67,1.77,12.78,12.78,0,0,1,5.18,4.85,13.36,13.36,0,0,1,1.84,6.92,11.28,11.28,0,0,1-2,6.73,35.57,35.57,0,0,1-5.08,5.58,17.31,17.31,0,0,0-3.46,4.1,9.21,9.21,0,0,0-1.08,4.54v3h-6.26Zm-.11,17.75a4.47,4.47,0,0,1-1.33-3.28,4.33,4.33,0,0,1,1.33-3.2,4.38,4.38,0,0,1,3.21-1.34,4.45,4.45,0,0,1,3.27,1.34,4.33,4.33,0,0,1,1.33,3.2,4.54,4.54,0,0,1-4.6,4.61A4.41,4.41,0,0,1,416.44,202.25Z"/>
    <path d="M402.08,219.06h34.27v5H402.08Z"/>
    <path class="cls-3" d="M416.55,276.3a11.89,11.89,0,0,1,1.37-6,27.11,27.11,0,0,1,4.89-5.69,27.56,27.56,0,0,0,4.15-4.42,7.74,7.74,0,0,0,1.25-4.43A7.32,7.32,0,0,0,426,250.2a8.6,8.6,0,0,0-6.19-2.13,7.87,7.87,0,0,0-5.72,2.06,13,13,0,0,0-3.21,5.07l-5.69-2.37a18.66,18.66,0,0,1,5.19-7.38,13.54,13.54,0,0,1,9.36-3.21,16.28,16.28,0,0,1,7.67,1.76,12.82,12.82,0,0,1,5.18,4.87,13.3,13.3,0,0,1,1.84,6.91,11.28,11.28,0,0,1-2,6.73,35.57,35.57,0,0,1-5.08,5.58,17.31,17.31,0,0,0-3.46,4.1,9.21,9.21,0,0,0-1.08,4.54v3h-6.26ZM416.44,294a4.41,4.41,0,0,1-1.33-3.27,4.33,4.33,0,0,1,1.33-3.2,4.38,4.38,0,0,1,3.21-1.34,4.45,4.45,0,0,1,3.27,1.34,4.33,4.33,0,0,1,1.33,3.2,4.58,4.58,0,0,1-7.81,3.27Z"/>
  </g>
  <g>
    <path d="M259.94,63.82a5.11,5.11,0,0,1-1.88-2.37l1.83-.81a3.65,3.65,0,0,0,1.35,1.7,3.49,3.49,0,0,0,2,.6,3.91,3.91,0,0,0,2-.47,1.45,1.45,0,0,0,.82-1.33,1.48,1.48,0,0,0-.65-1.24,5.93,5.93,0,0,0-2-.8l-1.49-.38a5.37,5.37,0,0,1-2.4-1.23,2.9,2.9,0,0,1-.93-2.23,3,3,0,0,1,.63-1.86,4.12,4.12,0,0,1,1.69-1.24,6.16,6.16,0,0,1,2.28-.43,5.76,5.76,0,0,1,2.87.7,3.91,3.91,0,0,1,1.79,1.94l-1.78.82a3,3,0,0,0-2.9-1.63,3.28,3.28,0,0,0-1.76.46,1.38,1.38,0,0,0-.76,1.19,1.33,1.33,0,0,0,.53,1.09,4.26,4.26,0,0,0,1.58.69l1.78.45a5.89,5.89,0,0,1,2.71,1.36,3,3,0,0,1,.91,2.2,3.14,3.14,0,0,1-.65,2,4.09,4.09,0,0,1-1.75,1.3,6.22,6.22,0,0,1-2.45.46A5.62,5.62,0,0,1,259.94,63.82Z"/>
    <path d="M271.94,64.21a3.8,3.8,0,0,1-2.21-3.55,3.59,3.59,0,0,1,1.46-3,6.08,6.08,0,0,1,3.7-1.09,8.35,8.35,0,0,1,2.05.24,5.51,5.51,0,0,1,1.45.55v-.74a2.78,2.78,0,0,0-1-2.2,3.58,3.58,0,0,0-2.42-.82,4.06,4.06,0,0,0-1.9.44,3.56,3.56,0,0,0-1.37,1.24l-1.53-1.16a4.89,4.89,0,0,1,2-1.72,6.15,6.15,0,0,1,2.79-.63A5.6,5.6,0,0,1,278.91,53a4.6,4.6,0,0,1,1.43,3.56v7.76h-1.95V62.6h-.09a4.4,4.4,0,0,1-1.59,1.52,4.6,4.6,0,0,1-2.37.62A5.3,5.3,0,0,1,271.94,64.21Zm4.51-1.8A4,4,0,0,0,277.86,61a3.69,3.69,0,0,0,.53-2,5.12,5.12,0,0,0-1.41-.62,6.48,6.48,0,0,0-1.78-.24,4,4,0,0,0-2.53.69,2.23,2.23,0,0,0-.85,1.8,2,2,0,0,0,.76,1.64,3,3,0,0,0,1.95.62A3.7,3.7,0,0,0,276.45,62.41Z"/>
    <path d="M283.17,52.12h1.94v1.8h.1a4.15,4.15,0,0,1,1.58-1.56,4.31,4.31,0,0,1,2.23-.63,4.19,4.19,0,0,1,2.34.65,3.61,3.61,0,0,1,1.43,1.73,5,5,0,0,1,1.72-1.73,4.7,4.7,0,0,1,2.48-.65A3.89,3.89,0,0,1,300.17,53a5.29,5.29,0,0,1,1.07,3.49v7.85h-2V56.82a3.63,3.63,0,0,0-.69-2.47,2.66,2.66,0,0,0-2.07-.77,2.8,2.8,0,0,0-1.65.53,3.53,3.53,0,0,0-1.17,1.41,4.48,4.48,0,0,0-.42,1.92v6.92h-2V56.84a3.67,3.67,0,0,0-.69-2.49,2.64,2.64,0,0,0-2-.77,2.77,2.77,0,0,0-1.66.54,3.69,3.69,0,0,0-1.16,1.44,4.5,4.5,0,0,0-.42,1.93v6.87h-2Z"/>
    <path d="M306.47,63.9a5.78,5.78,0,0,1-2.17-2.32,7,7,0,0,1-.78-3.32,7.25,7.25,0,0,1,.73-3.26,5.86,5.86,0,0,1,2.08-2.38,5.52,5.52,0,0,1,3.12-.89,5.85,5.85,0,0,1,3.12.81,5.32,5.32,0,0,1,2,2.22,7.15,7.15,0,0,1,.7,3.24,2.3,2.3,0,0,1-.07.62h-9.67a4.85,4.85,0,0,0,.67,2.35,3.9,3.9,0,0,0,1.53,1.44,4.12,4.12,0,0,0,1.93.48,4,4,0,0,0,3.62-2.21l1.73.84a6.13,6.13,0,0,1-2.15,2.36,6.49,6.49,0,0,1-6.42,0Zm6.67-7a3.93,3.93,0,0,0-.43-1.54,3.23,3.23,0,0,0-1.21-1.29,3.8,3.8,0,0,0-2.08-.53,3.45,3.45,0,0,0-2.43.92,4.44,4.44,0,0,0-1.31,2.44Z"/>
    <path d="M321.9,52.12H324l2.93,9.67h0L330,52.12h2.11l3.09,9.64h0l2.9-9.64h2.07l-4,12.24h-2.06L331,54.59l-3.14,9.77h-2Z"/>
    <path d="M341.9,47.17h2v5.07l-.1,1.68h.1a3.86,3.86,0,0,1,1.59-1.56,4.72,4.72,0,0,1,2.39-.63A4.36,4.36,0,0,1,351.33,53a5,5,0,0,1,1.17,3.47v7.85h-2V56.82a3.23,3.23,0,0,0-.84-2.45,3,3,0,0,0-2.18-.79,2.9,2.9,0,0,0-1.76.58,4.17,4.17,0,0,0-1.28,1.48,4.13,4.13,0,0,0-.46,1.9v6.82h-2Z"/>
    <path d="M357.83,63.88a6,6,0,0,1-2.24-2.36,7.07,7.07,0,0,1,0-6.57,6,6,0,0,1,2.24-2.35,6.47,6.47,0,0,1,6.48,0A6.05,6.05,0,0,1,366.56,55a7.14,7.14,0,0,1,0,6.57,6.08,6.08,0,0,1-2.25,2.36,6.53,6.53,0,0,1-6.48,0Zm5.34-1.55a4.2,4.2,0,0,0,1.56-1.62,5.49,5.49,0,0,0,0-5,4.12,4.12,0,0,0-3.66-2.18,4.24,4.24,0,0,0-2.11.56,4.15,4.15,0,0,0-1.57,1.62,5.49,5.49,0,0,0,0,5A4.15,4.15,0,0,0,359,62.33a4.24,4.24,0,0,0,2.11.56A4.18,4.18,0,0,0,363.17,62.33Z"/>
    <path d="M369.62,47.17h2V64.36h-2Z"/>
    <path d="M376.86,63.9a5.78,5.78,0,0,1-2.17-2.32,7,7,0,0,1-.78-3.32,7.25,7.25,0,0,1,.73-3.26,5.86,5.86,0,0,1,2.08-2.38,5.54,5.54,0,0,1,3.12-.89,5.85,5.85,0,0,1,3.12.81,5.32,5.32,0,0,1,2,2.22A7.15,7.15,0,0,1,385.7,58a2.28,2.28,0,0,1-.08.62H376a4.85,4.85,0,0,0,.67,2.35,3.9,3.9,0,0,0,1.53,1.44,4.12,4.12,0,0,0,1.93.48,4,4,0,0,0,3.62-2.21l1.73.84a6.13,6.13,0,0,1-2.15,2.36,6.49,6.49,0,0,1-6.42,0Zm6.68-7a4.13,4.13,0,0,0-.44-1.54,3.23,3.23,0,0,0-1.21-1.29,3.8,3.8,0,0,0-2.08-.53,3.45,3.45,0,0,0-2.43.92,4.44,4.44,0,0,0-1.31,2.44Z"/>
  </g>
  <g>
    <line class="cls-4" x1="249.45" y1="57.1" x2="189.75" y2="57.1"/>
    <polygon points="192 54.13 190.74 57.1 192 60.06 184.97 57.1 192 54.13"/>
  </g>
  <g>
    <line class="cls-4" x1="394.91" y1="57.1" x2="454.61" y2="57.1"/>
    <polygon points="452.36 60.06 453.62 57.1 452.36 54.13 459.38 57.1 452.36 60.06"/>
  </g>
</svg>
