<svg id="Mathematic_Background" data-name="Mathematic Background" xmlns="http://www.w3.org/2000/svg" viewBox="0 0 385 385">
  <defs>
    <style>
      .cls-1 {
        fill: orange;
        opacity: 0.5;
      }

      .cls-2 {
        fill: #9964aa;
      }

      .cls-3 {
        fill: none;
        stroke: #9964aa;
        stroke-linecap: round;
        stroke-linejoin: round;
        stroke-width: 2px;
      }
    </style>
  </defs>
  <title>sbs_cotf6_square</title>
  <g>
    <g>
      <path class="cls-1" d="M126.77,197.84q1.41-1.41,5.6-5.67t5.82-6a25.22,25.22,0,0,0,3.14-3.91,6.65,6.65,0,0,0,.82-3.41,5.07,5.07,0,0,0-.71-2.58,5.33,5.33,0,0,0-2-2,6.51,6.51,0,0,0-3.21-.75,5.45,5.45,0,0,0-3.94,1.43,6.88,6.88,0,0,0-1.93,3.12l-3.55-1.41a10.1,10.1,0,0,1,1.64-3,10,10,0,0,1,3.18-2.68,9.51,9.51,0,0,1,4.73-1.12,10.24,10.24,0,0,1,5.08,1.23,9,9,0,0,1,3.43,3.28,8.39,8.39,0,0,1,1.23,4.41q0,4.78-5,9.87L131.73,198h14.7v3.68H126.77Z"/>
      <path d="M124.72,211.76h21.66v3.18H124.72Z"/>
      <path class="cls-2" d="M132.59,259.63a10.44,10.44,0,0,1-3.7-2.58,10.06,10.06,0,0,1-2.39-4.39l3.5-1.45a7.86,7.86,0,0,0,2.48,4.09,6.25,6.25,0,0,0,4.12,1.46,7.13,7.13,0,0,0,3.23-.75,6.07,6.07,0,0,0,2.39-2.09,5.32,5.32,0,0,0,.88-3,5.11,5.11,0,0,0-.88-2.91,6.09,6.09,0,0,0-2.41-2.07,7.52,7.52,0,0,0-3.35-.75h-2.68v-3.59h2.41a6.19,6.19,0,0,0,4.18-1.44,4.71,4.71,0,0,0,1.69-3.8,4.28,4.28,0,0,0-1.64-3.5,6.24,6.24,0,0,0-4-1.32,5.29,5.29,0,0,0-3.71,1.23,7,7,0,0,0-1.93,3l-3.55-1.5a10,10,0,0,1,3.16-4.44,9.06,9.06,0,0,1,6-2,10.77,10.77,0,0,1,4.91,1.09,8.43,8.43,0,0,1,3.44,3,8,8,0,0,1,1.25,4.36,6.76,6.76,0,0,1-1.23,4.1,8.8,8.8,0,0,1-3.05,2.64v.18a9.05,9.05,0,0,1,3.83,2.94,7.49,7.49,0,0,1,1.5,4.66,9,9,0,0,1-1.39,4.91,9.55,9.55,0,0,1-3.78,3.42,11.28,11.28,0,0,1-5.25,1.22A10.87,10.87,0,0,1,132.59,259.63Z"/>
    </g>
    <g>
      <path class="cls-1" d="M244.85,197.84q1.41-1.41,5.59-5.67t5.83-6a25.85,25.85,0,0,0,3.14-3.91,6.75,6.75,0,0,0,.82-3.41,5.07,5.07,0,0,0-.71-2.58,5.29,5.29,0,0,0-2-2,6.46,6.46,0,0,0-3.21-.75,5.43,5.43,0,0,0-3.93,1.43,6.91,6.91,0,0,0-1.94,3.12l-3.54-1.41a10.06,10.06,0,0,1,1.63-3,9.88,9.88,0,0,1,3.19-2.68,9.48,9.48,0,0,1,4.73-1.12,10.23,10.23,0,0,1,5.07,1.23,9,9,0,0,1,3.44,3.28,8.39,8.39,0,0,1,1.23,4.41q0,4.78-5,9.87L249.81,198H264.5v3.68H244.85Z"/>
      <path d="M242.8,211.76h21.66v3.18H242.8Z"/>
      <path class="cls-2" d="M250.67,259.63a10.56,10.56,0,0,1-3.71-2.58,10.16,10.16,0,0,1-2.39-4.39l3.51-1.45a7.8,7.8,0,0,0,2.48,4.09,6.23,6.23,0,0,0,4.11,1.46,7.1,7.1,0,0,0,3.23-.75,6,6,0,0,0,2.39-2.09,5.25,5.25,0,0,0,.89-3,5,5,0,0,0-.89-2.91,6,6,0,0,0-2.41-2.07,7.44,7.44,0,0,0-3.34-.75h-2.69v-3.59h2.41a6.22,6.22,0,0,0,4.19-1.44,4.74,4.74,0,0,0,1.68-3.8,4.27,4.27,0,0,0-1.63-3.5,6.28,6.28,0,0,0-4.05-1.32,5.27,5.27,0,0,0-3.71,1.23,7,7,0,0,0-1.94,3l-3.54-1.5a9.91,9.91,0,0,1,3.16-4.44,9.06,9.06,0,0,1,6-2,10.8,10.8,0,0,1,4.91,1.09,8.49,8.49,0,0,1,3.44,3,8,8,0,0,1,1.25,4.36,6.76,6.76,0,0,1-1.23,4.1,8.89,8.89,0,0,1-3.05,2.64v.18a9,9,0,0,1,3.82,2.94,7.49,7.49,0,0,1,1.5,4.66,9,9,0,0,1-1.38,4.91,9.61,9.61,0,0,1-3.78,3.42,11.29,11.29,0,0,1-5.26,1.22A10.86,10.86,0,0,1,250.67,259.63Z"/>
    </g>
    <g>
      <rect class="cls-1" x="5.4" y="166.15" width="93.55" height="126.39"/>
      <rect class="cls-3" x="5.4" y="102.96" width="93.55" height="189.59"/>
      <rect class="cls-3" x="5.4" y="229.35" width="93.55" height="63.2"/>
      <rect class="cls-3" x="5.4" y="166.15" width="93.55" height="63.2"/>
    </g>
    <path d="M186.86,204.41h20.29v3.18H186.86Zm0,8.64h20.29v3.19H186.86Z"/>
    <g>
      <path d="M131.21,109.58l1.86-1.88c.93-1,1.58-1.62,1.94-2a7.92,7.92,0,0,0,1.05-1.31,2.24,2.24,0,0,0,.27-1.14,1.72,1.72,0,0,0-.23-.85,1.77,1.77,0,0,0-.68-.65,2.15,2.15,0,0,0-1.07-.26A1.82,1.82,0,0,0,133,102a2.36,2.36,0,0,0-.64,1l-1.18-.47a3.34,3.34,0,0,1,1.6-1.9,3.18,3.18,0,0,1,1.58-.37,3.33,3.33,0,0,1,1.69.41,3,3,0,0,1,1.15,1.09,2.81,2.81,0,0,1,.41,1.47,4.86,4.86,0,0,1-1.67,3.29l-3.11,3.12h4.9v1.23h-6.55Z"/>
      <path d="M145.06,110.84a1.8,1.8,0,0,1-.67-.41,1.76,1.76,0,0,1-.46-.66,2.59,2.59,0,0,1-.15-.93v-4.53h-1.35v-1.17h1.35V101h1.29v2.19H147v1.17h-1.88v4.21a1.49,1.49,0,0,0,.24.94,1,1,0,0,0,.84.34,1.62,1.62,0,0,0,.85-.26v1.26a2.14,2.14,0,0,1-.47.15,3.25,3.25,0,0,1-.6,0A2.49,2.49,0,0,1,145.06,110.84Z"/>
      <path d="M148.59,100h1.29v3.2l-.06,1.07h.06a2.47,2.47,0,0,1,1-1,3,3,0,0,1,1.5-.39,2.77,2.77,0,0,1,2.16.82,3.17,3.17,0,0,1,.74,2.19v5H154v-4.76a2.06,2.06,0,0,0-.53-1.55,1.93,1.93,0,0,0-1.38-.5,1.81,1.81,0,0,0-1.11.37,2.55,2.55,0,0,0-.81.94,2.65,2.65,0,0,0-.29,1.2v4.3h-1.29Z"/>
      <path d="M157.25,101.44a.9.9,0,0,1-.28-.65.88.88,0,0,1,.28-.65.94.94,0,0,1,1.3,0,.91.91,0,0,1,0,1.3.93.93,0,0,1-1.31,0Zm0,1.7h1.28v7.73h-1.28Z"/>
      <path d="M160.57,103.14h1.23v1.24h.06a2.06,2.06,0,0,1,.88-1,2.47,2.47,0,0,1,1.36-.42,2.44,2.44,0,0,1,.91.15v1.4a2.4,2.4,0,0,0-1.09-.25,1.82,1.82,0,0,0-1,.32,2.41,2.41,0,0,0-.75.86,2.45,2.45,0,0,0-.28,1.16v4.32h-1.29Z"/>
      <path d="M167.21,110.59a3.71,3.71,0,0,1-1.33-1.47,4.79,4.79,0,0,1,0-4.22,3.58,3.58,0,0,1,1.33-1.47,3.37,3.37,0,0,1,1.87-.53,3.11,3.11,0,0,1,1.59.4,2.91,2.91,0,0,1,1.06,1h.06l-.06-1.08V100H173v10.86h-1.23v-1.13h-.06a2.86,2.86,0,0,1-1.06,1,3.11,3.11,0,0,1-1.59.41A3.45,3.45,0,0,1,167.21,110.59Zm3.29-1a2.61,2.61,0,0,0,.94-1,3.59,3.59,0,0,0,0-3.09,2.61,2.61,0,0,0-.94-1,2.35,2.35,0,0,0-2.53,0,2.67,2.67,0,0,0-.95,1,3.56,3.56,0,0,0,0,3.08,2.64,2.64,0,0,0,.95,1,2.35,2.35,0,0,0,2.53,0Z"/>
      <path d="M175.48,110.53A3.17,3.17,0,0,1,174.3,109l1.15-.52a2.28,2.28,0,0,0,.86,1.08,2.19,2.19,0,0,0,1.25.38,2.42,2.42,0,0,0,1.24-.3.94.94,0,0,0,.11-1.62,3.82,3.82,0,0,0-1.29-.51l-.94-.24a3.37,3.37,0,0,1-1.52-.77,1.87,1.87,0,0,1-.59-1.42A1.82,1.82,0,0,1,175,104a2.53,2.53,0,0,1,1.07-.78,3.77,3.77,0,0,1,1.44-.27,3.6,3.6,0,0,1,1.81.44,2.47,2.47,0,0,1,1.13,1.22l-1.12.52a1.86,1.86,0,0,0-1.83-1,2.15,2.15,0,0,0-1.12.29.87.87,0,0,0-.48.75.81.81,0,0,0,.34.69,2.53,2.53,0,0,0,1,.44l1.12.29a3.61,3.61,0,0,1,1.71.85,1.86,1.86,0,0,1,.58,1.39,2,2,0,0,1-.41,1.25,2.55,2.55,0,0,1-1.11.83,4,4,0,0,1-1.54.29A3.52,3.52,0,0,1,175.48,110.53Z"/>
      <path d="M185.66,101.44a.86.86,0,0,1-.28-.65.85.85,0,0,1,.28-.65.91.91,0,0,1,.65-.26.92.92,0,0,1,.65.26.88.88,0,0,1,.27.65.92.92,0,0,1-.26.65.9.9,0,0,1-.66.27A.88.88,0,0,1,185.66,101.44Zm0,1.7h1.27v7.73h-1.27Z"/>
      <path d="M189.6,110.53a3.17,3.17,0,0,1-1.18-1.49l1.15-.52a2.28,2.28,0,0,0,.86,1.08,2.19,2.19,0,0,0,1.25.38,2.42,2.42,0,0,0,1.24-.3.94.94,0,0,0,.11-1.62,3.82,3.82,0,0,0-1.29-.51l-.94-.24a3.37,3.37,0,0,1-1.52-.77,1.87,1.87,0,0,1-.59-1.42,1.82,1.82,0,0,1,.4-1.17,2.53,2.53,0,0,1,1.07-.78,3.8,3.8,0,0,1,1.44-.27,3.6,3.6,0,0,1,1.81.44,2.47,2.47,0,0,1,1.13,1.22l-1.12.52a1.86,1.86,0,0,0-1.83-1,2.15,2.15,0,0,0-1.12.29.87.87,0,0,0-.48.75.81.81,0,0,0,.34.69,2.53,2.53,0,0,0,1,.44l1.12.29a3.61,3.61,0,0,1,1.71.85,1.86,1.86,0,0,1,.58,1.39,2,2,0,0,1-.41,1.25,2.55,2.55,0,0,1-1.11.83,4,4,0,0,1-1.54.29A3.52,3.52,0,0,1,189.6,110.53Z"/>
      <path d="M201.13,110.59a3.76,3.76,0,0,1-1.38-1.47,4.4,4.4,0,0,1-.49-2.1,4.58,4.58,0,0,1,.46-2.06,3.75,3.75,0,0,1,1.31-1.5,3.48,3.48,0,0,1,2-.56,3.73,3.73,0,0,1,2,.5,3.43,3.43,0,0,1,1.28,1.41,4.47,4.47,0,0,1,.45,2,1.5,1.5,0,0,1-.05.4h-6.11a3.07,3.07,0,0,0,.42,1.48,2.48,2.48,0,0,0,1,.91,2.57,2.57,0,0,0,3.51-1.09l1.09.53a3.84,3.84,0,0,1-1.36,1.49,3.8,3.8,0,0,1-2.07.55A3.76,3.76,0,0,1,201.13,110.59Zm4.21-4.4a2.48,2.48,0,0,0-.27-1,2,2,0,0,0-.77-.82,2.32,2.32,0,0,0-1.31-.34,2.18,2.18,0,0,0-1.54.59,2.86,2.86,0,0,0-.83,1.54Z"/>
      <path d="M214.21,110.8l.06-1.06h-.06a2.86,2.86,0,0,1-1.06,1,3.08,3.08,0,0,1-1.59.41,3.45,3.45,0,0,1-1.87-.53,3.78,3.78,0,0,1-1.33-1.47,4.79,4.79,0,0,1,0-4.22,3.65,3.65,0,0,1,1.33-1.47,3.37,3.37,0,0,1,1.87-.53,3.08,3.08,0,0,1,1.59.4,2.91,2.91,0,0,1,1.06,1h.06v-1.15h1.23v11h-1.29ZM213,109.58a2.61,2.61,0,0,0,.94-1,3.59,3.59,0,0,0,0-3.09,2.61,2.61,0,0,0-.94-1,2.3,2.3,0,0,0-1.27-.37,2.34,2.34,0,0,0-1.26.37,2.67,2.67,0,0,0-.95,1,3.56,3.56,0,0,0,0,3.08,2.64,2.64,0,0,0,.95,1,2.34,2.34,0,0,0,1.26.37A2.3,2.3,0,0,0,213,109.58Z"/>
      <path d="M218,110.3a3.32,3.32,0,0,1-.74-2.29v-4.87h1.29v4.67a2.26,2.26,0,0,0,.5,1.62,1.79,1.79,0,0,0,1.35.52,2,2,0,0,0,1.16-.35,2.4,2.4,0,0,0,.79-.91,2.56,2.56,0,0,0,.28-1.18v-4.37H224v7.73h-1.23v-1.12h-.06a2.49,2.49,0,0,1-1,1,3,3,0,0,1-1.49.4A2.73,2.73,0,0,1,218,110.3Z"/>
      <path d="M226.74,110.78a2.49,2.49,0,0,1-1-.92,2.44,2.44,0,0,1-.36-1.32,2.25,2.25,0,0,1,.92-1.92,3.82,3.82,0,0,1,2.34-.69,5.31,5.31,0,0,1,1.29.15,3.34,3.34,0,0,1,.92.35V106a1.75,1.75,0,0,0-.6-1.39,2.28,2.28,0,0,0-1.54-.52,2.52,2.52,0,0,0-1.19.28,2.2,2.2,0,0,0-.87.78l-1-.73a3.09,3.09,0,0,1,1.25-1.09,4,4,0,0,1,1.77-.39,3.54,3.54,0,0,1,2.48.82,2.9,2.9,0,0,1,.9,2.25v4.9h-1.23v-1.1h-.06a2.7,2.7,0,0,1-1,1,2.92,2.92,0,0,1-1.5.4A3.4,3.4,0,0,1,226.74,110.78Zm2.85-1.14a2.48,2.48,0,0,0,.9-.89,2.36,2.36,0,0,0,.33-1.23,3.18,3.18,0,0,0-.89-.39,4.17,4.17,0,0,0-1.13-.15,2.46,2.46,0,0,0-1.6.44,1.41,1.41,0,0,0-.53,1.13,1.26,1.26,0,0,0,.48,1,1.84,1.84,0,0,0,1.23.4A2.26,2.26,0,0,0,229.59,109.64Z"/>
      <path d="M233.84,100h1.29v10.86h-1.29Z"/>
      <path d="M242.66,110.84a1.93,1.93,0,0,1-.68-.41,1.85,1.85,0,0,1-.45-.66,2.59,2.59,0,0,1-.15-.93v-4.53H240v-1.17h1.35V101h1.29v2.19h1.88v1.17h-1.88v4.21a1.49,1.49,0,0,0,.24.94,1,1,0,0,0,.83.34,1.57,1.57,0,0,0,.85-.26v1.26a1.9,1.9,0,0,1-.46.15,3.39,3.39,0,0,1-.6,0A2.49,2.49,0,0,1,242.66,110.84Z"/>
      <path d="M247.29,110.57a3.84,3.84,0,0,1-1.42-1.49,4.56,4.56,0,0,1,0-4.15,3.95,3.95,0,0,1,6.94,0,4.56,4.56,0,0,1,0,4.15,3.84,3.84,0,0,1-1.42,1.49,4.1,4.1,0,0,1-4.1,0Zm3.38-1a2.6,2.6,0,0,0,1-1,3.49,3.49,0,0,0,0-3.13,2.63,2.63,0,0,0-3.64-1,2.65,2.65,0,0,0-1,1,3.49,3.49,0,0,0,0,3.13,2.65,2.65,0,0,0,1,1,2.64,2.64,0,0,0,2.66,0Z"/>
      <path d="M167.6,127.78l1.86-1.88,1.95-2a8.29,8.29,0,0,0,1-1.31,2.24,2.24,0,0,0,.28-1.14,1.63,1.63,0,0,0-.24-.85,1.71,1.71,0,0,0-.68-.65,2.14,2.14,0,0,0-1.07-.25,1.79,1.79,0,0,0-1.31.47,2.3,2.3,0,0,0-.65,1l-1.18-.47a3.45,3.45,0,0,1,.54-1,3.39,3.39,0,0,1,1.07-.89,3.14,3.14,0,0,1,1.57-.37,3.4,3.4,0,0,1,1.7.41,2.92,2.92,0,0,1,1.14,1.09,2.81,2.81,0,0,1,.41,1.47,4.86,4.86,0,0,1-1.67,3.29l-3.11,3.13h4.9v1.22H167.6Z"/>
      <path d="M181.45,129a1.94,1.94,0,0,1-1.13-1.07,2.55,2.55,0,0,1-.15-.93v-4.53h-1.35v-1.17h1.35v-2.19h1.29v2.19h1.88v1.17h-1.88v4.21a1.49,1.49,0,0,0,.24.94,1,1,0,0,0,.84.34,1.62,1.62,0,0,0,.85-.26V129a2.06,2.06,0,0,1-.46.15,3.39,3.39,0,0,1-.6,0A2.5,2.5,0,0,1,181.45,129Z"/>
      <path d="M185,118.21h1.29v3.2l-.06,1.07h.06a2.47,2.47,0,0,1,1-1,3,3,0,0,1,1.51-.39,2.75,2.75,0,0,1,2.15.82,3.13,3.13,0,0,1,.74,2.19v5h-1.29v-4.76a2,2,0,0,0-.53-1.55,1.93,1.93,0,0,0-1.38-.5,1.83,1.83,0,0,0-1.11.37,2.55,2.55,0,0,0-.81.94,2.65,2.65,0,0,0-.29,1.2v4.3H185Z"/>
      <path d="M193.64,119.64a.89.89,0,0,1-.27-.65.88.88,0,0,1,.27-.65.92.92,0,0,1,.65-.26.91.91,0,0,1,.65.26.85.85,0,0,1,.28.65.89.89,0,0,1-.27.65.87.87,0,0,1-.66.27A.89.89,0,0,1,193.64,119.64Zm0,1.7h1.27v7.73h-1.27Z"/>
      <path d="M197,121.34h1.23v1.24h.06a2.11,2.11,0,0,1,.88-1,2.58,2.58,0,0,1,2.28-.27v1.4a2.47,2.47,0,0,0-1.1-.24,1.83,1.83,0,0,0-1,.31,2.41,2.41,0,0,0-.75.86,2.45,2.45,0,0,0-.28,1.16v4.32H197Z"/>
      <path d="M203.6,128.79a3.78,3.78,0,0,1-1.33-1.47,4.79,4.79,0,0,1,0-4.22,3.65,3.65,0,0,1,1.33-1.47,3.37,3.37,0,0,1,1.87-.53,3.08,3.08,0,0,1,1.59.4,2.91,2.91,0,0,1,1.06,1h.07l-.07-1.08v-3.2h1.29v10.86h-1.22v-1.13h-.07a2.86,2.86,0,0,1-1.06,1,3.08,3.08,0,0,1-1.59.41A3.45,3.45,0,0,1,203.6,128.79Zm3.29-1a2.61,2.61,0,0,0,.94-1,3.5,3.5,0,0,0,0-3.09,2.61,2.61,0,0,0-.94-1,2.3,2.3,0,0,0-1.27-.37,2.34,2.34,0,0,0-1.26.37,2.57,2.57,0,0,0-.94,1,3.47,3.47,0,0,0,0,3.08,2.54,2.54,0,0,0,.94,1,2.34,2.34,0,0,0,1.26.37A2.3,2.3,0,0,0,206.89,127.78Z"/>
      <path d="M211.87,128.73a3.12,3.12,0,0,1-1.18-1.49l1.15-.52a2.28,2.28,0,0,0,.86,1.08,2.22,2.22,0,0,0,1.25.38,2.42,2.42,0,0,0,1.24-.3.9.9,0,0,0,.52-.84.93.93,0,0,0-.41-.78,3.65,3.65,0,0,0-1.29-.51l-.94-.24a3.42,3.42,0,0,1-1.52-.77,1.86,1.86,0,0,1-.59-1.41,1.83,1.83,0,0,1,.4-1.18,2.59,2.59,0,0,1,1.07-.78,3.84,3.84,0,0,1,1.44-.27,3.66,3.66,0,0,1,1.82.44,2.45,2.45,0,0,1,1.12,1.22l-1.12.52a1.86,1.86,0,0,0-1.83-1,2.15,2.15,0,0,0-1.12.29.87.87,0,0,0-.14,1.45,2.69,2.69,0,0,0,1,.43l1.12.29a3.7,3.7,0,0,1,1.72.85A1.89,1.89,0,0,1,217,127a2,2,0,0,1-.41,1.25,2.58,2.58,0,0,1-1.1.83,4.11,4.11,0,0,1-1.55.29A3.55,3.55,0,0,1,211.87,128.73Z"/>
    </g>
    <g>
      <rect class="cls-1" x="286.45" y="166.15" width="93.55" height="126.39"/>
      <rect class="cls-3" x="286.45" y="102.96" width="93.55" height="189.59"/>
      <rect class="cls-3" x="286.45" y="229.35" width="93.55" height="63.2"/>
      <rect class="cls-3" x="286.45" y="166.15" width="93.55" height="63.2"/>
    </g>
  </g>
</svg>
