<svg id="Mathematic_Background" data-name="Mathematic Background" xmlns="http://www.w3.org/2000/svg" viewBox="0 0 644 393.5">
  <defs>
    <style>
      .cls-1 {
        fill: orange;
        opacity: 0.5;
      }

      .cls-2 {
        fill: none;
        stroke: #9964aa;
        stroke-linecap: round;
        stroke-linejoin: round;
        stroke-width: 2px;
      }

      .cls-3 {
        fill: #9964aa;
      }
    </style>
  </defs>
  <title>sbs_cotf3</title>
  <rect class="cls-1" x="471.16" y="146.89" width="148.03" height="200"/>
  <rect class="cls-1" x="26.42" y="246.89" width="148.03" height="100"/>
  <rect class="cls-2" x="471.16" y="46.89" width="148.03" height="300"/>
  <rect class="cls-2" x="26.42" y="46.89" width="148.03" height="300"/>
  <g>
    <path class="cls-1" d="M230.28,162.46l-8.63,6.2L218.48,164l14-10.08h3.88v49.24h-6.12Z"/>
    <path d="M215.24,219.06h34.27v5H215.24Z"/>
    <path class="cls-3" d="M227.69,294.8a16.52,16.52,0,0,1-5.87-4.07,16.12,16.12,0,0,1-3.78-6.94l5.55-2.31a12.39,12.39,0,0,0,3.92,6.48,9.87,9.87,0,0,0,6.52,2.31,11.29,11.29,0,0,0,5.11-1.19,9.64,9.64,0,0,0,3.78-3.31,8.35,8.35,0,0,0,1.4-4.72,8,8,0,0,0-1.4-4.61,9.62,9.62,0,0,0-3.82-3.27,11.68,11.68,0,0,0-5.29-1.19h-4.25v-5.69h3.82A9.85,9.85,0,0,0,240,264a7.48,7.48,0,0,0,2.67-6,6.81,6.81,0,0,0-2.59-5.55,9.91,9.91,0,0,0-6.41-2.08,8.4,8.4,0,0,0-5.87,1.94,11,11,0,0,0-3.06,4.75l-5.61-2.37a15.68,15.68,0,0,1,5-7,14.26,14.26,0,0,1,9.54-3.14,17.14,17.14,0,0,1,7.77,1.73,13.36,13.36,0,0,1,5.44,4.83,12.55,12.55,0,0,1,2,6.91,10.75,10.75,0,0,1-1.94,6.48,14,14,0,0,1-4.83,4.18V269a14.26,14.26,0,0,1,6,4.65,11.9,11.9,0,0,1,2.38,7.38,14.2,14.2,0,0,1-2.2,7.77,15,15,0,0,1-6,5.4,17.85,17.85,0,0,1-8.31,2A16.88,16.88,0,0,1,227.69,294.8Z"/>
  </g>
  <g>
    <path class="cls-1" d="M405.32,197q2.24-2.22,8.85-9t9.22-9.54a39.22,39.22,0,0,0,5-6.19,10.63,10.63,0,0,0,1.3-5.4,8,8,0,0,0-1.12-4.07,8.47,8.47,0,0,0-3.24-3.09,10.18,10.18,0,0,0-5.08-1.19,8.5,8.5,0,0,0-6.22,2.27,10.71,10.71,0,0,0-3.07,4.93l-5.61-2.24a16.19,16.19,0,0,1,7.63-9,15.11,15.11,0,0,1,7.49-1.76,16.21,16.21,0,0,1,8,1.94,14.25,14.25,0,0,1,5.43,5.18,13.32,13.32,0,0,1,2,7q0,7.56-7.92,15.62l-14.76,14.83h23.25v5.83h-31.1Z"/>
    <path d="M402.08,219.06h34.27v5H402.08Z"/>
    <path class="cls-3" d="M414.54,294.8a16.43,16.43,0,0,1-5.87-4.07,15.91,15.91,0,0,1-3.78-6.94l5.54-2.31a12.46,12.46,0,0,0,3.92,6.48,9.87,9.87,0,0,0,6.52,2.31,11.29,11.29,0,0,0,5.11-1.19,9.5,9.5,0,0,0,3.78-3.31,8.36,8.36,0,0,0,1.41-4.72,8.06,8.06,0,0,0-1.41-4.61,9.59,9.59,0,0,0-3.81-3.27,11.74,11.74,0,0,0-5.29-1.19h-4.25v-5.69h3.81a9.9,9.9,0,0,0,6.63-2.27,7.51,7.51,0,0,0,2.66-6,6.78,6.78,0,0,0-2.59-5.55,9.91,9.91,0,0,0-6.41-2.08,8.4,8.4,0,0,0-5.87,1.94,11.22,11.22,0,0,0-3.06,4.75L406,254.7a15.68,15.68,0,0,1,5-7,14.26,14.26,0,0,1,9.54-3.14,17.21,17.21,0,0,1,7.78,1.73,13.4,13.4,0,0,1,5.43,4.83,12.55,12.55,0,0,1,2,6.91,10.75,10.75,0,0,1-1.94,6.48,14,14,0,0,1-4.83,4.18V269A14.26,14.26,0,0,1,435,273.6a11.84,11.84,0,0,1,2.38,7.38,14.12,14.12,0,0,1-2.2,7.77,15,15,0,0,1-6,5.4,17.9,17.9,0,0,1-8.32,2A16.87,16.87,0,0,1,414.54,294.8Z"/>
  </g>
  <rect class="cls-2" x="26.42" y="246.89" width="148.03" height="100"/>
  <rect class="cls-2" x="26.42" y="146.89" width="148.03" height="100"/>
  <rect class="cls-2" x="471.16" y="246.89" width="148.03" height="100"/>
  <rect class="cls-2" x="471.16" y="146.89" width="148.03" height="100"/>
  <g>
    <path d="M232.73,45.86l-2.88,2.06-1-1.56L233.48,43h1.29V59.42h-2Z"/>
    <path d="M247.24,59.37a3.26,3.26,0,0,1-1.07-.65,2.9,2.9,0,0,1-.72-1,4,4,0,0,1-.24-1.47V49h-2.13V47.18h2.13V43.72h2v3.46h3V49h-3V55.7a2.35,2.35,0,0,0,.39,1.49,1.64,1.64,0,0,0,1.32.52,2.49,2.49,0,0,0,1.34-.4v2a3.28,3.28,0,0,1-.73.24,5.05,5.05,0,0,1-.95.07A3.85,3.85,0,0,1,247.24,59.37Z"/>
    <path d="M252.82,42.23h2V47.3l-.1,1.68h.1a4,4,0,0,1,1.6-1.56,4.66,4.66,0,0,1,2.38-.63,4.35,4.35,0,0,1,3.41,1.31,5,5,0,0,1,1.18,3.47v7.85h-2V51.88a3.23,3.23,0,0,0-.84-2.45,3.1,3.1,0,0,0-2.19-.79,2.92,2.92,0,0,0-1.76.58,4,4,0,0,0-1.27,1.49,4.1,4.1,0,0,0-.47,1.89v6.82h-2Z"/>
    <path d="M266.52,44.49a1.44,1.44,0,0,1-.43-1,1.4,1.4,0,0,1,.43-1,1.45,1.45,0,0,1,1-.42,1.43,1.43,0,0,1,1,.42,1.36,1.36,0,0,1,.43,1,1.43,1.43,0,0,1-.42,1,1.39,1.39,0,0,1-1,.43A1.42,1.42,0,0,1,266.52,44.49Zm0,2.69h2V59.42h-2Z"/>
    <path d="M271.78,47.18h1.94v2h.1a3.24,3.24,0,0,1,1.39-1.67,4,4,0,0,1,2.16-.66,3.88,3.88,0,0,1,1.44.24v2.21a3.76,3.76,0,0,0-1.73-.39,2.83,2.83,0,0,0-1.63.51,3.64,3.64,0,0,0-1.19,1.35,4,4,0,0,0-.44,1.84v6.84h-2Z"/>
    <path d="M282.28,59a5.87,5.87,0,0,1-2.1-2.31,7.65,7.65,0,0,1,0-6.69,5.86,5.86,0,0,1,2.1-2.33,5.45,5.45,0,0,1,3-.84,5,5,0,0,1,2.52.64A4.56,4.56,0,0,1,289.44,49h.1l-.1-1.7V42.23h2V59.42h-1.94v-1.8h-.1a4.69,4.69,0,0,1-1.68,1.55,5,5,0,0,1-2.52.63A5.45,5.45,0,0,1,282.28,59Zm5.21-1.58A4.36,4.36,0,0,0,289,55.75a5.64,5.64,0,0,0,0-4.9,4.28,4.28,0,0,0-1.49-1.63,3.74,3.74,0,0,0-4,0,4.19,4.19,0,0,0-1.5,1.64,5.57,5.57,0,0,0,0,4.87,4.22,4.22,0,0,0,1.5,1.65,3.79,3.79,0,0,0,4,0Z"/>
    <path d="M300.24,44.49a1.44,1.44,0,0,1-.43-1,1.4,1.4,0,0,1,.43-1,1.45,1.45,0,0,1,1-.42,1.43,1.43,0,0,1,1,.42,1.36,1.36,0,0,1,.43,1,1.43,1.43,0,0,1-.42,1,1.39,1.39,0,0,1-1,.43A1.42,1.42,0,0,1,300.24,44.49Zm0,2.69h2V59.42h-2Z"/>
    <path d="M306.48,58.88a5.09,5.09,0,0,1-1.87-2.37l1.83-.81a3.65,3.65,0,0,0,1.35,1.7,3.49,3.49,0,0,0,2,.6,3.81,3.81,0,0,0,2-.47,1.49,1.49,0,0,0,.17-2.56,5.91,5.91,0,0,0-2-.81l-1.49-.38a5.27,5.27,0,0,1-2.4-1.23,2.91,2.91,0,0,1-.94-2.23,3,3,0,0,1,.64-1.86,4,4,0,0,1,1.69-1.23,6,6,0,0,1,2.28-.44,5.89,5.89,0,0,1,2.87.7,3.91,3.91,0,0,1,1.79,1.94l-1.78.82a3,3,0,0,0-2.9-1.63,3.25,3.25,0,0,0-1.77.47,1.36,1.36,0,0,0-.75,1.18,1.32,1.32,0,0,0,.53,1.1,4.26,4.26,0,0,0,1.58.68l1.78.46a5.79,5.79,0,0,1,2.71,1.35,3,3,0,0,1,.91,2.2,3.2,3.2,0,0,1-.65,2,4.11,4.11,0,0,1-1.75,1.31,6.44,6.44,0,0,1-2.45.45A5.65,5.65,0,0,1,306.48,58.88Z"/>
    <path d="M322.42,42.23h2V59.42h-2Z"/>
    <path d="M329.67,59a5.82,5.82,0,0,1-2.17-2.31,7.05,7.05,0,0,1-.78-3.33,7.25,7.25,0,0,1,.73-3.26,6,6,0,0,1,2.07-2.38,5.56,5.56,0,0,1,3.12-.89,5.85,5.85,0,0,1,3.12.81,5.26,5.26,0,0,1,2,2.22,7.15,7.15,0,0,1,.71,3.24,2.25,2.25,0,0,1-.07.62h-9.67a4.74,4.74,0,0,0,.67,2.35A4,4,0,0,0,331,57.47a4.15,4.15,0,0,0,1.93.48,4,4,0,0,0,3.63-2.2l1.73.84a6.25,6.25,0,0,1-2.15,2.35,6,6,0,0,1-3.28.86A6,6,0,0,1,329.67,59Zm6.67-7a4,4,0,0,0-.43-1.53,3.26,3.26,0,0,0-1.21-1.3,3.85,3.85,0,0,0-2.08-.53,3.46,3.46,0,0,0-2.44.93,4.37,4.37,0,0,0-1.3,2.43Z"/>
    <path d="M342,58.88a5,5,0,0,1-1.87-2.37l1.82-.81a3.73,3.73,0,0,0,1.36,1.7,3.49,3.49,0,0,0,2,.6,3.83,3.83,0,0,0,2-.47A1.49,1.49,0,0,0,347.4,55a5.91,5.91,0,0,0-2-.81l-1.48-.38a5.27,5.27,0,0,1-2.4-1.23,2.87,2.87,0,0,1-.94-2.23,3,3,0,0,1,.63-1.86,4.07,4.07,0,0,1,1.7-1.23,6.19,6.19,0,0,1,5.15.26,3.89,3.89,0,0,1,1.78,1.94l-1.77.82a3,3,0,0,0-2.91-1.63,3.2,3.2,0,0,0-1.76.47,1.37,1.37,0,0,0-.76,1.18,1.35,1.35,0,0,0,.53,1.1,4.26,4.26,0,0,0,1.58.68l1.78.46a5.79,5.79,0,0,1,2.71,1.35,3,3,0,0,1,.92,2.2,3.2,3.2,0,0,1-.65,2,4.15,4.15,0,0,1-1.76,1.31,6.39,6.39,0,0,1-2.44.45A5.65,5.65,0,0,1,342,58.88Z"/>
    <path d="M353.33,58.88a5.09,5.09,0,0,1-1.87-2.37l1.82-.81a3.73,3.73,0,0,0,1.36,1.7,3.49,3.49,0,0,0,2,.6,3.83,3.83,0,0,0,2-.47,1.46,1.46,0,0,0,.81-1.33,1.43,1.43,0,0,0-.65-1.23,5.91,5.91,0,0,0-2-.81l-1.48-.38a5.27,5.27,0,0,1-2.4-1.23,3.07,3.07,0,0,1-.3-4.09,4,4,0,0,1,1.69-1.23,6.19,6.19,0,0,1,5.15.26,4,4,0,0,1,1.79,1.94l-1.78.82a3,3,0,0,0-2.9-1.63,3.21,3.21,0,0,0-1.77.47,1.36,1.36,0,0,0-.75,1.18,1.34,1.34,0,0,0,.52,1.1,4.25,4.25,0,0,0,1.59.68l1.77.46a5.83,5.83,0,0,1,2.72,1.35,3,3,0,0,1,.91,2.2,3.2,3.2,0,0,1-.65,2,4.18,4.18,0,0,1-1.75,1.31,6.48,6.48,0,0,1-2.45.45A5.65,5.65,0,0,1,353.33,58.88Z"/>
    <path d="M372.59,59.37a3.26,3.26,0,0,1-1.07-.65,2.9,2.9,0,0,1-.72-1,4,4,0,0,1-.24-1.47V49h-2.13V47.18h2.13V43.72h2v3.46h3V49h-3V55.7a2.35,2.35,0,0,0,.39,1.49,1.64,1.64,0,0,0,1.32.52,2.49,2.49,0,0,0,1.34-.4v2a3.28,3.28,0,0,1-.73.24,5.05,5.05,0,0,1-.95.07A3.85,3.85,0,0,1,372.59,59.37Z"/>
    <path d="M378.17,42.23h2V47.3l-.1,1.68h.1a4,4,0,0,1,1.6-1.56,4.66,4.66,0,0,1,2.38-.63,4.35,4.35,0,0,1,3.41,1.31,5,5,0,0,1,1.18,3.47v7.85h-2V51.88a3.23,3.23,0,0,0-.84-2.45,3.1,3.1,0,0,0-2.19-.79,2.92,2.92,0,0,0-1.76.58,4,4,0,0,0-1.27,1.49,4.1,4.1,0,0,0-.47,1.89v6.82h-2Z"/>
    <path d="M393.1,59.27a3.85,3.85,0,0,1-2.21-3.55,3.57,3.57,0,0,1,1.46-3,6,6,0,0,1,3.7-1.1,8.29,8.29,0,0,1,2.05.24,5.15,5.15,0,0,1,1.45.56v-.75a2.74,2.74,0,0,0-1-2.19,3.52,3.52,0,0,0-2.42-.83,4.18,4.18,0,0,0-1.9.44,3.47,3.47,0,0,0-1.36,1.24l-1.54-1.15a4.84,4.84,0,0,1,2-1.73,6.16,6.16,0,0,1,2.8-.63,5.59,5.59,0,0,1,3.92,1.31,4.6,4.6,0,0,1,1.43,3.57v7.75h-1.95V57.67h-.09a4.38,4.38,0,0,1-1.59,1.51,4.6,4.6,0,0,1-2.37.62A5.17,5.17,0,0,1,393.1,59.27Zm4.51-1.8A4.08,4.08,0,0,0,399,56.06a3.75,3.75,0,0,0,.52-2,5.12,5.12,0,0,0-1.41-.62,6.43,6.43,0,0,0-1.78-.24,3.89,3.89,0,0,0-2.53.7,2.2,2.2,0,0,0-.85,1.8,2,2,0,0,0,.77,1.63,3,3,0,0,0,1.94.62A3.61,3.61,0,0,0,397.61,57.47Z"/>
    <path d="M404.33,47.18h1.94V49h.1A4.09,4.09,0,0,1,408,47.43a4.66,4.66,0,0,1,2.35-.64,4.3,4.3,0,0,1,3.37,1.29,5,5,0,0,1,1.17,3.49v7.85h-2V51.88a3.28,3.28,0,0,0-.82-2.47,3.13,3.13,0,0,0-2.23-.77,3,3,0,0,0-1.77.55,3.76,3.76,0,0,0-1.21,1.46,4.24,4.24,0,0,0-.43,1.88v6.89h-2Z"/>
    <path d="M283.08,86.18l3-3q2.2-2.25,3.07-3.18A13.26,13.26,0,0,0,290.76,78a3.53,3.53,0,0,0,.44-1.8,2.64,2.64,0,0,0-.38-1.36,2.69,2.69,0,0,0-1.08-1,3.33,3.33,0,0,0-1.69-.4,2.83,2.83,0,0,0-2.07.76,3.58,3.58,0,0,0-1,1.64L283.08,75a5.3,5.3,0,0,1,.87-1.6A5.13,5.13,0,0,1,285.63,72a4.93,4.93,0,0,1,2.49-.59,5.35,5.35,0,0,1,2.68.65,4.69,4.69,0,0,1,1.81,1.72,4.48,4.48,0,0,1,.65,2.33q0,2.52-2.64,5.21l-4.92,4.94h7.75v2H283.08Z"/>
    <path d="M305,88.17a3.16,3.16,0,0,1-1.07-.65,2.9,2.9,0,0,1-.72-1A4,4,0,0,1,303,85V77.83h-2.14V76H303V72.52h2V76h3v1.85h-3V84.5A2.42,2.42,0,0,0,305.4,86a1.67,1.67,0,0,0,1.32.52,2.5,2.5,0,0,0,1.35-.4v2a3.46,3.46,0,0,1-.73.24,5.05,5.05,0,0,1-.95.07A3.85,3.85,0,0,1,305,88.17Z"/>
    <path d="M310.59,71h2V76.1l-.1,1.68h.1a3.92,3.92,0,0,1,1.59-1.56,4.72,4.72,0,0,1,2.39-.63A4.35,4.35,0,0,1,320,76.9a5,5,0,0,1,1.18,3.47v7.85h-2V80.68a3.23,3.23,0,0,0-.84-2.45,3.1,3.1,0,0,0-2.19-.79,2.9,2.9,0,0,0-1.76.58,4.26,4.26,0,0,0-1.74,3.38v6.82h-2Z"/>
    <path d="M324.29,73.29a1.4,1.4,0,0,1-.43-1,1.36,1.36,0,0,1,.43-1,1.43,1.43,0,0,1,1-.42,1.45,1.45,0,0,1,1,.42,1.4,1.4,0,0,1,.43,1,1.43,1.43,0,0,1-.42,1,1.47,1.47,0,0,1-2.08,0Zm0,2.69h2V88.22h-2Z"/>
    <path d="M329.55,76h1.94v2h.1A3.24,3.24,0,0,1,333,76.28a4,4,0,0,1,2.16-.66,3.88,3.88,0,0,1,1.44.24v2.21a3.76,3.76,0,0,0-1.73-.39,2.81,2.81,0,0,0-1.63.51A3.55,3.55,0,0,0,332,79.54a4,4,0,0,0-.44,1.84v6.84h-2Z"/>
    <path d="M340.05,87.76a5.87,5.87,0,0,1-2.1-2.31,7.65,7.65,0,0,1,0-6.69,5.86,5.86,0,0,1,2.1-2.33,5.43,5.43,0,0,1,3-.84,5,5,0,0,1,2.52.64,4.56,4.56,0,0,1,1.68,1.57h.1l-.1-1.7V71h2V88.22h-1.94v-1.8h-.1A4.69,4.69,0,0,1,345.53,88a5,5,0,0,1-2.52.63A5.43,5.43,0,0,1,340.05,87.76Zm5.21-1.58a4.26,4.26,0,0,0,1.48-1.63,5.55,5.55,0,0,0,0-4.9A4.18,4.18,0,0,0,345.26,78a3.74,3.74,0,0,0-4,0,4.19,4.19,0,0,0-1.5,1.64,5.57,5.57,0,0,0,0,4.87,4.22,4.22,0,0,0,1.5,1.65,3.79,3.79,0,0,0,4,0Z"/>
    <path d="M353.14,87.68a5,5,0,0,1-1.87-2.37l1.82-.81a3.73,3.73,0,0,0,1.36,1.7,3.49,3.49,0,0,0,2,.6,3.83,3.83,0,0,0,2-.47,1.46,1.46,0,0,0,.81-1.33,1.43,1.43,0,0,0-.65-1.23,5.91,5.91,0,0,0-2-.81L355,82.58a5.27,5.27,0,0,1-2.4-1.23,2.87,2.87,0,0,1-.94-2.23,3,3,0,0,1,.63-1.86A4.07,4.07,0,0,1,354,76a6.19,6.19,0,0,1,5.15.26A3.89,3.89,0,0,1,361,78.23l-1.77.82a3,3,0,0,0-2.91-1.63,3.2,3.2,0,0,0-1.76.47,1.37,1.37,0,0,0-.76,1.18,1.35,1.35,0,0,0,.53,1.1,4.25,4.25,0,0,0,1.59.68l1.77.46a5.79,5.79,0,0,1,2.71,1.35,3,3,0,0,1,.92,2.2,3.2,3.2,0,0,1-.65,2,4.18,4.18,0,0,1-1.75,1.31,6.48,6.48,0,0,1-2.45.45A5.65,5.65,0,0,1,353.14,87.68Z"/>
  </g>
  <path d="M313.13,222.47V218l27.57-13.25v5.62l-21.09,9.72v.29l21.09,9.72v5.61Z"/>
</svg>
