<svg id="Mathematic_Background" data-name="Mathematic Background" xmlns="http://www.w3.org/2000/svg" viewBox="0 0 385 385">
  <defs>
    <style>
      .cls-1 {
        fill: orange;
        opacity: 0.5;
      }

      .cls-2 {
        fill: #9964aa;
      }

      .cls-3, .cls-4 {
        fill: none;
        stroke-linecap: round;
        stroke-linejoin: round;
      }

      .cls-3 {
        stroke: #9964aa;
        stroke-width: 2px;
      }

      .cls-4 {
        stroke: #000;
      }
    </style>
  </defs>
  <title>sbs_cotf4_square</title>
  <g>
    <g>
      <path class="cls-1" d="M126.77,196.79c.94-.94,2.81-2.82,5.6-5.66s4.73-4.85,5.82-6a25.22,25.22,0,0,0,3.14-3.91,6.66,6.66,0,0,0,.82-3.42,5,5,0,0,0-.71-2.57,5.33,5.33,0,0,0-2-1.95,6.51,6.51,0,0,0-3.21-.75,5.41,5.41,0,0,0-3.94,1.43,6.88,6.88,0,0,0-1.93,3.12l-3.55-1.41a10.1,10.1,0,0,1,1.64-3,10,10,0,0,1,3.18-2.68,9.51,9.51,0,0,1,4.73-1.12A10.24,10.24,0,0,1,141.4,170a9,9,0,0,1,3.43,3.28,8.39,8.39,0,0,1,1.23,4.41c0,3.18-1.67,6.48-5,9.87L131.73,197h14.7v3.68H126.77Z"/>
      <path d="M124.72,210.72h21.66v3.18H124.72Z"/>
      <path class="cls-2" d="M133.87,246.89a7.58,7.58,0,0,1,.86-3.78,17.28,17.28,0,0,1,3.1-3.59,17.22,17.22,0,0,0,2.61-2.8,4.83,4.83,0,0,0,.8-2.8,4.63,4.63,0,0,0-1.41-3.52,5.43,5.43,0,0,0-3.91-1.35,5,5,0,0,0-3.62,1.3,8.32,8.32,0,0,0-2,3.21l-3.59-1.5a11.9,11.9,0,0,1,3.27-4.67,8.57,8.57,0,0,1,5.92-2,10.29,10.29,0,0,1,4.85,1.11,8.1,8.1,0,0,1,3.27,3.08,8.32,8.32,0,0,1,1.16,4.36,7.17,7.17,0,0,1-1.25,4.26,21.75,21.75,0,0,1-3.21,3.52,10.53,10.53,0,0,0-2.18,2.6,5.74,5.74,0,0,0-.68,2.86v1.91h-4Zm-.07,11.22A2.81,2.81,0,0,1,133,256a2.87,2.87,0,0,1,2.86-2.87,2.81,2.81,0,0,1,2.07.84,2.74,2.74,0,0,1,.85,2,2.78,2.78,0,0,1-.85,2.07,2.81,2.81,0,0,1-2.07.84A2.76,2.76,0,0,1,133.8,258.11Z"/>
    </g>
    <g>
      <path class="cls-1" d="M244.85,196.79c.94-.94,2.8-2.82,5.59-5.66s4.73-4.85,5.83-6a25.85,25.85,0,0,0,3.14-3.91,6.76,6.76,0,0,0,.82-3.42,5,5,0,0,0-.71-2.57,5.29,5.29,0,0,0-2-1.95,6.46,6.46,0,0,0-3.21-.75,5.38,5.38,0,0,0-3.93,1.43,6.91,6.91,0,0,0-1.94,3.12l-3.54-1.41a10.06,10.06,0,0,1,1.63-3,9.88,9.88,0,0,1,3.19-2.68,9.48,9.48,0,0,1,4.73-1.12,10.23,10.23,0,0,1,5.07,1.23,9,9,0,0,1,3.44,3.28,8.39,8.39,0,0,1,1.23,4.41c0,3.18-1.67,6.48-5,9.87L249.81,197H264.5v3.68H244.85Z"/>
      <path d="M242.8,210.72h21.66v3.18H242.8Z"/>
      <path class="cls-2" d="M251.94,246.89a7.47,7.47,0,0,1,.87-3.78,17.17,17.17,0,0,1,3.09-3.59,16.92,16.92,0,0,0,2.62-2.8,4.83,4.83,0,0,0,.8-2.8,4.64,4.64,0,0,0-1.42-3.52,5.42,5.42,0,0,0-3.91-1.35,5,5,0,0,0-3.62,1.3,8.3,8.3,0,0,0-2,3.21l-3.59-1.5a11.7,11.7,0,0,1,3.27-4.67,8.57,8.57,0,0,1,5.92-2,10.25,10.25,0,0,1,4.84,1.11,8.19,8.19,0,0,1,3.28,3.08,8.41,8.41,0,0,1,1.16,4.36,7.17,7.17,0,0,1-1.25,4.26,22.71,22.71,0,0,1-3.21,3.52,10.53,10.53,0,0,0-2.18,2.6,5.74,5.74,0,0,0-.69,2.86v1.91h-4Zm-.06,11.22A2.78,2.78,0,0,1,251,256a2.89,2.89,0,0,1,2.87-2.87A2.81,2.81,0,0,1,256,254a2.77,2.77,0,0,1,.84,2A2.87,2.87,0,0,1,253.9,259,2.75,2.75,0,0,1,251.88,258.11Z"/>
    </g>
    <g>
      <rect class="cls-1" x="286.45" y="259.93" width="93.55" height="31.58"/>
      <rect class="cls-1" x="286.45" y="228.31" width="93.55" height="31.58"/>
      <rect class="cls-3" x="286.45" y="101.92" width="93.55" height="189.59"/>
      <rect class="cls-3" x="286.45" y="259.93" width="93.55" height="31.58"/>
      <rect class="cls-3" x="286.45" y="228.36" width="93.55" height="31.58"/>
      <rect class="cls-3" x="286.45" y="196.69" width="93.55" height="31.58"/>
      <rect class="cls-3" x="286.45" y="165.02" width="93.55" height="31.58"/>
      <rect class="cls-3" x="286.45" y="133.45" width="93.55" height="31.58"/>
    </g>
    <g>
      <rect class="cls-1" x="5.4" y="165.11" width="93.55" height="126.39"/>
      <rect class="cls-3" x="5.4" y="101.92" width="93.55" height="189.59"/>
      <rect class="cls-3" x="5.4" y="228.31" width="93.55" height="63.2"/>
      <rect class="cls-3" x="5.4" y="165.11" width="93.55" height="63.2"/>
    </g>
    <g>
      <path d="M136.85,131.11a3.23,3.23,0,0,1-1.18-1.49l1.15-.52a2.28,2.28,0,0,0,.86,1.08,2.24,2.24,0,0,0,1.25.38,2.4,2.4,0,0,0,1.24-.3.92.92,0,0,0,.52-.84.93.93,0,0,0-.41-.78,3.65,3.65,0,0,0-1.29-.51l-.94-.24a3.33,3.33,0,0,1-1.52-.78,1.83,1.83,0,0,1-.59-1.41,1.88,1.88,0,0,1,.4-1.17,2.59,2.59,0,0,1,1.07-.78,3.86,3.86,0,0,1,1.45-.28,3.73,3.73,0,0,1,1.81.44,2.58,2.58,0,0,1,1.13,1.23l-1.12.52a1.88,1.88,0,0,0-1.84-1,2.11,2.11,0,0,0-1.11.29.87.87,0,0,0-.48.75.83.83,0,0,0,.33.69,2.76,2.76,0,0,0,1,.44l1.12.28a3.8,3.8,0,0,1,1.72.86,1.89,1.89,0,0,1,.57,1.39,2,2,0,0,1-.4,1.25,2.76,2.76,0,0,1-1.11.83,4.07,4.07,0,0,1-1.55.28A3.54,3.54,0,0,1,136.85,131.11Z"/>
      <path d="M144.44,131.36a2.43,2.43,0,0,1-1-.92,2.39,2.39,0,0,1-.37-1.32,2.26,2.26,0,0,1,.93-1.92,3.77,3.77,0,0,1,2.33-.69,5.33,5.33,0,0,1,1.3.15,3.48,3.48,0,0,1,.92.35v-.47a1.76,1.76,0,0,0-.61-1.39,2.25,2.25,0,0,0-1.53-.52,2.53,2.53,0,0,0-1.2.28,2.09,2.09,0,0,0-.86.78l-1-.73a3.12,3.12,0,0,1,1.26-1.09,4,4,0,0,1,1.76-.4,3.54,3.54,0,0,1,2.48.83,2.9,2.9,0,0,1,.9,2.25v4.9h-1.22v-1.11h-.06a2.75,2.75,0,0,1-1,1,2.89,2.89,0,0,1-1.5.39A3.35,3.35,0,0,1,144.44,131.36Zm2.85-1.14a2.53,2.53,0,0,0,.89-.89,2.4,2.4,0,0,0,.34-1.23,3.25,3.25,0,0,0-.9-.39,3.75,3.75,0,0,0-1.12-.16,2.5,2.5,0,0,0-1.6.44,1.42,1.42,0,0,0-.54,1.14,1.24,1.24,0,0,0,.49,1,1.83,1.83,0,0,0,1.22.4A2.29,2.29,0,0,0,147.29,130.22Z"/>
      <path d="M151.53,123.72h1.23v1.13h.06a2.77,2.77,0,0,1,1-1,2.8,2.8,0,0,1,1.42-.4,2.66,2.66,0,0,1,1.47.41,2.38,2.38,0,0,1,.91,1.1,3.16,3.16,0,0,1,1.08-1.1,3,3,0,0,1,1.57-.41,2.44,2.44,0,0,1,2,.82,3.33,3.33,0,0,1,.68,2.2v5h-1.28v-4.76a2.29,2.29,0,0,0-.44-1.56,1.65,1.65,0,0,0-1.3-.49,1.71,1.71,0,0,0-1.05.34,2.32,2.32,0,0,0-.74.89,2.89,2.89,0,0,0-.26,1.21v4.37H156.6V126.7a2.32,2.32,0,0,0-.44-1.57,1.62,1.62,0,0,0-1.29-.49,1.83,1.83,0,0,0-1.05.34,2.36,2.36,0,0,0-.73.91,2.82,2.82,0,0,0-.27,1.22v4.34h-1.29Z"/>
      <path d="M166.26,131.16a3.64,3.64,0,0,1-1.37-1.46,4.4,4.4,0,0,1-.49-2.1,4.55,4.55,0,0,1,.46-2.06,3.67,3.67,0,0,1,1.31-1.5,3.45,3.45,0,0,1,2-.57,3.68,3.68,0,0,1,2,.51,3.38,3.38,0,0,1,1.29,1.41,4.57,4.57,0,0,1,.44,2,1.59,1.59,0,0,1,0,.4h-6.11a3.07,3.07,0,0,0,.42,1.48,2.39,2.39,0,0,0,1,.91,2.54,2.54,0,0,0,1.22.31,2.52,2.52,0,0,0,2.29-1.4l1.1.53a4,4,0,0,1-1.36,1.49,3.8,3.8,0,0,1-2.07.54A3.73,3.73,0,0,1,166.26,131.16Zm4.22-4.39a2.43,2.43,0,0,0-.28-1,2,2,0,0,0-.76-.81,2.34,2.34,0,0,0-1.31-.34,2.18,2.18,0,0,0-1.54.59,2.8,2.8,0,0,0-.83,1.54Z"/>
      <path d="M176.86,123.72h1.23v1.13h.06a2.52,2.52,0,0,1,1-1,2.9,2.9,0,0,1,1.48-.41,2.74,2.74,0,0,1,2.14.82,3.14,3.14,0,0,1,.73,2.2v5h-1.29v-4.76a2.06,2.06,0,0,0-.51-1.56,2,2,0,0,0-1.41-.49,1.91,1.91,0,0,0-1.12.35,2.29,2.29,0,0,0-.76.92,2.6,2.6,0,0,0-.28,1.19v4.35h-1.29Z"/>
      <path d="M186.05,130.88a3.32,3.32,0,0,1-.74-2.29v-4.87h1.29v4.67a2.26,2.26,0,0,0,.5,1.62,1.8,1.8,0,0,0,1.35.52,2,2,0,0,0,1.16-.35,2.4,2.4,0,0,0,.79-.91,2.6,2.6,0,0,0,.28-1.19v-4.36H192v7.73h-1.23v-1.12h-.06a2.52,2.52,0,0,1-1,1,3,3,0,0,1-1.48.39A2.73,2.73,0,0,1,186.05,130.88Z"/>
      <path d="M193.88,123.72h1.23v1.13h.06a2.69,2.69,0,0,1,1-1,2.79,2.79,0,0,1,1.41-.4,2.67,2.67,0,0,1,1.48.41,2.3,2.3,0,0,1,.9,1.1,3.28,3.28,0,0,1,1.09-1.1,3,3,0,0,1,1.57-.41,2.44,2.44,0,0,1,2,.82,3.32,3.32,0,0,1,.67,2.2v5H204v-4.76a2.29,2.29,0,0,0-.44-1.56,1.67,1.67,0,0,0-1.31-.49,1.71,1.71,0,0,0-1,.34,2.23,2.23,0,0,0-.74.89,2.74,2.74,0,0,0-.26,1.21v4.37H199V126.7a2.32,2.32,0,0,0-.44-1.57,1.65,1.65,0,0,0-1.29-.49,1.78,1.78,0,0,0-1.05.34,2.27,2.27,0,0,0-.73.91,2.82,2.82,0,0,0-.27,1.22v4.34h-1.29Z"/>
      <path d="M208.61,131.16a3.57,3.57,0,0,1-1.37-1.46,4.4,4.4,0,0,1-.5-2.1,4.68,4.68,0,0,1,.46-2.06,3.7,3.7,0,0,1,1.32-1.5,3.43,3.43,0,0,1,2-.57,3.7,3.7,0,0,1,2,.51,3.36,3.36,0,0,1,1.28,1.41,4.44,4.44,0,0,1,.45,2,1.56,1.56,0,0,1-.05.4H208a3,3,0,0,0,.43,1.48,2.39,2.39,0,0,0,1,.91,2.57,2.57,0,0,0,3.51-1.09l1.09.53a3.63,3.63,0,0,1-3.43,2A3.69,3.69,0,0,1,208.61,131.16Zm4.21-4.39a2.58,2.58,0,0,0-.27-1,2.09,2.09,0,0,0-.76-.81,2.36,2.36,0,0,0-1.32-.34,2.2,2.2,0,0,0-1.54.59,2.78,2.78,0,0,0-.82,1.54Z"/>
      <path d="M215.69,123.72h1.23V125H217a2,2,0,0,1,.88-1,2.47,2.47,0,0,1,1.36-.42,2.44,2.44,0,0,1,.91.15V125a2.28,2.28,0,0,0-1.09-.25,1.82,1.82,0,0,0-1,.32,2.33,2.33,0,0,0-.75.86,2.43,2.43,0,0,0-.28,1.16v4.32h-1.29Z"/>
      <path d="M222,131.36a2.43,2.43,0,0,1-1-.92,2.47,2.47,0,0,1-.36-1.32,2.25,2.25,0,0,1,.92-1.92,3.82,3.82,0,0,1,2.34-.69,5.31,5.31,0,0,1,1.29.15,3.34,3.34,0,0,1,.92.35v-.47a1.73,1.73,0,0,0-.61-1.39,2.24,2.24,0,0,0-1.53-.52,2.58,2.58,0,0,0-1.2.28,2.09,2.09,0,0,0-.86.78l-1-.73a3.09,3.09,0,0,1,1.25-1.09,4,4,0,0,1,1.77-.4,3.56,3.56,0,0,1,2.48.83,2.9,2.9,0,0,1,.9,2.25v4.9h-1.23v-1.11h-.06a2.72,2.72,0,0,1-1,1,2.94,2.94,0,0,1-1.5.39A3.37,3.37,0,0,1,222,131.36Zm2.85-1.14a2.56,2.56,0,0,0,.9-.89,2.39,2.39,0,0,0,.33-1.23,3.18,3.18,0,0,0-.89-.39,3.81,3.81,0,0,0-1.13-.16,2.52,2.52,0,0,0-1.6.44,1.42,1.42,0,0,0-.54,1.14,1.27,1.27,0,0,0,.49,1,1.84,1.84,0,0,0,1.23.4A2.26,2.26,0,0,0,224.88,130.22Z"/>
      <path d="M231.08,131.42a2,2,0,0,1-.68-.41,1.8,1.8,0,0,1-.45-.67,2.5,2.5,0,0,1-.15-.92v-4.54h-1.35v-1.16h1.35v-2.19h1.29v2.19H233v1.16h-1.88v4.22a1.49,1.49,0,0,0,.24.94,1,1,0,0,0,.83.33,1.56,1.56,0,0,0,.85-.25v1.26a1.9,1.9,0,0,1-.46.15,3.39,3.39,0,0,1-.6,0A2.49,2.49,0,0,1,231.08,131.42Z"/>
      <path d="M235.71,131.15a3.84,3.84,0,0,1-1.42-1.49,4.56,4.56,0,0,1,0-4.15,3.77,3.77,0,0,1,1.42-1.49,4.1,4.1,0,0,1,4.1,0,3.75,3.75,0,0,1,1.41,1.49,4.48,4.48,0,0,1,0,4.15,3.81,3.81,0,0,1-1.41,1.49,4.16,4.16,0,0,1-4.1,0Zm3.38-1a2.67,2.67,0,0,0,1-1,3.49,3.49,0,0,0,0-3.13,2.67,2.67,0,0,0-1-1,2.6,2.6,0,0,0-1.33-.36,2.64,2.64,0,0,0-1.34.36,2.7,2.7,0,0,0-1,1,3.49,3.49,0,0,0,0,3.13,2.7,2.7,0,0,0,1,1,2.64,2.64,0,0,0,1.34.36A2.6,2.6,0,0,0,239.09,130.17Z"/>
      <path d="M243.08,123.72h1.23V125h.06a2.07,2.07,0,0,1,.88-1,2.58,2.58,0,0,1,2.28-.27V125a2.34,2.34,0,0,0-1.1-.25,1.84,1.84,0,0,0-1,.32,2.33,2.33,0,0,0-.75.86,2.55,2.55,0,0,0-.28,1.16v4.32h-1.29Z"/>
      <path d="M249.09,131.11a3.17,3.17,0,0,1-1.18-1.49l1.15-.52a2.28,2.28,0,0,0,.86,1.08,2.19,2.19,0,0,0,1.25.38,2.42,2.42,0,0,0,1.24-.3.94.94,0,0,0,.11-1.62,3.82,3.82,0,0,0-1.29-.51l-.94-.24a3.28,3.28,0,0,1-1.52-.78,1.95,1.95,0,0,1-.19-2.58,2.53,2.53,0,0,1,1.07-.78,3.77,3.77,0,0,1,1.44-.28,3.7,3.7,0,0,1,1.81.44,2.54,2.54,0,0,1,1.13,1.23l-1.12.52a1.86,1.86,0,0,0-1.83-1,2.15,2.15,0,0,0-1.12.29.87.87,0,0,0-.48.75.81.81,0,0,0,.34.69,2.68,2.68,0,0,0,1,.44l1.12.28a3.71,3.71,0,0,1,1.71.86,1.86,1.86,0,0,1,.58,1.39,2,2,0,0,1-.41,1.25,2.63,2.63,0,0,1-1.11.83,4,4,0,0,1-1.54.28A3.52,3.52,0,0,1,249.09,131.11Z"/>
    </g>
    <g>
      <g>
        <line class="cls-4" x1="182.77" y1="139.14" x2="157.34" y2="164.58"/>
        <polygon points="156.83 160.89 158.04 163.88 161.02 165.08 153.96 167.95 156.83 160.89"/>
      </g>
      <g>
        <line class="cls-4" x1="208.88" y1="139.14" x2="234.31" y2="164.58"/>
        <polygon points="230.63 165.08 233.61 163.88 234.82 160.89 237.69 167.95 230.63 165.08"/>
      </g>
    </g>
  </g>
</svg>
