<svg id="Mathematic_Background" data-name="Mathematic Background" xmlns="http://www.w3.org/2000/svg" viewBox="0 0 385 385">
  <defs>
    <style>
      .cls-1 {
        fill: orange;
        opacity: 0.5;
      }

      .cls-2, .cls-4 {
        fill: none;
        stroke-linecap: round;
        stroke-linejoin: round;
      }

      .cls-2 {
        stroke: #9964aa;
        stroke-width: 2px;
      }

      .cls-3 {
        fill: #9964aa;
      }

      .cls-4 {
        stroke: #000;
      }
    </style>
  </defs>
  <title>sbs_cotf2_square</title>
  <g>
    <rect class="cls-1" x="284.81" y="156.44" width="92.1" height="124.44"/>
    <rect class="cls-1" x="8.09" y="218.66" width="92.1" height="62.22"/>
    <rect class="cls-2" x="284.81" y="94.22" width="92.1" height="186.66"/>
    <rect class="cls-2" x="8.09" y="94.22" width="92.1" height="186.66"/>
    <g>
      <path class="cls-1" d="M134.58,179.84a7.37,7.37,0,0,1,.85-3.72,16.78,16.78,0,0,1,3-3.54,16.74,16.74,0,0,0,2.57-2.75,4.8,4.8,0,0,0,.79-2.76,4.59,4.59,0,0,0-1.39-3.47,5.38,5.38,0,0,0-3.86-1.32,4.91,4.91,0,0,0-3.56,1.27,8.24,8.24,0,0,0-2,3.16l-3.54-1.48a11.62,11.62,0,0,1,3.23-4.59,8.41,8.41,0,0,1,5.82-2,10.11,10.11,0,0,1,4.77,1.1,8.05,8.05,0,0,1,3.23,3,8.3,8.3,0,0,1,1.14,4.3,7,7,0,0,1-1.23,4.19,22.53,22.53,0,0,1-3.16,3.47,10.45,10.45,0,0,0-2.15,2.56,5.66,5.66,0,0,0-.67,2.82V182h-3.9Zm-.07,11a2.78,2.78,0,0,1-.83-2A2.83,2.83,0,0,1,136.5,186a2.78,2.78,0,0,1,2,.83,2.73,2.73,0,0,1,.83,2,2.83,2.83,0,0,1-2.87,2.87A2.73,2.73,0,0,1,134.51,190.88Z"/>
      <path d="M125.57,201.34H146.9v3.14H125.57Z"/>
      <path class="cls-3" d="M133.32,248.47a10.33,10.33,0,0,1-3.65-2.53,10,10,0,0,1-2.35-4.33l3.45-1.43a7.74,7.74,0,0,0,2.44,4,6.13,6.13,0,0,0,4.06,1.44,7.08,7.08,0,0,0,3.18-.74,6,6,0,0,0,2.35-2.06,5.23,5.23,0,0,0,.87-2.94,5,5,0,0,0-.87-2.86,5.93,5.93,0,0,0-2.38-2,7.23,7.23,0,0,0-3.29-.74h-2.64v-3.54h2.37a6.13,6.13,0,0,0,4.12-1.41,4.66,4.66,0,0,0,1.66-3.74,4.2,4.2,0,0,0-1.61-3.45,6.15,6.15,0,0,0-4-1.3,5.19,5.19,0,0,0-3.65,1.21,6.79,6.79,0,0,0-1.9,3l-3.5-1.47a9.78,9.78,0,0,1,3.12-4.37,8.85,8.85,0,0,1,5.93-2,10.63,10.63,0,0,1,4.84,1.08,8.27,8.27,0,0,1,3.38,3,7.79,7.79,0,0,1,1.23,4.3,6.64,6.64,0,0,1-1.21,4,8.63,8.63,0,0,1-3,2.6v.18a8.83,8.83,0,0,1,3.77,2.89,7.41,7.41,0,0,1,1.47,4.59,8.86,8.86,0,0,1-1.36,4.84,9.45,9.45,0,0,1-3.72,3.36,11.22,11.22,0,0,1-5.17,1.21A10.57,10.57,0,0,1,133.32,248.47Z"/>
    </g>
    <g>
      <path class="cls-1" d="M250.83,179.84a7.37,7.37,0,0,1,.85-3.72,16.78,16.78,0,0,1,3-3.54,16.74,16.74,0,0,0,2.57-2.75,4.8,4.8,0,0,0,.79-2.76,4.59,4.59,0,0,0-1.39-3.47,5.37,5.37,0,0,0-3.85-1.32,4.92,4.92,0,0,0-3.57,1.27,8.24,8.24,0,0,0-2,3.16l-3.54-1.48a11.62,11.62,0,0,1,3.23-4.59,8.41,8.41,0,0,1,5.82-2,10.11,10.11,0,0,1,4.77,1.1,8.05,8.05,0,0,1,3.23,3,8.3,8.3,0,0,1,1.14,4.3,7,7,0,0,1-1.23,4.19,22,22,0,0,1-3.16,3.47,10.45,10.45,0,0,0-2.15,2.56,5.66,5.66,0,0,0-.67,2.82V182h-3.9Zm-.07,11a2.78,2.78,0,0,1-.83-2,2.83,2.83,0,0,1,2.83-2.82,2.77,2.77,0,0,1,2,.83,2.69,2.69,0,0,1,.83,2,2.74,2.74,0,0,1-.83,2,2.77,2.77,0,0,1-2,.83A2.73,2.73,0,0,1,250.76,190.88Z"/>
      <path d="M241.82,201.34h21.33v3.14H241.82Z"/>
      <path class="cls-3" d="M249.57,248.47a10.33,10.33,0,0,1-3.65-2.53,10,10,0,0,1-2.35-4.33l3.45-1.43a7.74,7.74,0,0,0,2.44,4,6.13,6.13,0,0,0,4.06,1.44,7.08,7.08,0,0,0,3.18-.74,6,6,0,0,0,2.35-2.06,5.23,5.23,0,0,0,.87-2.94,5,5,0,0,0-.87-2.86,5.9,5.9,0,0,0-2.37-2,7.3,7.3,0,0,0-3.3-.74h-2.64v-3.54h2.37a6.16,6.16,0,0,0,4.13-1.41,4.68,4.68,0,0,0,1.65-3.74,4.2,4.2,0,0,0-1.61-3.45,6.13,6.13,0,0,0-4-1.3,5.19,5.19,0,0,0-3.65,1.21,6.88,6.88,0,0,0-1.9,3l-3.5-1.47a9.78,9.78,0,0,1,3.12-4.37,8.86,8.86,0,0,1,5.93-2,10.63,10.63,0,0,1,4.84,1.08,8.27,8.27,0,0,1,3.38,3,7.8,7.8,0,0,1,1.24,4.3,6.71,6.71,0,0,1-1.21,4,8.75,8.75,0,0,1-3,2.6v.18a8.83,8.83,0,0,1,3.77,2.89,7.42,7.42,0,0,1,1.48,4.59,8.87,8.87,0,0,1-1.37,4.84,9.45,9.45,0,0,1-3.72,3.36,11.22,11.22,0,0,1-5.17,1.21A10.57,10.57,0,0,1,249.57,248.47Z"/>
    </g>
    <rect class="cls-2" x="8.09" y="218.66" width="92.1" height="62.22"/>
    <rect class="cls-2" x="8.09" y="156.44" width="92.1" height="62.22"/>
    <rect class="cls-2" x="284.81" y="218.66" width="92.1" height="62.22"/>
    <rect class="cls-2" x="284.81" y="156.44" width="92.1" height="62.22"/>
    <g>
      <path d="M131.92,291.2a3.11,3.11,0,0,1-1.17-1.47l1.14-.51a2.29,2.29,0,0,0,.84,1.06,2.18,2.18,0,0,0,1.23.38,2.49,2.49,0,0,0,1.23-.29.93.93,0,0,0,.51-.83.9.9,0,0,0-.41-.77,3.62,3.62,0,0,0-1.27-.5l-.92-.24a3.44,3.44,0,0,1-1.5-.76,1.83,1.83,0,0,1-.58-1.39,1.78,1.78,0,0,1,.4-1.16,2.53,2.53,0,0,1,1.05-.77,3.7,3.7,0,0,1,1.42-.27,3.59,3.59,0,0,1,1.78.44,2.39,2.39,0,0,1,1.12,1.21l-1.11.5a1.85,1.85,0,0,0-1.81-1,2,2,0,0,0-1.09.29.84.84,0,0,0-.47.74.85.85,0,0,0,.32.68,2.72,2.72,0,0,0,1,.42l1.1.29a3.67,3.67,0,0,1,1.69.84,1.84,1.84,0,0,1,.57,1.37,2,2,0,0,1-.4,1.23,2.65,2.65,0,0,1-1.09.81,4,4,0,0,1-1.53.29A3.49,3.49,0,0,1,131.92,291.2Z"/>
      <path d="M139.38,291.45a2.48,2.48,0,0,1-1-.91,2.37,2.37,0,0,1-.36-1.3,2.21,2.21,0,0,1,.91-1.89,3.76,3.76,0,0,1,2.3-.68,5.22,5.22,0,0,1,1.28.15,3.33,3.33,0,0,1,.9.34v-.46a1.72,1.72,0,0,0-.6-1.37,2.24,2.24,0,0,0-1.51-.51,2.55,2.55,0,0,0-1.17.27,2.21,2.21,0,0,0-.86.77l-.95-.71a3.08,3.08,0,0,1,1.23-1.08,3.84,3.84,0,0,1,1.74-.39,3.43,3.43,0,0,1,2.44.82,2.86,2.86,0,0,1,.89,2.21v4.83H143.4v-1.09h-.06a2.72,2.72,0,0,1-1,.94,2.81,2.81,0,0,1-1.47.39A3.31,3.31,0,0,1,139.38,291.45Zm2.81-1.12a2.47,2.47,0,0,0,.88-.88,2.32,2.32,0,0,0,.33-1.21,3.11,3.11,0,0,0-.88-.39,4,4,0,0,0-1.11-.15,2.43,2.43,0,0,0-1.57.43,1.4,1.4,0,0,0-.53,1.12,1.25,1.25,0,0,0,.48,1,1.85,1.85,0,0,0,1.21.39A2.3,2.3,0,0,0,142.19,290.33Z"/>
      <path d="M146.37,283.92h1.21V285h.06a2.85,2.85,0,0,1,2.38-1.36,2.59,2.59,0,0,1,1.45.41,2.22,2.22,0,0,1,.89,1.07,3,3,0,0,1,1.07-1.07,2.9,2.9,0,0,1,1.54-.41,2.43,2.43,0,0,1,2,.8,3.31,3.31,0,0,1,.67,2.17v4.89h-1.26v-4.69a2.25,2.25,0,0,0-.43-1.54,1.65,1.65,0,0,0-1.29-.48,1.75,1.75,0,0,0-1,.33,2.24,2.24,0,0,0-.72.88,2.84,2.84,0,0,0-.26,1.2v4.3h-1.27v-4.68a2.33,2.33,0,0,0-.43-1.55,1.64,1.64,0,0,0-1.27-.48,1.66,1.66,0,0,0-1,.34,2.29,2.29,0,0,0-.73.89,2.92,2.92,0,0,0-.26,1.21v4.27h-1.27Z"/>
      <path d="M160.87,291.25a3.54,3.54,0,0,1-1.35-1.44,4.39,4.39,0,0,1-.49-2.07,4.62,4.62,0,0,1,.46-2,3.61,3.61,0,0,1,1.29-1.47,3.45,3.45,0,0,1,1.94-.56,3.66,3.66,0,0,1,1.94.5,3.45,3.45,0,0,1,1.27,1.38,4.51,4.51,0,0,1,.44,2,1.48,1.48,0,0,1-.05.39h-6a3,3,0,0,0,.42,1.46,2.48,2.48,0,0,0,.95.9,2.54,2.54,0,0,0,1.2.3,2.48,2.48,0,0,0,2.26-1.38l1.07.53a3.91,3.91,0,0,1-1.33,1.46,4,4,0,0,1-4,0Zm4.15-4.33a2.44,2.44,0,0,0-.27-.95,2.07,2.07,0,0,0-.75-.81,2.33,2.33,0,0,0-1.29-.33,2.14,2.14,0,0,0-1.52.58,2.78,2.78,0,0,0-.81,1.51Z"/>
      <path d="M172.69,291.25a3.66,3.66,0,0,1-1.31-1.44,4.4,4.4,0,0,1-.47-2.08,4.45,4.45,0,0,1,.47-2.08,3.66,3.66,0,0,1,1.31-1.44,3.38,3.38,0,0,1,1.84-.53,3.13,3.13,0,0,1,1.57.4,2.85,2.85,0,0,1,1.05,1h.06l-.06-1.06v-3.15h1.27v10.69h-1.21v-1.12h-.06a2.89,2.89,0,0,1-1.05,1,3.13,3.13,0,0,1-1.57.4A3.38,3.38,0,0,1,172.69,291.25Zm3.24-1a2.71,2.71,0,0,0,.93-1,3.48,3.48,0,0,0,0-3,2.71,2.71,0,0,0-.93-1,2.3,2.3,0,0,0-1.25-.36,2.34,2.34,0,0,0-1.24.36,2.63,2.63,0,0,0-.93,1,3.48,3.48,0,0,0,0,3,2.63,2.63,0,0,0,.93,1,2.34,2.34,0,0,0,1.24.36A2.3,2.3,0,0,0,175.93,290.27Z"/>
      <path d="M181.66,291.25a3.54,3.54,0,0,1-1.35-1.44,4.28,4.28,0,0,1-.49-2.07,4.48,4.48,0,0,1,.46-2,3.61,3.61,0,0,1,1.29-1.47,3.4,3.4,0,0,1,1.94-.56,3.68,3.68,0,0,1,1.94.5,3.36,3.36,0,0,1,1.26,1.38,4.38,4.38,0,0,1,.44,2,1.51,1.51,0,0,1,0,.39h-6a3,3,0,0,0,.42,1.46,2.41,2.41,0,0,0,1,.9,2.54,2.54,0,0,0,1.2.3,2.48,2.48,0,0,0,2.25-1.38l1.08.53a3.93,3.93,0,0,1-1.34,1.46,4,4,0,0,1-4,0Zm4.15-4.33a2.44,2.44,0,0,0-.27-.95,2,2,0,0,0-.76-.81,2.33,2.33,0,0,0-1.29-.33,2.11,2.11,0,0,0-1.51.58,2.73,2.73,0,0,0-.82,1.51Z"/>
      <path d="M188.63,283.92h1.21V285h.06a2.51,2.51,0,0,1,1-1,2.94,2.94,0,0,1,1.46-.4,2.69,2.69,0,0,1,2.1.8,3.13,3.13,0,0,1,.73,2.17v4.89h-1.27v-4.69a2,2,0,0,0-.51-1.54,1.94,1.94,0,0,0-1.39-.48,1.87,1.87,0,0,0-1.1.35,2.36,2.36,0,0,0-.75.9,2.64,2.64,0,0,0-.27,1.17v4.29h-1.27Z"/>
      <path d="M198.5,291.24a3.85,3.85,0,0,1-1.4-1.46,4.45,4.45,0,0,1,0-4.1,3.9,3.9,0,0,1,6.83,0,4.45,4.45,0,0,1,0,4.1,4,4,0,0,1-5.43,1.46Zm3.32-1a2.55,2.55,0,0,0,1-1,3.39,3.39,0,0,0,0-3.08,2.55,2.55,0,0,0-1-1,2.59,2.59,0,0,0-1.3-.35,2.59,2.59,0,0,0-2.3,1.36,3.47,3.47,0,0,0,0,3.08,2.59,2.59,0,0,0,2.3,1.36A2.59,2.59,0,0,0,201.82,290.28Z"/>
      <path d="M205.76,283.92H207V285H207a2.61,2.61,0,0,1,1-1,2.68,2.68,0,0,1,1.39-.39,2.63,2.63,0,0,1,1.46.41,2.22,2.22,0,0,1,.89,1.07,3,3,0,0,1,2.61-1.48,2.46,2.46,0,0,1,2,.8,3.31,3.31,0,0,1,.66,2.17v4.89h-1.25v-4.69a2.25,2.25,0,0,0-.44-1.54,1.62,1.62,0,0,0-1.28-.48,1.73,1.73,0,0,0-1,.33,2.16,2.16,0,0,0-.72.88,2.71,2.71,0,0,0-.27,1.2v4.3h-1.26v-4.68a2.28,2.28,0,0,0-.44-1.55,1.62,1.62,0,0,0-1.27-.48,1.68,1.68,0,0,0-1,.34,2.19,2.19,0,0,0-.72.89,2.77,2.77,0,0,0-.26,1.21v4.27h-1.27Z"/>
      <path d="M218.93,282.25a.89.89,0,0,1,0-1.28.92.92,0,0,1,1.28,0,.87.87,0,0,1,.27.64.9.9,0,0,1-.26.64.86.86,0,0,1-.65.27A.87.87,0,0,1,218.93,282.25Zm0,1.67h1.26v7.62h-1.26Z"/>
      <path d="M222.2,283.92h1.21V285h.06a2.51,2.51,0,0,1,1-1,2.91,2.91,0,0,1,1.46-.4,2.69,2.69,0,0,1,2.1.8,3.12,3.12,0,0,1,.72,2.17v4.89h-1.27v-4.69a2.06,2.06,0,0,0-.5-1.54,1.94,1.94,0,0,0-1.39-.48,1.85,1.85,0,0,0-1.1.35,2.36,2.36,0,0,0-.75.9,2.64,2.64,0,0,0-.27,1.17v4.29H222.2Z"/>
      <path d="M231.44,291.45a2.42,2.42,0,0,1-1-.91,2.37,2.37,0,0,1-.36-1.3,2.21,2.21,0,0,1,.91-1.89,3.76,3.76,0,0,1,2.3-.68,5.22,5.22,0,0,1,1.28.15,3.33,3.33,0,0,1,.9.34v-.46a1.72,1.72,0,0,0-.6-1.37,2.24,2.24,0,0,0-1.51-.51,2.62,2.62,0,0,0-1.18.27,2.25,2.25,0,0,0-.85.77l-.95-.71a3.08,3.08,0,0,1,1.23-1.08,3.84,3.84,0,0,1,1.74-.39,3.45,3.45,0,0,1,2.44.82,2.86,2.86,0,0,1,.89,2.21v4.83h-1.21v-1.09h-.06a2.72,2.72,0,0,1-1,.94,2.81,2.81,0,0,1-1.47.39A3.31,3.31,0,0,1,231.44,291.45Zm2.81-1.12a2.47,2.47,0,0,0,.88-.88,2.32,2.32,0,0,0,.33-1.21,3.11,3.11,0,0,0-.88-.39,4,4,0,0,0-1.11-.15,2.43,2.43,0,0,0-1.57.43,1.37,1.37,0,0,0-.53,1.12,1.25,1.25,0,0,0,.48,1,1.82,1.82,0,0,0,1.2.39A2.31,2.31,0,0,0,234.25,290.33Z"/>
      <path d="M240.35,291.51a2,2,0,0,1-.67-.41,1.83,1.83,0,0,1-.44-.65,2.48,2.48,0,0,1-.15-.91v-4.47h-1.33v-1.15h1.33v-2.15h1.27v2.15h1.85v1.15h-1.85v4.15a1.48,1.48,0,0,0,.24.93,1,1,0,0,0,.82.33,1.53,1.53,0,0,0,.83-.26v1.24a2,2,0,0,1-.45.15,3.17,3.17,0,0,1-.59.05A2.39,2.39,0,0,1,240.35,291.51Z"/>
      <path d="M244.91,291.24a3.75,3.75,0,0,1-1.39-1.46,4.45,4.45,0,0,1,0-4.1,3.75,3.75,0,0,1,1.39-1.46,4,4,0,0,1,4,0,3.78,3.78,0,0,1,1.4,1.46,4.45,4.45,0,0,1,0,4.1,3.82,3.82,0,0,1-3.41,2A3.84,3.84,0,0,1,244.91,291.24Zm3.32-1a2.55,2.55,0,0,0,1-1,3.39,3.39,0,0,0,0-3.08,2.56,2.56,0,0,0-2.27-1.36,2.66,2.66,0,0,0-1.32.35,2.62,2.62,0,0,0-1,1,3.39,3.39,0,0,0,0,3.08,2.62,2.62,0,0,0,1,1,2.66,2.66,0,0,0,1.32.35A2.56,2.56,0,0,0,248.23,290.28Z"/>
      <path d="M252.17,283.92h1.21v1.23h.06a2.05,2.05,0,0,1,.86-1,2.42,2.42,0,0,1,1.35-.41,2.37,2.37,0,0,1,.89.15v1.37a2.31,2.31,0,0,0-1.07-.24,1.79,1.79,0,0,0-1,.32,2.24,2.24,0,0,0-.74.84,2.46,2.46,0,0,0-.27,1.14v4.26h-1.27Z"/>
      <path d="M258.08,291.2a3.09,3.09,0,0,1-1.16-1.47l1.13-.51a2.25,2.25,0,0,0,.85,1.06,2.15,2.15,0,0,0,1.23.38,2.45,2.45,0,0,0,1.22-.29.93.93,0,0,0,.51-.83.89.89,0,0,0-.4-.77,3.7,3.7,0,0,0-1.27-.5l-.93-.24a3.4,3.4,0,0,1-1.49-.76,1.8,1.8,0,0,1-.58-1.39,1.83,1.83,0,0,1,.39-1.16,2.66,2.66,0,0,1,1.05-.77,3.74,3.74,0,0,1,1.42-.27,3.62,3.62,0,0,1,1.79.44,2.42,2.42,0,0,1,1.11,1.21l-1.11.5a1.84,1.84,0,0,0-1.8-1,2,2,0,0,0-1.1.29.86.86,0,0,0-.47.74.83.83,0,0,0,.33.68,2.74,2.74,0,0,0,1,.42l1.11.29a3.67,3.67,0,0,1,1.69.84,1.83,1.83,0,0,1,.56,1.37,2,2,0,0,1-.4,1.23,2.59,2.59,0,0,1-1.09.81,3.92,3.92,0,0,1-1.52.29A3.52,3.52,0,0,1,258.08,291.2Z"/>
    </g>
    <g>
      <line class="cls-4" x1="182.73" y1="277.38" x2="157.74" y2="252.39"/>
      <polygon points="161.42 251.88 158.44 253.09 157.23 256.07 154.36 249.01 161.42 251.88"/>
    </g>
    <g>
      <line class="cls-4" x1="208.43" y1="277.38" x2="233.42" y2="252.39"/>
      <polygon points="233.92 256.07 232.72 253.09 229.73 251.88 236.79 249.01 233.92 256.07"/>
    </g>
  </g>
</svg>
