<svg id="Mathematic_Background" data-name="Mathematic Background" xmlns="http://www.w3.org/2000/svg" viewBox="0 0 385 385">
  <defs>
    <style>
      .cls-1 {
        fill: orange;
        opacity: 0.5;
      }

      .cls-2 {
        fill: none;
        stroke: #9964aa;
        stroke-linecap: round;
        stroke-linejoin: round;
        stroke-width: 2px;
      }

      .cls-3 {
        fill: #9964aa;
      }
    </style>
  </defs>
  <title>sbs_cotf3_square</title>
  <g>
    <rect class="cls-1" x="284.07" y="162.64" width="91.37" height="123.44"/>
    <rect class="cls-1" x="9.57" y="224.37" width="91.37" height="61.72"/>
    <rect class="cls-2" x="284.07" y="100.92" width="91.37" height="185.17"/>
    <rect class="cls-2" x="9.57" y="100.92" width="91.37" height="185.17"/>
    <g>
      <path class="cls-1" d="M135.4,172.25l-5.34,3.83-1.95-2.89,8.66-6.22h2.4v30.39H135.4Z"/>
      <path d="M126.11,207.18h21.15v3.11H126.11Z"/>
      <path class="cls-3" d="M133.8,253.94a10.23,10.23,0,0,1-3.63-2.52,9.93,9.93,0,0,1-2.33-4.28l3.42-1.43a7.68,7.68,0,0,0,2.42,4,6.12,6.12,0,0,0,4,1.43,7,7,0,0,0,3.15-.74,6,6,0,0,0,2.34-2,5.25,5.25,0,0,0,.86-2.91,5.05,5.05,0,0,0-.86-2.85,6,6,0,0,0-2.36-2,7.27,7.27,0,0,0-3.27-.73H135v-3.51h2.36a6.11,6.11,0,0,0,4.09-1.4,4.66,4.66,0,0,0,1.64-3.71,4.17,4.17,0,0,0-1.6-3.43,6.17,6.17,0,0,0-4-1.28,5.17,5.17,0,0,0-3.62,1.2,6.88,6.88,0,0,0-1.89,2.93l-3.46-1.47a9.66,9.66,0,0,1,3.09-4.33,8.77,8.77,0,0,1,5.88-1.93,10.58,10.58,0,0,1,4.8,1.06,8.32,8.32,0,0,1,3.36,3,7.79,7.79,0,0,1,1.22,4.27,6.61,6.61,0,0,1-1.2,4,8.57,8.57,0,0,1-3,2.57V238a8.77,8.77,0,0,1,3.74,2.87,7.37,7.37,0,0,1,1.46,4.55,8.78,8.78,0,0,1-1.35,4.8,9.45,9.45,0,0,1-3.69,3.34,11.08,11.08,0,0,1-5.13,1.2A10.51,10.51,0,0,1,133.8,253.94Z"/>
    </g>
    <g>
      <path class="cls-1" d="M243.43,193.59q1.38-1.38,5.47-5.54t5.69-5.89a23.7,23.7,0,0,0,3.06-3.82,6.47,6.47,0,0,0,.8-3.33,4.87,4.87,0,0,0-.69-2.51,5.12,5.12,0,0,0-2-1.91,6.3,6.3,0,0,0-3.13-.74,5.29,5.29,0,0,0-3.84,1.4,6.59,6.59,0,0,0-1.89,3.05l-3.47-1.38A9.92,9.92,0,0,1,245,170a9.77,9.77,0,0,1,3.11-2.63,9.45,9.45,0,0,1,4.62-1.09,10,10,0,0,1,5,1.2,8.82,8.82,0,0,1,3.35,3.2,8.28,8.28,0,0,1,1.2,4.32q0,4.67-4.88,9.64l-9.11,9.15h14.35v3.6h-19.2Z"/>
      <path d="M241.43,207.18h21.15v3.11H241.43Z"/>
      <path class="cls-3" d="M249.12,253.94a10.19,10.19,0,0,1-3.62-2.52,10.06,10.06,0,0,1-2.34-4.28l3.43-1.43a7.62,7.62,0,0,0,2.42,4,6.09,6.09,0,0,0,4,1.43,7,7,0,0,0,3.16-.74,6,6,0,0,0,2.33-2,5.18,5.18,0,0,0,.87-2.91,5,5,0,0,0-.87-2.85,5.91,5.91,0,0,0-2.36-2,7.25,7.25,0,0,0-3.26-.73h-2.62v-3.51h2.35a6.11,6.11,0,0,0,4.09-1.4,4.66,4.66,0,0,0,1.64-3.71,4.17,4.17,0,0,0-1.6-3.43,6.12,6.12,0,0,0-3.95-1.28,5.15,5.15,0,0,0-3.62,1.2,6.7,6.7,0,0,0-1.89,2.93l-3.47-1.47a9.66,9.66,0,0,1,3.09-4.33,8.81,8.81,0,0,1,5.89-1.93,10.58,10.58,0,0,1,4.8,1.06,8.29,8.29,0,0,1,3.35,3,7.71,7.71,0,0,1,1.22,4.27,6.61,6.61,0,0,1-1.2,4,8.63,8.63,0,0,1-3,2.57V238a8.8,8.8,0,0,1,3.73,2.87,7.31,7.31,0,0,1,1.47,4.55,8.7,8.7,0,0,1-1.36,4.8,9.32,9.32,0,0,1-3.69,3.34,11,11,0,0,1-5.13,1.2A10.55,10.55,0,0,1,249.12,253.94Z"/>
    </g>
    <rect class="cls-2" x="9.57" y="224.37" width="91.37" height="61.72"/>
    <rect class="cls-2" x="9.57" y="162.64" width="91.37" height="61.72"/>
    <rect class="cls-2" x="284.07" y="224.37" width="91.37" height="61.72"/>
    <rect class="cls-2" x="284.07" y="162.64" width="91.37" height="61.72"/>
    <g>
      <path d="M136.91,100.28l-1.78,1.28-.65-1,2.89-2.07h.8v10.13h-1.26Z"/>
      <path d="M145.86,108.62a2,2,0,0,1-.66-.4,1.79,1.79,0,0,1-.44-.65,2.42,2.42,0,0,1-.15-.9v-4.43h-1.32V101.1h1.32V99h1.26v2.14h1.84v1.14h-1.84v4.11a1.43,1.43,0,0,0,.24.92,1,1,0,0,0,.81.33,1.52,1.52,0,0,0,.83-.25v1.23a1.56,1.56,0,0,1-.45.14,3.17,3.17,0,0,1-.59,0A2.37,2.37,0,0,1,145.86,108.62Z"/>
      <path d="M149.31,98h1.25v3.13l-.05,1h.05a2.5,2.5,0,0,1,1-1,3,3,0,0,1,1.47-.38,2.7,2.7,0,0,1,2.11.81,3.08,3.08,0,0,1,.72,2.14v4.84h-1.26V104a2,2,0,0,0-.51-1.51,1.89,1.89,0,0,0-1.35-.49,1.8,1.8,0,0,0-1.09.36,2.58,2.58,0,0,0-1.08,2.08v4.21h-1.25Z"/>
      <path d="M157.76,99.44a.9.9,0,0,1-.26-.64.86.86,0,0,1,.26-.63.92.92,0,0,1,1.28,0,.82.82,0,0,1,.26.63.89.89,0,0,1-.9.9A.9.9,0,0,1,157.76,99.44Zm0,1.66H159v7.55h-1.24Z"/>
      <path d="M161,101.1h1.2v1.21h.06a2,2,0,0,1,.86-1,2.44,2.44,0,0,1,1.33-.41,2.37,2.37,0,0,1,.89.15v1.36a2.47,2.47,0,0,0-1.07-.23,1.77,1.77,0,0,0-1,.31,2.3,2.3,0,0,0-.73.84,2.42,2.42,0,0,0-.27,1.13v4.22H161Z"/>
      <path d="M167.49,108.37a3.67,3.67,0,0,1-1.3-1.43,4.77,4.77,0,0,1,0-4.13,3.6,3.6,0,0,1,1.3-1.43,3.33,3.33,0,0,1,1.83-.52,3.05,3.05,0,0,1,1.55.39,2.87,2.87,0,0,1,1,1H172l-.06-1V98h1.26v10.61H172v-1.11h-.06a2.94,2.94,0,0,1-1,1,3.05,3.05,0,0,1-1.55.39A3.33,3.33,0,0,1,167.49,108.37Zm3.21-1a2.58,2.58,0,0,0,.92-1,3.15,3.15,0,0,0,.35-1.51,3.2,3.2,0,0,0-.35-1.51,2.55,2.55,0,0,0-.92-1,2.28,2.28,0,0,0-2.46,0,2.46,2.46,0,0,0-.93,1,3.41,3.41,0,0,0,0,3,2.53,2.53,0,0,0,.93,1,2.28,2.28,0,0,0,2.46,0Z"/>
      <path d="M178.58,99.44a.87.87,0,0,1-.27-.64.83.83,0,0,1,.27-.63.88.88,0,0,1,.63-.26.9.9,0,0,1,.64.26.83.83,0,0,1,.27.63.89.89,0,0,1-.91.9A.88.88,0,0,1,178.58,99.44Zm0,1.66h1.25v7.55h-1.25Z"/>
      <path d="M182.43,108.32a3.11,3.11,0,0,1-1.16-1.46l1.13-.51a2.23,2.23,0,0,0,.84,1.06,2.19,2.19,0,0,0,1.22.37,2.41,2.41,0,0,0,1.21-.29.9.9,0,0,0,.51-.82.93.93,0,0,0-.4-.77,3.87,3.87,0,0,0-1.26-.49l-.92-.24a3.26,3.26,0,0,1-1.48-.76,1.75,1.75,0,0,1-.58-1.37,1.8,1.8,0,0,1,.39-1.15,2.42,2.42,0,0,1,1-.76,3.82,3.82,0,0,1,3.17.16,2.48,2.48,0,0,1,1.11,1.2l-1.1.5a1.83,1.83,0,0,0-1.79-1,2,2,0,0,0-1.09.29.87.87,0,0,0-.47.74.82.82,0,0,0,.33.67,2.66,2.66,0,0,0,1,.42l1.09.28a3.68,3.68,0,0,1,1.68.84,1.85,1.85,0,0,1,.56,1.36,1.94,1.94,0,0,1-.4,1.22,2.62,2.62,0,0,1-1.08.81,4.1,4.1,0,0,1-1.51.28A3.45,3.45,0,0,1,182.43,108.32Z"/>
      <path d="M192.26,98h1.26v10.61h-1.26Z"/>
      <path d="M196.74,108.37a3.55,3.55,0,0,1-1.34-1.43,4.34,4.34,0,0,1-.48-2,4.57,4.57,0,0,1,.45-2,3.63,3.63,0,0,1,1.28-1.46,3.35,3.35,0,0,1,1.92-.55,3.56,3.56,0,0,1,1.93.5,3.25,3.25,0,0,1,1.25,1.37,4.4,4.4,0,0,1,.44,2,1.46,1.46,0,0,1-.05.38h-6a3,3,0,0,0,.42,1.45,2.42,2.42,0,0,0,.94.89,2.53,2.53,0,0,0,1.19.3,2.46,2.46,0,0,0,2.24-1.37l1.07.52a3.73,3.73,0,0,1-1.33,1.45,4,4,0,0,1-4,0Zm4.12-4.3a2.39,2.39,0,0,0-.27-.94,2,2,0,0,0-.75-.8,2.32,2.32,0,0,0-1.28-.33,2.13,2.13,0,0,0-1.5.57,2.75,2.75,0,0,0-.81,1.5Z"/>
      <path d="M204.34,108.32a3.11,3.11,0,0,1-1.16-1.46l1.13-.51a2.18,2.18,0,0,0,2.06,1.43,2.43,2.43,0,0,0,1.21-.29.89.89,0,0,0,.5-.82.91.91,0,0,0-.4-.77,3.69,3.69,0,0,0-1.26-.49l-.91-.24a3.21,3.21,0,0,1-1.48-.76,1.75,1.75,0,0,1-.58-1.37,1.8,1.8,0,0,1,.39-1.15,2.45,2.45,0,0,1,1-.76,3.69,3.69,0,0,1,1.41-.27,3.57,3.57,0,0,1,1.77.43,2.48,2.48,0,0,1,1.11,1.2l-1.1.5a1.83,1.83,0,0,0-1.79-1,2,2,0,0,0-1.09.29.87.87,0,0,0-.47.74.82.82,0,0,0,.33.67,2.6,2.6,0,0,0,1,.42l1.1.28a3.68,3.68,0,0,1,1.68.84,1.85,1.85,0,0,1,.56,1.36,2,2,0,0,1-.4,1.22,2.62,2.62,0,0,1-1.08.81,4.1,4.1,0,0,1-1.51.28A3.45,3.45,0,0,1,204.34,108.32Z"/>
      <path d="M211.34,108.32a3.09,3.09,0,0,1-1.15-1.46l1.12-.51a2.29,2.29,0,0,0,.84,1.06,2.21,2.21,0,0,0,1.22.37,2.45,2.45,0,0,0,1.22-.29.93.93,0,0,0,.1-1.59,3.87,3.87,0,0,0-1.26-.49l-.92-.24a3.31,3.31,0,0,1-1.48-.76,1.79,1.79,0,0,1-.58-1.37,1.81,1.81,0,0,1,.4-1.15,2.45,2.45,0,0,1,1-.76,3.65,3.65,0,0,1,1.41-.27,3.57,3.57,0,0,1,1.77.43,2.46,2.46,0,0,1,1.1,1.2l-1.09.5a1.85,1.85,0,0,0-1.8-1,2.09,2.09,0,0,0-1.09.29.86.86,0,0,0-.46.74.83.83,0,0,0,.32.67,2.74,2.74,0,0,0,1,.42l1.1.28a3.59,3.59,0,0,1,1.67.84,1.81,1.81,0,0,1,.56,1.36,1.94,1.94,0,0,1-.4,1.22,2.49,2.49,0,0,1-1.08.81,4,4,0,0,1-1.51.28A3.47,3.47,0,0,1,211.34,108.32Z"/>
      <path d="M223.23,108.62a2,2,0,0,1-.66-.4,1.79,1.79,0,0,1-.44-.65,2.42,2.42,0,0,1-.15-.9v-4.43h-1.32V101.1H222V99h1.26v2.14h1.83v1.14h-1.83v4.11a1.5,1.5,0,0,0,.23.92,1,1,0,0,0,.82.33,1.52,1.52,0,0,0,.83-.25v1.23a1.56,1.56,0,0,1-.45.14,3.17,3.17,0,0,1-.59,0A2.37,2.37,0,0,1,223.23,108.62Z"/>
      <path d="M226.67,98h1.26v3.13l-.06,1h.06a2.5,2.5,0,0,1,1-1,3,3,0,0,1,1.47-.38,2.7,2.7,0,0,1,2.11.81,3.08,3.08,0,0,1,.72,2.14v4.84H232V104a2,2,0,0,0-.52-1.51,1.84,1.84,0,0,0-1.34-.49,1.8,1.8,0,0,0-1.09.36,2.49,2.49,0,0,0-.79.91,2.59,2.59,0,0,0-.29,1.17v4.21h-1.26Z"/>
      <path d="M235.89,108.56a2.44,2.44,0,0,1-1-.89,2.39,2.39,0,0,1-.35-1.3,2.2,2.2,0,0,1,.9-1.87,3.7,3.7,0,0,1,2.28-.68A5.14,5.14,0,0,1,239,104a3.12,3.12,0,0,1,.89.34v-.46a1.68,1.68,0,0,0-.59-1.35,2.21,2.21,0,0,0-1.5-.52,2.59,2.59,0,0,0-1.17.28,2.2,2.2,0,0,0-.84.76l-1-.71a3.17,3.17,0,0,1,1.22-1.07,4,4,0,0,1,1.73-.38,3.44,3.44,0,0,1,2.42.81,2.81,2.81,0,0,1,.88,2.2v4.78h-1.2v-1.08h-.06a2.56,2.56,0,0,1-1,.93,2.84,2.84,0,0,1-1.47.39A3.22,3.22,0,0,1,235.89,108.56Zm2.78-1.11a2.53,2.53,0,0,0,.88-.87,2.4,2.4,0,0,0,.32-1.2A3,3,0,0,0,239,105a4,4,0,0,0-1.1-.15,2.46,2.46,0,0,0-1.56.43,1.38,1.38,0,0,0-.53,1.11,1.23,1.23,0,0,0,.48,1,1.8,1.8,0,0,0,1.2.39A2.24,2.24,0,0,0,238.67,107.45Z"/>
      <path d="M242.82,101.1H244v1.11h.06a2.55,2.55,0,0,1,1-1,2.9,2.9,0,0,1,1.45-.39,2.68,2.68,0,0,1,2.09.79,3.14,3.14,0,0,1,.71,2.16v4.84h-1.26V104a2,2,0,0,0-.5-1.53,1.94,1.94,0,0,0-1.38-.47,1.85,1.85,0,0,0-1.09.34,2.25,2.25,0,0,0-.74.9,2.6,2.6,0,0,0-.27,1.16v4.25h-1.26Z"/>
      <path d="M168,125.17c.31-.31.92-.92,1.83-1.85s1.54-1.57,1.89-2a8.22,8.22,0,0,0,1-1.27A2.28,2.28,0,0,0,173,119a1.56,1.56,0,0,0-.23-.84,1.7,1.7,0,0,0-.66-.64,2.17,2.17,0,0,0-1-.24,1.76,1.76,0,0,0-1.28.46,2.23,2.23,0,0,0-.63,1l-1.16-.46a3.25,3.25,0,0,1,.54-1,3.17,3.17,0,0,1,2.58-1.23,3.3,3.3,0,0,1,1.65.4,2.93,2.93,0,0,1,1.12,1.06,2.84,2.84,0,0,1,.4,1.44,4.78,4.78,0,0,1-1.63,3.22l-3,3h4.78v1.2H168Z"/>
      <path d="M181.52,126.4a2,2,0,0,1-.66-.4,1.9,1.9,0,0,1-.45-.65,2.45,2.45,0,0,1-.14-.91V120H179v-1.14h1.32v-2.13h1.25v2.13h1.84V120h-1.84v4.12a1.45,1.45,0,0,0,.24.92,1,1,0,0,0,.82.32,1.54,1.54,0,0,0,.83-.25v1.23a1.9,1.9,0,0,1-.46.15,3,3,0,0,1-.58,0A2.34,2.34,0,0,1,181.52,126.4Z"/>
      <path d="M185,115.82h1.26V119l-.06,1h.06a2.58,2.58,0,0,1,1-1,2.92,2.92,0,0,1,1.48-.39,2.66,2.66,0,0,1,2.1.81,3.05,3.05,0,0,1,.73,2.14v4.85h-1.26v-4.65a2,2,0,0,0-.52-1.52,1.91,1.91,0,0,0-1.35-.48,1.82,1.82,0,0,0-1.09.35,2.49,2.49,0,0,0-.78.92,2.59,2.59,0,0,0-.29,1.17v4.21H185Z"/>
      <path d="M193.42,117.21a.85.85,0,0,1-.27-.63.83.83,0,0,1,.27-.63.86.86,0,0,1,.64-.26.9.9,0,0,1,.9.89.88.88,0,0,1-.26.63.85.85,0,0,1-.64.27A.87.87,0,0,1,193.42,117.21Zm0,1.66h1.25v7.56h-1.25Z"/>
      <path d="M196.66,118.87h1.2v1.22h.06a2,2,0,0,1,.86-1,2.47,2.47,0,0,1,1.33-.41,2.33,2.33,0,0,1,.89.15v1.36a2.3,2.3,0,0,0-1.06-.24,1.82,1.82,0,0,0-1,.31,2.21,2.21,0,0,0-.73.84,2.35,2.35,0,0,0-.28,1.14v4.22h-1.26Z"/>
      <path d="M203.14,126.15a3.72,3.72,0,0,1-1.29-1.43,4.68,4.68,0,0,1,0-4.13,3.68,3.68,0,0,1,1.29-1.44,3.42,3.42,0,0,1,1.83-.52,3.09,3.09,0,0,1,1.56.4,2.87,2.87,0,0,1,1,1h.06l-.06-1v-3.13h1.26v10.61h-1.2v-1.11h-.06a3,3,0,0,1-1,1,3.09,3.09,0,0,1-1.56.39A3.41,3.41,0,0,1,203.14,126.15Zm3.22-1a2.65,2.65,0,0,0,.92-1,3.43,3.43,0,0,0,0-3,2.65,2.65,0,0,0-.92-1,2.26,2.26,0,0,0-1.24-.35,2.3,2.3,0,0,0-1.23.35,2.61,2.61,0,0,0-.92,1,3.39,3.39,0,0,0,0,3,2.61,2.61,0,0,0,.92,1,2.39,2.39,0,0,0,1.23.35A2.35,2.35,0,0,0,206.36,125.17Z"/>
      <path d="M211.22,126.09a3.1,3.1,0,0,1-1.15-1.46l1.13-.5a2.18,2.18,0,0,0,2.05,1.42,2.35,2.35,0,0,0,1.22-.29.9.9,0,0,0,.5-.82.89.89,0,0,0-.4-.76,3.67,3.67,0,0,0-1.26-.5l-.92-.23a3.31,3.31,0,0,1-1.48-.76,1.8,1.8,0,0,1-.57-1.38,1.84,1.84,0,0,1,.39-1.15,2.54,2.54,0,0,1,1-.76,3.84,3.84,0,0,1,3.18.16,2.41,2.41,0,0,1,1.1,1.2l-1.09.51a1.84,1.84,0,0,0-1.79-1,2,2,0,0,0-1.09.29.85.85,0,0,0-.47.73.83.83,0,0,0,.33.68,2.6,2.6,0,0,0,1,.42l1.1.28a3.59,3.59,0,0,1,1.67.84,1.81,1.81,0,0,1,.57,1.35,2,2,0,0,1-.4,1.23,2.57,2.57,0,0,1-1.09.8,3.83,3.83,0,0,1-1.51.28A3.47,3.47,0,0,1,211.22,126.09Z"/>
    </g>
    <path d="M186.53,209.29v-2.75l17-8.18v3.47l-13,6V208l13,6v3.47Z"/>
  </g>
</svg>
