<?xml version="1.0" encoding="UTF-8"?><svg id="Layer_2" xmlns="http://www.w3.org/2000/svg" viewBox="0 0 370.65 202.91"><defs><style>.cls-1{fill:#f4f4f4;}.cls-2{fill:#242021;}.cls-3{fill:#3c393a;}.cls-4{fill:#504c4d;}.cls-5{fill:#535051;}.cls-6{fill:#2f2c2c;}.cls-7{fill:#2c2829;}.cls-8{fill:#282425;}.cls-9{fill:#322e2f;}.cls-10{fill:#929497;}.cls-11{fill:#2e2a2b;}.cls-12{fill:#adaeb0;}.cls-13{fill:#545152;}.cls-14{fill:#3d393a;}.cls-15{fill:#575455;}.cls-16{fill:#524f50;}.cls-17{fill:#413d3e;}.cls-18{fill:#373435;}.cls-19{fill:#2d2a2b;}.cls-20{fill:#2a2627;}.cls-21{fill:#f4f3f4;}.cls-22{fill:#504d4d;}.cls-23{fill:#353132;}.cls-24{fill:#383535;}.cls-25{fill:teal;opacity:.5;}.cls-26{fill:#fbfbfb;}.cls-27{fill:#f9f9f9;}.cls-28{fill:#3d3a3a;}.cls-29{fill:#262223;}.cls-30{fill:#504d4e;}.cls-31{fill:#565353;}.cls-32{fill:#282526;}.cls-33{fill:#444041;}.cls-34{fill:#292526;}.cls-35{fill:#f7f7f7;}.cls-36{fill:#292627;}.cls-37{fill:#332f30;}.cls-38{fill:#252122;}.cls-39{fill:#302c2d;}.cls-40{fill:#423f40;}.cls-41{fill:#272324;}.cls-42{fill:#f8f8f8;}.cls-43{fill:#231f20;}.cls-44{fill:#f2f2f2;}.cls-45{fill:#322f30;}.cls-46{fill:#fefefe;}.cls-47{fill:#fcfcfc;}.cls-48{fill:#4f4c4d;}</style></defs><g id="Layer_2-2"><g><path class="cls-2" d="M14.01,.07c.65,0,1.3,0,1.95,0H364.52c4.25,.01,6.12,.84,6.12,2.72V199.97c0,.24,.02,.49-.02,.73-.19,1.3-2.04,2.12-4.97,2.21-.4,.01-.8,0-1.2,0H6.3c-3.4,0-4.98-.4-5.89-1.47-.18-.21-.3-.42-.24-.65-.27-.28-.13-.57-.13-.85V12.34c0-.31,0-.62-.04-.93-.03-.3,.39-.54,1.03-.56,.81-.04,.69,.31,.74,.52,.08,.35,.03,.71,.03,1.06V199.5c0,.46-.17,.93,.3,1.36,.62,.84,1.97,1.18,3.89,1.16,.5,0,1,0,1.5,0H363.08c.65,0,1.3,0,1.95,0,2.28-.06,3.43-.57,3.58-1.59,.03-.24,.02-.49,.02-.73V3.25c0-.27,.02-.53-.04-.8-.19-.89-1.37-1.41-3.36-1.48-.6-.02-1.2-.01-1.8-.01H16.68c-.81,0-1.61,.01-2.42,.02-.19,0-.38-.02-.55-.05-.55-.25-.5-.52-.2-.81,.13-.08,.29-.09,.48-.05h.02Z"/><path class="cls-20" d="M6.41,.12v1.92c-2.15-.19-3.73,.72-4.8,2.57-.51,1.1-.19,2.26-.22,3.39-.06,2.15,0,4.3-.02,6.45,0,.39,.05,.87-.52,.91-.68,.05-.65-.47-.65-.92-.02-3.1-.03-6.2-.05-9.3C.25,1.83,2.11,.27,6.14,.09c.11-.14,.2-.12,.28,.03h-.01Z"/><path class="cls-10" d="M10.66,45.72c-.02-.37,.16-.55,.52-.56,.4,0,.8,0,1.2,0,115.34,0,230.69,0,346.03,.02,.57,0,1.43-.51,1.73,.53-.52,.29-1.08,.14-1.62,.14H12.28c-.54,0-1.1,.12-1.63-.13h0Z"/><path class="cls-10" d="M10.66,128.21c-.02-.37,.16-.55,.52-.56,.4,0,.8-.01,1.2-.01,115.34,0,230.69,0,346.03,.02,.57,0,1.43-.51,1.73,.53-.52,.29-1.08,.14-1.62,.14H12.28c-.54,0-1.1,.12-1.63-.13h0Z"/><path class="cls-12" d="M10.66,128.21c.7,0,1.4,0,2.1,0H360.15c-.52,.6-1.21,.29-1.81,.29-107.69,.02-215.38,.02-323.07,.02-7.69,0-15.38,0-23.08,0-.51,0-1.1,.27-1.53-.27v-.02Z"/><path class="cls-12" d="M10.66,45.72c.7,0,1.4,0,2.1,0H360.15c-.52,.6-1.21,.29-1.81,.29-108.49,.02-216.98,.02-325.46,.02-6.89,0-13.79,0-20.68,0-.51,0-1.1,.27-1.53-.27v-.02Z"/><path class="cls-24" d="M88.91,72.89c-2.69,0-5.39-.03-8.08,.02-.85,.01-1.11-.26-1.11-1.11,.03-5.34,.03-10.68,0-16.03,0-.85,.24-1.1,1.09-1.09,5.39,.04,10.77,.03,16.16,0,.77,0,1.02,.2,1.01,.99-.03,5.39-.04,10.78,0,16.17,0,.92-.37,1.06-1.15,1.05-2.64-.03-5.29-.01-7.93-.01h.01Z"/><path class="cls-24" d="M59.9,54.7c2.64,0,5.29,.04,7.93-.02,.89-.02,1.21,.18,1.2,1.14-.05,5.29-.04,10.58,0,15.87,0,.88-.21,1.22-1.16,1.22-5.34-.04-10.67-.04-16.01,0-.86,0-1.1-.26-1.09-1.11,.03-5.34,.05-10.68,0-16.02,0-1.02,.4-1.11,1.22-1.09,2.64,.04,5.29,.02,7.93,.02h0Z"/><path class="cls-24" d="M97.96,146.19c0,2.7-.03,5.39,.02,8.09,.01,.83-.22,1.12-1.09,1.12-5.34-.04-10.67-.04-16.01,0-.94,0-1.18-.31-1.17-1.21,.03-5.29,.04-10.58,0-15.88,0-.95,.29-1.16,1.19-1.15,5.34,.04,10.67,.04,16.01,0,.86,0,1.09,.25,1.07,1.09-.05,2.64-.02,5.29-.02,7.94h0Z"/><path class="cls-24" d="M59.83,137.19c2.69,0,5.39,.03,8.08-.02,.83,0,1.12,.2,1.11,1.07-.04,5.34-.03,10.68,0,16.02,0,.83-.22,1.13-1.09,1.13-5.39-.03-10.77-.03-16.16,0-.8,0-1.01-.27-1.01-1.04,.03-5.39,.04-10.78,0-16.17,0-.95,.4-1.02,1.15-1.01,2.64,.03,5.29,0,7.93,0h-.01Z"/><path class="cls-7" d="M110.01,54.7c2.65,0,5.29,.03,7.94-.02,.84,0,1.23,.11,1.22,1.11-.05,5.29-.05,10.59,0,15.88,0,.9-.21,1.21-1.16,1.21-5.34-.04-10.68-.03-16.02,0-.82,0-1.12-.19-1.11-1.07,.04-5.34,.05-10.69,0-16.03-.01-1.02,.38-1.11,1.21-1.1,2.64,.04,5.29,.02,7.94,.02h-.02Z"/><path class="cls-7" d="M100.89,146.25c0-2.65,.02-5.3-.02-7.94-.01-.77,.09-1.14,1.02-1.13,5.39,.05,10.78,.04,16.17,0,.84,0,1.1,.23,1.09,1.08-.04,5.34-.04,10.69,0,16.03,0,.89-.31,1.09-1.12,1.08-5.39-.03-10.78-.03-16.17,0-.81,0-1-.28-.99-1.04,.04-2.7,.02-5.39,.02-8.09h0Z"/><path class="cls-18" d="M316.09,137.19c2.7,0,5.39,.03,8.09-.02,.84-.02,1.11,.22,1.1,1.08-.04,5.35-.03,10.69,0,16.04,0,.86-.28,1.11-1.12,1.1-5.34-.03-10.68-.03-16.03,0-.89,0-1.07-.31-1.06-1.12,.03-5.35,.04-10.69,0-16.04,0-.86,.25-1.08,1.09-1.07,2.64,.05,5.29,.02,7.94,.02h-.01Z"/><path class="cls-18" d="M316.09,54.7c2.7,0,5.39,.03,8.09-.02,.84-.02,1.11,.22,1.1,1.08-.04,5.35-.03,10.69,0,16.04,0,.86-.28,1.11-1.12,1.1-5.34-.03-10.68-.03-16.03,0-.88,0-1.07-.3-1.06-1.12,.03-5.35,.04-10.69,0-16.04,0-.86,.25-1.09,1.08-1.07,2.64,.05,5.29,.02,7.94,.02h0Z"/><path class="cls-39" d="M296.27,146.32c0,2.65-.03,5.3,.02,7.94,.02,.85-.25,1.12-1.1,1.11-5.34-.03-10.68-.03-16.03,0-.82,0-1.13-.2-1.12-1.09,.04-5.35,.04-10.69,0-16.04,0-.86,.26-1.08,1.1-1.08,5.34,.03,10.68,.04,16.03,0,.99,0,1.14,.35,1.12,1.21-.05,2.65-.02,5.3-.02,7.94h0Z"/><path class="cls-39" d="M346.03,63.71c0,2.65-.03,5.3,.02,7.94,.01,.85-.12,1.25-1.12,1.25-5.34-.05-10.68-.04-16.03,0-.85,0-1.1-.26-1.1-1.11,.03-5.35,.04-10.69,0-16.04,0-.9,.32-1.06,1.12-1.05,5.34,.03,10.68,.03,16.03,0,.84,0,1.11,.22,1.1,1.08-.05,2.65-.02,5.3-.02,7.94h0Z"/><path class="cls-39" d="M327.82,146.33c0-2.65,.03-5.3-.02-7.94-.02-.86,.12-1.23,1.12-1.22,5.34,.05,10.68,.04,16.03,0,.83,0,1.11,.21,1.1,1.08-.04,5.35-.04,10.69,0,16.04,0,.88-.3,1.09-1.12,1.09-5.34-.03-10.68-.03-16.03,0-.85,0-1.11-.26-1.1-1.11,.05-2.65,.02-5.3,.02-7.94Z"/><path class="cls-39" d="M287.17,54.7c2.7,0,5.39,.02,8.09,0,.75,0,1.04,.17,1.03,.99-.03,5.4-.03,10.79,0,16.19,0,.8-.26,1.03-1.03,1.02-5.39-.02-10.78-.02-16.18,0-.77,0-1.04-.23-1.03-1.02,.03-5.4,.03-10.79,0-16.19,0-.82,.28-1,1.03-.99,2.7,.04,5.39,0,8.09,.01Z"/><path class="cls-7" d="M182.72,153.11c-3.54,3.2-9.23,2.91-12.5-.64-3.37-3.66-3.2-9.47,.38-12.8,3.57-3.33,9.34-3.3,12.6,.06,.3,.31,.47,.63,.46,1.06-.13,.1-.27,.13-.43,.09-.69-.31-1.23-.84-1.84-1.26-3.25-2.23-7.48-1.85-10.28,.94-2.62,2.6-3.03,7.04-.94,10.19,2.15,3.24,6.32,4.47,9.91,2.95,.78-.33,1.43-.92,2.3-1.04,.25,.06,.43,.16,.35,.46h-.01Z"/><path class="cls-7" d="M182.72,70.62c-3.54,3.2-9.23,2.91-12.5-.64-3.37-3.66-3.2-9.47,.38-12.8,3.57-3.33,9.34-3.3,12.6,.06,.3,.31,.47,.63,.46,1.06-.13,.1-.27,.13-.43,.09-.69-.31-1.23-.84-1.84-1.26-3.25-2.23-7.48-1.85-10.28,.94-2.62,2.6-3.03,7.04-.94,10.19,2.15,3.24,6.32,4.47,9.91,2.95,.78-.33,1.43-.92,2.3-1.04,.25,.06,.43,.16,.35,.46h-.01Z"/><path class="cls-34" d="M237.59,144.71c0,1.29,.03,2.58-.02,3.87-.02,.41,.38,1.13-.42,1.18-.86,.05-.49-.71-.5-1.11-.04-1.54-.04-3.09,0-4.64,0-.38-.32-.96,.36-1.11,.66-.15,1.09,.1,1.41,.75,.69,1.41,1.47,2.78,2.51,4.12,0-1.31,0-2.62,0-3.92,0-.39-.21-.98,.55-.96,.63,.02,.48,.52,.49,.88,0,1.65,.02,3.29,0,4.94,0,.38,.28,.94-.44,1.07-.64,.12-.98-.17-1.27-.74-.77-1.49-1.59-2.96-2.4-4.43l-.27,.08v.02Z"/><path class="cls-34" d="M240.93,65.29c0-1.28-.02-2.55,0-3.83,0-.38-.27-1,.46-1.03,.87-.04,.55,.67,.56,1.09,.03,1.55,.04,3.09,0,4.64,0,.41,.34,1.04-.5,1.16-.68,.1-.95-.28-1.23-.81-.77-1.47-1.59-2.92-2.64-4.31,0,1.37,.02,2.74,0,4.12,0,.37,.29,1.02-.49,.98-.75-.04-.43-.67-.44-1.04-.04-1.6-.04-3.19,0-4.79,0-.37-.29-.94,.43-1.06,.61-.1,1.01,.11,1.3,.7,.71,1.42,1.5,2.81,2.25,4.21l.31-.03h0Z"/><path class="cls-34" d="M30.38,147.75c0,1.98-.15,2.12-2.23,2.05-1.46-.04-2.64-.61-3.18-2.03-.52-1.39-.46-2.76,.67-3.87,1.15-1.13,2.57-1.18,4.04-.85,.37,.08,.66,.27,.51,.72-.2,.61-.56,.13-.83,.09-1.12-.17-2.22-.18-3.02,.77-.65,.78-.8,1.68-.42,2.66,.36,.92,1.03,1.49,1.99,1.56,.48,.03,1.34,.48,1.37-.54,.02-.59,.52-1.64-.86-1.52-.27,.02-.5-.08-.45-.42,.04-.28,.25-.36,.52-.42,1.5-.34,1.88,0,1.88,1.79h.01Z"/><path class="cls-34" d="M30.38,65.34c0,1.87-.11,1.97-2.01,1.98-1.52,0-2.77-.49-3.37-1.97-.56-1.38-.49-2.75,.6-3.88,1.12-1.16,2.55-1.22,4.02-.92,.33,.07,.69,.18,.59,.68-.13,.65-.5,.23-.78,.18-2.03-.34-3.28,.31-3.64,1.88-.32,1.38,.54,2.84,1.91,3.06,.53,.08,1.42,.53,1.57-.45,.1-.61,.54-1.74-.92-1.59-.21,.02-.41-.1-.36-.34,.03-.17,.16-.38,.3-.45,1.03-.52,2.07,.11,2.09,1.23v.6h0Z"/><path class="cls-8" d="M249.43,64.79v-.3c0-1.94,0-1.83,.89-1.91,.89-.08,1.79-.83,2.61,.07,.45,.5,.62,.05,.92-.12,1.41-.79,2.58-.16,2.68,1.46,.05,.84,.02,1.69,.01,2.54,0,.33,.09,.74-.45,.75-.53,.01-.49-.38-.49-.73v-2.24c0-.61-.02-1.27-.86-1.3-.74-.03-1.08,.52-1.18,1.13-.11,.68-.03,1.39-.11,2.08-.04,.37,.32,1-.42,1.05-.79,.05-.45-.61-.48-.98-.05-.69,0-1.39-.03-2.09-.02-.57-.13-1.15-.85-1.19-.72-.04-1.11,.43-1.2,1.08-.09,.74-.06,1.49-.1,2.24-.02,.36,.19,.91-.42,.93-.76,.03-.46-.61-.5-.99-.05-.49,0-1,0-1.49h-.01Z"/><path class="cls-8" d="M249.43,147.32c0-.1,0-.2,0-.3,.11-.71-.1-2.12,.21-2.04,1.12,.29,2.29-.95,3.26,.14,.41,.46,.58,.13,.92-.07,1.43-.83,2.59-.22,2.7,1.4,.05,.84,.03,1.69,.01,2.54,0,.32,.13,.76-.41,.78-.64,.03-.52-.46-.52-.84,0-.75,0-1.49,0-2.24,0-.57-.09-1.14-.83-1.19-.65-.04-1.07,.38-1.15,.96-.13,.88-.11,1.78-.15,2.67,0,.28,.05,.61-.39,.65-.53,.05-.54-.29-.53-.66,0-.75,0-1.49,0-2.24-.02-.6-.03-1.3-.82-1.36-.88-.07-1.22,.56-1.27,1.33-.05,.74-.05,1.49-.06,2.24,0,.37-.03,.72-.54,.68-.43-.04-.39-.37-.39-.66v-1.79h-.03Z"/><path class="cls-34" d="M259.08,145.14c1.14-.48,2.21-.78,3.11,.17,.81,.86,.76,1.93,.5,2.97-.3,1.18-1.4,1.78-2.56,1.47-.48-.13-.88-.57-1.46-.09-.25,.21-.53-.14-.53-.49v-6.3c0-.35,.11-.58,.51-.56,.41,.03,.44,.31,.44,.63v2.19h-.01Z"/><path class="cls-34" d="M259.08,62.7c1.18-.59,2.2-.79,3.08,.09,.88,.88,.83,2.02,.49,3.09-.37,1.17-1.28,1.59-2.48,1.39-.47-.08-.84-.66-1.46-.12-.32,.28-.58-.18-.58-.58v-6.15c0-.32,.06-.6,.47-.6s.49,.25,.49,.59v2.29h0Z"/><path class="cls-38" d="M162.87,175.69v-1.5c0-1.34,.67-1.97,2.01-1.89,1.68,.1,2.47,.95,2.27,2.45-.15,1.14-.93,1.74-1.94,1.69-1.26-.06-1.49,.45-1.4,1.53,.03,.39,.39,1.15-.39,1.19-.95,.05-.48-.79-.53-1.23-.08-.74-.02-1.49-.02-2.24Z"/><path class="cls-38" d="M162.87,93.18v-1.5c0-1.33,.67-1.96,2.02-1.88,1.67,.1,2.47,.97,2.25,2.46-.17,1.21-1.02,1.75-2.1,1.69-1.15-.07-1.29,.42-1.24,1.38,.02,.44,.41,1.29-.4,1.32-1.03,.03-.43-.9-.51-1.38-.11-.68-.03-1.39-.03-2.09h0Z"/><path class="cls-7" d="M38.18,63.21c.52-1.11,1.39-1.1,2.26-.93,.86,.17,1.18,.84,1.25,1.65,.03,.3,.05,.6,.06,.89,.06,2.55-.07,2.68-2.59,2.57-.82-.03-1.47-.32-1.62-1.23-.16-.96,.36-1.5,1.2-1.8,.23-.08,.5-.04,.73-.13,.41-.16,1.3,.38,1.16-.59-.11-.77-.86-.69-1.46-.62-.33,.04-.66,.11-.99,.17v.02Z"/><path class="cls-7" d="M38.07,145.5c.43-.99,1.33-.82,2.12-.77,.76,.05,1.3,.49,1.42,1.3,.07,.44,.12,.89,.13,1.34,.06,2.53-.09,2.67-2.63,2.52-.83-.05-1.45-.37-1.58-1.27-.13-.89,.34-1.41,1.11-1.72,.18-.07,.41-.04,.58-.14,.46-.27,1.48,.44,1.4-.51-.08-1.06-1.07-.74-1.8-.66-.24,.03-.47,.18-.75-.09Z"/><path class="cls-34" d="M266.45,149.79c-1.78,.04-2.78-1.02-2.65-2.8,.11-1.55,1.23-2.49,2.7-2.28,.57,.08,1.04,.33,1.35,.82,.33,.52,.58,1.16,.37,1.69-.21,.52-.89,.18-1.36,.25-.24,.03-.51-.04-.74,.02-.42,.11-1.15-.38-1.22,.36-.06,.65,.53,1.02,1.18,1.12,.24,.04,.51-.06,.73,0,.36,.12,.95-.67,1.04,.14,.08,.68-.65,.58-1.11,.67-.1,.02-.2,0-.3,0h0Z"/><path class="cls-32" d="M34.02,144.7c1.5,0,2.51,1.02,2.52,2.53,0,1.5-1.04,2.57-2.5,2.57s-2.53-1.09-2.54-2.55c0-1.48,1.04-2.54,2.52-2.55Z"/><path class="cls-34" d="M266.52,67.31c-1.75,0-2.66-.86-2.73-2.44-.06-1.46,.74-2.5,2.04-2.65,1.32-.15,2.16,.53,2.4,1.86,.12,.64,0,.94-.7,.91-.59-.03-1.19-.03-1.79,0-.3,.02-.76-.21-.87,.29-.08,.37,.2,.65,.47,.87,.51,.43,1.09,.37,1.69,.3,.26-.03,.68-.52,.82,.1,.13,.57-.39,.6-.75,.7-.24,.06-.49,.05-.6,.06h.02Z"/><path class="cls-32" d="M172.91,176.66c-.02,1.49-1.07,2.55-2.53,2.53-1.44-.02-2.51-1.12-2.5-2.59,0-1.48,1.07-2.52,2.56-2.51,1.49,0,2.49,1.05,2.48,2.57h0Z"/><path class="cls-32" d="M176.81,164.65c0,1.5-1.05,2.56-2.52,2.55-1.45,0-2.52-1.11-2.52-2.57s1.06-2.53,2.54-2.53,2.5,1.03,2.49,2.55h.01Z"/><path class="cls-32" d="M174.28,84.71c-1.44-.02-2.51-1.12-2.5-2.59,0-1.48,1.07-2.52,2.56-2.51,1.49,.01,2.49,1.05,2.48,2.57-.02,1.49-1.07,2.55-2.53,2.53h0Z"/><path class="cls-32" d="M172.91,94.11c0,1.5-1.02,2.58-2.47,2.6s-2.54-1.06-2.56-2.52c-.02-1.48,1.02-2.56,2.49-2.57,1.5-.02,2.53,.99,2.54,2.5h0Z"/><path class="cls-32" d="M36.54,64.7c.02,1.5-1,2.58-2.46,2.61-1.45,.02-2.55-1.05-2.57-2.51-.03-1.48,1.01-2.56,2.48-2.59,1.5-.02,2.53,.98,2.55,2.49Z"/><path class="cls-36" d="M247.83,65.01c-.31,.65,.6,2.07-.44,2.15-.77,.06-1.59,.41-2.42,.24-.78-.16-1.34-.53-1.41-1.32-.1-1.09-.08-2.19-.12-3.29,0-.34,.09-.59,.49-.58,.4,0,.46,.29,.46,.61,0,.8,0,1.6,.02,2.4,0,.69,.14,1.37,.99,1.42,.84,.05,1.29-.54,1.4-1.28,.11-.78,.06-1.59,.08-2.39,0-.33-.08-.74,.45-.76,.55-.03,.48,.38,.49,.72v2.07h0Z"/><path class="cls-36" d="M247.83,147.27c0,1.79-.87,2.66-2.6,2.63-.99-.02-1.63-.5-1.71-1.51-.08-.99-.06-1.99-.08-2.99,0-.37,0-.73,.53-.68,.41,.04,.42,.34,.42,.65,0,.75,0,1.5,0,2.25,.02,.73,.09,1.51,1.03,1.53,.91,.02,1.31-.65,1.39-1.46,.08-.74,.04-1.5,.05-2.24,0-.35-.04-.74,.5-.72,.55,.02,.43,.44,.44,.76,0,.6,0,1.2,0,1.8l.02-.02Z"/><path class="cls-34" d="M176.6,176.63c0-1.85,.89-2.72,2.68-2.63,.85,.04,1.5,.43,1.59,1.28,.13,1.13,.08,2.28,.11,3.43,0,.27-.09,.47-.41,.48-.38,.02-.52-.19-.52-.54,0-.85,0-1.69-.02-2.54,0-.71-.23-1.33-1.05-1.36-.75-.02-1.21,.5-1.31,1.19-.11,.78-.07,1.59-.1,2.38-.02,.37,.13,.88-.51,.86-.63-.03-.42-.55-.44-.91-.03-.55,0-1.09,0-1.64h-.02Z"/><path class="cls-34" d="M176.6,94.04c0-2.46,.31-2.74,2.78-2.52,.86,.08,1.44,.52,1.52,1.36,.11,1.09,.07,2.19,.09,3.28,0,.35-.12,.57-.52,.53-.42-.03-.42-.34-.42-.64,0-.8,0-1.59-.02-2.39,0-.7-.18-1.35-1-1.4-.83-.05-1.29,.52-1.38,1.28-.1,.79-.06,1.59-.09,2.38,0,.34,.06,.74-.45,.77-.53,.03-.5-.36-.5-.71v-1.94h0Z"/><path class="cls-29" d="M74.39,147.09c.99,.16,1.62,.76,1.56,1.79-.06,1.02-.71,1.62-1.78,1.58-1.1-.05-1.63-.74-1.58-1.76,.05-1.04,.71-1.58,1.8-1.61Z"/><path class="cls-29" d="M74.36,67.98c-1.14-.02-1.75-.61-1.77-1.65-.02-1.03,.57-1.69,1.64-1.71s1.7,.63,1.73,1.64c.03,1.02-.59,1.64-1.6,1.72Z"/><path class="cls-29" d="M301.81,150.48c-1.2-.07-1.76-.72-1.74-1.73,.03-1.02,.65-1.67,1.73-1.63,1.06,.04,1.67,.7,1.64,1.72-.03,1.03-.68,1.6-1.63,1.64h0Z"/><path class="cls-29" d="M301.79,67.98c-1.14-.04-1.72-.67-1.72-1.69s.61-1.68,1.69-1.67c1.06,.01,1.69,.67,1.68,1.69,0,1.02-.64,1.62-1.65,1.67Z"/><path class="cls-6" d="M186.99,89.79c.92,0,1.65,.24,2.08,1.03,.46,.84,.09,1.52-.4,2.19-.29,.4-.65,.77-.83,1.22-.17,.43-.34,.78-.81,.54-.37-.19-.24-.65-.08-.94,.26-.47,.65-.87,.93-1.33,.62-1.03,.21-1.7-.95-1.82-.46-.05-1.24,.73-1.32-.14-.08-.86,.89-.62,1.38-.74h0Z"/><path class="cls-6" d="M186.51,173.21c-.28-.11-.76,.56-.93-.13-.16-.66,.45-.69,.85-.74,1.02-.14,2.01-.1,2.62,.92,.56,.95,.05,1.69-.52,2.42-.27,.35-.56,.71-.7,1.12-.15,.41-.37,.65-.74,.49-.4-.17-.29-.62-.15-.91,.19-.39,.48-.74,.75-1.09,.38-.5,.68-1.03,.33-1.63-.33-.57-.93-.46-1.51-.44h0Z"/><path class="cls-11" d="M183.44,90.3c.08,.12,.13,.19,.12,.21-.75,1.2,2.03,1.2,.93,1.69-1.48,.66-.64,1.54-.83,2.28-.17,.68-.09,1.46,.97,1.42,.23,0,.39,.07,.38,.32,0,.29-.2,.44-.47,.48-.93,.14-1.42-.34-1.53-1.21-.07-.59-.02-1.19-.03-1.79,0-.3,.02-.6,0-.9-.07-.66-.89-.22-1.02-.61-.31-.93,.61-.42,.89-.68,.32-.3-.08-.91,.58-1.2h.02Z"/><path class="cls-23" d="M183.38,58.3c.09,0,.18,0,.27,0,2.57,2.82,2.66,7.33,.21,10.81-.16,.09-.29,.06-.39-.1-.21-.45-.08-.89,.12-1.29,1.4-2.79,1.31-5.55-.14-8.29-.18-.34-.37-.72-.08-1.12h0Z"/><path class="cls-23" d="M183.38,140.79c.09,0,.18,0,.27,0,2.57,2.82,2.66,7.33,.21,10.81-.16,.09-.29,.06-.39-.1-.21-.45-.08-.89,.12-1.29,1.4-2.79,1.31-5.55-.14-8.29-.18-.34-.37-.72-.08-1.12h0Z"/><path class="cls-11" d="M183.46,172.51c.17,.96,.1,1.8,1.15,1.6,.07,0,.25,.16,.27,.27,.05,.31-.17,.44-.43,.47-1.61,.17-.6,1.38-.78,2.08-.16,.65-.15,1.47,.93,1.46,.29,0,.52,.09,.4,.42-.05,.15-.25,.33-.41,.36-.92,.18-1.44-.27-1.56-1.14-.08-.59-.03-1.19-.03-1.79,0-.3-.08-.62,0-.89,.28-.88-1.92-.26-.83-1.11,.54-.42,.71-.93,1.29-1.72h0Z"/><path class="cls-43" d="M43.95,63.69v2.98c0,.29,.04,.6-.4,.64-.54,.04-.51-.32-.51-.68v-6.1c0-.33-.09-.73,.48-.71,.56,.02,.43,.44,.43,.75,0,1.04,0,2.08,0,3.12Z"/><path class="cls-43" d="M43.95,146.16v2.98c0,.37,0,.71-.53,.65-.44-.04-.38-.37-.38-.65v-6.25c0-.31,.02-.59,.46-.59s.46,.28,.46,.59v3.27h0Z"/><path class="cls-19" d="M269.51,147.28c0-.25-.02-.5,0-.75,.06-.58-.24-1.58,.17-1.67,.69-.14,1.47-.15,2.2-.24,.18-.02,.39,.08,.41,.33,.02,.23-.06,.39-.3,.42-1.54,.18-1.5,1.34-1.52,2.46v1.2c0,.34,.05,.74-.47,.76-.52,.02-.5-.36-.5-.72v-1.79h0Z"/><path class="cls-19" d="M178.09,82.11v-.6c0-1.75,.59-2.26,2.31-1.99,.17,.03,.38,.15,.46,.29,.08,.15,.07,.42-.21,.45-1.82,.24-1.54,1.64-1.59,2.86,0,.3,0,.6,0,.9,0,.38-.05,.71-.55,.67-.42-.03-.42-.34-.42-.64v-1.94Z"/><path class="cls-19" d="M178.09,164.56v-.6c0-1.6,.8-2.26,2.35-1.95,.19,.04,.4,.08,.43,.32,.04,.21-.02,.41-.26,.44-1.63,.2-1.52,1.43-1.55,2.59v1.2c0,.31-.03,.61-.44,.64-.52,.04-.53-.32-.53-.69v-1.94h0Z"/><path class="cls-19" d="M269.51,64.72v-.6c0-1.79,.53-2.26,2.3-2,.17,.03,.39,.14,.47,.28s.09,.42-.19,.46c-1.92,.26-1.52,1.76-1.6,3-.01,.2,0,.4,0,.6-.02,.38,.1,.86-.53,.83-.53-.03-.42-.46-.43-.78-.01-.6,0-1.2,0-1.79h-.02Z"/><path class="cls-43" d="M174.32,94.15v-1.93c0-.29-.02-.6,.42-.62,.41-.02,.5,.21,.5,.54v4.01c0,.34-.08,.57-.49,.55-.44-.02-.42-.33-.42-.62v-1.93h0Z"/><path class="cls-43" d="M175.23,176.73v1.78c0,.35,.03,.71-.51,.67-.44-.03-.4-.35-.4-.63v-3.86c0-.3,0-.59,.44-.61,.43,0,.48,.24,.48,.57v2.08h-.01Z"/><path class="cls-17" d="M186.66,96.24c-.02-.4,.1-.66,.56-.69,.45-.03,.62,.17,.62,.6,0,.32-.03,.6-.45,.58-.33-.02-.73,.05-.72-.48h0Z"/><path class="cls-17" d="M187.27,178.04c.49-.05,.55,.26,.56,.65,0,.36-.13,.54-.51,.53-.37,0-.68-.04-.67-.54,0-.42,.19-.64,.62-.63h0Z"/><path class="cls-3" d="M175.17,90.56c-.76,.03-.9-.18-.91-.53-.02-.36,.11-.55,.5-.54,.35,0,.55,.11,.54,.51,0,.34-.12,.57-.12,.57h0Z"/><path class="cls-45" d="M46.44,144.7c.39-.03,.62,.07,.61,.48,0,.4-.11,.69-.59,.66-.4-.03-.46-.29-.48-.61-.02-.37,.13-.56,.47-.53h-.01Z"/><path class="cls-45" d="M274.25,67.14c0,.1-.24,.18-.58,.18-.37,0-.53-.16-.52-.54,.02-.43,.18-.65,.63-.61,.42,.04,.42,.35,.47,.97h0Z"/><path class="cls-45" d="M47.02,66.57c.06,.65-.18,.74-.53,.74-.37,0-.54-.14-.53-.53,0-.42,.17-.66,.63-.62,.42,.04,.41,.35,.42,.4h0Z"/><path class="cls-45" d="M274.23,62.65c-.02,.46-.13,.7-.53,.7-.5,0-.54-.32-.55-.7-.02-.45,.28-.45,.6-.45,.39,0,.54,.19,.48,.44h0Z"/><path class="cls-45" d="M47.07,62.34c-.05,.65-.04,.96-.46,1.01-.45,.05-.63-.16-.64-.6,0-.37,.13-.55,.51-.54,.33,0,.61,.05,.6,.14h0Z"/><path class="cls-45" d="M273.79,148.65c.27-.02,.41,.2,.44,.55,.02,.32-.01,.59-.44,.61-.41,.02-.68-.07-.63-.57,.03-.33,.13-.58,.63-.59Z"/><path class="cls-3" d="M174.84,171.99c.43-.02,.47,.25,.45,.58-.03,.36-.22,.52-.58,.5-.4-.03-.44-.31-.45-.63-.02-.43,.26-.47,.58-.45Z"/><path class="cls-45" d="M46.48,148.66c.39-.03,.53,.19,.56,.54,.02,.32,0,.59-.44,.61-.41,.02-.68-.07-.63-.57,.03-.33,.12-.58,.52-.58h-.01Z"/><path class="cls-45" d="M273.63,144.7c.39-.03,.62,.07,.6,.48-.01,.4-.11,.69-.59,.66-.4-.03-.46-.29-.48-.61-.02-.37,.13-.56,.47-.53Z"/><path class="cls-15" d="M186.91,82.34l1.89,.81c-.04,.2-.23,.21-.37,.28l-1.88-.79c.04-.2,.22-.22,.36-.3Z"/><path class="cls-31" d="M163.15,165.64l1.89-.81c.14,.08,.33,.1,.37,.3l-1.89,.8c-.14-.08-.32-.09-.37-.29h0Z"/><path class="cls-15" d="M185.41,164.2l1.9,.84c-.05,.2-.25,.22-.39,.29-.62-.27-1.24-.54-1.86-.8,.04-.18,.16-.29,.35-.32h0Z"/><path class="cls-13" d="M188.33,162.35c.61-.35,1.22-.72,2.08-.34-.57,.21-1.13,.43-1.7,.64-.15-.07-.33-.1-.38-.3Z"/><path class="cls-17" d="M183.56,151.58h.32c-.26,.61-.4,1.3-1.15,1.53l-.35-.33c0-.77,.42-1.16,1.18-1.2Z"/><path class="cls-13" d="M188.33,79.86c.61-.35,1.22-.72,2.08-.34l-1.7,.64c-.15-.07-.33-.1-.38-.3Z"/><path class="cls-17" d="M183.56,69.09h.32c-.26,.61-.4,1.3-1.15,1.53l-.35-.33c0-.77,.42-1.16,1.18-1.2Z"/><path class="cls-31" d="M165.41,82.64c-.63,.27-1.26,.53-1.89,.8-.14-.08-.32-.09-.37-.29l1.89-.81c.14,.08,.33,.1,.37,.3Z"/><path class="cls-4" d="M188.33,162.35l.38,.3c-.58,.19-1.08,.72-1.78,.45l.02,.04c.23-.67,.88-.61,1.39-.79h-.01Z"/><path class="cls-4" d="M188.33,79.86l.38,.3c-.58,.19-1.08,.72-1.78,.45l.02,.04c.23-.67,.88-.61,1.39-.79h-.01Z"/><path class="cls-22" d="M186.92,165.33l.39-.29c.54,.09,1.04,.27,1.48,.61-.05,.19-.23,.21-.37,.27l-1.5-.59h0Z"/><path class="cls-16" d="M162.94,162.31c.67-.25,1.13,0,1.48,.58l.02-.04c-.63,.16-1.17,.09-1.48-.57l-.02,.04h0Z"/><path class="cls-16" d="M162.94,162.31l.02-.04c-.62,.17-1.08-.05-1.68-.65,.84,0,1.38,.05,1.67,.69h-.01Z"/><path class="cls-16" d="M162.94,79.76c-.63,.24-1.06-.06-1.68-.61,.85-.04,1.37,.02,1.66,.65l.02-.04h0Z"/><path class="cls-37" d="M166.54,164.23c.12-.5-.44-.2-.57-.54,.58-.15,1.16-.26,1.46,.37,.15,.32-.26,.44-.56,.47-.33,.15-.37-.03-.33-.3Z"/><path class="cls-14" d="M185.41,164.2l-.35,.32c-.32-.02-.67-.13-.57-.49,.1-.36,.5-.45,.86-.47,.31-.15,.37,0,.34,.28-.13,.09-.37,.1-.29,.36h.01Z"/><path class="cls-16" d="M162.94,79.76l-.02,.04c.67-.22,1.15,.02,1.5,.6l.02-.04c-.64,.16-1.19,.08-1.5-.6Z"/><path class="cls-37" d="M166.54,81.73c.12-.5-.44-.2-.57-.54,.58-.15,1.16-.26,1.46,.37,.15,.32-.26,.44-.56,.47-.33,.15-.37-.03-.33-.3Z"/><path class="cls-14" d="M185.7,81.35c-.13,.1-.37,.1-.29,.37,.05,.28,0,.46-.34,.32-.32-.02-.67-.12-.57-.49,.09-.36,.5-.45,.86-.47,.31-.15,.37,.01,.34,.28h0Z"/><path class="cls-30" d="M166.54,81.73l.33,.3c-.43,.35-.93,.51-1.47,.61l-.37-.3,1.5-.61h0Z"/><path class="cls-22" d="M185.07,82.03l.34-.32,1.5,.62-.36,.3c-.54-.1-1.04-.28-1.48-.61h0Z"/><path class="cls-30" d="M166.54,164.23l.33,.3c-.43,.35-.93,.51-1.47,.61l-.37-.3,1.5-.61h0Z"/><path class="cls-5" d="M164.44,80.35l-.02,.04c.53-.28,.89,.09,1.26,.43-.49,.11-.97,.19-1.24-.47h0Z"/><path class="cls-5" d="M185.7,81.35l-.34-.28c.48-.33,.96-.64,1.58-.42l-.02-.04c-.21,.58-.77,.57-1.22,.74Z"/><path class="cls-5" d="M185.7,163.84l-.34-.28c.48-.33,.96-.64,1.58-.42l-.02-.04c-.21,.58-.77,.57-1.22,.74h0Z"/><path class="cls-5" d="M164.44,162.84l-.02,.04c.53-.28,.89,.09,1.26,.43-.49,.11-.97,.19-1.24-.47h0Z"/><path class="cls-33" d="M188.43,165.92l.37-.27,1.1,.39c.03,.27,0,.45-.35,.29l-1.13-.4h.01Z"/><path class="cls-40" d="M163.15,165.64l.37,.29-1.12,.4c-.33,.16-.38-.02-.35-.29l1.1-.4Z"/><path class="cls-40" d="M163.15,83.15l.37,.29-1.12,.4c-.32,.16-.38-.02-.35-.29l1.1-.4Z"/><path class="cls-33" d="M188.43,83.43l.37-.28,1.1,.4c.03,.27,0,.45-.35,.29l-1.13-.4h.01Z"/><path class="cls-48" d="M162.04,166.04l.35,.29c-.36,.33-.78,.42-1.28,.51,.04-.74,.58-.64,.93-.8h0Z"/><path class="cls-16" d="M189.55,166.32l.35-.29c.35,.16,.88,.07,.95,.79-.51-.07-.93-.18-1.29-.5h-.01Z"/><path class="cls-16" d="M189.55,83.83l.35-.29c.35,.16,.88,.07,.95,.79-.51-.07-.93-.18-1.29-.5h-.01Z"/><path class="cls-48" d="M162.04,83.55l.35,.29-1.29,.59c.05-.81,.59-.71,.93-.88h0Z"/><path class="cls-41" d="M177.59,10.57c7.07,.01,13.87,1.26,20.22,4.52,1.65,.85,3.1,1.98,4.38,3.34,3.17,3.38,3.15,7.62,0,10.99-3.1,3.29-7.1,4.89-11.31,6.06-9.31,2.61-18.63,2.47-27.88-.31-3.78-1.14-7.38-2.72-10.18-5.7-3.21-3.42-3.23-7.67,0-11.1,2.76-2.94,6.33-4.47,10.04-5.66,4.78-1.53,9.71-2.21,14.74-2.15h0Z"/><path class="cls-8" d="M298.77,11.79c4.64,.91,9.06,2.37,12.82,5.35,5.16,4.08,5.18,9.65,.06,13.76-4.3,3.44-9.42,4.92-14.71,5.79-7.67,1.26-15.31,.99-22.81-1.23-3.46-1.02-6.76-2.39-9.57-4.75-4.74-3.96-4.79-9.32-.05-13.29,3.81-3.19,8.38-4.7,13.17-5.64,.39-.13,.79-.31,1.02,.23-.38,.65-1.08,.67-1.69,.83-3.39,.9-6.7,1.98-9.72,3.82-1.03,.63-1.96,1.37-2.82,2.22-3.69,3.67-3.15,7.52,.57,10.9,2.29,2.08,5.1,3.31,8.01,4.28,4.39,1.46,8.88,2.21,13.52,2.28,5.32,.07,10.57-.28,15.68-1.9,3.16-1,6.19-2.25,8.81-4.35,.55-.44,1.07-.9,1.51-1.45,2.69-3.41,2.54-6.51-.49-9.63-2.82-2.89-6.46-4.25-10.18-5.47-1.4-.46-2.96-.47-4.15-1.51,.23-.56,.64-.36,1.02-.24h0Z"/><path class="cls-8" d="M36.63,21.28c0-.15-.02-.3,0-.45,.13-.65-.13-1.98,.25-1.86,1.1,.33,2.21-.91,3.15,.11,.45,.49,.65,.19,1.04-.03,1.33-.78,2.53-.18,2.64,1.34,.07,.94,.02,1.89,.03,2.84,0,.33-.06,.6-.47,.59-.4,0-.47-.27-.47-.6,0-.85,0-1.69,0-2.54,0-.53-.1-1.04-.73-1.13-.64-.09-1.02,.28-1.23,.86-.31,.87-.11,1.78-.17,2.67-.02,.32,.12,.73-.45,.75-.57,.01-.47-.39-.47-.72,0-.75,0-1.5,0-2.24-.02-.61-.07-1.28-.88-1.31-.8-.03-1.14,.54-1.2,1.25-.06,.74-.05,1.49-.07,2.24,0,.34,.06,.75-.45,.77-.53,.02-.48-.39-.48-.73v-1.79l-.02-.02Z"/><path class="cls-8" d="M29.66,21.76c0,.35,.04,.7,0,1.05-.05,.38,.27,1.04-.5,.99-.71-.05-.41-.68-.43-1.06-.05-.69-.02-1.39-.03-2.09,0-.54-.14-1.04-.76-1.1-.63-.07-1.02,.32-1.21,.9-.29,.87-.1,1.78-.16,2.67-.02,.33,.09,.74-.48,.72-.56-.02-.43-.44-.44-.75-.02-.8,.01-1.6-.02-2.39-.02-.57-.17-1.13-.9-1.14-.65,0-1.05,.42-1.12,1-.11,.84-.09,1.69-.12,2.53-.01,.35,.04,.75-.48,.74-.53,0-.45-.43-.45-.76,0-1.15-.01-2.29,0-3.44,0-.56,.36-.47,.77-.66,1.5-.7,2.9,.82,4.41-.14,.78-.49,1.74,.18,1.87,1.31,.06,.54,.01,1.09,.01,1.64h.05v-.02Z"/><path class="cls-38" d="M16.22,23.69c-.58,.26-1.03,.21-1.28-.46-.12-.33-.25-.65-.4-.96-.34-.69-.5-1.7-1.58-1.44-.97,.24-.3,1.15-.47,1.73-.07,.23-.02,.5-.01,.74,0,.38-.17,.53-.54,.5-.32-.02-.42-.21-.42-.48,0-1.99,0-3.99,.01-5.98,0-.12,.09-.29,.19-.37,.5-.39,3.27,.02,3.68,.59,.67,.96,.62,1.91-.4,2.58-.55,.36-.09,.57,0,.8,.36,.82,.76,1.62,1.14,2.43,.04,.09,.06,.19,.09,.3v.02Z"/><path class="cls-34" d="M46.28,19.19c1.13-.54,2.15-.79,3.05,.07,.9,.87,.85,2.01,.53,3.09-.32,1.09-1.14,1.57-2.31,1.46-.57-.06-1.06-.75-1.76-.14-.23,.2-.47-.23-.47-.56v-6.15c0-.3,0-.62,.43-.64,.51-.03,.54,.31,.53,.69v2.17h0Z"/><path class="cls-9" d="M298.77,11.79c-.33,.06-.7-.04-.96,.27-.45,.48-1.02,.33-1.55,.25-5.36-.83-10.73-.83-16.09,0-.53,.08-1.1,.23-1.55-.25-.25-.32-.63-.21-.96-.27,4.63-1.12,9.32-1.34,14.05-1.01,2.37,.17,4.75,.3,7.05,1.01h0Z"/><path class="cls-34" d="M33.59,23.82c-1.77-.02-2.71-.97-2.68-2.62,.02-1.57,1.05-2.58,2.53-2.48,1.17,.08,1.99,1.04,1.99,2.2,0,.52-.26,.57-.64,.57-.6,0-1.2-.03-1.79,.02-.34,.03-.9-.28-.98,.31-.07,.48,.32,.82,.73,1.03,.41,.21,.86,.16,1.31,.14,.3,0,.81-.63,.94,.11,.11,.64-.52,.6-.92,.7-.19,.05-.4,.03-.47,.03h-.02Z"/><path class="cls-34" d="M19.55,23.81c-1.82,.02-2.8-.98-2.73-2.69,.06-1.56,1.12-2.54,2.6-2.41,.52,.05,.96,.24,1.31,.62,.46,.51,.7,1.19,.55,1.79-.18,.7-.93,.25-1.41,.36-.19,.04-.41-.04-.59,.02-.46,.13-1.29-.38-1.32,.39-.03,.79,.73,1.09,1.49,1.13,.05,0,.11-.02,.15,0,.43,.17,1.19-.75,1.27,.15,.07,.74-.86,.56-1.31,.65h-.01Z"/><path class="cls-34" d="M53.74,23.81c-1.82,.02-2.8-.97-2.75-2.68,.05-1.56,1.11-2.55,2.58-2.43,.58,.05,1.06,.26,1.41,.72,.4,.54,.67,1.23,.44,1.81-.19,.5-.89,.17-1.36,.24-.2,.03-.41-.04-.59,.01-.46,.13-1.29-.36-1.34,.38-.05,.79,.71,1.1,1.47,1.15,.05,0,.1-.02,.15,0,.44,.16,1.19-.72,1.29,.13,.08,.75-.85,.57-1.29,.66h0Z"/><path class="cls-19" d="M56.71,21.22v-.6c0-1.76,.58-2.26,2.31-1.99,.17,.03,.38,.14,.46,.28,.08,.15,.08,.42-.2,.46-1.82,.24-1.54,1.64-1.59,2.86,0,.3,0,.6,0,.9,0,.38-.04,.71-.54,.68-.42-.03-.42-.34-.42-.64v-1.94h-.02Z"/><path class="cls-37" d="M61.43,23.3c.03,.37-.14,.51-.5,.52-.43,.02-.63-.14-.58-.59,.03-.32,.12-.55,.5-.56,.46-.02,.58,.25,.58,.63Z"/><path class="cls-37" d="M61.43,19.31c-.02,.42-.25,.59-.66,.54-.39-.05-.39-.35-.41-.64-.03-.51,.3-.5,.66-.49,.43,0,.42,.3,.41,.6h0Z"/><path class="cls-46" d="M97.33,63.8c0,2.44-.05,4.89,.02,7.33,.03,1.02-.32,1.24-1.27,1.23-4.83-.04-9.67-.04-14.5,0-.89,0-1.21-.22-1.2-1.16,.04-4.94,.04-9.88,0-14.82,0-.81,.16-1.13,1.05-1.12,4.93,.04,9.87,.05,14.8,0,1,0,1.12,.37,1.11,1.21-.05,2.44-.02,4.89-.02,7.33h0Z"/><path class="cls-46" d="M51.41,63.86c0-2.44,.04-4.89-.02-7.33-.02-.92,.15-1.29,1.2-1.28,4.83,.06,9.67,.05,14.5,0,.93,0,1.29,.18,1.28,1.21-.06,4.89-.06,9.78,0,14.67,.01,1.05-.37,1.23-1.3,1.22-4.83-.04-9.67-.04-14.5,0-.92,0-1.2-.24-1.18-1.17,.06-2.44,.02-4.89,.02-7.33h0Z"/><path class="cls-46" d="M88.9,137.77c2.39,0,4.79,.04,7.18-.02,.92-.02,1.29,.15,1.28,1.2-.06,4.89-.06,9.78,0,14.67,.01,1-.29,1.25-1.26,1.24-4.83-.05-9.67-.04-14.5,0-.88,0-1.22-.19-1.21-1.15,.04-4.94,.05-9.88,0-14.82-.01-.98,.33-1.15,1.2-1.13,2.44,.05,4.88,.02,7.33,.02h-.02Z"/><path class="cls-46" d="M68.34,146.3c0,2.44-.03,4.89,.02,7.33,.02,.87-.17,1.23-1.14,1.22-4.93-.05-9.87-.04-14.8,0-.79,0-1.02-.23-1.02-1.01,.03-5.04,.03-10.08,0-15.11,0-.85,.33-.96,1.05-.96,4.93,.02,9.87,.04,14.8,0,1,0,1.13,.38,1.11,1.22-.05,2.44-.02,4.89-.02,7.33h0Z"/><path class="cls-46" d="M101.5,63.74c0-2.5,.03-5-.02-7.49-.02-.8,.24-1,1.01-.99,4.99,.03,9.98,.04,14.98,0,.88,0,1.07,.3,1.07,1.12-.03,4.95-.04,9.89,0,14.84,0,.95-.3,1.17-1.19,1.16-4.89-.04-9.78-.05-14.68,0-1.07,.01-1.21-.39-1.19-1.29,.05-2.45,.02-4.9,.02-7.34h0Z"/><path class="cls-46" d="M118.52,146.29c0,2.45-.03,4.9,.02,7.34,.02,.85-.13,1.24-1.12,1.23-4.94-.05-9.88-.04-14.83,0-.83,0-1.11-.19-1.11-1.07,.04-5,.04-9.99,0-14.99,0-.87,.27-1.07,1.1-1.06,4.94,.04,9.88,.04,14.83,0,.97,0,1.16,.32,1.14,1.21-.06,2.45-.02,4.9-.02,7.34h0Z"/><path class="cls-46" d="M307.67,146.27c0-2.5,.03-5-.02-7.49-.01-.76,.18-1.03,.99-1.02,4.99,.04,9.98,.03,14.97,0,.81,0,1.13,.18,1.12,1.07-.04,4.99-.03,9.99,0,14.98,0,.76-.19,1.04-1,1.04-5.04-.03-10.08-.04-15.12,0-.88,0-.95-.39-.94-1.09,.03-2.5,.01-4.99,.01-7.49h-.01Z"/><path class="cls-46" d="M316.2,55.28c2.45,0,4.89,.03,7.34-.02,.87-.02,1.22,.16,1.21,1.14-.05,4.94-.04,9.89,0,14.83,0,.82-.19,1.13-1.07,1.12-4.99-.04-9.98-.03-14.97,0-.77,0-1.04-.2-1.03-1,.03-5.04,.04-10.09,0-15.13,0-.86,.35-.96,1.06-.95,2.5,.03,4.99,0,7.49,0h-.03Z"/><path class="cls-46" d="M278.64,146.2c0-2.4,.04-4.8-.02-7.19-.02-.92,.16-1.28,1.2-1.27,4.94,.06,9.88,.05,14.82,0,.84,0,1.09,.21,1.09,1.07-.04,4.99-.03,9.99,0,14.99,0,.72-.12,1.06-.96,1.06-5.04-.04-10.08-.04-15.12,0-.79,0-1.02-.23-1.01-1.01,.04-2.55,.02-5.09,.02-7.64h-.02Z"/><path class="cls-46" d="M345.46,63.86c0,2.5-.03,5,.02,7.49,.01,.78-.22,1.02-1.01,1.01-5.04-.03-10.08-.04-15.12,0-.85,0-.97-.33-.96-1.06,.02-4.99,.03-9.99,0-14.99,0-.86,.25-1.07,1.09-1.07,4.99,.04,9.98,.04,14.97,0,.9,0,1.06,.32,1.04,1.12-.04,2.5-.02,4.99-.02,7.49h-.01Z"/><path class="cls-46" d="M328.39,146.08c0-2.45,.03-4.9-.02-7.34-.02-.8,.23-1,1.01-1,5.04,.03,10.08,.04,15.12,0,.83,0,.97,.3,.97,1.03-.03,4.99-.03,9.99,0,14.99,0,.84-.23,1.1-1.08,1.09-4.99-.04-9.98-.04-14.97,0-.91,0-1.06-.33-1.05-1.13,.04-2.55,.02-5.09,.02-7.64h0Z"/><path class="cls-46" d="M295.7,63.71c0,2.55-.03,5.1,.02,7.64,.01,.78-.21,1.02-1.01,1.01-5.04-.03-10.08-.04-15.12,0-.84,0-.97-.33-.97-1.05,.02-4.99,.03-9.99,0-14.99,0-.86,.25-1.08,1.08-1.07,4.99,.04,9.98,.04,14.97,0,.89,0,1.06,.31,1.04,1.11-.05,2.45-.02,4.89-.02,7.34h.01Z"/><path class="cls-46" d="M183.56,151.58l-1.18,1.2c-5.77,4.43-12.99,.83-13.91-5.3-.54-3.58,1.29-7.08,4.61-8.79,3.31-1.71,7.13-1.03,9.99,1.79,.11,.1,.21,.21,.32,.31,1.09,2.33,2.12,4.64,1.46,7.35-.3,1.21-1.11,2.2-1.29,3.43h0Z"/><path class="cls-46" d="M183.56,69.09l-1.18,1.2c-5.77,4.43-12.99,.83-13.91-5.3-.54-3.58,1.29-7.08,4.61-8.79,3.31-1.71,7.13-1.03,9.99,1.79,.11,.1,.21,.21,.32,.31,1.09,2.33,2.12,4.64,1.46,7.35-.3,1.21-1.11,2.2-1.29,3.43h0Z"/><path class="cls-47" d="M261.86,147.27c-.1,.87-.31,1.75-1.43,1.7-1.08-.04-1.35-.88-1.33-1.81,.02-.89,.36-1.63,1.35-1.65,1.12-.03,1.35,.81,1.41,1.76h0Z"/><path class="cls-47" d="M259.09,64.83c.03-.92,.27-1.75,1.35-1.8,1.02-.05,1.37,.68,1.39,1.57,.02,.96-.2,1.89-1.39,1.89-1,0-1.29-.78-1.35-1.66Z"/><path class="cls-35" d="M163.81,174.48c.14-.55-.37-1.42,.81-1.31,.83,.08,1.51,.36,1.49,1.27-.02,.91-.7,1.14-1.54,1.2-1.09,.07-.62-.72-.76-1.15h0Z"/><path class="cls-35" d="M164.59,93.12c-1.17,.14-.72-.76-.74-1.28-.02-.49-.35-1.26,.72-1.17,.82,.07,1.52,.32,1.53,1.23s-.64,1.25-1.51,1.22Z"/><path class="cls-25" d="M39.76,64.93c.65-.03,1.05-.05,.97,.58-.11,.77-.58,1.14-1.31,1.15-.48,0-.92-.23-.87-.79,.07-.89,.85-.81,1.21-.93h0Z"/><path class="cls-44" d="M40.78,147.71c-.17,1.08-.66,1.45-1.39,1.43-.48,0-.93-.27-.84-.82,.14-.92,.94-.86,1.62-.92,.46-.04,.63,.18,.61,.31h0Z"/><path class="cls-1" d="M266.02,146.82c-.4-.16-1.08,.26-1.1-.35-.02-.65,.57-.99,1.23-.97,.53,0,1.06,.27,1.05,.82-.02,.92-.83,.25-1.18,.5Z"/><path class="cls-26" d="M35.57,147.3c-.1,.94-.45,1.69-1.51,1.69-1.14,0-1.54-.76-1.52-1.79,.02-.96,.43-1.68,1.48-1.69,1.14,0,1.48,.8,1.56,1.78h-.01Z"/><path class="cls-1" d="M266.2,64.37c-.48-.25-1.21,.31-1.29-.41-.06-.56,.5-.92,1.1-.95,.6-.03,1.15,.21,1.18,.84,.06,.96-.81,.09-1,.53h.01Z"/><path class="cls-26" d="M171.94,176.64c-.08,.94-.4,1.71-1.46,1.74-1.14,.03-1.57-.71-1.57-1.74,0-.95,.39-1.7,1.43-1.74,1.14-.04,1.51,.75,1.6,1.73h0Z"/><path class="cls-26" d="M172.79,164.7c.04-.99,.39-1.79,1.53-1.79,1.05,0,1.48,.73,1.5,1.68,.02,1.01-.38,1.79-1.52,1.8-1.06,0-1.44-.72-1.51-1.68h0Z"/><path class="cls-26" d="M175.85,82.01c-.07,1.08-.4,1.89-1.55,1.88-1.05,0-1.48-.71-1.49-1.67,0-1.02,.38-1.79,1.51-1.8,1.07-.01,1.39,.77,1.53,1.59h0Z"/><path class="cls-26" d="M171.95,94.01c-.07,1.08-.4,1.89-1.55,1.88-1.05,0-1.48-.71-1.49-1.67,0-1.02,.38-1.79,1.51-1.8,1.07-.01,1.39,.77,1.53,1.59h0Z"/><path class="cls-25" d="M35.57,64.76c-.08,.94-.41,1.71-1.47,1.73-1.14,.03-1.57-.71-1.57-1.74,0-.95,.4-1.7,1.44-1.73,1.14-.04,1.51,.75,1.6,1.74Z"/><path class="cls-46" d="M177.09,11.16c6.88-.05,12.96,1.08,18.75,3.63,2.44,1.08,4.68,2.47,6.36,4.6,2.54,3.21,2.36,6.59-.41,9.59-2.75,2.96-6.3,4.51-10.05,5.64-9.52,2.9-19.08,2.86-28.59-.02-3.59-1.09-7.02-2.57-9.72-5.35-3.26-3.36-3.34-7.22-.07-10.59,3.17-3.27,7.3-4.74,11.56-5.93,4.16-1.16,8.41-1.62,12.16-1.58h.01Z"/><path class="cls-46" d="M278.62,12.07c6.4-1.07,12.79-1.07,19.19,0,2.95,.72,5.89,1.47,8.68,2.71,1.97,.88,3.82,1.96,5.41,3.41,4.06,3.7,3.93,8.42-.28,11.97-2.56,2.16-5.54,3.54-8.69,4.49-9.8,2.97-19.64,3-29.43,0-3.97-1.22-7.78-2.87-10.39-6.36-2.12-2.83-2.1-5.72,.03-8.53,1.77-2.34,4.19-3.78,6.81-4.96,2.78-1.26,5.73-2,8.68-2.72h0Z"/><path class="cls-25" d="M12.47,18.75c-.06-.53-.08-1.08,.87-.97,.71,.08,1.37,.21,1.36,1.03-.01,.89-.73,1.03-1.48,1.1-.94,.09-.73-.54-.75-1.16Z"/><path class="cls-25" d="M49.06,21.24c-.08,.87-.28,1.76-1.38,1.75-1.08,0-1.39-.83-1.38-1.77,0-.95,.37-1.72,1.45-1.7,1.03,.02,1.25,.82,1.31,1.71h0Z"/><path class="cls-25" d="M33.13,20.82c-.38-.15-1.06,.26-1.1-.33-.04-.66,.56-1,1.21-.99,.6,.01,1.16,.33,1.08,.94-.1,.73-.81,.18-1.19,.37h0Z"/><path class="cls-25" d="M17.86,20.81c.15-.92,.57-1.27,1.23-1.3,.6-.02,1.13,.25,1.15,.88,.02,.73-.64,.34-.99,.4-.42,.07-.87,.02-1.39,.02Z"/><path class="cls-21" d="M52.03,20.81c.15-.92,.57-1.27,1.23-1.3,.6-.02,1.13,.25,1.15,.87,.02,.74-.64,.35-.99,.41-.42,.07-.87,.02-1.39,.02Z"/><path class="cls-20" d="M58.87,66.48h2.59c.29,0,.46,.15,.47,.45,0,.35-.24,.38-.49,.38-.95,0-1.9,.02-2.84,0-.31,0-.75,.2-.9-.27-.12-.39-.06-.77,.27-1.09,.72-.69,1.46-1.36,2.12-2.11,.49-.56,.96-1.25,.52-2.03-.42-.75-1.2-.55-1.89-.47-.29,.03-.67,.46-.83-.15-.13-.53,.35-.54,.64-.63,1.06-.3,2.12-.34,2.89,.59,.82,.99,.41,1.99-.28,2.86-.62,.78-1.34,1.47-2.27,2.46h0Z"/><path class="cls-41" d="M60.55,142.91c.6-.07,.94,.04,.91,.69-.04,.8,0,1.59,0,2.39,0,.3-.12,.77,.02,.87,1.24,.88-.09,1.67-.03,2.49,.02,.31-.16,.44-.45,.44-.26,0-.56-.05-.52-.36,.21-1.62-.98-1.09-1.74-1.11-1.67-.05-1.78-.2-.94-1.65,.6-1.03,1.21-2.06,1.83-3.07,.23-.37,.39-.87,.93-.68h-.01Z"/><path class="cls-41" d="M288.1,149.79c-.2,.02-.46-.08-.44-.27,.23-1.66-.98-1.19-1.8-1.21-1.58-.04-1.7-.21-.93-1.56,.59-1.04,1.25-2.03,1.81-3.09,.33-.62,.76-.88,1.43-.76,.79,.15,.41,.79,.44,1.21,.06,.79,0,1.59,.02,2.39,0,.33-.13,.73,.29,.92,.69,.33,1.04,.61-.02,.93-.46,.14-.25,.6-.27,.91-.02,.37-.14,.56-.54,.53h0Z"/><path class="cls-20" d="M286.07,66.47h2.31c.35,0,.75-.04,.72,.49-.03,.45-.4,.34-.67,.35-.9,.01-1.8,.02-2.69,0-.31,0-.75,.19-.87-.3-.1-.4-.02-.77,.31-1.08,.72-.68,1.46-1.36,2.11-2.11,.49-.56,.95-1.26,.48-2.03-.45-.73-1.21-.53-1.9-.43-.3,.04-.69,.42-.8-.19-.1-.53,.4-.52,.68-.6,1.06-.29,2.13-.32,2.88,.63,.8,1.01,.37,2-.32,2.86-.62,.77-1.34,1.46-2.23,2.43v-.02Z"/><path class="cls-41" d="M168.53,19.92c.54-.07,.86,.06,.83,.7-.04,.8,0,1.59,0,2.39,0,.3-.12,.77,.02,.87,1.26,.88-.09,1.67-.03,2.49,.02,.32-.17,.43-.46,.43-.26,0-.56-.05-.51-.37,.21-1.63-1-1.08-1.74-1.11-1.68-.06-1.78-.19-.93-1.65,.6-1.03,1.22-2.05,1.83-3.08,.23-.39,.44-.81,1-.68h-.01Z"/><path class="cls-38" d="M186.84,21.49c-.57-.29-.75,.68-1.26,.19-.21-.2-.27-.44-.02-.62,.59-.42,.97-1.17,1.83-1.15,.57,.02,.4,.46,.41,.76,0,1.79,0,3.58,0,5.36,0,.31,.13,.73-.43,.76-.65,.03-.53-.44-.53-.82v-4.48Z"/><path class="cls-31" d="M178.59,24.75l-1.89,.8c-.14-.08-.33-.09-.37-.29l1.89-.81c.14,.08,.33,.1,.37,.3Z"/><path class="cls-37" d="M179.73,23.84c.15-.54-.5-.13-.49-.56,.5-.13,1.08-.24,1.39,.39,.15,.32-.25,.45-.56,.47-.33,.15-.37-.03-.33-.3h0Z"/><path class="cls-30" d="M179.73,23.84l.33,.3c-.43,.35-.93,.52-1.47,.61l-.37-.3,1.5-.61h0Z"/><path class="cls-16" d="M176.13,21.86c-.64,.26-1.04-.12-1.44-.49,.6-.15,1.13-.1,1.42,.53l.02-.04Z"/><path class="cls-16" d="M176.13,21.86l-.02,.04c.61-.27,1.05,.11,1.52,.4-.06,.13-.16,.22-.29,.27-.46-.14-1.03-.09-1.2-.71h-.01Z"/><path class="cls-40" d="M176.33,25.26l.37,.29-1.12,.4c-.33,.16-.38-.02-.35-.29l1.1-.4Z"/><path class="cls-8" d="M177.33,22.58l.29-.27,.96,.41c-.58,.44-.88-.06-1.26-.14h0Z"/><path class="cls-48" d="M175.23,25.66l.35,.29-1.29,.59c.05-.81,.59-.72,.93-.88h0Z"/><path class="cls-8" d="M296.68,23.16c.33,.21,.52-.15,.79-.2,.97-.17,1.83,0,2.34,.91,.51,.92,.43,1.86-.34,2.62-.75,.74-1.68,.85-2.62,.37-1.14-.58-1.58-2.56-1.05-4.5,.4-1.48,1.36-2.22,2.82-2.15,.42,.02,1.07-.09,1.06,.52-.02,.77-.68,.31-1.05,.32-1.3,.05-1.7,.46-1.94,2.1h-.01Z"/><path class="cls-20" d="M277.39,26.27h2.4c.32,0,.62,.03,.63,.44,0,.46-.35,.39-.63,.39-.9,0-1.8,.02-2.69,0-.31-.01-.75,.21-.9-.26-.16-.46,0-.86,.36-1.2,.66-.61,1.34-1.2,1.93-1.88,.52-.6,1.09-1.31,.62-2.15-.45-.81-1.29-.59-2.02-.43-.28,.06-.57,.28-.7-.18-.12-.42,.21-.5,.49-.59,1.1-.36,2.2-.43,3.03,.53,.79,.91,.47,1.9-.18,2.73-.64,.82-1.39,1.56-2.33,2.59h0Z"/><path class="cls-28" d="M285.47,24.44c-.59-.1-.97-.38-.27-.78,.54-.31,1.15-.69,1.9-.59-.18,.75-1.12,.41-1.28,1.05,.05,.29,0,.46-.35,.32Z"/><path class="cls-13" d="M288.73,22.27c.6-.38,1.24-.65,1.93-.72l.15,.38-1.7,.64c-.15-.07-.33-.1-.38-.3h0Z"/><path class="cls-15" d="M285.47,24.44l.35-.32,1.9,.84c-.05,.2-.25,.22-.39,.29l-1.86-.81Z"/><path class="cls-4" d="M288.73,22.27l.38,.3c-.56,.2-1.07,.67-1.9,.45,.5-.5,1-.65,1.52-.75Z"/><path class="cls-22" d="M287.33,25.25l.39-.29c.54,.09,1.04,.27,1.48,.61-.05,.2-.23,.21-.37,.28l-1.5-.59h0Z"/><path class="cls-33" d="M288.83,25.84l.37-.28,1.1,.39c.03,.27-.01,.45-.35,.29l-1.13-.4h.01Z"/><path class="cls-16" d="M289.96,26.24l.35-.29c.35,.16,.88,.07,.95,.79-.51-.07-.93-.18-1.3-.5h0Z"/><path class="cls-27" d="M60.45,144.32c0,.78,0,1.56,0,2.33,0,.31,.15,.76-.4,.79-.44,.02-1,.13-1.3-.09-.41-.3,.11-.69,.27-1.01,.35-.71,.77-1.37,1.16-2.06l.27,.04Z"/><path class="cls-27" d="M287.64,144.33c0,.78,.01,1.56,0,2.33,0,.31,.14,.76-.4,.78-.44,.02-1.01,.12-1.3-.1-.4-.3,.12-.69,.28-1.01,.35-.71,.77-1.38,1.16-2.06l.27,.06h-.01Z"/><path class="cls-27" d="M168.35,21.34c0,.73,.03,1.46,0,2.18-.02,.34,.24,.87-.39,.93-.44,.04-1.04,.14-1.29-.09-.42-.38,.16-.77,.34-1.14,.32-.67,.72-1.29,1.09-1.93l.27,.04h-.01Z"/><path class="cls-42" d="M297.73,23.76c.89,.02,1.27,.46,1.28,1.21,0,.74-.32,1.25-1.12,1.28-.81,.02-1.18-.51-1.21-1.21-.04-.73,.38-1.19,1.06-1.28h-.01Z"/></g></g></svg>