<?xml version="1.0" encoding="UTF-8"?><svg id="Layer_2" xmlns="http://www.w3.org/2000/svg" viewBox="0 0 569.52 91.85"><defs><style>.cls-1{fill:#737171;}.cls-2{fill:#474445;}.cls-3{fill:#6e6c6d;}.cls-4{fill:#716f6f;}.cls-5{fill:#ddd;}.cls-6{fill:#cbcaca;}.cls-7{fill:#757373;}.cls-8{fill:#555152;}.cls-9{fill:#c7c6c6;}.cls-10{fill:#e5e4e4;}.cls-11{fill:#bab8b9;}.cls-12{fill:#f4f4f4;}.cls-13{fill:#454243;}.cls-14{fill:#242021;}.cls-15{fill:#2b2728;}.cls-16{fill:#f8b8de;}.cls-17{fill:#433f40;}.cls-18{fill:#6e6b6c;}.cls-19{fill:#6b6868;}.cls-20{fill:#cbcbcb;}.cls-21{fill:#f258b3;}.cls-22{fill:#bebdbd;}.cls-23{fill:#fafafa;}.cls-24{fill:#c2c1c2;}.cls-25{fill:#696667;}.cls-26{fill:#f153b1;}.cls-27{fill:#f9c0e2;}.cls-28{fill:#5e5a5b;}.cls-29{fill:#f6f6f6;}.cls-30{fill:#848282;}.cls-31{fill:#3e3b3c;}.cls-32{fill:#312e2e;}.cls-33{fill:#686566;}.cls-34{fill:#9f9d9e;}.cls-35{fill:#656263;}.cls-36{fill:#f8bce0;}.cls-37{fill:#535051;}.cls-38{fill:#f5f5f5;}.cls-39{fill:#fefbfd;}.cls-40{fill:#f8b2dc;}.cls-41{fill:#fbd8ec;}.cls-42{fill:#f155b2;}.cls-43{fill:#fefbfc;}.cls-44{fill:#878586;}.cls-45{fill:#cdcccd;}.cls-46{fill:#ee31a1;}.cls-47{fill:#bbbabb;}.cls-48{fill:#4497cd;}.cls-49{fill:#cccbcb;}.cls-50{fill:#2c2829;}.cls-51{fill:#282425;}.cls-52{fill:#605d5d;}.cls-53{fill:#fefafc;}.cls-54{fill:#bbb9b9;}.cls-55{fill:#636061;}.cls-56{fill:#2b2828;}.cls-57{fill:#d7d6d7;}.cls-58{fill:#656363;}.cls-59{fill:#fefcfd;}.cls-60{fill:#f693ce;}.cls-61{fill:#afaeaf;}.cls-62{fill:#3c3939;}.cls-63{fill:#f046ab;}.cls-64{fill:#b7b6b6;}.cls-65{fill:#a8a7a7;}.cls-66{fill:#4a4647;}.cls-67{fill:#747272;}.cls-68{fill:#fce6f3;}.cls-69{fill:#bedaed;}.cls-70{fill:#6b6869;}.cls-71{fill:#dedddd;}.cls-72{fill:#676465;}.cls-73{fill:#413d3e;}.cls-74{fill:#dedede;}.cls-75{fill:#bbb9ba;}.cls-76{fill:#c4c3c3;}.cls-77{fill:#fef9fc;}.cls-78{fill:#4a4748;}.cls-79{fill:#fbd9ed;}.cls-80{fill:#f8b2db;}.cls-81{fill:#f15bb4;}.cls-82{fill:#3a3738;}.cls-83{fill:#bab9b9;}.cls-84{fill:#6f6c6d;}.cls-85{fill:#f9c2e3;}.cls-86{fill:#2a2627;}.cls-87{fill:#b0afaf;}.cls-88{fill:#b6b4b5;}.cls-89{fill:#726f70;}.cls-90{fill:#706e6f;}.cls-91{fill:#504d4d;}.cls-92{fill:#f9bde1;}.cls-93{fill:#b1d3ea;}.cls-94{fill:#b8b7b7;}.cls-95{fill:#575454;}.cls-96{fill:#262323;}.cls-97{fill:#cdcccc;}.cls-98{fill:#f044aa;}.cls-99{fill:#f8b0db;}.cls-100{fill:#545151;}.cls-101{fill:#343132;}.cls-102{fill:#555253;}.cls-103{fill:#9a9899;}.cls-104{fill:#bbd9ec;}.cls-105{fill:#423f3f;}.cls-106{fill:#3f3c3d;}.cls-107{fill:#f25fb6;}.cls-108{fill:#fef8fb;}.cls-109{fill:#f6f5f5;}.cls-110{fill:#b3b2b2;}.cls-111{fill:#464243;}.cls-112{fill:#f36fbe;}.cls-113{fill:#fcfbfc;}.cls-114{fill:#fbfbfb;}.cls-115{fill:#c6c5c6;}.cls-116{fill:#737071;}.cls-117{fill:#2e2b2b;}.cls-118{fill:#312e2f;}.cls-119{fill:#262223;}.cls-120{fill:#f2f1f1;}.cls-121{fill:#bdbcbc;}.cls-122{fill:#f9c6e4;}.cls-123{fill:#595657;}.cls-124{fill:#aaa9aa;}.cls-125{fill:#b6b4b4;}.cls-126{fill:#c9c8c9;}.cls-127{fill:#787576;}.cls-128{fill:#c2c1c1;}.cls-129{fill:#4e4b4b;}.cls-130{fill:#6b6969;}.cls-131{fill:#6b696a;}.cls-132{fill:#f04cae;}.cls-133{fill:#bab9ba;}.cls-134{fill:#868384;}.cls-135{fill:#d5d4d5;}.cls-136{fill:#c1bfc0;}.cls-137{fill:#6e6c6c;}.cls-138{fill:#292526;}.cls-139{fill:#eb008c;}.cls-140{fill:#4f4b4c;}.cls-141{fill:#f7f7f7;}.cls-142{fill:#c3c2c2;}.cls-143{fill:#b0aeaf;}.cls-144{fill:#292627;}.cls-145{fill:#c3c1c2;}.cls-146{fill:#b4b2b2;}.cls-147{fill:#cecdce;}.cls-148{fill:#787676;}.cls-149{fill:#605d5e;}.cls-150{fill:#252122;}.cls-151{fill:#d6d5d5;}.cls-152{fill:#302c2d;}.cls-153{fill:#fcfbfb;}.cls-154{fill:#3d3a3b;}.cls-155{fill:#545051;}.cls-156{fill:#444142;}.cls-157{fill:#bcbaba;}.cls-158{fill:#272324;}.cls-159{fill:#f8b4dc;}.cls-160{fill:#d9d9d9;}.cls-161{fill:#f049ac;}.cls-162{fill:#d9d8d8;}.cls-163{fill:#393637;}.cls-164{fill:#343031;}.cls-165{fill:#0072bb;}.cls-166{fill:#9a9898;}.cls-167{fill:#cac9c9;}.cls-168{fill:#b7b6b7;}.cls-169{fill:#5f5c5d;}.cls-170{fill:#c1c0c0;}.cls-171{fill:#2e2b2c;}.cls-172{fill:#f8b1db;}.cls-173{fill:#484445;}.cls-174{fill:#f2f2f2;}.cls-175{fill:#abaaaa;}.cls-176{fill:#817f80;}.cls-177{fill:#eb018c;}.cls-178{fill:#c0bfbf;}.cls-179{fill:#484545;}.cls-180{fill:#f9bfe2;}.cls-181{fill:#fcfdfe;}.cls-182{fill:#2d292a;}.cls-183{fill:#706d6e;}.cls-184{fill:#fcfcfc;}.cls-185{fill:#f2f1f2;}</style></defs><g id="Layer_1-2"><g><path class="cls-165" d="M7.96,24.21c-3.18-1.54-5.57-3.82-6.89-7.14-1.14-2.89-1.14-5.77,0-8.66,1.39-3.39,3.79-5.78,7.17-7.2C11.24-.05,14.24,.01,17.23,1.25c2.87,1.32,5.14,3.28,6.55,6.16,.2,.4,.42,.78,.39,1.25,1.16,3.79,.77,7.4-1.22,10.83-1.37,2.22-3.41,3.65-5.71,4.76-3.1,1.3-6.19,1.17-9.28-.03Z"/><path class="cls-139" d="M355.12,81.69c2.93,2.19,3.43,3.97,2.08,7.42-.35,.65-.86,1.15-1.5,1.51-2.49,1.19-5.06,1.37-7.7,.58-1.98-.59-3.29-1.88-3.68-3.91-.41-2.11,.33-3.84,2.19-4.97,.94-.57,.97-.9,.03-1.51-1.7-1.1-2.2-2.76-1.83-4.69,.35-1.84,1.55-2.9,3.3-3.47,2.13-.71,4.24-.57,6.3,.15,3.11,1.08,3.88,3.93,1.98,7.02-.15,.46-.53,.68-.91,.92-.34,.21-.66,.51-.26,.96Z"/><path class="cls-139" d="M438.15,90.62c-2.49,1.19-5.06,1.37-7.7,.58-1.98-.59-3.29-1.88-3.68-3.91-.41-2.11,.33-3.84,2.19-4.97,.94-.57,.97-.9,.03-1.51-1.7-1.1-2.2-2.76-1.83-4.69,.35-1.84,1.55-2.9,3.3-3.47,2.13-.71,4.24-.57,6.3,.15,3.11,1.08,3.88,3.93,1.98,7.02-.15,.46-.53,.68-.91,.92-.34,.21-.66,.51-.26,.96,2.93,2.19,3.43,3.97,2.08,7.42-.35,.65-.86,1.15-1.5,1.51Z"/><path class="cls-139" d="M158.18,83.12c2.4,3.81,.46,7.88-4.07,8.44-1.58,.2-3.17,.16-4.74-.34-2.03-.64-3.36-1.91-3.74-4.02-.38-2.08,.42-3.73,2.17-4.86,.87-.56,1.2-.82,.09-1.54-1.67-1.07-2.25-2.7-1.85-4.67,.37-1.86,1.56-2.89,3.3-3.48,2.13-.72,4.24-.56,6.31,.14,3.22,1.09,4.09,4.72,1.76,7.21-.24,.25-.51,.48-.76,.71-.62,.44-.42,.83,.11,1.12,.59,.32,1.01,.79,1.43,1.28Z"/><path class="cls-177" d="M261.56,90.67c-1.89-.99-2.59-2.63-2.57-4.68,.02-2.2,1.67-3.25,3.28-4.45-1.77-1.13-3.02-2.42-2.9-4.61,.11-1.89,.94-3.25,2.64-3.99,2.51-1.1,5.08-1.04,7.54,.11,3.06,1.44,3.48,5.19,.84,7.33-.9,.73-1.23,1,0,1.78,3.18,2.04,3.06,6.12-.13,8.47-2.89,1.43-5.8,1.39-8.71,.04Z"/><path class="cls-139" d="M76.91,82.85c2.58,2.97,1.39,7.2-2.36,8.36-2.17,.67-4.34,.61-6.47-.1-1.84-.61-3.04-1.9-3.4-3.82-.38-2,.31-3.61,1.96-4.82,.39-.29,.93-.42,1.14-1.02-1.83-1.12-3.1-2.58-2.78-4.95,.23-1.75,1.19-2.98,2.75-3.63,2.41-.99,4.88-.9,7.29,.1,1.53,.63,2.56,1.74,2.68,3.47,.14,1.92-.65,3.37-2.31,4.35-.26,.24-.78,.39-.27,.87h0c.7,.25,1.18,.83,1.79,1.21Z"/><path class="cls-139" d="M537.75,83.12c2.4,3.81,.45,7.88-4.08,8.44-1.58,.19-3.18,.15-4.74-.34-2.03-.64-3.36-1.92-3.73-4.03-.37-2.09,.43-3.74,2.19-4.85,.92-.59,1.11-.85,.06-1.54-1.85-1.21-2.29-3.03-1.74-5.12,.43-.44,.4-1.14,.88-1.55,2.15-2.66,8.1-2.39,10.42-.25,1.97,1.81,1.64,4.54-.8,6.86-.62,.44-.42,.83,.11,1.12,.59,.32,1.01,.79,1.43,1.28Z"/><path class="cls-177" d="M173.21,80.74c1.88,2.48,1.74,6.65-.32,9.01-1.78,2.05-5.66,2.56-8.31,1.11-1.3-.71-2.11-1.83-2.53-3.2-1.13-3.63-1.1-7.29,.26-10.83,1.79-4.64,6.55-5.37,10.54-4.08,1.32,.43,.24,1.43,.28,2.17,.04,.72-.37,.96-1.06,.79-1.26-.29-2.51-.58-3.83-.17-2.03,.63-3.2,2.29-3.05,4.68,1.9-1.6,3.96-1.88,6.16-.92,.7,.38,1.37,.8,1.86,1.44Z"/><path class="cls-177" d="M60.77,80.74c1.88,2.48,1.74,6.65-.32,9.01-1.78,2.05-5.66,2.56-8.31,1.11-1.3-.71-2.11-1.83-2.53-3.2-1.13-3.63-1.1-7.29,.26-10.83,1.79-4.64,6.55-5.37,10.54-4.08,1.32,.43,.24,1.43,.28,2.17,.04,.72-.37,.96-1.06,.79-1.26-.29-2.51-.58-3.83-.17-2.03,.63-3.2,2.29-3.05,4.68,1.9-1.6,3.96-1.88,6.16-.92,.7,.38,1.37,.8,1.86,1.44Z"/><path class="cls-177" d="M470.33,80.74c1.88,2.48,1.74,6.65-.32,9.01-1.78,2.05-5.66,2.56-8.31,1.11-1.3-.71-2.11-1.83-2.53-3.2-1.13-3.63-1.1-7.29,.26-10.83,1.79-4.64,6.55-5.37,10.54-4.08,1.32,.43,.24,1.43,.28,2.17,.04,.72-.37,.96-1.06,.79-1.26-.29-2.51-.58-3.83-.17-2.03,.63-3.2,2.29-3.05,4.68,1.9-1.6,3.96-1.88,6.16-.92,.7,.38,1.37,.8,1.86,1.44Z"/><path class="cls-177" d="M231.93,91.18c-2.2-1.36-3.21-3.39-3.48-5.92-.28-2.65-.24-5.25,.57-7.81,1-3.17,3.54-5.11,6.85-5.25,.45-.02,.89-.05,1.34-.07,.62,.23,1.27,.09,1.91,.23,1.43,.32,1.52,.42,1.3,2.02-.14,1.05-.42,1.86-1.77,1.46-.42-.12-.87-.15-1.32-.16-3.42-.09-4.25,.53-5.02,3.86-.03,.17-.18,.49-.08,.49,.32,.01,.34-.4,.57-.56,2.62-1.78,5.36-.8,7.09,.56,1.6,1.26,2.21,4.97,1.48,7.25-1.37,4.31-5,5.23-9.44,3.9Z"/><path class="cls-177" d="M543.1,89.46c-1.16-1.41-1.43-3.12-1.63-4.86-.29-2.55-.09-5.07,.77-7.48,1.37-3.85,5.14-5.68,9.46-4.71,.44,.1,.87,.19,1.31,.29,.76,.99,.55,2.38-.48,3.14-1.62-.63-3.25-.98-4.91-.15l-.62,.53c-.45,.33-.73,.79-1.03,1.24-.37,.56-.69,1.27-.31,1.78,.41,.55,.96-.15,1.42-.31,2.84-.96,5.46-.02,6.8,2.51,.89,2.65,.87,5.23-.54,7.72-2.1,2.73-5.76,3.33-9.02,1.48-.48-.32-.86-.74-1.22-1.19Z"/><path class="cls-177" d="M334.75,75.7l-.62,.53c-.45,.33-.73,.79-1.03,1.24-.37,.56-.69,1.27-.31,1.78,.41,.55,.96-.15,1.42-.31,2.84-.96,5.46-.02,6.8,2.51,.89,2.65,.87,5.23-.54,7.72-2.1,2.73-5.76,3.33-9.02,1.48-.48-.32-.86-.74-1.22-1.19-1.16-1.41-1.43-3.12-1.63-4.86-.29-2.55-.09-5.07,.77-7.48,1.37-3.85,5.14-5.68,9.46-4.71,.44,.1,.87,.19,1.31,.29,.76,.99,.55,2.38-.48,3.14-1.62-.63-3.25-.98-4.91-.15Z"/><path class="cls-177" d="M141.65,83.18c2.11,3.97,.21,7.54-4.53,8.32-2.01,.33-4.06,.21-6.09-.21-1.95-.4-.96-1.8-.95-2.73,.02-1.2,.94-.41,1.46-.37,.89,.07,1.77,.33,2.65,.36,1.49,.06,2.87-.29,3.86-1.54,.71-1.64,.01-2.94-1.72-3.48-1.3-.41-2.66,.05-3.94-.42-.02-.2-.06-.39-.07-.59-.08-2.28-.08-2.29,2.24-2.39,.81-.03,1.56-.25,2.31-.53,1.64-1.06,1.8-1.67,.92-3.36-1.78-1.51-3.74-.78-5.68-.51-.47,.07-1.24,.98-1.42-.06-.16-.89-.82-2.27,.59-2.73,2.79-.9,5.67-1.25,8.44,.05,3.49,1.63,3.65,5.58,.4,8.01-.35,.3-.74,.58,0,.88,.65,.26,1.18,.66,1.52,1.29Z"/><path class="cls-177" d="M370.43,90.35c-3.11,1.76-6.41,1.58-9.7,.79-1.47-.36-.4-1.68-.49-2.55-.09-.9,.62-.62,1.15-.5,1.7,.38,3.4,.77,5.13,.15,2.24-.87,2.72-1.82,1.81-3.59-1.07-1.42-2.64-1.42-4.19-1.46-1.63-.04-2.23-.92-1.71-2.47,.22-.65,.73-.59,1.22-.58,1.16,.03,2.29-.13,3.38-.51,.92-.33,1.57-.95,1.57-1.96,0-1.03-.57-1.72-1.61-2.08-1.77-.6-3.47-.22-5.12,.33-.96,.32-1.09,.05-1.13-.79-.12-2.06-.14-2.03,1.94-2.53,2.91-.7,5.72-.65,8.35,.97,2.46,1.93,2.03,6.01-.33,7.16l-1.35,.76c1.69,.76,2.9,1.74,3.23,3.5,.26,1.38-.03,2.63-.65,3.84-.4,.6-.91,1.08-1.49,1.5Z"/><path class="cls-177" d="M453.15,80.75l-1.35,.76c1.69,.76,2.9,1.74,3.23,3.5,.26,1.38-.03,2.63-.65,3.84-.4,.6-.91,1.08-1.49,1.5-3.11,1.76-6.41,1.58-9.7,.79-1.47-.36-.4-1.68-.49-2.55-.09-.9,.62-.62,1.15-.5,1.7,.38,3.4,.77,5.13,.15,2.24-.87,2.72-1.82,1.81-3.59-1.07-1.42-2.64-1.42-4.19-1.46-1.63-.04-2.23-.92-1.71-2.47,.22-.65,.73-.59,1.22-.58,1.16,.03,2.29-.13,3.38-.51,.92-.33,1.57-.95,1.57-1.96,0-1.03-.57-1.72-1.61-2.08-1.77-.6-3.47-.22-5.12,.33-.96,.32-1.09,.05-1.13-.79-.12-2.06-.14-2.03,1.94-2.53,2.91-.7,5.72-.65,8.35,.97,2.46,1.93,2.03,6.01-.33,7.16Z"/><path class="cls-177" d="M246.32,83.11c-.02-.15-.05-.29-.06-.44-.1-2.42-.1-2.43,2.25-2.53,.92-.04,1.78-.28,2.6-.63,.79-.34,1.27-.98,1.23-1.88-.05-.91-.49-1.58-1.38-1.94-1.63-.67-3.23-.23-4.85,.04-.49,.08-1.27,.95-1.47,.01-.19-.88-.8-2.09,.51-2.79,.17-.09,.37-.15,.55-.23,2.49-.67,4.99-.74,7.48,0h0c3.83,1.09,4.4,6.25,1.22,8.06h0c-.63,.38-1.3,.77-.07,1.25,.57,.22,.95,.65,1.25,1.15,2.14,4.01,.13,7.66-4.67,8.34-1.97,.28-3.96,.18-5.94-.23-1.94-.4-.96-1.8-.95-2.73,.01-1.2,.94-.41,1.45-.37,.89,.07,1.77,.33,2.65,.37,1.49,.06,2.87-.28,3.86-1.54,.71-1.64,.01-2.94-1.72-3.48-1.3-.41-2.66,.05-3.94-.42Z"/><path class="cls-177" d="M35.83,75.7c-.52-.02-1.15,.79-1.45,.25-.44-.78-.47-1.77-.08-2.68,2.57-.86,5.16-1.52,7.87-.6,3.7,.77,4.93,4.23,2.65,7.49-.5,.45-1.01,.89-1.73,1.3,1.02,.82,2.3,1.28,2.62,2.63,1.15,3.9-.68,6.68-5.01,7.41-2.12,.36-4.27,.24-6.39-.27-.49-.12-.87-.29-.83-.85,.06-.83-.07-1.71,.4-2.45,.05-.08,.53,.1,.81,.16,1.81,.4,3.61,.82,5.44,.08,1.07-.43,2.02-1,1.96-2.32-.06-1.24-.82-1.94-1.98-2.33-1.07-.37-2.17-.34-3.26-.31-1.25,.03-.99-.83-1-1.54-.01-.73-.19-1.58,1.03-1.52,1.52,.07,2.98-.15,4.34-.88,1.2-1.36,1.2-1.89,0-3.28l-.33-.24c-1.68-.85-3.37-.62-5.06-.05Z"/><path class="cls-177" d="M569.19,84.09c1.15,3.9-.68,6.68-5.01,7.41-2.12,.36-4.27,.24-6.39-.27-.49-.12-.87-.29-.83-.85,.06-.83-.07-1.71,.4-2.45,.05-.08,.53,.1,.81,.16,1.81,.4,3.61,.82,5.44,.08,1.07-.43,2.02-1,1.96-2.32-.06-1.24-.82-1.94-1.98-2.33-1.07-.37-2.17-.34-3.26-.31-1.25,.03-.99-.83-1-1.54-.01-.73-.19-1.58,1.03-1.52,1.52,.07,2.98-.15,4.34-.88,1.2-1.36,1.2-1.89,0-3.28l-.33-.24c-1.68-.85-3.37-.62-5.06-.05-.52-.02-1.15,.79-1.45,.25-.44-.78-.47-1.77-.08-2.68,2.57-.86,5.16-1.52,7.87-.6,3.7,.77,4.93,4.23,2.65,7.49-.5,.45-1.01,.89-1.73,1.3,1.02,.82,2.3,1.28,2.62,2.63Z"/><path class="cls-14" d="M41.51,11.08c-.63,2.46-1.24,4.91-1.89,7.36-.21,.8-.1,1.82-1.49,1.8-1.19-.01-1.83-.2-2.2-1.54-1.12-4.11-2.46-8.17-3.72-12.24,1.57-.57,2.37-.16,2.72,1.45,.46,2.08,1.16,4.11,1.75,6.17,.57,.96,.38,2.13,1.01,3.03,.53-.53,.27-1.51,.85-2.13l1.48-5.68c.26-.88,.23-1.83,.63-2.68,2.08-.95,3.02-.56,3.55,1.48,.37,.53,.49,1.13,.46,1.76,.09,.83,.47,1.6,.54,2.44,.33,1.05,.29,2.2,.88,3.17,.12,.52,.2,1.07,.71,1.54,.39-.48,.4-1.12,.72-1.59,.41-1.77,.9-3.52,1.5-5.24,.29-1,.61-1.99,.85-3,.19-.79,.63-.98,1.4-.96,.73,.02,1.04,.22,.8,.96-.81,2.5-1.61,5-2.42,7.49-.42,.64-.37,1.41-.6,2.1h0c-.53,.82-.47,1.84-.9,2.7-.38,1.34-1.47,.55-2.22,.69-.65,.12-.73-.46-.84-.97-.15-.72-.37-1.42-.57-2.14-.59-1.45-.81-3-1.19-4.51-.19-.76-.35-1.52-.67-2.24-.11-.26-.07-.56-.19-.81-.63-.54-.7,.03-.8,.43-.1,.37,.12,.79-.17,1.14Z"/><path class="cls-14" d="M560.52,18.58c-2.07,2-5.89,2.21-8.09,.44-1.53-1.23-1.85-2.98-.92-4.95,.42-.56,.86-1.08,1.5-1.43,.31-.17,.75-.45,.27-.91l-1.15-.95c-.76-1.1-1.29-2.23-.58-3.56,1.06-2.63,5.88-3.36,8.39-1.28,1.39,1.16,1.53,3.09,.31,4.53-.44,.52-.99,.95-1.56,1.49,.61,.54,1.41,.8,1.83,1.48,1.12,1.71,1.17,3.43-.01,5.13Z"/><path class="cls-119" d="M355.7,21.52c.04-.19,.08-.39,.13-.58,.12-.53,.48-1.18,.07-1.56-.5-.46-.95,.27-1.41,.46-2.53,1.05-4.98,.04-5.95-2.53-1.48-3.91,1.05-7.86,4.84-7.55,.45,.04,.87,.16,1.29,.34,.62,.27,1.23,1.34,1.96-.06,.19-.37,1.36-.18,1.35,.75-.03,3.63,.32,7.27-.26,10.88-.2,1.24-1.08,2.1-2.29,2.55-1.85,.7-3.7,.6-5.57,.05-.79-.23-.9-.68-.72-1.35,.23-.84,.76-.38,1.18-.25,1.4,.45,2.8,.75,4.22,.06,.51-.3,.94-.67,1.18-1.22Z"/><path class="cls-150" d="M494.54,5.41c.26,1.27-.08,1.67-1.48,1.38-3.38-.7-5.53,1.27-5.41,4.88,1.03-.35,1.93-.97,3.07-.96,2.72,.04,4.49,1.65,4.67,4.38,.17,2.59-1.55,4.74-4.05,5.07-3.04,.4-5.04-1.1-5.73-4.13-.61-2.67-.36-5.24,.59-7.76,.49-1.29,1.3-2.34,2.63-2.9,1.91-.58,3.81-.64,5.72,.02Z"/><path class="cls-119" d="M164.88,37.37c.18-.62,.42-1.24,1.26-1.02,.82,.21,.69,.87,.69,1.45,0,2.44-.08,4.89,.02,7.32,.23,5.26-3.45,6.17-7.31,5.5-.44-.08-.88-.2-1.28-.39-.61-.29-.4-.83-.29-1.31,.15-.64,.54-.33,.92-.23,.96,.27,1.89,.65,2.92,.57,1.5-.12,2.67-1.07,2.97-2.5,.07-.33,.23-.72-.06-.99-.36-.34-.61,.08-.9,.22-1.99,.99-3.93,.83-5.3-.43-1.49-1.36-1.95-4.15-1.06-6.41,.8-2.03,2.25-3.04,4.33-3.01,1.24,.02,1.4,.08,3.1,1.22Z"/><path class="cls-158" d="M540.39,18.94c-1.68,1.21-3.34,1.74-5.18,.9-2.42-1.11-3.43-4.9-2.08-7.73,1.09-2.28,3.71-3.08,6.26-1.74,1.01,.53,1.07,.19,1.06-.66-.02-1.29,.02-2.59-.01-3.88-.02-.72,.16-1.12,1-1.09,.72,.03,.95,.33,.95,1-.01,4.38,0,8.76,0,13.14,0,.51-.05,1-.71,1.13-.82,.17-1.15-.33-1.29-1.08Z"/><path class="cls-96" d="M519.7,43.68c-1.53,3.25-4.24,3.89-7.39,1.68-.18,.77-.58,1.26-1.45,1.05-.87-.2-.64-.9-.64-1.45-.01-4.18,0-8.36-.02-12.54,0-.71,.02-1.24,.99-1.26,.99-.02,1,.52,.99,1.23-.02,1.62,0,3.24,0,4.96,3.59-2,5.92-1.47,7.52,1.58,.72,1.58,.71,3.17,0,4.76Z"/><path class="cls-158" d="M143.16,36.22c1.17-.2,2.3-.08,3.29,.6,.77,.53,.94,.18,.94-.55,0-1.29,.01-2.59,0-3.88,0-.7,0-1.28,.99-1.24,.85,.03,.96,.47,.95,1.16-.01,4.28,0,8.55-.01,12.83,0,.49,.08,1.07-.57,1.22-.47,.11-1.02,.24-1.23-.45-.15-.5-.46-.44-.78-.19-1.05,.83-2.26,.96-3.53,.91-1.21-.12-2.11-.73-2.74-1.75-1.67-3.25-1.23-6.25,1.18-8.08,.49-.25,1.08-.22,1.52-.58Z"/><path class="cls-119" d="M266.52,11.03c2.88-1.83,5.45-1.62,6.92,.4,1.61,2.2,1.25,6.11-.72,7.83-1.39,1.21-3.49,1.31-5.28,.22-.42-.26-.75-.76-1.04,.13-.21,.65-.82,.42-1.29,.36-.51-.07-.55-.51-.55-.92,0-4.48,0-8.95-.01-13.43,0-.8,.46-.83,1.06-.87,.76-.05,.93,.3,.92,.97-.03,1.68,0,3.36,0,5.31Z"/><path class="cls-150" d="M170.12,17.96q-.91,2.52-2.96,2.06c-.44-1.6-.78-3.23-1.51-4.74-.47-1.02-.47-2.23-1.34-3.3-.76,2.52-1.53,4.89-2.16,7.29-.22,.85-.68,.94-1.39,.96-.72,.03-1.21-.08-1.45-.88-.74-2.47-1.55-4.92-2.33-7.37-.23-.33-.36-.71-.42-1.08-.07-.44-.3-1.11,.48-1.11,.56,0,1.47-.51,1.58,.69,.04,.43,.27,.83,.42,1.24,.2,.79,.41,1.58,.61,2.37,.59,.88,.39,2.04,1.05,2.89,.1,.13,.22,.23,.39,.1,.31-.4,.37-.89,.53-1.34,.03-.13,.06-.26,.11-.39,.21-.87,.57-1.71,.68-2.61,.15-.56,.18-1.16,.55-1.65,.18-.92,.59-1.42,1.68-1.39,1.08,.03,1.27,.64,1.47,1.46,.3,1.18,.7,2.34,1.05,3.52,.37,.44,.33,1.03,.55,1.51,.15,.32,.05,1.18,.9,.76,.76-1.49,1.23-3.07,1.5-4.72,.16-.62,.3-1.24,.48-1.85,.26-.92,1.04-.69,1.6-.56,.71,.17,.22,.71,.12,1.09-.21,.76-.45,1.51-.68,2.26-.36,1.65-.88,3.24-1.51,4.8Z"/><path class="cls-150" d="M469.66,6.03c1.87,2.76,1.51,4.23-1.58,6.41,.68,.47,1.44,.84,2,1.4,1.51,1.51,.77,4.71-1.33,5.65-2.17,.97-4.44,.94-6.73,.32-.96-.26-.79-.92-.66-1.52,.17-.77,.73-.41,1.19-.27,1.22,.37,2.46,.43,3.7,.18,1.2-.25,2.19-.86,2.23-2.23,.04-1.31-.71-2.09-1.95-2.48-.78-.25-1.57-.22-2.37-.24-.51-.02-.87-.15-.84-.76,.02-.54,.1-1,.76-1.06,.69-.06,1.41-.05,2.08-.22,1.24-.3,2.23-.9,2.16-2.41-.06-1.24-.92-2.01-2.42-2.14-.85-.07-1.69,.05-2.53,.2-.49,.09-1.12,.89-1.43-.16-.22-.74-.08-1.39,.84-1.57,2.44-.83,4.77-.74,6.88,.91Z"/><path class="cls-51" d="M123.61,37.53c1-.65,1.66-1.2,2.52-1.35,2.56-.42,4.33,.8,4.59,3.41,.2,2.02,.09,4.07,.14,6.11,.02,.74-.35,.92-1.02,.93-.72,.01-.96-.31-.95-.99,.01-1.69,.03-3.38-.05-5.07-.07-1.33-.32-2.65-2.01-2.86-1.35-.17-2.45,.73-2.96,2.41-.52,1.7-.18,3.46-.25,5.19-.03,.71,.1,1.38-1.02,1.34-1-.03-.96-.6-.96-1.28,0-4.33,.01-8.66,0-12.98,0-.73,.06-1.22,1.01-1.24,1.01-.02,.98,.56,.97,1.25-.02,1.63,0,3.25,0,5.14Z"/><path class="cls-158" d="M176.58,11.18c1.3-1.06,2.44-1.57,3.83-1.44,1.76,.17,2.86,1.1,3.19,2.82,.44,2.27,.16,4.57,.24,6.86,.02,.72-.45,.78-.98,.8-.55,.01-.99-.07-.98-.78,.02-1.29,.02-2.59,0-3.88-.01-.69-.05-1.39-.14-2.08-.14-1.14-.64-2.03-1.9-2.14-1.27-.11-2.22,.48-2.74,1.65-.35,.78-.51,1.61-.51,2.47,0,1.24-.04,2.49,0,3.73,.03,.75-.18,1.08-1,1.05-.79-.02-1.01-.32-1-1.08,.03-4.43,.03-8.86,0-13.29,0-.85,.27-1.11,1.11-1.13,.95-.02,.89,.54,.88,1.16,0,1.68,0,3.35,0,5.29Z"/><path class="cls-119" d="M451.22,37.49c.93-.55,1.54-1.08,2.33-1.27,2.52-.58,4.52,.76,4.74,3.34,.17,2.03,.1,4.07,.16,6.11,.02,.72-.3,.95-.99,.96-.73,.02-.97-.28-.96-.97,.02-1.64,.05-3.28-.03-4.92-.09-1.96-.76-2.9-2.01-3.04-1.44-.16-2.64,.84-3.06,2.66-.38,1.66-.14,3.37-.18,5.06-.01,.7,.02,1.25-.98,1.23-.95-.02-1.02-.48-1.01-1.22,.02-4.38,.03-8.75,0-13.13,0-.82,.23-1.14,1.09-1.15,.92-.01,.91,.51,.91,1.15-.01,1.67,0,3.34,0,5.18Z"/><path class="cls-119" d="M209.65,20.22c-3.93,0-5.79-1.99-5.64-5.68,.13-3.1,2.38-5.08,5.43-4.79,2.38,.23,4.41,3.02,3.9,5.32-.16,.73-.7,.6-1.17,.6-1.7,.02-3.39,.04-5.09,0-1.1-.02-1.18,.4-.71,1.25,.87,1.59,2.46,2,5.14,1.3,.3-.08,.78-.59,.96,.09,.13,.49,.3,1.12-.41,1.4-.37,.15-.75,.29-1.14,.36-.54,.09-1.09,.11-1.29,.13Z"/><path class="cls-119" d="M91.29,18.57c-.63-2.74,.52-4.28,3.59-4.73,.49-.07,1-.02,1.49-.07,.46-.04,1.13,.26,1.3-.37,.18-.65-.11-1.28-.73-1.66-1.08-.66-2.17-.49-3.3-.12-.42,.14-1.07,.76-1.37-.05-.29-.78,.32-1.1,.99-1.37,1.1-.44,2.22-.56,3.37-.41,1.88,.25,2.94,1.33,3.04,3.27,.11,2.08,.07,4.17,.1,6.26,0,.35,.07,.76-.4,.83-.45,.06-1.05,.33-1.28-.34-.25-.75-.51-.35-.81-.07-1.22,.67-2.45,1.3-3.88,.59l-.62-.26c-.57-.43-1.09-.92-1.5-1.51Z"/><path class="cls-119" d="M145.1,15.69c-.8,0-1.6-.02-2.4,0-.37,.01-.88-.19-1.06,.3-.15,.4,.14,.76,.35,1.1,.9,1.44,2.5,1.82,4.67,1.27,.39-.1,1.1-.98,1.4,.14,.23,.86-.28,1.21-1.06,1.45-2.32,.72-5.13,.2-6.38-1.39-1.5-1.92-1.45-4.08-.54-6.21,.88-2.08,3.47-3.14,5.67-2.45,1.92,.6,3.41,3.07,3.12,5.09-.09,.63-.47,.69-.94,.69-.95,0-1.9,0-2.85,0Z"/><path class="cls-158" d="M248.11,41.31c1.26-.96,2.72-1.12,4.24-1.12,.45,0,1.1,.25,1.24-.45,.11-.55-.09-1.09-.57-1.46-1.02-.79-2.11-.65-3.27-.35-.5,.13-1.24,1.01-1.58-.04-.29-.89,.57-1.1,1.23-1.36,1.31-.51,2.63-.54,3.94-.13,1.32,.41,2.12,1.36,2.19,2.72,.12,2.23,.1,4.47,.15,6.7,0,.38-.05,.73-.5,.77-.37,.03-.93,.23-1.08-.21-.36-1.02-.79-.33-1.19-.12-1.84,.99-4.11,.67-5.41-.78-.85-1.55-.65-2.94,.61-4.18Z"/><path class="cls-119" d="M426.43,42.15c-1.89-.02-3.78,0-5.67-.06-1.11-.03-1.18,.41-.72,1.24,.64,1.16,1.67,1.67,2.93,1.72,.53,.02,1.07-.23,1.61-.23,.54,0,1.22-.91,1.59,0,.47,1.14-.49,1.47-1.34,1.62-1.94,.34-3.87,.41-5.53-.96-.67-.69-1.07-1.55-1.48-2.4-.36-2.18-.25-4.26,1.55-5.86,2.01-1.78,6.46-1.72,7.42,2.28,.31,.94,.78,1.9-.35,2.65Z"/><path class="cls-119" d="M526.03,36.21c3.41-.23,5.08,1.22,5.4,4.64,.08,.87-.14,1.3-1.11,1.27-1.74-.05-3.49,.01-5.23-.02-1.05-.02-1.06,.42-.67,1.18,.84,1.62,2.58,2.09,5.11,1.4,.31-.08,.74-.61,1.01-.06,.16,.31,.09,.78,.04,1.16-.05,.36-.43,.36-.69,.47-2.42,.98-5.46,.33-6.84-1.45-1.41-1.81-1.27-4.97,.3-7.07,.74-.78,1.71-1.14,2.69-1.5Z"/><path class="cls-119" d="M373.12,36.21c3.41-.23,5.08,1.22,5.4,4.64,.08,.87-.14,1.3-1.11,1.27-1.74-.05-3.49,.01-5.23-.02-1.05-.02-1.06,.42-.67,1.18,.84,1.62,2.58,2.09,5.11,1.4,.31-.08,.74-.61,1.01-.06,.16,.31,.09,.78,.04,1.16-.05,.36-.43,.36-.69,.47-2.42,.98-5.46,.33-6.84-1.45-1.41-1.81-1.27-4.97,.3-7.07,.74-.78,1.71-1.14,2.69-1.5Z"/><path class="cls-119" d="M224.42,45.77l-.3-.29c-.79-.73-1.1-1.74-1.52-2.68-.36-3.42,.61-5.54,3.06-6.39,1.58-.55,3.17-.43,4.52,.68,1.36,1.12,1.52,2.74,1.65,4.33,.06,.73-.58,.68-1.08,.68-1.75,0-3.5,.03-5.24,0-1.03-.02-1.09,.39-.7,1.17,.79,1.6,2.56,2.08,5.11,1.42,.3-.08,.85-.74,1.06,.09,.14,.56,.26,1.23-.59,1.44-.43,.11-.86,.3-1.3,.35-.64,.08-1.3,.06-1.94,.08-.94-.18-1.94-.19-2.73-.87Z"/><path class="cls-119" d="M517.6,12.03c.34,2.42,.06,4.86,.22,7.28,.02,.34,.1,.76-.37,.84-.46,.08-1.1,.34-1.29-.29-.29-.97-.61-.19-.92-.09-1.7,1.05-3.4,.99-5.11,.03-1.92-2.31-1.21-4.77,1.61-5.65,.92-.29,1.84-.38,2.8-.36,.42,0,1,.21,1.17-.36,.16-.54-.02-1.1-.49-1.47-1.04-.85-2.18-.73-3.39-.37-.47,.14-1.17,.88-1.51-.02-.33-.88,.44-1.12,1.14-1.39,1.57-.6,3.11-.56,4.65,.07,.82,.34,1.12,1.1,1.5,1.8Z"/><path class="cls-119" d="M386.66,16.35c.04-.94-.03-1.9,.16-2.81,.63-3.15,3.66-4.56,6.96-3.31,1.85,1.05,2.11,2.86,2.28,4.71,.07,.72-.39,.78-.94,.78-1.64-.01-3.28-.01-4.93,0-1.52,0-1.52,.02-.87,1.49,1.36,1.49,3.05,1.27,4.76,.91,.5-.1,1.04-.46,1.42,.22,.26,1.08-.29,1.63-1.28,1.75-1.49,.19-3,.28-4.46-.02-1.96-.41-2.85-1.84-3.1-3.73Z"/><path class="cls-119" d="M295.13,46.63c-4.09-.06-6.24-1.93-6.19-5.39,.03-2.36,1.32-4.16,3.47-4.85,2.36-.76,5.03,0,6.33,1.8,1.37,1.9,1.34,4.55-.07,6.41-.24,.31-.53,.59-.8,.88-.78,.71-1.73,.99-2.74,1.16Z"/><path class="cls-119" d="M74.19,16.48c-.2-1.7-.27-3.37,.88-4.82,.52-.61,1.01-1.24,1.83-1.47,4.14-1.54,6.37,1.02,6.53,4.71,.04,.85-.59,.78-1.13,.78-1.69,.01-3.39,.04-5.08,0-1.23-.04-1.24,.47-.73,1.33,.87,1.51,2.48,1.89,5.04,1.25,.32-.08,.87-.67,1.06,.15,.11,.51,.23,1.12-.52,1.36-.33,.1-.65,.27-.99,.32-1.64,.24-3.28,.31-4.78-.6-1.12-.71-1.73-1.77-2.11-3Z"/><path class="cls-119" d="M276.56,16.48c-.2-1.7-.27-3.37,.88-4.82,.52-.61,1.01-1.24,1.83-1.47,4.14-1.54,6.37,1.02,6.53,4.71,.04,.85-.59,.78-1.13,.78-1.69,.01-3.39,.04-5.08,0-1.23-.04-1.24,.47-.73,1.33,.87,1.51,2.48,1.89,5.04,1.25,.32-.08,.87-.67,1.06,.15,.11,.51,.23,1.12-.52,1.36-.33,.1-.65,.27-.99,.32-1.64,.24-3.28,.31-4.78-.6-1.12-.71-1.73-1.77-2.11-3Z"/><path class="cls-51" d="M236.71,20.34c-1.75-.52-2.43-1.89-2.55-3.51-.14-2.08-.05-4.18-.1-6.28-.02-.85,.54-.79,1.1-.82,.62-.03,.91,.18,.9,.85-.03,1.69-.03,3.39,0,5.08,.05,2.1,.68,3.04,2.02,3.16,1.7,.15,2.73-.82,3.1-2.92,.29-1.68,.13-3.38,.13-5.07,0-.72,.15-1.12,.98-1.11,.8,0,1.01,.36,1,1.1-.03,2.64-.07,5.28,.01,7.92,.05,1.48-.56,1.74-1.8,1.3-.49-1.03-.96-.39-1.44,.02-1.1,.4-2.18,.94-3.36,.27Z"/><path class="cls-158" d="M429.75,21.43c-.07-.06-.06-.12,0-.18,.3-.25,.31-.59,.33-.94,.08-1.33-.08-1.43-1.32-.85-.4,.19-.83,.33-1.25,.47-.55,.3-1.11,.38-1.71,.17-.82,.03-1.47-.35-2.03-.91-.73-.78-1.09-1.76-1.5-2.71-.36-2.13,.05-4.05,1.52-5.69,.34-.32,.83-.34,1.19-.62,.85-.56,1.77-.51,2.71-.31,.5,.41,1.21,.44,1.67,.94,.37,.4,.71,.49,.96-.17,.17-.45,.62-.45,1.02-.3,.41,.15,.39,.53,.38,.88-.06,3.46,.13,6.93-.1,10.39v-.03c-.85,1.65-2.04,2.78-4.04,2.74-.2,0-.38,.11-.5,.28-.39,.28-.8,.39-1.24,.11-.4-.7-1.16-.37-1.73-.59-.39-.16-.81-.28-.73-.78,.1-.59,.56-.41,.94-.31,.93,.25,1.88,.16,2.82,.19,1.31,.04,2.19-.52,2.6-1.78Z"/><path class="cls-119" d="M429.79,41.3c1.17-.88,2.53-1.1,3.94-1.11,1.83-.01,1.9-.12,1.13-1.85-1.09-.92-2.27-1.06-3.55-.44-.4,.19-.85,.49-1.21,.09-.39-.44,.1-.79,.29-1.16,1.43-.77,2.95-.89,4.48-.47,1.44,.4,2.29,1.41,2.35,2.92,.08,2.18,.08,4.37,.11,6.55,0,.37-.03,.74-.49,.77-.37,.02-.94,.24-1.08-.2-.34-1.04-.8-.33-1.18-.13-1.88,1-4.12,.68-5.41-.78-.85-1.55-.63-2.94,.6-4.19Z"/><path class="cls-150" d="M409.41,20.1c-1.36,.32-2.57,.03-3.61-.92-.26-.43-.59-.81-.92-1.19-1.4-3.23-.87-5.88,1.54-7.75,.93-.69,1.99-.49,3.02-.42,.65,.14,1.22,.41,1.74,.82,.73,.6,1.07,.34,1.07-.53,0-1.24-.03-2.49,.02-3.73,.02-.55-.36-1.42,.77-1.39,1.02,.02,.69,.8,.69,1.32,.02,4.03,.02,8.06,0,12.09,0,.46,.21,1.06-.46,1.26-.5,.15-.86-.02-1.05-.55-.15-.43-.48-.28-.7-.08-.61,.57-1.49,.56-2.12,1.08Z"/><path class="cls-158" d="M39.71,46.37c-3.79,1.31-5.95-.18-6.02-4.17-.03-1.69,.03-3.39-.02-5.08-.03-.86,.4-.95,1.09-.98,.76-.03,.92,.3,.91,.98-.02,1.79-.06,3.59,.06,5.38,.08,1.23,.22,2.57,1.93,2.73,1.62,.14,2.6-.66,3.04-2.42,.43-1.72,.17-3.47,.26-5.21,.03-.63-.29-1.44,.91-1.46,1.25-.01,1.02,.81,1.02,1.52,.01,2.49-.06,4.99,.03,7.48,.05,1.33-.44,1.72-1.66,1.46-.32-.16-.23-.71-.7-.73-.33,.1-.57,.35-.86,.51Z"/><path class="cls-119" d="M195.03,18.56c-1.75,1.76-3.98,2.17-6.15,1.14-2.09-.99-3.16-3.18-2.82-5.74,.27-2.04,1.87-3.69,3.99-4.14,2.44-.51,4.61,.51,5.88,2.76,.71,2.14,.55,4.16-.9,5.97Z"/><path class="cls-51" d="M482.22,36.56c0,1.99-.06,3.98,.01,5.97,.06,1.76,.74,2.59,2,2.69,1.55,.13,2.57-.65,2.98-2.31,.45-1.82,.22-3.67,.26-5.5,.02-.68-.04-1.28,.96-1.28,.96,0,1.01,.51,1.01,1.24-.02,2.69,0,5.38-.01,8.07,0,.42,.16,1-.44,1.12-.49,.1-1.15,.36-1.39-.4-.17-.51-.46-.5-.77-.24-1.28,1.09-2.75,.99-4.26,.75-1.31-.45-1.99-1.41-2.21-2.73-.38-2.32-.21-4.66-.17-6.99,.02-1.06,.88-1.21,2.02-.4Z"/><path class="cls-119" d="M91.65,42.27c.52,2.49,2.26,3.26,5.34,2.4,.31-.08,.64-.45,.95-.14,.3,.3,.19,.75,.14,1.14-.05,.36-.35,.42-.63,.54-2.06,.91-5.15,.44-6.59-1.02-1.41-1.43-1.76-4.18-.81-6.3,.93-2.08,2.62-2.91,5.43-2.66,2.15,.73,3.13,2.29,3.28,4.49,.07,.94-.2,1.38-1.23,1.33-1.59-.06-3.19-.03-4.79,0-.36,0-.8-.21-1.09,.22Z"/><path class="cls-119" d="M341.6,46.63c-4.22,.39-6.85-3.3-5.61-7.14,.64-1.98,2.15-3.08,4.2-3.31,2.2-.25,4.07,.41,5.24,2.39,1.16,1.98,1.04,3.98-.21,5.9-.24,.37-.58,.67-.88,1-.78,.71-1.73,.99-2.74,1.16Z"/><path class="cls-158" d="M504.63,38.35l-.24-.21c-1.46-1.11-3.44-.16-3.69,1.78-.06,.48,.08,.98-.11,1.46,.02,1.43,0,2.86,.08,4.29,.04,.83-.35,.98-1.07,.98-.71,0-.95-.26-.94-.95,.04-2.02,.03-4.04,.05-6.06-.38-2.05-1.56-2.63-3.22-1.57h.02c-1.06,.6-1.39,1.57-1.41,2.73-.04,1.87,.17,3.75-.11,5.62h0c-1.14,.4-1.55-.07-1.54-1.2,.03-2.44-.02-4.88,.02-7.31,.02-1.27,.27-1.4,1.33-.69,.39,.26,.71,.37,1.05,.03,.73-.74,1.67-.82,2.62-.87,.89,.1,1.74,.29,2.34,1.06,.4,.51,.78,.48,1.19,0,.68-.82,1.59-1.1,2.63-1.05,2.32,.38,3.18,1.33,3.21,3.64,.02,1.73-.01,3.46,.01,5.2,.02,1.11-.37,1.61-1.52,1.18h0c-.31-2.1-.05-4.22-.14-6.33-.03-.63,.13-1.31-.57-1.71Z"/><path class="cls-119" d="M193.24,36.23c1.26-.18,2.48-.12,3.61,.56,.38,.32,.76,.65,1.2,.92,1.65,1.81,1.92,3.88,.9,6.02-1.04,2.19-2.97,3.06-5.36,2.91-1.17-.15-2.23-.55-3.06-1.43-1.66-1.91-2.04-4.01-.93-6.33,.75-1.52,2.15-2.15,3.65-2.65Z"/><path class="cls-158" d="M104.79,36.21c3.03-.15,4.34,1.01,4.43,4.01,.06,1.78,.03,3.57,.04,5.36,0,.43,.14,.97-.53,1.02-.41,.03-1,.24-1.13-.37-.16-.71-.4-.45-.76-.18-.92,.69-1.98,.87-3.11,.77-1.95-.19-2.96-1.01-3.15-2.56-.22-1.83,.42-2.81,2.36-3.57,1.11-.24,2.2-.4,3.36-.3,1.1,.09,1.26-.25,.84-1.45h0c-.73-1.4-2.16-1.83-3.9-1.19-.41,.15-.96,.8-1.21,.08-.23-.64,.43-.99,1.04-1.16,.56-.16,1.18-.12,1.71-.44Z"/><path class="cls-51" d="M312.83,15.61c.1,2.54,.95,3.49,2.83,3.17,1.33-.23,1.88-1.18,2.17-2.35,.43-1.71,.2-3.46,.26-5.2,.02-.71-.25-1.55,1.01-1.52,1.27,.03,.93,.91,.94,1.59,.02,2.48-.05,4.97,.03,7.45,.05,1.48-.56,1.74-1.79,1.29-.3-.56-.65-.81-1.16-.2-.3,.46-.88,.24-1.26,.51h0c-.8,.47-1.59,.34-2.39-.02-.72-.21-1.3-.63-1.78-1.19-.58-.79-.78-1.68-.77-2.65,.02-1.93,.02-3.86,0-5.79,0-.67,.17-.98,.91-.98,.77,0,.88,.35,.9,1,.03,1.63-.16,3.26,.11,4.88Z"/><path class="cls-119" d="M324.82,40.33c.34-1.13,.69-2.26,1.01-3.4,.27-.97,1.03-.9,1.68-.7,.76,.23,.25,.86,.11,1.23-1.35,3.56-2.42,7.23-3.97,10.72-.38,.45-.51,1.04-.91,1.48-.71,.88-1.63,1.23-2.75,1.16-.49-.03-.9-.12-.93-.71-.02-.52,.21-.74,.76-.86,1.98-.43,2.61-1.61,1.96-3.54-.33-.98-.72-1.94-1.08-2.92-.69-1.35-1.11-2.78-1.51-4.23-.13-.37-.34-.74-.36-1.11-.02-.41-.71-1.03,.11-1.21,.63-.14,1.51-.44,1.82,.66,.44,1.56,.94,3.11,1.41,4.66,.15,.72,.29,1.44,.5,2.14,.09,.29,.25,.56,.59,.59,.38,.03,.44-.29,.55-.57,.45-1.1,.69-2.25,1-3.39Z"/><path class="cls-158" d="M253.37,20.1c-.65-.29-.31-.87-.33-1.31-.05-1.74-.02-3.48-.05-5.22-.02-1.08-.41-2.04-1.58-2.21-1.17-.18-1.98,.48-2.43,1.56-.83,2.01-.38,4.13-.43,6.19-.02,.97-.36,1.2-1.24,1.1-.57-.06-.75-.32-.75-.86,.02-2.78,0-5.57,0-8.35,0-.4-.03-.84,.47-.98,.44-.13,1.01-.21,1.23,.22,.53,1.05,.9,.21,1.33-.04,1.29-.71,2.59-.72,3.88,0h0c.55,.33,1,.76,1.41,1.25,.29,.27,.68,.56,.48,.99-1,2.11-.58,4.35-.67,6.54-.04,.93-.29,1.45-1.34,1.1Z"/><path class="cls-138" d="M121.04,14.89c0-.55-.03-1.1,0-1.64,.07-1.16,.11-2.24-1.61-1.98-.54,.08-.79-.27-.78-.83,.02-.64,.44-.76,.91-.71,1.17,.14,1.66-.3,1.48-1.48-.17-1.11,.76-1.25,1.43-1.28,.86-.03,.55,.81,.51,1.25-.1,1.16,.27,1.68,1.49,1.51,.59-.08,1.24-.12,1.2,.84-.04,.88-.66,.78-1.17,.71-1.21-.16-1.58,.34-1.51,1.5,.09,1.34,.01,2.69,.04,4.03,.02,1.18,.56,1.89,1.84,1.81,.47-.03,.95-.11,.98,.55,.02,.58-.28,.88-.87,1-2.23,.47-3.85-.76-3.92-3.05-.02-.75,0-1.49,0-2.24h0Z"/><path class="cls-51" d="M179.57,46.62c-1.94-.02-2.98-.99-3.04-2.9-.05-1.54-.06-3.09,0-4.63,.03-.93-.09-1.57-1.26-1.42-.55,.07-1.13,.05-1.13-.78,0-.88,.63-.8,1.14-.75,1.01,.1,1.37-.33,1.23-1.28-.11-.74,.16-1.16,.93-1.43,.88-.3,1.13,0,1.03,.78-.18,1.4,.16,2.23,1.81,1.92,.5-.1,.86,.08,.86,.71,0,.66-.31,.95-.92,.83-1.74-.34-1.84,.68-1.76,1.98,.07,1.24,.01,2.49,.04,3.73,.02,.99,.54,1.57,1.54,1.68,.51,.06,1.33-.43,1.27,.65-.06,.91-.79,.88-1.45,.9-.1,0-.2,0-.3,0Z"/><path class="cls-50" d="M60.99,46.38c-1.68,.5-1.82,.41-1.82-1.18,0-2.53-.02-5.07,.02-7.6,0-.5-.4-1.29,.55-1.43,.76-.11,1.6-.23,1.48,1.07,.85-.49,1.43-1.03,2.26-1.19,2.69-.54,4.39,.57,4.79,3.27,.32,2.13,.08,4.27,.15,6.4,.03,.74-.36,.92-1.02,.94-.71,.02-.98-.26-.97-.96,.02-1.69,.05-3.38-.03-5.07-.1-2.17-.7-2.99-2.07-3.06-1.64-.08-2.62,.82-3.04,2.83-.11,.53-.16,1.08-.23,1.61-.74-.81-.44-1.78-.36-2.69,.05-.59,.19-1.16-.45-1.81-.04,2.63-.03,5.06,0,7.49,0,.59,.29,1.04,.74,1.4Z"/><path class="cls-56" d="M304.15,46.38c-1.68,.5-1.82,.41-1.82-1.19,0-2.49-.03-4.98,.02-7.48,.01-.54-.47-1.38,.58-1.56,.8-.14,1.46,0,1.55,1.07,.82-.66,1.56-1.12,2.49-1.26,2.48-.37,4.08,.79,4.42,3.26,.29,2.13,.1,4.28,.16,6.42,.02,.69-.25,.97-.96,1-.83,.03-1.02-.35-1.01-1.08,.03-1.59,.04-3.19-.01-4.78-.08-2.27-.68-3.15-2.08-3.24-1.67-.1-2.68,.87-3.08,2.98-.07,.39-.13,.78-.2,1.17-.7-.7-.44-1.56-.37-2.37,.05-.58,.2-1.15-.46-1.87,0,2.72-.04,5.2,.03,7.69,.02,.53,.33,.91,.73,1.24Z"/><path class="cls-50" d="M523.05,12.92c-.62,1.99-.31,4.04-.37,6.06-.02,.66,.1,1.27-.94,1.27-1.05,0-1.07-.56-1.06-1.33,.03-2.58,.06-5.17-.01-7.75-.04-1.43,.49-1.78,1.75-1.26,.19,.62,.22,1.51,1.19,.55,1.03-1.02,2.38-.66,3.63-.7,1,.15,1.68,.68,1.99,1.66,.57,2.89,.62,5.78,.1,8.68-.3,.19-.59,.45-.94,.1-.54-1.98-.17-3.99-.23-5.99-.03-.91-.12-1.75-.72-2.47-1.93-1.45-3.46-1.03-4.39,1.18Z"/><path class="cls-158" d="M370.41,17.71c.29,.79,.9,.99,1.67,.92,.4-.04,.86-.13,.94,.44,.06,.48-.12,.86-.63,1.06-1.87,.74-4.06-.59-4.15-2.59-.07-1.64-.07-3.29-.02-4.93,.03-.92-.19-1.43-1.23-1.33-.53,.05-1.14,.08-1.15-.77,0-.86,.61-.82,1.14-.77,1.02,.1,1.34-.35,1.24-1.3-.04-.38,.08-.78,.13-1.18,1.74-.85,1.9-.78,1.9,1.12,0,.92,.33,1.28,1.21,1.22,.15-.01,.3,0,.45,.01,.56,.06,1.16,.13,1.15,.88,0,.72-.47,1.14-1.16,1.03-1.5-.24-1.76,.5-1.64,1.76,.14,1.47-.16,2.96,.15,4.44Z"/><path class="cls-15" d="M129.97,13.19c-.57,1.69-.28,3.45-.38,5.17-.03,.57,.24,1.18-.21,1.7-1.02,.38-1.51,.06-1.51-1.05,0-4.28,0-8.57,0-12.85,0-.63,.05-1.22,.93-1.2,.91,.02,.68,.69,.69,1.19,.02,1.39,0,2.79,.02,4.18,0,.47-.06,1.21,.74,.45h0c.52-.47,1.28-.47,1.8-.93h1.5c.45,.45,1.12,.3,1.62,.59,.52,.3,.85,.74,1,1.32,.58,2.77,.58,5.55,.08,8.33-.3,.19-.59,.46-.94,.1-.52-1.4-.15-2.86-.25-4.29-.06-.84,.09-1.69-.11-2.53-.35-.51-.32-1.23-.88-1.63-1.24-.83-2.25-.75-3.48,.3l.02-.03c-.45,.26-.43,.78-.66,1.17Z"/><path class="cls-15" d="M379.72,9.86h1.5c.45,.45,1.12,.3,1.62,.59,.52,.3,.85,.74,1,1.32,.58,2.77,.58,5.55,.08,8.33-.3,.19-.59,.46-.94,.1-.52-1.4-.15-2.86-.25-4.29-.06-.84,.09-1.69-.11-2.53-.35-.51-.32-1.23-.88-1.63-1.24-.83-2.25-.75-3.48,.3l.02-.03c-.45,.26-.43,.78-.66,1.17-.57,1.69-.28,3.45-.38,5.17-.03,.57,.24,1.18-.21,1.7-1.02,.38-1.51,.06-1.51-1.05,0-4.28,0-8.57,0-12.85,0-.63,.05-1.22,.93-1.19,.91,.02,.68,.69,.69,1.19,.02,1.39,0,2.79,.02,4.18,0,.47-.05,1.21,.74,.45h0c.52-.47,1.28-.47,1.8-.93Z"/><path class="cls-51" d="M452.23,16.79c-.62-.68-1.46-1.02-2.26-1.43-2.01-1.04-2.37-1.78-1.86-3.92,1.06-1.57,3.5-2.31,5.21-1.56,.91,.4,.94,1.03,.36,1.76-.8,.08-1.51-.51-2.34-.32-.61,.14-1.19,.35-1.31,1.03-.12,.62,.29,1.04,.79,1.31,.65,.36,1.33,.66,1.99,1.01,1.07,.56,1.62,1.42,1.52,2.66-.1,1.2-.69,2.03-1.8,2.51-1.25,.54-2.52,.47-3.79,.12-.61-.17-.91-.61-.72-1.26,.22-.76,.73-.44,1.2-.28,1.18,.38,2.26,.38,3.06-.76,.36-.31,.28-.6-.04-.88Z"/><path class="cls-158" d="M441.75,19.19c-.46-.57-.59-1.24-.59-1.96,0-1.39-.05-2.79,0-4.18,.05-1.12-.02-2.01-1.53-1.78-.46,.07-.86-.08-.88-.72-.02-.72,.4-.88,.94-.81,1.21,.15,1.64-.37,1.46-1.52-.15-1.03,.68-1.16,1.32-1.23,.92-.1,.64,.74,.6,1.17-.12,1.22,.29,1.76,1.57,1.58,.53-.07,1.12-.1,1.12,.77,0,.85-.58,.86-1.12,.78-1.3-.19-1.66,.39-1.56,1.59,.14,1.68-.18,3.38,.23,5.06,.47,.43,.91,.9,1.65,.8,.48-.06,.93,.03,.9,.65-.03,.5-.37,.78-.87,.83-1.22,.12-2.34-.11-3.25-1.01Z"/><path class="cls-158" d="M382.14,35.59c-.47-1.04-.97-2.06-1.4-3.11-.15-.38-.93-.84-.21-1.21,.53-.27,1.27-.22,1.71,.47,1.01,1.6,1.9,3.26,2.45,5.09,1.27,4.27-.02,8-2.42,11.51-.47,.69-1.28,.79-1.69,.47-.78-.61,.36-1.13,.38-1.76,1.7-3.06,2.62-6.25,1.59-9.74-.17-.57-.21-1.16-.41-1.71Z"/><path class="cls-50" d="M224.43,12.93c.05,.09,.04,.18-.02,.26-.87,1.78-.34,3.68-.44,5.52-.09,1.59-.02,1.59-1.68,1.37-.51-2.03-.1-4.09-.21-6.13-.05-.93,.05-1.88-.02-2.81-.11-1.44,.52-1.73,1.75-1.24,.17,.8,.36,1.42,1.28,.52,.28-.27,.63-.61,1.1-.67,1.45-.19,2.9-.36,3.93,1.04l.29,.31c.5,.84,.61,1.79,.57,2.71-.09,2.1,.37,4.22-.27,6.29-.3,.2-.6,.44-.96,.1-.51-1.95-.14-3.93-.23-5.9-.04-1.02-.22-2-.93-2.73-1.36-1.4-3.28-.75-4.16,1.36Z"/><path class="cls-158" d="M79.28,36.75c.95-.66,1.55-.53,1.55,.44,0,3.37,.28,6.74-.14,10.1-.26,2.06-1.8,3.29-4.03,3.48-1.45,.13-2.88,.06-4.24-.52-.48-.27-.56-.69-.36-1.14,.18-.4,.49-.62,.95-.34h0c2.02,.61,4.02,1.09,5.57-.98,.65-.94,1.14-1.87-.07-2.78-.49-.37-.23-.9-.21-1.38,.02-.3,.07-.6,.14-.89,.41-1.12-.02-2.21-.13-3.31,0-.43-.18-.85-.03-1.28,.44-.39,.97-.72,1-1.4Z"/><path class="cls-158" d="M68.48,19.49c-.7-.6-.9-1.39-.89-2.27,0-1.54-.04-3.08,0-4.62,.03-.9-.15-1.44-1.22-1.33-.51,.05-1.15,.13-1.17-.73-.03-.97,.69-.85,1.24-.81,.96,.07,1.21-.37,1.15-1.24-.04-.51-.14-1.06,.6-1.33,.92-.34,1.48-.32,1.32,.84-.18,1.34,.29,1.92,1.71,1.73,1.1-.15,1.06,.58,.86,1.34-.04,.03-.08,.06-.13,.08-.74,.28-1.76-.33-2.25,.33-.48,.65-.13,1.63-.16,2.46-.03,.94,0,1.88,0,2.82-.01,1.19,.55,1.86,1.75,1.95,.45,.03,.99-.05,.98,.6-.01,.68-.5,.85-1.12,.9-1,.09-1.85-.22-2.67-.73Z"/><path class="cls-51" d="M444.85,46.61c-2.19,.02-3.89-.84-4.83-2.86-.93-2-.81-3.99,.59-5.76,1.39-1.75,3.32-2.06,5.41-1.76,.59,.09,1.06,.35,.94,1.08-.13,.86-.65,.61-1.22,.48-1.52-.33-2.76,.14-3.61,1.47-.78,1.21-.75,3.2,.06,4.39,.83,1.2,2,1.56,3.4,1.37,.55-.07,1.32-.81,1.49,.37,.15,1.09-.73,1.13-1.48,1.21-.25,.03-.5,0-.75,0Z"/><path class="cls-158" d="M243.01,32.03c.27-.27,.5-.66,.83-.79,.39-.16,.94-.22,1.26,.1,.35,.35-.08,.72-.25,1.03-.74,1.33-1.35,2.71-1.86,4.15-.76,2.49-.77,4.99,0,7.48,.45,1.2,.91,2.39,1.63,3.47,.25,.37,.92,.91,.27,1.32-.53,.33-1.22,.18-1.69-.46-2.34-3.18-3.39-6.67-2.6-10.61,.53-.94,.52-2.07,1.05-3.01,.24-.99,.8-1.83,1.35-2.67Z"/><path class="cls-138" d="M219.14,46.6c-2.19,.02-3.9-.87-4.8-2.9-.87-1.94-.78-3.91,.55-5.64,1.36-1.77,3.28-2.14,5.38-1.84,.64,.09,1.2,.34,1.04,1.15-.17,.87-.75,.52-1.28,.41-1.46-.29-2.66,.16-3.51,1.4-.83,1.22-.81,3.33,.05,4.53,.85,1.18,2.03,1.51,3.43,1.3,.49-.07,1.2-.77,1.42,.28,.23,1.08-.59,1.21-1.37,1.3-.3,.03-.6,0-.9,0Z"/><path class="cls-158" d="M301.72,11.67c-.58-.12-1.15-.29-1.74-.34-.78-.07-1.57,.09-1.82,.94-.25,.84,.41,1.23,1.05,1.57,1.17,.62,2.53,.98,3.14,2.34,.44,.7,.33,1.4-.04,2.08l-.87,1.18c-1.38,1.22-3.01,.78-4.57,.64-.64-.06-1.1-.58-.92-1.3,.21-.85,.86-.64,1.45-.45,.33,.11,.66,.26,1.02,.23,.7-.06,1.46-.15,1.72-.93,.26-.78-.37-1.12-.92-1.5-.58-.4-1.23-.66-1.82-1.02-1.97-1.19-2.01-3.49-.09-4.85h-.01c1.21-.83,2.57-.58,3.85-.38,1.03,.16,1.1,.96,.57,1.8Z"/><path class="cls-152" d="M108.44,12.52c0-2.24,.02-4.47,0-6.71,0-.72,.16-1.11,1-1.09,.79,.02,1.01,.36,1.01,1.1-.02,4.47-.03,8.94,0,13.41,0,.84-.41,.98-1.11,1-.76,.02-.91-.36-.9-1.02,.02-2.24,0-4.47,0-6.71Z"/><path class="cls-51" d="M364.43,36.21c.74,.01,1.49-.03,2.23,.05,.6,.07,1,.43,.84,1.14-.17,.74-.62,.53-1.14,.41-1.51-.35-2.75,.08-3.64,1.39-.83,1.23-.81,3.3,.05,4.5,.89,1.23,2.11,1.58,3.56,1.27,.5-.11,1.09-.57,1.3,.31,.2,.85-.34,1.18-1.06,1.28-2.22,.31-4.18-.17-5.58-2.04-1.26-1.69-1.28-4.3-.1-6.18,.15-.24,.33-.45,.5-.68,.49-.18,.83-.58,1.24-.88h0c.58-.27,1.25-.25,1.81-.59Z"/><path class="cls-50" d="M253.37,20.1c.6-.02,1.04-.15,1.04-.93,0-2.26-.19-4.53,.73-6.7,.25-.58-.9-.44-.74-1.09,.52-.38,.95-.87,1.55-1.15,3.3-1.3,5.43,.08,5.51,3.6,.04,1.74-.02,3.48,.02,5.22,.02,.78-.14,1.18-1.04,1.2-1.01,.02-.97-.57-.96-1.25,.01-1.69,.03-3.38-.01-5.07-.03-1.14-.23-2.32-1.58-2.54-1.41-.23-2.24,.69-2.62,1.94-.55,1.8-.26,3.66-.23,5.49,.02,1.37-.48,1.68-1.67,1.29Z"/><path class="cls-51" d="M49.34,40.69c2.14,.92,2.68,1.73,2.35,3.55-.26,1.46-1.58,2.36-3.49,2.39-.75,0-1.5,.02-2.21-.3-.57-.25-.67-.7-.52-1.23,.19-.68,.65-.44,1.08-.29,.19,.07,.37,.15,.57,.18,.98,.19,2.02,.18,2.46-.84,.49-1.14-.59-1.52-1.34-1.97-.38-.23-.82-.37-1.21-.59-1.19-.65-1.94-1.56-1.62-3.02,.32-1.47,1.35-2.14,2.73-2.37,.48-.08,.99,0,1.49,.01,.24,.21,.56,.18,.83,.31,.4,.19,.68,.45,.52,.93-.17,.5-.58,.27-.89,.2-.5-.11-1.01-.17-1.48-.05-.58,.14-1.16,.4-1.29,1.09-.13,.7,.3,1.12,.81,1.48,.37,.26,.82,.35,1.23,.52Z"/><path class="cls-51" d="M114.67,46.09c-2.51-1.6-3.45-4.22-2.46-6.81,.85-2.2,3.22-3.45,5.88-3.1,.67,.09,1.37,.21,1.26,1.11-.12,1-.81,.55-1.37,.46-2.88-.45-4.87,2.33-3.75,5.27,.12,.32,.32,.62,.49,.93,.96,1.08,2.18,1.3,3.51,1.01,.49-.11,1.01-.42,1.16,.34,.14,.69-.21,1.2-.94,1.21-1.27,.02-2.58,.23-3.78-.42Z"/><path class="cls-15" d="M534.19,41.33c0-1.39,0-2.78,0-4.17,0-.37-.13-.89,.42-.97,.5-.07,1.2-.32,1.43,.36,.3,.89,.58,.32,.88,.07,.74-.62,1.58-.8,2.51-.64,.56,.09,.68,.48,.67,.98-.01,.52-.28,.63-.74,.69-2.11,.29-3.02,1.29-3.15,3.53-.08,1.48-.05,2.98-.03,4.47,0,.66-.14,1.01-.91,1-.72-.02-1.11-.17-1.09-1,.05-1.44,.01-2.88,.01-4.32Z"/><path class="cls-158" d="M326.28,16.21l-.8-.36c-.41-.19-.88-.26-1.22-.59h0c-.51-.39-1.21-.54-1.5-1.2-.57-1.33-.37-2.53,.69-3.5,.89-.82,3.42-1.15,4.37-.57,.82,.49,.85,1.1,.03,1.67-1.01-.46-2.01-.79-2.99,.06-.6,.94-.23,1.57,.66,2.02,.66,.33,1.33,.64,1.99,.95,.52,.34,1.07,.66,1.07,1.4,.27,1.24,.21,2.53-.89,3.24-1.24,.81-2.68,1.35-4.2,.46-.36-.21-.73-.39-.61-.88,.15-.63,.62-.34,.97-.27,.55,.11,1.09,.06,1.64,.07,.71,.01,1.11-.43,1.31-1.02,.21-.6,.18-1.19-.54-1.49Z"/><path class="cls-50" d="M316.57,39.06c0,2.13-.02,4.27,.01,6.4,.01,.78-.18,1.19-1.08,1.18-.94-.02-.87-.6-.87-1.21,0-4.37,0-8.74,0-13.11,0-.64-.01-1.17,.9-1.18,.92-.01,1.06,.46,1.05,1.21-.02,2.23,0,4.47,0,6.7Z"/><path class="cls-182" d="M201.36,12.44c0,2.19-.02,4.38,.01,6.56,0,.74-.08,1.24-1.02,1.24-.86,0-.95-.45-.95-1.13,.02-4.43,.02-8.85,0-13.28,0-.72,.16-1.11,.99-1.1,.84,.01,.98,.44,.97,1.14-.02,2.19,0,4.38,0,6.56Z"/><path class="cls-182" d="M105.42,12.55c0,2.19-.02,4.38,.01,6.56,.01,.72-.16,1.11-.98,1.13-.82,.02-.99-.37-.99-1.09,.02-4.43,.02-8.85,0-13.28,0-.68,.08-1.15,.95-1.13,.8,.01,1.02,.36,1.01,1.1-.03,2.24-.01,4.48,0,6.71Z"/><path class="cls-86" d="M291.29,11.72c-1.31,1.52-1.31,3.36-1.27,5.22,.02,.79-.04,1.59,.01,2.38,.05,.75-.31,.94-.98,.92-.62-.02-1.03-.11-1.02-.9,.04-3.03,.02-6.06,.04-9.09,0-.11,.15-.23,.22-.34,.54-.23,1.15-.36,1.39,.31,.39,1.08,.83,.48,1.24,.1,.6-.55,1.33-.68,2.07-.65,.43,.01,1.1-.09,1.12,.66,.02,.71-.45,.88-1.08,.93-.6,.04-1.33-.32-1.74,.47Z"/><path class="cls-51" d="M57.69,11.37c-1.59,.67-1.88,2.1-1.99,3.56-.11,1.39-.06,2.79-.03,4.18,.01,.68-.04,1.14-.93,1.13-.9,0-1.06-.41-1.05-1.2,.03-2.74,0-5.48,.02-8.21,0-.42-.16-.99,.5-1.06,.5-.05,1.15-.3,1.39,.46,.21,.65,.43,.36,.67,.03,.27-.44,.79-.43,1.17-.65h0c.49-.34,1.01-.36,1.56-.16,.55,.2,.7,.62,.68,1.18-.03,.68-.52,.59-.96,.61-.34,.01-.7-.07-1.01,.13Z"/><path class="cls-50" d="M407.07,36.79c.3,.09,.5,.27,.54,.59,1.05,2.75,.45,5.6,.55,8.41,.02,.44-.25,.75-.76,.72-.52-.03-.66-.39-.67-.82-.06-1.64-.01-3.28-.03-4.92-.01-2.19-.88-3.46-2.41-3.49-1.71-.04-3.05,1.46-3.14,3.49-.08,1.88,.16,3.77-.12,5.65h.01c-1.12,.38-1.55-.06-1.54-1.2,.03-2.53,0-5.06,.02-7.58,0-.48-.11-1.06,.55-1.23,.6-.15,1.05-.05,1.13,.74,.05,.44,.46,.31,.67,.1,1.61-1.57,3.37-1.4,5.2-.46Z"/><path class="cls-50" d="M356.1,36.79c.3,.09,.5,.27,.54,.59,1.05,2.75,.45,5.6,.55,8.41,.02,.44-.25,.75-.76,.72-.52-.03-.66-.39-.67-.82-.06-1.64-.01-3.28-.03-4.92-.01-2.19-.88-3.46-2.41-3.49-1.71-.04-3.05,1.46-3.14,3.49-.08,1.88,.16,3.77-.12,5.65h.01c-1.12,.38-1.55-.06-1.54-1.2,.03-2.53,0-5.06,.02-7.58,0-.48-.11-1.06,.55-1.23,.6-.15,1.05-.05,1.13,.74,.05,.44,.46,.31,.67,.1,1.61-1.57,3.37-1.4,5.2-.46Z"/><path class="cls-50" d="M261.56,36.74c2.4-1.83,5.52-.67,6.03,2.24,.39,2.22,.12,4.46,.21,6.69,.03,.71-.3,.95-.98,.97-.82,.03-1.03-.34-1.01-1.08,.03-1.39,0-2.78,0-4.17,0-1.15-.16-2.27-.65-3.33-.81-1.17-1.89-.76-2.93-.46-.31,.09-.63,.45-.92,.05-.27-.36,.1-.63,.24-.92Z"/><path class="cls-182" d="M261.56,36.74c.04,.4-.43,1.15,.68,.69,1.02-.43,2.25-.92,2.92,.64-2.07-1.09-3.6-.5-4.3,1.67-.6,1.84-.24,3.75-.33,5.63-.03,.62,.17,1.3-.91,1.3-1.03,0-1.1-.5-1.09-1.3,.03-2.73,0-5.47,.01-8.2,0-.43-.1-.98,.57-.99,.46-.01,1.19-.3,1.3,.32,.22,1.18,.76,.2,1.13,.26Z"/><path class="cls-86" d="M471.47,36.21c3.43-.87,5.24,.38,5.42,3.84,.1,1.83,.01,3.68,.05,5.51,.01,.74-.22,1.08-1.02,1.08-.9,0-.91-.53-.91-1.17-.02-2.18,.15-4.37-.26-6.54-.69-1.65-1.63-1.93-3.72-1.13-.22-.02-.4-.11-.54-.29-.07-.13-.09-.26-.07-.4,.12-.56,.74-.55,1.05-.9Z"/><path class="cls-32" d="M417.55,14.83c0-1.4,.02-2.79,0-4.19-.02-.72,.29-.98,.98-.95,.63,.03,1.03,.18,1.03,.94-.02,2.89-.03,5.78,0,8.67,0,.76-.38,.91-1.02,.94-.68,.03-1.01-.19-1-.93,.03-1.49,.01-2.99,.01-4.48Z"/><path class="cls-51" d="M273.89,36.23c1.55-.35,2.93,.13,4.45,1.18,0-1.88,.01-3.49,0-5.1,0-.67,.05-1.16,.93-1.15,.84,0,.99,.41,.98,1.12-.02,4.33,0,8.65-.01,12.98,0,.5,.03,1.05-.65,1.15-.51,.07-1.04,.08-1.16-.6-.08-.45-.24-.36-.58-.21-4.82,2.18-7.71,.12-7.36-5.21,.01-.2,.06-.39,.09-.59,.28-.11,.06-.98,.74-.49,.26,.54,.05,1.08,.02,1.62-.12,2.3,.77,3.76,2.68,4.71,1.19,.6,2.05-.13,2.92-.56,.81-.4,1.49-.71,2.52,.1,.03-4.44,.02-8.58-.12-12.73-.59,2.18,.42,4.59-1.11,6.6-.24,.29-.53,.23-.83,.12-2.16-1.62-2.85-1.5-4.33,.74-.18,.27-.28,.67-.75,.49-.55-1.99,.6-3.26,3.04-3.32-.56-.29-1.17,.11-1.71-.17-.3-.36,0-.51,.24-.68Z"/><path class="cls-68" d="M231.93,91.18c1.9,.45,3.79,.72,5.71,0,2.63-.99,4.16-3.86,3.8-7.21-.31-2.95-1.96-4.72-4.89-5.15-1.38-.2-2.67,.07-3.74,1.04-.29,.41-.58,.59-.88,0,.62-3.76,2.7-5.13,6.51-4.3,.79,.17,1.57,.46,1.7-.85,.1-.99,.62-2.02-1.05-2.13-.63-.04-1.25-.29-1.88-.45,.35-.02,.7-.05,1.04-.05,2.21,0,2.55,.36,2.36,2.49-.1,1.16-.32,1.97-1.92,1.5-1.1-.32-2.38-.12-3.57-.06-.79,.04-1.38,.56-1.82,1.19-.31,.44-.73,.98-.35,1.49,.36,.48,.78-.13,1.18-.21,3.69-.74,7.7,1.14,7.7,5.7,0,1.86-.09,3.64-1.2,5.22-1.1,1.57-2.57,2.44-4.52,2.44-.95,0-1.89,0-2.84,0-.56,0-1.12,.02-1.34-.66Z"/><path class="cls-171" d="M437.02,15.02c0,1.39-.03,2.78,.01,4.17,.03,.78-.3,1.05-1.05,1.05-.73,0-.93-.33-.92-1,.02-2.83,.03-5.65,0-8.48,0-.76,.24-1.08,1.03-1.06,.84,.01,.96,.47,.94,1.16-.03,1.39,0,2.78,0,4.17Z"/><path class="cls-171" d="M63.44,15.09c0,1.39-.03,2.78,.01,4.17,.02,.72-.29,.97-.97,.98-.66,.01-1.01-.17-1-.92,.03-2.88,.02-5.75,0-8.63,0-.69,.23-.99,.94-.99,.77,0,1.05,.32,1.03,1.08-.04,1.44-.01,2.88-.01,4.31Z"/><path class="cls-171" d="M331.63,14.96c0-1.44,.02-2.88,0-4.31-.02-.73,.3-.96,.98-.95,.67,.01,.99,.24,.98,.96-.03,2.88-.03,5.75,0,8.63,0,.75-.36,.92-1,.94-.7,.02-.98-.24-.97-.96,.04-1.44,.01-2.88,.01-4.31Z"/><path class="cls-182" d="M154.37,41.44c0,1.4-.03,2.79,.01,4.19,.02,.8-.34,1.02-1.09,1.02-.81,0-.86-.46-.86-1.07,.01-2.79,.02-5.58,0-8.37,0-.72,.15-1.11,.99-1.1,.85,.01,.97,.45,.96,1.14-.03,1.4,0,2.79,0,4.19Z"/><path class="cls-182" d="M172.36,41.3c0,1.4-.01,2.79,0,4.19,0,.67-.08,1.15-.95,1.16-.83,.01-1.01-.35-1.01-1.08,.02-2.79,.03-5.58,0-8.37,0-.74,.18-1.09,1-1.08,.86,.01,.96,.47,.95,1.15-.02,1.35,0,2.69,0,4.04Z"/><path class="cls-182" d="M394.09,41.36c0-1.44,.02-2.87,0-4.31-.02-.72,.29-.95,.98-.94,.69,0,.98,.26,.97,.96-.02,2.87-.02,5.75,0,8.62,0,.72-.32,.93-1,.95-.72,.01-.97-.28-.95-.97,.03-1.44,0-2.87,0-4.31Z"/><path class="cls-117" d="M55.95,41.34c0,1.39-.02,2.78,0,4.16,.01,.69-.13,1.12-.96,1.14-.82,.02-1.01-.35-1-1.08,.02-2.78,.02-5.55,0-8.33,0-.67,.07-1.13,.94-1.13,.93,0,1.05,.47,1.03,1.22-.03,1.34,0,2.68,0,4.02Z"/><path class="cls-144" d="M206.12,36.18c2.49-.68,3.91-.06,4.81,2.1,.3,2.46,.05,4.94,.14,7.4,.02,.53-.13,.84-.74,.84-.61,0-.76-.3-.76-.83,0-1.29,0-2.58,0-3.86,0-.59-.02-1.18-.12-1.77-.39-2.44-1.44-3.09-3.84-2.35-.26,.13-.47,.04-.67-.13-.29-1.03,.78-.93,1.17-1.4Z"/><path class="cls-182" d="M350.06,46.41c0-2.04-.04-4.08-.02-6.12,.01-1.46,1.31-2.99,2.65-3.18,1.87-.27,3.28,1,3.33,3.09,.05,1.74,0,3.48,.02,5.22,0,.33-.09,.8,.39,.83,.62,.04,.5-.51,.49-.87-.07-2.67,.25-5.36-.28-8.02,.83,.76,.79,1.81,.84,2.77,.09,1.79,.02,3.58,.05,5.37,.01,.71-.15,1.12-.99,1.12-.82,0-1.01-.37-1.01-1.1,.01-1.79,.03-3.59-.08-5.37-.07-1.19-.24-2.46-1.86-2.62-1.52-.15-2.34,.47-2.98,2.11-.38,.97-.29,1.95-.35,2.94-.08,1.27,.25,2.56-.21,3.8Z"/><path class="cls-182" d="M401.03,46.41c0-2.04-.04-4.08-.02-6.12,.01-1.46,1.31-2.99,2.65-3.18,1.87-.27,3.28,1,3.33,3.09,.05,1.74,0,3.48,.02,5.22,0,.33-.09,.8,.39,.83,.62,.04,.5-.51,.49-.87-.07-2.67,.25-5.36-.28-8.02,.83,.76,.79,1.81,.84,2.77,.09,1.79,.02,3.58,.05,5.37,.01,.71-.15,1.12-.99,1.12-.82,0-1.01-.37-1.01-1.1,.01-1.79,.03-3.59-.08-5.37-.07-1.19-.24-2.46-1.86-2.62-1.52-.15-2.34,.47-2.98,2.11-.38,.97-.29,1.95-.35,2.94-.08,1.27,.25,2.56-.21,3.8Z"/><path class="cls-51" d="M345.54,20.07c-.4,.27-.79,.54-1.22,.06-.27-2.03-.05-4.06-.12-6.09-.04-1.16-.14-2.28-1.37-2.92-.73-.38-1.38-.51-2.05,.03h.02c-.39,.07-.76,.23-1.14,.34-.13-.05-.23-.14-.27-.27-.03-.92,.99-.82,1.33-1.38l-.03,.02c1.4-.27,2.75-.17,4,.6v-.02c.8,1.06,1.14,2.28,1.1,3.59-.05,2.01,.37,4.05-.25,6.03Z"/><path class="cls-138" d="M204.91,37.4l.31,.26c0,.19-.21,.28-.25,.45,.04,.07,.03,.14-.03,.19-.78,1.14-1.12,2.4-1.08,3.78,.03,1.19,0,2.38,0,3.57,0,.49-.06,.88-.71,.87-.54,0-.84-.21-.91-.75-.03-.25-.03-.49-.03-.74,0-2.43,0-4.85,0-7.28,0-.59-.06-1.21,.6-1.56l.9,.04c.15,.64,.31,1.27,1.19,1.17Z"/><path class="cls-138" d="M470.54,37.4l.33,.26c0,.19-.21,.28-.24,.45,.04,.07,.03,.14-.04,.19-.77,1.14-1.12,2.4-1.08,3.78,.04,1.19,0,2.38,0,3.57,0,.49-.06,.88-.71,.87-.54,0-.84-.21-.91-.75-.03-.25-.03-.49-.03-.74,0-2.43,0-4.85,0-7.28,0-.59-.05-1.21,.6-1.56l.9,.04c.16,.62,.27,1.29,1.18,1.16Z"/><path class="cls-158" d="M79.28,36.75c-.13,.53,.45,1.56-.88,1.25-.07-.02-.13-.04-.2-.06-1.35-.99-2.79-1.41-4.28-.4-1.72,1.16-2.19,2.89-1.95,4.85,.23,1.83,1.3,2.99,3.08,3.43,.88,.22,1.6-.32,2.31-.78,.16-.3,.3-.61,.47-.9,.2-.3,.42-.57,.83-.55,.09,.5-.18,.92,.37,1.52,.6,.65,.67,1.93-.27,2.77-.23-.19-.21-.4-.06-.62,.19-.51,.35-1.03,.2-1.58-.67-.17-1.03,.37-1.51,.57-2.51,1.07-4.96,.06-5.96-2.51-1.5-3.88,1-7.81,4.8-7.58,.84,.05,1.6,.32,2.16,.9,.63,.65,.64-.09,.9-.3Z"/><path class="cls-51" d="M338.67,15.44c.04,1.33,.09,2.67,.11,4,.02,1.13-.74,.76-1.35,.67-.33-.43-.28-.94-.28-1.44,0-2.59-.01-5.18,0-7.77,0-.43-.05-.94,.53-1.11,.61-.18,.77,.25,.89,.71,.13,.5,.65,.59,.97,.88-.55,1.29-.81,2.65-.88,4.05Z"/><path class="cls-173" d="M130.27,10.79c-.02,.33-.14,.62-.53,.54-.36-.07-.38-.42-.38-.72,0-1.49,0-2.98-.02-4.47,0-.42,.12-.98-.57-.99-.67-.01-.61,.52-.61,.96,0,4.32,.02,8.63-.02,12.95,0,.99,.58,.98,1.24,1.01-1.16,.44-1.84,.33-1.82-1.2,.07-4.27,.03-8.54,.02-12.81,0-.75-.02-1.34,1.04-1.36,1.11-.02,1.02,.64,1.02,1.36-.01,1.39,0,2.78,0,4.17,0,.4,0,.84,.62,.57Z"/><path class="cls-173" d="M377.92,10.79c-.02,.33-.14,.62-.53,.54-.36-.07-.38-.42-.38-.72,0-1.49,0-2.98-.02-4.46,0-.42,.12-.98-.57-.99-.67-.01-.61,.52-.61,.96,0,4.32,.02,8.63-.02,12.95,0,.99,.58,.98,1.24,1.01-1.16,.44-1.84,.33-1.82-1.2,.07-4.27,.03-8.54,.02-12.81,0-.75-.02-1.34,1.04-1.36,1.11-.02,1.02,.64,1.02,1.36-.01,1.39,0,2.78,0,4.17,0,.4,0,.84,.62,.57Z"/><path class="cls-14" d="M60.99,46.38c-.89,.1-1.22-.26-1.2-1.18,.05-2.52,.01-5.04,.02-7.56,0-.37-.17-.9,.34-1.02,.61-.14,.38,.59,.61,.77,1.02,.79,.18,1.69,.22,2.52,.04,.69,.04,1.38,.06,2.07,.1,1.46,.23,2.93-.07,4.39Z"/><path class="cls-14" d="M304.15,46.38c-.89,.1-1.22-.27-1.2-1.18,.05-2.52,.01-5.04,.02-7.56,0-.37-.17-.9,.35-1.02,.61-.14,.38,.59,.61,.78,1.02,.79,.17,1.69,.22,2.52,.04,.59,.04,1.18,.06,1.78,.09,1.56,.22,3.13-.07,4.68Z"/><path class="cls-118" d="M473.57,22.72c-.82,.1-1.02-.29-.79-1.06,.31-1.04,.61-2.08,.85-3.13,.13-.6,.44-.78,1.02-.82,1.06-.07,1.65,.1,1.09,1.36-.42,.94-.74,1.93-1.02,2.92-.18,.62-.56,.75-1.14,.73Z"/><path class="cls-118" d="M497.49,22.72c-.79,.07-.93-.33-.74-1,.3-1.04,.63-2.08,.84-3.13,.14-.68,.49-.85,1.12-.88,1.02-.05,1.53,.14,1.01,1.3-.42,.94-.75,1.93-1.02,2.92-.19,.7-.62,.81-1.22,.78Z"/><path class="cls-118" d="M563.44,22.72c-.66,.07-.95-.23-.74-.96,.28-.99,.66-1.98,.81-2.99,.2-1.4,1.18-1.06,2.01-1.01,.5,.03,.45,.4,.32,.77-.42,1.21-.83,2.42-1.24,3.63-.18,.54-.63,.55-1.16,.55Z"/><path class="cls-179" d="M409.41,20.1c.51-.91,1.67-.78,2.35-1.46,.17-.17,.5-.02,.6,.25,.16,.45,.42,.7,.89,.5,.49-.2,.33-.68,.33-1.05,.01-4.03,.01-8.07,0-12.1,0-.45,.18-1.12-.63-1.08-.68,.03-.52,.62-.52,1.04-.02,1.34,0,2.69-.01,4.03,0,.38,.15,.84-.32,1.07-.39,.19-.67-.12-.9-.37-.5-.53-1.35-.41-1.8-1.01,.6-.42,1.04-.01,1.5,.29,.8,.63,1.18,.57,1.12-.58-.07-1.24,0-2.48-.02-3.72-.02-.76,.14-1.23,1.05-1.2,.82,.02,.99,.42,.99,1.13-.01,4.37,0,8.74-.01,13.11,0,.51-.03,1.04-.7,1.12-.5,.06-1.06,.11-1.18-.57-.13-.68-.43-.3-.69-.15-.64,.36-1.22,.87-2.03,.75Z"/><path class="cls-182" d="M356.1,36.79c-.29-.03-.64,.02-.87-.11-1.49-.87-2.77-.41-3.98,.57-.53,.43-1.02,.8-1.24-.25-.07-.36-.32-.48-.66-.44-.47,.06-.5,.42-.5,.78,0,2.74,.01,5.47,0,8.21,0,.94,.66,.82,1.24,.86-1.18,.52-1.83,.36-1.79-1.15,.07-2.57,0-5.15,.03-7.73,0-.52-.33-1.27,.63-1.39,.82-.11,1.47,.03,1.42,1.11,2.22-1.64,4.14-1.77,5.73-.46Z"/><path class="cls-182" d="M407.07,36.79c-.29-.03-.64,.02-.87-.11-1.49-.87-2.77-.41-3.98,.57-.53,.43-1.02,.8-1.24-.25-.07-.36-.32-.48-.66-.44-.47,.06-.5,.42-.5,.78,0,2.74,.01,5.47,0,8.21,0,.94,.66,.82,1.24,.86-1.18,.52-1.83,.36-1.79-1.15,.07-2.57,0-5.15,.03-7.73,0-.52-.33-1.27,.63-1.39,.82-.11,1.47,.03,1.42,1.11,2.22-1.64,4.14-1.77,5.73-.46Z"/><path class="cls-111" d="M468.47,36.2c-.53,.98-.27,2.04-.29,3.07-.04,2.03-.01,4.06,0,6.09,0,.43-.07,.97,.6,.96,.68,0,.58-.55,.59-.98,.01-1.39-.03-2.78,.02-4.16,.04-1.09,.18-2.18,1.2-2.87-1.09,2.23-.82,4.62-.84,6.98,0,.67,.19,1.39-.96,1.4-1.17,.01-1.1-.66-1.1-1.44,.01-2.68,0-5.35,.01-8.03,0-.5-.19-1.21,.77-1.02Z"/><path class="cls-101" d="M497.84,36.52c-1.05,.04-2.05,.18-2.89,.91-.8,.7-1.48,.49-2.18-.45,0,2.9,0,5.8,0,8.7,0,.87,.73,.62,1.21,.72-1.63,.44-1.77,.36-1.78-1.14,0-2.58,0-5.17,0-7.75,0-.44-.07-.97,.47-1.14,.53-.17,1.13-.2,1.4,.46,.27,.66,.51,.3,.83,.05,.87-.68,1.86-.91,2.95-.67,.07,.07,.1,.14,.07,.21-.03,.07-.06,.1-.08,.1Z"/><path class="cls-13" d="M202.83,36.2c-.53,.98-.27,2.04-.29,3.07-.04,2.03-.01,4.06,0,6.09,0,.43-.07,.97,.61,.96,.68,0,.58-.55,.58-.98,.01-1.39-.03-2.78,.02-4.16,.04-1.09,.18-2.18,1.2-2.87-1.09,2.23-.82,4.62-.84,6.98,0,.67,.19,1.39-.96,1.4-1.17,.01-1.1-.66-1.1-1.44,.01-2.68,0-5.35,.01-8.03,0-.5-.19-1.21,.77-1.02Z"/><path class="cls-76" d="M297.32,10.25c-1.93,2.24-1.64,3.76,.97,5.12,.22,.11,.45,.2,.66,.33,.75,.46,1.78,.82,1.4,1.96-.39,1.17-1.47,1.07-2.49,1.08-.54,0-1.37-1.2-1.63,.14-.22,1.16,.9,1.09,1.63,1.22,1.27,.23,2.45-.14,3.59-.66-.83,.98-4.23,1.38-5.21,.64-.56-.43-.62-1.03-.45-1.62,.21-.76,.86-.54,1.37-.43,.58,.12,1.15,.37,1.76,.22,.44-.11,.91-.22,1.02-.75,.11-.51-.19-.83-.62-1.07-.75-.4-1.5-.78-2.21-1.24-.99-.64-1.61-1.56-1.37-2.77,.18-.91,.22-2.05,1.57-2.17Z"/><path class="cls-15" d="M339.54,11.39c-.52-.03-1.16,.15-1.2-.71-.02-.34-.01-.78-.54-.67-.46,.1-.35,.54-.35,.87,0,2.73,0,5.46,0,8.19,0,.35-.01,.69-.02,1.04-.99,.04-.61-.73-.61-1.16-.04-2.57-.04-5.14,0-7.7,0-.54-.42-1.35,.63-1.53,.85-.14,1.4,.14,1.52,1.04,.65-.33,1.03-.95,1.75-.92-.12,.72-1.26,.68-1.18,1.55Z"/><path class="cls-13" d="M204.98,38.12c.08-.15,.16-.3,.25-.45,2.73-1.2,4.47-.07,4.5,2.93,.01,1.29-.07,2.59,.04,3.88,.05,.62-.56,1.81,.59,1.77,1.04-.04,.5-1.2,.53-1.85,.08-2.04,.04-4.08,.05-6.12,.79,2.53,.27,5.13,.38,7.69,.03,.72-.58,.66-1.08,.68-.63,.03-.91-.25-.9-.88,.02-1.14,0-2.29,0-3.43,0-.4,.01-.8,0-1.19-.12-3.46-1.1-4.15-4.35-3.04Z"/><path class="cls-73" d="M224.43,12.93c.19-1.21,1.32-2.44,2.43-2.34,1.03,.09,1.96,.53,2.41,1.68,1.02,2.61,.36,5.29,.48,7.94-.73-.28-.44-.92-.46-1.42-.05-1.69,0-3.38-.1-5.06-.06-1.04-.18-2.17-1.48-2.47-1.38-.33-2.43,.18-3.1,1.45-.04,.09-.12,.15-.19,.23Z"/><path class="cls-50" d="M505.33,46.39c.86,.08,1.27-.22,1.23-1.17-.07-1.64-.13-3.3,0-4.93,.2-2.26-1.02-3.66-3.34-3.79-.09-.07-.11-.14-.08-.2,.03-.06,.07-.09,.1-.09,2.38-.08,3.68,.99,3.82,3.37,.12,2.04,.09,4.09,.03,6.13-.04,1.45-.97,.98-1.77,.68Z"/><path class="cls-2" d="M326.28,16.21c.84,0,1,.63,.88,1.22-.15,.74-.59,1.39-1.48,1.44-.83,.04-1.67,.08-2.45-.13-.27,.45-.02,.6,.23,.78,1.36,.93,2.68,.44,3.92-.2,1.02-.52,1.11-1.55,1.06-2.58-.02-.3,0-.59,0-.89,.1-.12,.2-.12,.3,0,.4,1.39,.32,2.7-.93,3.63-1.44,1.07-3.07,.98-4.7,.47-.63-.2-.81-.71-.61-1.32,.25-.72,.78-.4,1.24-.28,.34,.08,.67,.2,1.01,.23,.73,.06,1.42-.1,1.84-.74,.4-.61-.04-1.12-.34-1.63Z"/><path class="cls-128" d="M482.22,36.56c-1.6-.69-1.87-.55-1.87,1.06,0,1.69,0,3.39,.03,5.08,.04,1.69,.61,3.11,2.19,3.97-1.24,.08-1.79-.8-2.12-1.73-.97-2.7-.46-5.52-.52-8.29,0-.46,.35-.77,.8-.71,.53,.07,1.39-.51,1.5,.61Z"/><path class="cls-10" d="M370.41,17.71c-.58-1.94-.24-3.92-.22-5.88,0-.82,.81-.5,1.3-.57,.54-.07,1.28,.23,1.27-.77,0-1.02-.78-.73-1.3-.71-.87,.02-1.54-.11-1.34-1.19,.32-1.7-.55-1.75-1.78-1.34,.31-.83,1.02-.75,1.63-.61,.67,.15,.49,.81,.45,1.26-.07,.97,.16,1.48,1.29,1.42,.8-.04,1.72,.17,1.65,1.26-.06,.94-.82,1.19-1.64,1.09-1.12-.13-1.33,.43-1.3,1.4,.05,1.54-.01,3.08-.02,4.62Z"/><path class="cls-79" d="M553.6,81.4c-1.76-2.85-4.04-3.21-8.47-1.24,.01-1.66,.35-3.05,1.86-3.93-.12,.21-.25,.42-.37,.63-.35,.63-1.19,1.3-.72,1.95,.46,.63,1.19-.2,1.8-.34,2.71-.62,5.9,.96,6.45,3.26-.3,.07-.39-.21-.57-.34Z"/><path class="cls-79" d="M340.73,81.4c-1.76-2.85-4.04-3.21-8.47-1.24,.01-1.66,.35-3.05,1.86-3.93-.12,.21-.25,.42-.37,.63-.35,.63-1.19,1.3-.72,1.95,.46,.63,1.19-.2,1.8-.34,2.71-.62,5.9,.96,6.45,3.26-.3,.07-.39-.21-.57-.34Z"/><path class="cls-176" d="M68.48,19.49c.91,.15,1.73,.76,2.72,.55,.42-.09,.81-.18,.85-.67,.05-.64-.47-.5-.84-.51-1.32-.05-1.83-.83-1.86-2.03-.03-1.33,.06-2.68-.04-4-.1-1.35,.34-1.96,1.74-1.74,.34,.05,.69,0,1.04,0-.1,.1-.18,.26-.29,.29q-2.1,.4-2.1,2.51c0,.94,0,1.88,0,2.82,.02,1.27,.6,1.98,1.95,1.74,.53-.09,.89-.07,.96,.54,.06,.53-.05,1.13-.6,1.21-1.23,.18-2.57,.6-3.53-.69Z"/><path class="cls-38" d="M386.66,16.35c1.35,3.28,3.88,4.55,7.22,3.68,.93-.24,1.53-.63,1.4-1.69-.14-.24-.16-.47,.06-.68,.71,.41,.74,1.07,.43,1.68-.29,.58-.77,1.03-1.52,1.03-1.49-.01-2.99,.07-4.48-.02-1.87-.11-3.19-1.89-3.11-4Z"/><path class="cls-31" d="M431.63,21.6c-.02-3.31-.03-6.63-.07-9.94,0-.41,.19-.95-.43-1.12-.54-.15-.66,.25-.81,.64-.13,.34-.48,.49-.68,.17-.47-.76-1.56-.66-1.95-1.49,.55-.18,.98,.18,1.37,.43,.56,.35,.9,.91,1.36-.19,.25-.59,1.54-.17,1.52,.56-.08,3.65,.45,7.31-.31,10.93Z"/><path class="cls-106" d="M541.81,46.64c-.95,.15-1.13-.35-1.13-1.21,0-1.09,.63-1.14,1.45-1.17,1.08-.04,.99,.66,1.04,1.37,.08,1.09-.6,1.06-1.36,1Z"/><path class="cls-146" d="M312.83,15.61c-.33-1.62-.08-3.26-.14-4.89-.02-.62-.21-.91-.87-.88-.53,.03-.86,.19-.83,.78,.13,2.85-.44,5.76,.69,8.53-.9-.46-.93-1.37-.96-2.16-.08-2.12-.02-4.25-.07-6.38-.02-.91,.46-1.05,1.21-1.06,.74,0,1.1,.24,1.07,1.03-.06,1.68-.08,3.36-.12,5.03Z"/><path class="cls-90" d="M91.65,42.27c.23-.59,.75-.39,1.16-.39,1.3-.03,2.6,0,3.89,0,1.92,0,2.08-.13,1.75-2.03-.24-1.37-.88-2.53-2.3-3.05-.29-.11-.55-.23-.66-.54,2.19,.37,4.12,3.27,3.57,5.33-.2,.76-.79,.62-1.31,.63-2.03,.04-4.06,.05-6.09,.08Z"/><path class="cls-175" d="M389.3,17.39c-.48-.36-.78-.89-.57-1.43,.25-.66,.96-.37,1.47-.38,1.45-.03,2.9-.06,4.34,0,1.05,.05,1.41-.24,1.28-1.35-.19-1.62-.83-2.94-2.05-4,1.58,.58,3.08,3.76,2.45,5.18-.24,.54-.71,.47-1.15,.47-1.65,.01-3.3,.06-4.94-.01-1.09-.05-1.21,.34-.77,1.18,.08,.13,.06,.25-.07,.33Z"/><path class="cls-49" d="M382.14,35.59c1.89,3.52,1.05,8.64-1.18,11.45,.91-2.48,1.95-4.92,1.76-7.67-.09-1.29-.79-2.46-.58-3.78Z"/><path class="cls-158" d="M429.75,21.43c.07,1.32-.63,1.9-1.89,1.92-1.41,.02-2.81,0-4.27,0,.31,1.18,2.1-.03,2.25,1.35-.77-.17-1.55-.31-2.31-.51-.66-.17-.59-.68-.48-1.2,.14-.65,.51-.54,1-.39,.75,.23,1.53,.42,2.3,.52,1.49,.2,2.56-.53,3.39-1.69Z"/><path class="cls-15" d="M345.54,20.07c0-1.44-.03-2.88,0-4.32,.05-1.83,.06-3.64-.87-5.3,.7,.34,.95,.99,1.08,1.67,.47,2.5,.22,5.02,.26,7.54,0,.29-.17,.44-.47,.42Z"/><path class="cls-182" d="M529.33,20.1c-.14-2.97,.31-5.97-.3-8.93,.07-.15,.16-.17,.28-.05,1.08,2.82,.49,5.75,.57,8.64,0,.29-.27,.37-.54,.34Z"/><path class="cls-182" d="M230.71,20.1c-.13-3,.29-6.02-.3-9,.88,.53,.76,1.48,.81,2.26,.11,1.98,.07,3.97,.08,5.95,0,.39,.04,.84-.59,.79Z"/><path class="cls-182" d="M527.29,11.39c.9,.76,1.2,1.71,1.15,2.88-.08,1.97-.05,3.95-.06,5.93-.69-.31-.41-.93-.43-1.42-.06-1.77-.06-3.54-.13-5.31-.02-.64-.22-1.26-.59-1.8-.1-.08-.12-.15-.07-.2,.04-.05,.08-.07,.12-.07Z"/><path class="cls-105" d="M395.11,32c.84-.09,1.11,.3,1.12,1.13,.02,.9-.38,1.1-1.17,1.08-.73-.02-1.24-.09-1.24-1.04,0-.94,.42-1.26,1.29-1.18Z"/><path class="cls-50" d="M136.27,20.1c-.13-2.88,.3-5.78-.3-8.65,.08-.13,.17-.16,.29-.04,1.07,2.72,.47,5.56,.56,8.35,0,.29-.27,.38-.54,.34Z"/><path class="cls-50" d="M383.92,20.1c-.13-2.88,.3-5.78-.3-8.65,.08-.14,.17-.15,.29-.04,1.07,2.72,.47,5.56,.56,8.35,0,.29-.27,.38-.54,.34Z"/><path class="cls-105" d="M153.48,34.19c-.84,.07-1.31-.1-1.31-1.03,0-.97,.46-1.17,1.3-1.18,.85,0,1.11,.35,1.12,1.17,0,.9-.38,1.17-1.1,1.04Z"/><path class="cls-105" d="M172.52,33.04c.16,.92-.26,1.21-1.08,1.17-.69-.03-1.28,0-1.28-.99,0-.91,.34-1.26,1.23-1.24,.77,.02,1.32,.17,1.13,1.06Z"/><path class="cls-17" d="M437.16,6.68c.17,.98-.36,1.13-1.12,1.13-.73,0-1.22-.11-1.22-1.03,0-.94,.42-1.18,1.26-1.17,.8,.01,1.26,.25,1.08,1.07Z"/><path class="cls-17" d="M332.6,7.78c-.77,.08-1.21-.13-1.21-1.03,0-.96,.45-1.15,1.28-1.15,.84,0,1.1,.35,1.11,1.15,.02,.9-.41,1.12-1.17,1.03Z"/><path class="cls-17" d="M63.61,6.72c.15,.88-.32,1.11-1.11,1.08-.7-.02-1.24-.05-1.25-1,0-.92,.37-1.21,1.24-1.2,.79,.01,1.25,.24,1.12,1.12Z"/><path class="cls-164" d="M54.97,34.18c-.8,.1-1.2-.16-1.19-1.05,.01-.86,.39-1.11,1.18-1.12,.8,0,1.16,.25,1.16,1.12,0,.88-.35,1.17-1.15,1.06Z"/><path class="cls-48" d="M22.95,19.48c0-.1-.06-.22-.02-.29,1.95-3.33,1.83-6.91,1.24-10.54,1.33,2.46,1.07,5.02,.39,7.58-.31,1.18-.7,2.35-1.62,3.25Z"/><path class="cls-15" d="M340.78,11.15c.49-1.15,1.32-.76,2.02-.35,1.04,.61,1.62,1.5,1.57,2.81-.08,2.17-.04,4.35-.05,6.53-.52-1.04-.16-2.14-.23-3.21-.07-.89,.02-1.79-.04-2.69-.16-2.6-.73-3.12-3.27-3.08Z"/><path class="cls-80" d="M254.4,80.78c1.51-1.43,2.2-3.07,1.59-5.19-.44-1.5-1.71-2.08-2.8-2.88,1.95,.03,3.25,2.06,3.56,4,.23,1.51-.91,3.44-2.34,4.07Z"/><path class="cls-163" d="M419.67,6.77c.15,.98-.47,1-1.18,1.02-.85,.03-1.12-.31-1.12-1.14,0-.91,.49-1.03,1.24-1.04,.84-.01,1.19,.33,1.06,1.15Z"/><path class="cls-140" d="M291.29,11.72c.18-1,.99-.57,1.55-.67,.43-.08,1,.03,1.02-.59,.02-.82-.68-.49-1.11-.56-.68-.11-1.25,.16-1.76,.6-.57,.48-1.17,1.23-1.56-.18-.16-.6-.76-.29-1.15-.42,.25-.36,.8-.35,.93-.21,1.04,1.17,1.9,.12,2.82-.16,.54-.16,1.07-.17,1.62-.02,.55,.15,.63,.54,.64,1.03,0,.61-.33,.78-.85,.74-.76-.06-1.47,.11-2.16,.43Z"/><path class="cls-134" d="M114.67,46.09c1.16,.11,2.3,.53,3.5,.29,.5-.1,1.06-.19,1-.84-.08-.9-.73-.35-1.13-.34-1.28,.03-2.6,.18-3.33-1.25,1.22,.71,2.44,1.31,3.91,.7,.44-.18,.91-.09,1.03,.51,.12,.65,.01,1.34-.7,1.42-1.44,.16-2.96,.59-4.27-.48Z"/><path class="cls-140" d="M49.34,40.69c-.54,.15-.99-.12-1.39-.4-.54-.37-1.05-.86-.89-1.59,.16-.75,.76-1.18,1.5-1.26,.72-.07,1.45-.02,2.2-.02,.07-.87-.92-.68-1.14-1.22,.46-.13,.9-.06,1.29,.19,.52,.33,.5,.83,.32,1.32-.2,.54-.61,.37-.99,.25-.24-.08-.47-.17-.72-.2-.78-.09-1.58,0-1.89,.82-.31,.82,.32,1.26,.98,1.59,.26,.13,.49,.33,.74,.49Z"/><path class="cls-69" d="M17.23,1.25c-2.07-.38-4.11-.99-6.25-.56-.91,.18-1.83,.35-2.74,.52C10,.06,11.97-.2,13.96,.14c1.11,.19,2.38,.19,3.27,1.11Z"/><path class="cls-93" d="M7.96,24.21c2.12,.33,4.2,1.03,6.4,.58,.96-.2,1.92-.37,2.88-.55-2.33,1.58-7.05,1.57-9.28-.03Z"/><path class="cls-156" d="M104.79,36.21c-.38,.46-.9,.58-1.46,.62-.58,.05-1.04,.27-1.12,1.15,1.1-.71,2.23-.66,3.33-.55,.84,.09,1.7,.34,1.61,1.51-1.19-1.56-2.67-1.38-4.28-.79-.35,.13-.91,.75-1.18-.13-.19-.62,.09-1.09,.67-1.3,.77-.29,1.53-.75,2.42-.5Z"/><path class="cls-104" d="M1.07,8.41c-.81,2.89-.81,5.77,0,8.66C-.18,15.83,0,14.11,.01,12.66c0-1.4-.19-3.07,1.06-4.26Z"/><path class="cls-31" d="M324.82,40.33c.21,1.45-.7,2.65-.93,4-.04,.24-.24,.45-.53,.44-.4-.01-.68-.3-.76-.62-.22-.85-.63-1.69-.42-2.61,.59,.67,.35,2.23,1.11,2.18,.74-.05,.7-1.51,1.04-2.33,.15-.36,.33-.71,.5-1.06Z"/><path class="cls-122" d="M132.39,83.11c1.04,.03,2.08,0,3.11,.09,1.69,.14,2.89,1.04,3.06,2.31,.07,.54,.28,1.22-.51,1.5,.51-3.01-1.26-3.2-3.58-3.54-.7-.1-1.49,.32-2.08-.36Z"/><path class="cls-122" d="M246.32,83.11c1.04,.03,2.08,0,3.11,.09,1.68,.14,2.88,1.04,3.07,2.31,.08,.54,.27,1.22-.52,1.5,.51-3.02-1.27-3.2-3.58-3.54-.7-.1-1.49,.32-2.08-.36Z"/><path class="cls-176" d="M441.75,19.19c.98,.41,1.89,1.07,3.06,.84,.42-.08,.8-.2,.82-.68,.03-.63-.49-.48-.85-.49-.68-.02-1.26-.17-1.46-.94,.65,.15,1.13,.86,1.92,.53,.42-.18,.81-.14,.92,.39,.11,.57,.02,1.09-.59,1.38-1.1,.52-3,0-3.82-1.03Z"/><path class="cls-92" d="M453.15,80.75c2.32-2.69,2.39-4.26,.33-7.16,1.73,.82,1.9,2.37,1.79,3.98-.1,1.42-.53,2.71-2.13,3.18Z"/><path class="cls-81" d="M261.56,90.67c2.91,.97,5.81,1.09,8.71-.04-2.24,1.61-6.54,1.63-8.71,.04Z"/><path class="cls-5" d="M453.68,11.65c.3-1.29-.31-1.77-1.54-1.86-1.64-.11-3.01,.33-4.03,1.66-.17-.59,.2-.89,.61-1.2,1.51-1.14,3.22-.77,4.84-.53,.99,.15,1,1.15,.12,1.93Z"/><path class="cls-92" d="M370.7,80.75c2.32-2.69,2.39-4.26,.33-7.16,1.73,.82,1.9,2.37,1.79,3.98-.1,1.42-.53,2.71-2.13,3.18Z"/><path class="cls-98" d="M553.6,81.4c.19,.11,.38,.22,.57,.34,.63,1.98,.75,3.96,.04,5.96-.2,.56-.3,1.15-.87,1.48,.95-2.56,1.37-5.14,.27-7.77Z"/><path class="cls-98" d="M340.73,81.4c.19,.11,.38,.22,.57,.34,.63,1.98,.75,3.96,.04,5.96-.2,.56-.3,1.15-.87,1.48,.95-2.56,1.37-5.14,.27-7.77Z"/><path class="cls-158" d="M427.09,24.6c.14-.34,.37-.63,.75-.61,1.66,.09,2.59-.84,3.28-2.19,.06-.13,.33-.15,.51-.22-.58,2.11-2.09,3.12-4.54,3.02Z"/><path class="cls-148" d="M243,43.99c-1.14-2.49-1.14-4.99,0-7.48-.54,2.49-.52,4.99,0,7.48Z"/><path class="cls-161" d="M42.16,72.67c-2.68-.59-5.27,.08-7.87,.6,.61-.93,1.7-.77,2.54-.91,1.76-.3,3.6-.67,5.32,.31Z"/><path class="cls-161" d="M565.65,72.67c-2.68-.59-5.27,.08-7.87,.6,.61-.93,1.7-.77,2.54-.91,1.76-.3,3.6-.67,5.32,.31Z"/><path class="cls-101" d="M493.97,46.41c-.01-2.07-.06-4.14-.02-6.2,.02-1.02,.37-1.91,1.54-2.16-.96,1.1-1.33,2.37-1.34,3.82-.01,1.51,.27,3.05-.19,4.54Z"/><path class="cls-142" d="M42.76,10.18c.86,2.23,1.31,4.56,1.76,6.89-.96-.92-.77-2.23-1.14-3.36-.38-1.15-.62-2.35-.93-3.53,.1-.15,.2-.14,.3-.01Z"/><path class="cls-33" d="M134.19,11.65c.52,.26,.51,.85,.8,1.25,.43,2.37,.24,4.75,.09,7.13-.73-1.43-.18-2.95-.31-4.42-.11-1.36,.06-2.76-.91-3.92,.09-.13,.2-.14,.32-.04Z"/><path class="cls-33" d="M381.84,11.65c.52,.26,.51,.85,.8,1.25,.43,2.37,.24,4.75,.09,7.13-.73-1.43-.18-2.95-.3-4.42-.11-1.36,.06-2.76-.91-3.92,.09-.13,.2-.15,.32-.04Z"/><path class="cls-13" d="M503.25,36.21c0,.1,0,.2-.02,.29-.23,.07-.47,.21-.7,.2-1.07-.03-1.39,1.71-2.38,1.25-.78-.36-1.4-1.15-2.31-1.43,0-.1,0-.2,.01-.3,1.22-.18,1.77,1.47,2.58,1.29,.82-.18,1.47-1.25,2.53-1.35,.09,0,.19,.03,.29,.05Z"/><path class="cls-71" d="M389.3,17.39c.02-.11,.05-.22,.07-.33,1.47,1.4,3.19,1.2,4.95,.78,.33-.08,.67-.11,1-.17-.02,.23-.04,.45-.06,.68-.59-.53-1.13-.02-1.65,.12-1.66,.46-3.14,.32-4.32-1.08Z"/><path class="cls-66" d="M107.14,38.93c.49,.18,.75,.52,.52,1.03-.19,.43-.58,.79-1.04,.7-1.24-.26-2.45,.23-3.68,.02,.92-.62,1.97-.59,2.99-.51,.98,.07,1.35-.29,1.21-1.24Z"/><path class="cls-37" d="M427.66,19.74c.3-.15,.6-.31,.91-.46,.52-.24,1.09-1.13,1.6-.35,.45,.7,.6,1.7-.4,2.32-.16-.61,.35-1.23-.03-1.86-.74,.04-1.26,.75-2.03,.69-.1-.06-.14-.13-.12-.21,.02-.08,.05-.12,.08-.12Z"/><path class="cls-7" d="M222.3,20.08c1.17,.12,1.7-.29,1.56-1.58-.13-1.23-.04-2.48-.01-3.73,.01-.58-.05-1.22,.57-1.59-.36,1.89-.25,3.8-.26,5.71-.01,1.56-.19,1.67-1.86,1.19Z"/><path class="cls-172" d="M253.19,72.71c-2.49-.6-4.99-.35-7.48,0,.33-.42,.79-.59,1.3-.6,1.63-.02,3.27-.02,4.9,0,.51,0,.97,.16,1.29,.61Z"/><path class="cls-40" d="M569.19,84.09c-.7-1.18-1.78-1.93-3.2-2.58,.9-.53,1.6-.94,2.3-1.35-.04,.79-.9,.8-1.25,1.37,.84,.73,2.21,1.06,2.14,2.56Z"/><path class="cls-50" d="M504.63,38.35c.89,0,.71,.67,.71,1.18,0,2.29,0,4.58,0,6.87-.45-1.7-.13-3.43-.19-5.15-.04-1-.06-1.98-.52-2.9Z"/><path class="cls-6" d="M301.72,11.67c.34-1.32-.32-1.76-1.53-1.85-1.01-.08-1.93,.23-2.89,.43,.79-.79,3.89-1.05,4.61-.33,.61,.61,.74,1.26-.19,1.75Z"/><path class="cls-40" d="M45.7,84.09c-.7-1.18-1.78-1.93-3.2-2.58,.9-.53,1.6-.94,2.3-1.35-.04,.79-.9,.8-1.25,1.37,.84,.73,2.21,1.06,2.14,2.56Z"/><path class="cls-22" d="M469.66,6.03c-2.15-1.38-4.49-1.34-6.88-.91,1.87-1.27,5.52-.79,6.88,.91Z"/><path class="cls-95" d="M195.03,18.56c1.15-1.86,1.17-3.9,.9-5.97,1.11,2.2,.78,4.39-.9,5.97Z"/><path class="cls-33" d="M430.4,36.82c.13,.37-.51,.73-.05,1.06,.33,.24,.64-.11,.96-.19,1.28-.31,2.6-.77,3.56,.64-1.26-.64-2.52-.74-3.86-.14-.33,.15-.92,.79-1.23,0-.22-.55-.24-1.21,.61-1.38Z"/><path class="cls-57" d="M38.56,14.99l-.57,2.79c-.95-1.26-1.1-2.48-1.29-3.68,1.05,.38,.35,1.52,1,2.21,.38-.39,.18-1.19,.87-1.31Z"/><path class="cls-13" d="M500.59,41.37c-.22-2.57,.83-4.1,2.72-3.98,.52,.03,1.01,.07,1.08,.74-1.62-.7-2.7-.26-3.34,1.41-.22,.58-.31,1.22-.46,1.83Z"/><path class="cls-130" d="M78.69,47.26c.02,.21,.04,.41,.06,.62-1.51,1.79-3.82,2.15-5.74,.9,.43,.06,.87,.07,1.29,.18,1.88,.49,3.37,0,4.39-1.7Z"/><path class="cls-154" d="M527.33,9.85c-1.48,.1-3.03-.16-4.13,1.32-.4,.54-.73,.16-.76-1.26l.47,.88c1.21-1.23,2.69-1.49,4.32-1.19,.1,.05,.14,.14,.1,.25Z"/><path class="cls-102" d="M560.52,18.58c.78-1.71,.77-3.42,.01-5.13,1.5,1.6,1.49,3.52-.01,5.13Z"/><path class="cls-159" d="M552.43,75.66c1.1-.81,1.06-1.85,.59-2.96,1.42,.17,.74,1.12,.61,1.78-.41,1.96-.52,1.99-2.39,1.19,.4-.29,.8-.16,1.19,0Z"/><path class="cls-154" d="M527.29,11.39c-.02,.09-.03,.18-.05,.27-1.91-.96-2.84-.68-4.19,1.26,.35-2.14,2.26-2.83,4.24-1.53Z"/><path class="cls-131" d="M230.12,10.79c-1.26-1.01-2.7-1.07-4.2-.82-.14,.07-.25,.05-.34-.09,1.15-.75,2.35-.6,3.55-.19,.49,.17,1.06,.37,.98,1.1Z"/><path class="cls-159" d="M339.55,75.66c1.1-.81,1.06-1.85,.59-2.96,1.42,.17,.74,1.12,.61,1.78-.41,1.96-.52,1.99-2.39,1.19,.4-.29,.8-.16,1.19,0Z"/><path class="cls-91" d="M494.54,5.41c-1.9-.39-3.81-.29-5.72-.02,1.91-.96,3.82-1.1,5.72,.02Z"/><path class="cls-128" d="M49.01,10.19c-.32,1.85-.89,3.62-1.45,5.4-.11,.14-.22,.14-.32-.01,.4-1.53,.81-3.06,1.19-4.6,.09-.36,.19-.67,.58-.79Z"/><path class="cls-111" d="M470.62,38.12c.08-.15,.16-.3,.24-.45,1.01-.51,2.03-.88,3.11-.2,.54,.34,.93,.76,.77,1.47-1.11-1.6-1.54-1.69-4.13-.82Z"/><path class="cls-125" d="M159.03,11.72c-.39-.24-.46-.65-.49-1.03-.1-1.11-.95-.93-1.55-.77-.76,.19-.25,.8-.16,1.22,.07,.28,.26,.54,.16,.85-.73-.52-.91-1.39-.67-2.06,.24-.66,1.16-.43,1.73-.31,1.16,.24,.87,1.3,.99,2.11Z"/><path class="cls-50" d="M135.08,20.03c.06-2.38,.17-4.76-.09-7.13,.52,.27,.37,.77,.37,1.19,0,2.04-.02,4.07-.04,6.11-.1-.02-.18-.08-.24-.16Z"/><path class="cls-129" d="M170.11,12.22c.02,1.86-.55,3.55-1.45,5.15-.5-.61,.08-1.02,.27-1.5,.41-1.21,.58-2.5,1.18-3.65Z"/><path class="cls-9" d="M57.69,11.37c.23-.08,.45-.19,.68-.22,.5-.07,1.17,.18,1.13-.74-.04-.82-.65-.74-1.18-.78-.3-.02-.59-.01-.89-.02,.44-.89,1.12-.6,1.77-.33,.7,.29,.77,.93,.61,1.5-.36,1.23-1.37,.49-2.11,.6Z"/><path class="cls-50" d="M382.73,20.03c.06-2.38,.17-4.76-.09-7.13,.52,.27,.37,.77,.37,1.19,0,2.04-.02,4.07-.04,6.11-.1-.02-.18-.08-.24-.16Z"/><path class="cls-9" d="M168.93,15.87l-.27,1.5c-.17,.41-.34,.89-.68,.12-.4-.9-.66-1.84-.81-2.81,.91,.31,.35,1.41,1.01,1.85l.76-.66Z"/><path class="cls-78" d="M165.65,15.28c1.03,1.41,1.42,3.03,1.51,4.74-.8-1.49-1.13-3.12-1.51-4.74Z"/><path class="cls-18" d="M273.89,36.23l-.37,.55c-.87,.71-1.67,1.48-2.35,2.38l-.59,.63c.35-2.13,1.35-3.21,3.31-3.57Z"/><path class="cls-147" d="M170.12,17.96c.32-1.66,.83-3.26,1.51-4.8-.02,1.75-.51,3.36-1.51,4.8Z"/><path class="cls-15" d="M338.67,15.44c-.05-1.43-.24-2.88,.88-4.05,.39-.21,.79-.37,1.25-.26-1.69,.95-1.82,2.68-2.13,4.31Z"/><path class="cls-132" d="M552.43,75.66c-.4,0-.8,0-1.19,0-1.21-.57-2.41-.03-3.61,.03,1.05-.87,3.36-.88,4.8-.03Z"/><path class="cls-132" d="M339.55,75.66c-.4,0-.8,0-1.19,0-1.21-.57-2.41-.03-3.61,.03,1.05-.87,3.36-.88,4.8-.03Z"/><path class="cls-26" d="M559.32,75.7c1.38-.91,3.85-.89,5.06,.05-1.68-.51-3.37-.21-5.06-.05Z"/><path class="cls-26" d="M35.83,75.7c1.38-.91,3.85-.89,5.06,.05-1.68-.51-3.37-.21-5.06-.05Z"/><path class="cls-24" d="M519.7,43.68c.34-1.59,.39-3.17,0-4.76,.93,1.03,.94,3.71,0,4.76Z"/><path class="cls-21" d="M450.78,84.66c.95,.5,.73,1.43,.49,2.08-.35,.95-1.15,1.58-2.29,1.51,2.18-1.39,2.29-1.63,1.81-3.59Z"/><path class="cls-160" d="M160.48,17.42c-.46-1.07-.65-2.2-.84-3.33,.74,.27,.57,.96,.68,1.52,.17,.91,.63,.64,1.11,.27,.33,.37,.03,.68-.11,1.01-.27,.19-.34,.71-.84,.54Z"/><path class="cls-11" d="M510.13,19.79c1.71,.63,3.41,.74,5.11-.03-1.38,1.33-3.58,1.35-5.11,.03Z"/><path class="cls-58" d="M193.24,36.23c-1.31,.75-2.71,1.39-3.65,2.65,.6-1.73,1.91-2.49,3.65-2.65Z"/><path class="cls-21" d="M368.33,84.66c.95,.5,.73,1.43,.49,2.08-.35,.95-1.15,1.58-2.29,1.51,2.18-1.39,2.29-1.63,1.81-3.59Z"/><path class="cls-126" d="M236.71,20.34c1.21-.06,2.46,.14,3.56-.59,.15-.13,.27-.11,.36,.06-1.65,1.3-2.64,1.43-3.93,.54Z"/><path class="cls-133" d="M47.24,15.58h.32l-.59,2.17c-.79-.66-.81-1.44-.96-2.17-.15-.22-.16-.42,.04-.62,.53,.37,.14,1.15,.73,1.52l.47-.91Z"/><path class="cls-126" d="M93.4,20.34c1.33,.02,2.65,.01,3.88-.59-1.27,1.3-2.6,1.5-3.88,.59Z"/><path class="cls-97" d="M319.2,38.55c.72,1.33,1.17,2.76,1.51,4.23-.97-1.24-1.43-2.67-1.51-4.23Z"/><path class="cls-80" d="M255.58,83.18c-.77-.62-1.59-1.17-2.59-1.58,.4-.56,.88-.73,1.41-.83-.24,.42-.73,.84,.16,1.15,.54,.19,1.03,.55,1.02,1.25Z"/><path class="cls-157" d="M551.56,7.22c-.19,1.25,0,2.44,.58,3.56-1.35-1.23-1.52-2.31-.58-3.56Z"/><path class="cls-36" d="M137.79,76.24c1.28,1.42,.95,2.63-.92,3.36,1.12-.9,1.46-2.01,.92-3.36Z"/><path class="cls-101" d="M495.48,38.06c.42-1.19,1.43-.72,2.09-.54,.93,.26,1.38,1.07,1.14,2.1-.89-2-1.29-2.2-3.22-1.57Z"/><path class="cls-19" d="M429.79,41.3c-.95,1.29-1.12,2.69-.6,4.19-1.06-1.44-.83-3.04,.6-4.19Z"/><path class="cls-180" d="M537.75,83.12c-.59-.42-1.16-.89-1.77-1.26-1.03-.63-.57-.9,.23-1.13-.2,.48-.05,.75,.41,1.02,.52,.3,1.06,.67,1.13,1.38Z"/><path class="cls-180" d="M158.18,83.12c-.59-.42-1.16-.89-1.77-1.26-1.03-.63-.57-.9,.23-1.13-.2,.48-.05,.75,.41,1.02,.52,.3,1.06,.67,1.13,1.38Z"/><path class="cls-63" d="M41.22,75.99c1.53,1.01,1.53,2.31,0,3.28,.83-1.09,.8-2.19,0-3.28Z"/><path class="cls-110" d="M410.89,10.21l-1.5-.29c-1.03-.28-1.99,.15-2.97,.31,1.05-.95,3.36-.96,4.46-.02Z"/><path class="cls-19" d="M248.11,41.31c-.89,1.29-1.16,2.68-.61,4.18-1.06-1.44-.83-3.06,.61-4.18Z"/><path class="cls-151" d="M426.43,42.15c.98-.77,.11-1.78,.35-2.65,1.04,1.2,.87,2.41-.35,2.65Z"/><path class="cls-63" d="M564.71,75.99c1.53,1.01,1.53,2.31,0,3.28,.83-1.09,.8-2.19,0-3.28Z"/><path class="cls-27" d="M141.65,83.18c-.74-.67-1.61-1.14-2.49-1.58,.16-.56,.6-.51,.97-.59-.17,.47,.04,.7,.46,.89,.55,.25,1.07,.56,1.06,1.28Z"/><path class="cls-173" d="M381.84,11.65l-.32,.04c-1.17-.69-2.21-.17-3.25,.36,.69-1.21,2.26-1.39,3.58-.4Z"/><path class="cls-173" d="M134.19,11.65l-.32,.04c-1.17-.69-2.21-.17-3.25,.36,.69-1.21,2.26-1.39,3.58-.4Z"/><path class="cls-13" d="M204.91,37.4c-1.41,.64-1.11-.45-1.19-1.17,.38,.73,.83,.95,1.48,.24,.23-.25,.55-.4,.92-.3-.17,.64-1.01,.61-1.21,1.22Z"/><path class="cls-15" d="M344.69,10.46c-1.31-.32-2.61-.73-4-.6,1.44-.54,2.81-.58,4,.6Z"/><path class="cls-1" d="M74.19,16.48c.66,1.03,1.23,2.12,2.11,3-1.39-.52-1.97-1.6-2.11-3Z"/><path class="cls-1" d="M276.56,16.48c.66,1.03,1.23,2.12,2.11,3-1.39-.52-1.97-1.6-2.11-3Z"/><path class="cls-166" d="M553.28,11.74c.69,.39,.7,.41,.2,.82-.64,.53-1.31,1.02-1.97,1.53-.02-.79,.65-1.07,1.14-1.44,.33-.25,.66-.44,.63-.91Z"/><path class="cls-47" d="M527.33,9.85c-.06-.07-.09-.15-.1-.25,1.14-.1,1.86,.37,2.08,1.53-.09,.04-.18,.05-.28,.05-.34-.74-1.11-.91-1.7-1.33Z"/><path class="cls-73" d="M225.59,9.88c.11,.03,.22,.06,.34,.09-.27,.22-.52,.46-.81,.64-.36,.21-.44,.96-1.01,.66-.54-.28-.25-.89-.29-1.36,.41,.13,.13,.63,.45,.8l1.33-.82Z"/><path class="cls-149" d="M46.04,14.97l-.04,.62c-.8-.93-.65-2.15-.97-3.22l.08-.16c.13-.04,.22,0,.29,.12l.64,2.65Z"/><path class="cls-88" d="M190.52,45.21l3.06,1.43c-1.35,.23-2.36-.27-3.06-1.43Z"/><path class="cls-76" d="M253.48,10.21c-1.29-.54-2.59-.48-3.88,0,1.04-.94,2.87-.94,3.88,0Z"/><path class="cls-94" d="M140.47,44.88c.8,.76,1.71,1.36,2.74,1.75-1.38,.13-2.32-.4-2.74-1.75Z"/><path class="cls-169" d="M241.76,34.67c-.36,1.02-.32,2.19-1.16,3.03,.01-1.09,.52-2.03,.88-3.02,.09-.11,.18-.12,.28-.02Z"/><path class="cls-44" d="M41.51,11.08c-.08-.74-.01-1.46,.34-2.12,.13-.24,.29-.61,.64-.44,.28,.14,.24,.5,.17,.79-.19,.08-.39,.12-.58,.22-.46,.41-.03,1.16-.57,1.54Z"/><path class="cls-76" d="M255.95,10.23c-.47,.45-.74,1.15-1.55,1.15l-.92-1.17c.82,.49,1.64,.39,2.47,.02Z"/><path class="cls-84" d="M324.88,11.72c.97-1.04,1.97-.9,2.99-.06-1-.14-2-.4-2.99,.06Z"/><path class="cls-25" d="M526.03,36.21l-2.69,1.5c.61-1.01,1.51-1.5,2.69-1.5Z"/><path class="cls-25" d="M373.12,36.21l-2.69,1.5c.61-1.01,1.51-1.5,2.69-1.5Z"/><path class="cls-55" d="M222.6,42.8l1.52,2.68c-1.03-.6-1.49-1.52-1.52-2.68Z"/><path class="cls-167" d="M313.47,20.34l2.39,.02c-.8,.97-1.6,.73-2.39-.02Z"/><path class="cls-94" d="M241.76,34.67c-.09,0-.19,0-.28,.02,.25-1.03,.63-2,1.53-2.66-.18,.99-.95,1.71-1.25,2.64Z"/><path class="cls-28" d="M422.27,16.48l1.5,2.71c-1.05-.6-1.39-1.59-1.5-2.71Z"/><path class="cls-85" d="M437.57,81.69c-.81-.06-.65-.47-.25-.83,.43-.39,.95-.7,1.43-1.04,.18,.98-1.28,.94-1.18,1.87Z"/><path class="cls-85" d="M355.12,81.69c-.81-.06-.65-.47-.25-.83,.43-.39,.95-.7,1.43-1.04,.18,.98-1.28,.94-1.17,1.87Z"/><path class="cls-143" d="M224.42,45.77l2.73,.87c-1.05,.16-2.05,.15-2.73-.87Z"/><path class="cls-61" d="M341.6,46.63c.91-.39,1.82-.77,2.74-1.16-.63,1.06-1.6,1.3-2.74,1.16Z"/><path class="cls-61" d="M295.13,46.63l2.74-1.16c-.63,1.06-1.6,1.3-2.74,1.16Z"/><path class="cls-55" d="M417.81,43.09c.68,.69,1.09,1.54,1.48,2.4-.94-.52-1.36-1.37-1.48-2.4Z"/><path class="cls-162" d="M302.32,18.26l.04-2.08c1.05,.72,.64,1.4-.04,2.08Z"/><path class="cls-146" d="M40.67,6.63c.11,.97-.25,1.83-.63,2.68-.11-.97-.02-1.89,.63-2.68Z"/><path class="cls-45" d="M162.96,11.09l-.36,1.73c-.12,.23-.06,.52-.29,.71-.14,.04-.25,0-.33-.11,.37-.76,.05-1.81,.98-2.34Z"/><path class="cls-130" d="M73,48.78c-1.02,.16-.91,.78-.59,1.48-1.09-.14-.67-.92-.5-1.42,.23-.66,.7-.51,1.1-.06Z"/><path class="cls-70" d="M48.14,19.49c.08-.97,.1-1.97,.9-2.71-.24,.92-.23,1.93-.9,2.71Z"/><path class="cls-127" d="M76.9,10.19l-1.83,1.47c.28-.9,.87-1.42,1.83-1.47Z"/><path class="cls-98" d="M60.77,80.74c-.7-.38-1.36-.81-1.86-1.44,.87,.16,1.55,.57,1.86,1.44Z"/><path class="cls-87" d="M517.6,12.03c-.5-.6-1-1.2-1.5-1.8,1.07,.13,1.42,.85,1.5,1.8Z"/><path class="cls-98" d="M173.21,80.74c-.7-.38-1.36-.81-1.86-1.44,.87,.16,1.55,.57,1.86,1.44Z"/><path class="cls-98" d="M470.33,80.74c-.7-.38-1.36-.81-1.86-1.44,.87,.16,1.55,.57,1.86,1.44Z"/><path class="cls-103" d="M317.02,19.74c.25-.38,.56-.85,1.01-.72,.46,.12,.25,.66,.23,1.04l-.89-.26c-.14,.13-.26,.11-.35-.05Z"/><path class="cls-34" d="M240.64,19.8l-.36-.06c.25-.37,.56-.84,1.01-.72,.45,.12,.25,.66,.23,1.03l-.88-.25Z"/><path class="cls-65" d="M136.25,11.41c-.09,.04-.19,.06-.29,.04-.32-.32-.64-.64-.96-.96-.09-.12-.08-.21,.05-.29,.75,.05,1.16,.44,1.2,1.2Z"/><path class="cls-127" d="M279.28,10.19c-.61,.49-1.22,.98-1.83,1.47,.28-.9,.87-1.42,1.83-1.47Z"/><path class="cls-65" d="M383.9,11.41c-.09,.04-.19,.06-.29,.04-.32-.32-.64-.64-.96-.96-.09-.12-.08-.21,.05-.29,.75,.05,1.16,.44,1.2,1.2Z"/><path class="cls-149" d="M45.04,12.36c-.33-.8-.67-1.6-.49-2.5,.12-.09,.2-.07,.23,.08-.01,.09,0,.17,.05,.25,.24,.66,.63,1.3,.34,2.05l-.13,.12Z"/><path class="cls-70" d="M49.04,16.79c-.11-.79-.06-1.53,.6-2.1,.12,.79-.25,1.44-.6,2.1Z"/><path class="cls-107" d="M76.91,82.85c-.79-.12-1.25-.73-1.79-1.21,.87,0,1.39,.53,1.79,1.21Z"/><path class="cls-173" d="M379.72,9.86c-.36,.77-1.14,.73-1.8,.93,.42-.65,1.06-.89,1.8-.93Z"/><path class="cls-173" d="M132.07,9.86c-.36,.77-1.14,.73-1.8,.93,.42-.65,1.06-.89,1.8-.93Z"/><path class="cls-111" d="M470.54,37.4c-1.38,.61-1.11-.45-1.18-1.16,.59-.04,.1,1,.83,.83,.11-.11,.23-.1,.34,0l.02,.33Z"/><path class="cls-3" d="M91.29,18.57c.61,.4,1.11,.9,1.5,1.51-.84-.17-1.38-.63-1.5-1.51Z"/><path class="cls-60" d="M370.43,90.35c.39-.61,.9-1.1,1.49-1.5-.15,.84-.65,1.34-1.49,1.5Z"/><path class="cls-60" d="M452.89,90.35c.39-.61,.9-1.1,1.49-1.5-.15,.84-.65,1.34-1.49,1.5Z"/><path class="cls-16" d="M355.7,90.62c.41-.59,.91-1.1,1.5-1.51-.12,.89-.63,1.38-1.5,1.51Z"/><path class="cls-16" d="M438.15,90.62c.41-.59,.91-1.1,1.5-1.51-.11,.89-.63,1.38-1.5,1.51Z"/><path class="cls-83" d="M322.76,14.07l1.5,1.2c-.76-.07-1.39-.32-1.5-1.2Z"/><path class="cls-72" d="M364.43,36.21c-.49,.56-1.11,.68-1.81,.59,.53-.43,1.08-.77,1.81-.59Z"/><path class="cls-8" d="M161.16,16.78c.16-.28,.36-.55,.27-.9,.05-.07,.07-.15,.06-.24,.05-.15,.14-.16,.25-.06,.03,.67,.18,1.38-.57,1.82-.2-.2-.2-.4-.02-.61Z"/><path class="cls-20" d="M44.78,9.95c-.08-.02-.16-.05-.23-.08,.03-.61-.53-1.12-.34-1.76,.83,.42,.62,1.15,.57,1.84Z"/><path class="cls-50" d="M382.7,10.21c-.01,.1-.03,.19-.05,.29-.58,0-1.18,.07-1.44-.63,.57-.21,1,.22,1.49,.35Z"/><path class="cls-45" d="M161.74,15.57c-.09,0-.17,.03-.25,.06-.18-.81,.19-1.5,.49-2.2l.16,.12c.22,.74-.11,1.38-.4,2.02h0Z"/><path class="cls-50" d="M135.05,10.21c-.01,.1-.03,.19-.05,.29-.58,0-1.18,.07-1.44-.63,.57-.21,1,.22,1.49,.35Z"/><path class="cls-42" d="M526.58,74.12c-.19,.58-.19,1.26-.88,1.55,0-.68,.25-1.23,.88-1.55Z"/><path class="cls-20" d="M45.17,12.24l-.34-2.05c.68,.58,.62,1.35,.57,2.12-.09,.01-.16-.01-.23-.07Z"/><path class="cls-110" d="M39.71,46.37l.89-.92c.74,.12,.46,.56,.3,.95-.39-.35-.8,.08-1.19-.03Z"/><path class="cls-4" d="M355.7,21.52c-.04,.74-.4,1.18-1.18,1.22l1.18-1.22Z"/><path class="cls-67" d="M322.74,49.65c.12-.6,.27-1.19,.91-1.48-.15,.58-.28,1.18-.91,1.48Z"/><path class="cls-82" d="M427.66,19.74l.04,.33c-.63,.22-1.25,.27-1.89,.03l1.85-.36Z"/><path class="cls-168" d="M328.76,15.86h-.3l-.94-1.16c.76,.02,1.13,.45,1.24,1.16Z"/><path class="cls-123" d="M143.16,36.22c-.33,.66-.92,.64-1.52,.58,.42-.42,.88-.72,1.52-.58Z"/><path class="cls-112" d="M330.22,89.46c.56,.24,.95,.65,1.22,1.19-.69-.11-1.09-.51-1.22-1.19Z"/><path class="cls-112" d="M543.1,89.46c.56,.24,.95,.65,1.22,1.19-.69-.11-1.09-.51-1.22-1.19Z"/><path class="cls-137" d="M198.04,37.7c-.6-.05-.97-.38-1.2-.92,.58,.07,.99,.36,1.2,.92Z"/><path class="cls-137" d="M404.88,17.98c.54,.22,.86,.6,.92,1.19-.54-.22-.86-.61-.92-1.19Z"/><path class="cls-130" d="M470.52,37.07h-.34c.25-.56,.68-.83,1.28-.86-.12,.5-.66,.53-.94,.86Z"/><path class="cls-107" d="M75.13,81.64c-.27,.03-.55-.01-.49-.35,.06-.39,.37-.56,.76-.52l-.27,.87Z"/><path class="cls-72" d="M362.62,36.79c-.24,.53-.58,.92-1.24,.88,.31-.43,.65-.83,1.24-.88Z"/><path class="cls-7" d="M40.9,46.4c.11-.38,.02-.7-.3-.95,1.24-.22,.35,.81,.67,1.13-.19,.08-.3,0-.37-.18Z"/><path class="cls-167" d="M317.02,19.74l.35,.05c-.35,.61-.9,.69-1.53,.56l1.17-.61Z"/><path class="cls-83" d="M324.26,15.27c.51-.03,.88,.26,1.22,.59-.55,.1-.99-.02-1.22-.59Z"/><path class="cls-173" d="M377.63,13.19c-.07-.55,0-1.02,.66-1.17-.22,.39-.44,.78-.66,1.17Z"/><path class="cls-62" d="M452.23,16.79c.27,.08,.53,.22,.53,.54,0,.31-.27,.31-.49,.34-.01-.29-.03-.59-.04-.88Z"/><path class="cls-173" d="M129.97,13.19c-.07-.55,0-1.02,.66-1.17-.22,.39-.44,.78-.66,1.17Z"/><path class="cls-9" d="M57.43,9.61c-.36,.28-.7,.59-1.17,.65,.17-.61,.59-.78,1.17-.65Z"/><path class="cls-116" d="M424.98,10.17c-.3,.4-.65,.68-1.19,.62,.3-.4,.64-.71,1.19-.62Z"/><path class="cls-178" d="M42.09,9.54c.02-.51,.27-.43,.58-.22l.1,.86h-.3c-.12-.21-.25-.42-.37-.64Z"/><path class="cls-181" d="M16.15,12.54c0,1.69-.04,3.19,.01,4.67,.03,.95-.26,1.32-1.27,1.3-3.52-.05-2.97,.16-3.01-2.93-.01-.99,0-1.99,0-2.98,0-.92-.32-1.01-1.08-.54-1.25,.79-2.47,.17-2.8-1.33-.13-.58,.27-.8,.63-1.05,1.06-.74,2.17-1.41,3.2-2.2,1.16-.88,2.46-.62,3.74-.61,.72,0,.69,.61,.69,1.09,0,1.59,.1,3.18-.11,4.57Z"/><path class="cls-39" d="M351.19,88.67c-1.75,0-2.97-1.08-2.95-2.64,.02-1.31,1.42-2.85,2.58-2.82,1.31,.03,3.1,1.85,3.08,3.12-.03,1.39-1.12,2.33-2.71,2.33Z"/><path class="cls-108" d="M351.18,75.17c1.4,0,2.45,1,2.43,2.28-.02,1.07-1.42,2.65-2.31,2.6-1.34-.08-3.01-1.64-2.96-2.76,.05-1.16,1.35-2.12,2.83-2.11Z"/><path class="cls-39" d="M433.67,88.67c-1.75,.02-2.98-1.05-2.98-2.6,0-1.32,1.38-2.86,2.55-2.86,1.29,0,3.12,1.82,3.11,3.09,0,1.39-1.09,2.35-2.68,2.37Z"/><path class="cls-108" d="M433.57,75.17c1.41-.01,2.47,.94,2.49,2.22,.02,1.04-1.37,2.68-2.25,2.67-1.26-.02-3.02-1.61-3.02-2.72,0-1.15,1.3-2.16,2.78-2.17Z"/><path class="cls-53" d="M152.46,88.67c-1.7,0-2.96-1.17-2.92-2.69,.04-1.3,1.48-2.82,2.64-2.77,1.5,.06,3.04,1.68,2.99,3.16-.04,1.44-1.07,2.31-2.71,2.3Z"/><path class="cls-77" d="M154.54,78.35c-.64,.87-1.01,2.15-2.58,1.45-1.13-.51-2.2-1.07-2.24-2.47-.03-1.01,.67-1.62,1.57-1.96,1.31-.49,2.42-.22,3.24,.97,.35,.67,.47,1.33,.02,2.01Z"/><path class="cls-99" d="M154.54,78.35c0-.67-.01-1.34-.02-2.01,.73,.66,.87,1.33,.02,2.01Z"/><path class="cls-43" d="M266.69,88.56c-1.48,.33-2.74-.05-3.45-1.41-.59-1.14-.25-2.23,.69-3.11,1.21-1.13,2.4-1.05,3.81,.24,1.15,1.06,1.21,2.41,.15,3.66-.39,.22-.88,.26-1.19,.62Z"/><path class="cls-108" d="M265.83,75.17c1.42-.03,2.52,.91,2.55,2.18,.03,1.04-1.32,2.68-2.22,2.72-1.2,.05-3.04-1.56-3.05-2.67,0-1.2,1.21-2.2,2.72-2.23Z"/><path class="cls-41" d="M266.69,88.56c.21-.56,.66-.66,1.19-.62-.28,.42-.66,.67-1.19,.62Z"/><path class="cls-53" d="M71.6,88.67c-1.71,.02-3-1.1-3.01-2.6,0-1.29,1.38-2.84,2.55-2.86,1.44-.02,3.1,1.63,3.09,3.08,0,1.44-1.03,2.37-2.64,2.39Z"/><path class="cls-77" d="M73.59,78.35c-.63,.88-1.02,2.15-2.57,1.45-1.13-.51-2.2-1.06-2.24-2.47-.03-1.02,.68-1.62,1.57-1.95,1.31-.49,2.42-.23,3.23,.97,.35,.67,.47,1.33,.02,2.01Z"/><path class="cls-99" d="M73.59,78.35c0-.67-.01-1.34-.02-2.01,.74,.66,.88,1.33,.02,2.01Z"/><path class="cls-53" d="M531.99,88.67c-1.63-.02-2.86-1.13-2.87-2.58-.01-1.3,1.35-2.85,2.53-2.88,1.42-.04,3.09,1.61,3.1,3.06,0,1.51-1.05,2.43-2.76,2.4Z"/><path class="cls-77" d="M534.11,78.35c-.64,.87-1.01,2.16-2.58,1.45-1.13-.51-2.2-1.07-2.24-2.47-.03-1.01,.67-1.62,1.57-1.96,1.31-.49,2.42-.22,3.24,.97,.35,.67,.47,1.33,.02,2.01Z"/><path class="cls-99" d="M534.11,78.35c0-.67-.01-1.34-.02-2.01,.73,.66,.87,1.33,.02,2.01Z"/><path class="cls-39" d="M170.53,85.4c.06,.62-.15,1.28-.45,1.91-.41,.88-1.1,1.36-2.11,1.36-1.6,0-2.57-1.09-2.68-3.08-.12-2.2,.82-3.73,2.38-3.86,1.68-.14,2.87,1.34,2.86,3.67Z"/><path class="cls-39" d="M58.09,85.41c.06,.62-.16,1.28-.46,1.91-.51,1.08-1.41,1.47-2.57,1.32-1.43-.18-2.28-1.53-2.22-3.52,.06-2.03,.95-3.29,2.4-3.4,1.68-.13,2.86,1.36,2.84,3.69Z"/><path class="cls-39" d="M462.36,85.18c.11-.54,.16-1.19,.37-1.79,.36-1.02,1.1-1.63,2.22-1.66,1.06-.03,1.79,.5,2.23,1.43,.55,1.17,.64,2.37,.23,3.61-.42,1.28-1.21,2.02-2.63,1.89-1.35-.12-1.99-.97-2.24-2.2-.08-.39-.11-.78-.18-1.28Z"/><path class="cls-39" d="M237.51,85.2c.05,.76-.14,1.48-.49,2.15-.44,.85-1.13,1.33-2.14,1.33-1.07,0-1.83-.51-2.24-1.42-.63-1.38-.58-2.81,.07-4.17,.82-1.72,3.06-1.86,4.12-.27,.47,.71,.71,1.52,.69,2.39Z"/><path class="cls-46" d="M231.93,79.87c.29,.31,.58,.1,.88,0-.04,.58-.32,1.01-.92,.79-.42-.15-.3-.54,.05-.79Z"/><path class="cls-59" d="M550.6,85.32c.06,.77-.16,1.49-.53,2.14-.88,1.57-3.05,1.66-4.1,.2-.93-1.29-.86-3.79,.14-5.05,1.04-1.31,3.01-1.18,3.89,.3,.44,.73,.67,1.54,.6,2.41Z"/><path class="cls-59" d="M337.74,85.24c.01,2.09-1.04,3.44-2.67,3.42-1.56-.02-2.63-1.34-2.66-3.32-.04-2.1,1.11-3.65,2.7-3.62,1.55,.02,2.63,1.46,2.64,3.52Z"/><path class="cls-23" d="M556.29,18.34c-1.72-.03-2.97-1.09-2.96-2.5,0-1.24,1.54-2.81,2.68-2.76,1.49,.07,3.17,1.71,3.12,3.06-.05,1.34-1.2,2.23-2.84,2.2Z"/><path class="cls-141" d="M558.66,7.9v1.31c-.31,1.06-.87,1.91-2.06,2.01-.92,.08-2.8-1.24-3.08-2.06-.46-1.34,1.36-3.13,2.95-2.78,.86,.19,1.87,.43,2.19,1.52Z"/><path class="cls-73" d="M558.66,7.9c-1.34-1.37-2.94-1.63-4.21-.69-1.02,.76-1.19,1.85-.19,2.6,2.28,1.72,2.58,1.97,4.4-.61-.2,1.83-1.49,2.67-3.09,1.96-.97-.43-1.94-.94-2.22-2.05-.18-.72-.18-1.54,.56-2.03,.86-.57,1.8-1.35,2.84-.91,.74,.32,2.02,.35,1.91,1.72Z"/><path class="cls-184" d="M350.24,15.02c.02-2.72,1.99-4.39,4-3.39,1.47,.73,1.75,2.1,1.79,3.5,.04,1.42-.5,2.62-1.89,3.27-1.97,.92-3.92-.77-3.9-3.38Z"/><path class="cls-23" d="M487.68,15.45c-.03-1.68,1.11-2.85,2.76-2.84,1.5,0,2.64,1.24,2.63,2.85-.02,1.61-1.14,2.84-2.63,2.87-1.56,.04-2.73-1.18-2.76-2.88Z"/><path class="cls-184" d="M159.06,41.24c.09-1.24,.46-2.53,1.86-3.29,.97-.53,1.88-.28,2.63,.37,1.25,1.07,1.48,2.54,1.21,4.08-.25,1.49-1.33,2.58-2.63,2.66-1.44,.09-2.29-.74-2.81-2-.21-.52-.25-1.06-.27-1.81Z"/><path class="cls-184" d="M539.49,12.3c1.15,1.36,1.19,2.91,.59,4.46-.46,1.18-1.37,1.94-2.74,1.89-1.23-.05-2.32-1.14-2.6-2.66-.11-.62-.02-1.27-.02-1.91,.45-.64,.37-1.54,1.08-2.07,1.12-.83,1.96-.79,3.69,.29Z"/><path class="cls-115" d="M539.49,12.3q-2.78-1.03-4.77,1.77c-.02-1.4,.71-2.33,1.97-2.75,1.11-.37,2.11-.04,2.8,.97Z"/><path class="cls-153" d="M518.04,41.29c0,2.08-1.26,3.77-2.84,3.79-1.64,.02-2.99-1.61-3.02-3.63-.02-2.1,1.32-3.75,3.05-3.75,1.62,0,2.8,1.51,2.81,3.59Z"/><path class="cls-113" d="M141.67,42.19c-.17-.94-.17-1.85,.25-2.75,1-2.13,3.37-2.37,4.74-.46,.98,1.37,.92,3.71-.13,5.01-.92,1.14-2.03,1.34-3.38,.62-.63-.72-1.12-1.53-1.48-2.42Z"/><path class="cls-74" d="M141.67,42.19c.66,.71,1.12,1.53,1.48,2.42-1.06-.46-1.39-1.37-1.48-2.42Z"/><path class="cls-114" d="M272.4,14.92c0,2.07-1.29,3.74-2.88,3.74-1.65,0-2.97-1.6-2.99-3.64-.02-2.11,1.33-3.73,3.07-3.71,1.62,.02,2.8,1.55,2.79,3.61Z"/><path class="cls-8" d="M161.74,15.57c.13-.67,.26-1.35,.4-2.02,.16-.24,.31-.48,.46-.72-.06,.99-.11,1.98-.86,2.75Z"/><path class="cls-64" d="M161.16,16.78l.02,.61c-.09,.21-.1,.54-.42,.49-.11-.02-.18-.3-.27-.46l.68-.64Z"/><path class="cls-29" d="M208.63,14.21c-.3,0-.6,.04-.89,0-.54-.09-1.33,.33-1.57-.36-.2-.61,.27-1.25,.72-1.69,.84-.83,1.81-1.14,2.96-.55,.89,.46,1.47,1.22,1.29,2.13-.18,.94-1.16,.34-1.78,.48-.23,.06-.49,0-.74,0Z"/><path class="cls-109" d="M97.81,16.21c-.03,1.64-1.2,2.72-2.82,2.64-1.06-.05-1.85-.48-1.87-1.66-.03-1.22,1.41-1.98,3.5-1.96,.74,0,1.31,.1,1.2,.97Z"/><path class="cls-141" d="M145.89,11.97c.32,.25,.56,.56,.69,.95,.27,.8,.25,1.45-.84,1.29-1.36-.2-2.81,.54-4.08-.42,.31-.54,.42-1.19,.92-1.63,1.01-.9,1.81-.95,3.32-.18Z"/><path class="cls-136" d="M145.89,11.97c-2.06-.9-3.31,.07-4.24,1.81,.46-2.48,2.42-3.32,4.24-1.81Z"/><path class="cls-38" d="M252.4,41.67c1.33-.21,1.47,.51,1.22,1.59-.39,1.65-2.25,2.56-3.73,1.77-.55-.29-.89-.76-.88-1.43,.01-.67,.35-1.14,.91-1.41,.76-.37,1.58-.59,2.47-.52Z"/><path class="cls-174" d="M422.27,40.63c-.35,0-.7,.04-1.05,0-.47-.06-1.09,.28-1.37-.26-.28-.55,.17-1.05,.45-1.5,.74-1.16,2.12-1.5,3.26-.87,.87,.48,1.47,1.27,1.27,2.17-.2,.89-1.19,.32-1.81,.46-.24,.05-.5,0-.75,0Z"/><path class="cls-185" d="M524.81,38.87c1.44-1.66,2.63-1.64,4.19,.06,.21,.52,.4,1.04,0,1.56-.99,.14-1.99,.05-2.99,.06-1.76,.01-1.76,0-1.2-1.67Z"/><path class="cls-135" d="M524.81,38.87c-.38,1.35,.23,1.67,1.48,1.53,.89-.1,1.8-.02,2.7-.01,.09,.06,.12,.11,.09,.17-.03,.06-.06,.08-.09,.08-1.13,.01-2.26,.05-3.39,.02-.46-.01-1.09,.28-1.34-.25-.29-.59,.11-1.11,.56-1.53Z"/><path class="cls-30" d="M528.99,40.64c0-.08,0-.17,0-.25,.25-.48-.02-.97,.02-1.46,.77,1.19,.77,1.24-.02,1.71Z"/><path class="cls-120" d="M371.91,38.87c1.44-1.66,2.63-1.64,4.19,.06,.21,.52,.4,1.04,0,1.56-.99,.14-1.99,.05-2.99,.06-1.76,.01-1.76,0-1.2-1.67Z"/><path class="cls-135" d="M371.91,38.87c-.38,1.35,.23,1.67,1.48,1.53,.89-.1,1.8-.02,2.7-.01,.09,.06,.12,.11,.09,.17-.03,.06-.06,.08-.09,.08-1.13,.01-2.26,.05-3.39,.02-.46-.01-1.09,.28-1.34-.25-.29-.59,.11-1.11,.56-1.53Z"/><path class="cls-30" d="M376.08,40.64c0-.08,0-.17,0-.25,.25-.48-.02-.97,.02-1.46,.77,1.19,.77,1.24-.02,1.71Z"/><path class="cls-120" d="M227.06,40.63c-.3,0-.6,.04-.9,0-.51-.08-1.24,.32-1.5-.28-.27-.64,.22-1.25,.65-1.72,.85-.94,1.88-1.27,3.08-.61,.87,.48,1.46,1.28,1.24,2.18-.21,.87-1.2,.31-1.83,.44-.24,.05-.5,0-.75,0Z"/><path class="cls-141" d="M514.29,15.25c1.53-.03,1.77,.27,1.47,1.63-.35,1.58-2.14,2.48-3.61,1.8-.57-.26-.94-.7-.98-1.37-.05-.67,.27-1.16,.81-1.47,.74-.41,1.55-.64,2.31-.59Z"/><path class="cls-12" d="M391.28,14.22c-.3,0-.6,.04-.89,0-.54-.09-1.34,.34-1.55-.39-.17-.6,.27-1.24,.74-1.69,.85-.81,1.82-1.13,2.96-.53,.89,.46,1.45,1.23,1.26,2.14-.2,.92-1.17,.33-1.79,.47-.23,.05-.49,0-.74,0Z"/><path class="cls-184" d="M291.52,43.42c-.99-2.09-.49-4.46,1.13-5.22,1.17-.55,2.35-.81,3.5,.06,1.21,.93,1.61,2.21,1.47,3.67-.05,.48-.24,.96-.37,1.43-.41,.6-.79,1.23-1.59,1.38-1.72,.64-3.04,0-4.14-1.32Z"/><path class="cls-170" d="M291.52,43.42c1.25,1.02,2.6,1.64,4.26,1.18,.1,.07,.13,.13,.09,.2-.03,.06-.07,.1-.1,.1-2.12,.58-3.44,.13-4.26-1.47Z"/><path class="cls-89" d="M295.78,44.89c-.01-.1,0-.2,0-.29,.68-.19,.88-.94,1.46-1.23-.11,.88-.64,1.35-1.47,1.53Z"/><path class="cls-38" d="M78.68,14.22c-.35,0-.7,.03-1.04,0-.47-.05-1.1,.26-1.37-.24-.29-.53,.16-1.05,.44-1.5,.67-1.08,2-1.44,3.12-.93,.97,.44,1.58,1.27,1.4,2.22-.17,.89-1.18,.31-1.8,.45-.24,.05-.49,0-.74,0Z"/><path class="cls-38" d="M281.05,14.22c-.35,0-.7,.03-1.04,0-.47-.05-1.1,.26-1.37-.25-.28-.53,.17-1.05,.45-1.5,.71-1.13,2.08-1.45,3.25-.85,.9,.46,1.45,1.27,1.26,2.15-.19,.88-1.18,.31-1.81,.45-.24,.05-.49,0-.74,0Z"/><path class="cls-114" d="M429.74,13.29c-.05,.07-.04,.14,.03,.2,.48,1.09,.52,2.17-.02,3.26h.02c-.71,1.58-1.66,2.16-3.21,1.96-1.35-.18-2.15-1.24-2.42-3.23,.05-1.43,.41-2.73,1.46-3.77,1.87-1.01,3.43-.41,4.14,1.58Z"/><path class="cls-82" d="M424.14,15.47c.06,.19,.12,.37,.17,.56,.34,1.26,.96,2.31,2.35,2.55,1.5,.25,2.35-.74,3.11-1.83-.26,1.53-1.15,2.18-2.95,2.14-1.29-.03-2.59-1.07-2.72-2.24-.04-.39,.03-.79,.04-1.18Z"/><path class="cls-31" d="M429.74,13.29c-1.37-2-2.04-2.25-4.14-1.58,.58-1.24,1.68-.67,2.45-.5,.94,.21,1.88,.79,1.69,2.08Z"/><path class="cls-155" d="M429.75,16.75c.15-1.09,.13-2.17,.02-3.26,.9,1.02,.89,2.29-.02,3.26Z"/><path class="cls-38" d="M432.67,45.25c-1.05-.03-1.87-.38-1.95-1.57-.08-1.25,1.28-2.03,3.41-2.02,.67,0,1.31-.04,1.3,.95-.02,1.58-1.11,2.66-2.76,2.65Z"/><path class="cls-184" d="M407.4,11.74c2.36-.87,3.62-.29,4.44,2.04,.26,.9,.47,1.8-.04,2.69h0c-.25,.46-.33,1.01-.69,1.42-.96,.96-2.12,1.12-3.27,.57-1.17-.56-1.61-1.65-1.59-2.95,.02-1.38-.18-2.8,1.15-3.78Z"/><path class="cls-179" d="M407.4,11.74c-.84,1.16-1.31,2.42-1.09,3.88,.35,2.34,2.34,4.21,4.86,2.05,.12-.15,.24-.15,.35,.02-.85,1.41-2.26,1.5-3.54,1.1-1.23-.38-1.94-1.49-1.91-2.89,.03-1.03-.21-2.08,.22-3.07,.21-.49,.46-1.01,1.1-1.08Z"/><path class="cls-100" d="M411.8,16.47l.04-2.69c.72,.91,.97,1.81-.04,2.69Z"/><path class="cls-100" d="M411.51,17.68l-.35-.02,.63-1.19c.15,.46-.08,.83-.29,1.21Z"/><path class="cls-184" d="M189.91,18.3c-2.14-1.33-2.55-4.4-.76-6.09,.98-.92,2.12-1.22,3.4-.54,1.26,.67,2.13,2.39,1.84,3.89-.1,.52-.35,1.02-.53,1.53-1.44,1.62-2.23,1.86-3.95,1.2Z"/><path class="cls-124" d="M189.91,18.3c1.59,.48,2.82-.21,3.95-1.2-.91,1.71-2.46,2.17-3.95,1.2Z"/><path class="cls-174" d="M94.69,37.69c.57,.03,1.22,.44,1.68,1.15,.3,.46,.58,1,.29,1.52-.25,.46-.81,.25-1.24,.26-.99,.02-1.99,0-2.98,0-.53,0-.86-.12-.74-.77,.22-1.16,1.5-2.21,2.98-2.17Z"/><path class="cls-184" d="M337.76,42.18v-1.46c.56-2.22,1.96-3.29,3.88-2.99,2.44,1.33,2.92,2.65,2.08,5.64-.45,.81-1.13,1.33-1.98,1.66-2.11,.27-3.45-.43-3.98-2.85Z"/><path class="cls-35" d="M337.76,42.18c.71,1.93,1.9,3.13,4.15,2.69,.18-.14,.32-.11,.43,.09-2.67,.85-4.52-.28-4.58-2.78Z"/><path class="cls-183" d="M341.64,37.73c-2.08-.03-3.22,1.17-3.88,2.99,.05-2.23,1.91-3.66,3.88-2.99Z"/><path class="cls-89" d="M342.34,44.96l-.43-.09c.6-.5,1.21-1,1.81-1.51-.06,.88-.69,1.26-1.38,1.59Z"/><path class="cls-184" d="M195.91,44.54c-1.67,.8-2.9,.66-3.9-.45-1.16-1.28-1.3-3.49-.31-4.96,.86-1.29,2.21-1.67,3.9-1.1,.66,.39,1.24,.85,1.46,1.63,.78,1.9,.28,3.49-1.14,4.88Z"/><path class="cls-75" d="M195.91,44.54c1.16-1.53,1.35-3.24,.94-5.06,.11-.12,.2-.12,.27,.03h0c.57,1.19,.73,2.38,.06,3.59-.28,.61-.55,1.21-1.27,1.43Z"/><path class="cls-52" d="M197.18,43.11c.4-1.21,.25-2.4-.06-3.6,.87,1.19,.99,2.38,.06,3.6Z"/><path class="cls-52" d="M197.12,39.52c-.09-.02-.18-.03-.27-.03-.42-.48-.83-.97-1.25-1.45,.93,.06,1.36,.63,1.52,1.48Z"/><path class="cls-29" d="M104.43,45.25c-.88-.04-1.8-.33-1.82-1.65-.02-1.17,1.24-1.91,3.23-1.93,.68,0,1.45-.19,1.44,.95-.02,1.56-1.01,2.6-2.84,2.63Z"/><path class="cls-145" d="M78.67,39.31c.05,1.16,.84,2.31,.06,3.49-.15,.1-.3,.09-.43-.04-.4-1.42-.35-2.93-.92-4.31,.92-.44,.97,.42,1.29,.87Z"/><path class="cls-158" d="M78.67,39.31c-.46-.26-.55-.93-1.15-1.03-1.02-.3-2.17,.29-3.12-.49,.69-.89,2.02-1.08,3.19-.41,.29,.17,.57,.38,.82,.62h0l.26,1.3Z"/><path class="cls-54" d="M78.44,42.8c.09,0,.19,0,.28,0-.02,.26-.05,.52-.07,.79-.2,.22-.4,.43-.6,.65-.15,.23-.34,.23-.56,.11-.15-.8,.4-1.17,.95-1.55Z"/><path class="cls-158" d="M271.17,39.17c.25-1.31,1.02-2.12,2.35-2.38,1.11-.43,2.14-.07,3.26,.37-2.12,.33-4.69,.02-4.34,3.35,.53,1.15,.64,2.44,1.23,3.57,.44,1.16,1.42,1.11,2.37,.97,1.06-.15,2.06-1.26,2.21-2.52,.12-1.02,.21-2.07-.19-3.07,0-.07-.01-.14-.02-.21,.09-.46-.46-1.03,.37-1.37,.49-.2,.27-.8,.27-1.22,.02-1.44,0-2.88,.01-4.33,0-.41,.01-.84,.58-.85,.57-.01,.61,.41,.61,.82,0,4.23,0,8.45,0,12.68,0,.3-.02,.62-.37,.73-.38,.11-.68,.03-.81-.41-.25-.81-.57-.38-1.07-.16-1.23,.54-2.26,1.73-3.94,.77-2.09-1.19-3.21-3.17-2.72-5.59,.08-.39,.14-.77,.21-1.16Z"/><path class="cls-114" d="M273.31,44.21c-.64-1.15-.89-2.4-.88-3.71,.29-.62,.42-1.32,.88-1.86,1.16-1.37,2.91-1.24,4.14,.32,1.21,1.33,.75,2.88,.59,4.39-1.12,2.3-2.99,2.64-4.73,.86Z"/><path class="cls-121" d="M277.79,43.41c-.01-1.49,.27-3-.34-4.45,.19,.09,.38,.19,.57,.28v-.02c.55,1.43,1.08,2.86-.24,4.18Z"/><path class="cls-158" d="M78.4,38.01c-.97-.5-1.99-.7-3.09-.6-.44,.04-.78,.12-.76,.65-.04,.06-.08,.12-.11,.17-.93,.58-1.17,1.46-1.11,2.48-.16,.49-.16,.99,0,1.48,.06,.64,.04,1.3,.47,1.85,.31,.43,.76,.68,1.22,.91,.71,.28,1.43,.17,2.14,.03,.21-.03,.42,0,.6,.13-1.34,1.43-3.53,1.51-4.87,.1-1.58-1.65-1.73-3.67-1.04-5.68,.5-1.48,1.56-2.65,3.27-2.86,1.31-.16,2.57-.04,3.27,1.34Z"/><path class="cls-18" d="M74.82,45.23c-.43-.29-.97-.45-1.24-.95-.15-.2-.14-.4-.03-.61,1.31,.38,2.56,1.13,4.01,.68,.16-.04,.32-.07,.48-.11-.09,.29-.19,.58-.28,.87-.19,.03-.38,.06-.57,.09-.79,.24-1.58,.18-2.38,.04Z"/><path class="cls-184" d="M77.57,44.34c-1.74,.9-2.24,.82-3.95-.68-.57-.4-.37-1.08-.59-1.61v-1.22c.21-1.09,.23-2.29,1.52-2.8h0c1.03-.41,2.03-.58,2.96,.24,1.04,1.35,.96,2.94,.93,4.51-.29,.52-.58,1.03-.87,1.55Z"/><path class="cls-51" d="M277.79,43.41c1.08-1.34,.48-2.77,.23-4.18,1.11,1.14,.89,4.01-.41,5.37-1.09,1.14-2.9,1.26-4.04,.27-.21-.18-.27-.4-.27-.66,2.06,1.36,3.2,1.15,4.48-.8Z"/><path class="cls-158" d="M74.56,38.04c-.78,.78-1.18,1.77-1.52,2.8-.06-1.24-.2-2.52,1.52-2.8Z"/><path class="cls-158" d="M73.03,42.06l.59,1.61c-.01,.2-.02,.41-.03,.61-.7-.61-.59-1.43-.55-2.22Z"/><path class="cls-158" d="M74.82,45.23c.79-.01,1.58-.03,2.38-.04-.78,.47-1.58,.43-2.38,.04Z"/></g></g></svg>