<?xml version="1.0" encoding="UTF-8"?><svg id="Layer_2" xmlns="http://www.w3.org/2000/svg" viewBox="0 0 643.71 113.09"><defs><style>.cls-1{fill:#2f528f;}.cls-2{fill:#fdfefe;}.cls-3{fill:#fafafa;}.cls-4{fill:#f5f5f5;}.cls-5{fill:#040404;}.cls-6{fill:#020202;}.cls-7{fill:#4673c4;}.cls-8{fill:#4472c3;}.cls-9{fill:#fdfdfd;}.cls-10{fill:#fbfbfb;}.cls-11{fill:#f9f9f9;}.cls-12{fill:#050505;}.cls-13{fill:#f7f7f7;}.cls-14{fill:#f3f3f3;}.cls-15{fill:#070707;}.cls-16{fill:#f8f8f8;}.cls-17{fill:#010101;}.cls-18{fill:#060606;}.cls-19{fill:#fcfcfc;}</style></defs><g id="Layer_1-2"><g><path class="cls-8" d="M53.6,110.29c2.97-1,5.55-1.87,8.14-2.74,.87-.29,.95,.28,.86,.87-.19,1.26,.42,1.44,1.52,1.44,121.42-.02,242.84-.02,364.27,0,1.18,0,1.79-.21,1.6-1.52-.08-.53-.02-1.04,.8-.76,2.54,.87,5.09,1.71,8.03,2.69-2.96,.99-5.56,1.85-8.16,2.72-.8,.27-.73-.36-.66-.74,.27-1.5-.58-1.54-1.73-1.54-28.78,.02-57.56,.02-86.34,.02-92.44,0-184.88,0-277.32-.01-1.22,0-2.35-.12-2.01,1.7,.14,.77-.35,.73-.94,.53-2.54-.87-5.1-1.7-8.04-2.67Z"/><path class="cls-1" d="M16.62,65.24c0-6.53,5.49-11.97,12.04-11.96,6.53,.02,11.97,5.51,11.94,12.05-.03,6.46-5.48,11.87-11.96,11.88-6.55,.01-12.02-5.45-12.01-11.98Z"/><path class="cls-17" d="M270.15,10.98c-1.41,1.12-2.91,1.41-4.44,.4-1.51-1.01-2.05-2.52-1.79-4.29,.24-1.6,1.08-2.74,2.65-3.31,.54-.19,1.12-.33,1.61-.13,1.02,.42,1.95,.76,3.08,.28,.59-.25,1.1-.04,1.07,.88-.08,2.29,.04,4.59-.05,6.88-.07,1.81-.82,3.3-2.69,3.91-1.8,.59-3.46,.33-4.81-1.1-.3-.32-1-.77-.37-1.16,.49-.31,1.2-1.14,1.92-.28,.75,.89,1.65,1.08,2.67,.65,.9-.37,1.21-1.18,1.14-2.73Z"/><path d="M194.12,7.93c0-1-.03-1.99,.02-2.99,.02-.36-.31-1.02,.42-1.02,.53,0,1.35-.4,1.55,.33,.25,.89,.46,.27,.72,.1,1.63-1.09,2.56-1.1,4.01,.18,.47,.41,.6,.24,.91-.05,1.06-.98,2.29-1.19,3.59-.58,1.27,.59,1.51,1.75,1.51,3.01,0,1.39-.06,2.79,.02,4.18,.05,.93-.45,.89-1.1,.89-.65,0-1.17,.04-1.11-.9,.08-1.19,.02-2.39,.02-3.58,0-.88,0-1.79-1.19-1.86-1.2-.07-1.72,.74-1.82,1.75-.11,1.08-.07,2.19-.04,3.28,.02,.8,.06,1.33-1.11,1.35-1.28,.02-1.04-.69-1.04-1.41,0-1.14,.03-2.29-.02-3.43-.04-.79-.33-1.48-1.29-1.55-.88-.06-1.38,.4-1.67,1.19-.37,1.02-.08,2.09-.27,3.1-.14,.74,.85,2.11-1.08,2.07-1.94-.05-.77-1.41-.99-2.15-.18-.59-.04-1.28-.04-1.93Z"/><path d="M22.01,7.92c0-.95-.04-1.89,.02-2.84,.02-.39-.32-1.07,.29-1.12,.56-.05,1.41-.53,1.73,.45,.2,.61,.39,.19,.57,.04,1.47-1.15,2.9-1.26,4.22,.2,.43,.48,.59,.01,.8-.17,1.09-.96,2.3-1.17,3.6-.56,1.26,.6,1.5,1.76,1.5,3.01,0,1.39-.06,2.79,.02,4.18,.05,.94-.48,.87-1.11,.88-.66,0-1.16,.02-1.1-.91,.08-1.24,.02-2.49,.02-3.73,0-.78-.05-1.54-1.05-1.69-1.03-.15-1.62,.42-1.87,1.32-.15,.51-.13,1.08-.13,1.63-.02,3.39-.05,3.56-1.11,3.34-2.28-.47-.51-2.32-1.02-3.43-.17-.37,0-.89-.04-1.33-.08-.8-.34-1.48-1.3-1.54-.88-.06-1.39,.41-1.66,1.21-.45,1.36-.24,2.77-.21,4.15,.02,.97-.41,1.01-1.15,1-.69,0-1.12-.06-1.04-.94,.09-1.04,.02-2.09,.02-3.13Z"/><path class="cls-17" d="M470.44,7.95c0-1.05-.01-2.09,0-3.14,0-.31-.18-.8,.3-.87,.52-.07,1.42-.28,1.52,.11,.36,1.31,.77,.33,1.12,.1,1.24-.8,2.47-.84,3.55,.19,.51,.49,.72,.55,1.26,.04,.95-.9,2.12-1.04,3.34-.52,1.23,.52,1.59,1.59,1.62,2.79,.04,1.44-.06,2.89,.03,4.33,.06,.95-.37,.99-1.13,1.02-.88,.03-1.1-.28-1.05-1.1,.07-1.19,.02-2.39,.02-3.59,0-.8-.15-1.53-1.12-1.66-1.02-.13-1.61,.41-1.84,1.34-.33,1.33-.16,2.68-.13,4.02,.01,.83-.3,.99-1.04,.97-.71-.02-1.25,0-1.18-.99,.09-1.19,.02-2.39,.02-3.59,0-.85-.14-1.64-1.19-1.76-1.14-.13-1.71,.59-1.82,1.55-.14,1.23-.14,2.49-.08,3.73,.04,.9-.3,1.06-1.11,1.06-.81,0-1.16-.18-1.09-1.06,.08-.99,.02-1.99,.02-2.99Z"/><path class="cls-17" d="M161.01,27.63c0-.95-.03-1.9,.02-2.84,.02-.38-.31-1.07,.36-1.08,.51-.01,1.35-.6,1.59,.44,.13,.57,.38,.29,.59,.11,1.44-1.23,2.85-1.33,4.21,.11,.36,.38,.54,.18,.82-.08,1.05-1,2.27-1.23,3.58-.63,1.4,.64,1.58,1.93,1.57,3.28-.01,1.15,0,2.29,0,3.44,0,.7,.26,1.42-1.03,1.42-1.34,0-1.11-.73-1.11-1.5,0-1.1,0-2.19,0-3.29,0-.82-.22-1.5-1.19-1.6-.95-.09-1.51,.42-1.75,1.28-.35,1.27-.17,2.58-.15,3.87,.01,.84-.1,1.22-1.11,1.22-1.01,0-1.14-.39-1.1-1.23,.06-1.19,.03-2.39,0-3.59-.01-.83-.3-1.47-1.25-1.55-.99-.09-1.58,.52-1.7,1.34-.18,1.22-.17,2.48-.13,3.73,.03,.89-.11,1.3-1.18,1.31-1.14,.01-1.02-.6-1.01-1.3,.01-.95,0-1.89,0-2.84Z"/><path d="M39.9,24.64c.34-.29,.65-.62,1.03-.86,1.91-1.18,4.3-.08,4.47,2.14,.12,1.69,0,3.39,.06,5.08,.03,.95-.6,.71-1.1,.72-.51,0-1.12,.21-1.08-.73,.06-1.29,0-2.59,.02-3.89,0-.88-.15-1.63-1.22-1.7-1.04-.07-1.64,.56-1.74,1.47-.14,1.28-.15,2.59-.08,3.88,.06,1-.47,.97-1.18,.99-.74,.02-1.08-.14-1.03-.97,.07-1.19,.04-2.39,0-3.59-.03-.89-.19-1.74-1.34-1.79-1.07-.05-1.59,.67-1.7,1.54-.15,1.23-.14,2.49-.1,3.73,.03,.82-.17,1.13-1.05,1.1-.76-.03-1.17-.08-1.14-1.02,.08-2.04,.01-4.09,.04-6.13,0-.33-.26-.93,.38-.92,.52,.01,1.29-.43,1.54,.36,.2,.61,.31,.39,.66,.17,1.98-1.29,2.8-1.2,4.55,.43Z"/><path class="cls-17" d="M356.2,4.39c0-1.05,.07-2.1-.02-3.14-.09-1.02,.49-.97,1.18-.96,.63,.01,1.13-.07,1.09,.89-.08,2.14,.02,4.28-.04,6.42-.08,2.7-1.79,4.51-4.29,4.66-2.68,.16-4.51-1.32-4.79-4.2-.22-2.32-.08-4.67-.16-7.01-.03-1.06,.71-.72,1.23-.75,.53-.03,1.1-.16,1.08,.75-.05,2.19-.04,4.38,0,6.57,.03,1.55,.87,2.47,2.17,2.54,1.42,.08,2.4-.78,2.51-2.36,.08-1.14,.02-2.29,.02-3.43h.01Z"/><path class="cls-17" d="M38.63,11.15c0,1.27-.05,2.31,.02,3.35,.06,.83-.18,1.1-1.05,1.11-.93,.01-1.17-.26-1.16-1.18,.06-3.14,.01-6.28,.04-9.42,0-.38-.29-1.03,.4-1.07,.54-.04,1.35-.38,1.61,.25,.25,.6,.34,.39,.64,.15,1.25-1,2.58-.95,3.89-.17,1.42,.85,2,2.22,1.99,3.79-.01,1.62-.62,3.02-2.15,3.84-1.48,.8-2.86,.65-4.24-.65Z"/><path class="cls-17" d="M114.49,31.12c0,1.07-.05,2.15,.02,3.22,.05,.78-.2,1.06-.99,1-.66-.05-1.24,.09-1.22-.95,.07-3.24,.02-6.48,.03-9.72,0-.35-.25-.91,.34-.98,.56-.06,1.27-.33,1.66,.19,.22,.29,.1,.56,.61,.26,2.03-1.16,3.79-.88,5,.71,1.31,1.72,1.21,4.37-.23,5.94-1.4,1.52-3.08,1.61-5.07,.29-.03-.02-.09,.02-.16,.04Z"/><path class="cls-17" d="M566.64,11.29c0,1.09-.04,2.09,.01,3.08,.04,.81-.04,1.26-1.08,1.24-.97-.02-1.14-.34-1.12-1.21,.05-3.14,.01-6.28,.03-9.42,0-.35-.25-.91,.29-1.02,.55-.11,1.49-.34,1.65,.12,.31,.87,.52,.36,.86,.15,1.45-.91,2.82-.83,4.14,.2,2.16,1.69,2.12,5.43-.06,7.07-1.44,1.08-2.83,1.04-4.72-.2Z"/><path d="M421.44,11.37c0,1.05,0,1.94,0,2.83,0,.71,.26,1.44-1.03,1.42-1.14-.02-1.13-.52-1.12-1.34,.03-3.09,0-6.17,.02-9.26,0-.37-.22-.96,.21-1.07,.55-.15,1.65-.15,1.7,.01,.37,1.29,.77,.21,1.11,.06,.46-.2,.9-.41,1.41-.44,1.57-.09,3.05,.9,3.71,2.49,.75,1.79,.3,4.06-1.04,5.23-1.32,1.15-2.78,1.26-4.39,.32-.12-.07-.26-.12-.58-.26Z"/><path d="M124.3,31.11c0,1.2-.07,2.24,.02,3.26,.09,1.02-.48,.94-1.17,.97-.75,.03-1.03-.15-1.02-.97,.05-3.23,.01-6.47,.04-9.7,0-.33-.28-.94,.31-.97,.58-.04,1.3-.39,1.75,.27,.16,.23,.04,.62,.48,.24,1.5-1.32,3.03-1.05,4.48,.06,1.36,1.04,1.86,3.27,1.23,5.05-.91,2.57-3.34,3.36-6.11,1.8Z"/><path d="M6.38,24.16c0-1.13,.05-2.21-.02-3.28-.05-.82,.36-.9,.99-.83,.52,.06,1.21-.29,1.19,.77-.05,3.38-.02,6.76-.02,10.14,0,.27,.13,.7-.27,.73-.57,.04-1.42,.33-1.65-.17-.31-.65-.33-.52-.8-.18-1.69,1.22-3.86,.74-5.05-1.05-1.1-1.65-.97-4.08,.29-5.57,1.31-1.54,2.85-1.73,5.34-.56Z"/><path class="cls-17" d="M167.73,4.45c0-.97,.03-1.92,0-2.86-.04-.82-.04-1.36,1.12-1.34,1.07,.02,1.05,.5,1.05,1.26-.02,3.14,0,6.27-.02,9.41,0,.35,.25,.93-.29,1-.53,.06-1.28,.38-1.61-.26-.23-.44-.19-.49-.65-.21-1.97,1.24-3.67,.98-4.98-.68-1.34-1.68-1.26-4.33,.18-5.92,1.38-1.52,3.07-1.67,4.93-.42,.03,.02,.09,0,.29,0Z"/><path class="cls-17" d="M487.05,4.6c1.5-1.21,3-1.37,4.48-.36,1.56,1.06,2.07,2.64,1.8,4.45-.24,1.64-1.13,2.83-2.75,3.41-.49,.17-1.02,.31-1.46,.14-1.12-.44-2.16-.94-3.41-.29-.56,.29-.83-.14-.82-.79,.03-3.34,.05-6.67,0-10.01-.02-.98,.53-.83,1.13-.85,.67-.03,1.13,.01,1.06,.92-.09,1.07-.02,2.15-.02,3.39Z"/><path class="cls-17" d="M6.5,0c1.12,.02,2.2,.27,3.08,.96,.37,.29,1.39,.46,.83,1.2-.42,.56-.88,1.56-2.08,.6-1.49-1.21-3.68-.8-4.98,.64-1.34,1.5-1.34,3.97,0,5.47,1.31,1.47,3.45,1.71,5.16,.68,.42-.25,.63-1.22,1.53-.42,.97,.87,.96,1.34-.13,2.06-2.25,1.48-5.27,1.46-7.4-.18C.4,9.39-.41,6.6,.48,4.04,1.35,1.56,3.74-.04,6.5,0Z"/><path class="cls-17" d="M389.74,4.54c.31,.12,.42-.17,.62-.3,2.28-1.48,4.65-.43,4.9,2.25,.14,1.58,0,3.18,.07,4.77,.04,.96-.61,.69-1.1,.7-.51,.01-1.12,.19-1.08-.73,.06-1.29,.04-2.59,0-3.88-.02-.86-.3-1.59-1.3-1.71-1-.11-1.62,.41-1.9,1.32-.39,1.26-.21,2.57-.18,3.86,.02,.88-.16,1.22-1.13,1.19-.84-.03-1.1-.24-1.08-1.09,.05-3.18,.05-6.37,0-9.55-.01-.85,.24-1.11,1.09-1.09,.76,.02,1.2,.1,1.12,1.03-.08,1.07-.02,2.16-.02,3.24Z"/><path class="cls-17" d="M638.17,4.75c.41-.33,.64-.57,.93-.74,1.93-1.12,4.24-.06,4.48,2.16,.18,1.68,.06,3.38,.13,5.07,.04,.94-.59,.72-1.09,.72-.52,0-1.13,.19-1.1-.74,.05-1.29,.01-2.59,.01-3.89,0-.81-.22-1.51-1.14-1.67-.97-.17-1.64,.24-1.98,1.18-.48,1.36-.2,2.77-.21,4.15,0,.78-.21,1.05-1,.99-.67-.05-1.22,.09-1.2-.95,.07-3.29,.06-6.58,0-9.87-.02-.94,.46-.89,1.1-.88,.63,0,1.17-.07,1.09,.89-.1,1.08-.02,2.19-.02,3.56Z"/><path class="cls-17" d="M103.87,4.69c.42-.3,.71-.56,1.04-.73,1.85-.99,4.1,0,4.34,2.05,.21,1.77,.12,3.58,.14,5.37,.01,.98-.76,.52-1.21,.59-.5,.07-1,.09-.97-.71,.05-1.24,0-2.49,.01-3.74,0-.92-.16-1.72-1.27-1.86-1.19-.15-1.83,.59-1.98,1.6-.17,1.22-.16,2.49-.09,3.72,.05,.93-.35,1.01-1.12,1.03-.86,.02-1.08-.25-1.07-1.09,.05-3.19,.05-6.38,0-9.57-.01-.85,.23-1.09,1.08-1.08,.79,.01,1.18,.13,1.11,1.04-.08,1.07-.02,2.16-.02,3.37Z"/><path class="cls-6" d="M55.89,65.93c-1.43-1.61-1.67-2.73-.94-4,.73-1.27,2.22-1.86,3.89-1.51,1.41,.3,2.28,1.15,2.51,2.59,.03,.19,.04,.39,.05,.59,.05,1.04-1.35,1.78-1.11,2.35,.31,.76,1.29,1.29,1.48,2.29,.27,1.45-.73,3.03-2.29,3.59-1.84,.66-3.98,0-4.88-1.52-.81-1.36-.52-2.87,.78-3.99,.15-.13,.3-.24,.51-.4Z"/><path class="cls-17" d="M121.91,65.95c1.69,1.3,2.15,2.65,1.45,4.12-.71,1.48-2.68,2.34-4.46,1.94-1.76-.39-2.84-1.7-2.87-3.32-.02-1.29,1.44-1.99,1.45-2.84,.01-.82-1.29-1.65-1.04-2.89,.29-1.43,1.16-2.27,2.57-2.54,1.69-.32,3.14,.28,3.86,1.58,.74,1.34,.52,2.33-.97,3.95Z"/><path class="cls-17" d="M496.5,8.38c.72,1.97,2.31,2.58,3.61,1.37,.92-.86,1.57-.21,2.01,.21,.49,.47-.28,.89-.62,1.22-1.54,1.46-4.11,1.47-5.73,.06-1.6-1.4-1.89-4.01-.65-5.83,1.19-1.75,3.53-2.34,5.42-1.36,.59,.3,1.07,.72,1.4,1.31,.46,.84,.94,1.85,.56,2.68-.35,.78-1.41,.29-2.15,.33-1.24,.07-2.48,.02-3.85,.02Z"/><path class="cls-17" d="M79.41,8.38c-.6,0-1.2-.03-1.79,.01-.37,.03-.89-.25-1.07,.19-.19,.45,.19,.85,.53,1.14,.96,.83,1.99,.84,2.98,.07,.4-.31,.6-.6,1.24-.32,1.09,.47,1.09,.84,.28,1.6-1.57,1.47-4.03,1.62-5.73,.27-1.72-1.37-2.08-4.02-.8-5.92,1.18-1.76,3.52-2.36,5.42-1.4,1.24,.62,2.15,2.34,2.08,3.71-.03,.57-.29,.64-.74,.64-.8-.01-1.59,0-2.39,0Z"/><path class="cls-17" d="M613.72,8.38c-.6,0-1.2-.03-1.79,.01-.37,.03-.91-.24-1.07,.18-.2,.52,.23,.95,.63,1.24,1.01,.75,2.09,.78,2.96-.13,.84-.88,1.49-.11,1.89,.26,.53,.49-.25,.89-.58,1.21-1.53,1.48-4.09,1.5-5.72,.1-1.61-1.38-1.92-3.99-.69-5.82,1.19-1.76,3.51-2.36,5.41-1.41,1.24,.63,2.15,2.33,2.08,3.71-.03,.56-.27,.65-.73,.64-.8-.02-1.59,0-2.39,0Z"/><path class="cls-17" d="M66.56,8.38c-.7,0-1.4-.01-2.1,0-.26,0-.64-.16-.76,.23-.1,.31,.11,.56,.29,.81,.77,1.07,2.23,1.31,3.26,.29,.85-.84,1.46-.2,1.9,.18,.64,.54-.19,.9-.5,1.21-1.53,1.51-4.08,1.55-5.73,.15-1.63-1.38-1.95-4.03-.71-5.84,1.21-1.76,3.54-2.37,5.43-1.37,.43,.23,.84,.56,1.14,.94,.71,.89,1.23,2.04,.81,3.05-.34,.81-1.51,.18-2.29,.33-.24,.05-.5,0-.75,0Z"/><path class="cls-17" d="M401.8,8.38c-.75,0-1.5,.02-2.25,0-.87-.03-.76,.38-.45,.91,.68,1.16,2.29,1.49,3.34,.46,.91-.9,1.59-.2,2.01,.23,.49,.5-.33,.9-.67,1.22-1.55,1.46-4.14,1.44-5.73,0-1.58-1.42-1.83-4.11-.56-5.86,1.26-1.73,3.59-2.25,5.47-1.22,1.37,.76,1.81,2.02,1.95,3.48,.06,.71-.26,.83-.86,.79-.75-.04-1.5,0-2.25,0Z"/><path class="cls-17" d="M14.15,23.35c2.24,.01,3.85,1.59,3.98,3.82,.05,.78-.19,1.02-.98,.99-1.45-.06-2.9,0-4.34-.03-.79-.02-.84,.29-.51,.88,.66,1.17,2.3,1.54,3.33,.51,.89-.88,1.57-.26,2.02,.18,.53,.52-.29,.9-.62,1.23-1.34,1.29-3.48,1.46-5.13,.48-1.64-.98-2.41-3.15-1.81-5.1,.54-1.75,2.21-2.97,4.06-2.96Z"/><path class="cls-17" d="M127.52,8.38c-.65,0-1.3-.04-1.95,.01-.35,.03-.88-.28-1.01,.28-.1,.41,.23,.75,.53,1.01,1.01,.89,2.14,.95,3.07,0,.85-.87,1.49-.13,1.9,.24,.57,.52-.25,.9-.58,1.22-1.53,1.49-4.11,1.5-5.73,.08-1.6-1.4-1.9-4.07-.65-5.85,1.23-1.75,3.56-2.3,5.45-1.31,.54,.29,.99,.67,1.3,1.2,.52,.88,1.01,1.94,.59,2.82-.34,.7-1.44,.17-2.19,.28-.24,.04-.5,0-.75,0Z"/><path class="cls-17" d="M433.92,8.38c-.6,0-1.2-.03-1.8,.01-.37,.03-.9-.24-1.08,.18-.23,.54,.24,.94,.62,1.24,.94,.73,2.03,.82,2.84-.04,.87-.92,1.6-.27,2.01,.18,.54,.6-.36,.99-.73,1.32-1.56,1.42-4.2,1.31-5.73-.17-1.54-1.48-1.71-4.16-.39-5.87,1.31-1.7,3.66-2.17,5.5-1.07,1.28,.77,1.71,1.99,1.84,3.4,.06,.66-.18,.87-.83,.83-.75-.05-1.5-.01-2.25-.01Z"/><path class="cls-17" d="M536.79,8.38c-.65,0-1.3-.04-1.95,.01-.35,.03-.88-.28-1.01,.28-.09,.41,.23,.75,.53,1.01,1.02,.89,2.14,.95,3.07,0,.85-.87,1.49-.13,1.9,.24,.57,.52-.26,.9-.58,1.22-1.53,1.49-4.11,1.5-5.73,.07-1.6-1.4-1.89-4.08-.64-5.85,1.23-1.74,3.57-2.3,5.46-1.3,.54,.29,.99,.67,1.3,1.2,.52,.88,1.01,1.94,.59,2.82-.34,.7-1.44,.17-2.19,.28-.24,.04-.5,0-.75,0Z"/><path class="cls-17" d="M176.41,8.38c-.6,0-1.2-.03-1.8,.01-.37,.02-.92-.24-1.08,.17-.21,.51,.23,.95,.62,1.24,1,.75,2.09,.82,2.96-.1,.84-.88,1.49-.13,1.89,.25,.52,.5-.25,.91-.59,1.23-1.51,1.43-4.02,1.46-5.62,.13-1.66-1.38-2.02-4.01-.81-5.83,1.18-1.78,3.5-2.41,5.41-1.47,.64,.32,1.14,.78,1.5,1.41,.49,.85,.87,1.87,.47,2.7-.32,.66-1.36,.15-2.07,.25-.29,.04-.6,0-.9,0Z"/><path class="cls-17" d="M600.98,8.38c-.6,0-1.2-.03-1.8,0-.37,.02-.92-.23-1.09,.16-.22,.51,.23,.94,.61,1.24,.99,.78,2.1,.82,2.96-.09,.84-.88,1.49-.15,1.89,.24,.53,.5-.24,.91-.58,1.24-1.52,1.43-4.02,1.47-5.62,.14-1.66-1.38-2.03-4-.82-5.82,1.18-1.79,3.49-2.42,5.41-1.48,.64,.31,1.14,.78,1.5,1.41,.49,.85,.87,1.87,.48,2.7-.32,.67-1.35,.16-2.06,.26-.29,.04-.6,0-.9,0Z"/><path class="cls-17" d="M192.75,28.14c.54,1.94,2.21,2.63,3.57,1.37,.94-.87,1.62-.2,2.01,.22,.46,.5-.34,.97-.73,1.32-1.51,1.33-3.95,1.32-5.5,.04-1.64-1.35-2.04-3.79-.93-5.68,1.05-1.78,3.23-2.52,5.19-1.77,.83,.31,1.45,.85,1.88,1.62,1.14,2.05,.68,2.88-1.59,2.88-1.29,0-2.57,0-3.88,0Z"/><path class="cls-17" d="M369.89,8.46c.78,1.98,2.27,2.51,3.71,1.22,.9-.8,1.49-.09,1.9,.27,.49,.44-.22,.89-.57,1.21-1.51,1.43-4,1.5-5.61,.19-1.66-1.34-2.08-3.76-.98-5.67,1.06-1.84,3.33-2.6,5.31-1.77,.81,.34,1.42,.9,1.82,1.68,1.06,2.05,.64,2.79-1.6,2.79-1.2,0-2.39,0-3.59,0-.1,0-.2,.03-.39,.07Z"/><path class="cls-17" d="M108.68,26.95c-.68-1.89-1.82-2.42-3.14-1.45-.94,.69-1.51,.08-1.83-.39-.49-.73,.43-.93,.87-1.18,3.17-1.76,6.12-.02,6.13,3.56,0,1.05,.02,2.09-.01,3.14-.01,.36,.24,.91-.27,1.03-.55,.13-1.44,.35-1.67-.11-.36-.71-.51-.43-.89-.14-1.25,.97-2.54,.78-3.72-.09-1-.73-1.24-1.83-.82-2.94,.5-1.33,1.65-1.76,3-1.79,.74-.02,1.47,.06,2.37,.36Z"/><path class="cls-17" d="M180.63,26.97c-.63-1.9-1.77-2.45-3.11-1.47-.93,.68-1.49,.12-1.83-.37-.54-.76,.4-.94,.83-1.18,3.15-1.77,6.14-.04,6.15,3.52,0,1.05,.02,2.09-.01,3.14-.01,.36,.23,.92-.25,1.05-.55,.15-1.47,.34-1.67-.08-.42-.88-.65-.31-1-.07-1.24,.85-2.47,.67-3.61-.16-.95-.69-1.22-1.71-.89-2.8,.41-1.38,1.52-1.88,2.87-1.95,.79-.04,1.58,0,2.53,.37Z"/><path class="cls-17" d="M231.29,26.96c-.62-1.88-1.75-2.43-3.1-1.47-.99,.7-1.58,.09-1.92-.46-.35-.58,.48-.84,.91-1.08,3.15-1.76,6.15-.04,6.16,3.52,0,1.05,.02,2.09-.01,3.14-.01,.36,.23,.92-.25,1.05-.55,.15-1.48,.34-1.67-.07-.42-.88-.64-.32-1-.08-1.24,.85-2.47,.67-3.61-.15-.95-.69-1.22-1.7-.9-2.79,.41-1.38,1.52-1.88,2.87-1.95,.79-.04,1.58,0,2.53,.35Z"/><path class="cls-17" d="M213.57,7.16c-.22-1.74-1.35-2.28-2.88-1.5-.41,.21-.7,.63-1.31,.22-.82-.55-1.06-.93-.06-1.52,1.59-.94,3.21-1.05,4.85-.26,1.5,.73,1.62,2.12,1.58,3.58-.03,1,.03,2-.02,2.99-.02,.43,.36,1.15-.33,1.25-.54,.09-1.33,.45-1.73-.3-.33-.64-.5-.12-.71,.04-1.26,.98-2.54,.79-3.73-.06-.94-.67-1.27-1.69-.91-2.79,.47-1.43,1.62-1.93,3.04-1.96,.73-.02,1.46,.02,2.2,.32Z"/><path class="cls-17" d="M623.23,7.13c-.46-1.77-1.46-2.21-2.94-1.5-.33,.16-.56,.68-1.03,.39-.38-.23-.91-.45-1.04-.8-.19-.5,.43-.72,.78-.92,1.58-.92,3.23-1.01,4.85-.15,1.41,.74,1.52,2.09,1.48,3.49-.03,1.05,0,2.09,0,3.14,0,1.08-1.24,1.85-1.87,1.08-.58-.72-.69-.34-1.12-.05-1.19,.8-2.39,.58-3.49-.19-.9-.63-1.25-1.59-.99-2.64,.32-1.31,1.3-1.95,2.6-2.1,.89-.1,1.77-.02,2.77,.26Z"/><path class="cls-17" d="M12.07,7.88c.03-2.52,1.87-4.33,4.37-4.28,2.42,.05,4.18,1.87,4.19,4.32,0,2.51-1.83,4.36-4.31,4.35-2.49-.01-4.27-1.85-4.25-4.4Z"/><path class="cls-17" d="M138.3,27.74c-.02-2.54,1.76-4.39,4.25-4.39,2.48,0,4.31,1.85,4.3,4.36,0,2.45-1.78,4.27-4.19,4.32-2.5,.05-4.34-1.76-4.36-4.29Z"/><path class="cls-17" d="M311.01,7.88c.03-2.52,1.87-4.33,4.37-4.28,2.42,.05,4.18,1.87,4.19,4.33,0,2.51-1.83,4.36-4.31,4.35-2.49-.01-4.27-1.86-4.25-4.4Z"/><path class="cls-17" d="M51.32,7.16c-.26-1.73-1.39-2.27-2.88-1.53-.32,.16-.5,.72-.99,.42-.41-.25-1.03-.41-1.1-.9-.07-.48,.51-.69,.89-.9,1.54-.86,3.14-.93,4.71-.12,1.48,.75,1.59,2.14,1.56,3.59-.03,.99,.04,1.99-.02,2.98-.03,.42,.37,1.16-.34,1.22-.55,.05-1.35,.52-1.76-.41-.23-.53-.44-.05-.61,.09-.78,.68-1.68,.83-2.65,.57-1.43-.38-2.26-1.46-2.15-2.82,.12-1.47,1.08-2.19,2.41-2.44,.97-.18,1.95-.1,2.94,.25Z"/><path class="cls-17" d="M88.79,7.16c-.24-1.71-1.38-2.26-2.87-1.53-.32,.16-.5,.72-.99,.43-.42-.25-1.03-.41-1.11-.9-.08-.48,.51-.69,.88-.9,1.54-.86,3.14-.93,4.71-.13,1.48,.75,1.6,2.14,1.56,3.58-.03,.99,.04,1.99-.02,2.98-.03,.43,.37,1.16-.33,1.23-.55,.06-1.35,.51-1.76-.41-.24-.54-.44-.06-.61,.08-.78,.68-1.68,.83-2.65,.58-1.43-.38-2.27-1.46-2.16-2.82,.12-1.47,1.07-2.19,2.4-2.44,.97-.18,1.95-.1,2.94,.25Z"/><path class="cls-17" d="M52.22,26.91c-.27-1.73-1.41-2.28-2.89-1.52-.39,.2-.63,.69-1.27,.29-1.07-.69-1.14-.95-.06-1.6,1.57-.95,3.21-1.02,4.84-.19,1.48,.75,1.59,2.15,1.55,3.59-.02,.94,.04,1.89-.02,2.83-.03,.47,.37,1.25-.35,1.36-.53,.08-1.34,.53-1.75-.41-.23-.52-.44-.04-.61,.1-.78,.68-1.68,.83-2.65,.56-1.43-.39-2.26-1.46-2.15-2.83,.12-1.46,1.08-2.19,2.42-2.43,.97-.18,1.95-.1,2.94,.25Z"/><path class="cls-17" d="M254.08,27.71c0,2.48-1.9,4.35-4.37,4.32-2.41-.03-4.22-1.84-4.26-4.28-.05-2.46,1.83-4.39,4.29-4.4,2.47-.01,4.35,1.88,4.34,4.36Z"/><path class="cls-17" d="M555.35,3.6c2.46,.03,4.31,1.95,4.25,4.43-.06,2.49-1.96,4.31-4.43,4.25-2.4-.06-4.2-1.93-4.19-4.35,.01-2.49,1.89-4.35,4.37-4.32Z"/><path class="cls-17" d="M150.34,7.96c-.01,2.48-1.9,4.35-4.37,4.32-2.41-.03-4.21-1.85-4.26-4.29-.04-2.47,1.84-4.39,4.3-4.39,2.47,0,4.34,1.88,4.33,4.36Z"/><path class="cls-17" d="M413.73,12.28c-2.47,.02-4.33-1.85-4.33-4.35,0-2.44,1.79-4.28,4.2-4.33,2.48-.05,4.37,1.77,4.42,4.28,.05,2.47-1.81,4.39-4.29,4.4Z"/><path class="cls-17" d="M211.67,23.35c2.47,.03,4.32,1.97,4.24,4.44-.08,2.52-1.95,4.31-4.44,4.24-2.4-.07-4.18-1.92-4.16-4.36,.01-2.5,1.88-4.35,4.36-4.31Z"/><path class="cls-17" d="M583.4,7.13c-.33-1.67-1.39-2.21-2.8-1.56-.35,.16-.57,.67-1.02,.48-.45-.2-1.05-.44-1.2-.82-.15-.39,.44-.73,.82-.94,1.58-.9,3.22-.98,4.84-.14,1.43,.74,1.5,2.1,1.49,3.48-.01,1.05,.03,2.09-.02,3.13-.02,.4,.29,1.03-.3,1.15-.53,.11-1.33,.37-1.66-.19-.38-.64-.56-.27-.86-.05-1.27,.94-2.55,.76-3.72-.13-.91-.69-1.22-1.68-.85-2.79,.49-1.45,1.65-1.87,3.05-1.92,.74-.03,1.46,.08,2.21,.29Z"/><path class="cls-6" d="M109.22,64.52c0-1.15,0-2.32,0-3.49,0-.47-.14-1,.68-1.01,.84,0,.82,.48,.82,1.07,0,3.29,0,6.58-.01,9.86,0,.35,.18,.89-.47,.87-.33-.01-.9,.31-.95-.34-.06-.71-.28-.37-.59-.18-2.1,1.23-3.84,.99-5.15-.69-1.33-1.7-1.21-4.36,.26-5.91,1.44-1.52,3.13-1.56,5.2-.12,.03,.02,.09-.02,.22-.05Z"/><path class="cls-17" d="M451.43,7.96c0-1-.03-1.99,.01-2.99,.02-.38-.28-1.07,.43-1.03,.52,.03,1.36-.58,1.58,.44,.13,.59,.31,.3,.53,.1,1.13-1,2.41-1.22,3.72-.48,1.3,.73,1.46,2.04,1.46,3.37,0,1.1-.01,2.19,0,3.29,.01,.76,.15,1.38-1.08,1.38-1.23,0-1.09-.63-1.08-1.39,.01-1.1,.02-2.19,0-3.29-.02-.86-.26-1.59-1.28-1.71-1-.12-1.64,.39-1.93,1.29-.4,1.26-.21,2.57-.19,3.86,.01,.83-.08,1.23-1.1,1.23-.99,0-1.17-.37-1.11-1.22,.07-.94,.02-1.89,.02-2.84Z"/><path class="cls-17" d="M254.74,7.9c0-.95-.03-1.89,.02-2.84,.02-.39-.3-1.07,.34-1.1,.55-.03,1.4-.61,1.68,.47,.17,.66,.41,.12,.55,0,1.1-.94,2.33-1.14,3.61-.48,1.26,.65,1.51,1.89,1.53,3.18,.02,1.34-.05,2.69,.02,4.03,.05,.85-.4,.87-1,.82-.54-.05-1.24,.25-1.18-.79,.07-1.24,.03-2.49,.01-3.73,0-.92-.23-1.71-1.34-1.81-1.08-.09-1.67,.51-1.92,1.49-.32,1.27-.16,2.58-.14,3.87,.01,.79-.22,1.05-1.01,.99-.67-.05-1.29,.08-1.2-.96,.09-1.04,.02-2.09,.02-3.13Z"/><path class="cls-17" d="M67.95,27.71c0-1-.03-1.99,.01-2.99,.02-.38-.28-1.07,.43-1.03,.52,.03,1.36-.58,1.58,.44,.13,.59,.31,.3,.53,.1,1.13-1.01,2.41-1.22,3.72-.48,1.3,.73,1.46,2.04,1.46,3.37,0,1.1-.01,2.19,0,3.29,.01,.76,.15,1.38-1.08,1.38-1.23,0-1.09-.63-1.08-1.38,.01-1.1,.02-2.19,0-3.29-.02-.86-.26-1.59-1.28-1.72-1-.12-1.64,.39-1.93,1.29-.4,1.26-.21,2.57-.19,3.86,.01,.83-.08,1.23-1.1,1.22-.99,0-1.17-.36-1.11-1.22,.07-.94,.02-1.89,.02-2.84Z"/><path class="cls-17" d="M240.72,8c0,.95,.04,1.89-.02,2.84-.02,.38,.33,1.06-.36,1.08-.52,.01-1.28,.55-1.61-.44-.21-.64-.47-.11-.67,.05-1.08,.87-2.29,1.01-3.49,.4-1.14-.58-1.46-1.7-1.49-2.9-.03-1.44,.03-2.89-.05-4.33-.06-1.03,.61-.78,1.16-.81,.58-.03,1.07-.07,1.02,.8-.07,1.19-.01,2.39-.02,3.58,0,.97,.16,1.86,1.36,1.94,1.24,.09,1.85-.69,1.95-1.8,.11-1.19,.12-2.39,.03-3.58-.08-1.05,.53-.92,1.2-.96,.78-.05,1.06,.19,1.01,.99-.07,1.04-.02,2.09-.02,3.14Z"/><path class="cls-17" d="M255.46,27.65c0-1-.02-1.99,.01-2.99,.01-.35-.24-.93,.34-.97,.53-.03,1.36-.42,1.56,.29,.23,.82,.42,.41,.73,.15,1.06-.9,2.25-1.06,3.48-.45,1.23,.61,1.53,1.77,1.54,3.02,.02,1.35-.06,2.69,.03,4.03,.06,.94-.37,.99-1.13,1.02-.87,.03-1.1-.27-1.05-1.09,.07-1.14,.01-2.29,.02-3.44,0-.92-.18-1.72-1.3-1.83-1.18-.11-1.82,.59-1.96,1.62-.15,1.18-.15,2.39-.08,3.58,.06,.94-.26,1.16-1.17,1.17-.9,0-1.09-.31-1.04-1.12,.07-.99,.02-1.99,.02-2.99Z"/><path class="cls-17" d="M522.61,7.89c0-.95-.03-1.9,.02-2.84,.02-.39-.3-1.07,.35-1.09,.51-.02,1.3-.58,1.61,.42,.2,.64,.45,.18,.67,0,1.07-.89,2.26-1.05,3.49-.44,1.22,.61,1.51,1.77,1.53,3.02,.02,1.35-.06,2.7,.03,4.03,.07,.98-.4,1.01-1.15,1-.7,0-1.11-.07-1.04-.95,.09-1.14,.01-2.29,.02-3.44,0-.96-.09-1.86-1.32-1.96-1.26-.11-1.86,.68-1.97,1.77-.12,1.18-.13,2.39-.05,3.58,.07,1-.47,.97-1.18,.99-.74,.02-1.09-.14-1.03-.97,.07-1.04,.02-2.09,.02-3.14Z"/><path class="cls-17" d="M468.51,8.07c0,.95,.02,1.89-.01,2.83-.01,.36,.24,.92-.27,1.03-.5,.11-1.37,.31-1.53-.11-.36-.96-.61-.44-1.04-.14-2.11,1.44-4.47,.4-4.71-2.14-.15-1.63-.05-3.28-.12-4.92-.04-.94,.61-.7,1.1-.71,.52-.01,1.13-.18,1.09,.74-.05,1.24-.01,2.49-.01,3.73,0,.99,.24,1.81,1.44,1.86,1.19,.04,1.74-.75,1.86-1.75,.13-1.18,.12-2.39,.04-3.57-.06-.9,.31-1.04,1.1-1.04,.83,0,1.14,.2,1.08,1.07-.08,1.04-.02,2.09-.02,3.13Z"/><path class="cls-17" d="M438.35,7.94c0-1,0-1.99,0-2.99,.01-.92,1.36-1.66,1.72-.97,.6,1.16,.91,.34,1.36,.07,1.97-1.19,4.32-.07,4.53,2.26,.15,1.63,.01,3.29,.08,4.93,.04,.93-.57,.74-1.08,.73-.49-.01-1.14,.25-1.09-.71,.06-1.24,0-2.49,.02-3.74,0-.99-.2-1.82-1.41-1.88-1.18-.05-1.76,.7-1.87,1.72-.13,1.18-.13,2.39-.06,3.58,.05,.91-.32,1.05-1.12,1.06-.83,0-1.15-.2-1.09-1.07,.08-.99,.02-1.99,.02-2.99Z"/><path class="cls-17" d="M363.35,3.59c.87,0,1.7,.17,2.39,.69,.39,.29,1.16,.67,.65,1.23-.33,.36-1.02,.84-1.72,.38-.17-.11-.3-.28-.48-.35-.72-.26-1.66-.52-1.93,.37-.26,.82,.73,.85,1.31,1.03,.66,.21,1.37,.34,1.98,.65,1.7,.87,1.78,2.91,.21,4-1.57,1.09-4.15,.86-5.35-.53-.26-.3-.98-.75-.3-1.16,.47-.29,1.09-1.09,1.79-.27,.49,.57,1.08,.89,1.84,.77,.45-.07,.9-.23,.95-.78,.05-.52-.41-.64-.77-.78-.42-.16-.85-.25-1.29-.36-1.92-.49-2.78-1.38-2.58-2.68,.21-1.36,1.46-2.2,3.28-2.2Z"/><path class="cls-17" d="M242.13,10.03c.88-.5,1.73-1.19,2.63,.06,.25,.35,.88,.44,1.4,.3,.4-.1,.79-.28,.85-.72,.06-.48-.32-.7-.72-.81-.67-.19-1.36-.3-2.02-.52-1.04-.36-1.9-.96-1.92-2.19-.02-1.28,.77-1.96,1.93-2.33,1.26-.41,2.47-.29,3.59,.37,.47,.28,1.27,.74,.88,1.27-.31,.42-1.14,1.06-1.92,.32-.39-.36-.86-.48-1.38-.43-.41,.04-.83,.12-.95,.58-.13,.52,.32,.7,.68,.82,.7,.25,1.43,.42,2.14,.64,1.11,.34,1.84,1.06,1.86,2.24,.02,1.11-.71,1.82-1.66,2.28-2.04,.99-4.36,.18-5.42-1.87Z"/><path class="cls-17" d="M117.89,3.59c.87,0,1.7,.2,2.39,.7,.37,.27,1.05,.72,.7,1.13-.37,.44-1.07,.92-1.82,.46-.21-.13-.39-.36-.61-.41-.67-.15-1.54-.41-1.78,.47-.21,.79,.67,.8,1.2,.98,.71,.24,1.46,.37,2.12,.7,1.57,.8,1.73,2.69,.39,3.82-1.52,1.27-4.29,1.1-5.57-.41-.24-.28-1.02-.71-.28-1.14,.49-.28,1.1-1.07,1.8-.25,.53,.62,1.18,.9,1.98,.73,.4-.09,.76-.28,.78-.77,.01-.43-.3-.6-.64-.71-.47-.15-.95-.29-1.43-.41-1.95-.5-2.72-1.31-2.52-2.71,.18-1.32,1.49-2.18,3.29-2.17Z"/><path class="cls-17" d="M224.55,3.59c.87-.02,1.7,.16,2.41,.66,.41,.29,1.16,.72,.74,1.22-.34,.39-1.08,.94-1.83,.38-.2-.15-.4-.34-.62-.39-.64-.16-1.45-.33-1.71,.4-.29,.81,.57,.87,1.11,1.04,.71,.23,1.46,.36,2.13,.68,1.65,.8,1.84,2.76,.42,3.9-1.55,1.25-4.32,1.03-5.57-.49-.23-.28-.86-.74-.31-1.06,.5-.29,1.13-1.08,1.81-.35,.56,.6,1.16,.93,1.96,.81,.4-.06,.79-.24,.86-.71,.07-.5-.3-.7-.69-.83-.42-.14-.86-.25-1.29-.36-2-.51-2.76-1.28-2.62-2.65,.14-1.35,1.4-2.24,3.21-2.25Z"/><path class="cls-17" d="M95.09,23.35c.87,0,1.7,.19,2.4,.69,.38,.27,1.05,.71,.72,1.13-.37,.45-1.07,.91-1.82,.48-.21-.12-.39-.36-.61-.42-.67-.16-1.54-.42-1.79,.45-.23,.79,.66,.81,1.19,.99,.71,.24,1.46,.36,2.12,.69,1.57,.79,1.74,2.69,.41,3.82-1.51,1.28-4.28,1.11-5.57-.39-.25-.29-1.02-.71-.3-1.14,.48-.29,1.1-1.07,1.8-.26,.53,.62,1.18,.91,1.98,.74,.4-.08,.77-.27,.79-.76,.02-.43-.28-.61-.63-.72-.47-.15-.95-.29-1.43-.42-1.97-.5-2.72-1.3-2.54-2.7,.17-1.32,1.47-2.19,3.28-2.18Z"/><path class="cls-17" d="M188.39,5.88c-.97,.52-1.68,1.02-2.71,.06-.79-.74-1.94-.42-2.63,.49-.73,.97-.73,2.08,.03,3.04,.71,.89,1.84,1.18,2.64,.43,1.08-1.01,1.82-.48,2.7,.09-1.19,1.95-2.94,2.69-4.93,2.11-1.93-.57-3.16-2.23-3.13-4.22,.04-2.03,1.28-3.63,3.23-4.15,1.93-.52,3.68,.26,4.78,2.16Z"/><path class="cls-17" d="M634.55,5.88c-.96,.53-1.68,1.02-2.7,.07-.8-.74-1.94-.42-2.63,.49-.73,.97-.73,2.08,.02,3.04,.7,.89,1.84,1.19,2.64,.44,1.09-1.02,1.82-.48,2.71,.08-1.18,1.95-2.93,2.7-4.92,2.11-1.93-.57-3.16-2.22-3.13-4.22,.03-2.03,1.27-3.63,3.23-4.16,1.93-.52,3.67,.25,4.78,2.15Z"/><path class="cls-17" d="M100.21,5.88c-.89,.53-1.65,1.03-2.72,.03-.73-.69-1.81-.35-2.53,.44-.73,.8-.73,2.38,0,3.17,.78,.83,1.7,.95,2.71,.4,.37-.2,.52-.84,1.07-.66,.51,.17,1.18,.33,1.42,.72,.26,.42-.36,.84-.7,1.16-1.31,1.26-3.28,1.49-4.99,.61-1.6-.82-2.48-2.67-2.14-4.52,.36-2.01,1.57-3.27,3.47-3.6,1.89-.33,3.46,.47,4.4,2.25Z"/><path class="cls-17" d="M26.96,25.63c-.89,.58-1.64,.99-2.71,.03-.79-.71-1.95-.36-2.61,.58-.71,1-.69,2.1,.12,3.04,.74,.86,1.71,.96,2.7,.38,.29-.17,.51-.62,.78-.64,.66-.05,1.34,.25,1.73,.72,.25,.31-.31,.75-.6,1.05-1.3,1.35-3.34,1.63-5.1,.73-1.6-.83-2.49-2.67-2.19-4.53,.31-1.91,1.63-3.27,3.5-3.6,1.91-.33,3.49,.48,4.39,2.24Z"/><path class="cls-17" d="M220.87,32.03c-1.88-.07-3.5-1.33-3.94-3.07-.53-2.06,.26-4.1,1.94-5.03,1.71-.95,3.84-.74,5.1,.58,.31,.33,1.08,.78,.49,1.24-.45,.35-1.15,1.13-1.93,.29-.76-.81-1.66-.83-2.57-.32-.91,.51-1.05,1.38-.98,2.32,.06,.81,.43,1.43,1.18,1.76,.78,.34,1.57,.33,2.23-.28,.37-.34,.63-.66,1.26-.4,1.3,.52,1.39,.79,.37,1.77-.87,.84-1.92,1.21-3.13,1.15Z"/><path class="cls-17" d="M586.85,7.97c-.01-1.86,.93-3.36,2.53-4.03,1.64-.69,3.6-.36,4.7,.84,.29,.31,.99,.77,.48,1.16-.47,.36-1.16,1.15-1.93,.37-.84-.84-1.75-.89-2.7-.3-.92,.58-1.07,1.52-.89,2.5,.29,1.58,2.12,2.34,3.32,1.27,.68-.61,1.13-.49,1.81-.2,.72,.3,.72,.58,.27,1.15-1.09,1.36-2.94,1.91-4.71,1.32-1.83-.61-2.87-2.08-2.89-4.07Z"/><path class="cls-17" d="M155.52,31.54c-2.16,.84-3-.52-3.9-2.21-.97,1.48-1.73,3.22-3.97,2.2,.57-.84,1.09-1.8,1.79-2.59,.86-.97,.74-1.75-.05-2.66-.64-.74-1.14-1.6-1.73-2.43q2.08-.36,4,2.04c.79-1.5,1.63-3,3.75-2.05-.17,.67-.76,1.22-1.19,1.84-1.37,1.98-1.39,1.97,.02,3.99,.42,.6,.83,1.21,1.28,1.87Z"/><path class="cls-6" d="M75.61,70.4c1.34,0,2.69,.03,4.03-.01,.65-.02,.85,.19,.86,.84,.01,.77-.48,.6-.9,.6-1.64,0-3.29,.03-4.93-.01-.45-.01-1.13,.32-1.32-.25-.22-.64-.1-1.31,.52-1.88,1.17-1.08,2.25-2.25,3.35-3.4,.38-.39,.76-.8,1.05-1.25,.62-.96,.81-1.96-.16-2.82-.9-.8-2.15-.62-3.07,.34-.19,.2-.19,.65-.56,.61-.33-.03-.7-.14-.97-.34-.44-.33,.01-.62,.17-.86,1-1.61,3.34-2.13,5.02-1.16,1.64,.96,2.1,2.86,1.05,4.67-.94,1.62-2.44,2.75-3.71,4.07-.19,.2-.52,.26-.79,.38l.36,.46Z"/><path class="cls-6" d="M131.07,70.4c1.34,0,2.69,.03,4.03-.01,.65-.02,.85,.19,.86,.84,.01,.76-.48,.6-.9,.61-1.64,0-3.29,.03-4.93-.01-.45-.01-1.13,.32-1.33-.24-.22-.64-.1-1.31,.52-1.88,1.17-1.08,2.25-2.25,3.35-3.4,.38-.39,.76-.8,1.05-1.25,.62-.96,.81-1.96-.15-2.82-.9-.8-2.15-.62-3.07,.34-.2,.2-.19,.65-.56,.61-.33-.03-.7-.14-.97-.34-.44-.33,.01-.62,.17-.86,1-1.61,3.34-2.14,5.02-1.16,1.64,.96,2.1,2.86,1.05,4.67-.94,1.62-2.44,2.75-3.71,4.07-.19,.2-.52,.26-.79,.39l.36,.46Z"/><path class="cls-6" d="M90.93,67c-.24-1.97-1.77-2.7-3.35-1.75q-.92,.55-1.9-.2c1.23-1.46,2.87-1.91,4.66-1.3,1.41,.48,2.1,1.62,2.12,3.56,.02,1.24,.01,2.49,0,3.73,0,.27,.14,.68-.23,.76-.37,.08-1.12,.03-1.13-.04-.17-1.37-.71-.35-1.04-.15-1.25,.74-2.49,.66-3.64-.14-.93-.64-1.37-1.61-1.06-2.74,.38-1.39,1.46-1.92,2.8-2.06,.9-.1,1.77,.03,2.77,.34Z"/><path class="cls-17" d="M384.78,12.3c-1.52-.09-2.47-.69-2.79-2.14-.19-.84-.03-1.69-.13-2.52-.1-.78,.6-2.01-1.12-1.98-.43,0-.21-.68-.25-1.04-.03-.34-.04-.78,.48-.7,1.11,.16,.93-.62,.88-1.22-.07-.84,.09-1.23,1.1-1.23,.99,0,1.22,.35,1.09,1.2-.14,.92,.15,1.43,1.19,1.24,.71-.13,.81,.26,.8,.86-.02,.58,.04,1.14-.82,.98-1.1-.21-1.24,.42-1.18,1.29,.05,.69,0,1.39,.03,2.09,.03,.5,.17,1.15,.79,1.07,1.24-.17,1.4,.8,1.36,1.45-.05,.78-.98,.52-1.44,.67Z"/><path class="cls-17" d="M89.03,32.03c-1.65-.05-2.61-.95-2.77-2.63-.08-.89-.03-1.79-.03-2.68,0-.64,.16-1.34-.91-1.26-.63,.05-.48-.52-.46-.87,.02-.34-.23-.96,.4-.91,1.16,.1,1.04-.65,.96-1.31-.12-.97,.29-1.14,1.17-1.15,.9-.01,1.12,.31,1.02,1.12-.1,.8-.07,1.54,1.1,1.31,.77-.15,.87,.27,.88,.93,0,.69-.14,1.04-.9,.91-.84-.14-1.17,.2-1.1,1.06,.07,.79,0,1.59,.04,2.39,.03,.52,.23,1.1,.85,1.02,1.28-.17,1.35,.93,1.28,1.5-.08,.64-1,.54-1.54,.58Z"/><path class="cls-17" d="M186.32,21.28c1.11-.32,1.11,.4,1.03,1.16-.08,.81,.04,1.4,1.07,1.21,.71-.13,.91,.17,.93,.89,.02,.82-.27,1.07-1.02,.95-.82-.13-1.04,.28-.99,1.02,.05,.79,0,1.59,.04,2.39,.03,.59,.26,1.16,.97,1.07,1.25-.17,1.14,.92,1.17,1.46,.04,.58-.79,.55-1.29,.59-1.63,.12-2.69-.67-2.94-2.29-.14-.92-.08-1.88-.11-2.82-.02-.71,.24-1.54-1.02-1.47-.58,.03-.33-.61-.35-.96-.02-.3-.16-.85,.36-.8,1.28,.14,1.05-.74,.99-1.42-.08-.92,.32-1.15,1.15-.98Z"/><path class="cls-17" d="M152.61,8.89c0-.8,0-1.59,0-2.39,0-.44-.08-.83-.64-.76-.79,.1-.87-.34-.87-.98,0-.6,.12-.96,.81-.87,.65,.09,.66-.32,.72-.82,.23-2.05,1.64-3.11,3.6-2.74,.35,.06,.94,.11,.8,.58-.16,.52,.1,1.41-.88,1.46-.25,.01-.5-.01-.74,.03-.56,.1-.65,.58-.69,1.02-.07,.72,.51,.47,.83,.46,.7-.01,1.2-.05,1.19,.96-.01,.93-.45,.97-1.1,.89-.85-.11-.99,.34-.97,1.05,.04,1.44-.05,2.89,.03,4.33,.05,.95-.49,.86-1.11,.88-.64,.02-1.04-.06-.97-.86,.07-.74,.01-1.49,.01-2.24Z"/><path class="cls-17" d="M135.69,12.28c-1.68-.01-2.65-.84-2.81-2.4-.09-.89-.04-1.79-.06-2.69-.02-.69,.28-1.57-1-1.48-.63,.04-.39-.58-.39-.92,0-.33-.23-.94,.43-.87,1.17,.12,1.01-.67,.96-1.33-.07-.8,.13-1.13,1.03-1.12,.89,0,1.31,.2,1.16,1.16-.13,.84,0,1.49,1.12,1.28,.71-.14,.79,.29,.79,.87,0,.63-.04,1.1-.86,.97-.86-.14-1.15,.24-1.08,1.08,.07,.79,.02,1.59,.03,2.39,.01,.56,.25,1.09,.85,1,1.2-.18,1.27,.8,1.25,1.38-.03,.85-.95,.56-1.41,.69Z"/><path class="cls-17" d="M238.93,32.03c-1.76,.02-2.77-.84-2.92-2.47-.09-.94-.05-1.89-.05-2.84,0-.65,.12-1.34-.94-1.24-.66,.06-.49-.51-.47-.85,.02-.34-.26-.99,.35-.93,1.27,.12,1.11-.71,1.03-1.42-.1-.91,.32-1.03,1.1-1.04,.83,0,1.22,.2,1.08,1.07-.14,.92,.02,1.57,1.2,1.36,.81-.15,.68,.45,.71,.94,.03,.57-.04,1.03-.77,.89-1.15-.22-1.19,.47-1.15,1.31,.04,.7,0,1.39,.02,2.09,0,.62,.23,1.16,.93,1.08,1.23-.14,1.2,.89,1.17,1.45-.04,.65-.88,.57-1.31,.61Z"/><path d="M546.89,1.54c1.16-.33,1.09,.45,1.02,1.17-.07,.79,0,1.4,1.06,1.19,.76-.15,.89,.25,.9,.92,0,.71-.21,1.03-.93,.91-.91-.15-1.1,.3-1.03,1.1,.06,.69,.02,1.39,.01,2.08,0,.8,.21,1.37,1.18,1.31,1.01-.07,.83,.83,.96,1.35,.17,.68-.55,.58-.9,.65-1.85,.38-3.26-.72-3.36-2.6-.04-.79,0-1.59-.01-2.38-.01-.75,.29-1.66-1.08-1.54-.62,.05-.33-.6-.35-.93-.01-.33-.23-.94,.43-.86,1.13,.14,1.07-.58,.99-1.28-.1-.88,.13-1.36,1.12-1.1Z"/><path class="cls-6" d="M94.14,67.8c0-1.1,.01-2.19,0-3.29-.02-1.17,1.16-.88,1.26-.62,.42,1.07,.8,.34,1.21,.11,2.23-1.27,4.47-.15,4.65,2.38,.11,1.54,.03,3.09,.05,4.63,0,.5-.03,.83-.69,.84-.74,.02-.79-.34-.78-.91,.02-1.29,.06-2.59-.02-3.88-.09-1.55-.79-2.23-2.07-2.16-1.19,.06-1.98,.93-2.03,2.32-.04,1.24-.03,2.49,0,3.74,.02,.61-.11,.89-.81,.9-.73,0-.79-.35-.78-.92,.03-1.05,0-2.09,0-3.14Z"/><path class="cls-17" d="M320.95,7.9c0-.94-.04-1.89,.02-2.83,.02-.39-.31-1.09,.3-1.11,.66-.02,1.61-.57,2.01,.46,.22,.56,.37,.24,.56,.05,.44-.42,.96-.74,1.55-.83,.56-.08,1.44-.21,1.45,.51,.01,.54,.13,1.65-1.24,1.52-1.36-.13-2.1,.73-2.19,2.23-.06,.99-.11,2,0,2.97,.14,1.19-.54,1.07-1.33,1.12-.89,.05-1.26-.16-1.16-1.12,.09-.98,.02-1.98,.02-2.98Z"/><path class="cls-5" d="M58.24,25.82c0,1.64-.06,3.28,.02,4.92,.05,.95-.4,1.03-1.15,1.01-.67-.02-1.08-.04-1.07-.93,.06-3.28,.06-6.56,0-9.84-.02-.88,.38-.93,1.06-.94,.74-.01,1.21,.05,1.16,1.01-.08,1.59-.02,3.18-.02,4.77Z"/><path d="M205.86,26.02c0,1.59-.07,3.19,.02,4.77,.06,1.03-.5,.92-1.18,.96-.78,.05-1.01-.18-1-.98,.05-3.28,.06-6.57,0-9.85-.02-.99,.5-.85,1.11-.87,.66-.03,1.13-.02,1.09,.9-.08,1.69-.02,3.38-.02,5.07Z"/><path d="M219.65,6.27c0,1.59-.07,3.19,.02,4.77,.06,1.04-.53,.9-1.19,.95-.79,.06-1-.21-.99-.99,.04-3.23,.05-6.47,0-9.7-.02-.91,.33-1.02,1.11-1.03,.84-.01,1.11,.22,1.07,1.07-.07,1.64-.02,3.28-.02,4.92Z"/><path d="M514.34,5.99c0-1.54,.04-3.09-.02-4.62-.03-.82,.17-1.13,1.05-1.09,.75,.03,1.16,.07,1.14,1.01-.06,3.23-.06,6.47,0,9.7,.02,.94-.38,.99-1.13,1.02-.87,.03-1.08-.27-1.05-1.09,.06-1.64,.02-3.28,.02-4.92Z"/><path class="cls-5" d="M576.54,6c0,1.69-.06,3.38,.02,5.07,.04,.9-.4,.95-1.07,.92-.6-.02-1.16,.12-1.15-.86,.05-3.33,.05-6.66,0-9.99-.02-.99,.57-.81,1.16-.84,.69-.04,1.1,.05,1.06,.93-.08,1.59-.02,3.18-.02,4.77Z"/><path class="cls-6" d="M301.39,3.63c.6,3.51-2.9,2.32-3.96,3.99,.73,.31,1.53,.78,2.39,1.01,1.39,.38,2.01,1.11,1.51,2.69-2.09-.94-4.21-1.85-6.3-2.84-.78-.37-.67-1.7,.14-2.07,2.02-.94,4.07-1.82,6.21-2.78Z"/><path class="cls-17" d="M277.89,11.31c-.42-1.44-.02-2.3,1.46-2.66,.86-.21,1.65-.67,2.6-1.07-.78-.71-1.71-.96-2.55-1.22-1.38-.42-2.01-1.13-1.51-2.69,2.06,.91,4.12,1.85,6.21,2.74,.52,.22,.57,.56,.58,1.05,.02,.55-.1,.91-.66,1.15-2.05,.88-4.09,1.8-6.13,2.7Z"/><path class="cls-17" d="M132.05,27.65c0-.94-.04-1.89,.02-2.83,.02-.39-.32-1.06,.3-1.12,.56-.05,1.42-.53,1.72,.45,.17,.56,.34,.28,.55,.08,.52-.48,1.12-.86,1.84-.87,.5,0,1.3-.09,1.17,.67-.08,.5,.1,1.44-1.09,1.4-1.62-.05-2.28,.71-2.36,2.36-.04,.99-.08,1.99,.01,2.98,.1,1.02-.48,.94-1.17,.96-.74,.03-1.07-.14-1.01-.97,.08-1.04,.02-2.08,.02-3.13Z"/><path class="cls-17" d="M55.25,7.79c0-.95-.02-1.89,.01-2.84,.01-.35-.25-.91,.28-1.01,.5-.09,1.39-.31,1.52,.13,.39,1.25,.72,.31,1.13,.1,.44-.22,.9-.47,1.37-.54,.5-.07,1.31-.14,1.25,.58-.05,.55,.12,1.55-1.17,1.46-1.46-.1-2.16,.67-2.23,2.16-.05,1.09-.09,2.2,0,3.28,.09,1.01-.53,.83-1.12,.86-.68,.04-1.14,0-1.07-.91,.08-1.09,.02-2.19,.02-3.28Z"/><path class="cls-6" d="M505.97,4.99c.92-.74,1.55-1.41,2.53-1.39,.47,.01,1.18-.03,1.07,.65-.09,.53,.18,1.45-1.02,1.42-1.69-.04-2.29,.64-2.34,2.34-.03,.99-.07,1.99,.01,2.98,.08,.97-.42,1-1.16,1-.69,0-1.08-.07-1.05-.94,.07-2.08,.03-4.17,.02-6.25,0-.55,.02-.99,.76-.91,.6,.06,1.41-.25,1.2,1.11Z"/><path class="cls-17" d="M140.15,62.47c-.62,.26-1.07,.43-1.51,.64-.51,.24-.77,.12-1.02-.42-.25-.53-.06-.71,.39-.86,.09-.03,.17-.1,.26-.14q3.38-1.69,3.38,2.07c0,2.34,0,4.69,0,7.03,0,.52,.17,1.07-.76,1.07-.94,0-.74-.57-.74-1.08,0-1.35,0-2.69,0-4.04v-4.27Z"/><path class="cls-12" d="M69.74,62.48c-.64,.27-1.1,.43-1.53,.65-.53,.27-.76,.1-.99-.44-.21-.5-.13-.68,.36-.85,1.16-.39,2.34-1.73,3.36-1.15,.82,.46,.24,2.11,.27,3.22,.05,2.34,0,4.68,.02,7.01,0,.53,.03,.94-.75,.93-.75-.01-.76-.4-.76-.95,.01-2.73,0-5.47,0-8.43Z"/><path class="cls-5" d="M252.83,8.05c0,.94-.07,1.89,.02,2.83,.1,.99-.33,1.11-1.19,1.13-.92,.02-1.04-.36-1.02-1.13,.05-2.03,.06-4.07,0-6.11-.03-.93,.46-.89,1.1-.89,.63,0,1.18-.06,1.11,.89-.08,1.09-.02,2.18-.02,3.28Z"/><path class="cls-5" d="M192.15,8.04c0,1.04-.05,2.09,.02,3.13,.06,.85-.42,.86-1.01,.81-.54-.04-1.22,.23-1.2-.79,.05-2.18,.05-4.37,0-6.56-.02-.93,.59-.74,1.1-.73,.49,0,1.14-.23,1.1,.71-.05,1.14-.01,2.28-.01,3.43Z"/><path class="cls-5" d="M66.03,27.76c0,.89-.04,1.79,.01,2.68,.05,.85-.03,1.34-1.14,1.33-1.06,0-1.07-.49-1.05-1.26,.03-1.89,.03-3.77,0-5.66-.01-.77-.01-1.26,1.05-1.26,1.11,0,1.19,.48,1.15,1.33-.05,.94-.01,1.89-.01,2.83Z"/><path d="M159.04,27.83c0,.94-.05,1.89,.01,2.83,.06,.81-.16,1.1-1.04,1.11-.93,.01-1.18-.24-1.15-1.16,.07-1.98,.08-3.98,0-5.96-.04-.93,.36-1,1.12-1.02,.86-.03,1.12,.24,1.06,1.08-.07,1.04-.02,2.09-.02,3.13Z"/><path class="cls-5" d="M81.25,27.63c0-.89,.02-1.79,0-2.68-.03-.79-.08-1.36,1.1-1.36,1.2,0,1.09,.62,1.08,1.39-.02,1.94-.06,3.88,.02,5.81,.04,1.04-.55,.91-1.21,.95-.77,.05-1.06-.19-1-.99,.07-1.04,.02-2.08,.02-3.13Z"/><path d="M28.61,27.55c0-.94,.05-1.89-.01-2.83-.05-.8,.14-1.1,1.03-1.11,.92,0,1.19,.23,1.15,1.16-.08,1.98-.07,3.98,0,5.96,.03,.92-.35,1.01-1.12,1.03-.85,.02-1.12-.23-1.06-1.07,.07-1.04,.02-2.09,.02-3.13Z"/><path d="M520.64,8.08c0,.99-.07,1.99,.02,2.98,.08,.89-.37,.92-1.05,.94-.75,.02-1.18-.04-1.14-1,.08-2.03,.08-4.07,0-6.11-.03-.94,.37-.99,1.13-1.02,.86-.03,1.11,.25,1.05,1.08-.07,1.04-.02,2.09-.02,3.13Z"/><path d="M243.94,27.84c0,.84,0,1.69,0,2.53,0,.71,.25,1.43-1.04,1.41-1.14-.02-1.13-.52-1.12-1.34,.04-1.89,.06-3.78,0-5.66-.03-.89,.17-1.16,1.12-1.18,1.07-.02,1.08,.48,1.05,1.25-.04,.99,0,1.99,0,2.98Z"/><path d="M335.5,4.2c.94,0,1.89,.03,2.83,0,.68-.03,1.1,.04,1.07,.92-.03,.75-.21,1.05-1.01,1.03-1.93-.05-3.87-.05-5.81,0-.83,.02-.97-.31-.99-1.04-.01-.73,.22-.95,.93-.91,.99,.06,1.98,.01,2.98,.01Z"/><path d="M335.43,9.28c-.89,0-1.79-.03-2.68,0-.72,.03-1.18-.01-1.17-.98,0-.99,.52-.97,1.22-.96,1.84,.02,3.67,.05,5.51-.01,.87-.03,1.07,.28,1.09,1.1,.03,.97-.54,.85-1.14,.84-.94,0-1.89,0-2.83,0Z"/><path class="cls-12" d="M287.13,13.98c-.33-.27-.95-.42-.58-.89,.54-.69,.55-1.18,0-1.9-.37-.47-.16-1.15,.38-1.58,.47-.37,.98-.44,1.52-.18,.62,.3,.89,.84,.73,1.47-.28,1.13-1.14,1.94-1.76,2.88-.06,.09-.21,.13-.3,.19Z"/><path class="cls-5" d="M303.99,13.97c-.17-.12-.38-.25-.57-.4-.29-.23-.09-.45,.07-.62,.51-.55,.48-.99-.01-1.62-.57-.72-.18-1.44,.54-1.87,.71-.43,1.37-.18,1.83,.44,.48,.64-1.05,3.97-1.87,4.06Z"/><path class="cls-18" d="M267.62,30.33c-.08,.87-.58,1.39-1.44,1.38-.78,0-1.32-.41-1.35-1.27-.03-.94,.54-1.37,1.39-1.39,.81-.02,1.26,.48,1.4,1.28Z"/><path class="cls-5" d="M519.46,3.05c-.77-.1-1.26-.51-1.26-1.35,0-.91,.53-1.4,1.41-1.37,.81,.02,1.31,.54,1.31,1.35,0,.88-.53,1.35-1.46,1.38Z"/><path class="cls-5" d="M159.35,21.44c-.11,.78-.48,1.32-1.32,1.34-.9,.02-1.41-.44-1.42-1.35,0-.84,.48-1.32,1.28-1.36,.89-.04,1.35,.51,1.47,1.36Z"/><path class="cls-5" d="M244.24,21.47c-.06,.77-.46,1.28-1.29,1.31-.9,.03-1.44-.46-1.44-1.34,0-.88,.55-1.39,1.43-1.36,.81,.03,1.25,.53,1.3,1.39Z"/><path class="cls-15" d="M83.73,21.46c-.15,.84-.59,1.38-1.5,1.33-.83-.05-1.27-.56-1.26-1.37,0-.82,.5-1.32,1.3-1.34,.9-.03,1.32,.55,1.46,1.38Z"/><path class="cls-12" d="M343.84,10.67c-.16,.87-.67,1.37-1.55,1.28-.77-.08-1.3-.53-1.25-1.38,.06-.92,.67-1.31,1.52-1.27,.81,.05,1.21,.58,1.28,1.36Z"/><path class="cls-15" d="M66.34,21.45c-.15,.84-.58,1.39-1.49,1.34-.83-.04-1.27-.55-1.27-1.36,0-.82,.49-1.32,1.29-1.35,.9-.04,1.32,.55,1.47,1.38Z"/><path class="cls-5" d="M31.06,21.54c-.1,.77-.53,1.25-1.36,1.25-.9,0-1.4-.53-1.37-1.42,.03-.81,.55-1.3,1.35-1.29,.88,0,1.35,.53,1.38,1.46Z"/><path class="cls-15" d="M251.65,.29c.88,.06,1.44,.55,1.45,1.4,.01,.78-.47,1.31-1.3,1.35-.82,.04-1.34-.38-1.42-1.21-.08-.9,.42-1.37,1.27-1.54Z"/><path class="cls-18" d="M192.44,1.68c-.05,.75-.42,1.29-1.25,1.35-.9,.06-1.46-.44-1.48-1.3-.02-.85,.51-1.42,1.39-1.41,.79,.01,1.26,.5,1.34,1.36Z"/><path class="cls-15" d="M65.5,70.75c-.03,.7-.34,1.12-1.08,1.13-.63,0-1.03-.29-1.08-.95-.06-.7,.27-1.16,.97-1.21,.69-.05,1.09,.34,1.18,1.03Z"/><path class="cls-15" d="M126.32,71.89c-.83-.03-1.21-.37-1.21-1.1,0-.65,.36-1.03,.97-1.06,.68-.04,1.14,.32,1.17,1.03,.03,.7-.33,1.09-.93,1.14Z"/><path class="cls-8" d="M39.1,65.25c0,5.7-4.76,10.47-10.45,10.48-5.8,0-10.54-4.75-10.53-10.55,0-5.68,4.79-10.4,10.53-10.4,5.7,0,10.46,4.77,10.46,10.47Z"/><path class="cls-10" d="M270.23,7.82c-.01,1.25-.93,2.22-2.1,2.23-1.24,0-2.16-1.02-2.11-2.36,.04-1.25,1-2.2,2.17-2.15,1.17,.05,2.05,1.03,2.03,2.29Z"/><path class="cls-19" d="M40.75,5.64c1.23,.03,2.17,1.1,2.12,2.4-.05,1.32-1.06,2.27-2.31,2.2-1.19-.07-2.02-1.02-2.01-2.32,0-1.36,.93-2.31,2.2-2.28Z"/><path class="cls-19" d="M118.73,27.76c-.04,1.31-1.04,2.28-2.29,2.23-1.24-.06-2.1-1.09-2.03-2.45,.06-1.28,.96-2.17,2.18-2.15,1.23,.02,2.18,1.07,2.14,2.37Z"/><path class="cls-19" d="M570.88,8.01c-.04,1.31-1.04,2.28-2.29,2.23-1.24-.06-2.1-1.09-2.03-2.45,.07-1.28,.97-2.17,2.18-2.15,1.23,.02,2.18,1.07,2.14,2.37Z"/><path class="cls-19" d="M421.39,7.91c.01-1.4,.88-2.31,2.18-2.27,1.2,.03,2.06,.96,2.08,2.25,.02,1.36-.87,2.34-2.13,2.35-1.29,0-2.13-.92-2.12-2.33Z"/><path class="cls-19" d="M124.26,27.65c.01-1.4,.89-2.3,2.19-2.27,1.2,.03,2.05,.97,2.07,2.26,.02,1.36-.88,2.34-2.14,2.34-1.29,0-2.13-.93-2.11-2.34Z"/><path class="cls-19" d="M6.47,27.65c.02,1.36-.88,2.34-2.15,2.34-1.26,0-2.17-.98-2.15-2.34,.02-1.29,.88-2.23,2.07-2.26,1.27-.04,2.21,.91,2.23,2.26Z"/><path class="cls-19" d="M165.77,5.64c1.25,.04,2.15,1.06,2.09,2.4-.06,1.35-1.03,2.27-2.3,2.2-1.16-.07-2.04-1.08-2.03-2.33,.02-1.32,.99-2.31,2.24-2.27Z"/><path class="cls-9" d="M489.04,5.64c1.24-.02,2.21,.98,2.21,2.3,0,1.25-.89,2.25-2.06,2.3-1.27,.06-2.24-.89-2.28-2.23-.04-1.33,.88-2.35,2.13-2.37Z"/><path class="cls-9" d="M58.11,66.69c1.25,.05,2.17,.89,2.15,1.98-.02,1.16-1,1.99-2.33,1.97-1.32-.02-2.25-.89-2.2-2.08,.05-1.17,1.01-1.92,2.39-1.87Z"/><path class="cls-3" d="M59.85,63.69c-.05,1.01-.77,1.57-1.92,1.54-1.06-.03-1.78-.55-1.79-1.73-.02-1.05,.79-1.81,1.91-1.78,1.06,.03,1.81,.75,1.8,1.97Z"/><path class="cls-19" d="M119.91,66.69c1.27,.03,2.19,.84,2.2,1.93,.01,1.14-.98,2.02-2.29,2.02-1.37,0-2.23-.79-2.22-2.03,.01-1.2,.91-1.95,2.31-1.92Z"/><path class="cls-10" d="M119.72,65.25c-.95-.1-1.75-.53-1.76-1.8-.01-1.23,.82-1.67,1.82-1.7,1.03-.04,1.83,.46,1.94,1.62,.09,1.05-.73,1.86-2,1.88Z"/><path class="cls-11" d="M496.62,6.78c1.26-1.89,2.74-1.88,3.86,0h-3.86Z"/><path class="cls-11" d="M80.43,6.84h-3.85c.31-.98,.95-1.41,1.85-1.44,.92-.04,1.61,.33,2,1.44Z"/><path class="cls-11" d="M614.73,6.84h-3.87c.33-.98,.96-1.41,1.87-1.44,.92-.04,1.61,.33,2,1.44Z"/><path class="cls-11" d="M67.66,6.83h-3.88c.23-.97,.9-1.36,1.78-1.42,.99-.08,1.65,.4,2.09,1.42Z"/><path class="cls-11" d="M398.94,6.8c.38-.94,1-1.38,1.92-1.4,.93-.02,1.57,.41,2,1.4h-3.91Z"/><path class="cls-11" d="M16.08,26.57h-3.93c.39-.97,1.01-1.42,1.94-1.43,.93-.01,1.56,.42,2,1.43Z"/><path class="cls-11" d="M128.51,6.84h-3.91c.36-1.03,1.04-1.45,2.01-1.44,.93,0,1.53,.47,1.9,1.44Z"/><path class="cls-11" d="M431.03,6.83c.44-1.12,1.17-1.51,2.14-1.43,.84,.06,1.44,.49,1.73,1.43h-3.88Z"/><path class="cls-11" d="M533.87,6.78c1.24-1.89,2.7-1.88,3.87,0h-3.87Z"/><path class="cls-16" d="M173.54,6.89c.45-1.17,1.18-1.6,2.23-1.48,.74,.08,1.54,.45,1.49,1.18-.05,.66-.9,.23-1.38,.29-.72,.08-1.46,.02-2.34,.02Z"/><path class="cls-16" d="M602,6.85h-3.83c.31-1.07,1-1.48,1.99-1.46,.93,.03,1.52,.49,1.85,1.46Z"/><path class="cls-13" d="M192.82,26.6c.45-1.11,1.15-1.54,2.14-1.44,.83,.09,1.51,.41,1.64,1.44h-3.78Z"/><path class="cls-13" d="M370.02,6.84c.46-1.1,1.15-1.54,2.14-1.44,.83,.08,1.51,.41,1.65,1.44h-3.79Z"/><path class="cls-4" d="M106.92,28.12c.62,.06,1.56-.01,1.58,.68,.02,.99-.84,1.56-1.84,1.58-.66,.01-1.35-.24-1.33-1.08,.03-.99,.8-1.13,1.59-1.18Z"/><path class="cls-4" d="M179.12,28.12c.41,.24,1.41-.16,1.33,.8-.08,.95-.89,1.44-1.81,1.46-.66,.02-1.37-.23-1.34-1.07,.04-1.08,.9-1.15,1.82-1.19Z"/><path class="cls-4" d="M231.21,28.72c-.3,1.13-.98,1.66-1.98,1.66-.67,0-1.35-.3-1.27-1.14,.09-.96,.85-1.11,1.65-1.11,.63,0,1.24,.06,1.6,.59Z"/><path class="cls-16" d="M213.65,9.05c-.26,1.03-.92,1.53-1.83,1.58-.74,.04-1.5-.29-1.42-1.16,.08-.9,.87-1.13,1.68-1.08,.6,.04,1.29-.05,1.57,.66Z"/><path class="cls-16" d="M621.75,8.38c.46,.15,1.39-.13,1.39,.74,0,.97-.84,1.45-1.74,1.5-.74,.04-1.5-.28-1.43-1.15,.07-.9,.86-1.1,1.78-1.1Z"/><path class="cls-19" d="M16.33,10.24c-1.26,0-2.13-.97-2.11-2.35,.02-1.36,.93-2.3,2.2-2.25,1.18,.04,2.03,.98,2.05,2.27,.01,1.36-.89,2.34-2.14,2.33Z"/><path class="cls-19" d="M142.62,25.39c1.25,.02,2.12,1.02,2.08,2.39-.04,1.29-.9,2.2-2.1,2.21-1.27,.01-2.15-.94-2.15-2.31,0-1.36,.9-2.31,2.17-2.29Z"/><path class="cls-19" d="M317.4,7.98c-.02,1.35-.96,2.3-2.21,2.25-1.25-.05-2.09-1.05-2.04-2.42,.05-1.3,.91-2.18,2.13-2.18,1.25,0,2.14,.99,2.12,2.35Z"/><path class="cls-14" d="M51.4,8.99c-.29,1.02-.9,1.58-1.84,1.63-.74,.04-1.49-.22-1.43-1.13,.06-.95,.85-1.13,1.65-1.11,.62,.01,1.26,.02,1.62,.61Z"/><path class="cls-14" d="M88.88,8.99c-.28,1.02-.9,1.58-1.84,1.63-.74,.04-1.49-.22-1.43-1.13,.06-.95,.85-1.13,1.65-1.11,.62,.01,1.26,.02,1.62,.61Z"/><path class="cls-14" d="M50.83,28.12c.45,.21,1.44-.14,1.37,.79-.06,.93-.87,1.44-1.8,1.47-.67,.02-1.39-.22-1.37-1.04,.02-1.07,.87-1.18,1.8-1.22Z"/><path class="cls-19" d="M249.78,29.99c-1.25,0-2.18-.98-2.17-2.32,0-1.34,.95-2.31,2.2-2.28,1.15,.02,2.08,1.02,2.12,2.24,.03,1.27-.95,2.35-2.15,2.36Z"/><path class="cls-19" d="M555.27,5.63c1.21-.01,2.2,1.04,2.19,2.32,0,1.22-.94,2.24-2.08,2.28-1.25,.05-2.21-.91-2.24-2.24-.03-1.33,.88-2.34,2.13-2.36Z"/><path class="cls-19" d="M148.19,8.01c-.04,1.29-1.06,2.28-2.28,2.22-1.24-.06-2.11-1.11-2.03-2.44,.08-1.28,.98-2.17,2.18-2.15,1.2,.02,2.18,1.1,2.14,2.37Z"/><path class="cls-10" d="M415.86,7.94c0,1.3-.98,2.32-2.2,2.3-1.22-.02-2.15-1.07-2.11-2.38,.04-1.26,.94-2.21,2.11-2.23,1.23-.02,2.2,1,2.2,2.3Z"/><path class="cls-10" d="M211.55,29.99c-1.22-.03-2.15-1.09-2.09-2.39,.05-1.32,1.04-2.27,2.28-2.2,1.16,.07,2.04,1.08,2.03,2.31-.01,1.31-.99,2.31-2.22,2.28Z"/><path class="cls-13" d="M581.9,8.38c.49,.11,1.41-.1,1.42,.72,.01,1.05-.87,1.51-1.85,1.53-.68,.01-1.36-.33-1.3-1.12,.06-.92,.82-1.13,1.73-1.13Z"/><path class="cls-9" d="M109.26,67.75c.02,1.7-.98,2.9-2.47,2.95-1.55,.05-2.68-1.17-2.68-2.9,0-1.65,1.09-2.88,2.55-2.89,1.48-.01,2.57,1.19,2.59,2.85Z"/><path class="cls-3" d="M88.52,70.7c-.9-.01-1.58-.36-1.67-1.32-.08-.86,1.12-1.7,2.34-1.55,.65,.08,1.65-.16,1.77,.92,.1,.94-1.24,1.97-2.43,1.96Z"/><path class="cls-2" d="M31.25,63.59c0,.8,0,1.6,0,2.39,0,.55-.08,1.12,.78,1.1,.69-.01,.57,.57,.56,.99-.01,.4,.21,1.03-.49,1.03-.8,0-.93,.43-.84,1.04,.15,1.02-.42,1.1-1.24,1.11-.85,.01-1.22-.24-1.08-1.1,.15-.92-.35-1.08-1.13-1.03-.85,.05-1.7,.01-2.55,.01-1.42,0-2.02-.8-1.29-2,1.45-2.38,3.02-4.69,4.65-6.95,.51-.72,1.5-.36,2.24-.25,.69,.1,.35,.82,.38,1.26,.05,.79,.01,1.6,.01,2.39Z"/><path class="cls-7" d="M28.93,63.68c0,.84,0,1.69,0,2.53,0,.49-.04,.91-.7,.86-.54-.04-1.34,.14-1.57-.14-.42-.52,.39-.88,.63-1.33,.39-.72,.9-1.37,1.36-2.05l.27,.13Z"/></g></g></svg>