<?xml version="1.0" encoding="UTF-8"?><svg id="Layer_2" xmlns="http://www.w3.org/2000/svg" viewBox="0 0 643.42 113.98"><defs><style>.cls-1{fill:#2f528f;}.cls-2{fill:#fafafa;}.cls-3{fill:#f5f5f5;}.cls-4{fill:#040404;}.cls-5{fill:#020202;}.cls-6{fill:#030303;}.cls-7{fill:#4472c3;}.cls-8{fill:#fdfdfd;}.cls-9{fill:#fbfbfb;}.cls-10{fill:#f9f9f9;}.cls-11{fill:#fdfdfe;}.cls-12{fill:#050505;}.cls-13{fill:#f7f7f7;}.cls-14{fill:#f3f3f3;}.cls-15{fill:#070707;}.cls-16{fill:#f8f8f8;}.cls-17{fill:#010101;}.cls-18{fill:#060606;}.cls-19{fill:#fcfcfc;}</style></defs><g id="Layer_1-2"><g><path class="cls-7" d="M53.6,111.19c2.97-1,5.55-1.87,8.14-2.74,.87-.29,.94,.29,.85,.88-.19,1.26,.42,1.44,1.53,1.44,121.32-.02,242.64-.02,363.97,0,1.19,0,1.79-.21,1.6-1.52-.08-.53-.02-1.03,.8-.75,2.54,.87,5.09,1.71,8.03,2.69-2.96,.99-5.56,1.85-8.16,2.72-.63,.21-.74-.18-.66-.6,.28-1.6-.58-1.7-1.87-1.69-30.23,.03-60.46,.02-90.69,.02-90.84,0-181.68,0-272.52-.01-1.22,0-2.34-.12-2.01,1.7,.14,.77-.36,.73-.94,.53-2.54-.87-5.1-1.7-8.04-2.67Z"/><path class="cls-1" d="M40.3,65.38c-.05,6.51-5.59,11.9-12.16,11.83-6.52-.07-11.9-5.61-11.82-12.17,.08-6.44,5.58-11.8,12.08-11.76,6.53,.04,11.95,5.55,11.89,12.1Z"/><path class="cls-17" d="M270.16,10.97c-1.44,1.15-2.94,1.41-4.46,.4-1.46-.97-2-2.44-1.79-4.16,.21-1.67,1.05-2.88,2.69-3.42,.42-.14,.91-.27,1.31-.17,1.21,.31,2.36,.85,3.67,.3,.55-.23,.74,.21,.74,.76-.03,2.39,.07,4.79-.05,7.18-.09,1.75-.89,3.17-2.7,3.75-1.81,.58-3.46,.31-4.8-1.12-.3-.32-1-.78-.35-1.16,.5-.29,1.19-1.15,1.93-.25,.74,.9,1.68,1.1,2.67,.62,1.08-.52,1.32-1.51,1.13-2.72Z"/><path d="M194.12,7.92c0-.95-.04-1.89,.02-2.84,.02-.39-.31-1.07,.28-1.13,.56-.06,1.38-.51,1.74,.44,.27,.71,.49,.06,.67-.05,1.63-1.07,2.56-1.09,4.01,.2,.47,.42,.61,.22,.91-.05,1.07-.98,2.29-1.19,3.59-.57,1.26,.59,1.5,1.76,1.5,3.01,0,1.39-.06,2.79,.02,4.18,.05,.94-.47,.88-1.1,.89-.65,0-1.16,.02-1.1-.9,.08-1.24,.01-2.49,.02-3.73,0-.86-.11-1.63-1.2-1.71-1.04-.07-1.63,.58-1.76,1.47-.16,1.07-.06,2.18-.11,3.27-.03,.74,.42,1.67-1.1,1.64-1.56-.03-.97-1.02-1.02-1.71-.07-1.04,.02-2.09-.04-3.13-.04-.8-.33-1.48-1.29-1.54-.88-.06-1.39,.4-1.66,1.2-.45,1.36-.24,2.77-.21,4.15,.02,.95-.39,1.02-1.15,1-.68-.02-1.12-.05-1.05-.94,.09-1.04,.02-2.09,.02-3.13Z"/><path d="M22.01,7.89c0-.95-.04-1.89,.02-2.84,.02-.38-.34-1.06,.31-1.1,.56-.03,1.4-.54,1.72,.47,.2,.65,.41,.11,.58,0,1.84-1.17,2.59-1.2,4.11,.14,.52,.45,.64,.14,.91-.11,1.03-.92,2.19-1.13,3.46-.6,1.3,.55,1.6,1.68,1.61,2.94,.01,1.39-.06,2.79,.02,4.18,.06,.94-.38,.99-1.14,1.02-.86,.03-1.12-.26-1.07-1.1,.07-1.19,0-2.39,.02-3.58,0-.87-.14-1.62-1.23-1.68-1.05-.05-1.62,.61-1.73,1.5-.15,1.18-.12,2.38-.08,3.57,.03,.86-.05,1.31-1.15,1.31-1.12,0-1.03-.57-1.01-1.29,.02-1.09,.02-2.19,0-3.28-.02-.9-.2-1.73-1.33-1.81-1.05-.07-1.51,.61-1.72,1.51-.3,1.28-.17,2.58-.11,3.86,.04,1.01-.48,.95-1.18,.97-.74,.03-1.08-.14-1.01-.97,.08-1.04,.02-2.09,.02-3.13Z"/><path class="cls-17" d="M477.3,4.89c.7-.73,1.48-1.29,2.57-1.3,1.73-.02,2.87,1.02,2.96,2.86,.07,1.44-.02,2.89,.03,4.34,.03,.81-.03,1.24-1.07,1.23-1,0-1.14-.37-1.1-1.21,.06-1.19,.02-2.39,.01-3.59,0-.75-.19-1.41-1.07-1.55-.94-.15-1.55,.29-1.84,1.15-.39,1.16-.14,2.37-.21,3.56-.04,.75,.4,1.67-1.11,1.65-1.55-.02-.99-1.02-1.04-1.72-.06-.94-.01-1.89-.02-2.84,0-.91-.14-1.75-1.29-1.81-1.14-.07-1.64,.7-1.74,1.66-.12,1.19-.12,2.39-.07,3.58,.03,.82-.19,1.1-1.06,1.12-.94,.02-1.18-.26-1.15-1.17,.07-1.99,0-3.99,.03-5.98,0-.34-.25-.94,.39-.92,.52,.01,1.29-.46,1.53,.34,.17,.58,.27,.45,.65,.21,2.12-1.32,2.69-1.26,4.59,.4Z"/><path class="cls-17" d="M161.01,27.62c0-.95-.04-1.9,.02-2.84,.02-.38-.33-1.07,.36-1.08,.51,0,1.3-.58,1.6,.44,.19,.64,.45,.16,.69,0,1.68-1.13,2.53-1.16,3.99,.12,.53,.47,.69,.2,1.04-.1,1.04-.91,2.22-1.09,3.47-.52,1.2,.55,1.53,1.63,1.55,2.84,.02,1.4-.04,2.79,.02,4.19,.04,.83-.2,1.11-1.06,1.09-.77-.02-1.19-.1-1.12-1.03,.08-1.19,.02-2.39,.02-3.59,0-.86-.13-1.64-1.2-1.73-1.03-.09-1.56,.5-1.78,1.43-.29,1.23-.14,2.48-.12,3.72,.02,.86-.13,1.21-1.11,1.21-1.03,0-1.13-.42-1.09-1.24,.06-1.14,.02-2.29,.01-3.44,0-.87-.21-1.61-1.27-1.69-1.06-.08-1.62,.6-1.73,1.49-.15,1.28-.17,2.59-.09,3.88,.06,1.02-.51,.94-1.2,.97-.77,.04-1.07-.18-1.01-.99,.07-1.04,.02-2.09,.02-3.14Z"/><path d="M32.76,27.58c0-.95-.02-1.9,.01-2.84,.01-.36-.24-.92,.26-1.03,.5-.11,1.35-.32,1.53,.11,.35,.82,.52,.58,1.04,.19,1.34-1,2.54-.95,3.77,.2,.42,.39,.59,.47,1.01,.04,.98-.99,2.18-1.18,3.44-.64,1.35,.58,1.64,1.75,1.63,3.08-.02,1.35-.07,2.7,.02,4.04,.06,.93-.35,1.01-1.12,1.03-.87,.03-1.11-.25-1.06-1.09,.07-1.19,0-2.39,.02-3.59,.01-.88-.17-1.62-1.24-1.68-1.04-.06-1.63,.58-1.72,1.5-.13,1.28-.15,2.59-.07,3.88,.06,1.04-.53,.92-1.2,.97-.78,.05-1.05-.2-1.01-.99,.07-1.19,.04-2.39,0-3.59-.03-.82-.16-1.64-1.22-1.76-1.14-.13-1.72,.61-1.83,1.55-.16,1.28-.16,2.59-.09,3.88,.06,.94-.43,.91-1.08,.91-.62,0-1.18,.08-1.11-.87,.08-1.09,.02-2.19,.02-3.29Z"/><path class="cls-17" d="M358.12,4.56c0,1.05,.04,2.09,0,3.14-.14,2.69-1.87,4.47-4.38,4.58-2.63,.11-4.43-1.35-4.69-4.14-.22-2.37-.12-4.77-.15-7.16-.01-1.07,.82-.57,1.3-.66,.62-.11,1.01,.03,.99,.84-.05,2.04-.03,4.08-.01,6.13,.02,1.87,.82,2.87,2.27,2.9,1.57,.04,2.42-.94,2.45-2.89,.03-1.99,.06-3.99-.02-5.98-.03-.92,.35-1.04,1.12-1.03,.73,.01,1.23,0,1.15,.99-.1,1.09-.02,2.19-.02,3.29h0Z"/><path class="cls-17" d="M38.63,11.17c0,1.24-.05,2.29,.02,3.32,.05,.82-.17,1.11-1.05,1.11-.92,0-1.18-.24-1.16-1.17,.06-3.14,.02-6.28,.03-9.42,0-.36-.23-.92,.26-1.05,.55-.15,1.5-.33,1.67,.08,.37,.94,.65,.32,.97,.1,1.05-.72,2.16-.73,3.27-.21,1.67,.79,2.39,2.25,2.39,4,0,1.75-.72,3.21-2.4,3.99-1.41,.66-2.71,.39-3.98-.77Z"/><path class="cls-17" d="M566.34,11.13c0,1.28-.05,2.32,.02,3.36,.05,.82-.16,1.11-1.05,1.12-.92,0-1.18-.24-1.16-1.17,.06-3.14,.02-6.28,.03-9.42,0-.36-.23-.92,.26-1.04,.55-.14,1.5-.34,1.67,.09,.38,.95,.65,.31,.96,.1,1.05-.72,2.16-.73,3.27-.21,1.67,.79,2.39,2.25,2.39,4,0,1.75-.72,3.21-2.4,3.99-1.4,.65-2.71,.44-3.98-.8Z"/><path class="cls-17" d="M114.49,31.04c0,1.09-.04,2.09,.01,3.08,.04,.79-.01,1.27-1.07,1.25-.95-.02-1.15-.31-1.14-1.2,.05-3.14,.01-6.28,.03-9.42,0-.36-.24-.91,.28-1.03,.55-.12,1.49-.34,1.66,.11,.31,.81,.5,.42,.86,.16,1.36-1,2.74-.8,4.03,.1,2.32,1.62,2.28,5.64-.04,7.25-1.43,.99-2.77,.92-4.61-.3Z"/><path d="M124.3,31.21c0,1.02-.06,2,.02,2.97,.07,.89-.17,1.21-1.13,1.18-.86-.02-1.07-.27-1.05-1.09,.05-3.18,.01-6.37,.03-9.55,0-.35-.24-.97,.27-1,.59-.03,1.4-.47,1.79,.35,.15,.31,.18,.4,.44,.16,1.49-1.33,3.04-1.12,4.47,.01,1.53,1.22,1.8,2.94,1.37,4.74-.66,2.74-3.15,3.64-6.21,2.23Z"/><path d="M6.38,24.17c0-1.08,.07-2.11-.02-3.13-.08-.95,.38-1.03,1.13-1,.67,.02,1.07,.03,1.05,.93-.06,3.28-.02,6.56-.03,9.84,0,.31,.2,.82-.26,.88-.56,.07-1.41,.33-1.66-.16-.31-.63-.31-.54-.8-.19-1.69,1.22-3.85,.74-5.05-1.04-1.1-1.65-.97-4.08,.29-5.57,1.31-1.55,2.86-1.74,5.34-.56Z"/><path d="M421.14,11.45c0,1.02-.06,2,.02,2.97,.07,.89-.17,1.21-1.13,1.18-.86-.02-1.07-.27-1.05-1.09,.05-3.18,.01-6.37,.03-9.55,0-.35-.24-.97,.27-1,.59-.03,1.4-.47,1.79,.35,.15,.31,.18,.4,.44,.16,1.49-1.33,3.04-1.12,4.47,.01,1.53,1.22,1.8,2.94,1.37,4.74-.66,2.74-3.15,3.64-6.21,2.23Z"/><path class="cls-17" d="M167.73,4.63c0-1.16,.03-2.14,0-3.11-.03-.76-.04-1.29,1.04-1.26,.95,.03,1.15,.29,1.13,1.18-.06,3.14-.01,6.27-.03,9.41,0,.37,.23,.94-.23,1.06-.49,.14-1.45,.14-1.54-.08-.36-.85-.63-.5-1.08-.15-.3,.24-.69,.41-1.06,.51-1.54,.38-3.27-.53-4.07-2.1-.93-1.81-.55-4.18,.88-5.5,1.29-1.19,2.87-1.33,4.38-.39,.15,.09,.29,.21,.58,.41Z"/><path class="cls-17" d="M486.75,4.45c2.45-1.25,4.24-.99,5.52,.79,1.25,1.74,1.05,4.41-.44,5.91-1.29,1.29-3.01,1.51-4.47,.49-.47-.33-.62-.59-.95,.18-.18,.43-1.03,.22-1.54,.11-.5-.11-.26-.67-.26-1.03-.02-3.19,.02-6.37-.03-9.56-.01-.87,.27-1.06,1.09-1.06,.81,0,1.16,.16,1.09,1.05-.08,1.03-.02,2.07-.02,3.12Z"/><path class="cls-17" d="M6.45,0c1.23,.02,2.38,.31,3.33,1.1,.31,.26,1.28,.46,.58,1.13-.44,.42-.75,1.56-1.84,.63-1.33-1.13-2.88-1.03-4.31-.15-1.52,.93-2.05,2.4-1.79,4.11,.45,3.02,3.8,4.43,6.25,2.51,1.09-.85,1.45-.15,1.94,.43,.75,.87-.28,1.06-.68,1.36-2.18,1.61-5.22,1.55-7.37-.08C.43,9.43-.4,6.66,.47,4.09,1.3,1.61,3.69-.03,6.45,0Z"/><path class="cls-17" d="M389.44,4.74c1.32-1.17,2.67-1.54,4.1-.76,1.37,.75,1.47,2.14,1.47,3.51,0,1.09-.03,2.19,.01,3.28,.03,.78,0,1.26-1.06,1.24-.97-.02-1.17-.32-1.12-1.2,.07-1.14,.04-2.29,.01-3.43-.02-.85-.26-1.61-1.27-1.73-1.07-.13-1.69,.43-1.97,1.42-.35,1.27-.19,2.58-.15,3.86,.02,.87-.27,1.08-1.09,1.07-.79,0-1.14-.14-1.13-1.05,.06-3.23,.07-6.47,0-9.7-.02-1.03,.53-.92,1.2-.96,.77-.05,1.06,.18,1.01,.98-.07,1.08-.02,2.17-.02,3.47Z"/><path class="cls-17" d="M637.87,4.79c1.27-1.21,2.52-1.51,3.89-.9,1.41,.63,1.6,1.93,1.63,3.26,.03,1.29-.05,2.59,.03,3.89,.05,.85-.32,.97-1.04,.96-.73,0-1.24-.03-1.17-1,.09-1.19,.02-2.39,.02-3.59,0-.87-.21-1.61-1.23-1.75-1-.14-1.62,.35-1.92,1.27-.43,1.32-.19,2.67-.18,4.01,0,.86-.26,1.08-1.09,1.07-.8-.01-1.12-.15-1.11-1.05,.06-3.24,.07-6.48,0-9.72-.02-1.03,.52-.91,1.19-.96,.78-.05,1.05,.19,1,.99-.07,1.09-.02,2.18-.02,3.51Z"/><path class="cls-17" d="M103.87,4.78c1.28-1.22,2.58-1.54,3.98-.85,1.43,.71,1.53,2.09,1.55,3.47,.01,1.15-.06,2.3,.02,3.44,.06,.91-.2,1.2-1.14,1.18-.87-.02-1.11-.29-1.06-1.12,.06-1.14,.01-2.29,.02-3.44,0-.86-.17-1.62-1.18-1.79-1.07-.17-1.72,.37-2.01,1.36-.37,1.27-.15,2.58-.15,3.86,0,.78-.12,1.12-1.03,1.12-.91,0-1.18-.21-1.16-1.15,.07-3.14,.06-6.28,0-9.42-.02-.9,.19-1.19,1.14-1.17,.88,.02,1.09,.29,1.04,1.11-.07,1.04-.02,2.09-.02,3.4Z"/><path class="cls-17" d="M68.29,65.87c-.95-.91-1.68-1.95-1.13-3.39,.51-1.36,1.54-2.03,2.96-2.12,1.46-.1,2.67,.37,3.39,1.69,.68,1.24,.47,2.41-.55,3.39-.35,.33-.44,.45,0,.87,1.67,1.63,1.71,3.41,.24,4.77-1.59,1.46-4.43,1.34-5.8-.26-1.27-1.48-.97-3.26,.81-4.76,.03-.03,.04-.07,.09-.18Z"/><path class="cls-17" d="M123.88,65.96c-1.51-1.71-1.72-2.76-.89-4.09,.77-1.25,2.3-1.8,3.94-1.42,2.32,.53,3.21,3.01,1.7,4.85-.34,.41-.64,.55-.05,1.1,1.58,1.47,1.59,3.36,.17,4.67-1.65,1.51-4.53,1.33-5.9-.36-1.24-1.54-.86-3.33,1.03-4.74Z"/><path class="cls-17" d="M79.43,8.38c-.6,0-1.2-.03-1.79,.01-.37,.02-.91-.23-1.09,.17-.22,.52,.22,.95,.61,1.25,1,.75,2.09,.8,2.96-.11,.84-.88,1.48-.13,1.89,.24,.56,.5-.23,.89-.56,1.21-1.53,1.49-4.08,1.52-5.72,.13-1.66-1.41-1.95-4.12-.64-5.95,1.23-1.71,3.6-2.24,5.46-1.22,1.42,.79,1.85,2.11,1.96,3.62,.04,.55-.22,.67-.7,.66-.8-.02-1.59,0-2.39,0Z"/><path class="cls-17" d="M613.47,8.38c-.65,0-1.3-.04-1.94,.02-.35,.03-.88-.28-1.01,.27-.09,.39,.21,.76,.52,1.02,1.01,.87,2.15,.97,3.07,.03,.84-.86,1.45-.18,1.89,.2,.62,.53-.2,.89-.51,1.2-1.52,1.5-4.06,1.55-5.72,.17-1.68-1.4-1.99-4.08-.68-5.94,1.22-1.72,3.58-2.28,5.44-1.27,1.43,.77,1.87,2.1,1.99,3.6,.04,.51-.15,.71-.67,.7-.8-.02-1.59,0-2.39,0Z"/><path class="cls-17" d="M496.2,8.38c.72,1.97,2.31,2.58,3.61,1.37,.92-.86,1.57-.21,2.01,.21,.49,.47-.28,.89-.62,1.22-1.54,1.46-4.11,1.47-5.73,.06-1.6-1.4-1.89-4.01-.65-5.83,1.19-1.75,3.53-2.34,5.42-1.36,.59,.3,1.07,.72,1.4,1.31,.46,.84,.94,1.85,.56,2.68-.35,.78-1.41,.29-2.15,.32-1.24,.07-2.48,.02-3.85,.02Z"/><path class="cls-17" d="M66.59,8.38c-.75,0-1.5,.02-2.25,0-.86-.03-.77,.37-.46,.91,.68,1.17,2.3,1.5,3.34,.47,.91-.9,1.58-.21,2.01,.23,.5,.5-.32,.9-.67,1.22-1.55,1.46-4.14,1.44-5.73,0-1.57-1.42-1.83-4.11-.56-5.87,1.25-1.73,3.59-2.26,5.47-1.22,1.42,.79,1.87,2.11,1.95,3.63,.03,.57-.23,.66-.71,.64-.8-.02-1.6,0-2.4,0Z"/><path class="cls-17" d="M15.08,28.14c-.65,0-1.3-.04-1.95,.01-.35,.03-.88-.28-1.01,.28-.1,.41,.23,.75,.53,1.01,1.01,.89,2.14,.95,3.07,0,.85-.87,1.49-.13,1.9,.24,.57,.52-.25,.9-.58,1.22-1.53,1.49-4.11,1.5-5.73,.08-1.6-1.4-1.9-4.07-.65-5.85,1.23-1.75,3.56-2.3,5.45-1.31,.54,.29,.99,.67,1.3,1.2,.52,.88,1.01,1.94,.59,2.82-.34,.7-1.44,.17-2.19,.28-.24,.04-.5,0-.75,0Z"/><path class="cls-17" d="M127.57,8.38c-.7,0-1.4-.03-2.1,.01-.31,.02-.75-.23-.9,.24-.12,.37,.17,.66,.38,.92,.8,.97,2.19,1.15,3.17,.17,.85-.85,1.46-.19,1.9,.19,.63,.54-.2,.91-.51,1.21-1.53,1.51-4.08,1.54-5.73,.14-1.62-1.39-1.94-4.04-.7-5.84,1.21-1.76,3.54-2.35,5.44-1.37,.49,.26,.93,.58,1.24,1.06,.59,.91,1.12,2,.7,2.94-.36,.8-1.51,.17-2.3,.32-.19,.04-.4,0-.6,0Z"/><path class="cls-17" d="M536.46,8.38c-.6,0-1.2-.03-1.8,.01-.37,.02-.9-.24-1.08,.18-.24,.54,.24,.94,.61,1.24,.94,.74,2.03,.82,2.84-.03,.87-.91,1.6-.28,2.01,.18,.55,.6-.35,.99-.72,1.32-1.56,1.42-4.2,1.32-5.73-.16-1.54-1.48-1.72-4.15-.4-5.87,1.31-1.71,3.65-2.16,5.5-1.08,.44,.26,.81,.58,1.08,1.01,.57,.91,1.09,2.01,.65,2.95-.31,.67-1.45,.15-2.21,.26-.25,.03-.5,0-.75,0Z"/><path class="cls-17" d="M433.59,8.38c-.75,0-1.5,.02-2.25,0-.85-.03-.79,.35-.47,.9,.67,1.17,2.3,1.51,3.34,.48,.91-.9,1.58-.21,2.01,.22,.5,.5-.32,.9-.66,1.22-1.55,1.47-4.13,1.44-5.73,0-1.58-1.42-1.84-4.1-.57-5.86,1.25-1.73,3.59-2.26,5.46-1.23,1.42,.79,1.87,2.1,1.95,3.63,.03,.56-.21,.67-.7,.65-.8-.03-1.6,0-2.4,0Z"/><path class="cls-17" d="M401.51,8.38c-.75,0-1.5,.02-2.25,0-.86-.03-.77,.37-.46,.91,.68,1.17,2.29,1.5,3.34,.47,.91-.9,1.58-.21,2.01,.23,.5,.5-.32,.9-.67,1.22-1.55,1.46-4.14,1.44-5.73,0-1.58-1.42-1.83-4.11-.56-5.86,1.25-1.73,3.6-2.26,5.47-1.22,1.42,.79,1.87,2.11,1.95,3.63,.03,.56-.23,.66-.71,.64-.8-.03-1.6,0-2.4,0Z"/><path class="cls-17" d="M597.67,8.38c.82,2.09,2.24,2.57,3.75,1.28,.9-.78,1.47-.05,1.9,.32,.47,.41-.24,.83-.55,1.13-1.49,1.46-3.97,1.56-5.61,.26-1.71-1.35-2.12-3.92-.95-5.8,1.13-1.81,3.45-2.52,5.37-1.61,1.44,.69,2.06,1.93,2.17,3.49,.05,.68-.1,.97-.87,.94-1.69-.06-3.38-.02-5.2-.02Z"/><path class="cls-17" d="M176.43,8.38c-.65,0-1.3-.02-1.95,0-.32,.01-.77-.2-.95,.15-.21,.4,.15,.75,.4,1.05,.8,.96,2.16,1.11,3.17,.12,.87-.84,1.49-.15,1.9,.23,.54,.5-.23,.91-.57,1.24-1.51,1.44-4.01,1.48-5.62,.15-1.66-1.38-2.04-3.99-.83-5.82,1.18-1.79,3.49-2.43,5.41-1.5,.55,.27,1.01,.64,1.35,1.15,.6,.91,1.07,2.01,.63,2.95-.32,.69-1.44,.16-2.2,.27-.24,.04-.5,0-.75,0Z"/><path class="cls-17" d="M198.57,29.8c-1.49,2.23-3.75,2.84-5.89,1.68-1.96-1.06-2.72-3.58-1.73-5.7,.95-2.03,3.3-2.96,5.41-2.13,.93,.36,1.58,1,1.99,1.9,.92,2.04,.58,2.59-1.6,2.59-1.33,0-2.66,0-4.02,0,.54,1.75,1.94,2.42,3.28,1.66q1.24-.7,2.56,0Z"/><path class="cls-17" d="M369.64,8.38c.56,1.95,2.21,2.62,3.58,1.36,.94-.87,1.58-.17,2.01,.23,.46,.43-.29,.89-.64,1.22-1.52,1.41-4.02,1.45-5.62,.13-1.64-1.35-2.04-3.8-.92-5.68,1.05-1.78,3.23-2.51,5.19-1.76,.83,.32,1.45,.86,1.87,1.62,1.14,2.06,.68,2.88-1.6,2.88-1.28,0-2.57,0-3.88,0Z"/><path class="cls-17" d="M180.64,26.96c-.67-1.9-1.81-2.43-3.14-1.46-.93,.68-1.5,.08-1.83-.39-.5-.73,.42-.94,.86-1.18,3.16-1.76,6.13-.03,6.13,3.55,0,1.05,.02,2.09-.01,3.14-.01,.36,.24,.91-.27,1.04-.55,.13-1.48,.35-1.67-.1-.43-1-.69-.24-1-.04-1.2,.79-2.38,.65-3.5-.1-1.03-.69-1.33-1.74-.99-2.89,.39-1.31,1.45-1.82,2.74-1.92,.84-.07,1.67,0,2.67,.35Z"/><path class="cls-17" d="M231.21,26.92c-.43-1.79-1.53-2.29-2.98-1.51-.34,.18-.59,.76-1.12,.31-.32-.28-.91-.36-.93-.85-.02-.43,.46-.63,.79-.82,1.59-.9,3.22-.98,4.85-.14,1.41,.74,1.53,2.09,1.52,3.48,0,1.05,0,2.09,0,3.14,0,1.08-1.25,1.86-1.87,1.09-.57-.71-.67-.38-1.12-.08-1.18,.8-2.38,.63-3.49-.14-1.02-.71-1.31-1.77-.94-2.91,.41-1.3,1.48-1.8,2.77-1.88,.84-.06,1.67,.01,2.53,.32Z"/><path class="cls-17" d="M108.68,26.96c-.67-1.9-1.81-2.43-3.14-1.46-.93,.68-1.5,.08-1.83-.39-.5-.73,.42-.94,.86-1.18,3.16-1.76,6.13-.03,6.13,3.56,0,1.05,.02,2.09-.01,3.14-.01,.36,.24,.91-.27,1.03-.55,.13-1.48,.35-1.67-.1-.43-1.02-.7-.23-.99-.04-1.2,.78-2.38,.65-3.5-.11-1.03-.69-1.33-1.74-.99-2.89,.39-1.31,1.45-1.82,2.74-1.92,.84-.07,1.67,0,2.67,.35Z"/><path class="cls-17" d="M213.55,7.17c-.17-1.69-1.25-2.27-2.7-1.59-.27,.13-.48,.39-.76,.46-.63,.15-1.08-.35-1.37-.72-.4-.51,.28-.72,.6-.94,1.55-1.01,3.19-1.08,4.84-.3,1.51,.72,1.64,2.11,1.6,3.57-.03,1.05,0,2.09,0,3.14,0,1.1-.98,1.8-1.75,1.08-.71-.66-.86-.28-1.37,.02-1.16,.68-2.33,.46-3.37-.29-.89-.65-1.23-1.6-.97-2.65,.3-1.25,1.23-1.9,2.47-2.07,.93-.12,1.86-.13,2.79,.28Z"/><path class="cls-17" d="M622.91,7.23c-.35-1.81-1.4-2.32-2.86-1.61-.31,.15-.66,.52-.89,.45-.45-.13-1-.41-1.21-.8-.28-.5,.36-.72,.7-.93,1.56-.96,3.21-1.04,4.85-.22,1.42,.71,1.57,2.05,1.53,3.45-.03,1.1,.01,2.19-.02,3.29,0,.37,.23,.94-.24,1.05-.55,.13-1.48,.33-1.69-.1-.44-.9-.66-.28-1-.05-1.19,.83-2.38,.63-3.49-.12-.96-.65-1.32-1.65-1.02-2.76,.36-1.31,1.36-1.92,2.67-2.03,.84-.07,1.68-.09,2.67,.36Z"/><path class="cls-17" d="M20.62,7.98c-.02,2.51-1.87,4.34-4.36,4.3-2.48-.04-4.24-1.91-4.19-4.46,.05-2.45,1.84-4.23,4.27-4.22,2.48,0,4.3,1.86,4.28,4.38Z"/><path class="cls-17" d="M311.01,7.91c0-2.53,1.84-4.35,4.33-4.32,2.42,.03,4.19,1.83,4.22,4.29,.03,2.53-1.78,4.38-4.26,4.39-2.49,0-4.29-1.83-4.29-4.36Z"/><path class="cls-17" d="M146.85,27.74c-.03,2.51-1.88,4.33-4.37,4.28-2.48-.05-4.23-1.92-4.18-4.47,.05-2.45,1.85-4.22,4.29-4.21,2.48,.01,4.29,1.87,4.26,4.39Z"/><path class="cls-17" d="M51.45,7.26c-.56-1.94-1.7-2.49-3.08-1.53-1,.7-1.64,.08-1.93-.47-.34-.63,.57-.89,1.03-1.14,3.14-1.66,6.02,.05,6.02,3.55,0,.99,.04,1.99-.02,2.98-.02,.43,.36,1.16-.31,1.25-.55,.07-1.33,.48-1.78-.38-.3-.58-.51,0-.7,.14-.87,.67-1.8,.76-2.81,.4-1.27-.46-1.97-1.33-1.9-2.7,.07-1.4,.98-2.16,2.23-2.44,1.01-.22,2.06-.21,3.25,.32Z"/><path class="cls-17" d="M88.83,7.19c-.34-1.78-1.47-2.31-2.94-1.54-.4,.21-.65,.65-1.27,.26-.95-.6-1.07-1.03-.03-1.61,1.6-.89,3.23-1,4.85-.16,1.47,.76,1.57,2.16,1.53,3.6-.03,1.04,.03,2.09-.02,3.13-.02,.37,.34,1.01-.36,1.07-.55,.05-1.39,.35-1.63-.2-.3-.67-.39-.43-.74-.14-1.22,1.02-2.5,.85-3.71,.03-1.03-.69-1.33-1.79-.95-2.9,.48-1.39,1.65-1.89,3.07-1.9,.73,0,1.45,.05,2.21,.35Z"/><path class="cls-17" d="M52.32,26.98c-.48-1.88-1.56-2.34-3.05-1.56-.31,.16-.5,.7-.99,.34-.36-.26-.91-.47-1.02-.82-.15-.48,.45-.71,.82-.92,1.58-.9,3.23-.98,4.84-.12,1.39,.74,1.52,2.09,1.48,3.48-.03,1.04,.03,2.09-.02,3.13-.02,.39,.3,1.07-.28,1.14-.57,.06-1.36,.47-1.8-.35-.32-.59-.49-.07-.69,.08-1.26,.97-2.52,.79-3.72-.04-.96-.67-1.26-1.71-.93-2.78,.44-1.42,1.58-1.95,3-1.98,.74-.01,1.47,0,2.36,.39Z"/><path class="cls-17" d="M254.07,27.75c-.04,2.49-1.93,4.33-4.4,4.28-2.4-.05-4.21-1.89-4.22-4.32-.01-2.48,1.86-4.37,4.34-4.36,2.47,.01,4.32,1.92,4.29,4.4Z"/><path class="cls-17" d="M145.99,12.28c-2.46-.02-4.34-1.95-4.28-4.41,.06-2.5,1.95-4.32,4.42-4.27,2.4,.05,4.2,1.91,4.21,4.34,0,2.48-1.88,4.36-4.35,4.34Z"/><path class="cls-17" d="M559.31,7.91c.01,2.48-1.86,4.37-4.33,4.36-2.46,0-4.34-1.93-4.3-4.39,.04-2.44,1.85-4.26,4.26-4.29,2.47-.03,4.36,1.83,4.37,4.32Z"/><path class="cls-17" d="M211.64,32.03c-2.47,.02-4.33-1.85-4.33-4.35,0-2.44,1.79-4.28,4.2-4.33,2.48-.05,4.37,1.78,4.42,4.28,.05,2.47-1.81,4.39-4.29,4.4Z"/><path class="cls-17" d="M417.72,7.94c0,2.48-1.89,4.36-4.36,4.34-2.47-.02-4.3-1.92-4.26-4.41,.04-2.44,1.85-4.25,4.26-4.27,2.48-.02,4.36,1.86,4.36,4.34Z"/><path class="cls-17" d="M583.07,7.12c-.27-1.58-1.27-2.18-2.61-1.62-.27,.11-.48,.36-.75,.48-.71,.32-1.18-.28-1.51-.66-.4-.46,.26-.73,.57-.93,1.54-1.01,3.18-1.09,4.83-.33,1.52,.7,1.66,2.09,1.63,3.54-.02,1.04,0,2.09,0,3.14,0,1.15-1.11,1.88-1.84,1.09-.66-.71-.8-.22-1.21,.03-1.39,.84-3.45,.31-4.18-1.06-.89-1.67,.12-3.56,2.11-3.9,.98-.17,1.97-.08,2.95,.22Z"/><path class="cls-17" d="M131.14,66.12c.02-1.75,.44-3.36,1.72-4.63,1.68-1.66,4.27-1.55,5.83,.23,1.98,2.26,2.03,6.6,.1,8.89-1.71,2.04-4.73,1.98-6.35-.14-.98-1.28-1.33-2.76-1.3-4.35Z"/><path class="cls-17" d="M102.97,64.48c0-1.22,.02-2.45-.01-3.69-.02-.57,.16-.78,.75-.78,.58,0,.77,.18,.77,.76-.02,3.43,0,6.86-.02,10.29,0,.26,.16,.66-.26,.73-.37,.06-.98,.21-1.08-.15-.18-.67-.27-.6-.79-.26-1.82,1.16-3.61,.87-4.93-.69-1.4-1.66-1.36-4.27,.09-5.89,1.36-1.52,3.13-1.71,4.96-.52,.15,.1,.26,.32,.53,.2Z"/><path class="cls-17" d="M451.13,7.88c0-.95-.03-1.89,.01-2.84,.02-.39-.29-1.07,.36-1.09,.54-.02,1.39-.62,1.68,.49,.17,.65,.42,.09,.55-.03,1.11-.93,2.34-1.13,3.61-.46,1.26,.66,1.5,1.9,1.52,3.19,.02,1.29-.05,2.59,.02,3.88,.05,.84-.28,.99-1.02,.97-.7-.02-1.25,.04-1.17-.98,.1-1.19,.03-2.39,.02-3.58-.01-.92-.25-1.71-1.36-1.79-1.08-.08-1.66,.53-1.91,1.51-.32,1.27-.16,2.58-.13,3.87,.02,.81-.27,1.01-1.02,.98-.69-.03-1.28,.05-1.19-.97,.09-1.04,.02-2.09,.02-3.13Z"/><path class="cls-17" d="M262.48,8.91c0,.6-.03,1.2,.01,1.79,.06,.84,0,1.33-1.13,1.32-1.09-.01-1.05-.53-1.03-1.28,.03-1.09,.02-2.19,0-3.29,0-.92-.23-1.72-1.33-1.82-1.08-.1-1.68,.5-1.93,1.48-.33,1.27-.16,2.58-.14,3.87,0,.77-.19,1.07-.99,1-.66-.05-1.26,.1-1.22-.95,.08-2.09,.02-4.18,.03-6.27,0-.31-.18-.8,.34-.84,.55-.03,1.41-.35,1.6,.21,.25,.72,.31,.6,.76,.21,1-.85,2.14-1.02,3.35-.48,1.26,.57,1.58,1.71,1.67,2.94,.05,.69,0,1.39,.01,2.09Z"/><path class="cls-17" d="M75.68,28.78c0,.55-.02,1.1,0,1.64,.04,.79,.09,1.35-1.1,1.36-1.27,.01-1.06-.67-1.06-1.4,0-1.1,.02-2.19,0-3.29-.02-.86-.28-1.59-1.3-1.7-1-.11-1.63,.41-1.91,1.31-.39,1.26-.21,2.57-.18,3.86,.02,.86-.13,1.2-1.12,1.21-1.02,0-1.11-.41-1.09-1.24,.05-1.99,0-3.98,.02-5.97,0-.35-.18-.93,.45-.88,.52,.04,1.27-.42,1.54,.33,.17,.46,.14,.62,.57,.22,1.06-.98,2.3-1.19,3.59-.54,1.34,.68,1.55,1.96,1.57,3.3,0,.6,0,1.19,0,1.79Z"/><path class="cls-17" d="M240.72,7.98c0,.95,.03,1.89-.02,2.84-.02,.39,.3,1.07-.34,1.1-.51,.02-1.3,.58-1.62-.41-.21-.64-.45-.16-.67,.01-1.07,.88-2.27,1.03-3.49,.42-1.21-.61-1.5-1.79-1.52-3.03-.03-1.34,.05-2.69-.04-4.03-.07-.96,.39-1.02,1.14-1,.69,.01,1.11,.06,1.04,.94-.09,1.19-.02,2.39-.02,3.58,0,.93,.23,1.72,1.33,1.82,1.16,.1,1.82-.59,1.94-1.63,.14-1.23,.14-2.49,.06-3.73-.06-1,.47-.97,1.18-.99,.73-.02,1.09,.13,1.03,.97-.07,1.04-.02,2.09-.02,3.14Z"/><path class="cls-17" d="M255.45,27.66c0-1-.02-1.99,.01-2.99,.01-.35-.24-.93,.33-.97,.53-.04,1.37-.41,1.57,.28,.23,.79,.4,.44,.72,.17,1.06-.9,2.25-1.07,3.48-.46,1.23,.6,1.53,1.76,1.55,3.01,.02,1.39-.05,2.79,.03,4.18,.06,.98-.52,.84-1.12,.86-.66,.02-1.14,0-1.07-.91,.09-1.19,.02-2.39,.02-3.59,0-.92-.17-1.72-1.29-1.83-1.18-.12-1.83,.58-1.96,1.61-.16,1.18-.15,2.39-.08,3.58,.05,.93-.24,1.18-1.16,1.18-.88,0-1.1-.29-1.05-1.11,.07-.99,.02-1.99,.02-2.99Z"/><path class="cls-17" d="M522.31,7.82c0-1-.01-1.99,0-2.99,0-.32-.18-.81,.28-.88,.52-.09,1.43-.27,1.53,.09,.35,1.3,.78,.32,1.12,.11,2.11-1.34,4.49-.22,4.68,2.3,.12,1.59,0,3.19,.06,4.78,.04,1.07-.69,.69-1.21,.76-.65,.09-1.02-.04-.97-.85,.07-1.19,.01-2.39,.02-3.59,0-.98-.18-1.83-1.39-1.9-1.18-.07-1.77,.68-1.89,1.7-.13,1.18-.13,2.39-.07,3.58,.04,.88-.27,1.08-1.1,1.08-.79,0-1.18-.15-1.11-1.05,.08-1.04,.02-2.09,.02-3.14Z"/><path class="cls-17" d="M468.21,8.04c0,.95,.02,1.89-.01,2.83-.01,.36,.23,.92-.25,1.05-.5,.13-1.39,.3-1.54-.09-.43-1.14-.78-.32-1.16-.08-2.05,1.31-4.38,.24-4.61-2.2-.15-1.63-.05-3.28-.12-4.92-.04-.93,.57-.75,1.08-.73,.5,.01,1.15-.23,1.11,.72-.05,1.24,0,2.49-.01,3.73,0,.98,.21,1.82,1.41,1.88,1.19,.06,1.76-.72,1.88-1.72,.14-1.18,.11-2.39,.05-3.57-.05-.86,.25-1.08,1.08-1.07,.79,.01,1.18,.14,1.11,1.04-.08,1.04-.02,2.09-.02,3.13Z"/><path class="cls-17" d="M438.05,7.9c0-1-.02-1.99,.01-2.99,.01-.35-.24-.93,.34-.97,.53-.04,1.36-.41,1.56,.28,.23,.81,.41,.43,.72,.16,1.06-.9,2.25-1.06,3.48-.46,1.23,.6,1.53,1.76,1.55,3.01,.02,1.35-.06,2.69,.03,4.03,.06,.93-.36,1-1.13,1.03-.87,.03-1.11-.25-1.06-1.09,.07-1.14,.01-2.29,.02-3.44,0-.92-.17-1.72-1.3-1.83-1.18-.12-1.82,.58-1.96,1.61-.16,1.18-.15,2.39-.08,3.58,.06,.94-.25,1.17-1.16,1.17-.89,0-1.1-.3-1.04-1.12,.07-.99,.02-1.99,.02-2.99Z"/><path class="cls-17" d="M363.03,3.59c.81-.01,1.6,.15,2.27,.6,.45,.31,1.27,.7,.79,1.3-.29,.37-1.07,.96-1.83,.31-.25-.21-.6-.37-.92-.43-.55-.1-1.24-.13-1.4,.5-.19,.72,.53,.83,1.03,.99,.71,.23,1.46,.35,2.14,.65,.81,.35,1.39,.96,1.46,1.91,.07,1-.39,1.71-1.21,2.23-1.58,1.01-4.05,.75-5.22-.59-.27-.31-.98-.76-.32-1.16,.47-.29,1.09-1.1,1.79-.29,.5,.56,1.08,.89,1.83,.79,.45-.06,.91-.23,.97-.77,.06-.52-.39-.65-.75-.79-.42-.16-.85-.26-1.29-.37-1.92-.49-2.78-1.38-2.59-2.67,.2-1.36,1.46-2.21,3.27-2.21Z"/><path class="cls-17" d="M245.64,3.59c.86,0,1.71,.15,2.4,.68,.37,.29,1.18,.67,.71,1.2-.35,.39-1.08,.93-1.83,.38-.24-.17-.48-.38-.75-.44-.59-.14-1.35-.24-1.59,.41-.3,.83,.56,.87,1.08,1.06,.75,.26,1.56,.39,2.25,.75,1.61,.83,1.75,2.64,.35,3.8-1.55,1.29-4.24,1.09-5.57-.42-.26-.3-.83-.8-.4-1.04,.52-.29,1.15-1.2,1.91-.34,.5,.56,1.09,.87,1.84,.78,.46-.06,.9-.25,.96-.77,.06-.49-.37-.67-.75-.8-.42-.14-.86-.25-1.29-.36-1.96-.49-2.76-1.31-2.59-2.68,.16-1.32,1.48-2.21,3.26-2.22Z"/><path class="cls-17" d="M95.47,32.03c-1.37,.02-2.36-.28-3.15-1.04-.35-.34-1.06-.86-.57-1.26,.45-.37,1.23-1.27,2-.21,.28,.38,.71,.56,1.15,.63,.61,.09,1.3,.05,1.47-.66,.18-.75-.55-.84-1.03-1.01-.7-.24-1.45-.35-2.14-.62-.92-.35-1.43-1.06-1.42-2.06,0-1,.56-1.69,1.45-2.07,1.47-.63,2.93-.54,4.28,.32,.38,.24,1.04,.7,.69,1.14-.34,.42-1.03,.78-1.72,.53-.22-.08-.37-.35-.6-.43-.67-.26-1.54-.47-1.86,.29-.38,.92,.62,.9,1.17,1.1,.42,.15,.87,.22,1.29,.36,1.17,.38,2.1,1,2.09,2.38-.02,1.35-.91,2.02-2.08,2.41-.42,.14-.87,.19-1.03,.22Z"/><path class="cls-17" d="M117.86,3.59c.87,0,1.71,.17,2.4,.69,.38,.29,1.16,.68,.66,1.23-.33,.37-1.03,.81-1.73,.4-.17-.1-.3-.28-.48-.35-.72-.27-1.64-.52-1.92,.35-.28,.86,.73,.84,1.3,1.03,.66,.22,1.36,.34,1.98,.65,1.62,.82,1.77,2.79,.33,3.92-1.52,1.19-4.19,.99-5.46-.46-.26-.29-1.01-.72-.33-1.15,.47-.3,1.11-1.07,1.8-.29,.5,.57,1.08,.87,1.83,.79,.46-.05,.9-.22,.96-.77,.05-.51-.37-.67-.74-.8-.42-.15-.86-.25-1.29-.36-1.98-.5-2.73-1.29-2.56-2.69,.16-1.33,1.45-2.2,3.26-2.2Z"/><path class="cls-17" d="M225,12.28c-1.36,.02-2.35-.28-3.14-1.03-.36-.34-1.06-.87-.59-1.26,.45-.36,1.22-1.28,2-.23,.28,.38,.71,.57,1.15,.64,.61,.1,1.3,.06,1.48-.65,.19-.75-.53-.85-1.02-1.01-.7-.24-1.45-.36-2.14-.62-.92-.35-1.43-1.06-1.43-2.06,0-1,.55-1.69,1.44-2.07,1.47-.63,2.93-.54,4.28,.31,.38,.24,1.05,.72,.7,1.13-.37,.43-1.07,.92-1.83,.46-.21-.13-.39-.36-.61-.42-.63-.17-1.46-.37-1.74,.34-.36,.93,.61,.91,1.16,1.11,.42,.15,.87,.22,1.29,.36,1.17,.37,2.11,.99,2.1,2.37-.02,1.42-.99,2.08-2.21,2.46-.38,.12-.78,.15-.9,.17Z"/><path class="cls-17" d="M634.2,5.89c-.9,.54-1.65,1.02-2.72,.02-.73-.68-1.81-.35-2.53,.45-.73,.81-.73,2.38,.02,3.17,.78,.83,1.7,.95,2.71,.39,.37-.21,.52-.84,1.08-.66,.51,.17,1.18,.34,1.42,.73,.25,.42-.37,.84-.71,1.16-1.31,1.26-3.29,1.48-4.99,.6-1.6-.83-2.47-2.67-2.14-4.53,.36-2.01,1.58-3.27,3.48-3.6,1.9-.33,3.47,.48,4.39,2.25Z"/><path class="cls-17" d="M188.38,5.88c-.9,.47-1.63,1.07-2.72,.05-.78-.74-1.95-.39-2.62,.53-.71,.98-.71,2.09,.07,3.04,.72,.88,1.68,.98,2.69,.44,.38-.2,.53-.84,1.07-.68,.51,.15,1.18,.32,1.43,.71,.27,.42-.33,.84-.67,1.17-1.74,1.68-4.79,1.49-6.26-.37-1.55-1.96-1.18-5.02,.78-6.38,2.19-1.52,4.9-.88,6.23,1.5Z"/><path class="cls-17" d="M100.22,5.88c-.89,.51-1.64,1.04-2.72,.05-.79-.73-1.95-.38-2.62,.54-.7,.98-.7,2.09,.08,3.03,.72,.87,1.68,.97,2.69,.43,.38-.2,.52-.84,1.07-.67,.51,.16,1.18,.33,1.42,.71,.26,.41-.34,.84-.68,1.16-1.74,1.68-4.79,1.48-6.26-.38-1.54-1.96-1.16-5.03,.79-6.38,2.2-1.52,4.91-.86,6.21,1.5Z"/><path class="cls-17" d="M27.09,29.76c-1.55,2.3-3.83,2.91-5.99,1.68-1.92-1.09-2.63-3.63-1.62-5.76,.94-1.97,3.37-2.88,5.47-2.03,.36,.15,.75,.33,1.02,.6,.41,.4,1.28,.9,.78,1.43-.41,.45-1.24,1.19-2.15,.2-.73-.8-1.77-.7-2.59-.04-.92,.74-1.07,1.76-.64,2.84,.41,1.01,1.21,1.4,2.27,1.28,.24-.03,.56-.08,.69-.24,.91-1.15,1.79-.59,2.75,.04Z"/><path class="cls-17" d="M221.05,32.03c-1.96,0-3.64-1.25-4.12-3.04-.54-2.04,.24-4.11,1.9-5.05,1.75-.99,3.95-.75,5.21,.64,.28,.31,1.02,.73,.44,1.14-.48,.34-1.17,1.13-1.94,.32-.72-.76-1.55-.83-2.44-.43-.88,.4-1.16,1.17-1.16,2.08,0,.91,.3,1.68,1.17,2.07,.83,.38,1.7,.38,2.33-.35,.81-.94,1.58-.24,2.05,.18,.64,.57-.25,.98-.6,1.34-.76,.78-1.75,1.1-2.84,1.09Z"/><path class="cls-17" d="M594.58,9.99c-1.44,2.28-3.76,2.93-5.93,1.72-1.9-1.06-2.67-3.65-1.7-5.74,.91-1.96,3.36-2.92,5.45-2.1,.41,.16,.82,.38,1.14,.68,.4,.37,1.19,.89,.74,1.35-.45,.46-1.24,1.2-2.14,.23-.74-.79-1.75-.7-2.59-.07-.96,.72-1.06,1.78-.68,2.83,.37,1.01,1.18,1.43,2.25,1.31,.24-.03,.49-.1,.7-.22,1.38-.74,1.38-.75,2.76,0Z"/><path class="cls-17" d="M155.52,23.84c-.73,1.02-1.41,2.04-2.16,3.01-.44,.56-.43,1.01,0,1.57,.74,.99,1.42,2.02,2.13,3.05-2.15,1.03-2.98-.5-3.88-2.11-.58,.83-.94,1.63-1.55,2.16-.62,.54-1.53,.1-2.56,.25,.84-1.26,1.52-2.39,2.31-3.43,.4-.54,.38-.9,0-1.41-.74-.99-1.41-2.03-2.12-3.05,2.11-.98,3.01,.48,3.94,2.23,.77-1.95,1.8-3.02,3.9-2.26Z"/><path class="cls-5" d="M86.18,68.99c0,.7,.01,1.39,0,2.09,0,.26,.15,.67-.27,.72-.38,.05-1.1,0-1.11-.09-.14-1.14-.53-.45-.94-.19-1.27,.83-2.56,.76-3.76-.1-.92-.66-1.34-1.63-1.02-2.76,.42-1.45,1.6-1.96,2.98-2.03,.64-.03,1.29,.08,1.93,.14,.22,.02,.48,.33,.63,.02,.09-.19,.03-.5-.05-.72-.47-1.23-2.24-1.7-3.41-.71-.77,.65-1.26,.25-1.59-.18-.43-.57,.33-.83,.66-1.04,1.31-.84,2.75-.89,4.14-.28,1.33,.58,1.8,1.78,1.81,3.17,0,.65,0,1.29,0,1.94Z"/><path class="cls-17" d="M188.25,32.03c-1.71,.03-2.67-.67-2.93-2.17-.16-.92-.09-1.88-.15-2.82-.04-.72,.35-1.66-1.03-1.61-.56,.02-.32-.62-.34-.97-.02-.3-.15-.84,.38-.78,1.13,.13,1.07-.6,.98-1.29-.12-.93,.23-1.14,1.15-1.18,1.09-.05,1.13,.49,1.03,1.25-.1,.84,.09,1.37,1.09,1.19,.74-.14,.91,.21,.9,.91-.01,.65-.1,1.07-.88,.93-.99-.18-1.19,.34-1.12,1.19,.06,.74,0,1.49,.04,2.24,.03,.51,.21,1.11,.83,1.03,1.26-.17,1.33,.86,1.31,1.49-.03,.69-.94,.43-1.27,.59Z"/><path class="cls-17" d="M384.37,12.29c-1.41-.08-2.36-.68-2.67-2.13-.22-.99-.06-1.98-.12-2.97-.04-.68,.3-1.56-.99-1.5-.61,.03-.37-.59-.39-.93-.02-.35-.16-.92,.48-.84,1.12,.14,.93-.63,.88-1.23-.07-.84,.1-1.23,1.1-1.23,.99,0,1.22,.36,1.08,1.2-.14,.93,.16,1.43,1.19,1.23,.72-.13,.8,.27,.79,.86-.01,.59,.03,1.14-.82,.98-1.11-.21-1.23,.43-1.17,1.29,.05,.69,0,1.39,.03,2.09,.03,.51,.17,1.15,.79,1.07,1.25-.18,1.4,.82,1.36,1.45-.05,.74-.97,.56-1.55,.66Z"/><path class="cls-17" d="M89.21,32.03c-1.76,.02-2.78-.89-2.95-2.63-.08-.89-.03-1.79-.02-2.68,0-.65,.14-1.33-.92-1.25-.63,.05-.47-.52-.46-.88,.02-.34-.23-.96,.41-.9,1.16,.1,1.03-.65,.95-1.32-.12-.97,.3-1.13,1.18-1.15,.9-.01,1.11,.32,1.02,1.12-.1,.8-.06,1.54,1.11,1.31,.78-.15,.86,.28,.88,.93,.01,.7-.15,1.04-.9,.91-.84-.14-1.17,.21-1.1,1.07,.06,.79,0,1.59,.04,2.39,.03,.52,.23,1.1,.86,1.01,1.29-.17,1.31,.91,1.28,1.51-.03,.62-.93,.48-1.37,.56Z"/><path class="cls-17" d="M152.61,8.93c0-.7-.02-1.39,0-2.09,.02-.65,0-1.2-.91-1.11-.72,.07-.58-.51-.59-.93,0-.43-.12-.98,.6-.89,.75,.09,.86-.27,.92-.94,.17-1.95,1.8-3.07,3.7-2.61,.31,.08,.92,.06,.68,.67-.19,.49,0,1.26-.84,1.35-.29,.03-.6-.01-.88,.06-.54,.15-.59,.67-.6,1.09,0,.55,.5,.35,.8,.36,.64,.01,1.23-.14,1.22,.92,0,1.03-.54,1-1.21,.93-.82-.09-.86,.41-.85,1.01,.02,1.39-.05,2.79,.02,4.18,.04,.86-.24,1.07-1.08,1.08-.93,.02-1.07-.37-1.01-1.14,.05-.64,.01-1.29,.01-1.94Z"/><path class="cls-17" d="M135.79,12.27c-1.76,.02-2.77-.84-2.92-2.48-.08-.94-.05-1.89-.04-2.84,0-.66,.11-1.34-.94-1.24-.66,.06-.49-.51-.46-.86,.02-.33-.27-.99,.36-.93,1.28,.12,1.1-.72,1.02-1.42-.1-.92,.33-1.02,1.11-1.03,.83-.01,1.21,.21,1.08,1.08-.15,.93,.03,1.56,1.2,1.35,.82-.15,.68,.46,.7,.95,.03,.57-.04,1.02-.77,.88-1.15-.22-1.19,.48-1.14,1.31,.04,.7,0,1.39,.02,2.09,0,.62,.24,1.16,.94,1.08,1.22-.14,1.2,.9,1.16,1.45-.04,.64-.88,.57-1.32,.61Z"/><path class="cls-17" d="M238.98,32.03c-1.82,.02-2.82-.85-2.97-2.49-.08-.79,0-1.59-.05-2.39-.04-.75,.4-1.78-1.09-1.72-.56,.02-.27-.64-.3-.98-.03-.29-.19-.84,.37-.78,1.28,.15,1.09-.73,1.01-1.42-.1-.94,.36-1,1.12-1.02,.85-.02,1.2,.24,1.07,1.09-.15,.94,.06,1.55,1.22,1.34,.83-.15,.66,.48,.69,.96,.04,.58-.07,1-.78,.88-.97-.17-1.22,.29-1.14,1.17,.07,.74,.02,1.49,.02,2.24,0,.55,.21,1.14,.79,1.05,1.28-.18,1.34,.83,1.31,1.48-.04,.7-.93,.47-1.27,.6Z"/><path d="M548.31,12.28c-1.68-.02-2.71-.97-2.82-2.56-.05-.74,.02-1.49-.03-2.23-.05-.77,.47-1.89-1.13-1.79-.55,.04-.26-.63-.29-.97-.03-.29-.2-.85,.35-.79,1.19,.15,1.18-.57,1.08-1.35-.1-.81,.15-1.1,1.03-1.11,.92,0,1.3,.22,1.12,1.15-.19,1.02,.19,1.47,1.26,1.29,.67-.12,.7,.35,.67,.83-.03,.47,.15,1.13-.66,.99-1.3-.22-1.34,.53-1.27,1.47,.05,.64,0,1.29,.02,1.94,0,.54,.19,1.13,.78,1.06,1.22-.16,1.38,.75,1.33,1.43-.06,.81-.97,.54-1.43,.66Z"/><path class="cls-6" d="M115.35,62.01c-1.74,0-3.23,0-4.73,0-.45,0-.9,.07-.9-.64,0-.65,.24-.87,.88-.86,1.65,.03,3.3,0,4.94,.01,1.57,0,1.92,.52,1.22,1.98-.6,1.25-1.32,2.45-1.98,3.67-.95,1.75-1.93,3.48-2.85,5.24-.3,.57-.6,.62-1.15,.32-.57-.31-.45-.63-.2-1.07,1.44-2.56,2.87-5.12,4.3-7.69,.14-.25,.25-.51,.47-.97Z"/><path class="cls-5" d="M87.85,67.78c0-1.1,0-2.19,0-3.29,0-.28-.09-.65,.33-.7,.33-.04,.88-.19,.97,.11,.27,.95,.6,.45,1.05,.18,2.33-1.41,4.62-.23,4.77,2.48,.08,1.49,0,2.99,.03,4.48,0,.53-.09,.82-.72,.82-.6,0-.77-.22-.75-.79,.03-1.24,.04-2.49,0-3.74-.06-1.73-.65-2.43-1.96-2.43-1.32,0-2.12,.91-2.15,2.5-.02,.95,.07,1.9-.03,2.84-.06,.58,.61,1.63-.8,1.61-1.31-.02-.65-.99-.72-1.53-.1-.83-.03-1.69-.03-2.54Z"/><path class="cls-6" d="M59.86,62.01c-1.8,0-3.29,0-4.79,0-.53,0-.96,.02-.95-.75,.02-.76,.45-.74,.98-.74,1.79,0,3.59,.03,5.38-.01,.71-.02,.98,.22,.95,.93-.03,.51-.13,.97-.38,1.42-1.53,2.78-3.06,5.56-4.58,8.34-.28,.51-.47,.95-1.22,.57-.82-.42-.36-.83-.11-1.27,1.53-2.76,3.06-5.52,4.71-8.48Z"/><path d="M219.65,6.01c0,1.69-.05,3.38,.02,5.07,.04,.91-.41,.94-1.08,.9-.59-.03-1.14,.13-1.11-.87,.07-3.33,.06-6.66,0-10-.01-.84,.39-.88,1-.82,.53,.05,1.23-.26,1.19,.78-.07,1.64-.02,3.28-.02,4.92Z"/><path d="M516.18,6.14c0,1.59-.04,3.18,.02,4.77,.03,.82-.18,1.12-1.05,1.09-.75-.03-1.15-.07-1.13-1.01,.06-3.23,.06-6.47,0-9.7-.02-.94,.36-1,1.13-1.02,.86-.02,1.09,.26,1.06,1.09-.06,1.59-.02,3.18-.02,4.77Z"/><path class="cls-4" d="M576.23,6c0,1.69-.06,3.38,.02,5.07,.04,.9-.4,.95-1.07,.92-.6-.02-1.16,.12-1.15-.86,.05-3.33,.05-6.66,0-9.99-.02-.99,.57-.81,1.16-.84,.69-.04,1.1,.05,1.06,.93-.08,1.59-.02,3.18-.02,4.77Z"/><path class="cls-4" d="M58.24,25.96c0,1.59-.06,3.18,.02,4.77,.05,.95-.39,1.04-1.15,1.01-.67-.02-1.09-.03-1.07-.93,.06-3.28,.06-6.56,0-9.84-.01-.88,.37-.93,1.06-.94,.74,0,1.21,.04,1.16,1-.08,1.64-.02,3.28-.02,4.92Z"/><path d="M205.86,25.94c0,1.64-.06,3.29,.02,4.92,.04,.95-.47,.88-1.1,.88-.63,0-1.11,.06-1.09-.89,.07-3.33,.06-6.66,0-10-.02-1.03,.63-.76,1.17-.79,.59-.04,1.05-.05,1.01,.81-.07,1.69-.02,3.38-.02,5.07Z"/><path class="cls-5" d="M301.39,3.63c.55,3.47-2.85,2.4-4.04,3.97,.8,.34,1.6,.81,2.47,1.04,1.41,.37,1.99,1.13,1.51,2.68-2.06-.92-4.11-1.86-6.2-2.74-.62-.26-.56-.69-.59-1.19-.03-.51,.14-.8,.63-1.01,2.05-.88,4.07-1.8,6.22-2.75Z"/><path class="cls-17" d="M277.84,11.34c-.59-3.47,2.9-2.35,3.97-4-.8-.34-1.62-.8-2.5-1.03-1.39-.36-1.87-1.14-1.41-2.64,2.09,.93,4.21,1.84,6.28,2.82,.8,.38,.7,1.69-.14,2.08-2.03,.94-4.08,1.82-6.21,2.77Z"/><path class="cls-17" d="M132.05,27.67c0-1.04-.02-2.09,.01-3.13,.01-.33-.25-.92,.43-.87,.53,.04,1.34-.38,1.55,.33,.22,.75,.36,.45,.7,.15,.53-.47,1.14-.83,1.87-.79,.46,.02,1.21-.03,1.05,.65-.12,.51,.1,1.44-1.08,1.43-1.65-.03-2.3,.7-2.37,2.34-.05,1.04-.07,2.09,0,3.13,.06,.85-.4,.87-1,.82-.53-.05-1.24,.27-1.18-.78,.07-1.09,.02-2.18,.02-3.28Z"/><path class="cls-17" d="M320.95,7.87c0-.94-.04-1.89,.02-2.83,.02-.38-.35-1.06,.32-1.09,.56-.03,1.41-.55,1.7,.48,.17,.61,.38,.19,.56,.04,.54-.47,1.12-.86,1.85-.85,.5,0,1.3-.08,1.15,.7-.1,.5,.07,1.43-1.12,1.38-1.55-.07-2.23,.68-2.32,2.24-.06,.94-.04,1.89,0,2.83,.03,.75,.04,1.25-1.04,1.27-1.13,.01-1.17-.49-1.13-1.32,.05-.94,.01-1.89,.01-2.83Z"/><path class="cls-17" d="M57.32,4.92c.69-.64,1.22-1.1,1.92-1.26,.54-.13,1.15-.19,1.54,.29,.32,.39-.12,.82-.19,1.24-.1,.64-.61,.46-1.05,.45-1.47-.03-2.03,.89-2.12,2.17-.07,1.09-.09,2.2,0,3.28,.08,.96-.46,.89-1.09,.89-.63,0-1.14,.07-1.1-.88,.07-2.04,0-4.08,.04-6.12,0-.4-.35-1.1,.54-1.08,.63,.01,1.47-.33,1.51,1.02Z"/><path class="cls-5" d="M503.71,7.82c0-.99-.02-1.99,.01-2.98,.01-.34-.24-.93,.4-.91,.52,.02,1.31-.45,1.52,.34,.18,.68,.3,.6,.67,.21,.46-.48,1.02-.81,1.68-.86,.51-.04,1.3-.13,1.26,.6-.03,.56,.16,1.54-1.12,1.46-1.47-.1-2.15,.64-2.23,2.15-.06,1.09-.08,2.19,0,3.27,.07,.94-.48,.89-1.11,.89-.64,0-1.16,.04-1.1-.89,.08-1.09,.02-2.18,.02-3.27Z"/><path d="M243.93,27.73c0,.89-.02,1.79,0,2.68,.02,.77,.11,1.36-1.09,1.37-1.25,0-1.07-.64-1.06-1.39,0-1.94,.07-3.88-.02-5.81-.05-1.02,.49-.93,1.18-.96,.76-.03,1.07,.16,1.01,.98-.07,1.04-.02,2.09-.02,3.13Z"/><path d="M520.33,8.08c0,.99-.08,1.99,.02,2.98,.1,1.06-.54,.88-1.19,.94-.8,.06-1.01-.22-.99-.99,.05-2.04,.07-4.08,0-6.11-.03-.93,.36-1,1.13-1.02,.86-.03,1.11,.25,1.06,1.08-.07,1.04-.02,2.09-.02,3.13Z"/><path class="cls-4" d="M66.03,27.67c0,.99-.07,1.99,.02,2.98,.1,1.01-.37,1.09-1.2,1.12-.94,.03-1.02-.39-1.01-1.15,.04-2.04,.06-4.07,0-6.11-.03-.95,.49-.86,1.11-.87,.65-.01,1.17-.02,1.1,.9-.08,1.04-.02,2.08-.02,3.13Z"/><path d="M30.75,27.69c0,.94-.03,1.89,0,2.83,.03,.77,.02,1.28-1.05,1.25-.95-.02-1.16-.28-1.13-1.18,.07-1.94,.07-3.88,0-5.81-.03-.9,.18-1.16,1.13-1.18,1.07-.02,1.08,.48,1.05,1.25-.04,.94,0,1.89,0,2.83Z"/><path class="cls-4" d="M252.83,7.94c0,.94-.04,1.89,.01,2.83,.04,.8-.03,1.27-1.07,1.25-.94-.02-1.17-.28-1.14-1.18,.07-1.93,.07-3.87,0-5.81-.03-.9,.21-1.16,1.14-1.18,1.05-.02,1.11,.46,1.07,1.25-.05,.94-.01,1.89-.01,2.83Z"/><path class="cls-4" d="M83.42,27.76c0,.89-.04,1.79,.01,2.68,.05,.85-.04,1.34-1.15,1.33-1.07,0-1.07-.49-1.05-1.26,.03-1.89,.03-3.77,0-5.66-.01-.77,0-1.25,1.05-1.26,1.11,0,1.19,.49,1.14,1.33-.05,.94-.01,1.89-.01,2.83Z"/><path class="cls-4" d="M192.15,7.94c0,.94-.03,1.89,0,2.83,.03,.78,.01,1.29-1.06,1.25-.91-.03-1.19-.25-1.15-1.18,.07-1.93,.07-3.88,0-5.81-.04-.93,.24-1.18,1.16-1.17,.86,.01,1.12,.26,1.06,1.1-.07,.99-.02,1.99-.02,2.98Z"/><path d="M159.04,27.76c0,.89-.03,1.79,0,2.68,.04,.81,.04,1.32-1.11,1.34-1.28,.02-1.04-.7-1.04-1.41,0-1.79,0-3.58,0-5.37,0-.71-.25-1.41,1.03-1.42,1.33,0,1.11,.72,1.11,1.49,0,.89,0,1.79,0,2.68Z"/><path d="M335.1,9.28c-.89,0-1.79,0-2.68,0-.6,0-1.16,.11-1.13-.85,.02-.83,.23-1.12,1.09-1.09,1.88,.06,3.77,.05,5.66,0,.74-.02,1.05,.16,1.06,.98,0,.8-.26,1.02-1.02,.97-.99-.06-1.98-.01-2.98-.01Z"/><path d="M335.22,6.12c-.94,0-1.89-.05-2.83,.01-.84,.06-1.09-.23-1.11-1.08-.02-.94,.5-.87,1.12-.87,1.94,.01,3.87,.04,5.81-.01,.78-.02,.88,.32,.87,.96,0,.64-.09,1.03-.88,.99-.99-.06-1.98-.01-2.98-.01Z"/><path class="cls-12" d="M289.2,10.95c-.25,1-1.14,1.89-1.83,2.9-.21,.31-.43-.01-.61-.12-.4-.22-.39-.52-.1-.84,.47-.51,.49-.93-.03-1.5-.41-.45-.33-1.11,.14-1.61,.46-.48,1-.62,1.61-.36,.55,.24,.84,.67,.81,1.54Z"/><path class="cls-4" d="M304.03,12.1c-.18-.22-.37-.44-.53-.67-.41-.64-.32-1.22,.23-1.74,.49-.46,1.04-.56,1.64-.22,.66,.37,.93,1,.62,1.64-.45,.93-1.07,1.77-1.64,2.64-.24,.36-.5,.14-.74-.03-.27-.19-.43-.38-.16-.71,.22-.27,.38-.58,.59-.91Z"/><path class="cls-18" d="M266.02,29.03c.91,.04,1.48,.4,1.56,1.21,.09,.9-.47,1.41-1.32,1.47-.77,.05-1.34-.33-1.43-1.18-.1-.95,.49-1.32,1.19-1.5Z"/><path class="cls-4" d="M517.88,1.72c.08-.92,.55-1.4,1.35-1.39,.88,0,1.42,.54,1.38,1.42-.04,.88-.59,1.35-1.49,1.29-.84-.06-1.2-.6-1.24-1.31Z"/><path class="cls-4" d="M31.06,21.36c-.05,.85-.43,1.37-1.27,1.42-.9,.05-1.45-.43-1.46-1.32-.02-.88,.52-1.4,1.41-1.39,.81,.01,1.26,.51,1.33,1.29Z"/><path class="cls-15" d="M64.86,20.04c.88,.07,1.43,.55,1.44,1.4,0,.78-.48,1.31-1.31,1.34-.82,.03-1.34-.39-1.41-1.21-.08-.9,.43-1.37,1.27-1.53Z"/><path class="cls-15" d="M82.41,22.81c-.88-.05-1.39-.46-1.43-1.28-.04-.89,.45-1.44,1.33-1.45,.88-.01,1.4,.57,1.39,1.42-.02,.79-.55,1.24-1.29,1.31Z"/><path class="cls-4" d="M159.34,21.57c-.2,.85-.71,1.33-1.6,1.2-.82-.11-1.21-.65-1.14-1.47,.07-.84,.61-1.26,1.4-1.22,.89,.04,1.3,.62,1.33,1.49Z"/><path class="cls-4" d="M242.91,22.8c-.91-.06-1.42-.53-1.4-1.42,.02-.81,.54-1.31,1.34-1.31,.88,0,1.39,.51,1.37,1.41-.02,.83-.52,1.24-1.32,1.31Z"/><path class="cls-12" d="M343.54,10.61c-.1,.86-.59,1.38-1.46,1.35-.78-.03-1.33-.45-1.34-1.3,0-.93,.58-1.35,1.43-1.36,.82,0,1.25,.51,1.37,1.31Z"/><path class="cls-15" d="M251.78,3.05c-.8-.02-1.33-.4-1.4-1.23-.07-.89,.4-1.45,1.28-1.5,.89-.05,1.42,.53,1.43,1.37,.01,.78-.49,1.27-1.32,1.36Z"/><path class="cls-18" d="M191.13,.29c.83,.15,1.36,.61,1.29,1.5-.06,.81-.56,1.26-1.39,1.24-.83-.02-1.32-.53-1.33-1.31-.01-.86,.53-1.34,1.42-1.43Z"/><path class="cls-15" d="M120.67,70.82c-.06,.67-.39,1.08-1.12,1.05-.64-.02-1-.34-1.03-1-.04-.72,.33-1.15,1.02-1.16,.68-.02,1.08,.38,1.13,1.1Z"/><path class="cls-18" d="M65.14,70.89c-.14,.64-.49,1.06-1.21,.98-.73-.07-1.01-.53-.95-1.21,.06-.65,.47-.97,1.09-.94,.7,.03,1.02,.49,1.07,1.17Z"/><path class="cls-7" d="M28.28,75.72c-5.7,0-10.46-4.77-10.46-10.47,0-5.77,4.77-10.49,10.6-10.48,5.67,.01,10.39,4.81,10.38,10.55,0,5.68-4.79,10.41-10.53,10.4Z"/><path class="cls-9" d="M270.23,7.83c-.02,1.25-.94,2.22-2.11,2.22-1.24,0-2.15-1.03-2.1-2.37,.05-1.25,1.01-2.2,2.18-2.15,1.18,.05,2.04,1.04,2.03,2.3Z"/><path class="cls-19" d="M42.87,7.89c.03,1.3-.93,2.34-2.17,2.35-1.21,0-2.1-.89-2.15-2.18-.06-1.36,.81-2.38,2.05-2.42,1.25-.04,2.24,.94,2.27,2.25Z"/><path class="cls-19" d="M570.58,7.88c.03,1.3-.93,2.34-2.16,2.35-1.21,0-2.1-.89-2.16-2.17-.06-1.36,.81-2.38,2.05-2.43,1.25-.05,2.24,.94,2.27,2.25Z"/><path class="cls-19" d="M118.73,27.74c-.03,1.31-1.02,2.29-2.27,2.25-1.25-.05-2.11-1.07-2.05-2.43,.06-1.29,.95-2.18,2.16-2.17,1.24,0,2.19,1.05,2.16,2.35Z"/><path class="cls-19" d="M126.41,25.39c1.26,.02,2.14,1.02,2.1,2.38-.03,1.29-.9,2.21-2.11,2.22-1.29,.02-2.15-.9-2.15-2.3,0-1.4,.86-2.32,2.15-2.3Z"/><path class="cls-19" d="M6.47,27.74c-.03,1.35-.97,2.29-2.24,2.25-1.25-.05-2.12-1.08-2.06-2.43,.06-1.28,.96-2.18,2.17-2.17,1.27,.01,2.16,1,2.13,2.35Z"/><path class="cls-19" d="M421.09,7.88c.02-1.39,.9-2.29,2.2-2.25,1.19,.04,2.05,.99,2.06,2.28,.01,1.36-.9,2.33-2.16,2.32-1.29,0-2.12-.94-2.1-2.35Z"/><path class="cls-19" d="M165.77,5.64c1.25,.04,2.15,1.06,2.09,2.4-.06,1.35-1.03,2.27-2.3,2.2-1.16-.07-2.04-1.08-2.03-2.33,.02-1.32,.99-2.31,2.24-2.27Z"/><path class="cls-8" d="M490.95,7.88c.03,1.32-.92,2.35-2.15,2.35-1.26,0-2.2-1-2.19-2.32,.01-1.26,.9-2.23,2.09-2.28,1.25-.05,2.23,.92,2.26,2.25Z"/><path class="cls-19" d="M72.68,68.62c0,1.18-.93,2.02-2.27,2.01-1.35,0-2.24-.82-2.23-2.03,.01-1.15,.85-1.89,2.17-1.92,1.37-.03,2.31,.76,2.32,1.94Z"/><path class="cls-13" d="M70.37,65.25c-1.14-.03-1.91-.83-1.83-1.9,.09-1.2,.94-1.62,1.96-1.6,1.04,.02,1.82,.56,1.84,1.73,.03,1.05-.84,1.8-1.97,1.77Z"/><path class="cls-19" d="M128.21,68.7c-.03,1.2-.96,1.97-2.33,1.94-1.32-.03-2.24-.93-2.18-2.11,.06-1.16,1.04-1.9,2.42-1.84,1.3,.06,2.12,.85,2.09,2.01Z"/><path class="cls-10" d="M127.86,63.65c-.13,1.08-.85,1.63-2.01,1.58-1.1-.05-1.75-.65-1.76-1.79-.01-1.03,.89-1.82,2-1.71,1.04,.11,1.78,.61,1.77,1.91Z"/><path class="cls-10" d="M76.55,6.78c1.26-1.89,2.74-1.88,3.86,0h-3.86Z"/><path class="cls-10" d="M614.38,6.82h-3.84c.43-1.03,1.1-1.47,2.08-1.42,.91,.04,1.54,.45,1.76,1.42Z"/><path class="cls-10" d="M500.23,6.87h-3.83c.18-1.01,.86-1.38,1.72-1.46,.98-.09,1.68,.34,2.11,1.46Z"/><path class="cls-10" d="M67.63,6.84h-3.88c.26-.93,.86-1.35,1.69-1.44,.98-.1,1.72,.28,2.18,1.44Z"/><path class="cls-10" d="M16.07,26.59h-3.87c.25-.92,.85-1.34,1.68-1.43,.98-.1,1.72,.28,2.19,1.43Z"/><path class="cls-10" d="M128.52,6.83h-3.94c.39-.96,1.01-1.41,1.93-1.43,.93-.02,1.57,.41,2.01,1.43Z"/><path class="cls-10" d="M533.58,6.82c.41-1.09,1.14-1.48,2.11-1.42,.85,.05,1.44,.49,1.77,1.42h-3.88Z"/><path class="cls-10" d="M430.73,6.81c.39-.98,1.02-1.42,1.95-1.42,.93,0,1.55,.44,1.96,1.42h-3.91Z"/><path class="cls-10" d="M402.57,6.82h-3.94c.4-.96,1.01-1.42,1.94-1.43,.93-.01,1.56,.42,2,1.43Z"/><path class="cls-16" d="M597.84,6.8c.41-1.06,1.1-1.43,2.03-1.4,.87,.03,1.46,.44,1.82,1.4h-3.85Z"/><path class="cls-16" d="M173.56,6.78c.4-.98,1.06-1.4,1.98-1.38,.86,.02,1.51,.38,1.83,1.38h-3.81Z"/><path class="cls-13" d="M196.67,26.58h-3.83c.37-.99,.99-1.43,1.92-1.43,.91,0,1.61,.36,1.92,1.43Z"/><path class="cls-13" d="M373.62,6.85h-3.8c.16-.96,.79-1.35,1.61-1.44,.97-.11,1.72,.26,2.19,1.44Z"/><path class="cls-3" d="M178.92,28.12c.59,.07,1.54-.02,1.54,.69,0,.99-.85,1.56-1.85,1.57-.66,0-1.35-.25-1.31-1.1,.04-.98,.82-1.12,1.63-1.17Z"/><path class="cls-3" d="M229.65,28.12c.55,.09,1.49-.04,1.47,.71-.02,1-.88,1.54-1.88,1.54-.67,0-1.35-.28-1.29-1.12,.07-.97,.85-1.1,1.69-1.14Z"/><path class="cls-3" d="M106.99,28.11c.58,.12,1.52-.03,1.5,.74-.03,1-.89,1.54-1.89,1.53-.67,0-1.34-.3-1.27-1.14,.08-.97,.88-1.07,1.66-1.13Z"/><path class="cls-16" d="M213.65,8.97c-.22,1.07-.88,1.57-1.78,1.66-.68,.07-1.4-.2-1.47-.96-.09-.95,.65-1.25,1.47-1.28,.67-.02,1.36-.03,1.78,.58Z"/><path class="cls-13" d="M621.32,8.36c.57,.11,1.49-.08,1.52,.72,.04,.97-.81,1.46-1.71,1.54-.73,.06-1.5-.24-1.46-1.11,.04-.93,.84-1.11,1.65-1.15Z"/><path class="cls-19" d="M18.47,8c-.03,1.35-.97,2.29-2.23,2.24-1.25-.06-2.08-1.07-2.02-2.44,.06-1.29,.93-2.17,2.15-2.16,1.25,.01,2.13,1,2.1,2.36Z"/><path class="cls-19" d="M315.32,10.24c-1.27,.02-2.16-.93-2.17-2.29,0-1.37,.88-2.32,2.15-2.31,1.2,.01,2.06,.93,2.1,2.22,.04,1.36-.83,2.36-2.08,2.38Z"/><path class="cls-19" d="M142.54,29.99c-1.26-.02-2.12-.99-2.1-2.36,.03-1.36,.95-2.29,2.22-2.24,1.18,.05,2.03,1,2.03,2.29,0,1.35-.9,2.33-2.16,2.31Z"/><path class="cls-14" d="M49.82,8.37c.54,.1,1.49-.06,1.49,.71,0,1-.88,1.55-1.87,1.55-.67,0-1.37-.28-1.31-1.11,.07-.96,.84-1.11,1.7-1.15Z"/><path class="cls-14" d="M87.31,8.37c.53,.11,1.48-.07,1.47,.72-.01,1-.88,1.54-1.88,1.54-.67,0-1.37-.28-1.3-1.12,.07-.96,.85-1.11,1.71-1.14Z"/><path class="cls-14" d="M50.79,28.12c.48,.18,1.45-.12,1.41,.77-.04,.93-.85,1.45-1.78,1.49-.67,.03-1.39-.2-1.39-1.02,0-1.08,.85-1.2,1.77-1.24Z"/><path class="cls-19" d="M249.81,29.99c-1.25,.02-2.19-.96-2.19-2.29,0-1.34,.92-2.32,2.17-2.31,1.15,.01,2.09,.99,2.14,2.22,.05,1.27-.92,2.36-2.12,2.38Z"/><path class="cls-19" d="M148.19,7.89c.02,1.28-.96,2.34-2.17,2.34-1.2,0-2.09-.9-2.15-2.18-.06-1.33,.82-2.37,2.06-2.41,1.21-.04,2.23,.97,2.25,2.26Z"/><path class="cls-19" d="M554.95,10.24c-1.25-.02-2.15-1.04-2.1-2.38,.04-1.34,1-2.28,2.26-2.22,1.14,.05,2.06,1.08,2.06,2.3,0,1.29-1,2.32-2.21,2.3Z"/><path class="cls-9" d="M213.77,27.68c0,1.3-.97,2.32-2.2,2.31-1.22-.02-2.16-1.06-2.12-2.37,.04-1.26,.93-2.21,2.11-2.23,1.23-.02,2.21,.99,2.21,2.29Z"/><path class="cls-9" d="M415.55,7.98c-.03,1.31-1.01,2.3-2.25,2.25-1.22-.04-2.13-1.12-2.06-2.42,.07-1.26,.98-2.18,2.16-2.18,1.23,0,2.18,1.04,2.15,2.35Z"/><path class="cls-13" d="M581.72,8.38c.4,.23,1.39-.19,1.3,.82-.09,.98-.91,1.4-1.81,1.43-.68,.02-1.38-.3-1.33-1.08,.05-1.02,.89-1.17,1.84-1.16Z"/><path class="cls-8" d="M138.65,66.39c.03,1-.21,2.11-.88,3.08-1.12,1.61-3.11,1.6-4.24,0-1.17-1.66-1.16-4.86,.02-6.52,1.15-1.61,3.09-1.61,4.23,.02,.68,.98,.88,2.09,.87,3.44Z"/><path class="cls-8" d="M103.02,67.85c-.02,1.72-1.03,2.84-2.56,2.84-1.46,0-2.57-1.24-2.59-2.87-.01-1.68,1.17-2.98,2.68-2.93,1.47,.05,2.48,1.26,2.47,2.95Z"/><path class="cls-2" d="M82.9,67.78c.55,.31,1.68-.15,1.74,1.04,.05,.92-1.22,1.87-2.35,1.88-.97,.01-1.81-.36-1.72-1.39,.11-1.23,1.2-1.42,2.32-1.53Z"/><path class="cls-11" d="M28.62,71.54c-1.43-.02-2.62-.54-3.39-1.79-.25-.41-.92-.93-.1-1.33,.57-.28,1.28-1.01,1.93,0,.18,.28,.45,.53,.73,.73,.71,.51,1.44,.29,2.09-.12,.44-.28,.62-.76,.52-1.31-.15-.83-.81-1.02-1.49-1.25-.49-.16-1.34,.41-1.45-.56-.09-.76-.28-1.68,1.07-1.53,.84,.1,1.32-.45,1.48-1.19,.13-.55-.08-1.11-.63-1.38-.74-.35-1.54-.36-2,.38-.8,1.27-1.6,.19-2.1-.11-.61-.37,.13-.95,.44-1.31,1.1-1.3,3.34-1.63,4.94-.8,1.22,.63,2.11,2.09,1.45,3.37-.78,1.51-.36,2.36,.35,3.71,1.17,2.22-.94,4.52-3.84,4.49Z"/></g></g></svg>