<?xml version="1.0" encoding="UTF-8"?><svg id="Layer_2" xmlns="http://www.w3.org/2000/svg" viewBox="0 0 643.72 112.21"><defs><style>.cls-1{fill:#2f528f;}.cls-2{fill:#fdfefe;}.cls-3{fill:#fafafa;}.cls-4{fill:#f5f5f5;}.cls-5{fill:#040404;}.cls-6{fill:#020202;}.cls-7{fill:#4472c3;}.cls-8{fill:#fdfdfd;}.cls-9{fill:#fbfbfb;}.cls-10{fill:#f9f9f9;}.cls-11{fill:#050505;}.cls-12{fill:#f7f7f7;}.cls-13{fill:#f3f3f3;}.cls-14{fill:#070707;}.cls-15{fill:#f8f8f8;}.cls-16{fill:#010101;}.cls-17{fill:#060606;}.cls-18{fill:#fcfcfc;}</style></defs><g id="Layer_1-2"><g><path class="cls-7" d="M438.53,109.41c-2.93,.97-5.5,1.8-8.06,2.68-.69,.24-.86-.08-.77-.61,.29-1.66-.68-1.65-1.91-1.65-61.21,.02-122.42,.02-183.63,.02s-119.82,0-179.73-.01c-1.26,0-2.47-.18-2.12,1.74,.11,.63-.27,.73-.84,.53-2.59-.88-5.19-1.73-8.12-2.71,2.93-.99,5.54-1.87,8.16-2.75,.74-.25,.92,.2,.82,.77-.27,1.49,.56,1.55,1.71,1.55,24.03-.02,48.07-.02,72.1-.02,97.19,0,194.38,0,291.56,.01,1.21,0,2.37,.13,2.01-1.69-.12-.63,.25-.75,.83-.55,2.54,.87,5.09,1.71,8,2.68Z"/><path class="cls-1" d="M16.34,65.58c0-6.53,5.46-11.99,12.01-11.98,6.54,0,11.99,5.49,11.97,12.03-.02,6.46-5.46,11.89-11.93,11.91-6.55,.02-12.03-5.42-12.04-11.95Z"/><path class="cls-16" d="M270.19,10.93c-1.47,1.22-2.94,1.43-4.41,.48-1.53-.99-2.08-2.49-1.84-4.27,.23-1.67,1.12-2.85,2.76-3.37,.42-.13,.92-.24,1.32-.13,1.16,.33,2.24,.92,3.53,.3,.6-.29,.81,.22,.8,.83-.03,2.29,.05,4.59-.03,6.88-.07,1.81-.79,3.31-2.65,3.94-1.79,.61-3.46,.37-4.82-1.05-.3-.32-1.01-.76-.44-1.17,.48-.35,1.23-1.11,1.92-.34,.78,.87,1.63,1.11,2.67,.7,.91-.36,1.23-1.12,1.2-2.81Z"/><path d="M22.03,7.93c0-.95-.04-1.89,.02-2.84,.02-.39-.31-1.07,.29-1.13,.56-.06,1.41-.52,1.73,.44,.2,.6,.38,.2,.57,.05,1.47-1.16,2.9-1.27,4.22,.2,.43,.48,.59,.02,.8-.17,1.08-.96,2.3-1.18,3.6-.56,1.26,.59,1.5,1.76,1.5,3.01,0,1.39-.06,2.79,.02,4.18,.05,.94-.47,.88-1.11,.89-.65,0-1.16,.03-1.1-.9,.08-1.24,.01-2.49,.02-3.73,0-.86-.11-1.63-1.2-1.71-1.05-.07-1.62,.58-1.76,1.47-.16,1.02-.03,2.09-.12,3.12-.06,.73,.57,1.81-1.09,1.78-1.72-.03-.93-1.17-1.01-1.86-.12-.98,0-1.99-.05-2.98-.04-.8-.33-1.48-1.29-1.54-.88-.06-1.39,.4-1.66,1.2-.45,1.36-.24,2.77-.21,4.15,.02,.96-.4,1.02-1.15,1-.69-.01-1.12-.05-1.04-.94,.09-1.04,.02-2.09,.02-3.13Z"/><path d="M194.14,7.81c0-1-.02-1.99,.01-2.99,.01-.33-.26-.92,.4-.9,.54,.02,1.35-.37,1.57,.31,.24,.76,.37,.39,.72,.15,1.64-1.12,2.59-1.13,4,.13,.43,.38,.57,.32,.91,0,1.05-1,2.27-1.21,3.58-.61,1.34,.62,1.54,1.84,1.53,3.14,0,1.24-.03,2.49,.01,3.73,.03,.79,0,1.28-1.06,1.25-.95-.02-1.19-.31-1.13-1.2,.08-1.14,.01-2.29,.02-3.43,0-.85-.08-1.65-1.17-1.74-1.12-.09-1.7,.63-1.82,1.58-.14,1.18-.11,2.39-.06,3.58,.03,.83-.07,1.22-1.09,1.22-1.02,0-1.13-.4-1.09-1.22,.06-1.09,.03-2.19,0-3.28-.02-.89-.14-1.75-1.27-1.86-1.14-.11-1.68,.63-1.79,1.59-.14,1.23-.17,2.48-.12,3.72,.04,.9-.32,1.03-1.11,1.04-.83,.01-1.14-.2-1.08-1.06,.08-1.04,.02-2.09,.02-3.13Z"/><path class="cls-16" d="M483.18,8.92c0,.6-.04,1.2,0,1.79,.06,.84,0,1.33-1.13,1.32-1.11,0-1.04-.55-1.03-1.28,.02-1.15,.01-2.29,0-3.44,0-.8-.16-1.53-1.13-1.64-1.02-.13-1.6,.42-1.83,1.36-.32,1.28-.15,2.58-.13,3.87,.01,.81-.15,1.12-1.05,1.12-.91,0-1.23-.23-1.16-1.17,.09-1.19,.03-2.39,.02-3.59,0-.82-.24-1.5-1.2-1.6-1.06-.12-1.66,.53-1.78,1.43-.17,1.23-.16,2.49-.11,3.73,.04,.88-.15,1.2-1.13,1.21-1.04,.02-1.09-.44-1.08-1.24,.04-1.94,0-3.89,.03-5.83,0-.35-.24-.89,.31-1.01,.47-.1,1.38-.13,1.43,.03,.41,1.29,.86,.39,1.34,.1,1.2-.72,2.42-.72,3.43,.29,.52,.52,.74,.5,1.26,.02,.96-.89,2.13-1.03,3.34-.5,1.22,.53,1.57,1.59,1.61,2.8,.03,.75,0,1.5,0,2.24Z"/><path class="cls-16" d="M161.03,27.64c0-.95-.03-1.9,.02-2.84,.02-.38-.31-1.07,.36-1.08,.51-.01,1.31-.58,1.6,.43,.19,.64,.44,.17,.68,.01,1.69-1.14,2.54-1.17,3.99,.11,.52,.46,.68,.22,1.03-.09,1.03-.91,2.22-1.1,3.47-.53,1.27,.58,1.55,1.72,1.56,2.99,0,1.35-.05,2.69,.02,4.04,.04,.82-.18,1.08-1.05,1.1-.96,.02-1.19-.28-1.13-1.18,.08-1.19,.02-2.39,.02-3.59,0-.82-.22-1.5-1.19-1.59-.95-.09-1.51,.42-1.75,1.28-.35,1.27-.17,2.58-.15,3.87,.01,.84-.11,1.22-1.11,1.22-1.01,0-1.14-.4-1.1-1.24,.06-1.19,.03-2.39,0-3.59-.01-.83-.3-1.47-1.26-1.55-.99-.08-1.58,.52-1.7,1.34-.18,1.22-.17,2.48-.13,3.73,.03,.9-.12,1.3-1.18,1.31-1.14,.01-1.02-.6-1.01-1.3,.01-.95,0-1.89,0-2.84Z"/><path d="M34.89,24.56c2.15-1.68,3.24-1.64,5.01,.13,.65-.62,1.31-1.21,2.27-1.32,1.8-.2,3.16,.85,3.26,2.67,.09,1.64-.02,3.29,.05,4.93,.04,1.06-.68,.7-1.2,.77-.64,.08-1.03-.02-.98-.84,.08-1.24,0-2.49,.02-3.74,0-.86-.1-1.65-1.18-1.74-1.12-.09-1.71,.59-1.81,1.57-.12,1.24-.13,2.49-.06,3.73,.05,.93-.36,1.02-1.14,1.04-.86,.02-1.12-.24-1.07-1.09,.07-1.14,.04-2.29,0-3.44-.03-.88-.15-1.75-1.3-1.83-1.15-.08-1.66,.71-1.77,1.64-.15,1.23-.13,2.49-.07,3.73,.04,.81-.25,1.01-1.01,.98-.69-.03-1.23,.05-1.18-.97,.09-1.94,0-3.89,.05-5.83,.01-.43-.46-1.21,.48-1.28,.68-.05,1.55-.31,1.61,.88Z"/><path class="cls-16" d="M358.44,4.53c0,1.05,.04,2.09,0,3.14-.13,2.69-1.84,4.49-4.34,4.61-2.63,.13-4.38-1.33-4.75-4.1-.32-2.37-.06-4.77-.13-7.16-.03-1.08,.77-.63,1.27-.7,.58-.08,1.05-.06,1.03,.8-.05,2.19-.06,4.38,0,6.57,.05,1.8,1.38,2.87,2.96,2.43,1.33-.37,1.73-1.41,1.74-2.64,.02-2.04,.08-4.09-.02-6.13-.05-1.07,.47-1.03,1.24-1.07,.9-.05,1.08,.31,1.03,1.11-.06,1.04-.02,2.09-.02,3.14Z"/><path class="cls-16" d="M114.51,30.93c0,1.24-.05,2.28,.02,3.31,.05,.81-.14,1.13-1.04,1.12-.9,0-1.19-.22-1.17-1.16,.06-3.14,.02-6.28,.03-9.42,0-.36-.23-.92,.25-1.05,.55-.15,1.51-.33,1.67,.07,.36,.95,.63,.35,.97,.11,1.1-.76,2.25-.73,3.4-.15,1.59,.81,2.26,2.24,2.26,3.93,0,1.68-.67,3.12-2.26,3.93-1.44,.74-2.79,.52-4.12-.69Z"/><path class="cls-16" d="M566.66,11.37c0,1.13-.05,2.26,.02,3.38,.05,.84-.4,.87-1.01,.82-.55-.04-1.21,.22-1.19-.8,.04-3.34,.01-6.68,.02-10.02,0-.31-.16-.8,.36-.82,.56-.02,1.31-.34,1.65,.21,.24,.39,.17,.5,.62,.23,2-1.17,3.63-.93,4.9,.62,1.4,1.71,1.33,4.45-.15,6.05-1.4,1.51-3.05,1.6-5.08,.28-.03-.02-.09,.02-.14,.04Z"/><path class="cls-16" d="M38.65,11.34c0,1.04-.02,1.99,0,2.93,.03,.8,.07,1.36-1.11,1.36-1.23,0-1.08-.65-1.07-1.41,0-3.04,0-6.08,.02-9.12,0-.39-.32-1.05,.32-1.13,.56-.08,1.36-.47,1.71,.28,.21,.46,.3,.37,.56,.15,1.41-1.17,2.88-1.04,4.25-.02,1.44,1.08,1.94,2.63,1.62,4.38-.6,3.23-3.39,4.37-6.3,2.58Z"/><path d="M6.4,24.21c0-1.04,.02-1.94,0-2.83-.02-.76-.13-1.37,1.08-1.38,1.23,0,1.07,.63,1.07,1.38,0,3.08,0,6.16-.02,9.24,0,.36,.33,1.05-.36,1.06-.54,0-1.32,.52-1.65-.39-.11-.29-.13-.45-.44-.17-1.53,1.38-3.11,1.17-4.57-.05C0,29.84-.25,28.12,.21,26.33c.7-2.72,3.24-3.62,6.19-2.12Z"/><path d="M124.32,31.12c0,1.19-.07,2.24,.02,3.26,.09,1.02-.49,.94-1.18,.97-.75,.03-1.02-.16-1.01-.97,.05-3.23,.01-6.47,.04-9.7,0-.33-.28-.91,.31-.98,.56-.06,1.45-.33,1.65,.15,.3,.75,.4,.48,.8,.16,1.16-.9,2.39-.84,3.63-.16,2.01,1.1,2.73,3.99,1.54,6.15-1.15,2.1-3.24,2.56-5.81,1.13Z"/><path d="M421.46,11.52c0,1.08-.05,2.16,.02,3.23,.06,.83-.38,.89-.99,.83-.53-.05-1.2,.27-1.19-.78,.05-3.38,.02-6.77,.02-10.15,0-.27-.13-.69,.29-.71,.57-.03,1.54-.29,1.66,.12,.32,1.05,.61,.31,.91,.11,.99-.67,2.03-.73,3.12-.28,2.25,.92,3.23,3.87,2.06,6.21-1.07,2.13-3.24,2.69-5.53,1.43-.07-.04-.18,0-.37,0Z"/><path class="cls-16" d="M167.75,4.63c0-1.13,.02-2.07,0-3-.02-.77-.13-1.37,1.08-1.37,1.24,0,1.07,.64,1.07,1.39,0,3.09,0,6.17,0,9.26,0,.95-1.25,1.69-1.68,.99-.61-.98-.85-.37-1.32-.07-.29,.18-.62,.32-.95,.4-1.54,.35-3.26-.58-4.05-2.16-.92-1.83-.51-4.18,.94-5.49,1.31-1.17,2.87-1.29,4.39-.33,.12,.07,.23,.16,.54,.38Z"/><path class="cls-16" d="M487.07,4.61c1.5-1.22,3-1.37,4.49-.36,1.56,1.06,2.07,2.65,1.8,4.45-.24,1.64-1.13,2.83-2.75,3.41-.49,.17-1.02,.31-1.46,.14-1.12-.45-2.16-.93-3.41-.29-.57,.29-.82-.15-.82-.8,.03-3.34,.05-6.67,0-10.01-.02-.99,.54-.82,1.14-.85,.68-.03,1.13,.03,1.05,.93-.09,1.07-.02,2.15-.02,3.38Z"/><path class="cls-16" d="M6.28,12.29c-2.74-.04-5.07-1.74-5.84-4.27C-.37,5.36,.59,2.55,2.83,1.04c2.15-1.45,5.2-1.39,7.12,.18,.29,.24,1.18,.47,.4,1.05-.47,.35-.66,1.44-1.74,.67-1.89-1.34-3.98-1.04-5.33,.57-1.29,1.55-1.2,4.02,.19,5.47,1.43,1.5,3.64,1.72,5.38,.26,1.13-.95,1.35,.17,1.8,.57,.75,.67-.18,.9-.5,1.17-1.11,.93-2.43,1.33-3.87,1.31Z"/><path class="cls-16" d="M389.76,4.72c.27-.21,.42-.33,.57-.43,2.32-1.56,4.74-.47,4.96,2.3,.12,1.53-.01,3.09,.06,4.63,.05,1.06-.66,.72-1.19,.77-.62,.07-1.04,0-.99-.83,.07-1.24,.03-2.49,.01-3.73-.02-.85-.24-1.61-1.25-1.75-1.07-.15-1.71,.41-1.98,1.39-.37,1.32-.2,2.68-.16,4.01,.02,.9-.4,.95-1.07,.92-.6-.03-1.16,.12-1.15-.86,.05-3.33,.05-6.67,0-10-.01-1,.6-.8,1.17-.82,.57-.02,1.09-.09,1.03,.79-.07,1.14-.02,2.28-.02,3.62Z"/><path class="cls-16" d="M103.89,4.8c1.29-1.25,2.6-1.54,3.99-.85,1.36,.68,1.51,2,1.53,3.33,.02,1.3-.05,2.59,.02,3.89,.04,.84-.41,.87-1.01,.82-.55-.04-1.24,.22-1.19-.8,.06-1.29,.02-2.59,.01-3.89,0-.82-.27-1.49-1.19-1.62-.91-.14-1.54,.24-1.89,1.1-.52,1.3-.21,2.66-.25,3.99-.03,.75,.05,1.29-1.05,1.26-.94-.03-1.15-.28-1.14-1.18,.06-3.14,.06-6.28,0-9.42-.02-.94,.25-1.15,1.16-1.15,.91,0,1.07,.34,1.02,1.13-.06,1.04-.01,2.09-.01,3.4Z"/><path class="cls-16" d="M638.19,4.56c.5,.04,.66-.41,1-.59,1.9-1.02,4.17,.02,4.4,2.16,.19,1.73,.08,3.48,.13,5.22,.03,.87-.59,.64-1.03,.63-.48-.01-1.17,.29-1.15-.67,.03-1.3,0-2.59,0-3.89,0-.87-.22-1.61-1.23-1.74-1-.13-1.62,.35-1.92,1.27-.43,1.32-.19,2.67-.18,4.01,0,.86-.26,1.07-1.09,1.06-.8,0-1.12-.16-1.1-1.05,.06-3.24,.07-6.48,0-9.72-.02-1.03,.52-.91,1.19-.95,.78-.05,1.04,.2,.99,.99-.07,1.09-.02,2.18-.02,3.28Z"/><path class="cls-16" d="M79.49,8.39c-.65,0-1.3-.04-1.94,.02-.35,.03-.88-.28-1.01,.27-.09,.39,.21,.76,.52,1.02,1.01,.87,2.14,.98,3.07,.03,.84-.86,1.45-.18,1.89,.2,.62,.53-.2,.89-.51,1.2-1.52,1.5-4.06,1.56-5.72,.17-1.68-1.4-1.99-4.08-.68-5.94,1.21-1.72,3.58-2.28,5.44-1.27,1.43,.77,1.87,2.1,1.99,3.6,.04,.51-.15,.72-.66,.7-.8-.02-1.59,0-2.39,0Z"/><path class="cls-16" d="M613.88,8.39c-.8,0-1.59,.03-2.39,0-.87-.04-.76,.39-.47,.9,.64,1.15,2.22,1.42,3.36,.52,.4-.31,.6-.59,1.24-.32,1.11,.47,1.07,.85,.27,1.61-1.57,1.47-4.03,1.62-5.73,.26-1.72-1.37-2.07-4.02-.8-5.92,1.19-1.76,3.52-2.36,5.42-1.39,1.23,.63,2.15,2.35,2.08,3.72-.03,.58-.29,.64-.74,.63-.75-.01-1.49,0-2.24,0Z"/><path class="cls-16" d="M496.64,8.48c.42,1.85,2.12,2.54,3.51,1.27,.94-.86,1.58-.17,2.01,.24,.46,.45-.31,.89-.65,1.22-1.54,1.45-4.13,1.44-5.73,.03-1.59-1.4-1.87-4.02-.62-5.84,1.2-1.74,3.55-2.32,5.43-1.33,.68,.36,1.18,.88,1.53,1.58,1.07,2.16,.73,2.75-1.61,2.75-1.2,0-2.39,0-3.59,0-.09,0-.18,.05-.28,.08Z"/><path class="cls-16" d="M434,8.39c-.7,0-1.4-.03-2.1,.01-.3,.02-.75-.23-.89,.25-.11,.37,.18,.66,.4,.92,.81,.97,2.18,1.14,3.17,.15,.86-.85,1.47-.17,1.9,.2,.61,.53-.21,.9-.53,1.22-1.53,1.5-4.09,1.53-5.73,.12-1.62-1.39-1.93-4.05-.68-5.85,1.22-1.76,3.55-2.33,5.44-1.35,.54,.28,1,.66,1.31,1.19,.52,.88,1.02,1.93,.61,2.82-.33,.74-1.42,.2-2.17,.31-.24,.04-.5,0-.75,0Z"/><path class="cls-16" d="M536.82,8.39c-.65,0-1.3-.04-1.95,.01-.35,.03-.87-.28-1.02,.27-.11,.41,.24,.73,.52,1.02,.84,.86,2.1,.98,3.07,.02,.86-.85,1.49-.15,1.9,.23,.58,.52-.24,.91-.56,1.22-1.53,1.49-4.1,1.51-5.73,.09-1.61-1.4-1.91-4.06-.66-5.85,1.22-1.75,3.56-2.31,5.45-1.32,.54,.28,1,.67,1.31,1.19,.52,.88,1.01,1.93,.6,2.82-.33,.7-1.43,.19-2.18,.29-.25,.03-.5,0-.75,0Z"/><path class="cls-16" d="M401.87,8.39c-.65,0-1.3-.02-1.95,0-.32,.02-.76-.2-.95,.16-.22,.42,.14,.75,.39,1.04,.78,.9,2.16,1.09,3.06,.18,.73-.75,1.18-.29,1.8-.02,.56,.25,.44,.49,.16,.89-1.06,1.48-3.27,2.05-5.13,1.29-1.89-.77-2.9-2.9-2.42-5.08,.42-1.9,2.15-3.27,4.12-3.27,2.04,0,3.47,1.19,3.91,3.21,.25,1.13,.06,1.81-1.33,1.59-.54-.09-1.1-.01-1.65-.01Z"/><path class="cls-16" d="M127.51,8.39c-.6,0-1.2-.04-1.8,.02-.39,.04-.99-.31-1.13,.31-.1,.46,.3,.84,.65,1.11,.95,.73,2.03,.82,2.84-.04,.87-.92,1.6-.28,2.01,.17,.55,.6-.35,.99-.72,1.32-1.56,1.42-4.2,1.32-5.73-.16-1.54-1.48-1.72-4.15-.4-5.87,1.31-1.71,3.65-2.16,5.5-1.08,.44,.26,.81,.58,1.08,1.01,.57,.91,1.09,2.01,.65,2.95-.31,.67-1.45,.15-2.21,.26-.25,.03-.5,0-.75,0Z"/><path class="cls-16" d="M66.67,8.39c-.65,0-1.3-.04-1.95,.01-.35,.03-.88-.28-1.01,.28-.1,.41,.23,.75,.53,1.01,1.01,.89,2.14,.95,3.07,0,.85-.87,1.49-.13,1.9,.24,.57,.52-.25,.9-.58,1.22-1.53,1.49-4.11,1.5-5.73,.08-1.6-1.4-1.9-4.07-.64-5.86,1.23-1.75,3.56-2.3,5.45-1.3,.54,.29,.99,.67,1.31,1.2,.52,.88,1.01,1.94,.59,2.82-.34,.7-1.44,.17-2.19,.28-.24,.04-.5,0-.75,0Z"/><path class="cls-16" d="M15.13,28.15c-.7,0-1.4-.03-2.1,.01-.3,.02-.75-.23-.89,.25-.11,.37,.18,.66,.4,.92,.81,.97,2.17,1.14,3.17,.15,.86-.85,1.47-.17,1.9,.2,.61,.53-.21,.9-.53,1.22-1.53,1.5-4.09,1.53-5.73,.12-1.62-1.39-1.93-4.05-.68-5.85,1.22-1.76,3.55-2.33,5.44-1.35,.54,.28,1,.66,1.31,1.19,.52,.88,1.02,1.93,.61,2.82-.33,.74-1.42,.2-2.17,.31-.24,.04-.5,0-.75,0Z"/><path class="cls-16" d="M598.01,8.39c.74,2.05,2.24,2.59,3.69,1.3,.91-.8,1.47-.08,1.9,.28,.52,.43-.21,.83-.51,1.13-1.52,1.51-4.1,1.59-5.73,.21-1.65-1.39-2.01-4.01-.79-5.83,1.19-1.78,3.52-2.41,5.42-1.44,1.43,.73,1.99,2,2.07,3.55,.04,.68-.22,.83-.85,.82-1.69-.04-3.39-.01-5.21-.01Z"/><path class="cls-16" d="M173.44,8.39c.76,2.06,2.24,2.58,3.71,1.29,.91-.79,1.47-.07,1.9,.29,.5,.43-.22,.83-.52,1.13-1.52,1.51-4.1,1.58-5.73,.2-1.65-1.4-2-4.02-.78-5.83,1.2-1.77,3.52-2.4,5.42-1.43,1.43,.74,1.98,2,2.06,3.55,.04,.69-.24,.82-.86,.81-1.69-.03-3.39-.01-5.21-.01Z"/><path class="cls-16" d="M369.91,8.48c.81,1.99,2.27,2.49,3.72,1.21,.9-.8,1.5-.07,1.9,.28,.48,.43-.24,.89-.58,1.21-1.51,1.42-4,1.49-5.61,.18-1.66-1.34-2.07-3.77-.97-5.67,1.07-1.84,3.34-2.59,5.31-1.76,.81,.34,1.41,.9,1.82,1.69,1.05,2.05,.63,2.78-1.61,2.78-1.2,0-2.39,0-3.59,.01-.1,0-.19,.04-.39,.07Z"/><path class="cls-16" d="M192.66,28.15c.88,2.09,2.3,2.57,3.78,1.28,.91-.79,1.47-.04,1.9,.3,.52,.41-.21,.81-.51,1.11-1.47,1.48-3.93,1.62-5.6,.36-1.74-1.31-2.21-3.82-1.07-5.77,1.07-1.83,3.36-2.58,5.32-1.74,.81,.34,1.41,.91,1.81,1.7,1.04,2.05,.62,2.76-1.63,2.76-1.29,0-2.58,0-4.01,0Z"/><path class="cls-16" d="M231.26,26.88c-.51-1.77-1.57-2.23-3.04-1.45-.28,.15-.42,.65-.84,.41-.43-.24-1-.49-1.16-.87-.18-.45,.43-.72,.8-.93,1.59-.89,3.23-.97,4.85-.1,1.4,.75,1.5,2.11,1.49,3.5,0,1,0,1.99,0,2.99,0,1.27-.78,1.97-1.62,1.24-.93-.81-1.23-.08-1.78,.14-1.19,.49-2.26,.26-3.22-.5-.87-.69-1.1-1.65-.83-2.69,.31-1.21,1.24-1.77,2.39-1.95,.97-.15,1.96-.05,2.97,.22Z"/><path class="cls-16" d="M180.66,26.96c-.68-1.89-1.82-2.43-3.14-1.45-.94,.69-1.51,.08-1.83-.39-.49-.73,.43-.93,.87-1.18,3.17-1.76,6.12-.02,6.13,3.56,0,1.05,.02,2.09-.01,3.14-.01,.36,.24,.91-.27,1.03-.55,.13-1.44,.35-1.67-.11-.36-.71-.51-.43-.89-.14-1.25,.97-2.54,.78-3.72-.09-1-.73-1.24-1.83-.82-2.95,.5-1.33,1.65-1.76,3-1.79,.74-.02,1.47,.06,2.37,.36Z"/><path class="cls-16" d="M108.7,26.98c-.66-1.92-1.79-2.45-3.13-1.47-.94,.69-1.5,.1-1.83-.38-.51-.74,.42-.94,.85-1.18,3.16-1.76,6.13-.04,6.14,3.54,0,1.05,.02,2.09-.01,3.14-.01,.36,.24,.92-.26,1.04-.55,.14-1.47,.35-1.67-.09-.43-.93-.67-.27-1-.05-1.25,.83-2.48,.65-3.62-.18-.95-.69-1.21-1.72-.88-2.8,.42-1.38,1.54-1.87,2.88-1.94,.79-.04,1.57,.01,2.53,.37Z"/><path class="cls-16" d="M623.19,7.17c-.27-1.65-1.39-2.38-2.64-1.59-1.08,.68-1.7,.38-2.4-.38,1.4-1.69,3.93-2.14,5.78-1.02,.83,.5,1.33,1.25,1.37,2.19,.07,1.64,.04,3.29,.04,4.94,0,.28,.08,.68-.36,.66-.56-.03-1.38,.34-1.64-.24-.36-.78-.53-.25-.79-.05-1.27,.97-2.55,.77-3.73-.09-.93-.68-1.26-1.7-.88-2.8,.48-1.42,1.64-1.91,3.06-1.93,.7-.01,1.39,.03,2.2,.32Z"/><path class="cls-16" d="M213.57,7.1c-.17-1.6-1.25-2.19-2.7-1.5-.27,.13-.48,.4-.76,.46-.63,.15-1.08-.35-1.37-.73-.4-.51,.28-.72,.61-.94,1.55-1.01,3.2-1.08,4.84-.29,1.51,.72,1.64,2.11,1.59,3.57-.03,1.05,0,2.09,0,3.14,0,1.09-1,1.8-1.75,1.08-.71-.68-.86-.27-1.37,.03-1.16,.67-2.33,.46-3.37-.3-.89-.65-1.23-1.6-.97-2.65,.31-1.25,1.23-1.89,2.47-2.07,.93-.14,1.86-.02,2.79,.2Z"/><path class="cls-16" d="M319.58,7.91c.01,2.52-1.8,4.37-4.29,4.37-2.43,0-4.22-1.78-4.26-4.23-.04-2.55,1.72-4.41,4.2-4.45,2.49-.03,4.34,1.8,4.35,4.31Z"/><path class="cls-16" d="M146.87,27.66c.02,2.52-1.79,4.38-4.28,4.38-2.43,0-4.23-1.77-4.27-4.22-.05-2.55,1.71-4.42,4.19-4.46,2.49-.04,4.34,1.79,4.36,4.3Z"/><path class="cls-16" d="M12.09,8.01c-.03-2.54,1.75-4.39,4.24-4.41,2.48-.01,4.32,1.84,4.32,4.35,0,2.45-1.77,4.28-4.18,4.33-2.5,.05-4.34-1.75-4.37-4.27Z"/><path class="cls-16" d="M52.23,26.92c-.24-1.71-1.38-2.26-2.86-1.53-.32,.16-.5,.72-.99,.43-.42-.25-1.03-.42-1.11-.9-.08-.48,.51-.69,.88-.9,1.54-.86,3.14-.93,4.71-.13,1.48,.75,1.6,2.14,1.56,3.58-.03,.99,.03,1.99-.02,2.98-.03,.43,.37,1.16-.33,1.23-.55,.06-1.35,.51-1.76-.4-.24-.54-.44-.06-.61,.08-.78,.68-1.68,.83-2.65,.58-1.43-.38-2.27-1.46-2.16-2.82,.12-1.47,1.07-2.19,2.4-2.45,.97-.18,1.96-.1,2.94,.25Z"/><path class="cls-16" d="M88.91,7.3c-.45-1.93-1.53-2.41-3.03-1.62-.35,.18-.61,.75-1.12,.29-.31-.29-.92-.35-.92-.86,0-.43,.48-.61,.81-.8,1.58-.91,3.23-.99,4.84-.14,1.46,.77,1.54,2.18,1.5,3.62-.03,1.04,.02,2.09-.02,3.13-.01,.35,.25,.94-.26,1.02-.58,.09-1.53,.39-1.75-.2-.33-.89-.52-.26-.75-.08-1.25,.98-2.52,.82-3.72-.01-1.02-.7-1.31-1.8-.91-2.91,.5-1.39,1.68-1.87,3.09-1.87,.69,0,1.38-.01,2.23,.45Z"/><path class="cls-16" d="M51.41,7.18c-.43-1.82-1.5-2.3-3-1.51-.35,.18-.62,.75-1.12,.29-.31-.29-.92-.35-.92-.86,0-.43,.48-.61,.81-.8,1.58-.91,3.23-.99,4.84-.14,1.46,.77,1.54,2.18,1.5,3.62-.03,1.04,.02,2.09-.02,3.13-.01,.35,.25,.94-.26,1.02-.58,.09-1.53,.39-1.75-.21-.33-.89-.52-.26-.75-.08-1.25,.98-2.52,.82-3.72-.01-1.02-.7-1.31-1.8-.92-2.91,.5-1.39,1.68-1.86,3.09-1.87,.7,0,1.37,.08,2.21,.34Z"/><path class="cls-16" d="M555.3,3.6c2.47,0,4.34,1.88,4.33,4.36-.01,2.48-1.9,4.35-4.37,4.32-2.41-.03-4.21-1.85-4.25-4.29-.04-2.47,1.84-4.38,4.3-4.39Z"/><path class="cls-16" d="M150.35,7.96c-.01,2.48-1.9,4.35-4.37,4.32-2.41-.03-4.21-1.85-4.26-4.29-.04-2.47,1.84-4.39,4.3-4.39,2.47,0,4.34,1.88,4.33,4.36Z"/><path class="cls-16" d="M249.72,32.04c-2.46-.03-4.33-1.98-4.25-4.44,.08-2.51,1.97-4.31,4.45-4.24,2.39,.07,4.19,1.94,4.18,4.36-.01,2.48-1.9,4.35-4.37,4.32Z"/><path class="cls-16" d="M211.69,32.04c-2.48,.03-4.35-1.82-4.36-4.32-.01-2.44,1.76-4.3,4.16-4.36,2.49-.07,4.37,1.72,4.44,4.24,.08,2.47-1.77,4.4-4.25,4.44Z"/><path class="cls-16" d="M413.73,12.28c-2.48,0-4.33-1.87-4.31-4.37,.02-2.44,1.81-4.27,4.22-4.31,2.48-.04,4.37,1.8,4.4,4.29,.04,2.48-1.83,4.38-4.31,4.39Z"/><path class="cls-16" d="M583.47,7.16c-.44-1.73-1.47-2.25-2.88-1.55-.26,.13-.49,.43-.75,.46-.6,.07-1.1-.38-1.37-.77-.29-.43,.32-.73,.66-.94,1.56-.96,3.2-1.05,4.84-.26,1.52,.73,1.6,2.14,1.58,3.58-.02,1.05,0,2.09,0,3.14,0,1.11-1.14,1.78-1.88,.98-.61-.65-.73-.21-1.1,.02-1.2,.77-2.39,.61-3.49-.18-.93-.67-1.28-1.63-.96-2.76,.4-1.4,1.48-1.91,2.82-2.01,.8-.06,1.58,.02,2.52,.3Z"/><path class="cls-16" d="M100.29,64.49c0-1.21,.02-2.44,0-3.67-.01-.56,.13-.8,.74-.79,.57,0,.78,.15,.78,.75-.02,3.43,0,6.86-.02,10.3,0,.29,.19,.79-.4,.76-.35-.02-.9,.27-1-.3-.16-.89-.45-.28-.72-.12-1.87,1.1-3.63,.85-4.94-.7-1.4-1.66-1.37-4.27,.08-5.89,1.36-1.52,3.14-1.72,4.96-.54,.15,.1,.25,.32,.53,.21Z"/><path class="cls-16" d="M451.45,7.88c0-.9-.04-1.8,.02-2.69,.03-.43-.35-1.17,.37-1.22,.53-.04,1.39-.63,1.67,.5,.16,.63,.42,.07,.56-.05,1.11-.93,2.35-1.11,3.61-.45,1.2,.63,1.47,1.81,1.5,3.05,.03,1.34-.06,2.69,.03,4.03,.07,1.04-.51,.91-1.18,.95-.78,.05-1.05-.19-1-.99,.07-1.14,.02-2.29,.02-3.43,0-.96-.17-1.84-1.37-1.93-1.17-.08-1.79,.62-1.91,1.67-.14,1.23-.17,2.48-.12,3.72,.03,.84-.31,.98-1.04,.96-.71-.02-1.26,0-1.17-.99,.09-1.04,.02-2.09,.02-3.13Z"/><path class="cls-16" d="M67.96,27.69c0-1-.02-1.99,.01-2.99,.01-.38-.27-1.07,.46-1.01,.52,.04,1.35-.59,1.57,.47,.13,.66,.37,.2,.54,.05,1.09-.95,2.32-1.17,3.6-.52,1.33,.68,1.55,1.97,1.56,3.31,.01,1.24-.06,2.49,.02,3.73,.07,.94-.35,1-1.12,1.02-.86,.02-1.11-.25-1.06-1.09,.07-1.19,.03-2.39,.01-3.58-.02-.87-.29-1.59-1.31-1.69-1-.11-1.63,.42-1.9,1.32-.4,1.31-.22,2.67-.18,4.01,.03,.92-.36,1.01-1.13,1.03-.85,.02-1.15-.23-1.08-1.09,.07-.99,.02-1.99,.02-2.99Z"/><path class="cls-16" d="M254.76,7.94c0-1-.02-1.99,.01-2.99,.01-.38-.27-1.07,.46-1.01,.52,.04,1.35-.59,1.57,.47,.14,.67,.37,.2,.54,.05,1.09-.95,2.32-1.17,3.6-.52,1.33,.68,1.55,1.97,1.56,3.31,.01,1.24-.06,2.49,.02,3.73,.07,.93-.35,1.01-1.12,1.02-.86,.02-1.11-.25-1.06-1.09,.07-1.19,.03-2.39,.01-3.58-.02-.86-.29-1.59-1.3-1.69-1-.11-1.63,.42-1.91,1.32-.4,1.31-.22,2.67-.18,4.01,.03,.92-.35,1.02-1.13,1.03-.85,.02-1.15-.23-1.08-1.09,.07-.99,.02-1.99,.02-2.99Z"/><path class="cls-16" d="M240.74,8.05c0,1,.01,1.99,0,2.99,0,.32,.19,.81-.27,.89-.52,.1-1.4,.28-1.53-.09-.31-.88-.5-.56-1.01-.21-2.17,1.5-4.57,.41-4.78-2.19-.13-1.58-.01-3.19-.08-4.78-.05-1.06,.68-.7,1.2-.77,.63-.08,1.03,.01,.98,.84-.08,1.19-.02,2.39-.02,3.58,0,.98,.2,1.84,1.4,1.9,1.25,.06,1.82-.74,1.91-1.84,.1-1.19,.1-2.39,.03-3.58-.05-.91,.43-.93,1.09-.91,.62,.01,1.18-.08,1.11,.88-.08,1.09-.02,2.19-.02,3.29Z"/><path class="cls-16" d="M530.3,8.86c0,.6-.01,1.2,0,1.79,.02,.76,.15,1.38-1.08,1.38-1.24,0-1.08-.63-1.07-1.38,.01-1.05,0-2.09,0-3.14,0-.91-.14-1.73-1.27-1.86-1.18-.14-1.84,.55-1.98,1.58-.16,1.18-.15,2.39-.09,3.58,.04,.89-.17,1.19-1.13,1.21-1.05,.02-1.09-.45-1.07-1.24,.04-1.94,0-3.89,.02-5.83,0-.35-.24-.91,.31-1,.51-.09,1.4-.3,1.51,.12,.3,1.11,.62,.42,1.01,.16,2.17-1.46,4.55-.34,4.78,2.25,.07,.79,.01,1.59,.01,2.39h.03Z"/><path class="cls-16" d="M438.37,7.9c0-.95-.03-1.9,.02-2.84,.02-.39-.3-1.07,.35-1.09,.51-.02,1.31-.58,1.62,.42,.2,.64,.45,.19,.67,0,1.07-.9,2.26-1.05,3.48-.44,1.22,.61,1.52,1.77,1.54,3.02,.02,1.3-.06,2.6,.03,3.89,.06,.91-.19,1.19-1.14,1.17-.88-.02-1.09-.3-1.04-1.11,.06-1.14,.01-2.29,.02-3.44,0-.93-.19-1.72-1.31-1.82-1.18-.11-1.82,.6-1.95,1.62-.15,1.23-.15,2.49-.08,3.73,.06,.99-.46,.98-1.18,.99-.73,.01-1.09-.12-1.03-.97,.08-1.04,.02-2.09,.02-3.14Z"/><path class="cls-16" d="M255.47,27.58c0-1-.01-1.99,0-2.99,0-.32-.19-.81,.28-.88,.52-.09,1.43-.27,1.53,.09,.35,1.29,.78,.32,1.12,.11,2.11-1.35,4.49-.23,4.68,2.29,.12,1.59,0,3.19,.07,4.78,.04,1.07-.69,.69-1.21,.76-.64,.08-1.02-.03-.97-.85,.08-1.19,.01-2.39,.02-3.59,0-.98-.17-1.83-1.38-1.9-1.18-.07-1.77,.68-1.89,1.7-.13,1.18-.13,2.39-.07,3.58,.04,.87-.27,1.09-1.1,1.08-.79,0-1.18-.15-1.11-1.05,.08-1.04,.02-2.09,.02-3.14Z"/><path class="cls-16" d="M468.53,7.95c0,.99,0,1.99,0,2.98-.01,.92-1.34,1.65-1.7,.96-.66-1.23-.96-.26-1.4-.01-1.87,1.07-4.18,.06-4.42-2.07-.2-1.72-.08-3.48-.15-5.21-.04-.96,.65-.66,1.12-.69,.54-.04,1.11-.13,1.07,.77-.06,1.24-.02,2.49-.01,3.73,0,.92,.2,1.71,1.31,1.82,1.19,.12,1.81-.61,1.96-1.62,.16-1.07,.07-2.18,.08-3.28,0-.76-.23-1.5,1.11-1.49,1.4,.02,1,.86,1.03,1.56,.03,.84,0,1.69,0,2.54Z"/><path class="cls-16" d="M363.65,12.29c-1.3-.01-2.3-.31-3.07-1.08-.33-.33-1.05-.84-.47-1.27,.43-.32,1.13-1.18,1.9-.23,.51,.63,1.19,.88,2,.65,.34-.1,.66-.28,.71-.68,.06-.42-.24-.64-.59-.74-.71-.21-1.44-.36-2.15-.59-1.08-.34-1.92-1.03-1.93-2.21-.01-1.22,.75-1.97,1.95-2.32,1.38-.41,2.66-.27,3.84,.53,.38,.26,1.02,.67,.61,1.15-.32,.38-.98,.7-1.61,.52-.22-.06-.38-.32-.59-.44-.56-.31-1.15-.32-1.72-.05-.22,.11-.41,.34-.31,.61,.22,.61,.8,.67,1.33,.8,.39,.09,.78,.19,1.15,.31,1.2,.39,2.22,.99,2.17,2.46-.05,1.43-1.05,2.05-2.27,2.41-.38,.11-.78,.14-.96,.17Z"/><path class="cls-16" d="M242.15,10.04c.88-.5,1.73-1.19,2.63,.06,.25,.35,.88,.44,1.4,.3,.4-.1,.79-.28,.85-.72,.06-.48-.32-.7-.72-.81-.67-.19-1.36-.3-2.02-.52-1.04-.36-1.9-.96-1.92-2.19-.02-1.28,.77-1.96,1.93-2.33,1.26-.41,2.47-.29,3.59,.37,.47,.28,1.27,.74,.88,1.27-.31,.42-1.14,1.06-1.92,.32-.39-.36-.86-.47-1.38-.43-.41,.04-.83,.12-.94,.58-.13,.52,.32,.7,.68,.82,.7,.25,1.43,.42,2.14,.64,1.11,.34,1.84,1.06,1.86,2.24,.02,1.11-.71,1.82-1.66,2.28-2.04,.99-4.36,.18-5.42-1.87Z"/><path class="cls-16" d="M95.26,32.04c-1.16,0-2.16-.29-2.93-1.07-.34-.34-1.08-.84-.53-1.26,.46-.35,1.24-1.26,2-.17,.3,.43,.8,.6,1.3,.64,.57,.04,1.17-.05,1.31-.71,.14-.67-.49-.8-.93-.95-.56-.19-1.17-.23-1.74-.42-1.11-.37-1.97-1.01-1.93-2.32,.04-1.21,.8-1.84,1.89-2.2,1.32-.43,2.57-.28,3.72,.42,.43,.26,1.16,.73,.77,1.21-.33,.4-1.11,.97-1.82,.39-.51-.41-1.04-.57-1.66-.47-.36,.05-.69,.18-.75,.6-.07,.43,.23,.63,.58,.74,.57,.18,1.14,.33,1.71,.5,1.69,.48,2.45,1.33,2.34,2.62-.1,1.19-1.16,2.14-2.67,2.4-.24,.04-.49,.04-.67,.06Z"/><path class="cls-16" d="M117.81,3.6c.87-.02,1.7,.16,2.41,.65,.41,.29,1.16,.73,.75,1.22-.33,.39-1.11,.97-1.82,.38-.5-.42-1.04-.56-1.66-.47-.36,.06-.69,.18-.74,.6-.06,.44,.24,.62,.59,.73,.8,.26,1.62,.47,2.42,.75,.98,.34,1.59,1.02,1.64,2.08,.05,1.07-.53,1.76-1.43,2.25-1.59,.87-3.8,.59-4.96-.69-.29-.31-.99-.79-.42-1.16,.47-.3,1.15-1.2,1.91-.26,.48,.59,1.11,.83,1.86,.72,.4-.06,.8-.24,.87-.7,.08-.49-.28-.71-.68-.83-.47-.15-.95-.28-1.43-.4-1.86-.48-2.62-1.27-2.49-2.61,.13-1.35,1.39-2.24,3.2-2.26Z"/><path class="cls-16" d="M224.55,3.6c.95,0,1.79,.18,2.47,.7,.37,.28,1.16,.67,.65,1.23-.34,.36-1.04,.81-1.73,.38-.21-.13-.38-.36-.61-.42-.67-.17-1.54-.42-1.8,.44-.24,.79,.65,.82,1.18,1,.66,.22,1.36,.34,1.99,.63,1.8,.83,1.95,2.92,.32,4.07-1.55,1.09-4.12,.85-5.34-.56-.25-.29-1.02-.71-.31-1.14,.48-.29,1.11-1.07,1.8-.28,.5,.57,1.09,.87,1.83,.78,.46-.06,.9-.22,.95-.78,.04-.52-.38-.67-.75-.79-.52-.17-1.05-.28-1.58-.42-1.31-.33-2.35-.94-2.27-2.49,.09-1.55,1.27-1.99,2.53-2.3,.24-.06,.5-.04,.67-.05Z"/><path class="cls-16" d="M188.49,9.93c-1.35,2.26-3.59,2.96-5.78,1.87-2.02-1-2.85-3.58-1.86-5.78,.9-2.01,3.26-2.95,5.41-2.17,.57,.21,1.11,.49,1.47,.97,.26,.34,.97,.77,.43,1.13-.49,.33-1.16,1.11-1.95,.34-1.01-.99-2.06-.91-3.03,0-.83,.79-.82,2.49,0,3.27,.98,.92,2.02,.95,3.05,0,.92-.85,1.48,.25,2.25,.35Z"/><path class="cls-16" d="M100.3,9.99c-1.39,2.34-3.93,3-6.14,1.61-1.91-1.2-2.47-4.07-1.2-6.09,1.2-1.91,4.01-2.52,5.94-1.25,.6,.4,1.53,1.1,1.17,1.62-.41,.59-1.37,1.2-2.38,.17-.79-.81-1.87-.53-2.67,.27-.77,.76-.81,2.33-.09,3.16,.75,.86,1.85,1.2,2.65,.45,1.08-1.02,1.83-.48,2.72,.06Z"/><path class="cls-16" d="M634.69,9.81c-1.45,2.55-4.13,3.2-6.33,1.71-2-1.36-2.37-4.6-.75-6.49,1.51-1.76,4.55-1.93,6.16-.31,.34,.34,1.02,.89,.55,1.24-.48,.36-1.18,1.17-2.06,.27-.93-.95-2-.79-2.92,.07-.83,.78-.84,2.47-.02,3.27,.91,.88,2,1.05,2.92,.11,1.03-1.06,1.56,.24,2.44,.14Z"/><path class="cls-16" d="M221.14,32.04c-1.98,.02-3.66-1.18-4.17-2.98-.55-1.94,.16-4.04,1.69-5.01,1.62-1.03,3.81-.93,5.14,.28,.4,.36,1.19,.9,.73,1.35-.45,.43-1.25,1.22-2.15,.23-.73-.8-1.74-.71-2.58-.08-1.03,.78-1.04,1.89-.62,2.97,.37,.94,1.19,1.27,2.19,1.19,.42-.04,.81-.17,1.05-.49,.73-1,1.41-.21,2.07,.06,.53,.21,.19,.55-.02,.82-.84,1.1-1.95,1.66-3.33,1.68Z"/><path class="cls-16" d="M27.01,25.62c-.88,.52-1.62,1.08-2.71,.07-.79-.73-1.94-.39-2.62,.53-.73,.98-.72,2.09,.06,3.04,.72,.88,1.86,1.16,2.65,.4,1.02-.98,1.74-.46,2.6,.03-.79,1.78-2.46,2.66-4.41,2.31-2.01-.36-3.42-1.98-3.54-4.06-.12-2.08,1.09-3.81,3.08-4.4,2.02-.6,3.82,.17,4.89,2.09Z"/><path class="cls-16" d="M594.86,9.99c-1.31,2.31-3.91,3.01-6.09,1.63-1.96-1.24-2.52-4.21-1.17-6.22,1.3-1.93,4.23-2.42,6.08-.98,.49,.38,1.38,.9,.86,1.54-.39,.49-1.24,1.08-2.15,.14-.84-.86-1.94-.64-2.79,.21-.77,.77-.81,2.33-.08,3.16,.75,.86,1.69,1.03,2.69,.48,1.3-.72,1.29-.75,2.66,.03Z"/><path class="cls-16" d="M155.59,31.6c-1.67,.42-2.83,.15-3.46-1.4-.37-.9-.84-.68-1.13,.06-.62,1.58-1.83,1.69-3.38,1.35,.74-1.1,1.41-2.18,2.17-3.2,.42-.56,.47-.96,.02-1.53-.75-.97-1.41-2.01-2.12-3.04,2.04-.74,3.1,.31,3.87,2.34,.9-1.85,1.79-3.24,3.98-2.31-.68,.95-1.34,1.97-2.1,2.91-.49,.61-.49,1.09-.03,1.7,.74,.98,1.41,2.01,2.19,3.12Z"/><path class="cls-16" d="M128.15,67.77c-2.73-.14-4.04-.96-4.49-2.74-.39-1.57,.2-3.07,1.59-4.02,1.32-.91,3.17-.87,4.47,.1,1.34,.99,1.86,2.6,1.29,4.25-.83,2.39-2.6,4.21-3.88,6.33-.36,.59-.64,.1-.96-.05-.54-.26-.39-.55-.1-.93,.7-.94,1.37-1.91,2.08-2.93Z"/><path class="cls-6" d="M81.96,67.01c-.25-1.97-1.86-2.81-3.32-1.71-.9,.68-1.35,.32-1.93-.23,1.24-1.46,2.88-1.92,4.67-1.31,1.41,.48,2.1,1.62,2.12,3.56,.02,1.24,.01,2.49,0,3.73,0,.27,.14,.68-.24,.75-.37,.08-1.12,.02-1.13-.04-.17-1.39-.72-.34-1.04-.15-1.26,.74-2.5,.66-3.64-.14-.93-.64-1.37-1.62-1.06-2.74,.38-1.39,1.46-1.92,2.8-2.06,.9-.1,1.77,.03,2.77,.34Z"/><path class="cls-6" d="M66.34,70.41c1.62,0,2.95,.01,4.27,0,.55,0,.94,.01,.96,.76,.02,.83-.5,.68-.98,.68-1.65,0-3.29,.03-4.94-.02-.43-.01-1.09,.36-1.26-.35-.14-.57-.07-1.14,.45-1.63,1.15-1.1,2.24-2.26,3.34-3.42,.41-.43,.83-.87,1.16-1.36,.64-.95,.84-1.94-.13-2.82-.88-.8-2.15-.64-3.06,.32-.2,.21-.37,.6-.57,.62-.31,.02-.69-.14-.96-.35-.4-.31-.02-.61,.14-.87,.98-1.58,3.36-2.12,5.03-1.14,1.6,.93,2.07,2.76,1.1,4.54-.95,1.74-2.57,2.89-3.88,4.31-.15,.17-.31,.33-.68,.73Z"/><path class="cls-16" d="M89.19,32.04c-1.63,0-2.57-.71-2.81-2.23-.15-.97-.1-1.98-.13-2.97-.02-.66,.24-1.45-.95-1.37-.63,.04-.42-.56-.42-.9,0-.34-.21-.94,.44-.87,1.04,.1,.98-.53,.92-1.2-.07-.78,0-1.25,1.05-1.27,1.13-.03,1.24,.49,1.12,1.32-.14,.95,.26,1.28,1.16,1.12,.84-.15,.83,.37,.83,.97,0,.58-.06,1-.78,.87-1.06-.2-1.29,.34-1.21,1.26,.06,.74,0,1.49,.05,2.24,.03,.53,.28,1.08,.89,.98,1.23-.21,1.26,.86,1.24,1.39-.02,.82-.95,.54-1.4,.67Z"/><path class="cls-16" d="M384.78,12.31c-1.52-.09-2.46-.7-2.77-2.15-.21-.99-.07-1.98-.12-2.97-.04-.69,.28-1.55-.99-1.49-.61,.03-.36-.59-.38-.94-.02-.3-.16-.87,.33-.82,1.28,.15,1.09-.7,1.02-1.4-.09-.9,.3-1.06,1.11-1.06,.8,0,1.24,.15,1.08,1.04-.19,1.08,.17,1.6,1.35,1.39,.73-.13,.63,.42,.62,.86-.01,.46,.19,1.11-.66,.97-1.25-.21-1.42,.45-1.32,1.46,.06,.64,0,1.29,.04,1.94,.03,.51,.18,1.15,.79,1.06,1.26-.18,1.39,.83,1.35,1.46-.05,.77-.99,.51-1.45,.66Z"/><path class="cls-16" d="M188.21,32.04c-1.79,.02-2.81-.88-2.98-2.62-.09-.89-.03-1.79-.03-2.68,0-.63,.17-1.34-.9-1.26-.63,.05-.49-.51-.47-.87,.02-.34-.23-.97,.4-.91,1.15,.1,1.05-.64,.96-1.31-.12-.96,.28-1.15,1.17-1.16,.89,0,1.15,.31,1.02,1.11-.16,.99,.16,1.51,1.26,1.32,.8-.14,.71,.42,.72,.92,0,.52,.06,1.05-.73,.91-1.15-.21-1.34,.4-1.26,1.36,.06,.69,0,1.39,.04,2.09,.04,.52,.22,1.1,.85,1.02,1.28-.18,1.31,.89,1.29,1.5-.03,.58-.9,.53-1.33,.57Z"/><path class="cls-16" d="M135.86,12.28c-1.82,.02-2.81-.85-2.97-2.49-.08-.79,0-1.59-.05-2.39-.04-.75,.4-1.78-1.09-1.72-.56,.02-.27-.64-.3-.98-.03-.29-.18-.84,.37-.78,1.28,.15,1.08-.73,1.01-1.42-.1-.94,.36-1,1.12-1.02,.85-.02,1.2,.24,1.07,1.09-.15,.95,.06,1.54,1.22,1.34,.83-.15,.65,.48,.69,.96,.04,.58-.07,1-.79,.88-.97-.17-1.22,.29-1.14,1.17,.07,.74,.02,1.49,.02,2.24,0,.55,.21,1.14,.79,1.05,1.28-.18,1.34,.83,1.31,1.48-.04,.7-.93,.47-1.27,.6Z"/><path class="cls-16" d="M238.86,32.04c-1.68,0-2.64-.83-2.82-2.4-.08-.74,0-1.5-.07-2.24-.09-.79,.58-2.01-1.13-1.98-.48,0-.22-.66-.26-1.02-.03-.31-.13-.81,.43-.74,1.16,.14,1.02-.65,.96-1.32-.07-.79,.11-1.14,1.02-1.13,.88,.01,1.32,.18,1.17,1.15-.13,.82-.03,1.51,1.11,1.28,.7-.14,.8,.27,.8,.86,0,.62-.02,1.11-.85,.98-.85-.14-1.16,.22-1.08,1.07,.07,.79,.02,1.59,.03,2.39,.01,.56,.25,1.1,.84,1.01,1.2-.18,1.27,.79,1.25,1.38-.02,.86-.95,.56-1.4,.7Z"/><path class="cls-16" d="M152.63,8.87c0-.75,0-1.49,0-2.24,0-.47,0-.96-.67-.88-.83,.1-.82-.41-.84-1.01-.02-.64,.18-.93,.84-.84,.68,.09,.71-.36,.67-.85-.13-1.79,1.53-2.89,3.34-2.72,.43,.04,1.19-.06,1.05,.62-.1,.53,.13,1.56-1.04,1.42-.82-.1-1.28,.32-1.25,1.09,.03,.86,.77,.42,1.15,.42,.66,0,.88,.21,.83,.86-.04,.55,.09,1.17-.8,1.01-1.17-.21-1.29,.44-1.25,1.38,.06,1.34-.04,2.69,.03,4.03,.06,.99-.55,.81-1.14,.85-.68,.05-1.01-.13-.95-.89,.06-.74,.01-1.49,.01-2.24Z"/><path d="M548.75,12.28c-1.78,.03-2.84-.94-2.94-2.61-.05-.84-.01-1.69-.02-2.53,0-.72,.23-1.55-1.04-1.42-.65,.07-.39-.57-.39-.89,0-.33-.25-.96,.39-.89,1.28,.15,1.1-.69,1.02-1.4-.09-.89,.28-1.05,1.09-1.05,.8,0,1.21,.15,1.08,1.04-.12,.85-.09,1.62,1.15,1.38,.72-.14,.8,.31,.78,.88-.02,.51,.06,1.08-.72,.95-1.16-.19-1.31,.43-1.22,1.36,.06,.69,0,1.39,.02,2.08,.01,.55,.23,1.1,.83,1.02,1.26-.17,1.33,.82,1.29,1.47-.04,.67-.89,.54-1.31,.61Z"/><path class="cls-6" d="M85.25,67.68c0-1.04,.03-2.09,0-3.13-.04-1.18,1.17-.88,1.25-.68,.53,1.24,1,.21,1.4,.02,2-.97,4.11-.04,4.39,2.16,.22,1.71,.1,3.47,.15,5.21,.02,.6-.35,.59-.78,.61-.47,.02-.74-.08-.72-.64,.03-1.34,.05-2.69,0-4.03-.06-1.58-.7-2.27-1.97-2.28-1.23,0-2.12,.93-2.16,2.35-.04,1.24-.03,2.49,0,3.73,.02,.6-.09,.88-.8,.88-.74,0-.78-.36-.77-.92,.02-1.09,0-2.19,0-3.28Z"/><path class="cls-16" d="M320.97,7.86c0-.89-.04-1.79,.02-2.68,.03-.42-.35-1.21,.34-1.21,.64,0,1.61-.71,1.99,.49,.2,.64,.41,.12,.57,0,.5-.42,1.05-.79,1.71-.82,.51-.03,1.34-.13,1.27,.57-.05,.51,.16,1.64-1.14,1.48-1.54-.19-2.15,.82-2.29,2.14-.1,.88-.14,1.81,0,2.68,.25,1.49-.53,1.57-1.67,1.53-.69-.03-.83-.26-.81-.87,.04-1.09,.01-2.18,.01-3.28Z"/><path d="M219.67,6.15c0,1.64-.06,3.29,.02,4.92,.05,.91-.39,.96-1.06,.92-.58-.03-1.15,.18-1.13-.85,.07-3.33,.07-6.67,0-10-.02-.99,.54-.81,1.13-.84,.68-.03,1.1,.03,1.06,.92-.08,1.64-.02,3.28-.02,4.92Z"/><path d="M514.36,6c0-1.54,.04-3.09-.02-4.63-.03-.82,.18-1.12,1.05-1.09,.76,.03,1.15,.08,1.13,1.02-.06,3.23-.06,6.47,0,9.7,.02,.95-.39,.98-1.14,1.01-.88,.04-1.08-.28-1.05-1.09,.06-1.64,.02-3.28,.02-4.92Z"/><path class="cls-5" d="M576.55,6.2c0,1.64-.05,3.28,.02,4.92,.04,.95-.49,.87-1.11,.88-.65,0-1.12,.02-1.1-.9,.05-3.28,.06-6.56,0-9.84-.02-1.03,.53-.92,1.21-.96,.77-.05,1.04,.19,1.01,.99-.06,1.64-.02,3.28-.02,4.92Z"/><path d="M203.73,25.87c0-1.64,.07-3.29-.03-4.92-.05-.96,.46-.89,1.09-.89,.63,0,1.12-.07,1.1,.88-.06,3.33-.06,6.67,0,10,.02,1.02-.61,.78-1.16,.81-.57,.03-1.05,.07-1.02-.8,.07-1.69,.02-3.38,.02-5.07Z"/><path class="cls-5" d="M58.26,25.97c0,1.59-.06,3.18,.02,4.77,.05,.95-.39,1.04-1.15,1.01-.67-.02-1.09-.03-1.07-.93,.06-3.28,.06-6.56,0-9.84-.01-.88,.37-.93,1.06-.94,.74,0,1.21,.04,1.16,1-.08,1.64-.02,3.28-.02,4.92Z"/><path class="cls-6" d="M301.31,11.31c-2.03-.9-4.02-1.79-6.02-2.66-.5-.22-.77-.5-.73-1.1,.03-.52,.05-.91,.64-1.16,2.05-.87,4.08-1.8,6.13-2.71,.5,1.45,.05,2.25-1.38,2.64-.89,.24-1.72,.69-2.85,1.17,1.08,.47,1.88,.93,2.75,1.16,1.39,.38,2.04,1.1,1.46,2.66Z"/><path class="cls-16" d="M277.86,11.34c-.67-3.48,2.87-2.31,3.93-4-.72-.31-1.53-.78-2.4-1.01-1.42-.38-2.01-1.14-1.44-2.65,2,.88,4.03,1.8,6.08,2.68,.55,.24,.67,.58,.68,1.14,.01,.58-.18,.9-.71,1.13-2.01,.86-4,1.76-6.14,2.71Z"/><path class="cls-16" d="M132.07,27.65c0-.94-.04-1.89,.02-2.83,.02-.38-.33-1.06,.31-1.11,.56-.04,1.42-.53,1.71,.46,.17,.58,.36,.25,.55,.06,.44-.42,.96-.74,1.55-.83,.56-.08,1.44-.21,1.45,.51,.01,.55,.12,1.65-1.25,1.52-1.36-.13-2.1,.73-2.19,2.23-.06,.99-.09,1.99,0,2.98,.1,1-.33,1.09-1.18,1.12-.95,.03-1.04-.39-1-1.14,.05-.99,.01-1.99,.01-2.98Z"/><path class="cls-16" d="M55.27,7.82c0-1-.02-1.99,.01-2.99,.01-.34-.25-.91,.4-.91,.51,0,1.34-.34,1.48,.24,.3,1.17,.61,.3,.9,.1,.46-.32,.92-.62,1.48-.64,.52-.02,1.32-.11,1.28,.57-.04,.54,.14,1.55-1.14,1.49-1.54-.08-2.2,.7-2.27,2.29-.04,.89-.02,1.79,0,2.69,.01,.76,.16,1.38-1.07,1.38-1.23,0-1.09-.62-1.08-1.38,.02-.95,0-1.89,0-2.84Z"/><path class="cls-6" d="M506.03,5.01c.93-.82,1.63-1.48,2.67-1.39,.43,.04,1.04,.06,.9,.68-.12,.52,.08,1.33-.92,1.39-2,.13-2.44,.63-2.47,2.66-.01,.79-.08,1.6,.02,2.38,.13,1.1-.35,1.31-1.34,1.28-.79-.02-.87-.34-.86-.99,.03-2.03,0-4.07,.02-6.11,0-.44-.22-1.08,.63-1.02,.62,.04,1.49-.33,1.35,1.1Z"/><path class="cls-17" d="M109.83,62.67c-.68-.1-1.11,.3-1.61,.49-.44,.17-.69,.19-.9-.33-.21-.51-.23-.79,.36-1.01,.83-.32,1.63-.74,2.44-1.12,.94-.43,1.23-.09,1.21,.88-.04,3.09-.02,6.18,0,9.27,0,.61-.01,1.03-.84,1.02-.86-.01-.66-.56-.66-1.01,0-2.73,0-5.46,0-8.2Z"/><path class="cls-16" d="M121.41,66.31c0,1.45,.02,2.89-.01,4.34-.01,.52,.32,1.25-.75,1.22-1.09-.03-.67-.81-.67-1.29-.04-2.29-.05-4.59,0-6.88,.02-.91-.08-1.33-1.1-.82-.42,.21-.98,.91-1.43-.06-.48-1.03,.45-1.01,.94-1.24,3.02-1.45,3.02-1.44,3.02,1.89,0,.95,0,1.9,0,2.84Z"/><path class="cls-16" d="M58.44,66.26c0,1.55,0,3.09,0,4.64,0,.51,.08,.97-.72,.97-.78,0-.75-.42-.74-.95,.01-2.39-.03-4.79,.02-7.18,.02-1.02-.15-1.42-1.19-.82-.39,.22-.88,.77-1.32-.06-.47-.89,.24-.98,.74-1.22q3.21-1.56,3.21,1.92c0,.9,0,1.8,0,2.69Z"/><path d="M156.91,27.68c0-.94,.04-1.89-.01-2.83-.04-.79,.02-1.25,1.06-1.24,.98,.01,1.14,.33,1.11,1.19-.06,1.99-.06,3.98,0,5.96,.02,.78-.2,1.05-.99,.99-.66-.05-1.29,.1-1.19-.94,.09-1.04,.02-2.09,.02-3.13Z"/><path d="M241.81,27.67c0-.89,0-1.79,0-2.68,0-.74-.18-1.39,1.06-1.39,1.2,0,1.1,.6,1.09,1.37-.02,1.94-.07,3.88,.02,5.81,.04,1-.46,.96-1.17,.98-.73,.01-1.09-.11-1.02-.96,.08-1.04,.02-2.09,.02-3.13Z"/><path d="M520.65,8.09c0,.94-.05,1.89,.02,2.83,.06,.82-.17,1.08-1.04,1.1-.94,.02-1.17-.26-1.14-1.17,.07-1.94,.07-3.88,0-5.81-.03-.89,.18-1.16,1.13-1.18,1.08-.03,1.07,.49,1.05,1.25-.04,.99,0,1.99,0,2.98Z"/><path class="cls-5" d="M192.17,8.01c0,.89-.03,1.79,0,2.68,.03,.81,.04,1.35-1.12,1.35-1.22,0-1.08-.65-1.07-1.4,.01-1.89,.04-3.78-.01-5.66-.02-.83,.21-1.09,1.07-1.11,.92-.02,1.22,.24,1.15,1.16-.08,.99-.02,1.99-.02,2.98Z"/><path class="cls-5" d="M252.85,7.99c0,.89-.03,1.79,0,2.68,.03,.81,.04,1.35-1.11,1.37-1.23,.02-1.08-.63-1.08-1.38,.01-1.94,.05-3.88-.02-5.81-.03-.84,.31-.98,1.03-.96,.7,.02,1.27-.03,1.18,.98-.09,1.04-.02,2.08-.02,3.13Z"/><path class="cls-5" d="M63.88,27.56c0-.89,.03-1.79,0-2.68-.03-.76-.03-1.26,1.05-1.26,1.1,0,1.17,.47,1.15,1.33-.05,1.84-.04,3.68,0,5.51,.02,.84-.03,1.31-1.14,1.34-1.28,.03-1.05-.69-1.05-1.41,0-.94,0-1.89,0-2.83Z"/><path d="M28.63,27.59c0-1.04,.06-2.09-.02-3.13-.06-.86,.43-.84,1.01-.8,.55,.04,1.2-.24,1.17,.8-.07,2.18-.05,4.37,0,6.56,.02,.94-.59,.72-1.09,.72-.5,0-1.13,.23-1.08-.72,.06-1.14,.01-2.28,.01-3.43Z"/><path class="cls-5" d="M83.44,27.77c0,.89-.04,1.79,.01,2.68,.05,.85-.03,1.34-1.14,1.34-1.06,0-1.07-.48-1.05-1.26,.03-1.89,.03-3.77,0-5.66-.01-.77-.02-1.26,1.05-1.26,1.11,0,1.19,.48,1.15,1.33-.05,.94-.01,1.89-.01,2.83Z"/><path d="M335.45,6.12c-.89,0-1.79-.04-2.68,.01-.76,.04-1.15-.09-1.17-1.02-.02-1.05,.57-.92,1.22-.92,1.89,.01,3.77,.03,5.66-.01,.71-.02,.95,.17,.93,.91-.02,.72-.15,1.1-.98,1.05-.99-.06-1.98-.01-2.98-.01Z"/><path d="M335.5,9.29c-.89,0-1.79,0-2.68,0-.64,0-1.25,.16-1.23-.91,.02-.91,.39-1.05,1.16-1.03,1.84,.04,3.67,.04,5.51,0,.78-.02,1.14,.13,1.15,1.04,0,.9-.43,.93-1.08,.91-.94-.03-1.89,0-2.83,0Z"/><path class="cls-11" d="M287.2,14c-.3-.28-1.09-.36-.54-1.04,.48-.6,.41-1-.04-1.63-.48-.67-.2-1.46,.59-1.87,.72-.37,1.36-.17,1.82,.48,.45,.64-1.05,3.96-1.83,4.07Z"/><path class="cls-5" d="M306.1,10.86c-.25,1.08-1.14,1.98-1.84,2.98-.21,.3-.43,.02-.62-.1-.27-.17-.5-.38-.18-.7,.66-.65,.48-1.19-.05-1.87-.36-.46-.12-1.04,.32-1.46,.44-.42,.94-.54,1.5-.31,.56,.23,.85,.67,.87,1.46Z"/><path class="cls-17" d="M266.25,31.75c-.75-.1-1.35-.38-1.4-1.25-.06-.93,.47-1.4,1.33-1.44,.8-.04,1.36,.4,1.43,1.21,.08,.91-.52,1.32-1.35,1.48Z"/><path class="cls-14" d="M253.15,1.7c-.15,.84-.58,1.39-1.49,1.34-.83-.04-1.27-.56-1.27-1.36,0-.82,.49-1.32,1.29-1.35,.9-.04,1.32,.55,1.47,1.38Z"/><path class="cls-5" d="M519.54,3.06c-.77-.06-1.28-.45-1.32-1.29-.03-.91,.47-1.43,1.35-1.43,.88,0,1.4,.55,1.37,1.43-.03,.81-.53,1.25-1.4,1.29Z"/><path class="cls-14" d="M82.37,20.05c.85,.15,1.39,.64,1.33,1.5-.05,.78-.56,1.28-1.4,1.25-.91-.03-1.36-.57-1.31-1.46,.04-.83,.59-1.2,1.38-1.29Z"/><path class="cls-5" d="M29.78,20.06c.85,.16,1.36,.62,1.27,1.53-.08,.83-.59,1.24-1.41,1.21-.83-.03-1.3-.53-1.3-1.34,0-.89,.56-1.32,1.44-1.4Z"/><path class="cls-11" d="M343.87,10.63c-.13,.86-.62,1.38-1.5,1.33-.78-.04-1.32-.47-1.31-1.33,.01-.93,.61-1.34,1.46-1.33,.82,0,1.24,.54,1.35,1.32Z"/><path class="cls-14" d="M63.58,21.44c.08-.89,.57-1.4,1.45-1.36,.81,.04,1.3,.6,1.29,1.37-.02,.86-.55,1.38-1.46,1.34-.84-.04-1.23-.56-1.28-1.36Z"/><path class="cls-5" d="M242.92,20.05c.78,.12,1.31,.51,1.32,1.35,0,.9-.48,1.4-1.38,1.39-.83,0-1.31-.49-1.33-1.3-.02-.89,.53-1.34,1.4-1.44Z"/><path class="cls-5" d="M159.37,21.5c-.15,.85-.61,1.36-1.52,1.29-.83-.07-1.25-.57-1.23-1.4,.02-.84,.53-1.3,1.33-1.31,.89,0,1.33,.55,1.42,1.42Z"/><path class="cls-17" d="M191.17,.3c.83,.16,1.35,.63,1.26,1.53-.07,.82-.59,1.25-1.41,1.22-.83-.04-1.31-.56-1.3-1.34,0-.86,.55-1.34,1.45-1.4Z"/><path class="cls-14" d="M62.82,70.91c-.08,.65-.45,1.02-1.17,.98-.65-.04-.97-.4-.99-1.04-.01-.73,.39-1.13,1.07-1.12,.68,0,1.07,.43,1.08,1.18Z"/><path class="cls-14" d="M114.45,69.71c.74,.06,1.17,.36,1.18,1.1,0,.63-.27,1.05-.93,1.08-.68,.04-1.15-.26-1.21-.98-.07-.73,.38-1.05,.96-1.21Z"/><path class="cls-7" d="M28.34,55.09c5.7,0,10.48,4.76,10.48,10.45,0,5.78-4.77,10.51-10.58,10.5-5.68-.01-10.41-4.8-10.4-10.53,0-5.68,4.79-10.42,10.51-10.42Z"/><path class="cls-9" d="M270.25,7.83c-.01,1.25-.93,2.22-2.1,2.23-1.24,0-2.16-1.03-2.11-2.37,.05-1.25,1.01-2.2,2.18-2.15,1.18,.05,2.05,1.03,2.03,2.29Z"/><path class="cls-18" d="M116.52,25.4c1.24-.03,2.22,.98,2.23,2.28,0,1.3-.96,2.33-2.2,2.32-1.21,0-2.08-.92-2.12-2.21-.04-1.36,.84-2.36,2.09-2.39Z"/><path class="cls-18" d="M568.64,10.24c-1.25-.04-2.12-1.05-2.07-2.41,.05-1.29,.93-2.19,2.14-2.19,1.24,0,2.2,1.03,2.18,2.34-.02,1.31-1.01,2.3-2.25,2.26Z"/><path class="cls-18" d="M42.89,8c-.03,1.31-1.03,2.29-2.27,2.24-1.24-.05-2.11-1.08-2.05-2.43,.06-1.29,.95-2.18,2.16-2.17,1.23,.01,2.19,1.06,2.16,2.36Z"/><path class="cls-18" d="M6.49,27.64c.03,1.36-.86,2.35-2.12,2.36-1.26,.02-2.18-.96-2.18-2.31,0-1.29,.86-2.24,2.05-2.29,1.28-.05,2.22,.89,2.25,2.24Z"/><path class="cls-18" d="M128.53,27.75c-.03,1.35-.96,2.3-2.24,2.25-1.27-.05-2.07-1.01-2.02-2.43,.05-1.32,.89-2.18,2.13-2.17,1.26,0,2.15,1,2.13,2.35Z"/><path class="cls-18" d="M423.48,5.64c1.26-.02,2.19,.94,2.19,2.29,0,1.29-.84,2.25-2.03,2.31-1.3,.06-2.2-.83-2.23-2.22-.03-1.41,.79-2.36,2.07-2.38Z"/><path class="cls-18" d="M167.9,7.92c.01,1.32-.94,2.33-2.19,2.32-1.24,0-2.18-1.04-2.15-2.35,.03-1.26,.93-2.22,2.11-2.25,1.25-.03,2.23,.96,2.24,2.28Z"/><path class="cls-8" d="M489.06,5.64c1.24-.02,2.21,.98,2.21,2.3,0,1.25-.89,2.25-2.06,2.3-1.27,.06-2.24-.89-2.28-2.23-.04-1.33,.88-2.35,2.13-2.37Z"/><path class="cls-10" d="M76.55,6.82c.46-1.05,1.14-1.49,2.13-1.42,.85,.06,1.45,.46,1.75,1.42h-3.89Z"/><path class="cls-10" d="M610.9,6.79c.33-.92,.96-1.36,1.87-1.38,.92-.03,1.61,.34,1.96,1.38h-3.82Z"/><path class="cls-10" d="M500.51,6.85h-3.87c.33-.98,.96-1.41,1.87-1.44,.92-.04,1.61,.33,2,1.44Z"/><path class="cls-10" d="M434.96,6.85h-3.9c.34-1.02,1.03-1.44,1.99-1.44,.93,0,1.53,.47,1.91,1.44Z"/><path class="cls-10" d="M537.81,6.83h-3.94c.39-.97,1.01-1.42,1.94-1.43,.93-.01,1.56,.42,2,1.43Z"/><path class="cls-10" d="M402.92,6.85h-3.92c.26-.92,.86-1.34,1.69-1.44,.99-.11,1.69,.32,2.23,1.44Z"/><path class="cls-10" d="M128.55,6.83h-3.95c.39-.97,1.01-1.41,1.93-1.43,.94-.02,1.56,.43,2.02,1.43Z"/><path class="cls-10" d="M67.62,6.83h-3.8c.19-.97,.88-1.34,1.75-1.41,.98-.08,1.68,.34,2.05,1.41Z"/><path class="cls-10" d="M16.05,26.58h-3.8c.19-.97,.88-1.34,1.75-1.41,.98-.08,1.69,.34,2.05,1.41Z"/><path class="cls-15" d="M598.16,6.81c.41-1.06,1.1-1.43,2.03-1.41,.87,.02,1.45,.46,1.85,1.41h-3.88Z"/><path class="cls-15" d="M173.54,6.9c.48-1.17,1.21-1.6,2.26-1.48,.74,.08,1.54,.45,1.48,1.18-.05,.65-.9,.23-1.39,.28-.72,.08-1.45,.02-2.35,.02Z"/><path class="cls-12" d="M373.84,6.85h-3.69c.17-1,.84-1.4,1.73-1.44,.97-.05,1.72,.31,1.96,1.44Z"/><path class="cls-12" d="M192.78,26.65c1.06-1.61,2.5-1.92,3.46-.94,.21,.22,.44,.46,.33,.77-.1,.29-.42,.16-.64,.17-.98,.01-1.95,0-3.14,0Z"/><path class="cls-4" d="M229.58,28.13c.62,.06,1.56-.01,1.57,.68,.01,.99-.84,1.56-1.84,1.58-.66,.01-1.35-.24-1.33-1.08,.03-.99,.8-1.13,1.6-1.18Z"/><path class="cls-4" d="M179.13,28.13c.42,.23,1.41-.16,1.33,.8-.08,.95-.88,1.44-1.81,1.46-.66,.02-1.37-.23-1.34-1.06,.03-1.08,.89-1.16,1.82-1.2Z"/><path class="cls-4" d="M107.09,28.13c.51,.11,1.45-.05,1.42,.74-.04,1-.9,1.53-1.9,1.52-.67,0-1.34-.31-1.26-1.15,.09-.96,.87-1.08,1.74-1.11Z"/><path class="cls-15" d="M621.82,8.38c.42,.22,1.41-.18,1.34,.8-.07,.96-.89,1.42-1.8,1.45-.68,.02-1.39-.28-1.37-1.06,.04-1.02,.88-1.18,1.83-1.19Z"/><path class="cls-15" d="M213.69,9.05c-.36,1.1-1.04,1.62-2.04,1.58-.69-.03-1.37-.4-1.24-1.19,.16-.97,1.02-1.11,1.87-1.04,.56,.04,1.16,.06,1.4,.65Z"/><path class="cls-18" d="M317.42,8c-.03,1.35-.97,2.3-2.23,2.24-1.25-.06-2.08-1.07-2.02-2.44,.06-1.29,.93-2.17,2.15-2.16,1.25,.01,2.13,1,2.1,2.36Z"/><path class="cls-18" d="M144.72,27.67c.02,1.36-.88,2.34-2.13,2.33-1.21,0-2.07-.89-2.12-2.19-.05-1.37,.8-2.36,2.05-2.41,1.25-.04,2.18,.92,2.2,2.27Z"/><path class="cls-18" d="M16.43,10.24c-1.27,.03-2.17-.91-2.19-2.27-.01-1.37,.86-2.33,2.13-2.33,1.2,0,2.07,.91,2.12,2.2,.05,1.36-.82,2.37-2.06,2.4Z"/><path class="cls-13" d="M50.85,28.13c.45,.21,1.44-.14,1.37,.79-.06,.94-.87,1.45-1.8,1.48-.67,.02-1.39-.22-1.37-1.04,.02-1.07,.87-1.18,1.8-1.22Z"/><path class="cls-13" d="M87.25,8.36c.61,.11,1.56-.05,1.56,.72,0,1-.88,1.55-1.87,1.55-.67,0-1.36-.28-1.31-1.11,.06-.97,.86-1.09,1.63-1.16Z"/><path class="cls-13" d="M49.77,8.36c.61,.11,1.56-.05,1.55,.72,0,1-.88,1.55-1.87,1.55-.67,0-1.36-.28-1.31-1.11,.06-.97,.85-1.09,1.63-1.16Z"/><path class="cls-18" d="M557.49,7.94c0,1.28-1,2.32-2.21,2.3-1.25-.02-2.15-1.04-2.11-2.37,.04-1.28,.92-2.2,2.11-2.23,1.21-.02,2.21,1.02,2.21,2.3Z"/><path class="cls-18" d="M148.21,7.9c.02,1.28-.96,2.34-2.17,2.34-1.2,0-2.09-.91-2.15-2.19-.06-1.33,.82-2.37,2.06-2.41,1.21-.04,2.23,.97,2.25,2.26Z"/><path class="cls-18" d="M249.77,30c-1.24-.01-2.16-1.02-2.13-2.35,.03-1.34,.98-2.29,2.23-2.25,1.14,.04,2.07,1.06,2.08,2.28,.01,1.28-.98,2.33-2.19,2.32Z"/><path class="cls-9" d="M213.79,27.72c-.01,1.31-.99,2.31-2.22,2.28-1.22-.03-2.14-1.09-2.09-2.4,.05-1.26,.96-2.2,2.14-2.2,1.23,0,2.19,1.02,2.18,2.32Z"/><path class="cls-9" d="M415.87,7.89c.03,1.31-.92,2.35-2.15,2.35-1.23,0-2.18-1-2.17-2.32,.01-1.26,.89-2.23,2.06-2.28,1.24-.05,2.22,.93,2.25,2.25Z"/><path class="cls-12" d="M583.41,9.08c-.28,1.12-1.02,1.57-1.99,1.55-.69-.02-1.35-.41-1.22-1.19,.16-.98,1.02-1.12,1.86-1.04,.54,.05,1.21-.03,1.36,.68Z"/><path class="cls-8" d="M100.35,67.83c0,1.72-1,2.86-2.52,2.88-1.46,.02-2.59-1.2-2.62-2.83-.03-1.68,1.14-2.99,2.64-2.97,1.48,.03,2.51,1.23,2.5,2.92Z"/><path class="cls-18" d="M129.67,64.14c-.03,1.26-1.05,2.27-2.29,2.27-1.26,0-2.4-1.16-2.37-2.41,.03-1.18,1.16-2.28,2.35-2.28,1.28,0,2.34,1.11,2.31,2.41Z"/><path class="cls-3" d="M79.55,70.71c-.9,0-1.58-.35-1.68-1.31-.09-.86,1.11-1.71,2.32-1.56,.65,.08,1.65-.16,1.78,.9,.12,.93-1.23,1.98-2.42,1.97Z"/><path class="cls-2" d="M26.89,64.67c2.23-.74,3.71-.48,4.71,.79,1.11,1.41,1.22,3.26,.22,4.72-.98,1.44-2.43,1.83-4.07,1.64-1.45-.17-2.46-1.01-3.13-2.27-.19-.35-.38-.81,.22-.95,.55-.13,1.06-.9,1.68-.16,.19,.23,.28,.54,.49,.74,.73,.71,1.57,.85,2.43,.26,.9-.62,.98-1.49,.48-2.36-.51-.9-1.36-1.29-2.27-.66-.96,.67-1.68,.19-2.46-.24-.85-.47-.29-1.25-.36-1.88-.03-.28,.16-.57,.19-.87q.44-3.27,3.67-3.27c.75,0,1.5,.04,2.25,0,.72-.04,.95,.25,.94,.95,0,.72-.3,.99-.99,.95-.45-.03-.9,0-1.35,0q-2.32,0-2.66,2.6Z"/></g></g></svg>