<?xml version="1.0" encoding="UTF-8"?><svg id="Layer_1" xmlns="http://www.w3.org/2000/svg" xmlns:xlink="http://www.w3.org/1999/xlink" viewBox="0 0 741 240"><defs><style>.cls-1{filter:url(#drop-shadow-2);}.cls-1,.cls-2,.cls-3{fill:#fffcd6;stroke:#2384c6;stroke-miterlimit:10;stroke-width:2px;}.cls-2{filter:url(#drop-shadow-3);}.cls-4{fill:#2384c6;}.cls-3{filter:url(#drop-shadow-1);}</style><filter id="drop-shadow-1" filterUnits="userSpaceOnUse"><feOffset dx="3" dy="3"/><feGaussianBlur result="blur" stdDeviation="5"/><feFlood flood-color="#aaa" flood-opacity=".75"/><feComposite in2="blur" operator="in"/><feComposite in="SourceGraphic"/></filter><filter id="drop-shadow-2" filterUnits="userSpaceOnUse"><feOffset dx="3" dy="3"/><feGaussianBlur result="blur-2" stdDeviation="5"/><feFlood flood-color="#aaa" flood-opacity=".75"/><feComposite in2="blur-2" operator="in"/><feComposite in="SourceGraphic"/></filter><filter id="drop-shadow-3" filterUnits="userSpaceOnUse"><feOffset dx="3" dy="3"/><feGaussianBlur result="blur-3" stdDeviation="5"/><feFlood flood-color="#aaa" flood-opacity=".75"/><feComposite in2="blur-3" operator="in"/><feComposite in="SourceGraphic"/></filter></defs><rect class="cls-3" x="6" y="10" width="213" height="213" rx="22.75" ry="22.75"/><path class="cls-4" d="M158,146.1c0,12-4.47,22-13.4,30-8.8,8-19.73,12-32.8,12-10.27,0-19.53-3.07-27.8-9.2-8.4-6.4-14.07-14.73-17-25l16.8-7c2.13,7.6,5.63,13.43,10.5,17.5,4.87,4.07,10.7,6.1,17.5,6.1,7.47,0,13.93-2.33,19.4-7,5.33-4.8,8-10.6,8-17.4s-2.8-12.53-8.4-17.2c-5.47-4.67-12.07-7-19.8-7h-11.8v-17.2h10.4c7.33,0,13.33-2.03,18-6.1,4.67-4.07,7-9.37,7-15.9,0-6-2.2-10.87-6.6-14.6-4.4-3.73-10.2-5.6-17.4-5.6-11.6,0-19.53,5.93-23.8,17.8l-17-7.2c3.07-8.4,8.2-15.2,15.4-20.4,7.2-5.2,15.67-7.8,25.4-7.8,12.13,0,22.33,3.6,30.6,10.8,8.13,6.93,12.2,15.93,12.2,27,0,13.2-6.13,23-18.4,29.4v.8c7.2,3.07,12.83,7.53,16.9,13.4,4.07,5.87,6.1,12.47,6.1,19.8Z"/><rect class="cls-1" x="259" y="10" width="213" height="213" rx="22.75" ry="22.75"/><path class="cls-4" d="M369.6,98.1c11.07,0,20.93,4.4,29.6,13.2,8.8,8.67,13.2,19,13.2,31s-4.67,23-14,32.2c-9.47,9.07-20.4,13.6-32.8,13.6-13.2,0-24.33-4.53-33.4-13.6-9.07-9.07-13.6-19.8-13.6-32.2,0-11.07,4.47-23.67,13.4-37.8l39.8-59.6,14.8,10.2-33.8,46.8,.4,.4c4.13-2.8,9.6-4.2,16.4-4.2Zm-32.4,44.4c0,7.87,2.73,14.53,8.2,20,5.47,5.33,12.2,8,20.2,8s14.67-2.67,20-8,8.2-12.13,8.2-20-2.8-14.33-8.4-19.8c-5.47-5.46-12.07-8.2-19.8-8.2s-14.27,2.73-20,8.2c-5.6,5.47-8.4,12.07-8.4,19.8Z"/><rect class="cls-2" x="512" y="10" width="213" height="213" rx="22.75" ry="22.75"/><path class="cls-4" d="M664.4,147.1c0,11.73-4.47,21.47-13.4,29.2-9.07,7.87-20.07,11.8-33,11.8s-23.93-3.93-33-11.8c-8.93-7.73-13.4-17.47-13.4-29.2,0-7.2,1.93-13.77,5.8-19.7,3.87-5.93,9.4-10.63,16.6-14.1v-.8c-5.33-3.47-9.63-7.73-12.9-12.8-3.27-5.07-4.9-10.4-4.9-16,0-11.07,3.93-20.33,11.8-27.8,7.73-7.33,17.73-11,30-11s22.27,3.67,30,11c7.87,7.47,11.8,16.73,11.8,27.8,0,5.6-1.63,10.93-4.9,16-3.27,5.07-7.57,9.33-12.9,12.8v.8c7.2,3.47,12.73,8.17,16.6,14.1,3.87,5.93,5.8,12.5,5.8,19.7Zm-74-1c0,3.6,.7,6.87,2.1,9.8,1.4,2.93,3.33,5.5,5.8,7.7,2.47,2.2,5.37,3.9,8.7,5.1,3.33,1.2,7,1.8,11,1.8s7.67-.6,11-1.8c3.33-1.2,6.23-2.9,8.7-5.1,2.47-2.2,4.4-4.77,5.8-7.7,1.4-2.93,2.1-6.2,2.1-9.8,0-6.93-2.67-12.67-8-17.2-5.33-4.67-11.87-7-19.6-7s-14.33,2.33-19.8,7c-5.2,4.67-7.8,10.4-7.8,17.2Zm4.6-62.8c0,6.4,2.13,11.57,6.4,15.5,4.27,3.93,9.8,5.9,16.6,5.9s12.33-1.96,16.6-5.9c4.27-3.93,6.4-9.1,6.4-15.5s-2.13-11.47-6.4-15.2c-4.27-3.73-9.8-5.6-16.6-5.6s-12.33,1.87-16.6,5.6c-4.27,3.73-6.4,8.8-6.4,15.2Z"/></svg>