<?xml version="1.0" encoding="UTF-8"?><svg id="Layer_2" xmlns="http://www.w3.org/2000/svg" viewBox="0 0 613.5 105.6"><defs><style>.cls-1{fill:#2f528f;}.cls-2{fill:#4573c4;}.cls-3{fill:#fdfefe;}.cls-4{fill:#fafafa;}.cls-5{fill:#040404;}.cls-6{fill:#020202;}.cls-7{fill:#030303;}.cls-8{fill:#4472c3;}.cls-9{fill:#080808;}.cls-10{fill:#fdfdfd;}.cls-11{fill:#fbfbfb;}.cls-12{fill:#050505;}.cls-13{fill:#070707;}.cls-14{fill:#f2f2f2;}.cls-15{fill:#010101;}.cls-16{fill:#fefefe;}.cls-17{fill:#060606;}.cls-18{fill:#fcfcfc;}</style></defs><g id="Layer_1-2"><g><path class="cls-16" d="M306.75,105.57c-101.79,0-203.58,0-305.37,.03-1.12,0-1.38-.25-1.38-1.37C.03,69.89,.03,35.56,0,1.22,0,.2,.2,0,1.23,0c203.68,.03,407.36,.03,611.04,0,1.03,0,1.23,.2,1.23,1.22-.03,34.33-.03,68.67,0,103,0,1.12-.25,1.37-1.38,1.37-101.79-.03-203.58-.03-305.37-.03Z"/><path class="cls-1" d="M15.95,8.11c6.54,.01,11.99,5.49,11.96,12.02-.03,6.51-5.53,11.93-12.09,11.89-6.47-.04-11.88-5.48-11.88-11.95,0-6.53,5.47-11.98,12.02-11.96Z"/><path class="cls-15" d="M47.86,15.23c3.42,.03,5.96,2.64,5.96,6.14,0,3.52-2.63,6.14-6.14,6.11-3.4-.03-5.99-2.7-5.98-6.14,.01-3.51,2.66-6.14,6.16-6.11Z"/><path class="cls-15" d="M190.71,26.44c-2.41,1.5-4.16,1.37-5.61-.39-1.41-1.71-1.28-4.41,.29-6,1.3-1.32,2.93-1.49,4.63-.5,.27,.15,.62,.92,.81-.12,.09-.51,.68-.26,1.03-.25,.57,.01,.35,.5,.35,.79,.02,2.49,.05,4.98-.01,7.46-.04,1.7-1.08,2.94-2.64,3.41-1.67,.5-3.58,.03-4.5-1.17-.22-.29-.83-.68-.22-1.08,.36-.24,.84-.77,1.35,0,.78,1.18,1.96,1.31,3.17,.81,1.31-.55,1.54-1.67,1.36-2.98Z"/><path class="cls-6" d="M110.62,23.07c0-1.05,.03-2.09,0-3.14-.04-1.18,1.2-.84,1.26-.68,.4,1.21,.9,.31,1.28,.1,1.06-.59,2.24-.73,3.07,.09,.85,.83,1.26,.53,2.05,0,1.92-1.28,4.19-.31,4.49,1.96,.22,1.71,.1,3.47,.15,5.21,.02,.57-.29,.62-.75,.65-.6,.04-.77-.19-.76-.76,.03-1.29,.03-2.59,0-3.88-.03-1.15-.2-2.25-1.72-2.29-1.15-.03-2.05,.86-2.14,2.22-.08,1.29-.06,2.59-.03,3.88,.02,.67-.24,.83-.87,.84-.74,.01-.64-.44-.64-.88,0-1.29,0-2.59,0-3.88-.01-1.13-.24-2.12-1.66-2.18-1.16-.05-2.11,.86-2.17,2.18-.06,1.29-.04,2.59,0,3.88,.01,.59-.07,.89-.79,.89-.74,0-.79-.34-.78-.91,.03-1.09,0-2.19,0-3.29Z"/><path class="cls-15" d="M93.83,59.51c-.07-1.6,.33-3.07,1.36-4.31,1.68-2.02,4.54-2.01,6.24,0,1.86,2.22,1.91,6.38,.1,8.64-1.81,2.26-4.96,2.15-6.62-.24-.85-1.23-1.16-2.62-1.08-4.1Z"/><path class="cls-15" d="M67.49,20.07c0-1.37,.02-2.56,0-3.75-.01-.58,.06-.9,.78-.9,.79,0,.73,.43,.73,.95,0,3.33,0,6.66-.01,9.99,0,.3,.21,.77-.29,.85-.36,.06-.97,.23-1.06-.18-.18-.81-.38-.47-.8-.21-1.81,1.12-3.63,.83-4.93-.74-1.39-1.67-1.33-4.28,.13-5.89,1.36-1.5,3.15-1.68,4.96-.48,.12,.08,.22,.16,.5,.37Z"/><path class="cls-6" d="M67.43,57.71c0,.85,0,1.69,0,2.54,0,.59-.15,1.24,.83,1.15,.59-.05,.53,.44,.55,.84,.01,.34-.06,.63-.46,.57-1.06-.16-.91,.54-.93,1.19-.01,.52,.31,1.21-.75,1.24-1.01,.03-.88-.61-.8-1.16,.15-1.1-.33-1.36-1.34-1.28-.99,.08-2-.05-2.99,.03-1.27,.1-1.26-.74-.86-1.37,1.54-2.43,3.22-4.78,4.83-7.17,.4-.59,.99-.43,1.49-.36,.67,.08,.4,.7,.41,1.09,.04,.89,.01,1.79,.01,2.69Z"/><path class="cls-15" d="M144.29,57.62c0,.75-.01,1.49,0,2.24,.02,.73-.34,1.69,1.06,1.55,.52-.05,.36,.48,.39,.8,.03,.3,.01,.66-.42,.6-1.1-.17-1.06,.51-1.04,1.26,.01,.54,.25,1.19-.79,1.18-1.08-.01-.77-.74-.72-1.22,.1-.98-.24-1.3-1.22-1.22-1.04,.09-2.1-.03-3.14,.03-1.06,.07-1.31-.51-.86-1.23,1.57-2.48,3.25-4.89,4.89-7.32,.39-.57,1-.42,1.51-.34,.57,.09,.32,.64,.34,.99,.04,.9,.01,1.79,.01,2.69Z"/><path class="cls-6" d="M111.1,57.65c0,.85,.02,1.69,0,2.53-.02,.68-.08,1.32,.95,1.21,.52-.05,.47,.4,.46,.74,0,.27,.08,.72-.35,.66-1.25-.17-1.07,.65-1.06,1.39,.01,.55,.12,1.06-.77,1.05-.86,0-.89-.48-.79-1.05,.23-1.27-.41-1.48-1.48-1.39-.89,.08-1.8-.05-2.69,.03-1.27,.11-1.45-.59-.94-1.41,1.54-2.43,3.19-4.79,4.82-7.17,.38-.56,1.01-.41,1.51-.3,.52,.11,.33,.64,.34,1.01,.02,.89,0,1.79,0,2.68Z"/><path class="cls-6" d="M127.34,63.77c1.24,0,2.48-.02,3.71,0,.53,0,1.23-.28,1.22,.77-.02,.99-.69,.64-1.14,.65-1.59,.03-3.19,.04-4.78,0-.42-.01-1.09,.38-1.26-.32-.13-.55-.13-1.14,.39-1.64,1.19-1.13,2.32-2.32,3.45-3.51,.44-.47,.88-.96,1.21-1.5,.56-.94,.64-1.93-.35-2.65-.97-.7-1.96-.59-2.84,.24-.14,.13-.25,.31-.36,.47-.44,.69-.89,.14-1.26-.04-.54-.27-.05-.6,.09-.84,.95-1.61,3.31-2.18,5-1.23,1.67,.94,2.14,2.82,1.13,4.64-.53,.97-1.31,1.74-2.11,2.5-.75,.71-1.51,1.41-2.27,2.12l.17,.34Z"/><path class="cls-6" d="M83.29,63.77c1.59,0,2.92,0,4.25,0,.52,0,.95-.04,.97,.73,.02,.8-.44,.71-.95,.71-1.7,0-3.39,.02-5.08-.02-.39,0-1,.32-1.14-.28-.13-.55-.17-1.15,.35-1.65,1.22-1.17,2.39-2.39,3.56-3.62,.41-.43,.82-.88,1.12-1.39,.56-.94,.68-1.94-.3-2.66-1.01-.76-2.14-.69-2.92,.31-.5,.65-.95,.9-1.53,.35-.66-.64,.16-1.05,.47-1.39,1.22-1.39,3.56-1.53,5.02-.39,1.38,1.08,1.6,2.82,.53,4.55-1.08,1.76-2.8,2.95-4.35,4.75Z"/><path class="cls-6" d="M75.04,23.48c-.7,0-1.4,.04-2.09,0-1.22-.09-1.06,.5-.68,1.25,.78,1.52,2.78,1.92,4.02,.66,.61-.61,1.14-.71,1.58-.15,.46,.58-.27,.94-.63,1.26-1.44,1.3-3.73,1.35-5.23,.17-1.62-1.27-2.08-3.75-1.05-5.68,.94-1.75,2.91-2.5,4.85-1.84,.63,.21,1.17,.56,1.57,1.08,.66,.86,1.21,1.94,.83,2.89-.34,.86-1.51,.2-2.29,.36-.29,.06-.6,0-.9,0Z"/><path class="cls-6" d="M135.62,18.93c.97,.05,2.1,.47,2.81,1.65,.5,.82,.98,1.84,.6,2.66-.3,.63-1.37,.19-2.09,.23-1.04,.05-2.1,.06-3.14,0-1.14-.06-1.14,.45-.73,1.25,.77,1.51,2.79,1.92,4.02,.65,.62-.63,1.15-.68,1.59-.15,.49,.6-.29,.92-.63,1.24-1.33,1.24-3.46,1.38-4.98,.38-1.54-1.01-2.22-3.08-1.67-5.03,.51-1.77,2.04-2.92,4.22-2.89Z"/><path class="cls-6" d="M204.31,23.48c-.65,0-1.3-.02-1.94,.01-.38,.02-.88-.22-1.1,.19-.26,.49,.06,.96,.35,1.36,.93,1.29,2.71,1.49,3.88,.27,.59-.61,1.04-.55,1.49-.13,.59,.56-.15,.85-.43,1.14-1.44,1.45-3.87,1.57-5.45,.31-1.62-1.29-2.01-3.94-.88-5.83,1-1.67,3.09-2.35,4.95-1.59,1.3,.53,2.29,2.09,2.31,3.56,0,.5-.1,.74-.64,.72-.85-.03-1.69,0-2.54,0Z"/><path class="cls-6" d="M227.43,23.48c-.7,0-1.4-.02-2.09,0-.36,.02-.88-.22-1.04,.29-.12,.38,.09,.77,.31,1.12,.88,1.39,2.76,1.67,3.97,.43,.57-.58,1.03-.63,1.48-.16,.61,.62-.18,.93-.5,1.23-1.44,1.38-3.78,1.47-5.33,.25-1.63-1.28-2.04-3.92-.92-5.82,1-1.69,3.07-2.37,4.94-1.63,1.31,.52,2.27,2.05,2.34,3.54,.03,.63-.21,.77-.77,.75-.8-.03-1.59,0-2.39,0Z"/><path class="cls-6" d="M214.02,22.35c-.15-1.86-1.8-2.76-3.24-1.66-.91,.69-1.37,.34-1.98-.19,1.19-1.48,2.82-1.94,4.64-1.34,1.43,.47,2.13,1.6,2.16,3.53,.02,1.24-.06,2.49,.02,3.73,.07,1.15-1.08,1-1.19,.78-.64-1.23-1.09-.18-1.59,.03-1.21,.49-2.36,.38-3.38-.41-.9-.7-1.29-1.67-.95-2.78,.38-1.23,1.36-1.75,2.59-1.93,.99-.15,1.94,.05,2.91,.26Z"/><path class="cls-6" d="M140.4,20.46c1.43-1.51,3.12-1.96,4.82-1.27,1.63,.66,2.06,2.02,2.03,3.63-.02,1.19-.07,2.39,.01,3.58,.08,1.15-1.06,1.02-1.19,.78-.64-1.15-1.08-.19-1.59,.02-1.2,.5-2.36,.39-3.38-.41-.9-.7-1.3-1.66-.95-2.78,.38-1.23,1.36-1.75,2.59-1.93,.99-.15,1.94,.05,2.91,.26-.14-1.86-1.69-2.64-3.27-1.71q-.95,.56-1.99-.18Z"/><path class="cls-6" d="M44.09,63.77c1.3,0,2.59,0,3.89,0,.51,0,.97-.06,.99,.72,.03,.79-.42,.73-.94,.73-1.65-.01-3.29,.02-4.94-.02-.44-.01-1.1,.34-1.29-.31-.19-.62-.04-1.23,.51-1.75,1.15-1.1,2.25-2.25,3.35-3.41,.44-.47,.87-.96,1.21-1.51,.59-.95,.64-1.94-.34-2.65-.96-.71-1.96-.6-2.84,.24-.14,.14-.27,.3-.36,.47-.36,.64-.76,.19-1.13,.03-.64-.27-.21-.65-.04-.93,.94-1.59,3.33-2.15,5.02-1.19,1.62,.92,2.11,2.73,1.16,4.51-.88,1.66-2.41,2.77-3.67,4.1-.23,.24-.59,.35-.89,.52l.33,.46Z"/><path class="cls-6" d="M109.21,23.27c-.02,2.51-1.77,4.25-4.23,4.21-2.37-.05-4.03-1.8-4.04-4.26,0-2.5,1.74-4.3,4.17-4.29,2.41,0,4.12,1.83,4.1,4.35Z"/><path class="cls-6" d="M179.57,23.18c.01,2.48-1.76,4.3-4.19,4.3-2.41,0-4.18-1.84-4.15-4.32,.02-2.42,1.75-4.2,4.1-4.24,2.41-.04,4.23,1.79,4.24,4.26Z"/><path class="cls-6" d="M234.63,18.92c1.15,0,1.94,.29,2.62,.84,.33,.26,.85,.65,.5,1.06-.28,.32-.85,.76-1.39,.1-.54-.65-1.3-.69-2.07-.57-.51,.08-.99,.29-1.02,.91-.03,.56,.4,.76,.84,.89,.76,.22,1.56,.37,2.3,.65,.98,.37,1.74,1,1.72,2.19-.02,1.22-.77,1.89-1.84,2.27-1.59,.58-3.39,.11-4.31-1.16-.19-.26-.89-.61-.15-1.04,.42-.24,.86-.53,1.27,.11,.51,.79,1.3,1.03,2.22,.92,.58-.07,1.11-.26,1.24-.88,.14-.69-.43-.96-.93-1.16-.46-.18-.96-.25-1.44-.38-1.92-.52-2.64-1.3-2.45-2.64,.18-1.3,1.42-2.13,2.91-2.1Z"/><path class="cls-6" d="M151.36,18.92c1.29-.02,2.09,.24,2.77,.79,.36,.29,.97,.64,.52,1.15-.3,.34-.88,.68-1.4,.02-.48-.61-1.22-.63-1.93-.54-.52,.06-1.01,.25-1.09,.84-.09,.63,.4,.85,.9,.99,.77,.22,1.56,.36,2.3,.66,.98,.39,1.71,1.04,1.66,2.23-.05,1.16-.77,1.79-1.76,2.18-1.6,.63-3.51,.13-4.44-1.18-.18-.26-.72-.59-.17-.95,.38-.25,.85-.64,1.28,0,.52,.78,1.26,1.09,2.19,.99,.63-.07,1.23-.23,1.33-.95,.1-.69-.49-.93-1-1.12-.46-.17-.97-.24-1.45-.37-1.87-.52-2.6-1.35-2.38-2.69,.21-1.24,1.4-2.03,2.67-2.03Z"/><path class="cls-15" d="M90.28,23.83c0-.7-.02-1.39,0-2.09,.03-.69,.07-1.3-.95-1.16-.62,.09-.53-.41-.56-.8-.03-.42,.09-.71,.56-.62,1.03,.19,.92-.49,.98-1.15,.16-1.79,1.25-2.8,2.9-2.68,.42,.03,1.08-.15,1.03,.67-.04,.63-.35,.85-.98,.77-.77-.1-1.27,.31-1.4,1.03-.14,.73-.25,1.54,1,1.37,.48-.07,1.11-.24,1.08,.71-.03,.92-.64,.74-1.14,.7-.8-.07-1.03,.24-1,1.01,.05,1.59,0,3.18,.03,4.77,.01,.58-.07,.89-.79,.9-.73,0-.8-.33-.78-.9,.03-.84,0-1.69,0-2.53Z"/><path class="cls-6" d="M166.73,23.27c0-.5-.01-1,0-1.49,.02-.66,.12-1.33-.92-1.19-.48,.06-.52-.34-.52-.71,0-.37,0-.77,.51-.7,1.21,.18,.91-.67,.94-1.31,.02-.55-.24-1.2,.8-1.17,.97,.03,.72,.66,.68,1.12-.07,.92,.04,1.56,1.22,1.35,.46-.08,.88-.04,.86,.66-.02,.59-.24,.87-.8,.76-1.32-.27-1.32,.51-1.27,1.44,.05,.79,0,1.59,.02,2.39,.01,.88,.21,1.62,1.33,1.53,.69-.05,.65,.54,.72,.89,.11,.56-.42,.41-.72,.46-1.65,.25-2.73-.6-2.84-2.24-.04-.6,0-1.19,0-1.79Z"/><path class="cls-12" d="M56.95,55.87c-.67,.27-1.18,.44-1.65,.67-.49,.24-.69,.05-.87-.39-.17-.41-.3-.76,.29-.9,.05-.01,.09-.05,.13-.08,3.53-1.99,3.6-1.95,3.6,2.07,0,2.24,.02,4.48-.01,6.72,0,.5,.35,1.23-.72,1.27-1.07,.03-.75-.69-.76-1.2-.02-2.64,0-5.28,0-8.16Z"/><path class="cls-15" d="M149.94,55.87c-.65,.26-1.15,.45-1.64,.67-.52,.24-.67-.04-.88-.45-.26-.5-.12-.72,.36-.86,.09-.03,.17-.1,.26-.14q3.4-1.71,3.4,2.04c0,2.39,0,4.78,0,7.17,0,.53,.03,.93-.74,.93-.75,0-.77-.35-.77-.91,.02-2.77,0-5.54,0-8.46Z"/><path class="cls-15" d="M243.95,27.12c-2.61,.58-3.58-.17-3.59-2.77,0-.84-.01-1.69,0-2.53,0-.66,.12-1.34-.93-1.23-.52,.06-.48-.38-.49-.73,0-.35-.05-.76,.49-.69,1.22,.15,.88-.72,.93-1.35,.04-.5-.21-1.11,.73-1.11,.94,0,.78,.62,.72,1.1-.16,1.14,.27,1.55,1.39,1.36,.54-.09,.67,.2,.65,.69-.02,.45-.09,.84-.65,.73-1.49-.27-1.44,.67-1.38,1.67,.04,.74-.02,1.49,.03,2.23,.05,.78,.24,1.51,1.27,1.47,.88-.03,.64,.7,.83,1.14Z"/><path class="cls-15" d="M218.17,23.2c0-.5-.02-.99,0-1.49,.03-.64,.04-1.22-.89-1.11-.51,.06-.54-.33-.53-.69,0-.32-.11-.79,.45-.72,1.17,.15,.93-.66,.97-1.32,.03-.47-.28-1.12,.68-1.15,1.05-.03,.79,.69,.76,1.21-.07,.91,.14,1.44,1.2,1.25,.46-.08,.86-.06,.85,.65,0,.71-.33,.87-.92,.78-.97-.16-1.2,.31-1.13,1.18,.07,.79-.02,1.59,.02,2.38,.05,.89,.03,1.87,1.39,1.8,.65-.03,.65,.58,.67,.97,.03,.54-.51,.33-.79,.37-1.68,.22-2.64-.61-2.74-2.32-.03-.59,0-1.19,0-1.79Z"/><path class="cls-15" d="M157.31,23.26c0-.6,0-1.19,0-1.79,0-.48,0-.94-.68-.86-.62,.07-.74-.25-.75-.79-.01-.55,.21-.7,.7-.65,.94,.1,.65-.6,.73-1.09,.09-.53-.42-1.39,.77-1.35,1.07,.03,.68,.83,.65,1.29-.05,.9,.2,1.31,1.15,1.16,.54-.08,.94-.03,.91,.74-.03,.79-.52,.75-1.01,.68-.92-.12-1.09,.34-1.04,1.12,.05,.89-.02,1.79,.03,2.68,.05,.82,.18,1.64,1.33,1.56,.68-.05,.7,.53,.73,.91,.04,.61-.56,.41-.87,.44-1.61,.17-2.55-.64-2.65-2.27-.04-.59,0-1.19,0-1.79Z"/><path d="M128.31,21.25c0-1.64,.01-3.27,0-4.91,0-.57,.05-.91,.78-.92,.73,0,.78,.33,.78,.9-.02,3.37-.03,6.74,0,10.11,0,.67-.22,.82-.85,.82-.64,0-.72-.28-.72-.81,.02-1.73,0-3.47,0-5.2Z"/><path class="cls-7" d="M96.84,20.44c.84-1.02,1.55-1.46,2.44-1.49,.38-.01,1-.1,.95,.56-.03,.44-.05,.92-.79,1.02-2.04,.27-2.5,.87-2.51,2.89,0,.99-.03,1.99,.01,2.98,.03,.62-.14,.86-.82,.87-.76,.01-.75-.38-.75-.92,.01-2.08,0-4.17,.02-6.25,0-.37-.25-.9,.54-.95,.76-.05,1.1,.19,.92,1.29Z"/><path class="cls-7" d="M195.55,20.29c.81-.84,1.56-1.41,2.57-1.33,.32,.03,.9-.05,.76,.6-.09,.4-.07,.84-.7,.98-2.39,.51-2.61,.83-2.61,3.23,0,.89-.04,1.79,.01,2.68,.04,.69-.25,.81-.87,.81-.65,0-.71-.3-.7-.81,.02-2.08,0-4.17,.02-6.25,0-.4-.32-1,.58-1.06,.8-.06,1,.31,.94,1.15Z"/><path class="cls-7" d="M79.73,23.18c0-1.1,.01-2.19,0-3.29-.02-1.23,1.25-.75,1.29-.62,.44,1.41,.92,.19,1.31,.04,.47-.18,.92-.43,1.43-.37,.34,.04,.93-.04,.81,.58-.08,.42-.03,.92-.79,1.01-2.06,.23-2.49,.8-2.5,2.89,0,.95-.02,1.89,0,2.84,.02,.6,.03,1.03-.82,1.01-.78-.02-.74-.42-.74-.95,.01-1.05,0-2.09,0-3.14Z"/><path class="cls-5" d="M55.36,23.1c0-1.04,0-2.09,0-3.13,0-.32-.14-.77,.4-.79,.35,0,.94-.26,1.01,.27,.11,.87,.36,.59,.74,.21,.52-.5,1.17-.77,1.89-.73,.33,.02,.96-.04,.82,.55-.09,.37,.03,.94-.75,1.04-2.23,.29-2.53,.71-2.53,2.98,0,.94-.02,1.89,0,2.83,.02,.58-.06,.92-.79,.92-.69,0-.83-.27-.81-.88,.04-1.09,.01-2.18,.01-3.28Z"/><path class="cls-9" d="M72.54,64.31c-.19,.96-.93,1.73-1.51,2.57-.14,.2-.34-.03-.5-.12-.22-.14-.22-.31-.07-.48,.55-.6,.45-1.12-.03-1.75-.25-.33-.11-.86,.28-1.19,.34-.28,.72-.34,1.11-.17,.45,.19,.68,.55,.7,1.14Z"/><path class="cls-9" d="M115.01,65.12c-.23-.1-.56-.13-.67-.3-.33-.5-.33-1.04,.15-1.47,.42-.37,.91-.4,1.36-.05,.5,.38,.6,.89,.33,1.45-.1,.22-.2,.47-.36,.64-.47,.48-.56,1.69-1.34,1.39-.92-.35,.34-.87,.21-1.4l.33-.26Z"/><path class="cls-13" d="M247.39,26.3c-.08,.65-.45,1.02-1.17,.98-.65-.04-.97-.4-.99-1.04-.01-.73,.39-1.13,1.08-1.12,.68,.01,1.07,.43,1.08,1.18Z"/><path class="cls-13" d="M134.78,63.06c.73,.1,1.14,.42,1.12,1.15-.02,.64-.32,1.02-.98,1.04-.69,.02-1.13-.31-1.17-1.03-.03-.73,.43-1.03,1.02-1.16Z"/><path class="cls-17" d="M52.63,64.2c-.03,.62-.31,1.06-1.06,1.06-.64,0-1.04-.36-1.1-.96-.06-.67,.3-1.14,1-1.2,.7-.05,1.1,.33,1.16,1.1Z"/><path class="cls-17" d="M92.21,64.21c-.04,.62-.32,1.06-1.07,1.04-.64-.01-1.03-.37-1.08-.97-.06-.67,.32-1.14,1.02-1.18,.7-.04,1.09,.35,1.14,1.11Z"/><path class="cls-8" d="M15.92,9.6c5.71,0,10.48,4.75,10.49,10.43,0,5.78-4.76,10.51-10.57,10.5-5.68,0-10.42-4.79-10.41-10.51,0-5.68,4.78-10.42,10.5-10.42Z"/><path class="cls-16" d="M52.26,21.4c-.02,2.76-1.87,4.66-4.53,4.64-2.6-.02-4.51-2.04-4.48-4.74,.03-2.66,2.05-4.74,4.57-4.69,2.58,.04,4.45,2.07,4.43,4.79Z"/><path class="cls-10" d="M185.63,23.24c-.02-1.62,1.08-2.9,2.52-2.93,1.5-.04,2.59,1.12,2.63,2.79,.04,1.8-.98,2.99-2.55,3-1.46,0-2.58-1.23-2.6-2.85Z"/><path class="cls-10" d="M95.33,59.63c0-1.16,.18-2.28,.84-3.27,1.1-1.64,3.07-1.66,4.23-.07,1.24,1.69,1.22,4.97-.03,6.64-1.2,1.59-3.26,1.46-4.33-.3-.56-.92-.71-1.95-.72-3Z"/><path class="cls-10" d="M67.55,23.25c-.01,1.72-1.02,2.84-2.55,2.85-1.46,0-2.58-1.23-2.59-2.86-.02-1.68,1.17-2.98,2.67-2.93,1.47,.04,2.49,1.25,2.47,2.95Z"/><path class="cls-14" d="M62.25,61.39l3.31-4.86,.31,.09c0,1.37-.01,2.73,0,4.1,0,.52-.23,.69-.73,.68-.88-.02-1.76,0-2.9,0Z"/><path class="cls-18" d="M139.2,61.3l3.54-5.17v2.14q0,3.25-3.54,3.03Z"/><path class="cls-18" d="M105.95,61.38c1.21-1.77,2.25-3.29,3.29-4.81l.29,.06c0,1.36-.02,2.72,0,4.08,.01,.53-.2,.69-.7,.68-.85-.03-1.69,0-2.88,0Z"/><path class="cls-11" d="M76.74,22.21c-1.37,0-2.61-.01-3.84,0-.86,.01-.77-.4-.42-.91,.52-.76,1.26-1.06,2.18-.99,1.06,.08,1.73,.61,2.08,1.89Z"/><path class="cls-11" d="M132.92,22.21c.6-2.33,3.33-2.24,4.12-1.13,.2,.28,.48,.56,.31,.92-.15,.33-.52,.2-.79,.2-1.17,.01-2.35,0-3.65,0Z"/><path class="cls-4" d="M201.23,22.21c.4-1.17,1.02-1.78,2.07-1.88,.89-.09,1.69,.12,2.21,.91,.28,.41,.62,.95-.32,.97-1.27,.03-2.53,0-3.96,0Z"/><path class="cls-4" d="M224.36,22.21c.95-2.08,3.08-2.51,4.18-1.06,.18,.24,.37,.5,.28,.8-.11,.4-.49,.25-.75,.25-1.19,.02-2.37,0-3.71,0Z"/><path class="cls-4" d="M211.74,26.1c-.96,.01-1.81-.33-1.74-1.37,.08-1.23,1.19-1.55,2.21-1.5,.68,.04,1.75-.18,1.85,.96,.08,.9-1.2,1.88-2.32,1.9Z"/><path class="cls-4" d="M143.99,23.19c.56,.31,1.69-.15,1.72,1.06,.02,.93-1.25,1.85-2.37,1.85-.97,0-1.8-.38-1.69-1.41,.13-1.22,1.23-1.4,2.34-1.5Z"/><path class="cls-10" d="M107.72,23.23c0,1.67-1.06,2.84-2.58,2.87-1.56,.03-2.73-1.21-2.73-2.9,0-1.62,1.12-2.85,2.61-2.88,1.57-.03,2.7,1.2,2.7,2.92Z"/><path class="cls-10" d="M175.33,20.31c1.53-.04,2.75,1.26,2.75,2.91,0,1.58-1.15,2.84-2.62,2.88-1.52,.04-2.65-1.11-2.72-2.74-.07-1.68,1.06-3.01,2.58-3.04Z"/><path class="cls-3" d="M15.6,18.8c2.92,.17,4.53,1.92,4.17,4.3-.34,2.2-2.75,3.71-5.09,3.18-2.25-.51-3.59-3.08-2.75-5.45,.8-2.28,2.51-4.03,3.79-6.03,.45-.71,.85-.07,1.21,.18,.37,.25,.98,.4,.47,1.1-.61,.83-1.14,1.73-1.8,2.73Z"/><path class="cls-2" d="M16.1,24.27c-1.6,.02-2.14-.73-2.25-1.83-.09-.88,1.01-1.84,2-1.76,1.11,.09,1.75,.79,1.72,1.85-.03,1.06-.69,1.7-1.46,1.74Z"/></g></g></svg>