<?xml version="1.0" encoding="UTF-8"?><svg id="Layer_2" xmlns="http://www.w3.org/2000/svg" viewBox="0 0 585 86.1"><defs><style>.cls-1{fill:#090909;}.cls-2{fill:#2f528f;}.cls-3{fill:#fafafa;}.cls-4{fill:#f6f6f6;}.cls-5{fill:#040404;}.cls-6{fill:#020202;}.cls-7{fill:#030303;}.cls-8{fill:#4472c3;}.cls-9{fill:#080808;}.cls-10{fill:#fdfdfd;}.cls-11{fill:#fbfbfb;}.cls-12{fill:#fdfdfe;}.cls-13{fill:#070707;}.cls-14{fill:#010101;}.cls-15{fill:#fefefe;}.cls-16{fill:#060606;}.cls-17{fill:#fcfcfc;}</style></defs><g id="Layer_1-2"><g><path class="cls-15" d="M292.34,86.06c-96.98,0-193.96,0-290.94,.03-1.09,0-1.4-.19-1.4-1.35C.04,56.91,.04,29.08,0,1.26,0,.29,.12,0,1.2,0,195.41,.04,389.62,.04,583.83,0c1.14,0,1.16,.38,1.16,1.29-.02,27.78-.03,55.55,.01,83.33,0,1.15-.15,1.48-1.43,1.48-97.08-.04-194.16-.04-291.24-.04Z"/><path class="cls-2" d="M27.31,18.84c0,6.52-5.47,11.97-12.01,11.96-6.54,0-11.99-5.48-11.96-12,.02-6.45,5.46-11.86,11.94-11.88,6.55-.02,12.03,5.42,12.04,11.93Z"/><path class="cls-14" d="M53.23,20.72c.02,3.46-2.55,6.11-5.96,6.14-3.5,.03-6.16-2.61-6.17-6.1,0-3.46,2.57-6.11,5.97-6.14,3.53-.03,6.13,2.55,6.15,6.1Z"/><path class="cls-14" d="M133.86,25.78c-2.29,1.48-4.01,1.42-5.45-.12-1.45-1.55-1.58-4.05-.31-5.77,1.21-1.64,3.14-2.04,4.9-1.01,.4,.24,.8,.94,1.05-.16,.08-.33,.63-.18,.96-.13,.42,.07,.28,.46,.28,.73,0,2.54,.05,5.08-.02,7.61-.04,1.61-1.08,2.84-2.58,3.3-1.74,.53-3.68,.01-4.61-1.25-.21-.29-.68-.66-.15-.99,.39-.25,.87-.71,1.37,.04,.75,1.12,1.89,1.23,3.06,.84,1.08-.36,1.48-1.23,1.5-3.08Z"/><path class="cls-6" d="M110.02,22.45c0-1.04,.03-2.09,0-3.13-.04-1.2,1.22-.81,1.26-.67,.4,1.24,.9,.3,1.28,.09,1.01-.56,2.2-.74,2.94,.02,.95,.97,1.43,.55,2.31,0,1.9-1.18,4.07-.17,4.35,2.04,.22,1.71,.1,3.47,.15,5.2,.02,.57-.31,.6-.76,.64-.61,.04-.76-.21-.75-.77,.03-1.29,.03-2.59,0-3.88-.03-1.16-.21-2.25-1.73-2.28-1.14-.03-2.04,.87-2.13,2.23-.08,1.24-.06,2.49-.03,3.73,.02,.65-.08,1-.87,.99-.88-.02-.61-.61-.62-1.04-.03-1.24,0-2.49-.01-3.73-.01-1.13-.25-2.12-1.67-2.17-1.16-.05-2.1,.86-2.16,2.19-.06,1.29-.04,2.59,0,3.88,.02,.6-.08,.88-.8,.88-.75,0-.78-.36-.77-.92,.02-1.09,0-2.19,0-3.28Z"/><path class="cls-14" d="M192.22,58.94c-.08,1.65-.4,3.18-1.52,4.45-1.74,1.97-4.6,1.9-6.24-.15-1.76-2.2-1.78-6.31-.05-8.53,1.7-2.18,4.7-2.21,6.43-.06,1.02,1.26,1.29,2.76,1.38,4.3Z"/><path class="cls-14" d="M168.84,58.96c-.09,1.65-.41,3.18-1.53,4.44-1.75,1.97-4.6,1.89-6.24-.17-1.75-2.2-1.77-6.32-.03-8.53,1.7-2.17,4.71-2.19,6.43-.04,1.02,1.27,1.28,2.77,1.37,4.3Z"/><path class="cls-14" d="M94.6,58.8c-.01,1.68-.32,3.27-1.46,4.58-1.73,1.99-4.58,1.93-6.24-.12-1.79-2.21-1.84-6.29-.1-8.52,1.08-1.39,2.52-1.95,4.24-1.53,2.07,.5,2.9,2.12,3.39,3.97,.14,.52,.12,1.09,.17,1.63Z"/><path class="cls-6" d="M41.28,58.84c-.06-1.35,.26-2.73,1.12-3.96,1.68-2.41,4.99-2.42,6.71-.05,1.54,2.13,1.6,5.85,.12,8.04-1.79,2.64-5.21,2.61-6.96-.06-.77-1.17-1.01-2.47-.99-3.97Z"/><path class="cls-14" d="M66.89,19.47c0-1.42,.03-2.66-.01-3.89-.02-.6,.21-.74,.78-.75,.61,0,.75,.23,.74,.78-.02,3.42,0,6.85-.02,10.27,0,.26,.16,.66-.28,.71-.37,.04-.98,.22-1.07-.17-.18-.77-.36-.5-.8-.22-1.82,1.13-3.62,.84-4.93-.73-1.39-1.66-1.33-4.27,.12-5.88,1.36-1.51,3.15-1.68,4.96-.49,.12,.08,.22,.16,.51,.38Z"/><path class="cls-6" d="M67.29,57.86c1.68-.8,3.26-.78,4.62,.62,1.06,1.1,1.33,2.76,.66,4.15-.66,1.37-1.79,2.1-3.31,2.16-1.58,.07-2.81-.57-3.59-1.96-.25-.44-.69-.91,.18-1.32,.69-.32,.79,.07,1.05,.52,.82,1.37,2.22,1.75,3.43,.99,1.08-.67,1.41-2.2,.71-3.28-.71-1.1-2.17-1.4-3.41-.53-.59,.42-.96,.22-1.49,.04-.73-.25-.47-.79-.42-1.24,.15-1.33,.37-2.66,.52-3.99,.06-.53,.19-.8,.8-.78,1.45,.04,2.9,.04,4.34,0,.65-.02,.87,.21,.87,.86,0,.72-.47,.62-.91,.63-.35,0-.7,0-1.05,0q-3.01,0-3,3.12Z"/><path class="cls-14" d="M145.74,57.13c0,.84,.01,1.69,0,2.53-.01,.62-.07,1.22,.87,1.08,.46-.07,.59,.26,.57,.66-.01,.34,.07,.81-.45,.74-1.13-.16-.99,.56-1,1.26,0,.52,.29,1.2-.77,1.19-1.06,0-.8-.69-.75-1.2,.09-.96-.21-1.33-1.22-1.24-1.04,.09-2.09-.04-3.13,.03-1.19,.08-1.33-.59-.86-1.32,1.58-2.46,3.26-4.86,4.91-7.27,.39-.57,1.02-.37,1.51-.28,.55,.09,.29,.65,.3,1,.04,.94,.01,1.88,.01,2.83Z"/><path class="cls-14" d="M62.39,57.16c0,.69-.01,1.39,0,2.08,.01,.72-.33,1.66,1.04,1.54,.49-.04,.37,.48,.4,.8,.03,.35-.1,.63-.47,.57-1.17-.19-.96,.61-.97,1.27-.01,.55,.24,1.19-.8,1.16-1.07-.02-.77-.74-.72-1.22,.1-1-.28-1.29-1.24-1.21-1.04,.08-2.09-.04-3.13,.03-1.25,.09-1.26-.67-.83-1.34,1.55-2.42,3.22-4.76,4.81-7.15,.4-.6,.97-.44,1.48-.4,.7,.06,.4,.67,.42,1.05,.04,.94,.01,1.88,.01,2.83Z"/><path class="cls-6" d="M177.07,57.38c.49,.03,.78,.05,1.06,.07,2.17,.13,3.78,1.91,3.58,3.94-.21,2.12-2.33,3.73-4.48,3.39-2.13-.33-3.67-2.43-3.15-4.46,.69-2.67,2.68-4.61,4.06-6.89,.35-.58,.68,.03,.99,.16,.42,.18,.38,.45,.12,.8-.71,.94-1.38,1.9-2.17,2.99Z"/><path class="cls-6" d="M111.59,57.4c.39,.02,.68,.03,.97,.04,2.25,.09,3.97,1.9,3.73,3.93-.25,2.19-2.46,3.8-4.63,3.38-2.19-.43-3.6-2.59-2.95-4.69,.77-2.51,2.63-4.4,3.97-6.59,.35-.58,.67-.07,.98,.09,.38,.2,.43,.47,.15,.83-.74,.97-1.45,1.96-2.23,3Z"/><path class="cls-6" d="M105.51,58.7c1.42,.82,1.99,2.04,1.55,3.63-.41,1.45-1.52,2.2-2.93,2.43-1.59,.25-2.97-.24-3.88-1.65-.24-.37-.85-.82-.02-1.31,.68-.4,.92-.12,1.24,.47,.43,.81,1.18,1.2,2.12,1.09,1.17-.13,2-.67,2.02-1.95,.02-1.21-.76-1.75-1.85-1.96-.19-.04-.4-.03-.6-.02-.51,.03-.85-.06-.86-.71-.01-.62,.25-.74,.8-.74,1.02,0,1.9-.34,2.13-1.46,.17-.81-.14-1.48-.95-1.81-1.04-.42-2.02-.32-2.62,.69-.47,.8-.97,.35-1.34,.1-.58-.39-.05-.79,.19-1.11,1.16-1.53,3.71-1.76,5.23-.5,1.47,1.22,1.4,2.92-.24,4.82Z"/><path class="cls-6" d="M170.41,22.87c-.75,0-1.5,.04-2.24,0-.99-.06-.93,.41-.64,1.09,.7,1.62,2.8,2.12,4.08,.84,.59-.58,1.1-.76,1.58-.2,.49,.58-.23,.94-.58,1.26-1.44,1.31-3.71,1.38-5.23,.21-1.68-1.3-2.12-3.85-1.01-5.79,.95-1.67,2.88-2.37,4.77-1.74,1.46,.49,2.44,1.93,2.52,3.52,.04,.72-.24,.84-.85,.82-.8-.03-1.59,0-2.39,0Z"/><path class="cls-6" d="M147.39,22.87c-.65,0-1.3-.02-1.94,0-.38,.02-.88-.22-1.1,.17-.28,.49,.09,.96,.36,1.36,.89,1.3,2.72,1.51,3.88,.32,.56-.58,1.03-.64,1.48-.17,.56,.59-.15,.94-.49,1.26-1.42,1.33-3.69,1.44-5.22,.29-1.7-1.27-2.18-3.8-1.1-5.77,.93-1.69,2.83-2.41,4.73-1.81,1.53,.49,2.59,2.03,2.59,3.62,0,.64-.26,.75-.79,.73-.8-.02-1.59,0-2.39,0Z"/><path class="cls-6" d="M74.39,22.87c-.6,0-1.2-.04-1.79,.01-.4,.04-.98-.3-1.17,.28-.14,.44,.15,.87,.41,1.23,.9,1.3,2.73,1.52,3.88,.33,.55-.57,1.01-.66,1.47-.18,.57,.59-.14,.94-.48,1.26-1.41,1.33-3.69,1.44-5.22,.3-1.66-1.23-2.17-3.68-1.18-5.64,.9-1.78,2.84-2.56,4.8-1.95,1.53,.48,2.59,2.02,2.59,3.62,0,.63-.25,.75-.79,.74-.85-.02-1.69,0-2.54,0Z"/><path class="cls-6" d="M218.35,22.87c-.75,0-1.5,.04-2.24,0-.97-.06-.96,.42-.69,1.1,.66,1.61,2.81,2.1,4.09,.82,.6-.6,1.12-.72,1.59-.18,.52,.6-.26,.93-.6,1.24-1.45,1.35-3.82,1.4-5.34,.15-1.6-1.31-1.98-3.97-.82-5.84,1.02-1.66,3.12-2.31,4.97-1.53,1.28,.54,2.28,2.16,2.28,3.58,0,.55-.2,.69-.69,.67-.85-.02-1.69,0-2.54,0Z"/><path class="cls-6" d="M228.09,21.8c-.11-1.91-1.77-2.84-3.21-1.74-.91,.69-1.37,.36-1.99-.17,1.15-1.47,2.78-1.95,4.61-1.36,1.44,.47,2.15,1.59,2.18,3.51,.02,1.24,.02,2.48,0,3.73-.01,.74-1.13,1.28-1.29,.77-.42-1.32-.84-.3-1.19-.1-1.22,.67-2.41,.59-3.52-.16-.99-.67-1.44-1.68-1.08-2.86,.39-1.3,1.44-1.82,2.72-1.96,.94-.1,1.85-.01,2.77,.34Z"/><path class="cls-6" d="M158.68,23.6c0,.75-.03,1.49,0,2.24,.06,1.18-1.17,.88-1.24,.69-.44-1.18-.83-.29-1.26-.07-1.22,.63-2.43,.58-3.52-.22-.9-.66-1.36-1.58-1.05-2.73,.38-1.43,1.47-1.89,2.8-2.06,.71-.09,1.42-.06,2.08,.15,.99,.31,.75-.3,.59-.74-.43-1.17-2.17-1.64-3.3-.74-.77,.61-1.35,.43-1.68-.17-.32-.58,.44-.87,.87-1.12,2.73-1.59,5.65,.01,5.72,3.12,.01,.55,0,1.09,0,1.64Z"/><path class="cls-6" d="M205.75,22.56c.01,2.53-1.69,4.3-4.13,4.31-2.45,0-4.16-1.78-4.15-4.3,.02-2.44,1.7-4.2,4.07-4.25,2.42-.05,4.19,1.75,4.21,4.24Z"/><path class="cls-6" d="M108.61,22.68c-.03,2.5-1.8,4.24-4.25,4.18-2.37-.05-4.02-1.81-4.02-4.28,0-2.5,1.76-4.29,4.19-4.27,2.41,.02,4.11,1.84,4.08,4.37Z"/><path class="cls-6" d="M234.17,26.88c-.99-.03-2.01-.38-2.73-1.31-.22-.29-.86-.62-.3-1.06,.4-.32,.92-.64,1.38,.08,.59,.92,1.53,1.04,2.53,.83,.45-.1,.85-.35,.92-.86,.08-.54-.28-.85-.72-1.01-.84-.3-1.72-.5-2.56-.8-.97-.34-1.64-.97-1.59-2.08,.04-1.14,.73-1.8,1.77-2.14,1.44-.46,2.77-.25,3.92,.74,.27,.23,.73,.61,.33,.96-.29,.26-.79,.73-1.29,.15-.63-.74-1.47-.79-2.33-.59-.45,.1-.84,.35-.84,.91,0,.48,.36,.69,.75,.82,.57,.18,1.16,.3,1.73,.47,1.8,.52,2.56,1.41,2.37,2.74-.19,1.26-1.53,2.17-3.33,2.17Z"/><path class="cls-7" d="M177.7,26.87c-.95-.06-1.99-.45-2.69-1.48-.18-.26-.69-.59-.09-.93,.4-.23,.82-.62,1.25,.05,.54,.84,1.37,1.1,2.34,.95,.57-.09,1.09-.27,1.15-.96,.05-.61-.42-.89-.88-1.06-.79-.28-1.63-.43-2.42-.72-.96-.35-1.62-.99-1.55-2.1,.07-1.14,.78-1.77,1.82-2.1,1.44-.45,2.76-.23,3.9,.76,.26,.23,.74,.61,.33,.95-.29,.24-.81,.73-1.3,.16-.59-.69-1.35-.79-2.17-.65-.51,.09-.98,.32-1.02,.91-.03,.55,.42,.75,.86,.89,.52,.17,1.06,.27,1.59,.41,1.8,.51,2.57,1.38,2.41,2.7-.17,1.32-1.53,2.25-3.5,2.22Z"/><path class="cls-14" d="M89.68,23.29c0-.74-.01-1.49,0-2.23,.01-.62,.08-1.23-.88-1.07-.57,.09-.62-.28-.64-.73-.02-.48,.1-.8,.65-.69,.99,.19,.83-.5,.89-1.08,.18-1.88,1.3-2.91,3-2.74,.39,.04,.98-.07,.96,.6-.02,.55-.22,.93-.92,.84-.9-.12-1.4,.36-1.51,1.24-.09,.73-.01,1.25,.97,1.15,.43-.04,1.13-.37,1.15,.63,.02,1.03-.68,.8-1.22,.77-.74-.05-.94,.24-.92,.94,.04,1.59,.01,3.17,.02,4.76,0,.5,.09,.95-.71,.97-.81,.02-.88-.35-.85-.98,.04-.79,0-1.59,0-2.38Z"/><path class="cls-7" d="M187.1,26.5c-2.65,.58-3.62-.17-3.63-2.75,0-.75,.02-1.49,0-2.24-.02-.72,.35-1.69-1.04-1.55-.53,.05-.37-.47-.4-.79-.02-.3-.03-.68,.4-.61,1.27,.2,1.03-.67,1.05-1.39,0-.5-.21-1.1,.73-1.09,.9,.01,.82,.58,.74,1.1-.16,1.09,.2,1.58,1.35,1.37,.53-.1,.68,.2,.66,.69-.02,.47-.14,.83-.67,.73-1.39-.27-1.39,.58-1.33,1.54,.04,.74,0,1.49,.01,2.23,.01,.86,.16,1.61,1.29,1.59,.84-.01,.61,.72,.85,1.15Z"/><path class="cls-7" d="M161.28,22.63c0-.55-.02-1.09,0-1.64,.03-.6,0-1.12-.83-1.01-.57,.08-.65-.29-.63-.74,.01-.34-.05-.77,.49-.69,1.18,.17,.92-.65,.98-1.3,.04-.45-.35-1.13,.65-1.16,.99-.03,.9,.6,.82,1.17-.14,1.03,.21,1.47,1.27,1.29,.45-.08,.76,.04,.74,.62-.02,.53-.14,.92-.75,.81-1.34-.26-1.3,.57-1.25,1.47,.04,.74,0,1.49,.01,2.23,.01,.91,.13,1.73,1.36,1.66,.67-.04,.64,.59,.69,.95,.08,.54-.49,.35-.77,.39-1.69,.24-2.7-.59-2.78-2.26-.03-.59,0-1.19,0-1.79Z"/><path class="cls-14" d="M243.35,26.5c-2.62,.57-3.57-.17-3.59-2.77,0-.84-.01-1.69,0-2.53,.01-.66,.11-1.34-.93-1.22-.52,.06-.48-.38-.48-.73,0-.35-.05-.76,.49-.69,1.22,.15,.88-.73,.92-1.35,.04-.5-.21-1.11,.73-1.11,.94,0,.78,.62,.71,1.11-.16,1.14,.28,1.55,1.39,1.35,.54-.09,.67,.21,.65,.69-.02,.45-.1,.83-.65,.73-1.5-.27-1.43,.68-1.38,1.67,.04,.74-.02,1.49,.03,2.23,.05,.78,.24,1.51,1.27,1.47,.88-.03,.64,.7,.83,1.15Z"/><path class="cls-14" d="M196.58,26.51c-2.67,.54-3.58-.18-3.59-2.81,0-.79,0-1.59,0-2.38,0-.66,.23-1.47-.95-1.35-.52,.05-.46-.41-.46-.75,0-.28-.08-.71,.36-.65,1.26,.18,1.05-.67,1.05-1.4,0-.52-.17-1.1,.75-1.08,.95,.02,.73,.66,.69,1.13-.1,.99,.16,1.52,1.27,1.33,.55-.1,.8,.1,.78,.72-.02,.62-.3,.8-.83,.71-1.03-.17-1.3,.3-1.22,1.25,.07,.84-.02,1.69,.03,2.53,.05,.81,.16,1.62,1.3,1.6,.84-.02,.63,.7,.81,1.16Z"/><path class="cls-14" d="M132.98,58.97c0,1.49,.01,2.99,0,4.48,0,.48,.27,1.11-.69,1.13-.92,.02-.76-.55-.76-1.08,0-2.34-.03-4.68,.01-7.02,.02-.96-.09-1.47-1.18-.84-.46,.27-1,.75-1.39-.18-.36-.86,.37-.87,.79-1.08q3.22-1.58,3.22,2.04c0,.85,0,1.69,0,2.54Z"/><path d="M210.76,20.64c0-1.63,.01-3.27,0-4.9,0-.56,.04-.92,.77-.92,.72,0,.79,.31,.79,.89-.02,3.37-.03,6.73,0,10.1,0,.66-.2,.83-.84,.83-.63,0-.73-.27-.72-.8,.02-1.73,0-3.47,0-5.2Z"/><path class="cls-7" d="M96.24,19.82c.84-1.02,1.55-1.46,2.44-1.49,.37-.01,1-.11,.95,.57-.04,.44-.05,.92-.8,1.02-2.03,.26-2.5,.88-2.5,2.89,0,.94-.02,1.88,0,2.83,.01,.59,.04,1.03-.82,1.01-.77-.02-.74-.4-.74-.93,.01-2.08,0-4.16,.01-6.25,0-.38-.24-.89,.54-.94,.77-.05,1.08,.21,.92,1.29Z"/><path class="cls-7" d="M79.14,22.58c0-1.09,.02-2.19,0-3.28-.02-1.2,1.23-.79,1.27-.65,.42,1.45,.92,.2,1.31,.06,.47-.18,.92-.43,1.42-.38,.34,.04,.93-.04,.83,.56-.07,.42-.02,.93-.77,1.02-2.09,.26-2.51,.8-2.52,2.87,0,1-.03,1.99,.01,2.98,.03,.62-.12,.87-.81,.87-.76,0-.77-.39-.75-.93,.02-1.04,0-2.09,0-3.13Z"/><path class="cls-5" d="M137.21,22.57c0-1.09,0-2.18,0-3.27,0-.28-.09-.66,.32-.7,.33-.04,.96,0,.97,.08,.22,1.37,.74,.4,1.14,.15,.47-.3,.98-.52,1.53-.49,.35,.02,.95-.02,.89,.48-.05,.41,.06,1.04-.83,1.11-1.99,.15-2.44,.75-2.46,2.75,0,1.04-.04,2.08,.01,3.12,.03,.66-.23,.84-.86,.84-.61,0-.75-.25-.74-.8,.03-1.09,0-2.18,0-3.27Z"/><path class="cls-5" d="M54.76,22.47c0-1.04,0-2.08,0-3.12,0-.32-.12-.75,.42-.78,.33-.02,.91-.15,.96,.16,.2,1.5,.7,.28,1.01,.12,.53-.29,1.07-.58,1.68-.51,.33,.04,.96-.04,.8,.56-.1,.36,.02,.93-.77,1.02-2.14,.25-2.51,.74-2.51,2.85,0,.99-.03,1.98,0,2.98,.02,.6-.1,.9-.8,.9-.71,0-.81-.31-.79-.9,.03-1.09,0-2.18,0-3.27Z"/><path class="cls-9" d="M118.92,62.42c.71,.11,1.15,.54,1.02,1.3-.16,.95-.89,1.61-1.38,2.4-.12,.19-.29,.2-.49,.06-.33-.23-.28-.49-.07-.74,.39-.47,.41-.78-.04-1.34-.56-.7,.07-1.68,.95-1.67Z"/><path class="cls-13" d="M149.27,66.4c-.28-.3-.69-.42-.45-.67,.68-.73,.33-1.32-.06-2.02-.19-.33,.02-.76,.37-1.04,.34-.27,.72-.33,1.11-.17,.69,.29,.78,.89,.58,1.48-.31,.92-.94,1.64-1.55,2.41Z"/><path class="cls-1" d="M75.2,66.35c-.33-.2-.83-.3-.56-.61,.63-.75,.28-1.33-.04-2.04-.21-.46,.07-.98,.61-1.19,.45-.18,.88-.11,1.22,.27,.37,.42,.43,.89,.15,1.36-.44,.75-.92,1.47-1.37,2.21Z"/><path class="cls-13" d="M245.94,26.67c-.87,0-1.29-.31-1.31-1.05-.02-.73,.39-1.12,1.07-1.12,.6,0,1.02,.34,1.07,.99,.06,.72-.33,1.08-.84,1.18Z"/><path class="cls-13" d="M54.01,63.62c-.08,.65-.45,1.02-1.17,.98-.65-.04-.97-.4-.99-1.04-.01-.73,.39-1.12,1.07-1.11,.68,0,1.07,.43,1.08,1.18Z"/><path class="cls-13" d="M136.26,62.42c.66,.1,1.11,.42,1.09,1.14-.02,.71-.42,1.07-1.14,1.04-.65-.03-.98-.37-1.01-1.02-.03-.73,.38-1.06,1.06-1.16Z"/><path class="cls-13" d="M172.47,63.3c.02,.88-.29,1.31-1.04,1.3-.7,0-1.11-.37-1.11-1.08,0-.64,.38-1.01,.99-1.07,.7-.06,1.09,.32,1.15,.85Z"/><path class="cls-16" d="M97.04,64.6c-.59-.07-.93-.47-.89-1.17,.04-.64,.42-.99,1.05-.99,.71,0,1.11,.43,1.1,1.11-.01,.67-.41,1.07-1.26,1.05Z"/><path class="cls-8" d="M15.21,29.31c-5.67-.01-10.39-4.8-10.39-10.52,0-5.74,4.81-10.41,10.67-10.38,5.65,.02,10.33,4.84,10.31,10.6-.02,5.64-4.84,10.32-10.6,10.31Z"/><path class="cls-15" d="M51.66,20.68c.01,2.77-1.81,4.72-4.42,4.74-2.63,.02-4.56-1.93-4.59-4.63-.02-2.67,1.92-4.76,4.47-4.79,2.56-.04,4.53,1.99,4.54,4.68Z"/><path class="cls-10" d="M131.37,25.48c-1.45,.02-2.61-1.21-2.65-2.82-.04-1.57,1.1-2.92,2.51-2.97,1.52-.06,2.7,1.22,2.7,2.91,0,1.66-1.07,2.86-2.55,2.88Z"/><path class="cls-10" d="M190.68,58.78c-.03,1.18-.2,2.25-.79,3.21-1.11,1.82-3.19,1.89-4.4,.15-1.13-1.64-1.1-4.91,.08-6.51,1.12-1.53,3.01-1.54,4.15-.01,.71,.96,.87,2.08,.96,3.16Z"/><path class="cls-10" d="M161.28,58.95c0-1.16,.19-2.28,.87-3.26,1.08-1.56,2.99-1.62,4.15-.13,1.31,1.68,1.31,5.06,.01,6.75-1.11,1.44-2.94,1.45-4.07,0-.62-.79-.96-1.97-.96-3.37Z"/><path class="cls-10" d="M93.03,58.98c.02,1.22-.2,2.38-.98,3.36-1.14,1.43-2.97,1.4-4.06-.06-1.23-1.65-1.24-4.97-.02-6.63,1.16-1.59,3.12-1.56,4.24,.07,.68,.98,.85,2.1,.82,3.26Z"/><path class="cls-15" d="M48.78,58.88c-.07,1.26-.22,2.49-1.06,3.51-1.13,1.37-2.86,1.35-3.96-.04-1.28-1.61-1.31-5.08-.06-6.74,1.14-1.51,3.02-1.49,4.15,.04,.71,.97,.83,2.1,.92,3.23Z"/><path class="cls-10" d="M66.95,22.67c-.02,1.71-1.05,2.83-2.58,2.82-1.45-.01-2.56-1.26-2.57-2.88,0-1.68,1.19-2.97,2.7-2.9,1.47,.06,2.47,1.28,2.45,2.97Z"/><path class="cls-4" d="M144.2,55.97v1.63q0,3.25-3.58,3.07c1.15-1.69,2.22-3.27,3.3-4.84l.29,.14Z"/><path class="cls-4" d="M60.85,55.97c0,.54,0,1.09,0,1.63q0,3.25-3.58,3.07l3.3-4.84,.29,.14Z"/><path class="cls-11" d="M180.17,61.07c0,1.29-.94,2.25-2.24,2.29-1.36,.04-2.44-.96-2.46-2.26-.02-1.23,1.12-2.29,2.44-2.28,1.29,.01,2.26,.98,2.26,2.25Z"/><path class="cls-17" d="M114.73,61.11c-.02,1.35-1.04,2.3-2.42,2.25-1.28-.05-2.26-1.04-2.25-2.3,0-1.27,1.11-2.28,2.45-2.24,1.31,.04,2.23,.99,2.22,2.29Z"/><path class="cls-11" d="M169.66,21.6c-.25,0-.5,.04-.74,0-.44-.09-1.13,.33-1.29-.29-.14-.55,.41-.96,.87-1.26,.96-.61,2.43-.4,3.1,.46,.21,.26,.5,.56,.34,.91-.14,.32-.52,.17-.8,.18-.49,.02-.99,0-1.49,0Z"/><path class="cls-11" d="M148.98,21.6c-1.35,0-2.58-.02-3.8,0-.81,.01-.84-.34-.46-.89,.56-.82,1.34-1.12,2.32-.99,1.04,.14,1.68,.68,1.95,1.87Z"/><path class="cls-11" d="M76.16,21.6c-1.38,0-2.6,0-3.83,0-.23,0-.53,.09-.65-.19-.14-.32,.08-.56,.26-.8,.6-.8,1.42-1.01,2.37-.86,.99,.16,1.53,.75,1.84,1.86Z"/><path class="cls-11" d="M217.6,21.6c-.3,0-.6,.03-.89,0-.42-.05-1.06,.24-1.2-.21-.17-.54,.37-.96,.8-1.29,.65-.49,1.4-.49,2.13-.3,.7,.19,1.42,.65,1.35,1.38-.08,.87-.96,.24-1.45,.41-.22,.07-.49,.01-.74,.01Z"/><path class="cls-3" d="M226.03,25.48c-1.13,.03-1.82-.3-1.97-1.25-.13-.86,1.03-1.75,2.26-1.62,.68,.07,1.76-.17,1.82,1,.05,.92-1.22,1.86-2.12,1.87Z"/><path class="cls-17" d="M154.82,25.48c-.96,0-1.77-.37-1.7-1.4,.1-1.25,1.22-1.51,2.22-1.46,.66,.03,1.74-.18,1.8,1,.05,.92-1.2,1.86-2.33,1.87Z"/><path class="cls-10" d="M204.26,22.6c0,1.73-1.11,2.92-2.71,2.88-1.49-.04-2.59-1.26-2.6-2.88,0-1.62,1.11-2.86,2.6-2.89,1.57-.04,2.71,1.18,2.71,2.9Z"/><path class="cls-10" d="M107.12,22.59c0,1.73-1.11,2.92-2.7,2.89-1.49-.03-2.59-1.24-2.6-2.87-.01-1.68,1.18-2.95,2.73-2.91,1.5,.04,2.57,1.24,2.58,2.89Z"/><path class="cls-12" d="M17.71,15.84c-1.29,0-2.42,.01-3.56,0-.74-.01-1.59,.31-1.57-1.07,.02-1.3,.81-.98,1.49-.98,1.55-.02,3.1,0,4.64,0,1.62,0,2.27,.82,1.51,2.29-1.54,2.99-3.27,5.89-4.91,8.83-.43,.77-.92,.26-1.36,.03-.5-.27-.87-.51-.45-1.25,1.27-2.18,2.44-4.42,3.65-6.64,.18-.34,.32-.7,.55-1.19Z"/></g></g></svg>