<?xml version="1.0" encoding="UTF-8"?><svg id="Layer_2" xmlns="http://www.w3.org/2000/svg" viewBox="0 0 643.43 114.8"><defs><style>.cls-1{fill:#2f528f;}.cls-2{fill:#f5f5f5;}.cls-3{fill:#040404;}.cls-4{fill:#020202;}.cls-5{fill:#4472c3;}.cls-6{fill:#fdfdfd;}.cls-7{fill:#fbfbfb;}.cls-8{fill:#f9f9f9;}.cls-9{fill:#050505;}.cls-10{fill:#f7f7f7;}.cls-11{fill:#f3f3f3;}.cls-12{fill:#070707;}.cls-13{fill:#f8f8f8;}.cls-14{fill:#f2f2f2;}.cls-15{fill:#010101;}.cls-16{fill:#fefefe;}.cls-17{fill:#060606;}.cls-18{fill:#fcfcfc;}</style></defs><g id="Layer_1-2"><g><path class="cls-5" d="M53.62,112c2.93-.99,5.47-1.83,8-2.7,.88-.3,1.12,.09,1,.84-.2,1.27,.43,1.44,1.53,1.44,121.32-.02,242.64-.02,363.96,0,1.19,0,1.79-.22,1.59-1.52-.08-.54,0-1.03,.8-.75,2.54,.87,5.09,1.71,8.02,2.69-2.96,.99-5.57,1.85-8.16,2.73-.63,.21-.73-.18-.66-.61,.29-1.61-.59-1.69-1.88-1.69-32.28,.03-64.56,.02-96.84,.02-88.79,0-177.59,0-266.38-.01-1.23,0-2.34-.11-2.01,1.71,.14,.78-.37,.72-.95,.52-2.54-.87-5.1-1.7-8.04-2.67Z"/><path class="cls-1" d="M28.32,77.06c-6.54,0-11.99-5.49-11.97-12.04,.02-6.53,5.52-11.97,12.08-11.94,6.47,.03,11.89,5.49,11.9,11.97,0,6.55-5.46,12.02-12,12.01Z"/><path class="cls-15" d="M270.2,11.02c-2.3,1.43-4.21,1.19-5.51-.6-1.29-1.77-1.03-4.41,.57-5.87,.78-.71,1.72-1.13,2.74-.92,1.17,.25,2.24,.93,3.53,.3,.58-.29,.82,.19,.81,.82-.03,2.35,.06,4.7-.05,7.04-.08,1.81-.88,3.28-2.77,3.86-1.82,.56-3.46,.25-4.79-1.19-.27-.29-.88-.74-.36-1.07,.52-.33,1.25-1.11,1.93-.35,.83,.92,1.76,1.17,2.8,.64,1.01-.51,1.23-1.49,1.09-2.67Z"/><path d="M194.14,7.95c0-1-.03-2,.02-2.99,.02-.37-.31-1.02,.42-1.03,.53,0,1.35-.39,1.55,.32,.25,.86,.44,.3,.72,.11,1.63-1.1,2.57-1.11,4,.17,.46,.41,.59,.26,.91-.04,1.06-.99,2.28-1.2,3.59-.59,1.27,.59,1.51,1.75,1.51,3.01,0,1.4-.06,2.8,.02,4.19,.05,.92-.44,.91-1.09,.9-.64,0-1.17,.05-1.11-.89,.08-1.29,.01-2.59,.02-3.89,0-.83-.2-1.5-1.18-1.57-.96-.07-1.52,.49-1.74,1.32-.32,1.22-.11,2.48-.12,3.72,0,.79,.07,1.34-1.11,1.36-1.27,.01-1.05-.68-1.05-1.41,0-1.15,.04-2.3-.02-3.44-.04-.79-.32-1.48-1.28-1.55-.88-.06-1.39,.39-1.67,1.19-.44,1.27-.2,2.57-.22,3.86-.01,.81,.04,1.33-1.12,1.35-1.29,.02-1.04-.7-1.04-1.41,0-.9,0-1.8,0-2.69Z"/><path d="M22.03,7.82c0-1-.02-2,.01-2.99,.01-.33-.26-.92,.4-.9,.54,.02,1.35-.38,1.57,.31,.24,.77,.38,.38,.72,.15,1.64-1.12,2.59-1.13,4,.14,.43,.38,.57,.31,.91,0,1.05-1,2.27-1.22,3.58-.61,1.34,.62,1.54,1.85,1.53,3.15,0,1.25-.03,2.49,.01,3.74,.03,.79,0,1.28-1.07,1.25-.95-.02-1.2-.3-1.13-1.2,.08-1.14,.01-2.29,.02-3.44,0-.85-.07-1.65-1.16-1.74-1.12-.09-1.7,.63-1.82,1.59-.14,1.18-.11,2.39-.06,3.58,.03,.83-.08,1.22-1.09,1.22-1.02,0-1.13-.4-1.09-1.23,.06-1.09,.03-2.19,0-3.29-.02-.89-.14-1.75-1.27-1.87-1.14-.11-1.68,.63-1.79,1.6-.14,1.23-.17,2.49-.12,3.72,.04,.91-.32,1.03-1.11,1.04-.83,.01-1.14-.21-1.08-1.07,.08-1.04,.02-2.09,.02-3.14Z"/><path class="cls-15" d="M470.15,7.88c0-.95-.04-1.9,.02-2.85,.02-.38-.33-1.07,.37-1.08,.51,0,1.3-.57,1.6,.45,.19,.64,.45,.15,.69,0,1.68-1.13,2.51-1.14,3.99,.12,.4,.33,.55,.38,.92,0,1.03-1.01,2.27-1.23,3.58-.62,1.33,.61,1.56,1.83,1.56,3.14,0,1.25-.03,2.5,0,3.75,.03,.78,.02,1.27-1.05,1.25-.97-.02-1.17-.32-1.12-1.2,.07-1.14,.02-2.3,.02-3.44,0-.86-.13-1.64-1.2-1.74-1.03-.09-1.56,.5-1.78,1.43-.29,1.23-.14,2.49-.12,3.73,.02,.86-.13,1.21-1.12,1.21-1.03,0-1.13-.43-1.09-1.25,.05-1.15,.02-2.3,.01-3.45,0-.87-.22-1.61-1.27-1.69-1.06-.08-1.62,.6-1.72,1.5-.15,1.28-.17,2.59-.09,3.89,.06,1.03-.52,.93-1.2,.97-.77,.04-1.06-.19-1.01-.99,.07-1.04,.02-2.1,.02-3.15Z"/><path class="cls-15" d="M161.03,27.63c0-1-.02-2,.01-3,.01-.34-.23-.92,.42-.91,.5,0,1.29-.36,1.47,.24,.23,.81,.39,.51,.81,.21,1.59-1.13,2.43-1.11,3.98,.17,.44,.36,.59,.26,.93-.06,1.05-1,2.29-1.19,3.59-.57,1.25,.6,1.51,1.76,1.51,3.02,0,1.4-.07,2.8,.02,4.19,.07,1.01-.52,.84-1.11,.87-.67,.04-1.14,0-1.08-.91,.08-1.24,.02-2.5,.02-3.74,0-.8-.13-1.54-1.1-1.68-1.02-.15-1.62,.38-1.86,1.32-.34,1.33-.16,2.69-.14,4.03,0,.8-.24,1.04-1.02,.99-.68-.04-1.28,.07-1.2-.97,.09-1.24,.03-2.5,.02-3.74,0-.88-.27-1.6-1.31-1.65-1.06-.05-1.59,.65-1.69,1.54-.14,1.23-.14,2.49-.09,3.74,.04,.86-.25,1.1-1.09,1.09-.78-.01-1.19-.13-1.12-1.04,.08-1.04,.02-2.1,.02-3.14Z"/><path d="M32.78,27.73c0-1-.02-2,.01-3,.01-.35-.26-.89,.3-1,.47-.1,1.37-.12,1.42,.04,.47,1.39,.92,.29,1.37,.05,1.23-.66,2.43-.65,3.44,.35,.43,.43,.61,.61,1.11,.1,.98-.99,2.19-1.15,3.45-.6,1.27,.56,1.59,1.68,1.58,2.97-.01,1.4-.07,2.8,.02,4.19,.07,1.02-.47,.95-1.17,.98-.75,.03-1.07-.15-1.01-.98,.07-1.19,0-2.4,.02-3.6,.01-.93-.12-1.76-1.29-1.79-1.12-.03-1.64,.71-1.72,1.69-.1,1.19-.1,2.4-.04,3.59,.05,.87-.26,1.09-1.1,1.08-.79-.01-1.17-.15-1.11-1.05,.08-1.19,.05-2.4,0-3.59-.03-.83-.2-1.63-1.26-1.73-1.06-.1-1.64,.57-1.76,1.46-.16,1.28-.18,2.59-.11,3.88,.05,.93-.35,1.01-1.12,1.03-.86,.02-1.12-.25-1.06-1.09,.07-.99,.02-2,.02-3Z"/><path class="cls-15" d="M358.14,4.56c0,1.05,.04,2.1-.01,3.14-.14,2.69-1.86,4.48-4.37,4.59-2.63,.11-4.43-1.35-4.7-4.14-.22-2.37-.12-4.78-.15-7.17-.02-1.08,.81-.58,1.3-.67,.61-.11,1.02,.02,1,.83-.05,2.04-.03,4.09-.01,6.14,.02,1.88,.81,2.87,2.26,2.91,1.57,.04,2.42-.94,2.45-2.89,.03-2,.06-3.99-.02-5.99-.03-.91,.33-1.06,1.12-1.04,.72,.02,1.24,0,1.15,.99-.1,1.09-.02,2.19-.02,3.29Z"/><path class="cls-15" d="M38.65,11.19c0,1.25-.05,2.29,.02,3.33,.06,.83-.17,1.11-1.05,1.11-.92,0-1.18-.25-1.16-1.18,.06-3.14,.02-6.29,.03-9.44,0-.36-.24-.92,.26-1.05,.55-.14,1.5-.34,1.67,.09,.38,.94,.65,.31,.97,.1,1.05-.72,2.16-.73,3.27-.21,1.67,.79,2.39,2.26,2.39,4.01,0,1.75-.72,3.21-2.4,4-1.41,.66-2.71,.39-3.98-.77Z"/><path class="cls-15" d="M566.36,11.34c0,1.05-.02,2,0,2.94,.02,.79,.1,1.38-1.1,1.37-1.22,0-1.08-.64-1.08-1.41,.01-3.05,0-6.09,.02-9.14,0-.39-.32-1.02,.31-1.15,.54-.11,1.21-.29,1.69,.15,.2,.18,.05,.75,.59,.29,1.34-1.15,2.77-1.05,4.13-.12,1.45,.99,1.95,2.49,1.8,4.18-.22,2.57-2.97,5.3-6.37,2.87Z"/><path class="cls-15" d="M114.51,31.17c0,1.12-.05,2.25,.02,3.37,.05,.81-.36,.91-.99,.84-.53-.06-1.23,.27-1.22-.78,.04-3.39,.01-6.79,.02-10.18,0-.28-.08-.68,.34-.69,.57-.01,1.26-.31,1.67,.19,.22,.26,.08,.58,.61,.27,2.04-1.17,3.79-.89,5,.7,1.31,1.72,1.21,4.38-.22,5.95-1.39,1.52-3.09,1.62-5.07,.3-.03-.02-.09,.02-.16,.03Z"/><path d="M6.4,24.32c0-1.22,.07-2.26-.02-3.28-.09-1.02,.48-.94,1.17-.97,.75-.03,1.03,.15,1.01,.97-.05,3.24-.01,6.47-.03,9.71,0,.34,.28,.9-.29,1-.52,.09-1.52,.09-1.56-.07-.26-1.01-.58-.48-1.01-.17-.91,.68-1.91,.73-2.97,.34-2.31-.86-3.37-3.71-2.26-6.11,1.06-2.3,3.35-2.93,5.95-1.42Z"/><path d="M421.16,11.43c0,1.06-.02,1.96,0,2.86,.02,.79,.09,1.35-1.1,1.37-1.26,.01-1.06-.67-1.06-1.4,0-3.04,0-6.08,0-9.12,0-1.1,1.27-1.92,1.82-1.14,.67,.96,.84,.25,1.26,.03,.49-.26,1-.43,1.57-.42,1.58,.02,2.99,1.06,3.59,2.69,.65,1.78,.15,3.98-1.16,5.08-1.34,1.14-2.74,1.21-4.39,.25-.12-.07-.26-.09-.54-.19Z"/><path d="M124.32,31.27c0,1.02-.06,2.01,.02,2.98,.07,.9-.17,1.2-1.13,1.18-.86-.02-1.06-.28-1.05-1.1,.05-3.19,0-6.38,.03-9.57,0-.35-.25-.94,.27-1.01,.58-.07,1.27-.33,1.79,.22,.14,.15-.05,.74,.44,.3,1.5-1.32,3.05-1.12,4.47,.02,1.52,1.22,1.8,2.95,1.37,4.75-.66,2.74-3.14,3.64-6.21,2.23Z"/><path class="cls-15" d="M167.75,4.57c0-1.08,.03-2.02,0-2.96-.03-.8-.07-1.34,1.1-1.36,1.28-.02,1.05,.69,1.05,1.41,0,3.09,0,6.19-.01,9.28,0,.35,.25,.94-.28,1.01-.53,.07-1.27,.37-1.62-.24-.22-.39-.16-.53-.64-.23-1.99,1.24-3.67,.99-4.98-.66-1.34-1.68-1.27-4.33,.17-5.93,1.39-1.54,3.12-1.69,5.23-.32Z"/><path class="cls-15" d="M486.77,4.47c2.67-1.43,4.94-.82,5.98,1.57,1.06,2.43-.08,5.26-2.42,6.07-.49,.17-1,.3-1.47,.15-1.12-.37-2.15-1.03-3.41-.3-.51,.29-.85-.09-.84-.77,.03-3.34,.05-6.69,0-10.03-.02-.95,.49-.87,1.11-.87,.64,0,1.16-.05,1.08,.9-.1,1.07-.02,2.16-.02,3.27Z"/><path class="cls-15" d="M6.41,0c1.12,0,2.2,.23,3.1,.9,.41,.31,1.45,.49,.89,1.3-.41,.6-.91,1.52-2.08,.55-1.47-1.21-3.69-.77-4.97,.69-1.33,1.51-1.3,3.99,.05,5.48,1.32,1.46,3.45,1.68,5.17,.63,.38-.24,.58-1.18,1.4-.46,1.19,1.03,1.22,1.23-.09,2.13-2.17,1.5-5.15,1.45-7.27-.12C.48,9.5-.38,6.73,.47,4.15,1.29,1.65,3.66,0,6.41,0Z"/><path class="cls-15" d="M389.46,4.7c.34-.24,.56-.43,.8-.57,2.09-1.27,4.39-.27,4.67,2.15,.2,1.67,.06,3.38,.09,5.08,.02,1-.72,.58-1.16,.62-.45,.04-1.03,.21-1-.65,.05-1.29,.03-2.59,0-3.89-.01-.85-.23-1.62-1.23-1.77-1.07-.16-1.71,.39-1.99,1.38-.37,1.27-.19,2.58-.17,3.87,.01,.82-.17,1.15-1.06,1.1-.73-.04-1.18-.04-1.16-1.01,.06-3.24,.06-6.48,0-9.72-.02-.97,.43-1.01,1.16-1,.7,0,1.11,.07,1.05,.95-.08,1.09-.02,2.19-.02,3.47Z"/><path class="cls-15" d="M637.89,4.8c1.3-1.26,2.61-1.55,4-.85,1.36,.68,1.5,2.01,1.52,3.34,.02,1.25-.05,2.5,.02,3.74,.04,.82-.27,1.01-1.02,.98-.7-.03-1.26,.03-1.19-.98,.09-1.24,.03-2.49,.02-3.74,0-.83-.28-1.48-1.21-1.62-.91-.13-1.55,.25-1.88,1.12-.53,1.36-.23,2.77-.24,4.15,0,.83-.2,1.11-1.07,1.09-.77-.02-1.14-.1-1.13-1.03,.06-3.24,.07-6.49,0-9.73-.02-1.01,.47-.96,1.17-.98,.74-.02,1.08,.14,1.02,.97-.08,1.09-.02,2.19-.02,3.54Z"/><path class="cls-15" d="M103.89,4.7c.41-.3,.7-.56,1.03-.74,1.85-1,4.1-.01,4.35,2.05,.21,1.77,.12,3.59,.14,5.38,.01,.99-.76,.53-1.2,.59-.49,.07-1,.1-.97-.7,.05-1.3,.01-2.6,.01-3.89,0-.88-.25-1.6-1.26-1.72-1-.12-1.61,.39-1.9,1.31-.41,1.32-.19,2.68-.17,4.01,.02,.92-.34,1.02-1.12,1.03-.85,.02-1.08-.24-1.07-1.08,.05-3.19,.05-6.39,0-9.59-.01-.84,.22-1.1,1.07-1.08,.78,.01,1.19,.11,1.11,1.03-.09,1.08-.02,2.16-.02,3.39Z"/><path class="cls-15" d="M79.33,8.4c-.6,0-1.2-.04-1.79,.01-.35,.03-.89-.28-1.01,.27-.09,.38,.21,.76,.52,1.02,1.01,.88,2.15,.97,3.07,.02,.85-.87,1.46-.17,1.89,.21,.61,.52-.2,.89-.52,1.2-1.52,1.5-4.06,1.55-5.72,.16-1.68-1.41-1.98-4.1-.68-5.95,1.22-1.72,3.58-2.28,5.45-1.26,1.43,.78,1.87,2.1,1.99,3.61,.04,.52-.16,.71-.67,.69-.85-.02-1.69,0-2.54,0Z"/><path class="cls-15" d="M496.3,8.4c.5,1.97,2.17,2.63,3.56,1.35,.95-.87,1.59-.13,2.01,.27,.45,.45-.34,.89-.69,1.22-1.54,1.44-4.14,1.42-5.73,0-1.58-1.42-1.85-4.04-.59-5.85,1.21-1.73,3.56-2.31,5.44-1.3,1.43,.77,1.87,2.09,2.01,3.6,.07,.81-.45,.72-.94,.72-.85,0-1.69,0-2.54,0-.83,0-1.67,0-2.53,0Z"/><path class="cls-15" d="M610.44,8.4c.77,2,2.33,2.58,3.64,1.36,.93-.87,1.58-.18,2.01,.24,.47,.45-.3,.89-.65,1.22-1.54,1.45-4.12,1.45-5.73,.03-1.6-1.41-1.88-4.02-.63-5.84,1.2-1.74,3.55-2.33,5.43-1.34,.68,.36,1.18,.88,1.53,1.58,1.07,2.16,.74,2.75-1.6,2.75-1.29,0-2.58,0-4,0Z"/><path class="cls-15" d="M401.59,8.4c-.65,0-1.3-.04-1.95,.01-.35,.03-.88-.28-1.01,.28-.1,.41,.23,.75,.53,1.02,1.01,.89,2.14,.96,3.07,.01,.85-.87,1.49-.13,1.9,.23,.57,.52-.25,.91-.57,1.22-1.53,1.49-4.1,1.5-5.73,.08-1.6-1.4-1.9-4.08-.65-5.86,1.23-1.75,3.56-2.31,5.45-1.31,.54,.29,1,.67,1.31,1.2,.52,.88,1.01,1.94,.59,2.83-.34,.71-1.44,.17-2.19,.28-.24,.04-.5,0-.75,0Z"/><path class="cls-15" d="M127.59,8.4c-.7,0-1.4-.03-2.1,.01-.31,.02-.75-.23-.9,.24-.12,.37,.17,.66,.38,.93,.8,.97,2.19,1.15,3.17,.17,.85-.85,1.46-.19,1.9,.19,.63,.54-.2,.91-.51,1.22-1.53,1.51-4.08,1.55-5.73,.14-1.62-1.39-1.94-4.05-.7-5.85,1.21-1.76,3.54-2.35,5.44-1.37,.49,.26,.93,.59,1.24,1.06,.59,.91,1.12,2,.7,2.94-.36,.8-1.51,.17-2.3,.33-.19,.04-.4,0-.6,0Z"/><path class="cls-15" d="M15.03,28.19c-.75,0-1.5,.02-2.25,0-.87-.03-.76,.39-.45,.91,.68,1.17,2.3,1.49,3.34,.46,.92-.91,1.59-.19,2.01,.24,.49,.49-.33,.9-.67,1.22-1.55,1.46-4.14,1.43-5.73-.01-1.57-1.43-1.83-4.12-.55-5.88,1.26-1.73,3.6-2.25,5.47-1.21,1.37,.76,1.81,2.03,1.94,3.49,.07,.72-.26,.83-.86,.79-.75-.04-1.5,0-2.25,0Z"/><path class="cls-15" d="M535.54,12.31c-1.65-.07-3.04-.79-3.82-2.46-.77-1.65-.42-3.73,.85-4.99,1.3-1.29,2.83-1.58,4.55-.97,.89,.32,1.52,.91,1.94,1.75,1.05,2.13,.69,2.75-1.61,2.75-1.1,0-2.2,.02-3.3,0-.73-.02-.72,.32-.47,.83,.59,1.18,2.19,1.48,3.36,.65,.29-.21,.42-.78,.95-.51,.43,.22,1.03,.39,1.21,.76,.2,.4-.39,.74-.7,1.05-.77,.79-1.75,1.11-2.97,1.14Z"/><path class="cls-15" d="M66.7,8.4c-.7,0-1.4-.03-2.1,.01-.3,.02-.75-.23-.89,.26-.1,.37,.18,.66,.4,.92,.81,.97,2.17,1.14,3.17,.14,.86-.86,1.48-.16,1.9,.21,.6,.53-.22,.91-.54,1.22-1.53,1.5-4.09,1.53-5.73,.12-1.61-1.4-1.92-4.06-.68-5.86,1.22-1.76,3.55-2.33,5.44-1.34,.54,.28,1,.66,1.31,1.19,.52,.88,1.02,1.93,.61,2.82-.33,.73-1.42,.19-2.17,.3-.24,.04-.5,0-.75,0Z"/><path class="cls-15" d="M433.58,8.4c-.7,0-1.4-.02-2.1,0-.26,0-.63-.17-.77,.22-.1,.31,.1,.57,.28,.81,.76,1.08,2.23,1.33,3.26,.31,.92-.91,1.6-.16,2.01,.26,.47,.48-.35,.9-.69,1.23-1.56,1.46-4.15,1.42-5.73-.04-1.57-1.44-1.81-4.12-.53-5.88,1.27-1.73,3.6-2.23,5.48-1.2,.54,.3,.98,.7,1.28,1.23,.5,.89,.97,1.96,.53,2.83-.28,.57-1.38,.13-2.11,.2-.3,.03-.6,0-.9,0Z"/><path class="cls-15" d="M173.49,8.4c.61,2,2.2,2.61,3.62,1.33,.89-.81,1.48-.16,1.9,.22,.56,.51-.21,.92-.55,1.24-1.51,1.45-4,1.5-5.62,.17-1.67-1.37-2.05-3.99-.85-5.83,1.17-1.79,3.48-2.44,5.4-1.52,.8,.38,1.36,1,1.72,1.8,.9,1.99,.52,2.59-1.61,2.59-1.33,0-2.65,0-4.02,0Z"/><path class="cls-15" d="M597.71,8.4c.75,2.06,2.24,2.59,3.7,1.3,.91-.8,1.47-.08,1.9,.29,.51,.43-.21,.83-.52,1.14-1.52,1.51-4.1,1.59-5.73,.2-1.65-1.4-2-4.02-.78-5.84,1.19-1.78,3.52-2.41,5.42-1.44,1.43,.74,1.98,2,2.07,3.56,.04,.69-.23,.83-.85,.81-1.69-.04-3.39-.01-5.21-.01Z"/><path class="cls-15" d="M192.69,28.19c.78,2.05,2.29,2.59,3.72,1.31,.9-.81,1.48-.12,1.9,.25,.51,.45-.21,.89-.55,1.21-1.5,1.44-3.99,1.51-5.61,.21-1.67-1.33-2.09-3.76-1-5.67,1.03-1.81,3.18-2.57,5.16-1.83,1.48,.55,2.38,1.9,2.46,3.58,.03,.67-.1,.98-.87,.96-1.69-.06-3.38-.02-5.21-.02Z"/><path class="cls-15" d="M369.6,8.4c.77,2.04,2.29,2.59,3.7,1.31,.9-.81,1.48-.12,1.9,.25,.53,.46-.21,.89-.54,1.21-1.5,1.44-3.98,1.52-5.61,.22-1.71-1.36-2.11-3.89-.93-5.8,1.08-1.76,3.29-2.47,5.23-1.67,1.46,.6,2.43,2.28,2.34,3.84-.04,.69-.42,.65-.88,.65-1.69,0-3.38,0-5.21,0Z"/><path class="cls-15" d="M231.33,27.01c-.67-1.9-1.81-2.43-3.14-1.46-.93,.68-1.5,.08-1.83-.39-.5-.73,.42-.94,.86-1.18,3.16-1.76,6.12-.03,6.13,3.56,0,1.05,.02,2.1-.01,3.14-.01,.36,.24,.92-.27,1.04-.55,.13-1.44,.35-1.67-.1-.36-.7-.5-.44-.89-.14-1.25,.97-2.54,.78-3.72-.09-1-.73-1.24-1.83-.83-2.95,.49-1.34,1.65-1.77,2.99-1.8,.74-.02,1.47,.06,2.37,.36Z"/><path class="cls-15" d="M180.64,27.05c-.61-1.92-1.75-2.49-3.09-1.52-1,.72-1.63,.09-1.92-.45-.35-.65,.54-.91,1.02-1.15,3.17-1.65,6.03,.06,6.04,3.58,0,1.05,.02,2.1,0,3.14,0,.37,.23,.92-.24,1.06-.55,.17-1.48,.34-1.68-.06-.51-1.04-.77-.18-1.1,.01-1.23,.7-2.41,.56-3.5-.24-1.01-.74-1.22-1.8-.88-2.94,.36-1.21,1.65-1.86,3.43-1.83,.59,.01,1.17,.08,1.95,.41Z"/><path class="cls-15" d="M108.69,27.02c-.65-1.91-1.79-2.46-3.12-1.48-.93,.68-1.49,.1-1.83-.38-.52-.75,.41-.94,.84-1.18,3.16-1.77,6.14-.04,6.14,3.54,0,1.05,.02,2.1-.01,3.14-.01,.36,.24,.92-.26,1.04-.55,.14-1.46,.35-1.67-.09-.43-.89-.65-.29-1-.06-1.24,.84-2.47,.66-3.61-.17-.95-.69-1.21-1.72-.88-2.81,.42-1.38,1.53-1.87,2.88-1.94,.79-.04,1.58,0,2.53,.37Z"/><path class="cls-15" d="M213.66,7.24c-.35-1.81-1.39-2.31-2.86-1.62-.4,.19-.73,.8-1.3,.31-.3-.25-.79-.45-.86-.76-.09-.4,.43-.63,.76-.83,1.57-.95,3.22-1.04,4.85-.22,1.42,.71,1.58,2.05,1.53,3.46-.03,1.1,.01,2.2-.02,3.3,0,.37,.23,.94-.24,1.06-.55,.13-1.48,.33-1.69-.1-.44-.91-.66-.29-1-.05-1.19,.83-2.38,.63-3.49-.12-.96-.65-1.32-1.65-1.02-2.76,.36-1.31,1.36-1.92,2.67-2.03,.84-.07,1.68-.09,2.67,.36Z"/><path class="cls-15" d="M622.95,7.15c-.45-1.77-1.46-2.22-2.94-1.51-.33,.16-.56,.68-1.03,.4-.38-.23-.91-.45-1.04-.8-.2-.51,.43-.72,.77-.93,1.58-.93,3.23-1.01,4.85-.16,1.41,.74,1.52,2.09,1.48,3.49-.03,1.05,0,2.1,0,3.15,0,1.09-1.21,1.85-1.87,1.08-.58-.67-.67-.36-1.12-.06-1.18,.82-2.39,.59-3.48-.18-.9-.63-1.25-1.59-1-2.64,.32-1.32,1.29-1.96,2.6-2.11,.89-.1,1.77-.02,2.78,.26Z"/><path class="cls-15" d="M20.64,7.99c-.02,2.52-1.87,4.35-4.36,4.31-2.48-.04-4.24-1.91-4.19-4.46,.05-2.46,1.84-4.23,4.27-4.23,2.48,0,4.3,1.86,4.28,4.39Z"/><path class="cls-15" d="M138.32,27.81c-.03-2.55,1.75-4.4,4.24-4.41,2.48-.01,4.32,1.84,4.32,4.36,0,2.46-1.77,4.29-4.18,4.34-2.5,.06-4.34-1.75-4.37-4.28Z"/><path class="cls-15" d="M319.58,7.94c0,2.52-1.83,4.37-4.31,4.36-2.49-.01-4.27-1.86-4.24-4.41,.03-2.47,1.79-4.26,4.22-4.28,2.49-.02,4.33,1.82,4.33,4.34Z"/><path class="cls-15" d="M51.45,7.19c-.56-1.86-1.69-2.41-3.08-1.44-1,.7-1.6,.06-1.93-.48-.35-.58,.5-.83,.92-1.07,3.13-1.78,6.14-.05,6.15,3.51,0,1,.04,2-.02,2.99-.02,.43,.36,1.16-.32,1.24-.55,.07-1.32,.48-1.78-.39-.3-.58-.51,0-.7,.15-.87,.67-1.8,.76-2.81,.39-1.27-.46-1.96-1.34-1.89-2.71,.07-1.4,.99-2.14,2.24-2.44,1.01-.24,2.05-.12,3.22,.24Z"/><path class="cls-15" d="M88.91,7.17c-.51-1.83-1.57-2.27-3.07-1.48-.31,.16-.51,.69-.99,.32-.35-.27-.91-.48-1-.82-.13-.47,.47-.71,.84-.92,1.59-.89,3.24-.97,4.85-.09,1.38,.75,1.5,2.11,1.46,3.5-.03,1,.03,1.99-.02,2.99-.02,.44,.35,1.17-.3,1.26-.55,.08-1.34,.47-1.79-.36-.31-.58-.51-.03-.7,.12-.81,.65-1.71,.77-2.67,.46-1.33-.42-2.1-1.29-2.06-2.75,.04-1.24,1-2.26,2.37-2.49,.98-.16,1.96-.08,3.08,.25Z"/><path class="cls-15" d="M52.27,26.96c-.34-1.75-1.47-2.28-2.93-1.5-.4,.21-.65,.65-1.27,.26-.96-.61-1.06-1.04-.02-1.62,1.6-.89,3.23-.99,4.85-.16,1.47,.76,1.56,2.17,1.53,3.61-.03,1.05,.01,2.09-.02,3.14-.01,.36,.23,.96-.23,1.04-.58,.11-1.49,.38-1.77-.18-.32-.67-.41-.4-.75-.13-1.22,1.01-2.5,.85-3.72,.03-1.03-.7-1.33-1.79-.95-2.91,.48-1.39,1.66-1.88,3.07-1.9,.73-.01,1.45,.11,2.2,.32Z"/><path class="cls-15" d="M146.08,12.3c-2.47,.02-4.35-1.86-4.36-4.34,0-2.49,1.88-4.37,4.35-4.35,2.41,.02,4.23,1.83,4.27,4.27,.05,2.48-1.8,4.4-4.27,4.42Z"/><path class="cls-15" d="M249.72,32.09c-2.45-.03-4.33-2-4.25-4.45,.08-2.51,1.98-4.32,4.46-4.24,2.39,.07,4.19,1.95,4.17,4.38-.02,2.49-1.91,4.35-4.38,4.32Z"/><path class="cls-15" d="M554.98,3.6c2.47-.02,4.35,1.87,4.34,4.35,0,2.48-1.89,4.36-4.36,4.34-2.41-.02-4.22-1.84-4.27-4.28-.05-2.46,1.83-4.4,4.28-4.42Z"/><path class="cls-15" d="M417.74,7.92c.02,2.48-1.85,4.38-4.33,4.38-2.42,0-4.23-1.8-4.29-4.24-.06-2.5,1.77-4.42,4.23-4.45,2.48-.03,4.37,1.82,4.39,4.32Z"/><path class="cls-15" d="M211.69,32.09c-2.48,.03-4.35-1.82-4.36-4.33-.01-2.44,1.76-4.31,4.17-4.37,2.49-.07,4.37,1.73,4.44,4.25,.07,2.47-1.78,4.41-4.25,4.44Z"/><path class="cls-15" d="M583.22,7.21c-.56-1.83-1.57-2.27-2.99-1.57-.3,.15-.51,.6-.89,.43-.45-.2-1.03-.43-1.21-.81-.2-.43,.4-.73,.76-.94,1.57-.92,3.21-1.01,4.84-.19,1.44,.73,1.54,2.08,1.52,3.46-.01,1.05,.02,2.1-.02,3.14-.02,.41,.28,1.05-.26,1.19-.53,.14-1.35,.36-1.67-.15-.45-.73-.66-.22-.97,0-1.24,.85-2.47,.67-3.6-.17-.91-.68-1.25-1.66-.89-2.78,.44-1.39,1.53-1.87,2.87-1.96,.79-.05,1.57,0,2.51,.34Z"/><path class="cls-15" d="M112.88,64.71c0-1.32,.03-2.52-.01-3.71-.02-.62,.13-.88,.82-.87,.65,.01,.7,.32,.7,.83-.01,3.44,0,6.88-.01,10.31,0,.26,.13,.67-.33,.68-.36,0-.91,.25-1.05-.22-.16-.56-.2-.57-.7-.26-1.93,1.19-3.59,.96-4.94-.58-1.36-1.55-1.45-3.99-.21-5.67,1.4-1.88,3.33-2.09,5.72-.52Z"/><path class="cls-15" d="M451.15,7.94c0-1.05-.01-2.1,0-3.14,0-.36-.16-.93,.47-.87,.52,.06,1.29-.44,1.52,.35,.17,.58,.22,.52,.59,.19,1.07-.97,2.31-1.18,3.59-.52,1.33,.68,1.54,1.98,1.55,3.32,.01,1.2-.06,2.4,.02,3.59,.06,.9-.18,1.16-1.13,1.18-1.08,.03-1.07-.5-1.05-1.26,.04-1.1,.02-2.19,0-3.29,0-.92-.22-1.72-1.32-1.83-1.08-.11-1.67,.49-1.94,1.47-.32,1.18-.15,2.38-.15,3.57,0,.81,.03,1.35-1.13,1.35-1.25,0-1.07-.68-1.06-1.42,0-.9,0-1.8,0-2.69Z"/><path class="cls-15" d="M254.76,7.83c0-.95-.03-1.9,.01-2.84,.02-.38-.28-1.07,.42-1.05,.52,.02,1.33-.58,1.6,.43,.21,.79,.45,.14,.62,.01,1.08-.86,2.25-1.06,3.49-.46,1.23,.6,1.54,1.76,1.59,3,.05,1.29-.03,2.59,.03,3.89,.03,.81-.04,1.24-1.08,1.23-1,0-1.15-.37-1.1-1.21,.06-1.09,.02-2.19,.01-3.29,0-.9-.16-1.74-1.27-1.87-1.15-.14-1.76,.51-2.01,1.56-.29,1.23-.15,2.49-.12,3.73,.02,.86-.25,1.09-1.09,1.08-.79-.01-1.2-.13-1.12-1.05,.08-1.04,.02-2.09,.02-3.14Z"/><path class="cls-15" d="M67.96,27.61c0-.95-.03-1.9,.01-2.84,.02-.38-.28-1.07,.43-1.03,.52,.03,1.36-.59,1.58,.45,.13,.61,.32,.28,.53,.09,1.13-1,2.41-1.22,3.72-.48,1.29,.73,1.45,2.04,1.46,3.38,0,1.1-.02,2.19,0,3.29,.02,.77,.13,1.37-1.08,1.37-1.24,0-1.08-.64-1.07-1.39,.01-1.1,.02-2.19,0-3.29-.02-.86-.27-1.59-1.28-1.71-1-.12-1.64,.4-1.92,1.3-.4,1.26-.21,2.58-.19,3.87,.01,.84-.1,1.22-1.1,1.22-1,0-1.16-.38-1.1-1.23,.06-.99,.01-1.99,.01-2.99Z"/><path class="cls-15" d="M240.74,8.06c0,1,.01,2,0,2.99,0,.32,.19,.81-.27,.89-.52,.09-1.4,.28-1.53-.09-.31-.9-.51-.55-1.01-.2-2.17,1.5-4.56,.41-4.78-2.21-.13-1.59-.01-3.19-.08-4.79-.05-1.07,.69-.7,1.2-.76,.64-.08,1.03,.02,.97,.84-.08,1.19-.02,2.39-.02,3.59,0,.98,.21,1.85,1.4,1.9,1.25,.06,1.82-.75,1.91-1.85,.1-1.19,.1-2.4,.03-3.59-.06-.92,.44-.92,1.1-.91,.63,.01,1.18-.07,1.11,.88-.08,1.09-.02,2.19-.02,3.29Z"/><path class="cls-15" d="M263.14,28.71c0,.6-.03,1.2,0,1.8,.06,.84,0,1.35-1.13,1.33-1.09-.01-1.05-.53-1.03-1.27,.03-1.1,0-2.2,0-3.29,0-.93-.19-1.72-1.31-1.82-1.18-.11-1.82,.6-1.95,1.63-.15,1.18-.15,2.39-.07,3.59,.06,.96-.29,1.15-1.18,1.16-.92,.01-1.05-.34-1.03-1.13,.05-2,0-3.99,.03-5.99,0-.34-.24-.93,.35-.96,.52-.02,1.28-.42,1.56,.3,.18,.47,.21,.61,.61,.24,1.13-1.04,2.41-1.21,3.72-.47,1.3,.74,1.43,2.06,1.41,3.4,0,.5,0,1,0,1.5Z"/><path class="cls-15" d="M438.07,7.84c0-1-.02-2,.01-3,.01-.34-.24-.92,.41-.91,.5,0,1.3-.36,1.47,.23,.24,.84,.42,.51,.8,.18,1.02-.85,2.16-1,3.35-.44,1.25,.58,1.58,1.72,1.61,2.98,.03,1.4-.06,2.8,.03,4.19,.07,1.06-.55,.89-1.2,.94-.81,.07-1.02-.24-.98-1,.06-1.15,0-2.3,.02-3.44,0-.98-.16-1.84-1.37-1.91-1.18-.07-1.78,.67-1.9,1.69-.14,1.18-.12,2.39-.07,3.59,.04,.86-.24,1.11-1.09,1.09-.77-.02-1.19-.12-1.12-1.04,.08-1.04,.02-2.1,.02-3.14Z"/><path class="cls-15" d="M522.32,7.84c0-1-.02-2,.01-2.99,.01-.34-.23-.92,.42-.91,.5,0,1.3-.36,1.47,.23,.24,.87,.44,.48,.81,.18,1.02-.84,2.16-.99,3.36-.43,1.25,.59,1.58,1.73,1.61,2.98,.03,1.35-.04,2.7,.03,4.04,.04,.83-.19,1.08-1.05,1.11-.96,.03-1.19-.28-1.13-1.18,.08-1.09,.01-2.2,.02-3.29,0-.98-.17-1.84-1.38-1.91-1.18-.07-1.78,.67-1.89,1.7-.13,1.18-.13,2.39-.07,3.59,.04,.87-.25,1.1-1.09,1.08-.78-.01-1.19-.13-1.11-1.04,.08-1.04,.02-2.1,.02-3.14Z"/><path class="cls-15" d="M468.23,8.06c0,.95,.02,1.89-.01,2.84-.01,.36,.23,.92-.25,1.05-.5,.12-1.39,.3-1.54-.1-.43-1.17-.78-.31-1.16-.07-1.99,1.27-4.34,.27-4.59-2.06-.18-1.68-.06-3.38-.14-5.07-.04-.93,.57-.74,1.08-.73,.5,0,1.15-.22,1.11,.72-.05,1.24-.01,2.49-.01,3.74,0,.98,.21,1.82,1.42,1.88,1.19,.06,1.76-.73,1.87-1.73,.14-1.18,.11-2.39,.05-3.58-.05-.87,.25-1.07,1.08-1.06,.79,0,1.17,.15,1.1,1.05-.08,1.04-.02,2.09-.02,3.14Z"/><path class="cls-4" d="M148.2,64.43c0,.8,0,1.6,0,2.39,0,.67-.21,1.45,.96,1.34,.46-.04,.41,.46,.42,.8,.01,.32-.02,.65-.44,.59-1.19-.16-.92,.67-.95,1.32-.02,.51,.19,1.08-.73,1.12-.99,.04-.9-.57-.83-1.14,.15-1.07-.28-1.4-1.31-1.3-.99,.09-2-.03-2.99,.03-1.4,.09-1.26-.76-.81-1.47,1.53-2.39,3.17-4.71,4.74-7.07,.4-.6,.97-.44,1.48-.39,.69,.07,.42,.68,.43,1.08,.04,.9,.01,1.79,.01,2.69Z"/><path class="cls-15" d="M363,3.6c.87-.02,1.7,.16,2.41,.65,.42,.29,1.16,.73,.75,1.23-.33,.39-1.09,.98-1.82,.36-.54-.46-1.14-.58-1.81-.43-.31,.07-.56,.25-.61,.57-.05,.34,.16,.57,.47,.67,.75,.24,1.52,.45,2.27,.7,1.06,.36,1.86,.97,1.92,2.2,.06,1.3-.75,2-1.83,2.45-1.59,.66-3.7,.23-4.68-.97-.24-.3-.81-.78-.3-1.08,.49-.29,1.11-1.08,1.8-.35,.56,.58,1.15,.96,1.97,.81,.4-.07,.8-.25,.87-.71,.08-.51-.33-.68-.71-.82-.42-.15-.85-.26-1.28-.37-1.94-.5-2.81-1.36-2.65-2.65,.17-1.36,1.42-2.25,3.23-2.27Z"/><path class="cls-15" d="M73.95,64.43c0,.8,0,1.6,0,2.4,0,.69-.17,1.46,.98,1.32,.53-.06,.46,.4,.47,.74,.01,.36,.04,.76-.5,.68-1.02-.16-.95,.49-.97,1.18-.01,.49,.39,1.22-.7,1.26-1.18,.04-.85-.76-.8-1.3,.09-.93-.21-1.23-1.15-1.15-1.04,.09-2.1-.03-3.14,.03-1.29,.07-1.37-.59-.83-1.43,1.54-2.39,3.17-4.72,4.74-7.08,.39-.59,.97-.48,1.48-.41,.7,.08,.39,.7,.41,1.08,.05,.9,.01,1.8,.01,2.7Z"/><path class="cls-15" d="M245.73,3.6c.81,.02,1.6,.16,2.26,.64,.42,.3,1.18,.76,.83,1.19-.36,.45-1.12,1-1.93,.4-.27-.2-.59-.37-.92-.44-.55-.11-1.23-.11-1.41,.5-.21,.73,.54,.82,1.03,.99,.75,.26,1.56,.38,2.27,.72,1.68,.82,1.83,2.73,.37,3.89-1.53,1.22-4.14,1.05-5.46-.41-.28-.31-.98-.78-.4-1.13,.47-.29,1.12-1.21,1.9-.27,.55,.66,1.28,.94,2.13,.64,.33-.12,.64-.33,.61-.74-.02-.32-.21-.54-.54-.64-.47-.14-.94-.3-1.42-.43-2.05-.52-2.88-1.37-2.67-2.77,.19-1.29,1.55-2.17,3.32-2.16Z"/><path class="cls-15" d="M95.26,32.09c-1.17,0-2.16-.29-2.93-1.07-.34-.34-1.08-.84-.54-1.26,.45-.35,1.24-1.27,2-.18,.3,.43,.8,.61,1.3,.64,.57,.04,1.17-.05,1.32-.71,.15-.67-.49-.8-.93-.95-.51-.18-1.07-.22-1.59-.38-1.18-.35-2.11-.98-2.08-2.36,.03-1.38,.99-1.98,2.17-2.29,1.21-.32,2.39-.16,3.44,.51,.43,.27,1.16,.74,.77,1.22-.33,.4-1.11,.97-1.82,.39-.51-.41-1.04-.57-1.66-.48-.36,.05-.69,.18-.76,.59-.07,.43,.22,.63,.58,.74,.57,.18,1.14,.34,1.71,.5,1.69,.49,2.45,1.33,2.34,2.62-.1,1.19-1.16,2.15-2.67,2.4-.24,.04-.49,.05-.67,.06Z"/><path class="cls-15" d="M117.94,12.3c-1.2,0-2.27-.37-3.06-1.3-.23-.27-.87-.73-.31-1.06,.5-.29,1.13-1.08,1.81-.35,.56,.6,1.16,.93,1.96,.81,.4-.06,.8-.24,.86-.71,.07-.5-.3-.71-.69-.83-.67-.19-1.36-.31-2.01-.53-1.06-.35-1.9-.98-1.92-2.2-.02-1.27,.75-1.96,1.92-2.33,1.32-.42,2.57-.27,3.72,.44,.42,.26,1.16,.72,.74,1.22-.34,.39-1.11,.98-1.82,.37-.55-.46-1.14-.58-1.81-.43-.29,.07-.57,.23-.59,.58-.02,.33,.13,.56,.46,.67,.52,.16,1.03,.35,1.56,.49,2.02,.56,2.81,1.42,2.59,2.85-.2,1.33-1.62,2.28-3.41,2.29Z"/><path class="cls-15" d="M224.91,12.3c-1.25,0-2.15-.28-2.89-.91-.42-.36-1.18-.92-.75-1.36,.43-.44,1.3-1.3,2.1-.18,.27,.38,.73,.53,1.18,.58,.56,.06,1.18,0,1.37-.63,.23-.77-.49-.87-.97-1.04-.7-.24-1.45-.36-2.14-.61-.93-.33-1.46-1.05-1.47-2.04-.01-.99,.52-1.71,1.41-2.1,1.46-.65,2.93-.58,4.28,.28,.39,.25,1.15,.68,.67,1.23-.33,.37-1.03,.81-1.73,.41-.17-.1-.3-.28-.47-.35-.72-.28-1.64-.54-1.93,.35-.28,.86,.73,.85,1.29,1.04,.38,.13,.77,.19,1.15,.32,1.16,.37,2.13,.97,2.13,2.35,0,1.42-.94,2.11-2.17,2.49-.42,.13-.87,.16-1.05,.19Z"/><path class="cls-15" d="M100.33,9.93c-1.39,2.45-4.08,3.11-6.27,1.61-1.95-1.33-2.36-4.46-.84-6.39,1.43-1.82,4.47-2.1,6.15-.53,.38,.36,1.14,.9,.65,1.34-.43,.38-1.18,1.17-2.05,.27-.93-.95-2-.79-2.92,.08-.83,.79-.83,2.48-.01,3.28,.91,.88,1.99,1.04,2.92,.11,1.01-1.01,1.57,.15,2.38,.24Z"/><path class="cls-15" d="M188.4,5.9c-.9,.46-1.63,1.09-2.72,.04-.78-.74-1.95-.4-2.62,.53-.71,.98-.71,2.09,.07,3.04,.72,.88,1.69,1,2.68,.43,.34-.19,.61-.64,.94-.66,.59-.03,1.28,.24,1.57,.7,.27,.43-.33,.84-.67,1.17-1.74,1.69-4.79,1.5-6.26-.37-1.55-1.96-1.18-5.03,.77-6.39,2.19-1.53,4.89-.89,6.23,1.51Z"/><path class="cls-15" d="M634.22,5.9c-.9,.54-1.66,1.01-2.72,.02-.73-.68-1.81-.34-2.53,.46-.73,.81-.72,2.39,.03,3.17,.78,.82,1.7,.95,2.71,.38,.37-.21,.52-.84,1.08-.65,.51,.18,1.19,.34,1.41,.73,.24,.41-.37,.84-.72,1.17-1.32,1.26-3.28,1.48-4.99,.59-1.6-.83-2.47-2.68-2.13-4.54,.37-2.07,1.67-3.35,3.63-3.61,1.89-.25,3.34,.53,4.23,2.28Z"/><path class="cls-15" d="M27.1,29.78c-1.23,1.97-2.96,2.72-4.94,2.14-1.93-.56-3.14-2.2-3.12-4.24,.02-2.05,1.24-3.64,3.21-4.17,1.95-.52,3.71,.26,4.77,2.15-.89,.51-1.61,1.07-2.7,.07-.79-.73-1.94-.4-2.63,.51-.74,.98-.73,2.09,.05,3.04,.72,.89,1.86,1.17,2.65,.41,1.09-1.06,1.82-.39,2.72,.08Z"/><path class="cls-15" d="M224.72,25.68c-.89,.58-1.63,.99-2.7,.04-.8-.71-1.96-.38-2.61,.55-.69,.98-.69,2.11,.08,3.05,.71,.86,1.68,.96,2.7,.42,.38-.2,.52-.85,1.06-.68,.51,.15,1.17,.34,1.42,.73,.29,.45-.34,.84-.68,1.16-1.31,1.28-3.28,1.51-4.98,.63-1.65-.85-2.45-2.62-2.13-4.68,.28-1.82,1.59-3.14,3.42-3.46,1.9-.34,3.47,.45,4.42,2.24Z"/><path class="cls-15" d="M586.57,8c-.02-1.87,.91-3.4,2.52-4.04,1.65-.65,3.24-.51,4.6,.72,.35,.32,1.07,.84,.6,1.26-.46,.4-1.18,1.19-2.03,.29-.75-.8-1.7-.78-2.59-.22-.92,.58-1.08,1.52-.9,2.5,.29,1.59,2.11,2.35,3.31,1.29,.67-.59,1.12-.5,1.81-.22,.9,.36,.63,.75,.19,1.27-1.13,1.34-3,1.81-4.76,1.18-1.72-.62-2.74-2.11-2.75-4.03Z"/><path class="cls-15" d="M151.56,29.25c-.86,1.86-1.74,3.17-3.81,2.4,.35-1,1.05-1.89,1.75-2.72,.81-.95,.7-1.66-.05-2.55-.66-.78-1.19-1.67-1.78-2.52,2.11-.8,3.09,.45,3.95,2.33,.81-1.93,1.8-3.11,3.93-2.32-.48,.69-.87,1.45-1.45,2.01-1.33,1.27-1.09,2.41,.01,3.66,.54,.62,.94,1.36,1.42,2.06-2.15,.84-3.04-.51-3.97-2.36Z"/><path class="cls-4" d="M125.31,61.12l-2.56,3.6c1.19,.16,2.29,.1,3.18,.88,1.32,1.16,1.78,2.77,1.11,4.29-.73,1.65-2.52,2.61-4.27,2.28-1.68-.31-2.98-1.72-3.11-3.36-.08-1.03,.18-1.99,.72-2.85,1.03-1.64,2.14-3.23,3.18-4.87,.74-1.17,1.06,.11,1.75,.02Z"/><path class="cls-4" d="M57.26,64.76c.49,.03,.78,.05,1.06,.07,2.17,.13,3.78,1.92,3.58,3.95-.21,2.13-2.33,3.74-4.48,3.41-2.13-.33-3.67-2.44-3.15-4.47,.69-2.68,2.68-4.62,4.06-6.92,.35-.58,.68,.03,.99,.16,.42,.18,.38,.45,.11,.8-.71,.94-1.38,1.91-2.17,3Z"/><path class="cls-15" d="M82.38,66.05c1.53,.87,2.11,2.12,1.65,3.69-.44,1.48-1.6,2.25-3.09,2.46-1.56,.22-3.1-.52-3.81-1.82-.21-.38-.7-.8,.09-1.19,.58-.29,.87-.22,1.16,.36,.44,.89,1.2,1.33,2.2,1.21,1.16-.13,2-.69,2.02-1.97,.02-1.21-.78-1.75-1.87-1.95-.24-.04-.5-.05-.75-.02-.54,.05-.69-.21-.68-.7,0-.43-.01-.82,.6-.75,.15,.02,.3,0,.45,0,.97-.12,1.73-.53,1.89-1.59,.11-.7-.18-1.3-.82-1.62-.93-.46-1.97-.52-2.58,.36-.55,.79-1.11,.87-1.61,.3-.51-.58,.22-1.08,.59-1.44,1.61-1.57,4.7-1.1,5.67,.85,.76,1.55,.16,2.77-1.11,3.82Z"/><path class="cls-15" d="M138.11,66.03c1.57,.89,2.15,2.15,1.68,3.72-.44,1.48-1.6,2.24-3.1,2.45-1.56,.22-3.1-.53-3.8-1.83-.21-.38-.69-.8,.11-1.19,.59-.29,.87-.19,1.15,.38,.48,.96,1.31,1.36,2.35,1.19,1.08-.18,1.86-.75,1.86-1.97,0-1.14-.73-1.68-1.73-1.92-.24-.06-.5-.06-.74-.04-.53,.04-.83-.07-.83-.71,0-.6,.19-.76,.77-.75,1.09,.01,1.99-.39,2.18-1.59,.12-.76-.22-1.37-.96-1.67-1.1-.46-2.1-.3-2.72,.78-.45,.78-.88,.18-1.23,.03-.61-.25-.18-.67,.02-.96,.86-1.24,2.07-1.62,3.52-1.44,1.36,.17,2.34,.86,2.79,2.16,.46,1.35-.07,2.42-1.31,3.38Z"/><path class="cls-4" d="M96.14,69.07c0,.7-.04,1.4,0,2.1,.07,1.17-1.14,.93-1.23,.72-.45-1.06-.81-.34-1.27-.09-1.2,.67-2.42,.6-3.52-.19-.91-.65-1.37-1.58-1.07-2.74,.37-1.43,1.45-1.91,2.79-2.08,.71-.09,1.42-.07,2.07,.15,.96,.32,.79-.25,.62-.73-.41-1.18-2.18-1.67-3.3-.76-.77,.62-1.38,.46-1.68-.14-.34-.67,.49-.94,.97-1.19,2.81-1.51,5.55,.13,5.6,3.32,0,.55,0,1.1,0,1.65Z"/><path class="cls-15" d="M187.96,32.11c-1.4-.09-2.34-.7-2.65-2.15-.21-.99-.07-1.98-.12-2.98-.03-.7,.25-1.54-1-1.49-.6,.03-.35-.6-.37-.95-.02-.3-.16-.87,.34-.81,1.29,.15,1.08-.72,1.01-1.41-.09-.92,.33-1.04,1.12-1.05,.81,0,1.21,.17,1.08,1.06-.14,.91,0,1.6,1.2,1.37,.73-.14,.77,.31,.78,.88,0,.61,0,1.11-.84,.97-.94-.17-1.24,.26-1.16,1.16,.07,.74,0,1.5,.04,2.24,.03,.51,.19,1.15,.8,1.06,1.28-.2,1.38,.86,1.34,1.47-.05,.72-.97,.55-1.57,.64Z"/><path class="cls-15" d="M384.37,12.32c-1.41-.08-2.35-.69-2.66-2.15-.21-.99-.07-1.99-.12-2.98-.04-.69,.27-1.55-1-1.49-.61,.03-.36-.6-.37-.94-.02-.3-.16-.87,.34-.81,1.29,.15,1.09-.71,1.02-1.41-.09-.91,.31-1.05,1.11-1.06,.81,0,1.22,.16,1.08,1.05-.14,.91,0,1.6,1.2,1.38,.73-.14,.78,.3,.78,.87,0,.6,0,1.12-.83,.97-.93-.16-1.25,.24-1.16,1.16,.07,.74,0,1.5,.04,2.24,.03,.51,.18,1.15,.8,1.06,1.27-.19,1.39,.84,1.34,1.46-.05,.73-.97,.56-1.56,.65Z"/><path class="cls-15" d="M89.28,32.09c-1.66,.03-2.63-.68-2.88-2.17-.16-.92-.1-1.88-.15-2.82-.04-.72,.35-1.66-1.03-1.61-.56,.02-.31-.62-.33-.97-.02-.3-.15-.84,.38-.78,1.13,.13,1.07-.59,.98-1.29-.12-.93,.23-1.15,1.14-1.19,1.08-.05,1.13,.48,1.04,1.25-.1,.84,.08,1.38,1.09,1.19,.74-.14,.92,.21,.9,.91-.01,.65-.09,1.08-.88,.94-.99-.18-1.19,.34-1.12,1.19,.06,.74,0,1.5,.04,2.24,.03,.51,.21,1.12,.83,1.03,1.26-.17,1.33,.87,1.31,1.49-.02,.6-.89,.54-1.31,.59Z"/><path class="cls-15" d="M237.02,21.32c.97-.23,1.28,.22,1.14,1.12-.13,.88,.07,1.46,1.15,1.26,.75-.14,.78,.34,.76,.9-.02,.51,.07,1.07-.72,.94-1.05-.18-1.29,.33-1.2,1.26,.07,.74,.02,1.5,.03,2.24,.01,.57,.27,1.07,.87,.98,1.21-.17,1.23,.82,1.22,1.41,0,.73-.84,.63-1.4,.66-1.63,.06-2.66-.8-2.83-2.42-.09-.89-.04-1.79-.06-2.69-.01-.72,.22-1.54-1.03-1.47-.62,.04-.36-.6-.37-.93-.01-.34-.22-.93,.45-.86,1.2,.13,.97-.71,.93-1.35-.05-.81,.12-1.28,1.05-1.03Z"/><path class="cls-15" d="M152.63,8.85c0-.75,0-1.5,0-2.24,0-.49-.05-.93-.7-.85-.87,.1-.77-.47-.81-1.04-.05-.69,.24-.89,.87-.82,.7,.08,.61-.42,.66-.88,.21-1.85,1.22-2.74,3.06-2.71,.54,0,1.35-.12,1.31,.66-.03,.58,.03,1.61-1.21,1.39-.77-.13-1.1,.46-1.08,1.11,.02,.72,.68,.41,1.03,.4,.66-.01,.99,.08,.97,.88-.02,.75-.18,1.13-.99,.99-.89-.15-1.1,.3-1.07,1.1,.05,1.39-.04,2.79,.03,4.19,.04,.82-.26,1.02-1.02,.98-.65-.03-1.17,0-1.07-.92,.08-.74,.02-1.49,.02-2.24Z"/><path class="cls-15" d="M135.73,12.3c-1.73-.03-2.68-.88-2.84-2.46-.08-.84-.03-1.69-.06-2.54-.02-.73,.32-1.66-1.05-1.6-.6,.03-.32-.61-.34-.95-.01-.29-.2-.87,.33-.81,1.23,.14,1.15-.65,1.06-1.4-.11-.88,.25-1.08,1.08-1.07,.79,.01,1.25,.14,1.11,1.05-.13,.88-.05,1.61,1.17,1.38,.78-.15,.73,.4,.73,.92,0,.54,.02,1.05-.75,.91-1.1-.2-1.24,.4-1.17,1.28,.06,.74,.02,1.5,.03,2.25,.01,.5,.24,1.01,.75,.94,1.22-.17,1.41,.76,1.35,1.44-.07,.78-.99,.54-1.4,.65Z"/><path d="M546.55,1.54c1.03-.29,1.2,.28,1.08,1.12-.12,.88,.07,1.46,1.14,1.25,.7-.13,.8,.28,.8,.87,0,.64-.07,1.11-.86,.97-1.02-.18-1.15,.37-1.09,1.2,.06,.74,0,1.49,.02,2.24,.01,.63,.28,1.14,.96,1.05,1.24-.16,1.14,.88,1.15,1.45,.02,.64-.79,.57-1.28,.61-1.71,.13-2.87-.88-2.97-2.59-.05-.84,0-1.69-.02-2.54,0-.71,.26-1.57-1.03-1.44-.66,.07-.41-.56-.4-.88,0-.33-.26-.97,.38-.9,1.25,.14,1.11-.66,1.04-1.39-.08-.83,.18-1.24,1.07-1.01Z"/><path class="cls-4" d="M97.84,67.79c0-1.05,.03-2.09,0-3.14-.04-1.17,1.18-.87,1.25-.69,.41,1.17,.89,.32,1.28,.11,2.12-1.13,4.28-.16,4.57,2.22,.2,1.67,.06,3.38,.1,5.08,.01,.59-.34,.6-.77,.62-.47,.02-.74-.07-.73-.64,.03-1.35,.05-2.69,0-4.04-.06-1.58-.7-2.28-1.96-2.28-1.23,0-2.12,.93-2.17,2.35-.04,1.25-.03,2.49,0,3.74,.02,.59-.07,.89-.79,.89-.74,0-.79-.35-.77-.91,.03-1.1,0-2.19,0-3.29Z"/><path class="cls-3" d="M576.25,6.23c0,1.64-.04,3.29,.02,4.93,.03,.81-.36,.91-.99,.84-.53-.06-1.23,.27-1.22-.77,.04-3.39,.04-6.77,0-10.16-.01-1.05,.7-.7,1.22-.77,.63-.08,1.01,.05,.98,.85-.06,1.69-.02,3.39-.02,5.08Z"/><path class="cls-3" d="M56.08,25.86c0-1.64,.04-3.29-.02-4.93-.03-.81,.36-.91,.99-.84,.53,.06,1.23-.27,1.22,.77-.04,3.39-.04,6.77,0,10.16,.01,1.05-.7,.7-1.22,.76-.63,.08-1.01-.04-.98-.85,.06-1.69,.02-3.39,.02-5.08Z"/><path d="M205.88,26.07c0,1.59-.07,3.19,.02,4.78,.06,1.04-.52,.91-1.19,.95-.78,.05-1.01-.2-1-.99,.04-3.29,.06-6.58,0-9.87-.02-1,.52-.84,1.11-.87,.67-.03,1.12,0,1.08,.9-.08,1.69-.02,3.39-.02,5.08Z"/><path d="M516.2,6.3c0,1.54-.04,3.09,.02,4.63,.03,.82-.18,1.13-1.05,1.1-.75-.03-1.15-.06-1.13-1.01,.06-3.24,.06-6.48,0-9.72-.02-.94,.36-1,1.13-1.02,.86-.02,1.09,.25,1.06,1.09-.06,1.64-.02,3.29-.02,4.93Z"/><path d="M219.67,6.3c0,1.54-.04,3.09,.02,4.63,.03,.82-.18,1.13-1.05,1.1-.75-.03-1.15-.06-1.13-1.01,.06-3.24,.06-6.48,0-9.72-.02-.93,.36-1,1.12-1.02,.86-.02,1.09,.25,1.06,1.09-.06,1.64-.02,3.29-.02,4.93Z"/><path class="cls-4" d="M297.1,7.5c1.11,.47,1.92,.95,2.8,1.17,1.47,.36,1.87,1.22,1.46,2.68-2.08-.93-4.17-1.84-6.23-2.81-.8-.38-.8-1.7,0-2.08,2.06-.97,4.15-1.87,6.23-2.81,.41,1.46,.02,2.31-1.46,2.68-.88,.22-1.7,.69-2.8,1.17Z"/><path class="cls-15" d="M277.9,11.34c-.41-1.48,.03-2.32,1.49-2.68,.85-.21,1.64-.67,2.77-1.15-1.08-.47-1.89-.92-2.76-1.16-1.42-.38-2.02-1.13-1.46-2.66,2.03,.91,4.12,1.81,6.18,2.77,.81,.38,.82,1.7,.01,2.08-2.06,.97-4.16,1.87-6.24,2.8Z"/><path class="cls-15" d="M132.07,27.62c0-1-.02-1.99,.01-2.99,.01-.33-.27-.91,.38-.91,.54,0,1.4-.36,1.57,.28,.26,.97,.49,.35,.79,.12,.48-.37,.99-.7,1.61-.71,.5,0,1.32-.11,1.24,.61-.06,.53,.11,1.55-1.18,1.46-1.49-.1-2.19,.72-2.27,2.31-.05,1.04-.08,2.09,0,3.13,.07,.96-.48,.87-1.11,.87-.63,0-1.17,.06-1.08-.89,.1-1.09,.02-2.19,.02-3.28Z"/><path class="cls-15" d="M320.96,7.82c0-.95-.04-1.89,.02-2.84,.02-.37-.33-1.05,.39-1.04,.53,.01,1.37-.54,1.62,.42,.2,.78,.42,.24,.63,.06,.46-.4,.97-.73,1.57-.79,.55-.06,1.4-.17,1.37,.61-.02,.53,.09,1.54-1.18,1.45-1.42-.1-2.15,.69-2.25,2.17-.07,1.09-.08,2.19,0,3.28,.07,.97-.51,.85-1.12,.86-.65,.01-1.15,.03-1.07-.91,.09-1.09,.02-2.19,.02-3.28Z"/><path class="cls-15" d="M57.36,4.88c.84-.71,1.55-1.37,2.59-1.26,.42,.04,1.07,.07,.88,.68-.15,.5,.09,1.35-.95,1.41-2,.12-2.45,.67-2.47,2.68-.01,.9-.07,1.8,.02,2.69,.09,.89-.35,.93-1.04,.94-.75,.01-1.19-.04-1.15-1,.08-1.94,0-3.89,.05-5.83,.01-.43-.47-1.22,.49-1.27,.68-.04,1.56-.32,1.58,.96Z"/><path class="cls-4" d="M505.76,4.96c.84-.69,1.47-1.37,2.44-1.35,.48,.01,1.19-.04,1.08,.64-.08,.53,.18,1.45-1.01,1.44-1.7-.02-2.3,.64-2.36,2.33-.04,.99-.07,1.99,0,2.98,.08,.95-.38,1-1.14,1.03-.85,.03-1.09-.24-1.07-1.08,.06-1.99,0-3.98,.03-5.97,0-.42-.29-1.1,.58-1.07,.66,.02,1.56-.34,1.44,1.05Z"/><path class="cls-3" d="M252.85,8.05c0,1-.07,2,.02,2.98,.09,1-.46,.97-1.17,.99-.71,.01-1.07-.1-1.04-.96,.06-2.09,.07-4.18,0-6.27-.03-.91,.43-.92,1.09-.9,.61,.02,1.2-.09,1.13,.87-.08,1.09-.02,2.19-.02,3.28Z"/><path class="cls-3" d="M192.17,7.96c0,.95-.04,1.89,.01,2.84,.04,.8-.03,1.27-1.07,1.24-.94-.02-1.17-.29-1.14-1.19,.07-1.99,.08-3.98,0-5.97-.04-.99,.45-.99,1.17-.99,.7,0,1.11,.08,1.05,.95-.08,1.04-.02,2.09-.02,3.13Z"/><path d="M159.05,27.83c0,.9-.04,1.79,.01,2.69,.05,.84-.01,1.33-1.13,1.32-1.09,0-1.04-.53-1.03-1.28,.02-1.99,.06-3.98-.01-5.97-.03-.91,.41-.94,1.08-.9,.59,.03,1.2-.15,1.11,.86-.1,1.09-.02,2.19-.02,3.28Z"/><path class="cls-3" d="M83.44,27.83c0,.9-.04,1.79,.01,2.69,.05,.87-.07,1.32-1.16,1.32-1.09,0-1.05-.53-1.04-1.28,.02-1.99,.06-3.98-.01-5.97-.03-.9,.41-.94,1.08-.91,.6,.03,1.2-.11,1.14,.87-.07,1.09-.02,2.19-.02,3.28Z"/><path d="M518.21,7.82c0-.95,.08-1.9-.02-2.84-.11-1,.34-1.09,1.19-1.12,.96-.03,1.01,.4,.99,1.15-.04,2.04-.08,4.08,.01,6.12,.04,1-.52,.84-1.11,.87-.66,.03-1.15,.02-1.08-.9,.08-1.09,.02-2.19,.02-3.28Z"/><path d="M30.77,27.86c0,.95-.08,1.9,.02,2.84,.1,1-.33,1.1-1.18,1.12-.95,.03-1.01-.39-1-1.14,.04-2.04,.08-4.08-.01-6.12-.04-.99,.51-.85,1.11-.87,.66-.03,1.15-.03,1.08,.9-.08,1.09-.02,2.19-.02,3.28Z"/><path d="M243.95,27.85c0,1-.07,2,.02,2.98,.1,1.02-.48,.94-1.17,.97-.75,.03-1.04-.14-1.01-.97,.06-2.09,.08-4.18,0-6.27-.04-.97,.48-.87,1.1-.88,.64-.02,1.16-.05,1.09,.89-.08,1.09-.02,2.19-.02,3.28Z"/><path class="cls-3" d="M66.05,27.84c0,1-.07,2,.02,2.98,.09,1-.46,.97-1.17,.99-.71,.01-1.07-.1-1.04-.96,.06-2.09,.07-4.18,0-6.27-.03-.91,.43-.92,1.09-.9,.61,.02,1.2-.09,1.13,.87-.08,1.09-.02,2.19-.02,3.28Z"/><path d="M335.09,9.3c-.94,0-1.89-.03-2.83,.01-.67,.03-.98-.12-.96-.88,.03-.69,.1-1.1,.96-1.07,1.98,.06,3.97,.05,5.96,0,.8-.02,.86,.37,.87,1,.01,.66-.1,1.01-.88,.96-1.04-.07-2.08-.02-3.13-.02Z"/><path d="M335.27,6.13c-.99,0-1.99-.05-2.98,.02-.84,.05-.96-.33-.98-1.05-.02-.74,.23-.92,.94-.91,1.98,.04,3.97,.05,5.96,0,.75-.02,.93,.25,.9,.94-.03,.61-.04,1.06-.85,1.02-.99-.06-1.98-.01-2.98-.01Z"/><path class="cls-9" d="M287.27,14.1c-.35-.36-1.13-.47-.67-1.02,.6-.73,.39-1.21-.05-1.91-.37-.58-.09-1.26,.55-1.65,.63-.39,1.24-.29,1.76,.21,.48,.48,.53,1.1,.21,1.64-.54,.93-1.18,1.8-1.8,2.72Z"/><path class="cls-3" d="M304.77,9.3c.97,.04,1.63,.99,1.2,1.92-.41,.89-1.04,1.68-1.58,2.51-.21,.32-.45,.26-.73,.06-.35-.25-.49-.48-.14-.83,.54-.55,.42-.98-.02-1.62-.62-.9,.18-2.09,1.27-2.05Z"/><path class="cls-17" d="M266.19,31.82c-.81-.17-1.36-.51-1.34-1.38,.02-.94,.6-1.34,1.45-1.32,.81,.02,1.33,.53,1.32,1.33,0,.9-.65,1.27-1.43,1.38Z"/><path class="cls-3" d="M519.21,.28c.93,.14,1.47,.6,1.42,1.49-.05,.8-.54,1.29-1.37,1.27-.9-.02-1.37-.53-1.34-1.44,.03-.86,.61-1.18,1.29-1.32Z"/><path class="cls-3" d="M159.37,21.51c-.12,.78-.51,1.31-1.35,1.32-.9,0-1.4-.47-1.4-1.38,0-.84,.5-1.31,1.31-1.33,.89-.02,1.34,.53,1.44,1.39Z"/><path class="cls-12" d="M82.37,20.08c.85,.15,1.39,.64,1.33,1.5-.05,.78-.56,1.28-1.4,1.25-.91-.03-1.36-.57-1.31-1.46,.04-.83,.59-1.2,1.38-1.29Z"/><path class="cls-9" d="M343.56,10.68c-.15,.86-.65,1.37-1.53,1.3-.77-.06-1.31-.51-1.28-1.36,.04-.92,.64-1.33,1.49-1.29,.82,.03,1.23,.56,1.31,1.36Z"/><path class="cls-3" d="M242.93,22.85c-.91-.06-1.42-.53-1.4-1.42,.02-.81,.54-1.31,1.34-1.31,.88,0,1.39,.51,1.37,1.42-.02,.83-.52,1.24-1.32,1.32Z"/><path class="cls-3" d="M29.81,22.84c-.93-.03-1.46-.49-1.46-1.38,0-.81,.5-1.32,1.3-1.35,.88-.03,1.41,.46,1.42,1.37,0,.83-.48,1.26-1.26,1.36Z"/><path class="cls-12" d="M253.15,1.66c-.11,.76-.46,1.33-1.3,1.38-.9,.05-1.43-.42-1.46-1.32-.03-.82,.45-1.34,1.24-1.4,.89-.07,1.34,.51,1.51,1.34Z"/><path class="cls-12" d="M64.99,20.08c.85,.15,1.39,.64,1.33,1.51-.06,.78-.57,1.28-1.4,1.24-.91-.04-1.36-.57-1.31-1.46,.05-.84,.6-1.2,1.38-1.29Z"/><path class="cls-17" d="M192.46,1.65c-.04,.78-.4,1.32-1.24,1.39-.89,.07-1.46-.42-1.5-1.29-.03-.86,.49-1.42,1.37-1.43,.81,0,1.26,.49,1.36,1.33Z"/><path class="cls-12" d="M64.49,69.82c.68,.09,1.09,.42,1.07,1.15-.02,.65-.32,1.02-.98,1.04-.69,.02-1.13-.31-1.16-1.03-.03-.73,.41-1.05,1.07-1.16Z"/><path class="cls-17" d="M129.88,69.84c.71,.04,1.11,.4,1.11,1.11,0,.61-.27,1.04-.95,1.07-.7,.03-1.15-.32-1.2-1-.05-.68,.36-1.08,1.03-1.17Z"/><path class="cls-5" d="M28.24,75.57c-5.67-.01-10.41-4.81-10.4-10.55,0-5.77,4.8-10.46,10.66-10.44,5.65,.02,10.34,4.85,10.33,10.62-.02,5.66-4.83,10.38-10.59,10.36Z"/><path class="cls-7" d="M270.25,7.83c-.01,1.26-.92,2.23-2.09,2.24-1.24,0-2.16-1.02-2.12-2.36,.04-1.25,1-2.21,2.17-2.16,1.17,.04,2.05,1.03,2.04,2.29Z"/><path class="cls-18" d="M40.66,5.64c1.24-.02,2.22,.99,2.23,2.29,0,1.31-.97,2.33-2.21,2.32-1.21-.01-2.08-.93-2.12-2.22-.04-1.36,.84-2.37,2.09-2.39Z"/><path class="cls-18" d="M570.59,7.98c-.02,1.31-1,2.31-2.24,2.28-1.25-.03-2.13-1.05-2.08-2.41,.05-1.29,.92-2.2,2.13-2.2,1.24,0,2.2,1.03,2.19,2.33Z"/><path class="cls-18" d="M116.57,25.44c1.24,0,2.2,1.04,2.18,2.34-.02,1.31-1.01,2.3-2.26,2.26-1.2-.04-2.05-.97-2.07-2.27-.02-1.36,.88-2.34,2.14-2.34Z"/><path class="cls-18" d="M4.46,25.44c1.25,.07,2.09,1.09,2.01,2.47-.08,1.36-1.05,2.24-2.34,2.14-1.18-.1-1.99-1.09-1.95-2.38,.04-1.34,1.01-2.29,2.28-2.22Z"/><path class="cls-18" d="M423.22,5.64c1.26,0,2.16,.98,2.14,2.34-.02,1.3-.87,2.23-2.07,2.27-1.3,.04-2.17-.87-2.19-2.27-.01-1.41,.83-2.34,2.12-2.34Z"/><path class="cls-18" d="M126.4,25.44c1.26,0,2.16,.99,2.13,2.35-.02,1.3-.88,2.23-2.08,2.26-1.3,.03-2.17-.88-2.18-2.28-.01-1.41,.84-2.34,2.12-2.33Z"/><path class="cls-18" d="M165.7,10.25c-1.24,0-2.18-1.04-2.15-2.36,.03-1.26,.93-2.22,2.11-2.25,1.25-.03,2.22,.97,2.23,2.29,0,1.32-.94,2.33-2.2,2.32Z"/><path class="cls-6" d="M488.86,10.25c-1.26,.03-2.23-.96-2.24-2.28-.01-1.32,.94-2.33,2.19-2.32,1.18,0,2.11,.95,2.15,2.21,.05,1.32-.87,2.37-2.11,2.4Z"/><path class="cls-8" d="M80.44,6.83h-3.88c.43-1.03,1.1-1.47,2.08-1.43,.92,.04,1.52,.49,1.8,1.43Z"/><path class="cls-8" d="M496.35,6.8c.34-.93,.97-1.37,1.88-1.39,.92-.02,1.61,.34,1.94,1.39h-3.83Z"/><path class="cls-8" d="M614.46,6.83h-3.81c.2-.96,.87-1.35,1.75-1.42,.98-.07,1.67,.36,2.06,1.42Z"/><path class="cls-8" d="M398.66,6.79c1.25-1.9,2.72-1.89,3.87,0h-3.87Z"/><path class="cls-8" d="M128.53,6.84h-3.86c.22-.97,.89-1.36,1.78-1.42,.99-.07,1.66,.38,2.08,1.42Z"/><path class="cls-8" d="M16.09,26.63h-3.86c.23-.97,.9-1.37,1.79-1.43,.99-.07,1.66,.39,2.07,1.43Z"/><path class="cls-8" d="M537.49,6.85h-3.88c.26-.92,.86-1.35,1.69-1.44,.98-.1,1.72,.28,2.18,1.44Z"/><path class="cls-8" d="M67.66,6.84h-3.86c.22-.98,.9-1.37,1.79-1.43,.99-.07,1.66,.39,2.07,1.43Z"/><path class="cls-8" d="M434.69,6.88h-3.86c.16-1.03,.86-1.38,1.72-1.47,.99-.1,1.67,.36,2.14,1.47Z"/><path class="cls-13" d="M177.42,6.83h-3.85c.39-.99,1.02-1.44,1.95-1.43,.92,0,1.57,.4,1.9,1.43Z"/><path class="cls-13" d="M601.73,6.87h-3.83c.21-1.04,.9-1.42,1.8-1.46,.93-.05,1.59,.36,2.03,1.46Z"/><path class="cls-10" d="M196.7,26.65h-3.81c.28-1.01,.92-1.43,1.83-1.45,.92-.03,1.61,.34,1.98,1.45Z"/><path class="cls-10" d="M373.51,6.87h-3.7c.27-1.09,.98-1.48,1.94-1.45,.9,.02,1.61,.37,1.76,1.45Z"/><path class="cls-2" d="M229.59,28.17c.6,.06,1.55-.02,1.56,.68,.01,.99-.84,1.56-1.84,1.58-.66,.01-1.35-.24-1.32-1.09,.04-.99,.81-1.13,1.61-1.18Z"/><path class="cls-2" d="M178.94,28.17c.59,.07,1.54-.02,1.54,.69,0,.99-.85,1.56-1.85,1.58-.66,0-1.35-.25-1.31-1.1,.04-.99,.82-1.12,1.63-1.17Z"/><path class="cls-2" d="M107.09,28.16c.5,.17,1.45-.08,1.42,.77-.03,.94-.84,1.46-1.77,1.5-.74,.03-1.47-.25-1.38-1.17,.09-.96,.9-1.06,1.74-1.1Z"/><path class="cls-13" d="M212.23,8.39c.43,.22,1.41-.17,1.35,.8-.06,.96-.88,1.42-1.79,1.46-.68,.03-1.39-.28-1.37-1.06,.03-1.03,.87-1.19,1.82-1.2Z"/><path class="cls-10" d="M621.49,8.37c.45,.24,1.44-.16,1.37,.82-.07,.96-.89,1.42-1.8,1.46-.68,.03-1.39-.28-1.37-1.06,.03-1.03,.88-1.17,1.8-1.21Z"/><path class="cls-18" d="M16.37,5.64c1.25,0,2.14,.99,2.12,2.35-.02,1.29-.87,2.23-2.06,2.26-1.27,.03-2.17-.91-2.19-2.28-.01-1.38,.86-2.33,2.13-2.33Z"/><path class="cls-18" d="M144.72,27.72c.01,1.36-.89,2.34-2.14,2.33-1.21-.01-2.07-.9-2.11-2.21-.04-1.37,.81-2.36,2.06-2.4,1.25-.04,2.18,.93,2.19,2.28Z"/><path class="cls-18" d="M315.32,10.25c-1.27,.01-2.15-.95-2.15-2.32,0-1.37,.9-2.32,2.17-2.29,1.2,.02,2.05,.94,2.08,2.24,.03,1.36-.85,2.36-2.1,2.37Z"/><path class="cls-11" d="M49.95,8.38c.44,.21,1.44-.15,1.37,.79-.07,.94-.87,1.45-1.81,1.48-.67,.02-1.39-.23-1.37-1.05,.02-1.07,.87-1.18,1.81-1.22Z"/><path class="cls-11" d="M87.3,8.37c.57,.13,1.52-.06,1.5,.74-.03,1.01-.89,1.54-1.89,1.53-.67,0-1.36-.3-1.29-1.13,.08-.97,.87-1.08,1.68-1.14Z"/><path class="cls-11" d="M50.83,28.17c.46,.19,1.44-.13,1.39,.78-.05,.94-.86,1.45-1.79,1.49-.67,.03-1.39-.21-1.39-1.03,0-1.08,.86-1.19,1.78-1.23Z"/><path class="cls-18" d="M148.21,7.99c-.02,1.29-1.04,2.31-2.25,2.26-1.24-.05-2.13-1.08-2.06-2.42,.06-1.28,.95-2.19,2.15-2.19,1.21,0,2.19,1.06,2.17,2.35Z"/><path class="cls-18" d="M249.77,30.05c-1.24,0-2.16-1.02-2.13-2.35,.03-1.34,.97-2.3,2.23-2.26,1.14,.04,2.07,1.05,2.09,2.28,.02,1.28-.97,2.34-2.18,2.33Z"/><path class="cls-18" d="M557.18,7.99c-.03,1.29-1.04,2.3-2.25,2.26-1.24-.05-2.13-1.08-2.06-2.42,.06-1.28,.95-2.19,2.15-2.19,1.21,0,2.19,1.07,2.17,2.35Z"/><path class="cls-7" d="M415.58,7.96c0,1.31-.98,2.32-2.21,2.3-1.22-.02-2.15-1.08-2.1-2.39,.04-1.26,.95-2.21,2.12-2.22,1.23-.01,2.2,1.01,2.19,2.32Z"/><path class="cls-7" d="M211.65,30.05c-1.24,.02-2.18-.99-2.18-2.31,0-1.32,.96-2.32,2.2-2.3,1.18,.02,2.08,.98,2.11,2.24,.04,1.31-.9,2.36-2.13,2.37Z"/><path class="cls-10" d="M581.63,8.39c.47,.12,1.39-.11,1.41,.72,.03,.98-.81,1.45-1.71,1.53-.74,.06-1.49-.26-1.44-1.13,.05-.92,.83-1.12,1.74-1.12Z"/><path class="cls-6" d="M112.94,67.87c.02,1.73-.95,2.9-2.46,2.95-1.52,.05-2.7-1.22-2.69-2.91,0-1.62,1.13-2.88,2.58-2.89,1.49,0,2.55,1.17,2.57,2.86Z"/><path class="cls-14" d="M143,68.14c1.24-1.81,2.29-3.34,3.34-4.88l.3,.07c0,1.42,0,2.83,0,4.25,0,.6-.44,.55-.84,.55-.84,0-1.67,0-2.8,0Z"/><path class="cls-18" d="M72.4,63.29v1.74q0,3.26-3.52,3.01l3.24-4.81,.27,.06Z"/><path class="cls-6" d="M123.5,66.22c1.31,0,2.25,.91,2.27,2.21,.02,1.38-.94,2.35-2.31,2.34-1.28-.01-2.29-.97-2.34-2.22-.04-1.27,1.04-2.33,2.38-2.33Z"/><path class="cls-7" d="M58.01,66.21c1.3-.02,2.31,.9,2.36,2.17,.05,1.35-.93,2.38-2.29,2.39-1.35,0-2.42-1.03-2.41-2.32,.02-1.18,1.09-2.21,2.34-2.23Z"/><path class="cls-7" d="M92.31,70.83c-.96,.02-1.79-.34-1.74-1.37,.06-1.26,1.19-1.54,2.19-1.51,.67,.02,1.74-.18,1.84,.97,.09,.91-1.17,1.89-2.3,1.91Z"/><path class="cls-16" d="M27.76,69.18c1.42,0,2.55,.03,3.68,0,.79-.03,.88,.4,.88,1.04,0,.64-.22,.88-.87,.87-1.75-.03-3.5,.02-5.24-.03-.48-.01-1.24,.35-1.4-.38-.16-.68-.24-1.43,.43-2.07,1.16-1.09,2.23-2.28,3.32-3.44,.34-.36,.69-.73,.95-1.15,.45-.72,.67-1.52-.09-2.16-.76-.65-1.56-.52-2.28,.16-.3,.29-.48,.85-1.06,.58-.45-.2-1.09-.35-1.26-.71-.18-.39,.27-.88,.61-1.26,1.29-1.42,3.78-1.72,5.33-.63,1.56,1.1,1.86,3.01,.76,4.92-.91,1.58-2.44,2.61-3.78,4.26Z"/></g></g></svg>