<?xml version="1.0" encoding="UTF-8"?><svg id="Layer_2" xmlns="http://www.w3.org/2000/svg" viewBox="0 0 643.84 116"><defs><style>.cls-1{fill:#fcfcfd;}.cls-2{fill:#2f528f;}.cls-3{fill:#f5f5f5;}.cls-4{fill:#040404;}.cls-5{fill:#020202;}.cls-6{fill:#4472c3;}.cls-7{fill:#fdfdfd;}.cls-8{fill:#fbfbfb;}.cls-9{fill:#f9f9f9;}.cls-10{fill:#050505;}.cls-11{fill:#f7f7f7;}.cls-12{fill:#f3f3f3;}.cls-13{fill:#070707;}.cls-14{fill:#f8f8f8;}.cls-15{fill:#010101;}.cls-16{fill:#060606;}.cls-17{fill:#fcfcfc;}</style></defs><g id="Layer_1-2"><g><path class="cls-6" d="M429.4,113.53c-.54-.04-1.09-.11-1.63-.11-121.14,0-242.29,0-363.43,0-.54,0-1.09,.07-1.63,.11-.56,.7,.4,1.77-.58,2.37-2.86-.92-5.72-1.84-8.57-2.76v-.3l8.57-2.78c.99,.59,.02,1.66,.58,2.36,.54,.04,1.09,.11,1.63,.11,121.14,0,242.29,0,363.43,0,.54,0,1.09-.07,1.63-.11,.41-.74-.06-1.59,.28-2.33,2.8,.91,5.59,1.83,8.39,2.74-2.82,1.21-5.53,2.33-8.4,3.01-.31-.74,.12-1.56-.27-2.29Z"/><path class="cls-2" d="M16.53,64.76c-.15-6.62,5.4-12.13,12.11-11.88,6.79,.25,11.8,5.21,11.81,12.01,0,6.93-5.63,11.81-12.07,11.98-6.37,.17-12.25-5.81-11.85-12.11Z"/><path class="cls-15" d="M264.15,6.66c.5-2.33,2.84-3.73,4.87-2.68,1,.52,1.7-.22,2.55-.04,.48,.1,1.01-.07,.97,.73-.14,2.68,.27,5.38-.25,8.04-.34,1.72-1.55,2.88-3.26,3.2-1.7,.31-3.8-.48-4.62-1.71-.22-.33-.35-.8,.05-.84,.68-.06,1.14-1.05,1.97-.39,1.94,1.53,2.57,1.43,3.81-.52q.19-.85-.34-1.01c-2.84,1.5-5.32,.15-5.74-2.4-.16-.8-.16-1.59,0-2.39Z"/><path d="M34.84,12.06q-2.06-.01-2.06-2.01c0-.85-.01-1.7,0-2.54,.02-1.03-.53-1.7-1.49-1.76-1.04-.07-1.42,.82-1.54,1.67-.11,.83-.03,1.69-.03,2.54q0,2.1-2.09,2.09c-.33-1.27-.08-2.56-.16-3.84-.04-.54,.13-1.09-.13-1.61-.41-.69-.97-1.11-1.79-.84-.66,.22-1.01,.71-.94,1.44-.4,1.6,.14,3.25-.29,4.85q-2.09,0-2.09-2.08c0-1.59,0-3.19,0-4.78,0-1.19,.76-1.82,1.69-1.13,.69,.52,.96,.13,1.37-.04,1.55-.65,2.89-.45,3.98,.88,1.99-2,4.29-1.63,5.62,.87,.1,2.1,.18,4.2-.05,6.3Z"/><path d="M199.45,6.6c-.41-.69-.97-1.11-1.79-.84-.66,.22-1.01,.71-.94,1.44-.4,1.6,.14,3.25-.29,4.85q-2.09,0-2.09-2.08c0-1.59,0-3.18,0-4.78,0-1.19,.76-1.82,1.69-1.13,.69,.52,.95,.13,1.37-.04,1.65-.66,2.56-.48,4,.86,1.97-1.98,4.27-1.61,5.6,.89,.1,2.1,.18,4.2-.05,6.3q-2.06-.01-2.06-2.01c0-.85-.01-1.7,0-2.54,.02-1.04-.53-1.7-1.5-1.76-1.04-.07-1.42,.82-1.54,1.67-.11,.83-.03,1.69-.03,2.54q0,2.1-2.09,2.09c-.33-1.27-.08-2.56-.16-3.84-.04-.54,.13-1.09-.13-1.61Z"/><path d="M45.6,31.85c-2.09,0-2.07,0-2.09-2.08,0-.99-.02-1.98-.11-2.97-.07-.78-.51-1.32-1.35-1.28-.92,.04-1.43,.65-1.52,1.51-.1,.89-.06,1.79-.06,2.68q0,2.14-2.07,2.15c-.37-1.7,.13-3.44-.27-5.14-.15-.97-.88-1.25-1.67-1.16-.91,.11-1.23,.92-1.32,1.71-.09,.83-.02,1.68-.02,2.52q0,2.07-2.09,2.06c-.26-2.7-.26-5.39,0-8.09,.63,.2,1.47-.49,1.94,.53,.11,.24,.46-.21,.71-.33,1.27-.65,2.53-.78,3.73,.17,.31,.25,.45,.64,1.04,.19,2.16-1.66,4.11-1.05,5.22,1.54,.09,2,.23,4-.07,5.99Z"/><path class="cls-15" d="M161.33,23.75c.62,.23,1.46-.49,1.95,.51,.14,.29,.47-.16,.71-.28,1.32-.71,2.62-.84,3.77,.34,.36,.37,.62,.57,1.05,.06,.97-1.16,2.2-1.12,3.48-.63,1.31,.51,1.59,1.67,1.65,2.89,.06,1.29-.07,2.59,.04,3.88,.09,1.12-.25,1.56-1.37,1.35-.24-.05-.5,0-.74-.01-.42-1.83,.08-3.71-.28-5.55-.47-.48-.91-1.04-1.72-.72-.78,.3-1.09,.88-1.05,1.69-.35,1.52,.1,3.07-.25,4.59q-2.06-.01-2.06-2.01c0-.85,0-1.69,0-2.54,.01-1.01-.45-1.71-1.46-1.78-1.04-.07-1.47,.75-1.58,1.63-.11,.83-.07,1.69-.07,2.54q0,2.15-2.07,2.16c-.2-2.7-.2-5.4,0-8.11Z"/><path class="cls-15" d="M480.71,6.5c-.47-.49-.91-1.04-1.72-.72-.78,.3-1.09,.88-1.05,1.69-.35,1.52,.1,3.08-.25,4.59q-2.06,0-2.06-2.01c0-.85,0-1.69,0-2.54,.01-1.01-.45-1.71-1.46-1.78-1.04-.06-1.47,.75-1.58,1.63-.11,.83-.07,1.69-.07,2.54q0,2.15-2.07,2.16c-.2-2.7-.2-5.4,0-8.11,.62,.23,1.46-.49,1.95,.51,.14,.29,.47-.16,.71-.28,1.32-.71,2.62-.84,3.77,.34,.36,.37,.62,.57,1.05,.06,.97-1.16,2.2-1.12,3.48-.63,1.31,.51,1.59,1.67,1.65,2.89,.06,1.29-.07,2.59,.04,3.88,.09,1.12-.25,1.56-1.37,1.35-.24-.05-.5,0-.74-.01-.42-1.83,.08-3.71-.28-5.55Z"/><path class="cls-15" d="M356.22,.36c2.12,0,2.17,.01,2.11,2.08-.07,2.23,.34,4.49-.29,6.69-.67,2.37-2.73,3.57-5.32,3.15-2.17-.35-3.66-2.26-3.62-4.57,.03-2.1,.05-4.2-.01-6.3-.03-.87,.26-1.09,1.1-1.08,.82,.01,1.28,.06,1.23,1.1-.09,2.04-.02,4.1-.03,6.15,0,1.34,.49,2.36,1.88,2.66,1.28,.28,2.19-.45,2.69-2.03,.3-2.02,.05-4.06,.14-6.09,.03-.59-.12-1.19,.12-1.77Z"/><path d="M.26,26.76c.6-3.2,3.63-4.18,6.07-2.48,.44-1.35-.13-2.78,.31-4.12q2.09,0,2.09,2.09c0,2.79,0,5.58,0,8.37,0,1.17-.83,1.84-1.7,1.13-.8-.65-1.1-.18-1.65,.08-2.14,1.03-4.26-.22-5.12-2.99-.11-.69-.11-1.39,0-2.08Z"/><path class="cls-15" d="M170.03,12.05c-1.4,.09-2.75-.31-4.23,.21-1.65,.58-3.92-.94-4.21-3.51-.13-.5-.13-.99,0-1.49,.47-3.28,2.91-4.35,6.35-2.73,0-.71,0-1.39,0-2.07q0-2.1,2.09-2.09c.36,3.01,.08,6.03,.14,9.04,.02,.88,.18,1.78-.14,2.64Z"/><path class="cls-15" d="M38.74,15.66q-2.07,0-2.07-2.15c0-2.84,.03-5.67-.02-8.51-.02-.87,.28-1.23,1.09-1.03,1.02,.25,1.94,0,2.92-.22,1.62-.36,2.93,.4,3.8,1.72,1.03,1.56,1.04,3.28,.12,4.89-.79,1.37-2.07,2.09-3.7,1.96-.57-.05-1.17-.13-1.62-.56-.62-.03-.36,.45-.38,.72-.09,1.06,.13,2.13-.13,3.18Z"/><path class="cls-15" d="M566.45,15.66q-2.06,0-2.06-2.02c0-2.8,.05-5.6-.03-8.4-.03-1.05,.29-1.54,1.31-1.27,.88,.23,1.65,.04,2.49-.19,1.63-.45,2.91,.29,3.91,1.51,1.03,1.27,1.15,3.61,.25,5.04-.85,1.35-2.07,2.12-3.72,1.98-.57-.05-1.17-.13-1.63-.56-.62-.03-.36,.45-.38,.72-.09,1.06,.13,2.13-.13,3.18Z"/><path class="cls-15" d="M114.6,35.45q-2.07,0-2.07-2.15c0-2.84,.03-5.67-.02-8.51-.02-.87,.28-1.23,1.09-1.03,1.02,.25,1.94,0,2.92-.22,1.62-.36,2.93,.4,3.8,1.72,1.03,1.56,1.04,3.28,.12,4.89-.79,1.37-2.07,2.09-3.7,1.96-.57-.05-1.17-.13-1.62-.56-.62-.03-.36,.45-.38,.72-.09,1.06,.13,2.13-.13,3.18Z"/><path d="M124.45,35.44q-2.09,0-2.09-2.08c0-2.74,0-5.47,0-8.21,0-1.36,.67-1.94,1.83-1.32,.51,.27,.66,.18,1.06,0,1.76-.82,4.45-.5,5.58,2.93,.11,.69,.11,1.39,0,2.08-1.41,3.22-3.13,3.99-6.08,2.73-.45,1.26,.15,2.61-.31,3.88Z"/><path d="M421.29,15.65q-2.09,0-2.09-2.08c0-2.74,0-5.47,0-8.21,0-1.36,.67-1.94,1.83-1.32,.51,.27,.66,.18,1.06,0,1.75-.81,4.45-.5,5.58,2.93,.11,.69,.11,1.39,0,2.08-1.41,3.22-3.14,3.99-6.08,2.73-.45,1.26,.15,2.61-.31,3.88Z"/><path class="cls-15" d="M493.33,8.75c-1.16,3-2.31,3.84-4.83,3.53-.05,0-.12,.03-.15,0-1.08-1.15-2.32-.04-3.47-.24-.36-2.91-.09-5.83-.14-8.75-.02-.98-.21-1.98,.14-2.94q2.09,0,2.09,2.08c0,.68,0,1.37,0,2.08,2.63-1.88,5.52-.59,6.35,2.73,.13,.5,.13,.99,0,1.49Z"/><path class="cls-15" d="M.29,6.17C.19,3.59,1.43,1.75,3.65,.7c2.22-1.05,4.49-.98,6.52,.65,.34,.28,1.02,.51,.27,1.04-.47,.34-.69,1.42-1.61,.6-.53-.48-1.16-.76-1.88-.83-1.78-.16-3.43,.8-4.09,2.4-.71,1.72-.2,3.75,1.22,4.87,1.35,1.07,3.21,1.07,4.75,.1,.35-.22,.52-1.07,1.29-.44,1.22,1,1.26,1.2-.07,2.08-3.83,2.54-8.14,.92-9.49-3-.22-.63-.19-1.34-.28-2.01Z"/><path class="cls-15" d="M389.55,12.06q-2.07,0-2.07-2.13c0-2.48,0-4.96,0-7.44q0-2.12,2.07-2.13c.26,1.06,.04,2.14,.13,3.21,.02,.27-.23,.77,.41,.69,2.71-1.56,5.28-.1,5.13,3.34-.03,.79,0,1.59,0,2.38q0,2.08-2.09,2.07c-.33-1.26-.07-2.55-.16-3.82-.04-.53,.14-1.09-.14-1.6-.49-.66-1.13-1.15-1.95-.81-.75,.32-1.24,.96-1.09,1.88-.36,1.44,.09,2.92-.25,4.36Z"/><path class="cls-15" d="M109.5,12.06q-2.06,0-2.06-2.01c0-.8-.03-1.6,0-2.39,.05-1.08-.56-1.73-1.48-1.92-1.12-.24-1.63,.63-1.79,1.55-.16,.87-.09,1.78-.09,2.68,0,2.1,0,2.1-2.09,2.09-.36-2.91-.09-5.83-.14-8.75-.02-.98-.21-1.98,.14-2.94q2.15,0,2.07,4.13c1.03-.66,2.1-1.04,3.27-.77,1.23,.29,1.85,1.21,2.22,2.34,.08,2,.18,4-.06,6Z"/><path class="cls-15" d="M636,.36q2.15,0,2.07,4.13c1.03-.66,2.1-1.04,3.27-.77,1.23,.29,1.85,1.21,2.22,2.34,.08,2,.18,4-.06,5.99q-2.06,0-2.06-2.01c0-.8-.03-1.6,0-2.39,.05-1.08-.56-1.73-1.48-1.92-1.12-.24-1.63,.63-1.79,1.55-.16,.87-.09,1.78-.09,2.68,0,2.1,0,2.1-2.09,2.09-.35-2.91-.09-5.83-.14-8.75-.02-.98-.21-1.98,.14-2.94Z"/><path class="cls-15" d="M76.56,8.46c.89,2.09,2.07,2.5,3.63,1.22,.94-.77,1.57,.04,2.07,.4,.52,.37-.26,.78-.56,1.08-1.51,1.51-4.46,1.69-5.91,.29-1.33-1.28-2.18-4.2-.34-6.5,1.14-1.43,3.95-1.75,5.66-.54,1.18,.84,1.49,2.15,1.61,3.49,.07,.77-.55,.54-.94,.55-.85,.03-1.7,0-2.55,0-.85,0-1.7,0-2.67,0Z"/><path class="cls-15" d="M496.3,8.46c.97,2.1,2.08,2.45,3.7,1.2,1-.78,1.46,.39,2.26,.39-1.16,1.91-3.01,2.71-5.11,2.26-1.23-.26-2.72-1.95-2.91-3.3-.31-2.19,.42-3.95,1.96-4.76,2.91-1.51,5.78-.09,6.29,3.09,.13,.79-.04,1.18-.98,1.14-1.7-.07-3.4-.02-5.21-.02Z"/><path class="cls-15" d="M610.62,8.46c.71,2.03,2.06,2.55,3.53,1.27,.93-.81,1.59-.06,2.06,.31,.6,.47-.24,.87-.55,1.18-1.52,1.48-4.54,1.6-5.91,.18-1.31-1.35-2.06-4.19-.32-6.39,1.15-1.45,3.89-1.82,5.64-.63,1.2,.81,1.51,2.12,1.68,3.46,.09,.74-.45,.63-.88,.63-1.74,0-3.48,0-5.24,0Z"/><path class="cls-15" d="M179.62,8.45c-1.7,0-3.39,0-5.09,.01-.28,0-.64-.14-.82,.15-.22,.37,.11,.67,.29,.94,.73,1.09,1.92,1.27,3.29,.23,.68-.52,1.05-.24,1.56,0,.66,.31,.54,.69,.14,1.16-1.11,1.32-3.82,1.85-5.5,1.07-1.38-.65-2.39-3.07-1.96-4.72,.65-2.5,1.61-3.43,3.72-3.61,2.1-.18,3.39,.78,4.44,3.3,.09,.5,.21,1.01-.07,1.49Z"/><path class="cls-15" d="M603.89,8.45c-1.7,0-3.39,0-5.09,.01-.28,0-.64-.14-.82,.15-.22,.37,.11,.67,.29,.94,.73,1.09,1.93,1.27,3.29,.23,.68-.52,1.05-.24,1.56,0,.66,.31,.54,.69,.14,1.16-1.11,1.31-3.82,1.86-5.5,1.07-1.38-.64-2.39-3.07-1.96-4.72,.65-2.51,1.61-3.44,3.72-3.61,2.1-.18,3.39,.78,4.44,3.3,.09,.5,.21,1.01-.07,1.49Z"/><path class="cls-15" d="M226.05,28.56c.42-1.15,1.34-1.65,2.47-1.87,.6-.12,1.19-.14,1.79,.01,.33,.08,.71,.31,.95-.07,.22-.35-.2-.5-.38-.7-.83-.9-1.76-1.1-2.71-.21-.91,.86-1.46,.02-1.86-.49-.48-.62,.26-.9,.7-1.14,3.37-1.9,6.54-.08,6.55,3.73,0,.85-.12,1.72,.03,2.54,.28,1.57-.66,1.69-1.71,1.45-.8-.18-1.42-.06-2.17,.22-1.38,.52-2.93-.29-3.62-1.69-.18-.59-.14-1.19-.02-1.79Z"/><path class="cls-15" d="M175.38,28.56c.42-1.15,1.34-1.65,2.47-1.87,.6-.12,1.19-.14,1.79,.01,.33,.08,.71,.31,.95-.07,.22-.35-.2-.5-.38-.7-.83-.9-1.76-1.1-2.71-.21-.91,.86-1.46,.02-1.86-.49-.48-.62,.27-.9,.7-1.14,3.37-1.9,6.55-.08,6.55,3.74,0,.85-.12,1.72,.03,2.54,.28,1.57-.66,1.69-1.71,1.45-.8-.18-1.42-.06-2.17,.22-1.38,.52-2.93-.29-3.62-1.69-.18-.59-.14-1.19-.02-1.79Z"/><path class="cls-15" d="M87.88,6.89c.36,.05,.8,.38,.94-.28,.09-.41-.1-.69-.44-.85-.83-.39-1.76-.63-2.47,.08-.98,.98-1.66-.01-1.99-.45-.6-.77,.55-.94,.89-1.11,1.55-.78,3.16-.92,4.79-.05,1.48,.79,1.6,2.12,1.59,3.54,0,1,0,2,0,3,0,1.19-1.16,1.98-1.92,1.16-.68-.74-.83-.18-1.21,.03-1.89,1.04-3.79,.29-4.35-1.71-.48-1.72,.2-2.68,2.39-3.34,.6-.15,1.19-.13,1.79-.01Z"/><path class="cls-15" d="M50.4,6.89c.36,.05,.8,.38,.93-.28,.09-.41-.1-.69-.45-.85-.89-.42-1.81-.59-2.6,.17-.95,.91-1.5-.16-1.88-.54-.58-.58,.33-.72,.67-.93,1.57-.98,3.19-1.08,4.9-.28,1.59,.74,1.73,2.12,1.72,3.6,0,1,.02,2-.01,2.99-.01,.42,.25,1.09-.21,1.22-.56,.16-1.41,.37-1.8-.15-.41-.55-.54-.3-.89-.06-1.21,.84-2.49,.83-3.71,.08-.91-.56-1.27-1.66-1.11-2.55,.24-1.29,1.14-2.26,2.63-2.4,.6-.15,1.19-.13,1.79-.01Z"/><path class="cls-15" d="M51.3,26.69c.36,.05,.8,.38,.94-.28,.09-.41-.1-.69-.44-.85-.83-.39-1.76-.63-2.47,.08-.98,.98-1.66-.01-1.99-.45-.6-.77,.55-.94,.89-1.11,1.55-.78,3.16-.92,4.79-.05,1.48,.79,1.6,2.12,1.59,3.54,0,1,0,2,0,3,0,1.19-1.16,1.98-1.92,1.16-.68-.74-.83-.18-1.21,.03-1.89,1.04-3.79,.29-4.35-1.71-.48-1.72,.2-2.68,2.39-3.34,.6-.15,1.19-.13,1.79-.01Z"/><path class="cls-15" d="M103.42,28.56c.42-1.15,1.34-1.65,2.47-1.87,.6-.12,1.19-.14,1.79,.01,.33,.08,.71,.31,.95-.07,.22-.35-.2-.5-.38-.7-.83-.9-1.76-1.1-2.71-.21-.91,.86-1.46,.02-1.86-.49-.48-.62,.27-.9,.7-1.14,3.37-1.9,6.55-.08,6.55,3.74,0,.85-.12,1.72,.03,2.54,.28,1.57-.66,1.69-1.71,1.45-.8-.18-1.42-.06-2.17,.22-1.38,.52-2.93-.29-3.62-1.69-.18-.59-.14-1.19-.02-1.79Z"/><path class="cls-15" d="M198.85,28.26h-5.96c.6,2.13,2.02,2.7,3.52,1.33,1-.91,1.66-.09,2.15,.32,.34,.28-.38,.95-.81,1.31-1.56,1.27-4.28,1.26-5.7,0-1.45-1.29-1.86-4.15-.54-6.19,.91-1.41,3.41-2.03,5.2-1.22,1.14,.52,1.77,1.51,2.19,2.66,.1,.6,.17,1.2-.05,1.8Z"/><path class="cls-15" d="M375.75,8.46c-1.89,0-3.78,0-5.68,0-.09,0-.18,.06-.26,.09,.57,2.04,1.99,2.61,3.49,1.24,1-.91,1.66-.09,2.15,.32,.34,.28-.38,.95-.81,1.31-1.56,1.27-4.28,1.26-5.7,0-1.45-1.29-1.85-4.16-.54-6.19,.91-1.41,3.41-2.03,5.2-1.22,1.14,.52,1.77,1.51,2.19,2.66,.1,.6,.17,1.2-.05,1.8Z"/><path class="cls-15" d="M625.18,12.05c-.75-.15-1.62,.39-2.27-.54-.21-.3-.59,.39-.95,.53-1.21,.46-2.41,.57-3.46-.31-.87-.73-1.01-2.47-.47-3.6,.49-1.03,1.52-.96,2.37-1.26,.5-.1,.99-.11,1.49,0,.38,.06,.74,.33,1.14,.07-.75-1.67-1.76-2.14-3.14-1.06-1.13,.89-1.27-.46-1.92-.5,.07-.54,.48-.85,.86-1.11,2.3-1.54,5.32-.55,6.43,2.07,.07,1.9,.23,3.8-.08,5.69Z"/><path class="cls-15" d="M212.61,6.89c.37,.09,.74,.28,1.15,.11-.76-1.7-1.78-2.18-3.16-1.1-1.13,.89-1.27-.46-1.92-.5,.07-.54,.48-.85,.86-1.11,2.3-1.54,5.32-.55,6.43,2.07,.07,1.9,.23,3.8-.08,5.69-.75-.15-1.62,.39-2.27-.54-.21-.3-.59,.39-.95,.53-1.21,.46-2.41,.57-3.46-.31-.87-.73-1.01-2.47-.47-3.6,.49-1.03,1.52-.96,2.37-1.26,.5-.1,.99-.11,1.49,0Z"/><path class="cls-15" d="M61.73,6.96c1.01-3,3.57-4.11,6.19-2.74,1.48,.77,1.8,2.1,1.98,3.56,.08,.68-.32,.69-.81,.68-1.49-.02-2.99,.01-4.48-.01-.88-.01-.93,.35-.5,.97,.61,.89,1.95,1.55,3,.49,.3-.31,.62-.73,1.14-.48,.46,.22,1.07,.43,1.27,.82,.18,.36-.45,.7-.76,.99-2.44,2.29-6.01,1.17-7.02-2.19-.12-.7-.12-1.39,0-2.09Z"/><path class="cls-15" d="M122.6,6.96c1-3,3.57-4.11,6.19-2.74,1.48,.77,1.8,2.1,1.98,3.56,.08,.68-.32,.69-.81,.68-1.49-.02-2.99,.01-4.48-.01-.88-.01-.93,.35-.5,.97,.61,.89,1.95,1.55,3,.49,.3-.31,.62-.73,1.14-.49,.46,.22,1.07,.43,1.27,.82,.18,.36-.45,.7-.76,.99-2.44,2.29-6.01,1.17-7.02-2.19-.12-.7-.12-1.39,0-2.09Z"/><path class="cls-15" d="M10.16,26.76c1-3,3.57-4.11,6.19-2.74,1.48,.77,1.8,2.1,1.98,3.56,.08,.68-.32,.69-.81,.68-1.49-.02-2.99,.01-4.48-.01-.88-.01-.93,.35-.5,.97,.61,.89,1.95,1.55,3,.49,.3-.31,.62-.73,1.14-.49,.46,.22,1.07,.43,1.27,.82,.18,.36-.45,.7-.76,.99-2.44,2.29-6.01,1.17-7.02-2.19-.12-.7-.12-1.39,0-2.09Z"/><path class="cls-15" d="M428.73,6.96c1-3,3.57-4.11,6.19-2.74,1.48,.77,1.8,2.1,1.98,3.56,.08,.68-.32,.69-.81,.68-1.49-.02-2.99,.01-4.48-.01-.88-.01-.93,.35-.5,.97,.61,.89,1.95,1.55,3,.49,.3-.31,.62-.73,1.14-.49,.46,.22,1.07,.43,1.27,.82,.18,.36-.45,.7-.76,.99-2.44,2.29-6.01,1.17-7.02-2.19-.12-.7-.12-1.39,0-2.09Z"/><path class="cls-15" d="M531.58,6.96c1-3,3.57-4.11,6.19-2.74,1.48,.77,1.8,2.1,1.98,3.56,.08,.68-.32,.69-.81,.68-1.49-.02-2.99,.01-4.48-.01-.88-.01-.93,.35-.5,.97,.61,.89,1.95,1.55,3,.49,.3-.31,.62-.73,1.14-.48,.46,.22,1.07,.43,1.27,.83,.18,.36-.45,.7-.76,.99-2.44,2.29-6.01,1.17-7.02-2.19-.12-.7-.12-1.39,0-2.09Z"/><path class="cls-15" d="M396.65,6.96c1-3,3.57-4.11,6.19-2.74,1.48,.77,1.8,2.1,1.98,3.56,.08,.68-.32,.69-.81,.68-1.49-.02-2.99,.01-4.48-.01-.88-.01-.93,.35-.5,.97,.61,.89,1.95,1.55,3,.49,.3-.31,.62-.73,1.14-.48,.46,.22,1.07,.43,1.26,.83,.18,.36-.45,.7-.76,.99-2.44,2.29-6.01,1.17-7.02-2.19-.12-.7-.12-1.39,0-2.09Z"/><path class="cls-15" d="M582.01,6.88l1.26,.33c-.39-1.55-1.57-2.21-2.79-1.57-.4,.21-.73,.43-1.22,.41-.55-.02-.84-.33-1.01-.73-.19-.45,.23-.75,.52-.96,2.12-1.55,5.44-.68,6.61,1.71,.08,2,.18,4-.06,5.99-.69-.26-1.6,.52-2.18-.52-.13-.24-.63,.27-.95,.45-1.09,.62-2.89,.39-3.68-.49-.8-.9-.95-2.51-.17-3.6,.54-.76,1.4-.77,2.17-1.02,.49-.12,.99-.11,1.49,0Z"/><path class="cls-15" d="M249.54,32.14c-2.33,.11-4.06-1.98-3.86-4.61,.19-2.57,1.47-4.08,4.29-4.07,2.49,.01,4.43,2.05,4.32,4.48-.11,2.54-2.05,4.26-4.74,4.2Z"/><path class="cls-15" d="M145.83,12.35c-2.38,.15-4.07-2.04-3.9-4.58,.17-2.57,1.49-4.11,4.26-4.1,2.5,0,4.44,2.01,4.36,4.45-.08,2.54-2.03,4.29-4.71,4.24Z"/><path class="cls-15" d="M554.84,12.35c-2.42,.15-4.09-2.04-3.94-4.55,.16-2.59,1.48-4.13,4.22-4.14,2.5,0,4.45,1.97,4.4,4.41-.05,2.53-2.01,4.32-4.68,4.28Z"/><path class="cls-15" d="M138.51,27.06c.26-1.91,1.44-3.18,3.28-3.52,2.01-.37,3.88,.47,4.76,2.14,.18,.35,.32,.72,.48,1.08,.13,.7,.13,1.39,0,2.09-1.3,2.9-2.94,3.76-5.81,3.05-1.44-.35-2.46-1.63-2.7-3.35-.14-.5-.14-.99,0-1.49Z"/><path class="cls-15" d="M319.72,9.05c-1.3,2.9-2.94,3.76-5.81,3.05-1.44-.36-2.46-1.63-2.7-3.35-.14-.5-.14-.99,0-1.49,.26-1.91,1.44-3.18,3.28-3.52,2.01-.37,3.88,.47,4.76,2.14,.18,.35,.32,.72,.48,1.08,.13,.7,.13,1.39,0,2.09Z"/><path class="cls-15" d="M409.31,7.99c-.06-2.95,1.86-4.42,4.25-4.31,2.97,.14,4.05,1.66,4.33,4.27,.25,2.4-1.89,4.42-4.36,4.4-2.42-.02-4.29-1.44-4.22-4.37Z"/><path class="cls-15" d="M207.52,27.8c-.07-2.94,1.82-4.34,4.23-4.35,2.46-.01,4.6,2.02,4.34,4.41-.28,2.63-1.39,4.14-4.34,4.26-2.4,.1-4.3-1.38-4.24-4.32Z"/><path class="cls-15" d="M20.79,9.05c-1.32,2.95-3,3.77-6.01,3.02-1.19-.3-1.77-1.23-2.25-2.14-.98-1.87,.16-5.05,1.97-5.88,2.23-1.03,4.83-.11,5.91,2.1,.13,.27,.25,.54,.37,.81,.13,.7,.13,1.39,0,2.09Z"/><path class="cls-15" d="M148.15,60.58c2.03,.86,2.94,2.53,3.38,4.56,.1,.9,.12,1.79-.01,2.69-.67,1.85-1.21,3.74-3.55,4.26-2.19,.49-3.69-.08-4.67-2.11-1.28-2.67-1.2-5.32,.34-7.89,.55-.92,1.47-1.25,2.42-1.53,.7-.1,1.39-.13,2.09,.02Z"/><path class="cls-15" d="M72.59,60.57c3.84,1.22,4.28,7.15,2.34,9.83-1.22,1.68-2.91,2.31-4.96,1.64-1.87-.62-2.4-2.23-2.83-3.9-.15-1.09-.12-2.19-.02-3.29,.44-1.97,1.14-3.74,3.38-4.27,.7-.12,1.39-.12,2.09,0Z"/><path class="cls-15" d="M115.48,60.32c0,3.54,0,7.07,0,10.61,0,1.35-.23,1.48-1.44,.67-.44-.29-.61-.02-.89,.11-2.21,.99-3.69,.75-4.86-.73-1.28-1.62-1.21-4.59,.13-6.11,1.19-1.35,2.8-1.52,4.95-.46,.13,.06,.26,.1,.62,.23v-4.31c.5-.19,1.01-.19,1.51,0Z"/><path class="cls-5" d="M135.63,62.73l-.1,1.12c-.13,.44-.27,.88,.03,1.3,1.93-.66,3.58-.31,4.59,.97,1.03,1.3,1.08,3.1,.13,4.55-.78,1.19-2.97,2.01-4.52,1.56-1.01-.29-1.59-1.22-2.29-1.95,.4-.34-.88-.81,.19-1.27,.84-.36,1.01-.06,1.26,.5,.44,.98,1.21,1.4,2.25,1.31,1.1-.1,1.8-.84,2.15-1.76,.31-.81-.09-1.61-.71-2.22-.86-.85-1.94-.8-2.83-.26-.77,.46-1.37,.41-2.04,.02-.78-.46,.13-.92,.04-1.39-.19-1.04,.38-2.01,.28-3.03-.11-1.19,.42-1.58,1.56-1.5,1.09,.07,2.21,.11,3.29,0,1.15-.12,1.54,.32,1.4,1.4-1.07,.47-2.2,.09-3.29,.22-.5,.06-1.11-.24-1.41,.45Z"/><path class="cls-5" d="M83.42,67.74c-.8-1.49-2.1-1.95-3.53-1.11-.69,.41-1.26,.36-1.88,0-.29-.48-.17-.99-.07-1.49,.13-1.21,.33-2.42,.35-3.63,.02-.69,.24-.84,.86-.83,1.7,.02,3.39-.02,5.09-.03,.36,1.6,.35,1.59-1.15,1.64-1.07,.04-2.16-.18-3.22,.15-.27,.85-.52,1.69-.29,2.7,1.27-.4,2.58-.6,3.76,.17,.88,.58,1.52,1.39,1.76,2.48,.42,1.89-.82,3.73-2.87,4.33-2.18,.64-3.98-.52-4.57-2.17-.2-.57-.06-.84,.43-1.03,.38-.15,.6-.18,.9,.31,1.35,2.21,2.72,2.21,4.41,.1,.28-.53,.18-1.06,.03-1.6Z"/><path class="cls-15" d="M233.32,3.96q2.09,0,2.09,2.09c0,.7,0,1.4,0,2.1,0,.96-.09,1.99,1.25,2.14,.93,.11,1.99-.94,2.08-2.08,.06-.74,.02-1.5,.02-2.24q0-2,2.06-2.01c.2,2.7,.2,5.4,0,8.11-.71-.25-1.67,.53-2.2-.54-.01-.02-.42,.13-.63,.23-2.79,1.36-4.37,.56-4.75-2.4-.1-1.8-.23-3.6,.07-5.39Z"/><path class="cls-15" d="M257.02,12.06q-2.06,0-2.06-2.15c0-1.69,0-3.38,0-5.08,0-.37-.14-.93,.49-.85,.51,.07,1.27-.45,1.52,.36,.17,.54,.07,.52,.49,.12,1.01-.95,2.24-1.05,3.52-.49,1.32,.58,1.61,1.78,1.7,3.01,.09,1.39-.02,2.79,.04,4.18,.03,.72-.17,1.01-.91,.9-.39-.05-.79-.01-1.19-.01-.33-1.27-.07-2.55-.16-3.83-.04-.54,.13-1.09-.14-1.61-.4-.72-1-1.14-1.81-.85-.86,.3-1.35,.94-1.23,1.93-.36,1.44,.09,2.92-.25,4.36Z"/><path class="cls-15" d="M70.22,31.85q-2.07,0-2.07-2.15c0-1.69,0-3.38,0-5.08,0-.37-.14-.93,.49-.85,.52,.06,1.26-.45,1.52,.36,.16,.52,.05,.54,.49,.12,1.01-.96,2.24-1.05,3.52-.49,1.32,.58,1.61,1.78,1.7,3.01,.09,1.39-.02,2.79,.04,4.18,.03,.72-.17,1.01-.91,.9-.39-.05-.79-.01-1.19-.01-.33-1.27-.07-2.55-.16-3.83-.04-.54,.13-1.09-.14-1.61-.4-.72-1-1.14-1.81-.85-.86,.3-1.35,.94-1.23,1.93-.36,1.44,.09,2.92-.25,4.36Z"/><path class="cls-15" d="M456.7,6.62c-.4-.72-1-1.13-1.81-.85-.86,.31-1.35,.94-1.23,1.93-.36,1.44,.09,2.92-.25,4.36q-2.07,0-2.07-2.15c0-1.69,0-3.38,0-5.08,0-.37-.14-.93,.49-.85,.52,.06,1.26-.45,1.52,.36,.17,.52,.05,.54,.49,.12,1.01-.96,2.24-1.05,3.52-.49,1.32,.58,1.61,1.78,1.7,3.01,.09,1.39-.02,2.79,.04,4.18,.03,.72-.17,1.01-.91,.9-.39-.05-.79-.01-1.19-.01-.33-1.27-.07-2.56-.16-3.83-.04-.54,.13-1.09-.14-1.61Z"/><path class="cls-15" d="M460.86,3.95q2.06,0,2.06,2.02c0,.85,0,1.7,0,2.55,0,.85,.13,1.62,1.17,1.77,1.03,.15,1.54-.54,1.9-1.32,.43-.92,.28-1.93,.28-2.9q0-2.11,2.09-2.1c.26,2.7,.26,5.39,0,8.09-.71-.25-1.67,.57-2.21-.53-.09-.19-.41,.1-.62,.21-2.34,1.28-3.89,.69-4.72-1.79-.1-2-.19-4,.05-6Z"/><path class="cls-15" d="M263.28,31.85q-2.09,0-2.09-2.09c0-.85,.09-1.71-.03-2.54-.12-.83-.49-1.65-1.51-1.71-1.11-.06-1.6,.71-1.74,1.65-.12,.83-.07,1.69-.07,2.54q0,2.14-2.07,2.15c-.2-2.7-.2-5.4,0-8.11,.62,.23,1.5-.5,1.94,.51,.03,.06,.37,.05,.52-.02,3.14-1.32,3.97-1.01,5.11,1.91,.1,1.9,.23,3.8-.07,5.69Z"/><path class="cls-15" d="M530.13,12.05q-2.09,0-2.09-2.09c0-.85,.09-1.71-.03-2.54-.12-.83-.49-1.65-1.51-1.71-1.11-.06-1.6,.71-1.74,1.65-.12,.83-.07,1.69-.07,2.54q0,2.14-2.07,2.15c-.2-2.7-.2-5.4,0-8.11,.62,.23,1.5-.5,1.94,.51,.03,.06,.37,.05,.52-.02,3.14-1.32,3.97-1.01,5.11,1.91,.1,1.9,.23,3.8-.07,5.69Z"/><path class="cls-15" d="M438.38,3.95c.62,.23,1.5-.5,1.94,.51,.03,.06,.37,.05,.52-.02,3.14-1.32,3.97-1.01,5.11,1.91,.1,1.9,.23,3.8-.07,5.69q-2.09,0-2.09-2.09c0-.85,.09-1.71-.03-2.54-.12-.83-.49-1.65-1.51-1.71-1.11-.06-1.6,.71-1.74,1.65-.12,.83-.07,1.69-.07,2.54q0,2.14-2.07,2.15c-.2-2.7-.2-5.4,0-8.11Z"/><path class="cls-15" d="M249.18,5.5c-1.06,.51-1.93,1.07-2.95,0-.32-.34-1.25-.28-1.5,.45-.25,.75,.47,.82,.95,.99,.6,.21,1.2,.44,1.83,.56,1.08,.21,1.66,.91,1.87,1.88,.22,1-.45,1.67-1.14,2.26-1.31,1.09-4.64,.93-5.53-.55-.2-.34-.7-.85-.31-1.08,.56-.33,1.23-1.14,2-.26,.56,.64,1.19,1.03,2.07,.65,.34-.15,.6-.42,.64-.74,.05-.38-.33-.51-.65-.61-.77-.24-1.52-.54-2.3-.7-1.31-.27-1.79-1.4-1.74-2.35,.05-.98,.73-1.92,2.03-2.19,1.94-.41,3.49,.02,4.74,1.69Z"/><path class="cls-15" d="M362.87,12.35c-.77,.14-1.57-.23-2.28-.73-.53-.36-1.19-1.27-.85-1.55,.51-.42,1.41-1.35,2.25-.19,.08,.12,.22,.2,.33,.3,.62,.53,1.27,.34,1.91,.06,.23-.1,.5-.29,.33-.55-.36-.55-.87-1.02-1.55-.96-.74,.06-1.28-.28-1.88-.58-.96-.48-1.24-1.2-1.19-2.26,.05-1.05,.59-1.6,1.42-1.91,1.34-.5,2.7-.48,4,.23,.53,.29,1.28,.62,.99,1.25-.29,.62-1.16,.78-1.83,.52-.52-.21-.95-.59-1.57-.57-.45,.02-.78,.18-.89,.62-.11,.45,.28,.58,.58,.7,.5,.2,1,.39,1.52,.52,1.97,.5,2.72,1.27,2.59,2.68-.12,1.31-1.41,2.32-3.11,2.42-.2,.01-.4,0-.76,0Z"/><path class="cls-5" d="M59.1,60.59c2.16,1.3,2.96,2.48,2.02,3.92-.88,1.35-.72,1.96,.29,3.06,.9,.98,.37,2.48-.68,3.6-1.54,1.65-5.41,1.5-6.15-.83-.15-.47-.35-.94,.08-1.17,.42-.22,.93-.28,1.29,.43,.43,.86,1.22,1.48,2.31,1.21,.9-.23,1.7-.62,1.81-1.72,.13-1.26-.55-1.91-1.67-2.17-.42-.1-.89,0-1.34,0-.38-.48-.26-.97-.06-1.47,.3,0,.61,.05,.89-.02,.9-.23,1.77-.55,1.88-1.65,.06-.65-.13-1.21-.88-1.43-.95-.28-1.92-.6-2.63,.38-.4,.56-.74,.88-1.38,.39-.65-.5-.12-.98,.09-1.38,.34-.67,1.01-.97,1.73-1.14,.8-.17,1.59-.16,2.39,0Z"/><path class="cls-15" d="M228.26,10.55c-2.01,2.32-4.69,2.51-6.53,.48-.29-.32-.77-.73-.35-1.03,.5-.36,1.12-1.07,1.89-.32,.61,.6,1.23,1.17,2.2,.69,.32-.16,.63-.39,.64-.71,0-.35-.32-.53-.69-.62-.83-.22-1.63-.54-2.46-.74-.75-.19-1.16-.66-1.38-1.35-.17-.49-.14-.99-.02-1.49,.98-2.54,4.7-2.05,6.02-.81,.61,.57,.56,.89-.27,1.23-.81,.33-1.42,.09-2.07-.28-.61-.34-1.25-.33-1.5,.34-.28,.73,.45,.85,.95,1.01,1.28,.4,2.69,.52,3.5,1.82,.33,.58,.2,1.18,.09,1.78Z"/><path class="cls-15" d="M114.81,5.46c.99-2.54,4.71-2.04,6.02-.81,.61,.57,.56,.89-.27,1.23-.81,.33-1.42,.09-2.07-.28-.61-.34-1.25-.33-1.5,.34-.28,.73,.45,.85,.95,1.01,1.28,.4,2.7,.52,3.5,1.82,.33,.58,.2,1.18,.09,1.78-2.01,2.32-4.69,2.51-6.53,.48-.29-.32-.77-.73-.35-1.03,.5-.36,1.12-1.07,1.89-.32,.61,.6,1.23,1.17,2.2,.69,.32-.16,.63-.39,.64-.71,0-.35-.32-.53-.69-.62-.83-.22-1.63-.54-2.46-.74-.75-.19-1.15-.66-1.38-1.35-.17-.49-.14-.99-.02-1.49Z"/><path class="cls-15" d="M98.73,30.34c-2.01,2.32-4.68,2.51-6.53,.48-.29-.32-.77-.73-.35-1.03,.5-.36,1.12-1.07,1.89-.32,.61,.6,1.23,1.17,2.2,.69,.32-.16,.63-.39,.64-.71,0-.35-.32-.53-.69-.62-.83-.22-1.63-.54-2.46-.74-.75-.19-1.16-.66-1.38-1.35-.17-.49-.14-.99-.02-1.49,.99-2.54,4.71-2.04,6.02-.81,.61,.57,.56,.89-.27,1.23-.81,.33-1.42,.09-2.07-.28-.61-.34-1.25-.33-1.5,.34-.28,.73,.45,.85,.95,1.01,1.28,.4,2.7,.52,3.5,1.82,.33,.58,.2,1.18,.09,1.78Z"/><path class="cls-15" d="M634.47,10.08c-.84,2.21-4.47,3.22-6.56,1.44-1.87-1.59-2.08-4.58-.33-6.74,1.2-1.49,4.37-1.51,5.91-.15,.41,.36,1.09,1.04,.74,1.32-.55,.43-1.37,1.21-2.23,.41-1.05-.99-2.01-.96-2.91,.14-.86,1.06-.69,2.51,.36,3.39,.64,.54,1.49,.7,2.02,.16,1.1-1.11,2.01-.67,3,.02Z"/><path class="cls-15" d="M92.42,7.84c.18-1.4,.43-2.88,2.02-3.65,1.73-.84,3.41-.77,4.96,.39,.46,.34,1.21,.96,.76,1.4-.48,.46-1.37,1.18-2.21,.35-.86-.84-1.72-.9-2.6-.12-.93,.83-1.07,2.16-.38,3.19,.68,1.01,1.8,1.2,2.79,.46,.12-.09,.2-.23,.33-.3,.84-.5,1.68-.12,2.16,.43,.49,.56-.33,1.01-.71,1.33-1.39,1.14-2.99,1.39-4.68,.73-1.85-.73-2.3-2.31-2.43-4.21Z"/><path class="cls-15" d="M147.7,31.81c-.01-.13-.04-.19-.02-.22q2.92-3.88,.03-7.66,2.41-.4,3.89,1.92c.69-.5,.87-1.44,1.45-1.91,.64-.53,1.62-.06,2.59-.24-.4,1.27-1.25,2.1-1.94,2.99-.64,.84-.53,1.47,.04,2.22,.68,.89,1.3,1.81,2.08,2.9-1.51,.02-2.86,.5-3.47-1.29-.15-.43-.86-1.02-1.18-.16-.66,1.8-2.03,1.57-3.47,1.46Z"/><path class="cls-15" d="M180.58,8.04c.11-1.65,.47-3.19,2.09-3.92,1.71-.77,3.44-.71,4.98,.52,.6,.48,.98,1.29,.76,1.36-.73,.24-1.42,1.16-2.27,.35-.98-.94-1.91-.94-2.81,.05-.86,.94-.86,2.22-.03,3.18,.76,.88,1.62,1.06,2.58,.3,.16-.12,.27-.31,.45-.39,.86-.38,1.68-.02,2.15,.57,.37,.46-.39,.92-.77,1.23-1.34,1.12-2.87,1.38-4.54,.81-1.97-.67-2.45-2.28-2.59-4.06Z"/><path class="cls-15" d="M21.61,28.6c.69,1.65,1.8,2.06,3.03,.96,.95-.85,1.65-.14,2.41,.16,.48,.19,0,.54-.1,.68-.79,1.12-2.14,2.02-4.29,1.7-1.77-.26-2.96-1.3-3.31-2.88-.37-1.67-.33-3.51,1.17-4.77,1.4-1.17,3.04-1.24,4.73-.65,.28,.1,.56,.24,.78,.43,.49,.42,1.37,1,.95,1.51-.44,.53-1.3,1.12-2.33,.32-1.4-1.08-2.34-.7-3.03,.94-.21,.53-.21,1.07,0,1.6Z"/><path class="cls-15" d="M125.36,60.58c1.22,.61,2.24,1.38,2.41,2.89,.14,1.16-1.23,1.84-1.08,2.69,.14,.82,1.36,1.33,1.38,2.47,.04,1.54-.82,2.87-2.32,3.4-1.75,.62-3.65,.17-4.51-1.06-.14-.2-.24-.42-.39-.6-.29-.36-.61-.7,.03-1.04,.5-.27,.99-.56,1.35,.16,.57,1.14,1.52,1.67,2.69,1.24,.81-.3,1.76-.83,1.61-1.97-.15-1.18-1.09-1.63-2.14-1.87-.46-.11-1.12,.28-1.16-.68-.04-.91,.52-.68,1.03-.79,.8-.17,1.57-.45,1.73-1.48,.14-.88-.2-1.49-.98-1.7-.82-.22-1.78-.43-2.42,.43-.38,.51-.62,.93-1.34,.38-.82-.63,.01-.89,.18-1.3,.34-.8,1.06-1.01,1.81-1.19,.7-.1,1.39-.13,2.09,.02Z"/><path class="cls-15" d="M586.76,7.26c.39-3.68,4.79-4.49,6.82-2.72,.48,.41,1.28,.89,.85,1.42-.42,.53-1.29,1.08-2.15,.33-.78-.68-1.65-.8-2.53-.23-.88,.57-.89,1.48-.82,2.38,.12,1.55,1.46,2.34,2.81,1.52,1.11-.68,2.04-.72,2.99,.19-.69,1.75-3.07,2.56-4.97,2.09-1.63-.4-2.71-1.61-2.99-3.48-.14-.5-.14-.99,0-1.49Z"/><path class="cls-15" d="M217.05,26.76c1.03-3.38,4.85-4.47,7.18-2.02,.27,.29,.92,.66,.53,1.03-.44,.42-1.1,.85-1.84,.55-.22-.09-.36-.35-.57-.46-.96-.5-1.96-.58-2.67,.32-.78,.99-.78,2.18-.04,3.19,.67,.92,1.66,.93,2.64,.41,.21-.11,.39-.29,.6-.42,.76-.51,1.41,0,1.85,.43,.54,.54-.25,.83-.54,1.12-2.47,2.46-6.09,1.39-7.13-2.07-.12-.7-.12-1.39,0-2.09Z"/><path class="cls-5" d="M94.78,66.87c.27,.08,.57,.32,.82,.05,.26-.29,0-.51-.19-.75-1.02-1.3-2.04-1.5-3.42-.45-.7,.53-1.09,.27-1.48-.22-.58-.73,.2-.99,.58-1.19,2.42-1.32,5.84-.5,6.15,2.33,.09,1.8,.22,3.6-.08,5.39-.52-.12-1.13,.31-1.54-.46-.24-.44-.56,.12-.84,.25-1.2,.53-2.43,.79-3.6,.04-1.06-.68-1.29-1.79-1.14-2.97,.18-1.35,1.23-1.73,2.34-2.02,.8-.12,1.59-.12,2.39,0Z"/><path class="cls-15" d="M88.79,23.64c1.35-.08,2.15,.36,1.79,1.9-.55,.4-1.25-.08-1.8,.31h0c-.25,1.12-.22,2.26-.02,3.39-.05,.68,.38,.9,.94,.86,1.13-.1,.95,.93,1.08,1.43,.12,.47-.67,.53-1.11,.6-2.08,.31-3.23-.74-3.23-2.86,0-1.14-.06-2.28-.1-3.41-1.47-.1-1.49-1.01-1.17-2.1,.45-.16,1.42,.43,1.25-.62-.3-1.89,.79-1.91,2.1-1.78,.35,.73-.13,1.57,.28,2.29Z"/><path class="cls-15" d="M184.11,23.75c.45-.16,1.42,.43,1.25-.62-.3-1.89,.79-1.91,2.1-1.78,.35,.73-.13,1.57,.28,2.29,1.35-.08,2.15,.36,1.79,1.9-.55,.4-1.25-.08-1.8,.31h0c-.25,1.12-.22,2.26-.02,3.39-.05,.68,.38,.9,.94,.86,1.13-.1,.95,.93,1.08,1.43,.12,.46-.67,.53-1.11,.6-2.08,.31-3.23-.74-3.23-2.86,0-1.14-.06-2.28-.1-3.41-1.47-.1-1.49-1.01-1.17-2.1Z"/><path class="cls-15" d="M380.51,3.95c.45-.16,1.42,.43,1.25-.62-.3-1.89,.79-1.91,2.1-1.78,.35,.73-.13,1.57,.28,2.3,1.35-.08,2.15,.36,1.79,1.9-.55,.4-1.25-.08-1.8,.31h0c-.25,1.13-.22,2.26-.02,3.39-.05,.68,.38,.9,.94,.85,1.13-.1,.95,.93,1.08,1.43,.12,.46-.67,.53-1.11,.6-2.08,.31-3.23-.74-3.23-2.86,0-1.14-.06-2.28-.1-3.41-1.47-.1-1.49-1.01-1.17-2.1Z"/><path class="cls-15" d="M238.45,25.85c-.04,.94-.07,1.89-.1,2.83-.03,.83,.11,1.48,1.21,1.42,1-.06,.74,.93,.88,1.42,.15,.51-.48,.59-.95,.61-1.45,.07-2.78-.07-3.24-1.79-.29-1.49,.15-3.02-.24-4.5h0q-1.5-.31-1.19-2.09l1.18-.11c.41-.73-.07-1.56,.28-2.3,1.21-.07,2.33-.25,2.13,1.71-.14,1.33,1.19,.39,1.78,.7q.31,1.74-1.74,2.1Z"/><path class="cls-15" d="M133.14,1.56c1.21-.07,2.33-.25,2.13,1.71-.14,1.33,1.19,.39,1.78,.7q.31,1.74-1.74,2.1c-.04,.94-.07,1.89-.1,2.83-.03,.83,.11,1.48,1.21,1.42,1-.06,.74,.93,.88,1.42,.15,.51-.48,.59-.95,.61-1.45,.07-2.78-.07-3.24-1.79-.29-1.49,.15-3.02-.24-4.5h0q-1.5-.31-1.19-2.09l1.18-.11c.41-.73-.07-1.56,.28-2.3Z"/><path d="M547.91,6.06c-.03,.89-.03,1.78-.08,2.67-.05,.94,.01,1.67,1.29,1.59,.82-.05,.67,.79,.82,1.3,.18,.62-.42,.57-.71,.66-1.9,.55-3.06-.22-3.57-2.32-.14-.84-.14-1.7-.04-2.53,.12-1.11-.3-1.63-1.37-1.68,.03-.86-.41-2.02,1.19-1.86,.42-.73-.11-1.59,.31-2.32,.39,0,.79,.03,1.17-.01,.67-.08,1.07,.1,.91,.85-.35,1.66,.68,1.67,1.82,1.55q.24,1.76-1.74,2.11Z"/><path class="cls-15" d="M151.43,3.95l1.22-.1c.37-.52,0-1.15,.24-1.68,.67-1.4,2.06-2.13,3.53-1.75,.26,.07,1-.07,.76,.69-.16,.51-.04,1.33-.81,1.29-1.12-.06-1.48,.48-1.62,1.57h2.08q.3,1.75-1.79,2.09h0c-.32,1.45-.06,2.93-.15,4.4-.03,.54,.11,1.09-.12,1.61h-1.84c-.28-1.47-.04-2.95-.13-4.42-.03-.53,.14-1.09-.14-1.59h0c-1.48-.07-1.59-.94-1.23-2.09Z"/><path class="cls-5" d="M98.99,63.94c1.24,.33,2.42,.07,3.66-.18,1.98-.4,3.36,1.06,3.46,3.4,.05,1.15-.07,2.3,.03,3.44,.11,1.18-.28,1.65-1.45,1.43-.43-1.83,.09-3.72-.29-5.55-.45-1.1-1.34-1.6-2.41-1.3-1.02,.28-1.54,1.15-1.51,2.27,.02,1.04-.09,2.09,.03,3.11,.15,1.26-.29,1.71-1.51,1.46-.26-2.7-.26-5.39,0-8.09Z"/><path class="cls-5" d="M297.14,7.58c1.25,.49,2.14,.89,3.07,1.21,1.25,.42,1.89,1.13,1.28,2.6-1.41-.24-2.62-1.16-3.99-1.65-.57-.2-1.12-.53-1.7-.76-.51-.2-1.14-.32-1.06-1.23,.07-.77,.2-1.27,.97-1.58,1.59-.63,3.14-1.36,4.72-2,.36-.15,.91-.86,1.14-.22,.21,.58,.58,1.55-.54,1.98-1.21,.46-2.39,1.01-3.89,1.65Z"/><path class="cls-15" d="M281.75,7.59c-.35-.8-1.37-.61-2.1-.96-1.69-.84-1.7-.81-1.62-2.9,2.13,.96,4.19,1.93,6.28,2.81,.55,.23,.54,.56,.58,1.01,.06,.59-.19,.89-.69,1.1-2.02,.88-4.03,1.78-6.12,2.7-.74-3.34,2.48-2.43,3.66-3.76Z"/><path class="cls-4" d="M56.38,20.15q2.07,0,2.07,2.13c0,2.48,0,4.96,0,7.44q0,2.12-2.07,2.13c-.2-3.9-.2-7.8,0-11.71Z"/><path d="M516.34,12.05q-2.09,0-2.09-2.1V2.46q0-2.11,2.09-2.1c.35,2.91,.09,5.83,.14,8.75,.02,.98,.21,1.98-.14,2.94Z"/><path d="M219.8,12.05q-2.08,0-2.08-2.1V2.46q0-2.11,2.08-2.1c.36,2.91,.09,5.83,.14,8.75,.02,.98,.21,1.98-.14,2.94Z"/><path d="M206.01,31.85q-2.09,0-2.09-2.1v-7.49q0-2.11,2.09-2.1c.35,2.91,.09,5.83,.14,8.75,.02,.98,.21,1.98-.14,2.94Z"/><path class="cls-4" d="M576.35,12.06q-2.07,0-2.07-2.13c0-2.48,0-4.96,0-7.44q0-2.13,2.07-2.13c.2,3.9,.2,7.8,0,11.71Z"/><path class="cls-15" d="M323.25,12.05q-2.09,0-2.09-2.08c0-1.59,0-3.18,0-4.77,0-1.18,.91-1.83,1.82-1.1,.62,.49,.81,.18,1.22-.01,.48-.23,.95-.51,1.52-.42,.46,.08,1.24,.05,1.02,.68-.16,.47,.15,1.57-1.07,1.39-1.13-.17-1.92,.28-2.13,1.49-.42,1.59,.15,3.24-.3,4.83Z"/><path class="cls-15" d="M134.35,31.85q-2.09,0-2.09-2.08c0-1.59,0-3.18,0-4.77,0-1.18,.91-1.83,1.82-1.1,.62,.49,.81,.18,1.22-.01,.48-.23,.95-.51,1.52-.42,.46,.08,1.24,.05,1.02,.68-.16,.47,.15,1.57-1.07,1.39-1.13-.17-1.92,.28-2.13,1.49-.42,1.59,.15,3.24-.3,4.83Z"/><path class="cls-15" d="M55.52,3.96c.63,.2,1.49-.49,1.93,.54,.09,.2,.41-.07,.61-.22,.52-.39,1.13-.61,1.77-.6,.5,0,1.29-.11,1.19,.66-.07,.53,.03,1.41-1.11,1.41-1.81,0-2.3,.61-2.31,2.42,0,.6,0,1.2,0,1.79q0,2.1-2.09,2.09c-.26-2.7-.26-5.39,0-8.09Z"/><path class="cls-5" d="M504.04,3.95h1.81c.26,.13,0,.72,.52,.59,.5-.69,1.23-.9,2.04-.89,.6,0,1.17,.17,1.02,.91-.11,.54-.06,1.23-1.09,1.17-1.49-.09-2.13,.61-2.21,2.1-.04,.69-.02,1.39-.02,2.08q0,2.13-2.07,2.14c-.2-2.7-.2-5.4,0-8.11Z"/><path class="cls-4" d="M250.97,3.95q2.07,0,2.07,2.12c0,1.29,0,2.57,0,3.86q0,2.12-2.07,2.12c-.2-2.7-.2-5.41,0-8.11Z"/><path d="M518.47,3.96q2.08,0,2.08,2.1v3.89q0,2.11-2.08,2.1c-.26-2.7-.26-5.39,0-8.09Z"/><path class="cls-4" d="M192.26,12.06q-2.07,0-2.07-2.12c0-1.29,0-2.58,0-3.86q0-2.12,2.07-2.12c.19,2.7,.19,5.41,0,8.11Z"/><path d="M244.09,31.85q-2.08,0-2.08-2.1c0-1.3,0-2.6,0-3.89q0-2.11,2.08-2.1c.26,2.7,.26,5.39,0,8.09Z"/><path class="cls-4" d="M64.17,23.75q2.07,0,2.07,2.12c0,1.29,0,2.57,0,3.86q0,2.12-2.07,2.12c-.2-2.7-.2-5.41,0-8.11Z"/><path d="M157.16,23.76q2.08,0,2.08,2.1c0,1.3,0,2.6,0,3.89q0,2.11-2.08,2.1c-.26-2.7-.26-5.39,0-8.09Z"/><path class="cls-4" d="M81.57,23.75q2.07,0,2.07,2.12c0,1.29,0,2.57,0,3.86q0,2.12-2.07,2.12c-.2-2.7-.2-5.41,0-8.11Z"/><path d="M30.91,31.85q-2.09,0-2.09-2.1c0-1.3,0-2.6,0-3.89q0-2.11,2.09-2.1c.26,2.7,.26,5.39,0,8.09Z"/><path d="M339.17,9.36h-7.54q-.26-1.95,1.55-1.95c1.48,0,2.96,0,4.44,0q1.81,0,1.55,1.95Z"/><path d="M331.63,4.25h7.54q.26,1.95-1.55,1.95c-1.48,0-2.96,0-4.44,0q-1.81,0-1.55-1.95Z"/><path class="cls-10" d="M287.88,9.37c1.17-.02,1.88,.93,1.38,1.99-.42,.87-1.03,1.65-1.58,2.46-.21,.32-.44,.52-.79,.06-.21-.27-.72-.29-.18-.8,.5-.47,.46-1.03,.01-1.68-.68-.99-.03-2.01,1.16-2.03Z"/><path class="cls-4" d="M306.21,11.45c-.49,.68-.95,1.38-1.46,2.04-.24,.31-.42,.88-1.02,.46-.52-.36-.55-.67-.02-1.11,.23-.19,.39-.55,.09-1.01-.49-.75-.58-1.6,.24-2.24,.79-.62,1.46-.12,2.1,.37,.33,.48,.2,.98,.08,1.48Z"/><path class="cls-16" d="M266.28,31.84c-1.03,.15-1.41-.6-1.44-1.3-.03-.8,.43-1.46,1.45-1.4,.86,.05,1.44,.39,1.49,1.3,.05,1.05-.76,1.22-1.51,1.4Z"/><path class="cls-4" d="M157.98,22.84c-.99,.23-1.34-.6-1.37-1.26-.04-.76,.4-1.48,1.41-1.42,.91,.05,1.5,.56,1.5,1.44,0,.85-.57,1.34-1.53,1.24Z"/><path class="cls-4" d="M519.3,3.05c-1,.19-1.36-.6-1.39-1.27-.02-.76,.41-1.48,1.43-1.41,.91,.06,1.5,.58,1.48,1.46-.02,.85-.58,1.34-1.52,1.22Z"/><path class="cls-10" d="M341.75,12.09c-.67,.11-.76-.62-.8-1.34-.05-.88,.36-1.4,1.28-1.39,.84,.01,1.41,.36,1.42,1.31,0,1.04-.65,1.33-1.9,1.41Z"/><path class="cls-4" d="M242.74,22.88c-.79,.14-.98-.51-1.04-1.35-.07-.94,.38-1.36,1.26-1.36,.87,0,1.43,.4,1.44,1.33,.01,.93-.51,1.34-1.66,1.38Z"/><path class="cls-4" d="M29.57,22.86c-.98,.14-1-.65-1.05-1.43-.07-.99,.52-1.29,1.35-1.26,.88,.03,1.39,.51,1.35,1.43-.05,.93-.62,1.29-1.64,1.26Z"/><path class="cls-13" d="M81.24,20.76c.69-1.02,1.54-.73,2.26-.14,.62,.51,.58,1.32,.02,1.82-.73,.66-1.58,.7-2.26-.2-.17-.49-.15-.99-.01-1.49Z"/><path class="cls-13" d="M63.85,20.76c.69-1.02,1.54-.73,2.26-.14,.62,.51,.58,1.32,.02,1.82-.73,.66-1.58,.7-2.26-.2-.17-.49-.15-.99-.01-1.49Z"/><path class="cls-13" d="M250.65,.96c.69-1.02,1.54-.73,2.26-.14,.62,.51,.58,1.32,.02,1.82-.73,.66-1.58,.7-2.26-.2-.17-.49-.15-.99-.01-1.49Z"/><path class="cls-16" d="M192.51,2.45c-.6,.66-1.4,.83-2.13,.47-.53-.27-.58-.98-.44-1.58,.28-1.16,1.22-1.29,2.56-.37,.29,.49,.26,.99,.02,1.48Z"/><path class="cls-13" d="M65.41,71.01c0,.68-.29,1.03-.98,1.03-.82,0-1.14-.42-1.13-1.2,0-.72,.39-.93,1.04-.91,.72,.03,1.1,.36,1.07,1.08Z"/><path class="cls-16" d="M131.63,71.73c-1.54,.62-2.21,.32-1.99-.94,.26-1.46,1.19-.82,1.98-.54,.29,.49,.28,.98,0,1.48Z"/><path class="cls-7" d="M516.34,12.05c0-3.9,0-7.79,0-11.69,.52,3.9,.52,7.79,0,11.69Z"/><path class="cls-7" d="M576.35,12.06c.18-3.9,.18-7.8,0-11.71,.3,.26,.28,.61,.28,.96,0,3.26,0,6.53,0,9.79,0,.35,.03,.7-.28,.96Z"/><path class="cls-7" d="M636,.36c0,3.9,0,7.79,0,11.69-.52-3.9-.52-7.79,0-11.69Z"/><path class="cls-7" d="M331.63,4.25q-.22,1.93,1.6,1.93c1.45,0,2.89,0,4.34,0q1.82,0,1.6-1.93c.62,1.85,.46,2.1-1.39,2.11-1.59,0-3.18,0-4.77,0-1.84,0-2.01-.26-1.39-2.11Z"/><path class="cls-7" d="M101.99,.36V12.05c-.52-3.9-.52-7.79,0-11.69Z"/><path class="cls-7" d="M206.01,31.85c0-3.9,0-7.79,0-11.69,.52,3.9,.52,7.79,0,11.69Z"/><path class="cls-7" d="M56.38,20.15c-.18,3.9-.18,7.8,0,11.71-.3-.26-.28-.61-.28-.96,0-3.26,0-6.53,0-9.79,0-.35-.03-.7,.28-.96Z"/><path class="cls-7" d="M339.17,9.36q.22-1.93-1.6-1.93c-1.45,0-2.89,0-4.34,0q-1.82,0-1.6,1.93c-.62-1.85-.46-2.1,1.39-2.11,1.59,0,3.18,0,4.77,0,1.84,0,2.01,.26,1.39,2.11Z"/><path class="cls-7" d="M170.03,12.05c0-3.9,0-7.79,0-11.69,.52,3.9,.52,7.79,0,11.69Z"/><path class="cls-7" d="M219.8,12.05c0-3.9,0-7.79,0-11.69,.52,3.9,.52,7.79,0,11.69Z"/><path class="cls-7" d="M484.89,.36c0,3.9,0,7.79,0,11.69-.52-3.9-.52-7.79,0-11.69Z"/><path class="cls-7" d="M438.38,3.95c-.17,2.7-.17,5.4,0,8.11-.58-1.17-.27-2.41-.25-3.61,.02-1.5-.37-3.03,.25-4.5Z"/><path class="cls-7" d="M470.46,3.95c-.17,2.7-.17,5.4,0,8.11-.58-1.17-.27-2.41-.25-3.61,.02-1.5-.37-3.03,.25-4.5Z"/><path class="cls-7" d="M250.97,3.95c-.17,2.7-.17,5.41,0,8.11-.62-1.77-.18-3.59-.25-5.38-.03-.9-.31-1.86,.25-2.72Z"/><path class="cls-7" d="M240.83,12.06c.18-2.7,.18-5.4,0-8.11,.58,1.17,.27,2.41,.25,3.61-.02,1.5,.37,3.03-.25,4.5Z"/><path class="cls-7" d="M192.26,12.06c.18-2.7,.18-5.41,0-8.11,.45,2.7,.45,5.41,0,8.11Z"/><path class="cls-7" d="M30.91,31.85v-8.09c.71,1.71,.2,3.49,.28,5.23,.04,.94,.35,1.96-.28,2.86Z"/><path class="cls-7" d="M518.47,3.96c0,2.7,0,5.39,0,8.09-.71-1.71-.2-3.49-.28-5.23-.04-.94-.35-1.96,.28-2.86Z"/><path class="cls-7" d="M55.52,3.96c0,2.7,0,5.39,0,8.09-.71-1.71-.2-3.49-.28-5.23-.04-.94-.35-1.96,.28-2.86Z"/><path class="cls-7" d="M64.17,23.75c-.17,2.7-.17,5.41,0,8.11-.46-2.7-.46-5.41,0-8.11Z"/><path class="cls-7" d="M33.03,23.76c0,2.7,0,5.39,0,8.09-.71-1.71-.2-3.49-.28-5.23-.04-.94-.35-1.96,.28-2.86Z"/><path class="cls-7" d="M81.57,23.75c-.17,2.7-.17,5.41,0,8.11-.46-2.7-.46-5.41,0-8.11Z"/><path class="cls-7" d="M161.33,23.75c-.17,2.7-.17,5.4,0,8.11-.61-1.87-.18-3.79-.25-5.68-.03-.8-.31-1.67,.25-2.43Z"/><path class="cls-7" d="M157.16,23.76c0,2.7,0,5.39,0,8.09-.71-1.71-.2-3.49-.28-5.23-.04-.94-.35-1.96,.28-2.86Z"/><path class="cls-7" d="M244.09,31.85c0-2.7,0-5.39,0-8.09,.71,1.71,.2,3.49,.28,5.23,.04,.94,.35,1.96-.28,2.86Z"/><path class="cls-7" d="M255.77,23.75c-.17,2.7-.17,5.4,0,8.11-.64-2.21-.12-4.48-.27-6.71-.03-.47-.16-1,.27-1.39Z"/><path class="cls-7" d="M98.99,63.94c0,2.7,0,5.39,0,8.09-.71-1.71-.2-3.49-.28-5.23-.04-.94-.35-1.96,.28-2.86Z"/><path class="cls-7" d="M522.63,3.95c-.17,2.7-.17,5.4,0,8.11-.58-1.17-.27-2.41-.25-3.61,.02-1.5-.37-3.03,.25-4.5Z"/><path class="cls-7" d="M504.04,3.95c-.17,2.7-.17,5.4,0,8.11-.61-1.67-.2-3.39-.25-5.09-.03-1-.32-2.06,.25-3.02Z"/><path class="cls-7" d="M468.37,12.05V3.96c.6,.63,.33,1.42,.29,2.12-.12,1.99,.43,4.01-.29,5.97Z"/><path class="cls-7" d="M356.22,.36c-.04,2.08-.06,4.17-.11,6.25-.01,.53,.16,1.09-.15,1.6,0-2.2-.02-4.39-.02-6.59,0-.44-.12-.91,.28-1.27Z"/><path class="cls-7" d="M79.87,62.44c1.05-.58,2.18-.24,3.26-.22,1.31,.02,1.57-.45,1.11-1.57,.66,1.44,.49,1.76-.96,1.78-1.13,.01-2.27,0-3.41,0Z"/><path class="cls-7" d="M34.84,12.06c.22-2.1,.1-4.2,.05-6.3,.34,2.1,.45,4.2-.05,6.3Z"/><path class="cls-7" d="M206.95,12.06c.21-2.1,.1-4.2,.05-6.3,.35,2.1,.45,4.2-.05,6.3Z"/><path class="cls-7" d="M152.66,6.05c.44,1.99-.07,4.02,.27,6.01-.63-1.98-.12-4.01-.27-6.01Z"/><path class="cls-7" d="M585.34,12.06c.22-2,.09-4,.06-5.99,.34,2,.42,4-.06,5.99Z"/><path class="cls-7" d="M154.77,12.06c.34-1.99-.17-4.02,.27-6.01-.16,2,.36,4.03-.27,6.01Z"/><path class="cls-7" d="M643.51,12.06c.23-2,.08-4,.06-5.99,.34,2,.42,4-.06,5.99Z"/><path class="cls-7" d="M109.5,12.06c.23-2,.08-4,.06-6,.34,2,.42,4-.06,6Z"/><path class="cls-7" d="M45.6,31.85l.07-5.99c.36,2,.48,4-.07,5.99Z"/><path class="cls-7" d="M460.86,3.95c-.23,2-.07,4-.05,6-.36-2-.43-4,.05-6Z"/><path class="cls-7" d="M625.18,12.05c.03-1.9,.06-3.79,.08-5.69,.32,1.9,.49,3.8-.08,5.69Z"/><path class="cls-7" d="M215.91,12.05l.08-5.69c.32,1.9,.49,3.8-.08,5.69Z"/><path class="cls-7" d="M445.88,12.05l.07-5.69c.35,1.9,.5,3.8-.07,5.69Z"/><path class="cls-7" d="M263.28,31.85c.02-1.9,.05-3.79,.07-5.69,.35,1.9,.5,3.8-.07,5.69Z"/><path class="cls-7" d="M530.13,12.05c.02-1.9,.05-3.79,.07-5.69,.35,1.9,.5,3.8-.07,5.69Z"/><path class="cls-7" d="M27.34,6.6c.55,1.79,.03,3.64,.29,5.45-.68-1.78-.17-3.63-.29-5.45Z"/><path class="cls-7" d="M544.24,5.74c1.17-.11,1.65,.35,1.47,1.58-.12,.86-.04,1.75-.05,2.63-.43-.68-.25-1.44-.2-2.14,.07-1.02-.1-1.79-1.22-2.06Z"/><path class="cls-7" d="M199.45,6.6c.55,1.79,.03,3.64,.29,5.45-.68-1.78-.17-3.63-.29-5.45Z"/><path class="cls-7" d="M73.51,26.41c.56,1.79,.03,3.63,.3,5.44-.67-1.78-.16-3.63-.3-5.44Z"/><path class="cls-7" d="M104.4,66.48c.54,1.83,.03,3.71,.29,5.55-.67-1.82-.17-3.7-.29-5.55Z"/><path class="cls-7" d="M171.58,26.3c.51,1.83,.02,3.71,.28,5.55-.67-1.82-.18-3.7-.28-5.55Z"/><path class="cls-7" d="M97.17,72.03l.08-5.39c.35,1.8,.47,3.6-.08,5.39Z"/><path class="cls-7" d="M233.32,3.96l-.07,5.39c-.37-1.8-.48-3.6,.07-5.39Z"/><path class="cls-7" d="M260.31,6.62c.56,1.79,.03,3.63,.3,5.44-.67-1.78-.16-3.63-.3-5.44Z"/><path class="cls-7" d="M392.83,6.63c.57,1.78,.03,3.63,.3,5.43-.67-1.78-.16-3.62-.3-5.43Z"/><path class="cls-7" d="M456.7,6.62c.56,1.79,.03,3.63,.3,5.44-.67-1.78-.16-3.63-.3-5.44Z"/><path class="cls-7" d="M480.71,6.5c.51,1.83,.02,3.71,.28,5.55-.67-1.82-.18-3.7-.28-5.55Z"/><path class="cls-7" d="M135.63,62.73c-.05-.77,.54-.52,.91-.54,1.26-.06,2.53-.09,3.79-.12-.54,.69-1.29,.27-1.94,.36-.92,.13-1.89-.23-2.77,.3Z"/><path class="cls-7" d="M38.13,26.72c.43,1.69-.07,3.44,.27,5.14-.61-1.69-.14-3.43-.27-5.14Z"/><path class="cls-7" d="M134.35,31.85c.27-1.6-.27-3.25,.3-4.83-.14,1.61,.36,3.25-.3,4.83Z"/><path class="cls-7" d="M323.25,12.05c.27-1.6-.27-3.25,.3-4.83-.14,1.61,.36,3.25-.3,4.83Z"/><path class="cls-7" d="M38.74,15.66c.2-1.31,.11-2.63,.06-3.95,0-.13-.1-.45,.25-.28,.1,.05,.14,.22,.21,.33-.66,1.23,.22,2.67-.51,3.9Z"/><path class="cls-7" d="M196.42,12.05c.27-1.61-.25-3.26,.29-4.85-.14,1.61,.38,3.27-.29,4.85Z"/><path class="cls-7" d="M24.31,12.05c.27-1.61-.26-3.26,.29-4.85-.14,1.61,.38,3.27-.29,4.85Z"/><path class="cls-7" d="M114.6,35.45c.2-1.31,.11-2.63,.06-3.95,0-.13-.1-.45,.25-.28,.1,.05,.14,.22,.21,.33-.66,1.23,.22,2.67-.51,3.9Z"/><path class="cls-7" d="M390.09,4.25c-.06,.12-.1,.31-.19,.35-.45,.17-.32-.21-.31-.39,.07-1.29,.16-2.57-.04-3.85,.55,.74,.17,1.59,.28,2.38,.07,.51-.17,1.07,.27,1.52Z"/><path class="cls-7" d="M566.45,15.66c.2-1.32,.11-2.63,.06-3.95,0-.13-.09-.45,.25-.28,.1,.05,.14,.22,.21,.33-.66,1.23,.22,2.67-.51,3.9Z"/><path class="cls-7" d="M132.87,6.05c.37,1.48,.03,3.01,.24,4.5-.54-1.48-.12-3-.24-4.5Z"/><path class="cls-7" d="M477.7,12.06c.33-1.52-.14-3.08,.25-4.59-.09,1.53,.35,3.09-.25,4.59Z"/><path class="cls-7" d="M168.57,31.85c.33-1.52-.14-3.08,.25-4.59-.09,1.53,.35,3.09-.25,4.59Z"/><path class="cls-7" d="M236.01,25.84c.37,1.48,.03,3.01,.24,4.5-.54-1.48-.12-3-.24-4.5Z"/><path class="cls-7" d="M421.29,15.65c.02-1.27,.04-2.54,.07-3.82,0-.04,.04-.13,.06-.12,.06,0,.12,.04,.18,.07-.17,1.29,.38,2.63-.31,3.88Z"/><path class="cls-7" d="M453.41,12.06c.33-1.44-.14-2.93,.25-4.36-.1,1.45,.34,2.94-.25,4.36Z"/><path class="cls-7" d="M389.55,12.06c.33-1.44-.14-2.93,.25-4.36-.1,1.45,.34,2.94-.25,4.36Z"/><path class="cls-7" d="M6.65,20.16c-.3,1.36,.32,2.79-.31,4.12,.16-1.37-.35-2.79,.31-4.12Z"/><path class="cls-7" d="M257.02,12.06c.33-1.44-.14-2.93,.25-4.36-.1,1.45,.34,2.94-.25,4.36Z"/><path class="cls-7" d="M70.22,31.85c.33-1.44-.14-2.93,.25-4.36-.1,1.45,.34,2.94-.25,4.36Z"/><path class="cls-7" d="M124.45,35.44c.02-1.27,.04-2.54,.07-3.82,0-.04,.04-.13,.06-.12,.06,0,.12,.04,.18,.07-.17,1.29,.38,2.63-.31,3.88Z"/><path class="cls-7" d="M547.91,6.06c.1-.08,.2-.25,.28-.24,1.64,.27,1.81-.59,1.46-1.87,.66,1.91,.5,2.1-1.74,2.11Z"/><path class="cls-7" d="M155.04,6.05c.11-.08,.23-.24,.31-.23,1.65,.28,1.73-.65,1.48-1.86,.73,1.88,.54,2.1-1.79,2.09Z"/><path class="cls-7" d="M135.31,6.06c.1-.08,.21-.25,.29-.23,1.67,.29,1.68-.69,1.45-1.86,.73,1.86,.54,2.1-1.74,2.1Z"/><path class="cls-7" d="M238.45,25.85c.1-.08,.21-.25,.29-.23,1.67,.29,1.68-.69,1.45-1.86,.73,1.86,.54,2.1-1.74,2.1Z"/><path class="cls-7" d="M384.1,9.44c-.22-1.13-.26-2.27,.02-3.39,0,1.13-.02,2.26-.02,3.39Z"/><path class="cls-7" d="M88.76,29.24c-.22-1.13-.26-2.26,.02-3.39l-.02,3.39Z"/><path class="cls-7" d="M380.51,3.95c-.45,1.17-.03,1.86,1.17,2.1-1.65-.07-1.78-.32-1.17-2.1Z"/><path class="cls-7" d="M151.43,3.95c-.46,1.21,0,1.87,1.23,2.1-1.7-.05-1.84-.29-1.23-2.1Z"/><path class="cls-7" d="M131.68,3.96c-.26,1.07-.08,1.9,1.19,2.09-1.7-.05-1.87-.35-1.19-2.09Z"/><path class="cls-7" d="M187.71,29.24c-.22-1.13-.26-2.26,.02-3.39l-.02,3.39Z"/><path class="cls-7" d="M85.17,23.75c-.45,1.17-.03,1.86,1.17,2.1-1.65-.07-1.78-.31-1.17-2.1Z"/><path class="cls-7" d="M184.11,23.75c-.45,1.17-.03,1.86,1.17,2.1-1.65-.07-1.78-.31-1.17-2.1Z"/><path class="cls-7" d="M234.82,23.76c-.26,1.07-.08,1.9,1.19,2.09-1.7-.05-1.87-.35-1.19-2.09Z"/><path class="cls-7" d="M67.12,64.84l.02,3.29c-.4-1.09-.37-2.19-.02-3.29Z"/><path class="cls-7" d="M62.7,112.41c-.58-.69,.3-1.74-.58-2.36,.56-.32,.56,.11,.58,.45,.02,.64,0,1.27,0,1.91Z"/><path class="cls-7" d="M62.12,115.9c.88-.62,0-1.67,.58-2.37,0,.68,0,1.37-.02,2.05-.01,.36-.19,.55-.57,.31Z"/><path class="cls-7" d="M151.52,67.83c0-.9,0-1.79,.01-2.69,.34,.9,.36,1.79-.01,2.69Z"/><path class="cls-7" d="M429.68,110.07c-.29,.76,.16,1.6-.28,2.33,.17-.77-.35-1.62,.28-2.33Z"/><path class="cls-7" d="M236.28,21.35c-.32,.74,.15,1.57-.28,2.3,.12-.76-.28-1.59,.28-2.3Z"/><path class="cls-7" d="M94.78,66.87h-2.39c.8-.37,1.59-.37,2.39,0Z"/><path class="cls-7" d="M545.75,1.56c-.24,.75,.25,1.61-.31,2.32,.14-.77-.31-1.62,.31-2.32Z"/><path class="cls-7" d="M384.13,3.85c-.43-.72,.04-1.56-.28-2.3,.56,.71,.16,1.53,.28,2.3Z"/><path class="cls-7" d="M133.14,1.56c-.32,.74,.15,1.57-.28,2.3,.12-.76-.28-1.59,.28-2.3Z"/><path class="cls-7" d="M264.15,6.66v2.39c-.4-.8-.4-1.59,0-2.39Z"/><path class="cls-7" d="M187.74,23.64c-.42-.72,.04-1.56-.28-2.29,.55,.71,.16,1.53,.28,2.29Z"/><path class="cls-7" d="M59.1,60.59h-2.39c.8-.41,1.59-.4,2.39,0Z"/><path class="cls-7" d="M429.4,113.53c.44,.72,0,1.55,.27,2.29-.53-.71-.15-1.53-.27-2.29Z"/><path class="cls-7" d="M88.79,23.64c-.42-.72,.04-1.56-.28-2.29,.55,.71,.16,1.53,.28,2.29Z"/><path class="cls-7" d="M217.05,26.76c0,.7,0,1.39,0,2.09-.36-.69-.36-1.39,0-2.09Z"/><path class="cls-7" d="M147.02,28.84v-2.09c.37,.7,.37,1.39,0,2.09Z"/><path class="cls-7" d="M428.73,6.96c0,.7,0,1.39,0,2.09-.36-.7-.36-1.39,0-2.09Z"/><path class="cls-7" d="M72.59,60.57h-2.09c.7-.36,1.39-.36,2.09,0Z"/><path class="cls-7" d="M122.6,6.96v2.09c-.36-.7-.36-1.39,0-2.09Z"/><path class="cls-7" d="M125.36,60.58l-2.09-.02c.7-.34,1.39-.36,2.09,.02Z"/><path class="cls-7" d="M148.15,60.58l-2.09-.02c.7-.34,1.39-.36,2.09,.02Z"/><path class="cls-7" d="M61.73,6.96v2.09c-.36-.7-.36-1.39,0-2.09Z"/><path class="cls-7" d="M20.79,9.05v-2.09c.37,.7,.37,1.39,0,2.09Z"/><path class="cls-7" d="M130.84,28.84v-2.08c.34,.69,.34,1.39,0,2.08Z"/><path class="cls-7" d="M10.16,26.76v2.09c-.36-.7-.36-1.39,0-2.09Z"/><path class="cls-7" d="M.26,26.76v2.08c-.34-.69-.34-1.39,0-2.08Z"/><path class="cls-7" d="M427.68,9.05c0-.69,0-1.39,0-2.08,.34,.69,.34,1.39,0,2.08Z"/><path class="cls-7" d="M396.65,6.96c0,.7,0,1.39,0,2.09-.36-.7-.36-1.39,0-2.09Z"/><path class="cls-7" d="M319.72,9.05c0-.7,0-1.39,0-2.09,.37,.7,.37,1.39,0,2.09Z"/><path class="cls-7" d="M531.58,6.96c0,.7,0,1.39,0,2.09-.36-.7-.36-1.39,0-2.09Z"/><path class="cls-7" d="M384.12,6.05c.53-.53,1.22-.08,1.8-.31-.52,.57-1.2,.21-1.8,.31Z"/><path class="cls-7" d="M152.89,2.17c-.13,.55,.11,1.16-.24,1.68,.07-.56-.19-1.17,.24-1.68Z"/><path class="cls-7" d="M179.63,26.7h-1.79c.6-.37,1.19-.38,1.79,0Z"/><path class="cls-7" d="M230.31,26.7h-1.79c.6-.37,1.19-.38,1.79,0Z"/><path class="cls-7" d="M375.75,8.46c.25-.59,0-1.2,.05-1.8,.35,.61,.4,1.21-.05,1.8Z"/><path class="cls-7" d="M269.88,11.45l.44-.29c.2,.45,.24,.88-.09,1.29-.05-.36,.03-.76-.34-1.01Z"/><path class="cls-7" d="M121.52,10.55c.05-.6,.13-1.2-.09-1.78,.55,.57,.44,1.17,.09,1.78Z"/><path class="cls-7" d="M228.26,10.55c.05-.6,.13-1.2-.09-1.78,.55,.57,.44,1.17,.09,1.78Z"/><path class="cls-7" d="M226.05,28.56c0,.6,.02,1.19,.02,1.79-.41-.59-.39-1.19-.02-1.79Z"/><path class="cls-7" d="M198.85,28.26c.25-.59,0-1.2,.05-1.8,.35,.61,.39,1.21-.05,1.8Z"/><path class="cls-7" d="M175.38,28.56c0,.6,.02,1.19,.02,1.79-.41-.59-.39-1.19-.02-1.79Z"/><path class="cls-7" d="M103.42,28.56l.02,1.79c-.41-.59-.39-1.19-.02-1.79Z"/><path class="cls-7" d="M98.73,30.34c.05-.6,.13-1.2-.09-1.78,.55,.57,.44,1.17,.09,1.78Z"/><path class="cls-7" d="M107.67,26.7h-1.79c.6-.37,1.19-.38,1.79,0Z"/><path class="cls-7" d="M51.3,26.69h-1.79c.59-.37,1.19-.36,1.79,0Z"/><path class="cls-7" d="M87.88,6.89h-1.79c.59-.37,1.19-.36,1.79,0Z"/><path class="cls-7" d="M187.73,25.85c.53-.53,1.22-.08,1.8-.31-.52,.57-1.2,.21-1.8,.31Z"/><path class="cls-7" d="M50.4,6.89h-1.79c.59-.37,1.19-.36,1.79,0Z"/><path class="cls-7" d="M88.78,25.85c.53-.53,1.22-.08,1.8-.31-.52,.57-1.2,.21-1.8,.31Z"/><path class="cls-7" d="M115.48,60.32c-.5-.16-1.01-.16-1.51,0,.5-.42,1.01-.42,1.51,0Z"/><path class="cls-7" d="M179.62,8.45l.07-1.49c.34,.51,.41,1.02-.07,1.49Z"/><path class="cls-7" d="M63.85,20.76v1.49c-.38-.49-.36-.99,0-1.49Z"/><path class="cls-7" d="M138.51,27.06v1.49c-.37-.5-.37-.99,0-1.49Z"/><path class="cls-7" d="M135.57,65.16c-.53-.42-.18-.87-.03-1.3l.03,1.3Z"/><path class="cls-7" d="M221.55,5.47l.02,1.49c-.39-.49-.37-.99-.02-1.49Z"/><path class="cls-7" d="M114.81,5.46l.02,1.49c-.39-.49-.37-.99-.02-1.49Z"/><path class="cls-7" d="M506.37,4.55c0,.23-.28,.37-.31,.3-.12-.27-.15-.59-.21-.89l.52,.59Z"/><path class="cls-7" d="M77.94,65.14l.07,1.49c-.49-.47-.42-.98-.07-1.49Z"/><path class="cls-7" d="M212.61,6.89h-1.49c.5-.34,.99-.34,1.49,0Z"/><path class="cls-7" d="M250.65,.96v1.49c-.38-.49-.37-.99,0-1.49Z"/><path class="cls-7" d="M192.51,2.45c.2-.5,.16-.99-.02-1.48,.5,.49,.48,.98,.02,1.48Z"/><path class="cls-7" d="M57.02,65.44c-.09,.5-.1,.99,.06,1.47-.57-.47-.5-.96-.06-1.47Z"/><path class="cls-7" d="M603.89,8.45c.02-.5,.05-.99,.07-1.49,.34,.51,.41,1.02-.07,1.49Z"/><path class="cls-7" d="M81.24,20.76v1.49c-.38-.49-.36-.99,0-1.49Z"/><path class="cls-7" d="M92.02,25.26l.02,1.49c-.39-.49-.37-.99-.02-1.49Z"/><path class="cls-7" d="M83.42,67.74c.32,.54,.36,1.07-.03,1.6l.03-1.6Z"/><path class="cls-7" d="M161.59,7.26v1.49c-.36-.5-.36-.99,0-1.49Z"/><path class="cls-7" d="M586.76,7.26v1.49c-.37-.5-.37-.99,0-1.49Z"/><path class="cls-7" d="M493.33,8.75v-1.49c.36,.5,.36,.99,0,1.49Z"/><path class="cls-7" d="M131.63,71.73c.23-.49,.18-.99,0-1.48,.5,.49,.49,.98,0,1.48Z"/><path class="cls-7" d="M21.61,28.6c-.34-.53-.34-1.07,0-1.6,0,.53,0,1.07,0,1.6Z"/><path class="cls-7" d="M311.21,7.26v1.49c-.37-.5-.37-.99,0-1.49Z"/><path class="cls-7" d="M621.89,6.89h-1.49c.5-.34,.99-.34,1.49,0Z"/><path class="cls-7" d="M306.21,11.45c.1-.5,.1-1-.08-1.48,.53,.47,.45,.97,.08,1.48Z"/><path class="cls-7" d="M582.01,6.88h-1.49c.49-.34,.99-.33,1.49,0Z"/><path class="cls-6" d="M28.6,54.34c5.68,0,10.42,4.8,10.41,10.54,0,5.77-4.8,10.47-10.65,10.45-5.66-.02-10.35-4.84-10.34-10.61,.02-5.67,4.82-10.39,10.57-10.38Z"/><path class="cls-8" d="M268.3,10.12c-1.18-.02-2.07-.99-2.07-2.26,0-1.27,.89-2.25,2.07-2.27,1.23-.02,2.17,1.01,2.14,2.34-.03,1.25-.97,2.21-2.14,2.19Z"/><path class="cls-17" d="M4.54,25.5c1.27,0,2.16,.99,2.14,2.35-.02,1.35-.96,2.3-2.24,2.26-1.2-.04-2.05-.99-2.06-2.28-.01-1.36,.9-2.34,2.16-2.33Z"/><path class="cls-17" d="M168.1,8.01c0,1.32-.97,2.32-2.22,2.3-1.24-.02-2.17-1.06-2.13-2.38,.04-1.26,.95-2.21,2.13-2.23,1.25-.02,2.22,.99,2.22,2.3Z"/><path class="cls-17" d="M43.08,8.01c0,1.3-.99,2.32-2.22,2.3-1.25-.02-2.14-1.02-2.1-2.39,.04-1.29,.91-2.21,2.11-2.22,1.24-.01,2.21,1.01,2.21,2.31Z"/><path class="cls-17" d="M568.64,10.31c-1.26,.01-2.17-.96-2.16-2.32,0-1.3,.85-2.24,2.05-2.29,1.25-.05,2.24,.93,2.27,2.25,.03,1.31-.92,2.35-2.16,2.36Z"/><path class="cls-17" d="M118.94,27.73c.04,1.3-.91,2.36-2.14,2.38-1.21,.02-2.11-.87-2.18-2.16-.07-1.36,.79-2.4,2.03-2.45,1.25-.06,2.25,.91,2.29,2.23Z"/><path class="cls-17" d="M124.47,27.69c.04-1.38,.96-2.27,2.26-2.19,1.19,.07,2.01,1.04,2,2.34-.02,1.36-.95,2.31-2.22,2.27-1.28-.04-2.08-1-2.04-2.41Z"/><path class="cls-17" d="M421.31,7.91c.04-1.39,.95-2.28,2.25-2.2,1.19,.07,2.02,1.03,2.01,2.33-.01,1.36-.94,2.32-2.21,2.28-1.28-.03-2.09-.98-2.05-2.4Z"/><path class="cls-17" d="M489.17,5.7c1.2,.09,2.1,1.22,1.99,2.52-.1,1.25-1.07,2.14-2.27,2.09-1.25-.05-2.13-1.09-2.05-2.43,.08-1.36,1.05-2.26,2.32-2.17Z"/><path class="cls-9" d="M80.64,6.9h-3.84c.3-1.03,1-1.43,1.96-1.44,.92,0,1.55,.44,1.88,1.44Z"/><path class="cls-9" d="M496.52,6.89c.46-1.05,1.14-1.49,2.13-1.42,.85,.06,1.45,.46,1.75,1.42h-3.89Z"/><path class="cls-9" d="M614.63,6.9h-3.85c.35-.99,.99-1.42,1.9-1.43,.91-.02,1.61,.35,1.94,1.43Z"/><path class="cls-14" d="M173.76,6.9c.44-1.09,1.13-1.51,2.12-1.44,.85,.06,1.46,.46,1.72,1.44h-3.84Z"/><path class="cls-14" d="M601.88,6.89h-3.84c.41-1.07,1.11-1.49,2.1-1.42,.85,.05,1.45,.47,1.74,1.42Z"/><path class="cls-3" d="M229.88,28.22c.54,.14,1.49-.05,1.46,.76-.04,1.01-.91,1.53-1.91,1.52-.67-.01-1.34-.32-1.25-1.16,.1-.97,.89-1.07,1.7-1.12Z"/><path class="cls-3" d="M179.33,28.23c.41,.24,1.41-.16,1.33,.81-.08,.95-.89,1.44-1.81,1.46-.66,.02-1.37-.23-1.34-1.07,.04-1.09,.9-1.16,1.82-1.2Z"/><path class="cls-12" d="M87.39,8.43c.65,.1,1.6-.04,1.6,.71,.01,1.01-.86,1.56-1.86,1.57-.66,.01-1.37-.26-1.33-1.1,.04-.98,.84-1.1,1.58-1.18Z"/><path class="cls-12" d="M50.05,8.44c.53,.11,1.48-.07,1.47,.72-.02,1-.88,1.55-1.88,1.55-.67,0-1.37-.29-1.3-1.13,.07-.96,.85-1.11,1.71-1.14Z"/><path class="cls-12" d="M52.52,28.79c-.27,1.07-.87,1.62-1.81,1.7-.68,.06-1.39-.15-1.47-.94-.1-.98,.64-1.25,1.46-1.3,.68-.04,1.35,.02,1.82,.54Z"/><path class="cls-3" d="M107.17,28.23c.59,.07,1.54-.02,1.54,.69,0,.99-.85,1.56-1.85,1.58-.66,0-1.35-.25-1.31-1.1,.04-.99,.82-1.12,1.63-1.17Z"/><path class="cls-11" d="M196.83,26.71h-3.69c.18-1,.84-1.4,1.73-1.45,.97-.05,1.72,.31,1.96,1.45Z"/><path class="cls-11" d="M369.96,6.97c.32-1.05,.94-1.45,1.78-1.5,.91-.05,1.65,.27,2.02,1.34-1.26,.33-2.47,.07-3.81,.17Z"/><path class="cls-14" d="M623.13,9.23c-.36,1.01-1.04,1.54-2.04,1.46-.68-.05-1.35-.42-1.19-1.22,.2-.97,1.06-1.09,1.89-1,.54,.06,1.23-.04,1.34,.76Z"/><path class="cls-14" d="M212.43,8.44c.44,.24,1.44-.17,1.35,.83-.08,.96-.9,1.42-1.81,1.44-.68,.02-1.39-.29-1.36-1.08,.04-1.03,.9-1.16,1.82-1.19Z"/><path class="cls-9" d="M67.82,6.9h-3.89c.37-.97,.99-1.42,1.91-1.44,.92-.02,1.6,.37,1.99,1.44Z"/><path class="cls-9" d="M128.73,6.94h-3.86c.2-1.02,.88-1.39,1.74-1.47,.99-.09,1.67,.36,2.11,1.47Z"/><path class="cls-9" d="M12.36,26.68c.41-1,1.05-1.43,1.97-1.43,.93,0,1.54,.45,1.95,1.43h-3.92Z"/><path class="cls-9" d="M434.89,6.94h-3.87c.16-1.03,.86-1.38,1.72-1.47,.99-.11,1.66,.37,2.15,1.47Z"/><path class="cls-9" d="M533.79,6.84c1.24-1.89,2.7-1.89,3.87,0h-3.87Z"/><path class="cls-9" d="M398.86,6.84c1.24-1.89,2.7-1.89,3.87,0h-3.87Z"/><path class="cls-11" d="M581.76,8.45c.53,.08,1.45-.08,1.48,.69,.04,1.05-.85,1.53-1.82,1.56-.68,.03-1.36-.3-1.33-1.09,.04-.93,.79-1.14,1.67-1.16Z"/><path class="cls-17" d="M252.15,27.84c-.03,1.29-1.04,2.31-2.25,2.26-1.24-.05-2.13-1.09-2.06-2.42,.06-1.28,.95-2.19,2.15-2.19,1.21,0,2.19,1.07,2.17,2.35Z"/><path class="cls-17" d="M148.4,8.07c-.04,1.29-1.06,2.29-2.27,2.24-1.24-.06-2.12-1.11-2.04-2.44,.07-1.28,.97-2.18,2.17-2.17,1.2,.01,2.18,1.09,2.14,2.37Z"/><path class="cls-17" d="M557.38,7.95c.03,1.28-.95,2.35-2.15,2.36-1.2,0-2.09-.89-2.16-2.18-.07-1.33,.81-2.38,2.05-2.43,1.22-.05,2.23,.95,2.26,2.25Z"/><path class="cls-17" d="M142.84,25.5c1.24,.03,2.11,1.04,2.07,2.4-.04,1.29-.91,2.2-2.11,2.21-1.27,0-2.15-.95-2.14-2.33,.01-1.37,.91-2.31,2.18-2.28Z"/><path class="cls-17" d="M315.47,10.31c-1.26-.01-2.13-.99-2.1-2.36,.03-1.37,.94-2.3,2.21-2.25,1.18,.04,2.03,1,2.04,2.29,0,1.36-.9,2.34-2.15,2.32Z"/><path class="cls-8" d="M413.62,5.7c1.23,0,2.18,1.04,2.15,2.35-.03,1.32-1.01,2.3-2.25,2.26-1.17-.04-2.05-1.02-2.07-2.28-.01-1.32,.93-2.34,2.16-2.33Z"/><path class="cls-8" d="M211.86,25.49c1.23,.02,2.16,1.08,2.12,2.39-.05,1.32-1.03,2.29-2.28,2.23-1.17-.06-2.04-1.05-2.03-2.31,0-1.32,.96-2.32,2.19-2.3Z"/><path class="cls-17" d="M18.68,7.97c.02,1.36-.88,2.34-2.13,2.34-1.21,0-2.07-.89-2.12-2.2-.05-1.37,.8-2.37,2.05-2.41,1.25-.04,2.18,.92,2.2,2.27Z"/><path class="cls-7" d="M150,66.31c.05,1.17-.14,2.3-.8,3.28-1.12,1.7-3.2,1.69-4.33,.02-1.11-1.66-1.12-4.76,0-6.41,1.17-1.74,3.3-1.7,4.41,.1,.56,.92,.75,1.94,.72,3.01Z"/><path class="cls-7" d="M74.57,66.5c-.06,.96-.18,2.04-.79,3-1.14,1.8-3.23,1.83-4.41,.06-1.07-1.6-1.04-4.83,.05-6.41,1.12-1.62,3.09-1.64,4.25-.05,.55,.75,.9,2.01,.91,3.4Z"/><path class="cls-7" d="M108.88,68.05c-.03-1.62,1.06-2.91,2.5-2.96,1.5-.05,2.6,1.11,2.64,2.78,.05,1.8-.96,3.01-2.53,3.02-1.46,.01-2.59-1.21-2.61-2.85Z"/><path class="cls-8" d="M93.56,70.89c-1.11,.01-1.79-.33-1.9-1.29-.11-.89,1.01-1.74,2.27-1.6,.67,.08,1.75-.17,1.78,1.04,.02,.93-1.22,1.86-2.14,1.85Z"/><path class="cls-1" d="M27.64,62.53c-.45,.12-.86,.14-1.17,.33-.72,.42-.96,.05-1.18-.55-.2-.56-.56-1.06,.34-1.39,1.15-.43,2.13-1.27,3.47-1.2,.63,.03,.88,.22,.87,.87-.02,3.24-.03,6.48,0,9.72,0,.98-.63,.8-1.21,.83-.63,.03-1.16,.05-1.14-.89,.05-2.54,.02-5.08,.02-7.72Z"/></g></g></svg>