<?xml version="1.0" encoding="UTF-8"?><svg id="Layer_2" xmlns="http://www.w3.org/2000/svg" viewBox="0 0 425.76 360.39"><defs><style>.cls-1{fill:#fff;}</style></defs><g id="Layer_1-2"><g><path class="cls-1" d="M393.07,60.14V188.48c0,34.57-30.31,62.51-65.36,62.51H157.23c-5.21,14.21-12.79,23.21-21.79,33.15,3.32,.95,7.11,0,10.89,0h142.07c9,37.89,33.15,65.36,71.04,76.25v-76.72h15.16c28.89,0,51.15-19.89,51.15-48.78V98.97c.47-20.84-13.74-37.41-32.68-38.84h0Z"/><path class="cls-1" d="M328.19,0H39.78C18.47,0,0,15.63,0,36.94V187.06c0,21.31,18.47,40.25,39.78,40.25h31.25v70.56c33.15-10.89,59.67-37.41,68.67-70.56h188.01c21.31,0,36.94-18.94,36.94-40.25V36.94c0-21.31-15.63-36.94-36.46-36.94h0ZM80.51,137.34c-13.26,0-23.68-10.42-23.68-23.68s10.42-23.68,23.68-23.68,23.68,10.42,23.68,23.68-10.42,23.68-23.68,23.68Zm94.71,0c-13.26,0-23.68-10.42-23.68-23.68s10.42-23.68,23.68-23.68,23.68,10.42,23.68,23.68-10.42,23.68-23.68,23.68Zm94.72,0c-13.26,0-23.68-10.42-23.68-23.68s10.42-23.68,23.68-23.68,23.68,10.42,23.68,23.68-10.42,23.68-23.68,23.68Z"/></g></g></svg>