<?xml version="1.0" encoding="UTF-8"?><svg id="Layer_2" xmlns="http://www.w3.org/2000/svg" viewBox="0 0 39.98 39.97"><defs><style>.cls-1{fill:#fff;}</style></defs><g id="Layer_1-2"><g><path class="cls-1" d="M17.81,39.89c-4.98,0-9.95,.04-14.92-.03-1.13-.02-2.87,.73-2.89-1.55-.02-2.22,1.66-1.64,2.84-1.64,9.12-.04,18.24,0,27.36-.04,1.31,0,2.66-.06,3.92-.37,1.65-.4,2.52-1.71,2.27-3.35-.31-2.09-1.75-3.01-3.89-3-6.8,.03-13.6,0-20.4,0-1.33,0-2.65,.02-3.98,0C3.01,29.82,0,27.32,.02,23.22c.02-4.17,2.84-6.42,8.22-6.51,2.16-.04,4.31-.03,6.47,.02,1.03,.02,1.95,.22,1.99,1.6,.04,1.43-.89,1.59-1.94,1.6-2.32,.03-4.65,.07-6.96,0-2.27-.07-4.14,.67-4.31,3.07-.19,2.77,1.85,3.64,4.26,3.65,7.79,.03,15.59,0,23.38,.03,5.73,.03,8.7,2.28,8.73,6.51,.03,4.22-3.08,6.66-8.61,6.7-4.48,.03-8.96,0-13.43,0Z"/><path class="cls-1" d="M22.89,19.98c-1.11-.17-2.6,.42-2.8-.69-.27-1.51-.77-3.31,.6-4.69,4.54-4.55,9.08-9.1,13.66-13.61,1.19-1.17,2.62-1.37,4.02-.29,1.3,1,2.24,2.61,1.11,3.84-4.81,5.19-9.83,10.18-14.84,15.17-.37,.36-1.26,.2-1.74,.26Z"/></g></g></svg>