<?xml version="1.0" encoding="UTF-8"?><svg id="Layer_2" xmlns="http://www.w3.org/2000/svg" viewBox="0 0 39.95 42.35"><defs><style>.cls-1{fill:#fff;}</style></defs><g id="Layer_1-2"><g><path class="cls-1" d="M19.96,42.26c-5.31,0-10.61,.04-15.91-.03-1.38-.02-3.23,.68-3.87-1.25-.57-1.7,.38-3.23,1.29-4.63,6.11-9.4,20.02-12.3,30.06-6.32,3.19,1.9,5.91,4.29,7.62,7.62,1.47,2.85,1.17,4.73-2.76,4.63-5.47-.14-10.94-.03-16.41-.03Z"/><path class="cls-1" d="M20.05,22.71c-6.4,.05-11.41-4.86-11.47-11.25C8.52,5.08,13.46,.05,19.85,0c6.41-.05,11.42,4.86,11.47,11.25,.05,6.4-4.87,11.4-11.27,11.46Z"/></g></g></svg>