<?xml version="1.0" encoding="UTF-8"?><svg id="Layer_2" xmlns="http://www.w3.org/2000/svg" viewBox="0 0 753.19 544.01"><defs><style>.cls-1{fill:#fff;}</style></defs><g id="Layer_1-2"><g><path class="cls-1" d="M367.81,306.34c14.64,17.76,27.61,36.61,37.47,57.5,10.35,21.92,17.57,44.82,21.57,68.73,.22,1.3,.63,2.58,.96,3.86,4.75,14.61,4.3,29.75,4.51,44.82,.2,14.16-1.28,28.2-3.24,42.21-1.72,12.3-10.63,20.25-23.11,20.49-5.99,.12-11.99,.03-17.98,.03-116.56,0-233.12,0-349.68,.01-3.33,0-6.66-.07-9.99-.24-9.23-.5-17.14-6.94-19.72-15.77-2.5-8.54-2.85-17.36-3.72-26.12-.45-1.85-.38-3.75-.43-5.63-.21-10.46-.43-20.94,0-31.39,.57-14.26,2.75-28.35,5.94-42.27,.27-1.18,.69-2.21,1.67-2.95l-.03,.03c1.27-11.17,4.9-21.69,8.87-32.12,1.4-3.68,2.51-7.48,4.31-11.02,.76-1.49,1.34-3.01,2.81-3.95l-.02,.04c2.77-8.83,6.54-17.13,12.73-24.16l1.09-2.16c1.2-3.45,2.68-6.71,5.87-8.84,.38-.69,.77-1.37,1.15-2.06,2.7-5.7,6.2-10.81,11.14-14.83l-.03,.03c.44-1.77,1.42-3.14,2.96-4.11,.31-.34,.62-.69,.92-1.03,2.91-4.05,5.2-8.66,10.04-10.95v.02c4.59-7.03,11-12.41,17.17-17.87,12.67-11.23,26.18-21.41,40.74-30.18,7.7-4.64,18.62-4.34,25.69,1.18,1.64,1.28,2.86,2.73,3.39,4.74,7.14,14.04,4.38,23.65-8.92,32.08-49.85,31.61-84.1,74.86-98.47,132.77-5.69,22.96-7.39,46.28-5.71,69.88,.19,2.74,.95,3.86,3.79,3.59,2.48-.23,4.99-.03,7.49-.03,105.92,0,211.85,0,317.77,0,1.99,0,3.98-.15,5.97-.23,.33-.49,.67-.49,1,0,2.62,.47,4.73,.86,4.95-3.17,3.06-55.02-9.17-105.74-42.27-150.57-15.59-21.12-34.67-38.59-56.52-53.08-10.12-6.71-13.74-16.15-10.09-26.02,1.74-4.71,5.14-8.03,9-10.99,6.54-5.79,17.77-4.62,24.95,2.61,.15,.33,.4,.45,.76,.37,7.89,2.95,13.61,9.11,20.28,13.86,3.05,2.18,6.24,4.37,8.02,7.9l.09,.07c3.3,1.63,6.34,3.54,7.8,7.17l.95,.93c1.04,.32,1.72,1.01,2.06,2.03,.31,.99,.96,1.64,1.95,1.95,5.08,3.3,9.55,7.19,12.12,12.85Z"/><path class="cls-1" d="M471.75,266.43c12.88,6.84,17.48,18.32,11.83,29.5-2.1,4.16-5.47,6.97-9.36,9.38-28.39,17.52-52.3,39.74-70.88,67.56-8.59,12.86-18.93,15.23-32.36,7.49-6.68-3.18-10.39-13.12-7.96-21.91,1.52-5.49,4.34-10.28,8.84-13.94l-.02,.03c1.36-3.7,3.12-7.09,6.74-9.11l.32-.14,.02-.35c4.1-8.61,11.14-14.82,17.62-21.45,9.76-9.98,19.66-19.89,31.04-28.05,9.69-6.94,18.97-14.58,29.95-19.5,4.68-2.09,9.58-2.81,14.21,.48Z"/><path class="cls-1" d="M160.85,262.36c-10.4-10.06-18.81-10.86-31.15-3.23-20.57,12.71-38.88,28.19-55.84,45.35l-.02-6.04h0c2.13,.14,4.09-.55,5.44-2.06,3.42-3.81,8.32-6.58,9.1-12.35,.11-.8,.67-1.01,1.42-1.04,6.09-.2,9.41-4.2,12.45-8.82,1.54-2.34,6.16-2.29,5.27-6.68-.04-.19,.91-.9,1.12-.79,4.46,2.16,5.7-4.27,9.57-3.56-.26-5.26,8.82-.95,7.49-7.31,4.78,2.14,4.85-4.38,8.38-4.56,.32-.02,.75-.35,.95-.23,5.61,3.36,11.4-.94,17.12,.44,2.63,.64,10.52,6.99,10.95,10.05,.22,1.54-1.78-.36-2.24,.81Z"/><path class="cls-1" d="M5.75,496.4c-1.25-.66-1.44-3.37-4.12-1.52-.98,.68-1.97-2.34-1.52-3.2,3.81-7.27,1.69-15.05,2.06-22.57,.15-3.14,.49-6.26,1.16-9.23,.82-3.59,.3-6.61-1.9-9.29-1.36-1.67-1.33-2.3,.43-3.83,3.46-3.01,5.66-6.78,5.17-11.85-.2-2.1,2.08-4.34-.18-6.49,1.91-2.31,1.97-5.07,2.04-7.88,.08-3.29,1.57-2.47,3.17-.93-3.53,18.63-6.53,37.31-6.43,56.35,.03,6.81,.08,13.63,.12,20.44Z"/><path class="cls-1" d="M28.03,372.55c-6.44,15.32-11.68,31.05-15.99,47.09-.95-6.87,.02-13.27,3.22-19.6,1.26-2.49,1.89-5.86,1.18-9.13-.36-1.68-1.16-3.51-.25-5.53,3.67,2.49,4.3,.39,4.12-2.8-.24-4.31,4.32-6.33,4.97-10.25,.01-.07,1.8,.15,2.75,.23Z"/><path class="cls-1" d="M619.71,173.48c6.75-4.01,13.09-4.02,19.17,1.52,1.82,1.66,3.36,4.02,6.59,3.73,1.17-.11,1.99,1.41,1.39,3.05-.55,1.51-.79,3.13-1.16,4.7-1.51,.44-3.07,0-4.59,.33-.46-.14-.79-.43-1-.87,.74-2.42,.6-4.25-2.67-4.04-.33,.02-.77-.05-.94-.28-3.86-5.38-10.19-4.28-15.46-5.95-1-.32-1.78-.92-1.34-2.18Z"/><path class="cls-1" d="M421.82,107.47c6.71,13.12,14.94,25.18,24.98,35.98-2.78,.95-4.79-.21-5.99-2.59-2.44-4.83-5.6-8.72-10.46-11.55-3.48-2.03-4.27-6.71-6.72-9.97-1.43-1.9-1.32-5.17-3.42-7.46-1.31-1.43-.41-3.46,1.61-4.41Z"/><path class="cls-1" d="M342.84,281.31c-9.43-7.25-18.87-14.5-28.3-21.75,3.44-.66,6.82-2.98,8.84,2.93,1.06,3.11,5.46,2.35,9.91-.54-1.88,3.14-4.26,4.94-.15,5.96,2.53,.63,2.65,5.58,7.26,4.59,.85-.18,1.66,5.7,2.44,8.8Z"/><path class="cls-1" d="M40.73,348.42c-4.24,8.05-8.48,16.11-12.73,24.16-3.19-2.96-1.01-6.97,.43-8.44,4.31-4.37,4.14-10.47,7.25-15.23,2-3.05,3.11-2.83,5.04-.5Z"/><path class="cls-1" d="M446.78,143.43c7.3,6.88,15.11,13.11,23.28,18.91-3.5,2.18-6.11,.3-8.77-1.8-1.41-1.12-2.14-3.51-4.85-2.48-1.47,.56-1.02-.68-.73-1.39,1.14-2.77,.52-3.7-2.93-3.34-3.64,.38-5.83-.56-4.47-4.47,.86-2.49-3.6-2.95-1.53-5.42Z"/><path class="cls-1" d="M313.78,259.19c-7.83-5.54-16.11-6.68-24.95-2.61-2.29-.88-2.22-2.62-.29-3.16,4.07-1.13,7.19-5.09,12.72-2.35,3.67,1.82,8.56,1.24,11.14,5.54,.5,.83,.91,1.72,1.36,2.58Z"/><path class="cls-1" d="M470.72,162.67c4.71,2.58,9.43,5.17,14.14,7.75-3.14,1.59-7.43-.11-9.93,3.62-.44,.65-1.27-1.23-2.19-1.57-.21-.72-1.02-1.82-.11-2.13,2.78-.93,1.69-1.61,.25-2.95-1.27-1.18-3.39-2.29-2.16-4.73Z"/><path class="cls-1" d="M59.98,320.54c-3.54,5.07-6.99,10.21-11.14,14.83-.43-1.35-3.53-2.69,.34-4.07,1.14-.41,1.09-3.26,1.76-4.95,1.79-4.5,4.86-5.7,9.04-5.81Z"/><path class="cls-1" d="M633.7,147.48c-.42-4.65,5.79-10.61,10.15-9.63,.38,.09,.57,1.07,.84,1.63-3.99,2.11-5.07,7.73-10.19,8.44-.24,.03-.53-.29-.8-.45Z"/><path class="cls-1" d="M73.87,304.47c-3.18,3.8-6.09,7.85-10.04,10.95-3-1.99,.17-3.76,.6-5.25,.67-2.3,2.54-4.46,4.39-6.16,1.4-1.29,3.5-1.23,5.05,.45Z"/><path class="cls-1" d="M47.68,337.42c-1.7,3.12-3.34,6.27-5.87,8.84-.52-1.17-3.63-1.39-1.94-3.04,1.46-1.42-.35-5.67,3.89-4.54,1.49,.4,1.9-3,3.92-1.26Z"/><path class="cls-1" d="M62.91,316.46c-.21,1.93-1.66,2.97-2.96,4.11-.54-.6-1-1.32-1.64-1.76-.88-.61-3.52,1.35-2.65-1.8,.47-1.69,1.64-1.51,4.18-1.15,1.02,.14,2.18-.59,3.08,.6Z"/><path class="cls-1" d="M350.73,288.56c-2.6-2.39-5.2-4.78-7.8-7.17,1.85,.12,1.95-2.13,3.95-2.69-.76,2.66,.38,4.35,2.34,5.78,1.28,.93,2.79,2.08,1.51,4.09Z"/><path class="cls-1" d="M728.68,468.41c2.29-.67,4.26-3.49,7-1-1.42,.85-2.8,1.75-4.27,2.52-1.58,.82-2.53,.26-2.73-1.52Z"/><path class="cls-1" d="M439.36,147.22c1.73-1.45,3.56-2.02,5.54-.51-1.6,2.76-3.67,.79-5.54,.51Z"/><path class="cls-1" d="M73.84,298.45c-1-.05-1.04,2.57-2.33,1.03-.46-.55-1.2-2.41,.16-3.07,1.98-.97,1.9,.86,2.17,2.05h0Z"/><path class="cls-1" d="M435.02,138.27c.12,1.42-.91,1.47-1.57,1.75-1.03,.44-1.53-.19-1.57-1.15-.03-.89,.45-1.77,1.31-1.73,.66,.03,1.3,.78,1.83,1.13Z"/><path class="cls-1" d="M136.01,249.55c1.43-2.33,3.51-2.26,6.58-1.76-2.76,.74-4.67,1.25-6.58,1.76Z"/><path class="cls-1" d="M353.74,291.53c-.69-.68-1.37-1.36-2.06-2.03,.54-.73,1.07-1.45,1.63-2.22,.85,1.31,1.28,2.7,.43,4.25Z"/><path class="cls-1" d="M137.72,249.59h3.94c.04,.24,.11,.42,.08,.44-1.45,.86-2.72,.41-4.01-.44Z"/><path class="cls-1" d="M712.55,339.58c1.27,2.99,2.97,5.72,4.97,8.27-.12,.31-.02,.51,.31,.59,3.72,2.84,5.2,7.22,7.2,11.11,4.39,8.53,7.86,17.5,11.46,26.39,.78,1.92,.39,3.93,1.09,5.78-.17,.3-.11,.54,.19,.71,2.35,2.56,3.11,5.63,2.93,9.01l.19,1.02c1.44,1.51,1.17,3.55,1.67,5.35l-.12,.36,.27,.27c1.66,2.53,2.79,5.26,3.35,8.23,1.92,10.09,5.11,20.12,5.02,30.34-.06,8.01,3.73,15.74,1.15,23.85-.97,3.06,.93,6.14,.95,9.31,.04,5.79,.07,11.57-1.38,17.23l-.19,5.02c.8,3.1,1.02,6.15-.86,9-.07,.9-.15,1.8-.22,2.7-.62,3.75-1.28,7.5-1.84,11.26-1.65,11.03-9.58,18.15-20.71,18.51-2,.07-3.99,0-5.99,0-84.9,0-169.8-.08-254.7,.1-10.85,.02-18.56-3.89-23.23-13.69l-.33-.9c-1.24-5.89-.58-11.56,1.96-17.01,5.39-7.54,12.69-10.23,21.93-10.21,78.92,.19,157.84,.07,236.75,.25,4.61,.01,5.31-1.46,5.53-5.54,2.85-52.51-8.88-101.03-39.27-144.45-15.93-22.76-35.82-41.5-58.94-56.85-13.3-8.83-15.58-19.61-6.99-33.12,3.04-6.21,8.88-8.09,14.86-8.03,8.31,.09,15.61,3.47,21.09,10.08h-.02c3.93,1.01,6.6,3.74,9.09,6.72,.08,.33,.28,.45,.61,.36,5.66,2.89,10.73,6.5,14.36,11.86h0c7.91,4.53,13.68,11.45,19.81,17.91,6.51,6.85,12,14.58,17.96,21.9,1.1,1.35,1.7,2.81,2.11,4.43-.09,.37,.05,.6,.41,.71,1.5,.7,2.42,1.82,2.52,3.52v.35l.32,.16c2.99,1.45,3.84,4.31,4.73,7.15v-.02Z"/><path class="cls-1" d="M640.67,186.53c-1.95-1.21-3.94-2.37-5.85-3.63-11.58-7.62-19.5-7.21-30.1,1.59-.36-1.63-1.67-3.44,1.2-4.27,1.76-.51,1.82-2.15,1.79-3.67-.07-3.3,1.81-4.3,4.42-2.98,2.72,1.38,5.07,1.1,7.59-.08,3.46,.69,6.43,4.1,10.46,1.77,1.6-.93,2.86-1.49,2.82,1.62-.03,2.11,2.61,3.98,4.4,3.93,5.33-.15,4.15,2.73,3.28,5.74Z"/><path class="cls-1" d="M601.65,166.45c2.7-1.63,5.4-3.26,8.1-4.88,.11,2.21,2.58,5.08-.68,6.39-2.33,.93-5.58,2-7.41-1.51Z"/><path class="cls-1" d="M609.83,161.53c3.62-2.7,7.24-5.39,10.86-8.09,.71,1.78-.92,6.19-2.34,6.05-3.11-.3-4.98,4.38-8.53,2.04Z"/><g><path class="cls-1" d="M623.45,229.36c-.99,.6-2.33,.73-2.76,2.08-2.22,4.57-6.64,6.2-10.86,8.09l-.08,.04c-1.97,2.84-4.76,4.31-8.1,4.88-13.78,6.7-27.97,12.04-43.28,14.22-24.48,3.47-48.01,.37-70.73-9.3-.9-.38-1.86-.64-2.78-.95-5.33-1.45-10.41-3.37-14.14-7.75-.11-.32-.33-.43-.65-.33-.78-.26-1.69-.21-2.36-.67-7.75-5.19-15.49-10.39-20.92-18.25l.02,.02c-5.84-3.03-8.76-8.87-12.6-13.68-5.33-6.67-10.16-13.82-12.37-22.3-.42-.98-.83-1.97-1.25-2.95-6.71-9.5-8.51-20.62-10.21-31.69-1.6-10.47-2.37-21.04-.98-31.62,.25-1.9-.13-4.05,1.47-5.62l-.02,.04c.5-4.46-.21-9.05,1.55-13.38,.67-1.64,.76-3.53,2.28-4.75,.69-1.21-.19-2.87,1.13-3.89,.14-6.14,3.08-11.44,5.6-16.71,6.61-13.82,15.15-26.37,26.56-36.78,.75-.68,1.6-1.16,2.48-1.63l1.29-1.23c5.64-7.11,12.73-12.25,21.11-15.66l-.03,.02c4.23-5.05,10.61-6.41,16.11-9.23,3.95-2.03,8.3-3.16,12.51-4.58,.71-.24,1.44-.41,2.17-.56,2.21-.51,4.43-.97,6.57-1.75,.52-.18,1.05-.29,1.59-.38,12.17-2.79,24.48-3.53,36.91-2.9,.55,.04,1.09,.14,1.62,.27,1.99,.79,4.1,.74,6.18,.82,.52,.02,1.03,.09,1.53,.19,3.46,.71,6.94,1.27,10.42,1.87,.5,.07,.99,.19,1.47,.34,10.26,2.94,20.31,6.37,29.82,11.33,3.11,1.63,5.89,3.72,8.94,5.4,.48,.1,.94,.26,1.38,.47,17.5,11.6,31.62,26.43,42.4,44.45,.57,.86,1.06,1.76,1.55,2.67,20,38.31,21.42,77.31,4.38,116.99-.19,.48-.41,.94-.64,1.4-7.47,14.74-16.79,28.11-29.05,39.33-1.58,1.45-2.93,3.2-5.21,3.61Z"/><path class="cls-1" d="M539.76,43.27c48.93,.42,87.5,39.65,87.11,88.6-.38,48.27-40,86.93-88.7,86.56-48.09-.37-86.86-40.25-86.41-88.91,.44-47.73,40.15-86.66,88.01-86.25Z"/></g><path class="cls-1" d="M217.59,216.08c-49.6-.94-87.91-40.56-86.91-89.89,.97-47.97,40.97-86.21,89.36-85.43,48.26,.78,86.7,41.19,85.72,90.12-.93,47.09-41.29,86.08-88.17,85.2Z"/><path class="cls-1" d="M430.78,448.23c.08-.89,.07-2.51,.26-2.54,1.23-.16,.55,.93,.66,1.49,.08,.39-.17,.85-.27,1.28-.22-.07-.43-.15-.65-.22Z"/><path class="cls-1" d="M12.85,538.4c-.07,1.6-.83,2.72-2.31,3.36q-1.37-3.71,2.31-3.36h0Z"/><path class="cls-1" d="M649.73,193.25c-3.03-2.24-6.06-4.49-9.09-6.73,1.68-1.09,3.35-2.84,5.06-.05,.09,2.97,2.54,3.21,4.56,4.12,3.1,1.4,.24,1.88-.53,2.66Z"/><g><path class="cls-1" d="M302.32,229.36c-.99,.6-2.33,.73-2.76,2.08-2.22,4.57-6.64,6.2-10.86,8.09l-.08,.04c-1.97,2.84-4.76,4.31-8.1,4.88-13.78,6.7-27.97,12.04-43.28,14.22-24.48,3.47-48.01,.37-70.73-9.3-.9-.38-1.86-.64-2.78-.95-5.33-1.45-10.41-3.37-14.14-7.75-.11-.32-.33-.43-.65-.33-.78-.26-1.69-.21-2.36-.67-7.75-5.19-15.49-10.39-20.92-18.25l.02,.02c-5.84-3.03-8.76-8.87-12.6-13.68-5.33-6.67-10.16-13.82-12.37-22.3-.42-.98-.83-1.97-1.25-2.95-6.71-9.5-8.51-20.62-10.21-31.69-1.6-10.47-2.37-21.04-.98-31.62,.25-1.9-.13-4.05,1.47-5.62l-.02,.04c.5-4.46-.21-9.05,1.55-13.38,.67-1.64,.76-3.53,2.28-4.75,.69-1.21-.19-2.87,1.13-3.89,.14-6.14,3.08-11.44,5.6-16.71,6.61-13.82,15.15-26.37,26.56-36.78,.75-.68,1.6-1.16,2.48-1.63l1.29-1.23c5.64-7.11,12.73-12.25,21.11-15.66l-.03,.02c4.23-5.05,10.61-6.41,16.11-9.23,3.95-2.03,8.3-3.16,12.51-4.58,.71-.24,1.44-.41,2.17-.56,2.21-.51,4.43-.97,6.57-1.75,.52-.18,1.05-.29,1.59-.38C202.8,.32,215.11-.42,227.54,.21c.55,.04,1.09,.14,1.62,.27,1.99,.79,4.1,.74,6.18,.82,.52,.02,1.03,.09,1.53,.19,3.46,.71,6.94,1.27,10.42,1.87,.5,.07,.99,.19,1.47,.34,10.26,2.94,20.31,6.37,29.82,11.33,3.11,1.63,5.89,3.72,8.94,5.4,.48,.1,.94,.26,1.38,.47,17.5,11.6,31.62,26.43,42.4,44.45,.57,.86,1.06,1.76,1.55,2.67,20,38.31,21.42,77.31,4.38,116.99-.19,.48-.41,.94-.64,1.4-7.47,14.74-16.79,28.11-29.05,39.33-1.58,1.45-2.93,3.2-5.21,3.61Z"/><path class="cls-1" d="M218.63,43.27c48.93,.42,87.5,39.65,87.11,88.6-.38,48.27-40,86.93-88.7,86.56-48.09-.37-86.86-40.25-86.41-88.91,.44-47.73,40.15-86.66,88.01-86.25Z"/></g></g></g></svg>