<?xml version="1.0" encoding="UTF-8"?><svg id="Layer_2" xmlns="http://www.w3.org/2000/svg" viewBox="0 0 45.09 44"><defs><style>.cls-1,.cls-2{fill:none;stroke:#fff;stroke-linecap:round;stroke-linejoin:round;}.cls-2{stroke-width:2px;}</style></defs><g id="Layer_1-2"><g><path class="cls-2" d="M8.04,34v9h28.5v-15.25H8.04v5.25"/><path class="cls-2" d="M37.04,8V1H8.04v7"/><path class="cls-2" d="M37.54,33.5c5.26-1.22,6.37-2.45,6.49-7.5,.08-3.33,.08-6.67,0-10-.13-5.33-2.19-7.44-7.49-7.48-9.33-.07-18.67-.07-28,0-5.3,.04-7.36,2.15-7.49,7.48-.08,3.33-.08,6.67,0,10,.12,5.05,1.23,6.28,6.49,7.5"/><circle class="cls-2" cx="13.62" cy="17.84" r="4.3"/><line class="cls-1" x1="12.41" y1="33.5" x2="32.55" y2="33.5"/><line class="cls-1" x1="12.41" y1="36.28" x2="32.55" y2="36.28"/><line class="cls-1" x1="12.41" y1="39.07" x2="21.26" y2="39.07"/></g></g></svg>