<?xml version="1.0" encoding="UTF-8"?><svg id="Layer_2" xmlns="http://www.w3.org/2000/svg" viewBox="0 0 65.94 54.15"><defs><style>.cls-1{fill:#fff;}.cls-2{fill:#fdfdfd;}.cls-3{fill:#fefefe;}</style></defs><g id="Layer_1-2"><g><path class="cls-1" d="M19.98,48.94c.86-2.31,6.11,.88,4.85-3.49-.91-3.16-4.2-1.25-6.35-1.38-4.97-.31-9.97-.17-14.95-.07C.96,44.05-.01,43.02,0,40.46,.07,28.15,.07,15.84,0,3.53-.01,.96,.98,0,3.54,0,23.15,.06,42.77,.05,62.38,0c2.56,0,3.56,.96,3.54,3.53-.07,12.31-.09,24.62,.01,36.93,.02,3.04-1.47,3.59-4.04,3.54-5.48-.1-10.98-.19-16.45,.08-1.47,.07-4.29-1.87-4.5,1.83-.19,3.41,2.56,1.49,3.86,2.18,.41,.22,.77,.55,1.15,.83,.18,1.19-.64,1.62-1.51,2.02-7.64,.65-15.28,.64-22.93,.02-.88-.39-1.69-.84-1.53-2.02Z"/><path class="cls-1" d="M44.87,49.99l1.08-1.06c1.91,.77,2.28,2.44,1.86,4.08-.48,1.84-2.24,.89-3.38,.9-7.64,.09-15.29,.09-22.93,0-1.14-.01-2.9,.94-3.38-.9-.43-1.65-.08-3.32,1.86-4.07l1.07,1.04c2.36,1.85,5.14,1.02,7.67,.89,5.38-.26,10.87,1.18,16.15-.89Z"/><path d="M32.97,2.03c9.15,0,18.29,.11,27.44-.07,2.83-.06,3.61,.75,3.56,3.57-.16,10.98-.16,21.96,0,32.94,.04,2.83-.76,3.58-3.57,3.56-18.29-.13-36.58-.13-54.87,0-2.82,.02-3.6-.75-3.56-3.57,.16-10.98,.16-21.96,0-32.94-.04-2.83,.76-3.62,3.57-3.56,9.14,.18,18.29,.07,27.44,.07Z"/><path class="cls-2" d="M44.87,49.99c.86,1.14,1.19,1.98-.83,1.98-7.39-.03-14.77-.03-22.16,0-2.03,0-1.67-.85-.82-1.98h23.81Z"/><path class="cls-3" d="M32.98,43.64c1.79,1.56,5.66-1.9,5.8,2.22,.15,4.34-3.77,1.86-5.59,1.89-2,.04-6.02,2.21-6.01-1.92,0-4.04,3.98-.65,5.8-2.19Z"/></g></g></svg>