<?xml version="1.0" encoding="UTF-8"?><svg id="Layer_2" xmlns="http://www.w3.org/2000/svg" viewBox="0 0 41.93 25.97"><defs><style>.cls-1{fill:#0a0a0a;}.cls-2{fill:#121212;}.cls-3{fill:#010101;}.cls-4{fill:#fefefe;}</style></defs><g id="Layer_1-2"><path class="cls-3" d="M20.48,25.94c-4.81,0-9.61-.03-14.42,0C1.93,25.98-.02,23.94,.01,19.85,.04,15.37,.08,10.9,0,6.42-.07,2.1,1.9-.02,6.27,0,16.05,.04,25.83,.04,35.61,0c4.35-.02,6.38,2.05,6.31,6.39-.07,4.31-.1,8.62,0,12.93,.12,4.55-1.88,6.76-6.53,6.65-4.97-.11-9.95-.03-14.92-.03Z"/><path class="cls-4" d="M20.9,23.94c-4.81,0-9.62-.08-14.43,.03-3.17,.07-4.55-1.28-4.48-4.44,.1-4.31,.1-8.63,0-12.94-.08-3.09,1.13-4.62,4.35-4.6,9.79,.06,19.57,.04,29.36,0,2.9-.01,4.26,1.29,4.22,4.21-.06,4.48-.08,8.96,0,13.43,.06,3.24-1.51,4.4-4.59,4.33-4.81-.11-9.62-.03-14.43-.03Z"/><path class="cls-1" d="M16.2,17.01c3.11-1.46,6.29-1.22,9.49-.16-3.11,1.66-6.29,1.33-9.49,.16Z"/><path class="cls-2" d="M8.99,7.05c1.1,.12,1.86,.72,1.9,1.81,.06,1.36-.79,2.15-2.13,2.02-1.05-.1-1.76-.86-1.69-1.99,.08-1.1,.8-1.7,1.91-1.84Z"/><path class="cls-2" d="M18.97,8.86c-.29,1.34-.88,2.07-2.02,2.05-1.11-.02-1.85-.72-1.88-1.8-.04-1.37,.83-2.13,2.16-2,1.08,.1,1.54,1,1.74,1.76Z"/><path class="cls-2" d="M25.08,7.06c1.07,.24,1.83,.83,1.77,1.96-.07,1.37-.98,2.1-2.28,1.87-1.01-.18-1.72-1.02-1.53-2.14,.18-1.05,.9-1.68,2.03-1.69Z"/><path class="cls-2" d="M33.14,7.06c1.01,.3,1.8,.87,1.69,2.02-.13,1.35-1.03,2.07-2.34,1.79-1.02-.22-1.7-1.07-1.47-2.18,.22-1.02,.96-1.66,2.11-1.62Z"/><path class="cls-2" d="M9.2,15.04c1.01,.3,1.8,.87,1.69,2.02-.13,1.35-1.03,2.07-2.34,1.79-1.02-.22-1.7-1.07-1.47-2.18,.22-1.02,.96-1.66,2.11-1.62Z"/><path class="cls-2" d="M34.88,17.07c-.22,1.09-.81,1.82-1.93,1.82-1.12,0-1.86-.69-1.91-1.77-.06-1.36,.79-2.15,2.12-2.03,1.05,.1,1.69,.86,1.73,1.98Z"/></g></svg>