<?xml version="1.0" encoding="UTF-8"?><svg id="Layer_2" xmlns="http://www.w3.org/2000/svg" viewBox="0 0 42.81 22.41"><defs><style>.cls-1{fill:#fff;}</style></defs><g id="Layer_1-2"><path class="cls-1" d="M42.78,10.95s0-.05-.02-.06c-.03-.06-.06-.12-.1-.18,0-.02-.03-.04-.05-.06-.09-.11-9.58-10.65-21.2-10.65S.3,10.54,.21,10.64h-.01c-.06,.08-.1,.16-.14,.24v.03c-.04,.08-.06,.16-.06,.26v.04c0,.09,.02,.19,.05,.29,.03,.08,.07,.15,.11,.21,.01,.02,.02,.03,.04,.04H.2c.09,.11,9.6,10.66,21.2,10.66s21.11-10.54,21.2-10.64c0-.02,.03-.03,.04-.05,.02-.02,.03-.04,.04-.06,.03-.05,.06-.1,.08-.16h0s0-.03,0-.04c.02-.07,.04-.14,.04-.22v-.05c0-.08-.02-.16-.04-.24h0Zm-21.37,6.46c-3.81,0-6.9-3.1-6.9-6.9,0-1.62,.56-3.18,1.59-4.41l.46-.07c.1-.01,.2-.03,.3-.04l.4-.05c.1-.01,.19-.02,.29-.03l.19-.02c.07,0,.14-.02,.22-.02,.1,0,.19-.02,.29-.03l.41-.04c.1,0,.2-.01,.29-.02l.41-.03c.1,0,.19-.01,.29-.01h.21c.07-.01,.14-.02,.2-.02h.69c.13-.01,.27-.02,.4-.02h1.42c.08,0,.17,.01,.25,.01,.07,0,.15,0,.22,.01h.21c.09,.01,.18,.02,.26,.02,.07,0,.15,0,.22,.01h.2c.09,.02,.18,.03,.27,.03,.07,0,.14,.01,.22,.02l.19,.02c.09,0,.19,.02,.28,.03l.38,.04c.1,.01,.21,.02,.31,.04l.39,.05c.1,.01,.2,.03,.3,.04l.34,.05,.1,.02c1.03,1.24,1.6,2.8,1.6,4.42,0,3.81-3.1,6.9-6.9,6.9Zm5.87-12.92c-.24-.04-.48-.08-.73-.11-1.69-.24-3.39-.37-5.1-.37-1.87,0-3.75,.15-5.62,.44l-.11,.02c-.06,0-.13,.02-.19,.03-3.26,.53-6.13,1.45-8.5,2.43C10.7,4.32,15.81,1.67,21.4,1.67s10.84,2.71,14.55,5.38c-2.85-1.22-5.75-2.07-8.68-2.56h0Zm-13.46,2.03c-.64,1.22-.98,2.58-.98,3.98,0,4.73,3.85,8.57,8.57,8.57s8.57-3.85,8.57-8.57c0-1.4-.34-2.76-.98-3.98,3.98,.9,7.9,2.52,11.67,4.84-2.34,2.33-10.14,9.37-19.27,9.37S4.42,13.65,2.1,11.33c1.73-1.12,5.92-3.53,11.71-4.81h0Z"/></g></svg>