<?xml version="1.0" encoding="UTF-8"?><svg id="Layer_2" xmlns="http://www.w3.org/2000/svg" viewBox="0 0 578.48 384.43"><defs><style>.cls-1{fill:#fff;}</style></defs><g id="Layer_2-2"><path class="cls-1" d="M345.62,87.1c8.52-3.21,17.36-4.05,26.41-3.96,16.45,.17,32.91,.12,49.36-.02,5.67-.05,11.12,1.25,16.68,1.87,1.95,.2,4.14-.32,5.43,1.83,6.71,3.37,12.82,7.57,18.08,12.96,2.2,1,3.36,2.75,3.73,5.09,4.02,7.26,5.24,15.16,5.61,23.34,.6,13.19,2.69,26.29,2.56,39.54-1.64,.88-3.31,.71-4.98,.1l-19.68-.18c-1.7-1.1-.28-3.03-1.17-4.34-.43-2.84-.86-5.69-1.28-8.53-1.03-1.25-.26-2.83-.78-4.17-2.04-1.98,0-4.67-1.18-6.8-1.83-1.93-1.63-4.61-2.72-7.38-.13,6.27-2.31,11.69-3.02,17.39l-.26,4.78c-.25,2.4,.43,4.9-.78,7.2-.72,3.01-3.16,1.79-4.88,1.8-23.92,.07-47.84,.04-71.77,.06-1.82,0-3.64,.14-5.46,.22-1.73-.58-1.81-1.43-.4-2.51,26.02,.21,52.05-.72,78.06,.47v-.56h-77.47c-3.73-.53-3.34-3.55-3.56-6.09-.61-7.2-1.25-14.4-2.42-22.36-2.12,9.11-3.41,17.53-4.75,25.94-.31,1.97-.42,4.01-2.63,4.96-7.64-.03-15.28-.2-22.92-.02-2.97,.07-4.09-.48-3.79-3.78,1.22-13.39,2.4-26.79,3.16-40.22,.74-13.04,6.9-22.9,16.7-30.93,2.55-3.35,5.79-5.49,10.11-5.69h.01Z"/><path class="cls-1" d="M106.56,167.83c-1.03-.93-.72-2.15-.63-3.27,1.18-14.93,1.89-29.91,3.72-44.76,2.2-17.86,14.04-27.92,30.04-33.88,4.22-1.57,8.67-2.51,13.16-2.54,22.63-.13,45.29-1.2,67.87,.49,19.16,1.43,35.85,15.91,39.27,33.08,.97,4.87,1.13,9.9,1.66,14.86,1.19,2.01-.27,4.32,.7,6.35,.76,2.32-.12,4.04-1.63,5.86-2.96,3.58-2.73,6.45,1.02,9.12,2.67,1.9,1.18,4.63,2.16,6.79,.42,1.98-.38,4.07,.54,6v-.08c-.17,3.39-2.85,3.24-5.06,3.34-5.31,.23-10.64,.02-15.95,.09-4.03,.05-6.03-1.76-6.63-5.76-1.42-9.35-3.14-18.65-5.17-27.89-.17-.65-.7,.3-.12-.03,.13-.08,.25,.07,.24,.43-.05,8.64-1.67,17.15-2.38,25.73-.12,1.43-.77,2.92-2.42,3.51-25.85,.08-51.7-.02-77.55,.24-.64,.37,.25,1.21-.07,.62-.14-.26-.08-.45,.19-.46,25.89-.72,51.78-.26,77.66-.25,1.72,2.22,0,2.9-1.64,3.46-1.76,.59-3.63,.46-5.46,.46-22.83,.02-45.65,.03-68.48,0-7.41,0-8.3-.66-9.15-8.07-.85-7.44-1.36-14.92-2.49-23.04-2.12,8.38-3.01,16.34-4.47,24.19-1.14,6.11-1.95,6.8-8.25,6.91-5,.09-10,.03-14.99,0-2.05,0-3.97-.37-5.71-1.5h.02Z"/><path class="cls-1" d="M3.66,347.77c1.3-4.03,.65-8.25,1.25-12.35,2.91-19.89,20.84-35.84,42.65-36.49,21.95-.66,43.94-.63,65.89,.03,18.73,.57,41.45,14.55,42.89,39.53,.56,9.8,1.43,19.58,2.21,29.36,.31,3.97,.75,7.94,1.13,11.91,1.37,3.06-.62,4.06-2.98,4.24-6.48,.49-12.99,.53-19.47-.02-3.45-.3-4.58-2.92-5.12-5.89-1.43-7.83-2.52-15.73-4.54-24.7-1.21,8.84-2.01,16.52-2.53,24.23-.36,5.33-1.35,6.54-6.63,6.58-24.49,.16-48.99,.14-73.48,.01-5.56-.03-6.38-1.13-6.88-6.88-.67-7.76-1.42-15.51-2.62-24.33-1.95,8.76-3.01,16.5-4.42,24.17-1.09,5.93-2.28,6.89-8.32,6.97-5.33,.07-10.66,.04-16,0-1.82-.01-3.69,.11-5.28-1.09-2.02-3.47-1.52-7.1-.67-10.75,2.26-2.12,.76-5.11,1.7-7.53,.08-1.54,.16-3.09,.24-4.63,1.08-2.9-.25-5.81,0-8.74,.11-1.34,0-2.59,.98-3.63h0Z"/><path class="cls-1" d="M571.39,322.98c4.27,9.36,3.79,19.5,4.76,29.38,.99,10.1,1.57,20.25,2.33,30.37-8.62,1.94-17.25,2.57-25.86-.04-2.19-2.97-1.85-6.61-2.52-9.96-1.27-6.33-1.93-12.77-3.71-19.74-1.62,9.52-1.83,18.55-3.16,27.44-1.32,3.88-4.6,3.83-7.8,3.85-12.97,.05-25.93,.02-38.9,.02-10.64,0-21.28,.08-31.92-.04-6.33-.07-6.91-.8-7.74-7.08-1-7.57-1.1-15.25-2.74-23.59-1.85,7.86-2.79,15.09-4.06,22.26-1.36,7.66-2.21,8.38-10.13,8.45-4.16,.03-8.31,.04-12.47,0-7.61-.09-8.02-.59-7.05-8.51,1-11.59,2.73-23.18,2.84-34.78,.22-23.09,18.66-37.64,36.6-41.27,9.89-2,19.9-.85,29.86-1.03,11.47-.2,22.96,.24,34.43-.09,18.76-.53,34.05,5.98,45.4,21.15,1.32,.67,1.6,1.94,1.87,3.23l-.03-.02Z"/><path class="cls-1" d="M211.42,374.77c.98-11.25,2.72-22.5,2.77-33.76,.1-21.3,16.23-36.51,35.59-41.08,3.21-.76,6.57-1.17,9.87-1.19,20.45-.1,40.9,0,61.36-.06,4.88-.01,9.48,1.51,14.23,2.21,1.77,.61,3.9,.28,5.24,2.01,6.76,4.07,13.71,7.91,18.01,14.94-.92,3.64,2.6,4.68,4.05,6.93,3.14,4.82,3.17,10.39,3.64,15.8,1.13,12.9,1.97,25.83,3.13,38.73,.26,2.89-.43,3.76-3.36,3.66-6.14-.21-12.3-.22-18.44,.01-2.86,.11-3.61-1.05-4.03-3.61-1.54-9.32-3.32-18.6-5.01-27.9-.17-.96-.18-2.03-1.78-2.64-2.06,10.27-3.04,20.54-3.32,30.9-.1,2.61-1.26,3.97-4.04,3.53-.48-.08-.99,0-1.49-.01-21.35-.69-42.65,1.13-63.99,.92-2.31-.02-4.64,.2-6.92-.36-1.97-.65-1.83-1.88-.9-3.31,1.22-1.22,1.35-3.22,2.94-4.18,1.36-.51,2.6-1.13,1.36-2.84-1.17-1.61-2.61-3.03-3.8-4.62-1.8-2.41-3.13-1.66-4.4,.44-1.66,.57-2.96,.05-4.01-1.28-.37-.66-.54-1.37-.55-2.11,.82-2.13,1.88-4.31-.92-5.9-.74-1.81-.95-3.75-1.48-6.44-2.37,8.72-3.11,16.95-4.82,24.98-.91,4.31-3.03,5.8-7.16,5.64-4.63-.17-9.27-.03-13.9-.04-8.91-.02-9.36-.56-7.87-9.36h0Z"/><path class="cls-1" d="M115.31,273.68c-8.77,13.5-20.67,21.21-37.3,20.37-18.98-.96-35.24-16.63-36.48-35.24-1.38-20.66,11.7-38.27,31.09-42.07,4.29-.84,8.58-.75,12.9-.78,6.19-1.07,11.03,2.19,16,5.02,4.29,3.04,8.24,6.43,10.92,11.07,6.71,10.39,8.68,21.63,5.98,33.7,.35,3.19-.77,5.8-3.11,7.94h0Z"/><path class="cls-1" d="M480.14,288.93c-11.38-5.83-17.61-15.58-19.42-27.78-2.35-15.81,3.09-29.05,16.38-38.17,13.03-8.95,27.11-9.76,40.99-2.08,14.26,7.89,20.89,20.59,20.24,36.8-1.06,26.31-30.32,44.27-53.92,33.28,.01-3.68-2.98-1.08-4.26-2.04h-.01Z"/><path class="cls-1" d="M320.54,230.78c10.17,12.66,11.73,26.59,4.87,41.03-7.07,14.89-19.42,22.42-35.96,22.26-16.4-.16-30.21-10.15-35.97-25.42-5.48-14.53-1.45-31.49,10.03-42.14,12.14-11.27,28.69-13.69,43.98-6.43,.7,.88,1.53,1.58,2.69,1.76l4.29,3.11c.3,1.83,2.42,2.68,2.57,4.5,.24,3.14,2.45,.6,3.49,1.32h0Z"/><path class="cls-1" d="M203.52,4.88c3.83,3.13,8.6,5.21,11.02,9.92-1.27,5.15,2.55,6.97,5.95,9.05,6.56,14.8,4.55,28.66-5.66,40.91-10.56,12.67-24.54,16.93-40.33,12.56-15.37-4.25-24.67-14.9-27.95-30.61-.41-1.94-.64-3.92-.95-5.88-1.15-1.33-1.16-2.66,.02-3.98,1.54-7.11,2.82-14.32,7.97-19.99,2.17,.46,1.38-1.31,1.69-2.25l.2,.22-.23-.19c1.79-1.62,3.4-3.42,5.2-5.04,5.3-5.27,12.14-7.21,19.1-8.89,5.39-.29,10.75-1.49,16.19,.08,2.94,.85,5.72,1.71,7.79,4.1h-.01Z"/><path class="cls-1" d="M427.52,17.79c6.17,10.7,8.44,22.03,4.38,33.92-5.31,15.58-16.44,24.88-32.73,26.77-15.87,1.84-28.82-4.32-37.39-17.88-8.67-13.72-8.27-27.92-.09-41.9,.58-1,1.18-1.98,1.77-2.97,.52-.42,.72-1.22,1.55-1.25,3.49,1.14,3.32-1.39,3.53-3.53,13.7-13.18,35.76-13.88,50.96-1.62,1.03,.83,2.06,1.65,3.09,2.48,2.08,1.64,4.39,3.08,4.92,5.99h.01Z"/><path class="cls-1" d="M85.68,189.5c.06-3.91,.47-7.85,.09-11.71-.38-3.95,1.14-5.29,4.79-4.99,7.24-.68,14.48-1.58,21.76-1.59,48.31-.07,96.62-.03,144.93-.04,6.15,0,12.16,1.36,18.28,1.62,1.47,.08,2.98,.42,4.39,.17,3.25-.56,4.33,1.04,4.43,3.91,.34,3.73-.77,7.41-.28,11.17,.28,2.15-1.43,2.26-3.01,2.25h-59.94c-43.57,0-87.15,0-130.72-.04-1.57,0-3.35,.72-4.72-.75Z"/><path class="cls-1" d="M275.53,172.78c-14.29,.08-28.57,.23-42.86,.24-46.38,.03-92.76,0-139.14,0-.99,0-1.98-.15-2.97-.23,1.27-1.51,3.03-1.05,4.57-.94,2.81,.2,4.84-.39,4.8-4,1.64,1.69,2.76,3.42,5.02,2.67,1.24-.41,2.61-.88,1.6-2.69,7.49-.06,14.99-.27,22.48-.11,3.04,.06,4.21-.62,4.73-3.9,1.61-10.14,2.76-20.4,6.86-30.37,.61,3.9,1.36,7.78,1.81,11.7,.72,6.28,1.39,12.58,1.8,18.89,.17,2.62,.76,3.7,3.7,3.69,25.49-.12,50.98-.06,76.47-.12,1.2,0,3.32,.95,3.02-1.8-.3-.23-.4-.46-.29-.68,.11-.22,.21-.33,.32-.33,1.83-10.38,1.34-21.09,4.41-32.54,3.21,9.12,4.11,17.51,5.49,25.76,1.62,9.61,1.47,9.63,11.18,9.63,4.15,0,8.3-.03,12.44,.02,1.53,.02,3.05,.21,3.44-1.83,1.59,.16,0,2.42,1.43,2.32,.45-.03,.8-1.54,1.2-2.39,1.45,2.08-.47,3.5-1.03,4.99,2.98,2.13,6.67-.18,9.49,2.02h.03Z"/><path class="cls-1" d="M295.78,172.91c20.24-.08,40.48-.16,60.73-.23,1.67-1.07,3.34-1.07,5.01,0,35.18,.06,70.36,.12,105.54,.17,3.15,0,6.3-.11,9.45-.16,1-.49,2.02-.94,3.14-1.12,1.95-.16,3.91-.1,5.87-.09,1.48-.04,2.75,.57,3.98,1.3h2.99c.46-.28,.89-.22,1.29,.12,.28,.71,.23,1.4-.08,2.08-2.5,5.01-6.26,9.48-6.59,15.43-1.27,.58-2.53,.53-3.78-.07-5.06-3.78-9.29-7.99-7.68-15.21-2.88-.11-5.68,.22-8.49,.09-55.41,.03-110.82-.07-166.2,.07-2.85,.39-2.91,2.52-3.02,4.72-.17,3.21,.62,6.52-.96,9.59-.42,.51-.9,.57-1.43,.16-.07-4.66-.14-9.32-.21-13.97-.25-1.02-.79-2.09,.45-2.88h-.01Z"/><path class="cls-1" d="M342.36,167.74c1.7-8.93,3.37-17.87,5.1-26.79,.49-2.54,1.15-5.05,2.28-7.55,2.58,7.9,2.78,16.05,3.71,24.09,.28,2.44-.2,5,1.01,7.32,.64,.32,.65,.65,.02,1-.39,1.07,.18,1.65,1.05,2.09,2.03,1.91,4.81,.22,7.83,1.66-4.22,.3-7.65,.34-10.88,1.71-2.76,1.17-3.88-1.93-5.87-2.82-.69-.31,1.93-.35,1.28-1.97-1.76,.41-3.64,.85-5.52,1.28v-.02Z"/><path class="cls-1" d="M483.42,189.64c1.37,0,2.75,.02,4.12,.03,3.51-1.37,4.96-3.83,4.59-7.67-.23-2.4-.49-4.99,1.21-7.15l-.12-1.92c.98-.52,1.38-.12,1.41,.88-.02,3.94-.31,7.91,.03,11.82,.36,4.14-1.19,5.78-5.21,5.3-2.31,.38-4.62,1.42-6.93,.02-.68,0-1.35,0-2.03-.02-.84,.37-1.67,.75-2.56,.98-7,.78-14.02,.18-21.03,.18-.95-.13-1.8-.47-2.49-1.16-45.6,0-91.2,0-136.8,0-1.36,1.02-2.71,.41-4.07,0-4.48-.03-8.95,0-13.42-.12-1.56-.04-3.37,.68-4.58-1.05l1.03-.07c1.63-1.45,3.66-1.49,5.66-1.49,52.09,.02,104.18-.2,156.26,.09,2.38,.03,4.76,.07,7.14,.14,.83,0,1.66,0,2.49,.03,1.05,0,2.1,0,3.15,.04,.77,0,1.53,0,2.3,0h3.05c1.03,0,2.06-.03,3.09,.02,1.34,.06,2.55,.54,3.73,1.12h-.02Z"/><path class="cls-1" d="M438.66,153.83c.13-6.92,1.18-13.7,2.89-20.42,1.79,3.36,2.7,6.79,2.85,10.42-2.61,3.11-5.93,5.89-4.18,10.83,.17,.48-.89-.78-1.56-.83h0Z"/><path class="cls-1" d="M220.49,23.84c-1.81,.99-3.18,.15-4.37-1.12-.86-.92-.51-3.78-3.17-1.76-.27,.2-1.23-1.42-.54-2.39,.85-1.19,2.2-2.06,2.12-3.77,3.2,2.22,4.76,5.51,5.95,9.05h0Z"/><path class="cls-1" d="M320.54,230.78c-2.13,1.93-4.78,5.06-4.21-1.26,.19-2.1-5.06-1.58-1.85-4.56,2.87,1.06,4.53,3.37,6.06,5.82Z"/><path class="cls-1" d="M364.75,14.89c1-1.31,2-2.63,3-3.94h.8c.66,1.46,2.79,2.54,.76,4.62-2.02,2.06-3.15,.18-4.57-.68h.01Z"/><path class="cls-1" d="M362.54,324.76c-.85-.51-1.64-1.33-2.55-1.48-4.59-.76-3.32-2.99-1.5-5.44,1.99,1.94,3.42,4.2,4.05,6.93h0Z"/><path class="cls-1" d="M482.52,190.96c2.31,0,4.62,0,6.93-.02-.66,.43-1.93,1.04-1.87,1.24,.43,1.38,1.99,.05,2.74,.96-3.57,.76-6.18,.03-7.81-2.19h.01Z"/><path class="cls-1" d="M437.63,165.81c-.07-2.44-.26-4.89,.78-7.2,1.28,2.57,1.87,5.06-.78,7.2Z"/><path class="cls-1" d="M480.14,288.93c1.24-.27,2.48-.55,3.72-.81,1.23-.26,2.35,.11,2.71,1.28,.08,.28-1.4,1.04-2.17,1.57-1.7-.09-3.03-.96-4.26-2.04h0Z"/><path class="cls-1" d="M445.5,169.8c-.41,3.78-3.35-2.45-3.85,.97,.1-.78-.09-1.88,.36-2.28,1.82-1.65,2.34,.78,3.49,1.32h0Z"/><path class="cls-1" d="M361.52,172.67h-5.01c1.67-2.99,3.34-2.99,5.01,0Z"/><path class="cls-1" d="M155.28,14.61c.46,.96,1.52,1.84,.73,3.03-.41,.62-1.18,1.53-1.68,1.47-1.33-.18,.42-1.75-.74-2.25,.15-1.06,.81-1.74,1.69-2.25Z"/><path class="cls-1" d="M160.45,9.59c-1.11,2.32-2.67,4.18-5.2,5.04,1.26-2.17,2.93-3.91,5.2-5.04Z"/><path class="cls-1" d="M443.51,300.76h4.23c-.05,.49-.1,.97-.15,1.46-1.33-.78-3.02,1.43-4.09-1.44h.01v-.02Z"/><path class="cls-1" d="M445.58,150.62c.9,1.27,.91,2.71,.78,4.17-2.15-1.04-1.74-2.56-.78-4.17Z"/><path class="cls-1" d="M445.5,169.8c.02-.82,.19-1.57,1-2,.31,1,1.32,1.83,.77,3.05-.59-.35-1.18-.7-1.76-1.05h0Z"/><path class="cls-1" d="M447.65,163.33c1.13,1.25,.65,2.93,1.17,4.34-.77,.04-1.54,.08-2.32,.13,.38-1.49,.76-2.98,1.15-4.47Z"/><path class="cls-1" d="M468.5,167.86l4.98-.1c-1.63,1.59-3.29,1.47-4.98,.1Z"/><path class="cls-1" d="M310.2,221.85c-2.04,1.16-2.43-.21-2.69-1.76,1.03,.38,2.21,.55,2.69,1.76Z"/><path class="cls-1" d="M442,161.18c.59,1.51,.82,2.69-.17,3.04-1.07,.38-.56-.66-.47-1.14,.09-.44,.28-.85,.64-1.9Z"/><path class="cls-1" d="M354.48,165.8c0-.33-.02-.66-.02-1h79.81v1h-79.79Z"/><path class="cls-1" d="M227.46,164.8c0,.33-.02,.67-.03,1h-78.67v-1h78.7Z"/><path class="cls-1" d="M261.66,138.52c1.1,7.05,1.59,14.16,1.75,21.29-1.32-2.34-.44-6.04-4.89-6.49-1.82-.18-1.52-9.1,.65-10.04,2.51-1.09,2.08-2.98,2.49-4.76h0Z"/><path class="cls-1" d="M432.57,323.25c-1.71-.05-1.61-1-1.49-2.04,.07-.64-.03-1.45,.97-.92,.78,.41,1.45,1.05,2.16,1.59-.59,.5-1.19,1-1.64,1.38h0Z"/><path class="cls-1" d="M352.13,313.2c-.75,.43-1.21,.85-1.74,.97-1.16,.25-1.74-.67-2.2-1.48-.41-.71,.17-1.49,.78-1.31,1.01,.31,1.9,1.05,3.16,1.81h0Z"/><path class="cls-1" d="M274.2,175.66H92.89v-.5h181.51l-.2,.5h0Z"/><path class="cls-1" d="M476.46,189.64c-.96,0-1.91,0-2.87-.02-.8-1.4-.19-2.9-.34-4.34-.14-1.35,.99-3.21-.92-3.9-1.56-.56-2.73,.72-3.79,1.77-1.93,1.54-1.15,4.02-2.04,5.91-4.51,.77-4.93-4.25-8.33-5.77,.22,2.28,3.53,3.91,1.28,6.34-2.49,.07-4.99,.2-7.48,.2-49.47,0-98.94,0-148.41,0-2.33,0-4.66-.1-6.99-.15-.03-4.25,0-8.5-.12-12.74-.07-2.35,.82-3.36,3.18-2.94,1.29,.5,2.64,.3,3.96,.3h160.89c1.32,0,2.67,.22,3.95-.33,1.48-.04,2.97,.05,4.43-.14,3.16-.41,4.16,.52,3.68,3.93-.77,5.51,4.34,8.04,6.9,11.87-1.28,0-2.57,0-3.85,.02-1.03-1.58-2.07-.44-3.11-.02h-.02Z"/><path class="cls-1" d="M468.42,173.98c-1.58,1.41-3.5,.79-5.26,.8-52.75,.03-105.51,.03-158.26,0-1.77,0-3.68,.61-5.27-.77,30.96-.05,61.92-.12,92.89-.13,25.3,0,50.61,.07,75.91,.1h-.01Z"/><path class="cls-1" d="M479.5,172.79c1.99-1.12,3.99-2.88,5.99-.02-2,0-4,0-5.99,.02Z"/></g></svg>