<svg id="Layer_1" data-name="Layer 1" xmlns="http://www.w3.org/2000/svg" viewBox="0 0 433.19 442.36"><defs><style>.cls-1{fill:#020202;}.cls-2{fill:#010101;}.cls-3{fill:#080808;}.cls-4{fill:#fbfbfb;}.cls-5{fill:orange;fill-opacity:0.75;}</style></defs><title>slopehintimg2</title><path class="cls-1" d="M399.4,83.91c-3,0-6,.2-9,0-4.32-.37-4.26,1.58-2.92,4.67a10.65,10.65,0,0,0,17.7,3.31c1.91-2,3.4-2.54,5.22-.77,2,2-.47,3.15-1.41,4.21-4.3,4.85-12.26,6.25-18.4,3.48S380.28,88.65,381,81.59c1.14-11.33,9.37-17.84,19.75-15.61a15.46,15.46,0,0,1,11.83,15.36c-.07,1.94-.8,2.67-2.69,2.63C406.39,83.86,402.89,83.9,399.4,83.91Z"/><path class="cls-1" d="M364.06,100.11c-4.78,0-8.84-1.64-11.73-5.51-.71-.94-2.77-2.22-.77-3.62,1.44-1,3.18-2.49,4.9.2,2.6,4.06,6.64,4.73,11,3.72,2-.46,3.7-1.63,4-3.91s-1.17-3.78-3.11-4.55a71.56,71.56,0,0,0-7.12-2.23c-7.17-2-10.1-5-9.62-10.09.45-4.81,4.65-8.21,11.19-8.65,4.28-.28,8.28.81,11.35,4,.79.85,2.58,2,1.1,3.18-1.14.91-2.83,2.69-4.73.51-2.72-3.13-6.15-3.61-10-2.33-1.9.64-3.44,1.79-3.56,3.74s1.32,3.36,3.21,4c2.21.72,4.46,1.29,6.69,1.93,7.86,2.22,10.83,5.66,9.89,11.42C376,96.75,370.73,100.14,364.06,100.11Z"/><path class="cls-2" d="M319.14,70.9c3-3.57,6.22-5.54,10.55-5.26,2.35.16,2.91,1.2,2.95,3.48.05,2.91-1.59,2.07-3.18,2-6.35-.2-10,3.32-10.26,10-.16,4.82,0,9.64,0,14.47,0,1.82.37,3.48-2.58,3.56-3.23.09-2.88-1.71-2.87-3.75,0-8.31-.06-16.62.08-24.94,0-1.58-1.38-4,2.24-4.32S318.64,68.51,319.14,70.9Z"/><path class="cls-2" d="M343.74,83.13V96.07c0,1.77.1,3.12-2.46,3.11s-3.07-.79-3-3.13c.12-8.79.07-17.58,0-26.37,0-2,0-3.44,2.8-3.48s2.67,1.63,2.66,3.5C343.72,74.17,343.74,78.65,343.74,83.13Z"/><path class="cls-3" d="M344.85,56.34c-.13,2.27-1.16,3.71-3.54,3.91a3.6,3.6,0,0,1-4.18-2.89,3.36,3.36,0,0,1-.05-.84,3.5,3.5,0,0,1,3.31-3.7h.47C343.23,52.78,344.43,54.12,344.85,56.34Z"/><path class="cls-4" d="M406.64,79.06H387.15c1.62-6,5-8.87,9.9-8.81S404.94,72.94,406.64,79.06Z"/><polygon class="cls-5" points="8.97 158.08 311.03 158.17 310.11 6.65 8.97 158.08"/><path class="cls-1" d="M400.14,367c-3,0-6,.21-9,0-4.32-.37-4.26,1.57-2.92,4.66,3.14,7.22,12.19,9.11,17.7,3.32,1.91-2,3.4-2.54,5.22-.77,2,2-.47,3.14-1.41,4.2-4.3,4.86-12.26,6.26-18.4,3.49s-10.31-10.17-9.6-17.22c1.14-11.33,9.37-17.84,19.75-15.61a15.45,15.45,0,0,1,11.83,15.36c-.07,1.94-.8,2.67-2.69,2.63C407.13,367,403.63,367,400.14,367Z"/><path class="cls-1" d="M364.8,383.21c-4.78,0-8.84-1.64-11.73-5.5-.71-.95-2.77-2.22-.77-3.62,1.44-1,3.18-2.49,4.9.2,2.6,4.06,6.64,4.72,11,3.72,2-.46,3.7-1.63,4-3.92s-1.17-3.77-3.11-4.54a74.35,74.35,0,0,0-7.12-2.24c-7.17-2-10.1-5-9.62-10.08.45-4.82,4.65-8.21,11.19-8.65,4.28-.29,8.28.8,11.35,4.05.79.84,2.58,2,1.1,3.18-1.14.91-2.83,2.69-4.73.51-2.72-3.13-6.15-3.62-10-2.33-1.9.64-3.44,1.78-3.56,3.74s1.32,3.36,3.21,4c2.21.72,4.46,1.29,6.69,1.92,7.86,2.23,10.83,5.66,9.89,11.43C376.77,379.86,371.47,383.24,364.8,383.21Z"/><path class="cls-2" d="M319.88,354c3-3.58,6.22-5.54,10.55-5.26,2.35.16,2.91,1.2,2.95,3.48.05,2.91-1.59,2.07-3.18,2-6.35-.2-10,3.33-10.26,10-.16,4.81,0,9.64,0,14.46,0,1.83.37,3.49-2.58,3.57-3.23.09-2.88-1.71-2.87-3.75,0-8.31-.06-16.63.08-24.94,0-1.59-1.38-4.06,2.24-4.32S319.42,351.62,319.88,354Z"/><path class="cls-2" d="M344.48,366.24v12.93c0,1.78.1,3.13-2.46,3.12s-3.07-.79-3-3.14c.12-8.78.07-17.57,0-26.36,0-2,0-3.45,2.8-3.49s2.67,1.63,2.66,3.5C344.46,357.28,344.48,361.76,344.48,366.24Z"/><path class="cls-3" d="M345.59,339.45c-.13,2.27-1.16,3.71-3.54,3.91a3.6,3.6,0,0,1-4.18-2.89,3.36,3.36,0,0,1-.05-.84,3.51,3.51,0,0,1,3.32-3.7h.46C344,335.89,345.17,337.23,345.59,339.45Z"/><path class="cls-4" d="M407.4,362.16H387.88c1.62-6,5-8.87,9.9-8.8S405.68,356,407.4,362.16Z"/><polygon class="cls-5" points="7.17 289.74 309.23 290.85 307.71 442.36 7.17 289.74"/><path class="cls-2" d="M162.12,152.4c-3.62,3.51-6.46,5.42-10.15,5.72-7.19.56-12.44-3.58-12.84-10.77-.38-6.8-.12-13.63-.21-20.44,0-1.85.52-2.62,2.53-2.67,2.24,0,2.87.77,2.83,2.88q-.14,8.49,0,17c.08,5.64,2.22,8.5,6.57,9a9.16,9.16,0,0,0,10.26-7.4c1.27-5.73.3-11.59.57-17.39.09-1.85-.68-4,2.68-4.09s2.73,2,2.74,3.92c0,8.48.06,17,0,25.44,0,1.31,1.14,3.36-1.86,3.61S161.55,156,162.12,152.4Z"/><path class="cls-2" d="M180.27,128.9c4-3.87,7.92-6.1,13-5.26,5.88,1,9.41,4.3,9.75,10.23.39,7,.12,14,.29,21,.06,2.27-1.14,2.25-2.79,2.31-1.91.07-2.63-.51-2.6-2.51.11-5.66.13-11.33,0-17-.12-6-2.59-9-7.47-9.38a9,9,0,0,0-9.51,8.35,154,154,0,0,0-.36,17.45c0,2.38-.66,3.1-3.07,3.12-2.63,0-2.43-1.44-2.43-3.17,0-8.5-.05-17,.08-25.49,0-1.59-1.38-4.07,2.24-4.33C180.86,124,180.24,126.36,180.27,128.9Z"/><path class="cls-2" d="M120.46,129.08c3.05-3.71,6-5.6,10-5.42,2.31.1,3.54.59,3.53,3.42,0,3.46-2.12,2-3.62,2-5.92-.07-9.6,3.53-9.82,10-.17,5-.16,10,0,15,.08,2.4-.68,3.09-3.07,3.11-2.63,0-2.43-1.43-2.43-3.16,0-8.48-.06-17,.09-25.44,0-1.56-1.47-4.09,2.16-4.38S120.12,126.42,120.46,129.08Z"/><path class="cls-2" d="M163,322.71c-3.61,3.51-6.46,5.43-10.15,5.72-7.18.57-12.44-3.58-12.84-10.77-.38-6.79-.12-13.63-.21-20.44,0-1.84.52-2.62,2.54-2.67,2.24,0,2.86.77,2.83,2.89q-.15,8.47,0,17c.08,5.64,2.23,8.49,6.57,9A9.17,9.17,0,0,0,162,316c1.27-5.73.31-11.59.57-17.39.09-1.85-.68-4,2.68-4.09s2.74,2,2.74,3.92c0,8.48.06,17,0,25.44,0,1.32,1.14,3.37-1.85,3.61S162.46,326.38,163,322.71Z"/><path class="cls-2" d="M181.18,299.26c4-3.87,7.93-6.1,13-5.25,5.88,1,9.42,4.29,9.75,10.22.39,7,.12,14,.29,21,.06,2.27-1.14,2.25-2.79,2.31-1.91.07-2.63-.51-2.59-2.51q.16-8.49,0-17c-.12-6-2.59-9-7.47-9.37a9,9,0,0,0-9.51,8.34,154,154,0,0,0-.35,17.45c0,2.38-.66,3.1-3.08,3.12-2.63,0-2.43-1.44-2.42-3.17,0-8.5-.06-17,.07-25.49,0-1.59-1.38-4.07,2.24-4.32C181.77,294.26,181.15,296.67,181.18,299.26Z"/><path class="cls-2" d="M121.37,299.39c3-3.71,6-5.6,10-5.42,2.3.1,3.54.59,3.53,3.42,0,3.46-2.12,2.05-3.63,2-5.92-.08-9.6,3.53-9.82,10-.17,5-.16,10,0,15,.08,2.4-.67,3.09-3.07,3.11-2.62,0-2.43-1.43-2.43-3.16,0-8.48-.06-17,.09-25.44,0-1.56-1.47-4.09,2.17-4.38S121,296.73,121.37,299.39Z"/></svg>