<svg xmlns="http://www.w3.org/2000/svg" xmlns:xlink="http://www.w3.org/1999/xlink" viewBox="0 0 121.35 214.59"><defs><style>.cls-1{fill:url(#radial-gradient);}.cls-2{fill:url(#radial-gradient-2);}.cls-3{fill:url(#radial-gradient-3);}.cls-4{fill:url(#radial-gradient-4);}.cls-5{fill:url(#radial-gradient-5);}.cls-6{fill:url(#radial-gradient-6);}.cls-7{fill:url(#radial-gradient-7);}.cls-8{fill:url(#radial-gradient-8);}.cls-9{fill:url(#radial-gradient-9);}.cls-10{fill:url(#radial-gradient-10);}.cls-11{fill:url(#radial-gradient-11);}.cls-12{fill:url(#radial-gradient-12);}.cls-13{fill:url(#radial-gradient-13);}.cls-14{fill:url(#radial-gradient-14);}.cls-15{fill:url(#radial-gradient-15);}.cls-16{fill:url(#radial-gradient-16);}.cls-17{fill:url(#radial-gradient-17);}.cls-18{fill:url(#radial-gradient-18);}.cls-19{fill:url(#radial-gradient-19);}.cls-20{fill:url(#radial-gradient-20);}.cls-21{fill:url(#radial-gradient-21);}.cls-22{fill:url(#radial-gradient-22);}.cls-23{fill:url(#radial-gradient-23);}.cls-24{fill:url(#radial-gradient-24);}.cls-25{fill:url(#radial-gradient-25);}.cls-26{fill:url(#radial-gradient-26);}.cls-27{fill:url(#radial-gradient-27);}.cls-28{fill:url(#radial-gradient-28);}.cls-29{fill:url(#radial-gradient-29);}.cls-30{fill:url(#radial-gradient-30);}.cls-31{fill:url(#radial-gradient-31);}.cls-32{fill:url(#radial-gradient-32);}.cls-33{fill:url(#radial-gradient-33);}.cls-34{fill:url(#radial-gradient-34);}.cls-35{fill:url(#radial-gradient-35);}.cls-36{fill:url(#radial-gradient-36);}.cls-37{fill:url(#radial-gradient-37);}.cls-38{fill:url(#radial-gradient-38);}.cls-39{fill:url(#radial-gradient-39);}.cls-40{fill:url(#radial-gradient-40);}.cls-41{fill:url(#radial-gradient-41);}.cls-42{fill:url(#radial-gradient-42);}.cls-43{fill:url(#radial-gradient-43);}.cls-44{fill:url(#radial-gradient-44);}.cls-45{fill:url(#radial-gradient-45);}.cls-46{fill:url(#radial-gradient-46);}.cls-47{fill:url(#radial-gradient-47);}.cls-48{fill:url(#radial-gradient-48);}.cls-49{fill:url(#radial-gradient-49);}.cls-50{fill:url(#radial-gradient-50);}.cls-51{fill:url(#radial-gradient-51);}.cls-52{fill:url(#radial-gradient-52);}.cls-53{fill:url(#radial-gradient-53);}.cls-54{fill:url(#radial-gradient-54);}.cls-55{fill:url(#radial-gradient-55);}.cls-56{fill:url(#radial-gradient-56);}.cls-57{fill:url(#radial-gradient-57);}.cls-58{fill:url(#radial-gradient-58);}.cls-59{fill:url(#radial-gradient-59);}.cls-60{fill:url(#radial-gradient-60);}.cls-61{fill:url(#radial-gradient-61);}.cls-62{fill:url(#radial-gradient-62);}.cls-63{fill:url(#radial-gradient-63);}.cls-64{fill:url(#radial-gradient-64);}.cls-65{fill:url(#radial-gradient-65);}.cls-66{fill:url(#radial-gradient-66);}.cls-67{fill:url(#radial-gradient-67);}.cls-68{fill:url(#radial-gradient-68);}.cls-69{fill:url(#radial-gradient-69);}.cls-70{fill:url(#radial-gradient-70);}.cls-71{fill:url(#radial-gradient-71);}.cls-72{fill:url(#radial-gradient-72);}.cls-73{fill:#a52e00;}.cls-74{fill:#0e472a;}.cls-75{fill:url(#radial-gradient-73);}.cls-76{fill:url(#radial-gradient-74);}.cls-77{fill:url(#radial-gradient-75);}.cls-78{fill:url(#radial-gradient-76);}.cls-79{fill:url(#radial-gradient-77);}.cls-80{fill:url(#radial-gradient-78);}.cls-81{fill:url(#radial-gradient-79);}.cls-82{fill:url(#radial-gradient-80);}.cls-83{fill:url(#radial-gradient-81);}.cls-84{fill:url(#radial-gradient-82);}.cls-85{fill:url(#radial-gradient-83);}.cls-86{fill:url(#radial-gradient-84);}.cls-87{fill:url(#radial-gradient-85);}.cls-88{fill:url(#radial-gradient-86);}.cls-89{fill:url(#radial-gradient-87);}.cls-90{fill:url(#radial-gradient-88);}.cls-91{fill:url(#radial-gradient-89);}.cls-92{fill:url(#radial-gradient-90);}.cls-93{fill:url(#radial-gradient-91);}.cls-94{fill:url(#radial-gradient-92);}.cls-95{fill:url(#radial-gradient-93);}.cls-96{fill:url(#radial-gradient-94);}.cls-97{fill:url(#radial-gradient-95);}.cls-98{fill:url(#radial-gradient-96);}.cls-99{fill:url(#radial-gradient-97);}.cls-100{fill:url(#radial-gradient-98);}.cls-101{fill:url(#radial-gradient-99);}.cls-102{fill:url(#radial-gradient-100);}.cls-103{fill:url(#radial-gradient-101);}</style><radialGradient id="radial-gradient" cx="61.09" cy="12.34" r="4.76" gradientUnits="userSpaceOnUse"><stop offset="0" stop-color="#ffca57"/><stop offset="0.97" stop-color="#fbb040"/></radialGradient><radialGradient id="radial-gradient-2" cx="61.09" cy="87.46" r="10.21" gradientUnits="userSpaceOnUse"><stop offset="0" stop-color="#688138"/><stop offset="0.97" stop-color="#334f21"/></radialGradient><radialGradient id="radial-gradient-3" cx="59.85" cy="9.51" r="17.92" gradientUnits="userSpaceOnUse"><stop offset="0" stop-color="#c59238"/><stop offset="0.97" stop-color="#c78140"/></radialGradient><radialGradient id="radial-gradient-4" cx="60.95" cy="5.18" r="41.76" gradientUnits="userSpaceOnUse"><stop offset="0" stop-color="#231f20" stop-opacity="0"/><stop offset="1" stop-color="#231f20" stop-opacity="0.2"/></radialGradient><radialGradient id="radial-gradient-5" cx="61.09" cy="3.02" r="5.03" gradientUnits="userSpaceOnUse"><stop offset="0" stop-color="#688138"/><stop offset="1" stop-color="#334f21"/></radialGradient><radialGradient id="radial-gradient-6" cx="60" cy="90.11" r="10.49" xlink:href="#radial-gradient-4"/><radialGradient id="radial-gradient-7" cx="60.73" cy="82.44" r="10.49" xlink:href="#radial-gradient-3"/><radialGradient id="radial-gradient-8" cx="60.73" cy="82.44" r="10.49" gradientUnits="userSpaceOnUse"><stop offset="0" stop-color="#fff" stop-opacity="0.2"/><stop offset="1" stop-color="#fff" stop-opacity="0"/></radialGradient><radialGradient id="radial-gradient-9" cx="61.49" cy="27.78" r="49.42" xlink:href="#radial-gradient"/><radialGradient id="radial-gradient-10" cx="72.37" cy="39.35" r="95.23" xlink:href="#radial-gradient-8"/><radialGradient id="radial-gradient-11" cx="51.6" cy="26.45" r="123.91" xlink:href="#radial-gradient-8"/><radialGradient id="radial-gradient-12" cx="51.39" cy="18.41" r="80.57" xlink:href="#radial-gradient-8"/><radialGradient id="radial-gradient-13" cx="62.29" cy="182.03" r="3.98" xlink:href="#radial-gradient-3"/><radialGradient id="radial-gradient-14" cx="62.95" cy="186.07" r="10.99" xlink:href="#radial-gradient-2"/><radialGradient id="radial-gradient-15" cx="56.74" cy="180.59" r="30.64" xlink:href="#radial-gradient-2"/><radialGradient id="radial-gradient-16" cx="56.74" cy="180.59" r="30.64" xlink:href="#radial-gradient-4"/><radialGradient id="radial-gradient-17" cx="62.29" cy="199.42" r="6.22" xlink:href="#radial-gradient-4"/><radialGradient id="radial-gradient-18" cx="61.67" cy="192.11" r="13.56" gradientUnits="userSpaceOnUse"><stop offset="0.01" stop-color="#fff"/><stop offset="0.97" stop-color="#e6e7e8"/></radialGradient><radialGradient id="radial-gradient-19" cx="105.28" cy="112.98" r="16.08" gradientUnits="userSpaceOnUse"><stop offset="0" stop-color="#726658"/><stop offset="0.98" stop-color="#594a42"/></radialGradient><radialGradient id="radial-gradient-20" cx="118.11" cy="103.23" r="24.21" xlink:href="#radial-gradient-8"/><radialGradient id="radial-gradient-21" cx="145.8" cy="100.07" r="61.22" xlink:href="#radial-gradient-4"/><radialGradient id="radial-gradient-22" cx="101.34" cy="86.27" r="19.21" xlink:href="#radial-gradient-2"/><radialGradient id="radial-gradient-23" cx="97.31" cy="90.84" r="21.34" xlink:href="#radial-gradient-4"/><radialGradient id="radial-gradient-24" cx="119.62" cy="166.42" r="51.29" gradientUnits="userSpaceOnUse"><stop offset="0.01" stop-color="#d1d3d4"/><stop offset="0.98" stop-color="#a7a9ac"/></radialGradient><radialGradient id="radial-gradient-25" cx="110.02" cy="123.93" r="59.53" xlink:href="#radial-gradient-4"/><radialGradient id="radial-gradient-26" cx="109.14" cy="129.18" r="41.36" xlink:href="#radial-gradient-4"/><radialGradient id="radial-gradient-27" cx="118.38" cy="145.04" r="13.79" xlink:href="#radial-gradient-8"/><radialGradient id="radial-gradient-28" cx="375.49" cy="144.76" r="13.46" gradientTransform="matrix(-1, 0, 0, 1, 473.32, 0)" xlink:href="#radial-gradient-8"/><radialGradient id="radial-gradient-29" cx="142.51" cy="90.89" r="37.07" xlink:href="#radial-gradient-4"/><radialGradient id="radial-gradient-30" cx="142.51" cy="90.89" r="37.07" xlink:href="#radial-gradient-4"/><radialGradient id="radial-gradient-31" cx="142.51" cy="90.89" r="37.08" xlink:href="#radial-gradient-4"/><radialGradient id="radial-gradient-32" cx="142.51" cy="90.89" r="37.07" xlink:href="#radial-gradient-4"/><radialGradient id="radial-gradient-33" cx="142.51" cy="90.89" r="37.07" xlink:href="#radial-gradient-4"/><radialGradient id="radial-gradient-34" cx="142.51" cy="90.89" r="37.07" xlink:href="#radial-gradient-4"/><radialGradient id="radial-gradient-35" cx="142.51" cy="90.89" r="37.08" xlink:href="#radial-gradient-4"/><radialGradient id="radial-gradient-36" cx="142.51" cy="90.89" r="37.07" xlink:href="#radial-gradient-4"/><radialGradient id="radial-gradient-37" cx="98.05" cy="81.7" r="18.03" xlink:href="#radial-gradient-8"/><radialGradient id="radial-gradient-38" cx="269.96" cy="112.98" r="16.08" gradientTransform="matrix(-1, 0, 0, 1, 286.03, 0)" xlink:href="#radial-gradient-19"/><radialGradient id="radial-gradient-39" cx="282.79" cy="103.23" r="24.21" gradientTransform="matrix(-1, 0, 0, 1, 286.03, 0)" xlink:href="#radial-gradient-8"/><radialGradient id="radial-gradient-40" cx="310.48" cy="100.07" r="61.22" gradientTransform="matrix(-1, 0, 0, 1, 286.03, 0)" xlink:href="#radial-gradient-4"/><radialGradient id="radial-gradient-41" cx="266.02" cy="86.27" r="19.21" gradientTransform="matrix(-1, 0, 0, 1, 286.03, 0)" xlink:href="#radial-gradient-2"/><radialGradient id="radial-gradient-42" cx="262" cy="90.84" r="21.34" gradientTransform="matrix(-1, 0, 0, 1, 286.03, 0)" xlink:href="#radial-gradient-4"/><radialGradient id="radial-gradient-43" cx="284.3" cy="166.42" r="51.29" gradientTransform="matrix(-1, 0, 0, 1, 286.03, 0)" xlink:href="#radial-gradient-24"/><radialGradient id="radial-gradient-44" cx="274.7" cy="123.93" r="59.53" gradientTransform="matrix(-1, 0, 0, 1, 286.03, 0)" xlink:href="#radial-gradient-4"/><radialGradient id="radial-gradient-45" cx="273.82" cy="129.18" r="41.36" gradientTransform="matrix(-1, 0, 0, 1, 286.03, 0)" xlink:href="#radial-gradient-4"/><radialGradient id="radial-gradient-46" cx="283.06" cy="145.04" r="13.79" gradientTransform="matrix(-1, 0, 0, 1, 286.03, 0)" xlink:href="#radial-gradient-8"/><radialGradient id="radial-gradient-47" cx="210.81" cy="144.76" r="13.46" gradientTransform="translate(-187.29)" xlink:href="#radial-gradient-8"/><radialGradient id="radial-gradient-48" cx="307.2" cy="90.89" r="37.08" gradientTransform="matrix(-1, 0, 0, 1, 286.03, 0)" xlink:href="#radial-gradient-4"/><radialGradient id="radial-gradient-49" cx="307.18" cy="90.89" r="37.07" gradientTransform="matrix(-1, 0, 0, 1, 286.03, 0)" xlink:href="#radial-gradient-4"/><radialGradient id="radial-gradient-50" cx="307.18" cy="90.89" r="37.06" gradientTransform="matrix(-1, 0, 0, 1, 286.03, 0)" xlink:href="#radial-gradient-4"/><radialGradient id="radial-gradient-51" cx="307.19" cy="90.89" r="37.07" gradientTransform="matrix(-1, 0, 0, 1, 286.03, 0)" xlink:href="#radial-gradient-4"/><radialGradient id="radial-gradient-52" cx="307.19" cy="90.89" r="37.07" gradientTransform="matrix(-1, 0, 0, 1, 286.03, 0)" xlink:href="#radial-gradient-4"/><radialGradient id="radial-gradient-53" cx="307.19" cy="90.89" r="37.07" gradientTransform="matrix(-1, 0, 0, 1, 286.03, 0)" xlink:href="#radial-gradient-4"/><radialGradient id="radial-gradient-54" cx="307.19" cy="90.89" r="37.08" gradientTransform="matrix(-1, 0, 0, 1, 286.03, 0)" xlink:href="#radial-gradient-4"/><radialGradient id="radial-gradient-55" cx="307.19" cy="90.89" r="37.07" gradientTransform="matrix(-1, 0, 0, 1, 286.03, 0)" xlink:href="#radial-gradient-4"/><radialGradient id="radial-gradient-56" cx="262.73" cy="81.7" r="18.03" gradientTransform="matrix(-1, 0, 0, 1, 286.03, 0)" xlink:href="#radial-gradient-8"/><radialGradient id="radial-gradient-57" cx="53.45" cy="116.98" r="61.12" xlink:href="#radial-gradient"/><radialGradient id="radial-gradient-58" cx="60.39" cy="107.84" r="31.11" xlink:href="#radial-gradient-3"/><radialGradient id="radial-gradient-59" cx="58.93" cy="111.5" r="33.13" xlink:href="#radial-gradient-8"/><radialGradient id="radial-gradient-60" cx="58.93" cy="113.69" r="33.13" xlink:href="#radial-gradient-4"/><radialGradient id="radial-gradient-61" cx="58.93" cy="112.59" r="33.13" xlink:href="#radial-gradient-2"/><radialGradient id="radial-gradient-62" cx="61.49" cy="165.97" r="20.94" xlink:href="#radial-gradient-3"/><radialGradient id="radial-gradient-63" cx="68.22" cy="125.94" r="114.98" xlink:href="#radial-gradient-8"/><radialGradient id="radial-gradient-64" cx="48.37" cy="78.6" r="111.27" xlink:href="#radial-gradient-8"/><radialGradient id="radial-gradient-65" cx="56.95" cy="74.38" r="177.63" xlink:href="#radial-gradient-8"/><radialGradient id="radial-gradient-66" cx="57.96" cy="87.07" r="194.54" xlink:href="#radial-gradient-8"/><radialGradient id="radial-gradient-67" cx="73.92" cy="144.76" r="30.77" xlink:href="#radial-gradient-8"/><radialGradient id="radial-gradient-68" cx="73.92" cy="142.57" r="30.77" xlink:href="#radial-gradient-4"/><radialGradient id="radial-gradient-69" cx="73.92" cy="143.67" r="30.77" xlink:href="#radial-gradient-2"/><radialGradient id="radial-gradient-70" cx="76.2" cy="121.23" r="12.7" xlink:href="#radial-gradient-4"/><radialGradient id="radial-gradient-71" cx="76.2" cy="121.23" r="12.25" xlink:href="#radial-gradient-2"/><radialGradient id="radial-gradient-72" cx="75.84" cy="109.53" r="20.27" xlink:href="#radial-gradient-18"/><radialGradient id="radial-gradient-73" cx="75.75" cy="115.57" r="5.27" xlink:href="#radial-gradient-19"/><radialGradient id="radial-gradient-74" cx="76.2" cy="116.75" r="6.9" xlink:href="#radial-gradient-2"/><radialGradient id="radial-gradient-75" cx="47.6" cy="121.23" r="12.84" xlink:href="#radial-gradient-4"/><radialGradient id="radial-gradient-76" cx="47.6" cy="121.23" r="12.25" xlink:href="#radial-gradient-2"/><radialGradient id="radial-gradient-77" cx="47.24" cy="109.53" r="20.27" xlink:href="#radial-gradient-18"/><radialGradient id="radial-gradient-78" cx="47.14" cy="115.57" r="5.27" xlink:href="#radial-gradient-19"/><radialGradient id="radial-gradient-79" cx="47.6" cy="116.75" r="6.9" xlink:href="#radial-gradient-2"/><radialGradient id="radial-gradient-80" cx="54.55" cy="10.6" r="167.46" xlink:href="#radial-gradient-4"/><radialGradient id="radial-gradient-81" cx="57.87" cy="19.74" r="53.13" xlink:href="#radial-gradient-8"/><radialGradient id="radial-gradient-82" cx="60.87" cy="26.85" r="44.66" xlink:href="#radial-gradient-8"/><radialGradient id="radial-gradient-83" cx="60.21" cy="14.11" r="16.88" xlink:href="#radial-gradient-8"/><radialGradient id="radial-gradient-84" cx="57.39" cy="48.91" r="39.11" xlink:href="#radial-gradient-19"/><radialGradient id="radial-gradient-85" cx="60.52" cy="43.62" r="31.35" xlink:href="#radial-gradient-18"/><radialGradient id="radial-gradient-86" cx="53.45" cy="116.98" r="61.12" xlink:href="#radial-gradient-4"/><radialGradient id="radial-gradient-87" cx="58.38" cy="73.84" r="37.29" xlink:href="#radial-gradient-8"/><radialGradient id="radial-gradient-88" cx="59.41" cy="168.23" r="20.38" xlink:href="#radial-gradient-8"/><radialGradient id="radial-gradient-89" cx="61.83" cy="-6.81" r="19.25" xlink:href="#radial-gradient-8"/><radialGradient id="radial-gradient-90" cx="57.44" cy="181.98" r="26.71" xlink:href="#radial-gradient-8"/><radialGradient id="radial-gradient-91" cx="53.76" cy="14.72" r="118.34" xlink:href="#radial-gradient-8"/><radialGradient id="radial-gradient-92" cx="56.2" cy="76.58" r="145.38" xlink:href="#radial-gradient-8"/><radialGradient id="radial-gradient-93" cx="61.67" cy="70.37" r="21.75" xlink:href="#radial-gradient-8"/><radialGradient id="radial-gradient-94" cx="324.82" cy="50.54" r="14.11" gradientTransform="matrix(-1, 0, 0, 1, 369.73, 0)" xlink:href="#radial-gradient-18"/><radialGradient id="radial-gradient-95" cx="325.2" cy="50.78" r="14.83" gradientTransform="matrix(-1, 0, 0, 1, 369.73, 0)" xlink:href="#radial-gradient-4"/><radialGradient id="radial-gradient-96" cx="319.16" cy="47.8" r="15.52" gradientTransform="matrix(-1, 0, 0, 1, 369.73, 0)" xlink:href="#radial-gradient-19"/><radialGradient id="radial-gradient-97" cx="326.49" cy="54.68" r="8.91" gradientTransform="matrix(-1, 0, 0, 1, 369.73, 0)" xlink:href="#radial-gradient-2"/><radialGradient id="radial-gradient-98" cx="78.31" cy="50.54" r="14.11" xlink:href="#radial-gradient-18"/><radialGradient id="radial-gradient-99" cx="78.68" cy="50.78" r="14.83" xlink:href="#radial-gradient-4"/><radialGradient id="radial-gradient-100" cx="72.64" cy="47.8" r="15.52" xlink:href="#radial-gradient-19"/><radialGradient id="radial-gradient-101" cx="79.98" cy="54.68" r="8.91" xlink:href="#radial-gradient-2"/></defs><title>tutorbot</title><g id="Layer_2" data-name="Layer 2"><g id="objects"><rect class="cls-1" x="60.18" y="5.67" width="1.83" height="13.34"/><path class="cls-2" d="M73.52,81.43a7.36,7.36,0,0,1-7.35,7.36H56a7.36,7.36,0,0,1-7.36-7.36h0A7.35,7.35,0,0,1,56,74.08H66.17a7.35,7.35,0,0,1,7.35,7.35Z"/><path class="cls-3" d="M72.52,24.4c0,5.4-5.12,9.78-11.43,9.78S49.67,29.8,49.67,24.4s5.11-9.78,11.42-9.78S72.52,19,72.52,24.4Z"/><path class="cls-4" d="M66.46,15.77c1.23.95,3,2.64,2.34,4.34-.91,2.56-4.2-2.74-14.07.73-4.5,1.58-2.08-3.21,2.31-5.57-4.31,1.4-7.37,5-7.37,9.13a8.59,8.59,0,0,0,.65,3.24c7.12-.37,15.77-1,22-1.43a8.37,8.37,0,0,0,.21-1.81C72.52,20.66,70.06,17.42,66.46,15.77Z"/><path class="cls-5" d="M66.12,5a5,5,0,1,1-5-5A5,5,0,0,1,66.12,5Z"/><rect class="cls-6" x="46.81" y="74.04" width="28.56" height="8.03" rx="2.58"/><rect class="cls-7" x="46.81" y="72.57" width="28.56" height="8.03" rx="2.58"/><path class="cls-8" d="M72.79,72.57H71.73a2.35,2.35,0,0,1,2.34,2.35v2.6a2.35,2.35,0,0,1-2.34,2.35H50.46a2.35,2.35,0,0,1-2.35-2.35v-2.6a2.35,2.35,0,0,1,2.35-2.35H49.39a2.59,2.59,0,0,0-2.58,2.58V78a2.58,2.58,0,0,0,2.58,2.58h23.4A2.57,2.57,0,0,0,75.37,78V75.15A2.58,2.58,0,0,0,72.79,72.57Z"/><path class="cls-9" d="M99.09,67.65c-.2-25.59-17.13-46.26-38-46.26s-37.79,20.67-38,46.26c0,0,1.47,8.85,37.11,9.39C96.66,77.6,99.09,67.65,99.09,67.65Z"/><path class="cls-10" d="M94.35,45.5C85,55.18,70.41,68.55,54.4,76.87c1.83.08,3.75.14,5.8.17a138.19,138.19,0,0,0,17.47-.7A153.94,153.94,0,0,0,97.83,56.12,53.07,53.07,0,0,0,94.35,45.5Z"/><path class="cls-11" d="M86.63,33.51a131.17,131.17,0,0,1-61.89,21,57,57,0,0,0-1.65,13.16,4.31,4.31,0,0,0,1.46,2.09C42.16,65.53,70.24,56.85,92,40.91A45.25,45.25,0,0,0,86.63,33.51Z"/><path class="cls-12" d="M82,29.11a34.38,34.38,0,0,0-13.82-6.9,136.12,136.12,0,0,1-30,8.63,44.08,44.08,0,0,0-8.42,10.83C45,42.09,65.28,40,82,29.11Z"/><path class="cls-13" d="M66.39,182a4.11,4.11,0,1,1-4.1-3.85A4,4,0,0,1,66.39,182Z"/><path class="cls-14" d="M68.88,175a6.6,6.6,0,1,1-6.59-6.88A6.74,6.74,0,0,1,68.88,175Z"/><path class="cls-15" d="M77.46,199.42a15.18,15.18,0,1,1-15.17-15.17A15.18,15.18,0,0,1,77.46,199.42Z"/><path class="cls-16" d="M62.29,184.25a14.17,14.17,0,1,1-14.17,14.16,14.16,14.16,0,0,1,14.17-14.16,15.17,15.17,0,1,0,15.17,15.17A15.18,15.18,0,0,0,62.29,184.25Z"/><path class="cls-17" d="M68.5,199.42a6.22,6.22,0,1,1-6.21-6.22A6.21,6.21,0,0,1,68.5,199.42Z"/><path class="cls-18" d="M66.86,199.42a4.58,4.58,0,1,1-4.57-4.57A4.57,4.57,0,0,1,66.86,199.42Z"/><path class="cls-19" d="M97.5,92.12s9.87-2.92,14.25,5.3c5.2,9.75-7.12,28.7-1.28,36.93l-5.3-.36a23.48,23.48,0,0,1-.54-16.28c3.18-10,6.21-21.75-5.85-22.48Z"/><path class="cls-20" d="M108.1,131.6a96.93,96.93,0,0,1,1.51-14.12c1.16-6.15,4.25-25.08-8.91-24.67l-2.88.1.29.71h.39s10.7.41,11.11,8.91-4.8,17.27-3.57,29.2Z"/><path class="cls-21" d="M106.13,133.44a23.51,23.51,0,0,1-.55-16.28c3.19-10,6.22-21.75-5.84-22.48l-1.16-2.8a10.51,10.51,0,0,0-1.08.24l1.28,3.11c12.06.73,9,12.52,5.85,22.48a23.48,23.48,0,0,0,.54,16.28l5.3.36c-.14-.21-.27-.43-.39-.64Z"/><path class="cls-22" d="M88.89,108.26l8.29-2.78a6.77,6.77,0,0,0,4.28-8.56L99.85,92.1a6.78,6.78,0,0,0-8.57-4.28L83,90.6Z"/><path class="cls-23" d="M96.31,103.36C92.2,104.74,94.67,94,91.65,91c-1.34-1.34-1.11-2.46-.06-3.29l-.31.08L83,90.6l5.91,17.66,8.29-2.78a6.77,6.77,0,0,0,4.28-8.56S100.42,102,96.31,103.36Z"/><path class="cls-24" d="M108.37,132.11c-7.16,0-13,4.46-13,10s5.82,10,13,10,13-4.46,13-10S115.54,132.11,108.37,132.11Zm0,16a6,6,0,1,1,6-6A6,6,0,0,1,108.37,148.1Z"/><path class="cls-25" d="M108.37,132.11c-7.16,0-13,4.46-13,10s5.82,10,13,10,13-4.46,13-10S115.54,132.11,108.37,132.11Zm1.92,18.55-.78-2.67-.38.06-.76,2.47s-9.59,0-11-8.09,9.73-8.91,11-9c0,0,8.92-.55,10.42,6.3C120,145.15,115.5,150.11,110.29,150.66Z"/><path class="cls-26" d="M108.24,135a7.13,7.13,0,1,0,7.13,7.13A7.13,7.13,0,0,0,108.24,135Zm.13,13.07a6,6,0,1,1,6-6A6,6,0,0,1,108.37,148.1Z"/><path class="cls-27" d="M110.29,150.66s10.56-1.51,8.09-12.2a9.88,9.88,0,0,0-6.17-4.94S125.1,141.75,110.29,150.66Z"/><path class="cls-28" d="M106.46,150.25s-11.15-1.1-8.68-11.79a9.88,9.88,0,0,1,6.17-4.94S91.65,141.34,106.46,150.25Z"/><path class="cls-29" d="M104.15,119.42c-.12.48-.22,1-.3,1.42l5.84.73a2.21,2.21,0,0,0,0-.25Z"/><path class="cls-30" d="M109.16,124.61l-5.67-.63c0,.38,0,.74,0,1.1l5.67-.27Z"/><path class="cls-31" d="M106.47,92.53l-2,4.49a7.22,7.22,0,0,1,.87.78l1.55-5.07Z"/><path class="cls-32" d="M108.87,127.66c0-.08,0-.17,0-.25l-5.19,1.08c0,.36.1.71.16,1Z"/><path class="cls-33" d="M105.74,114.08l-.27.91,5.57.77c0-.07,0-.14,0-.21Z"/><path class="cls-34" d="M107.47,104.39c0,.35,0,.7,0,1l5.6-.59c0-.11,0-.21,0-.31Z"/><path class="cls-35" d="M106.76,100c.09.24.18.49.25.74l5.44-1.64c0-.1-.07-.2-.1-.3Z"/><path class="cls-36" d="M106.93,109.24c-.09.44-.18.88-.28,1.33l5.45.59.06-.29Z"/><path class="cls-37" d="M99.25,93.06c1.29,3.1,1.26,6-.07,6.61s-.9-2.13-2.18-5.23-3.81-5.43-2.48-6S98,90,99.25,93.06Z"/><path class="cls-38" d="M23.85,92.12S14,89.2,9.6,97.42c-5.2,9.75,7.12,28.7,1.27,36.93l5.31-.36a23.48,23.48,0,0,0,.54-16.28c-3.18-10-6.21-21.75,5.85-22.48Z"/><path class="cls-39" d="M13.25,131.6a96.93,96.93,0,0,0-1.51-14.12c-1.16-6.15-4.25-25.08,8.91-24.67l2.88.1-.29.71h-.39s-10.7.41-11.11,8.91,4.8,17.27,3.57,29.2Z"/><path class="cls-40" d="M15.22,133.44a23.48,23.48,0,0,0,.54-16.28c-3.18-10-6.21-21.75,5.85-22.48l1.16-2.8a10.51,10.51,0,0,1,1.08.24l-1.28,3.11c-12.06.73-9,12.52-5.85,22.48A23.48,23.48,0,0,1,16.18,134l-5.31.36a7.47,7.47,0,0,0,.4-.64Z"/><path class="cls-41" d="M32.46,108.26l-8.29-2.78a6.77,6.77,0,0,1-4.28-8.56L21.5,92.1a6.78,6.78,0,0,1,8.57-4.28l8.3,2.78Z"/><path class="cls-42" d="M25,103.36C29.15,104.74,26.68,94,29.7,91c1.34-1.34,1.11-2.46.06-3.29l.31.08,8.3,2.78-5.91,17.66-8.29-2.78a6.77,6.77,0,0,1-4.28-8.56S20.93,102,25,103.36Z"/><path class="cls-43" d="M0,142.07c0,5.5,5.81,10,13,10s13-4.46,13-10-5.82-10-13-10S0,136.57,0,142.07Zm7,0a6,6,0,1,1,6,6A6,6,0,0,1,7,142.07Z"/><path class="cls-44" d="M0,142.07c0,5.5,5.81,10,13,10s13-4.46,13-10-5.82-10-13-10S0,136.57,0,142.07Zm2.56-2.38c1.51-6.85,10.42-6.3,10.42-6.3,1.23.13,12.33,1,11,9s-11,8.09-11,8.09l-.76-2.47-.38-.06-.78,2.67C5.85,150.11,1.36,145.15,2.56,139.69Z"/><path class="cls-45" d="M6,142.16A7.13,7.13,0,1,0,13.11,135,7.13,7.13,0,0,0,6,142.16Zm1-.09a6,6,0,1,1,6,6A6,6,0,0,1,7,142.07Z"/><path class="cls-46" d="M11.06,150.66S.5,149.15,3,138.46a9.88,9.88,0,0,1,6.17-4.94S-3.75,141.75,11.06,150.66Z"/><path class="cls-47" d="M14.89,150.25s11.15-1.1,8.68-11.79a9.88,9.88,0,0,0-6.17-4.94S29.7,141.34,14.89,150.25Z"/><path class="cls-48" d="M17.2,119.42c.12.48.22,1,.3,1.42l-5.84.73a2.21,2.21,0,0,1-.05-.25Z"/><path class="cls-49" d="M12.2,124.61l5.66-.63c0,.38,0,.74,0,1.1l-5.67-.27A1.36,1.36,0,0,1,12.2,124.61Z"/><path class="cls-50" d="M14.88,92.53l2,4.49a6.53,6.53,0,0,0-.87.78l-1.55-5.07Z"/><path class="cls-51" d="M12.48,127.66c0-.08,0-.17,0-.25l5.19,1.08c-.05.36-.1.71-.16,1Z"/><path class="cls-52" d="M15.61,114.08l.27.91-5.57.77c0-.07,0-.14-.05-.21Z"/><path class="cls-53" d="M13.88,104.39c0,.35,0,.7,0,1l-5.6-.59c0-.11,0-.21,0-.31Z"/><path class="cls-54" d="M14.59,100c-.09.24-.18.49-.25.74L8.9,99.11l.1-.3Z"/><path class="cls-55" d="M14.42,109.24c.09.44.18.88.28,1.33l-5.45.59-.06-.29Z"/><path class="cls-56" d="M22.1,93.06c-1.29,3.1-1.26,6,.07,6.61s.9-2.13,2.19-5.23,3.8-5.43,2.47-6S23.38,90,22.1,93.06Z"/><path class="cls-57" d="M88.91,163A13.16,13.16,0,0,1,75.75,176.2H47.23A13.16,13.16,0,0,1,34.07,163L30.78,99.43A13.16,13.16,0,0,1,43.94,86.27H79A13.17,13.17,0,0,1,92.2,99.43Z"/><path class="cls-58" d="M92.18,99.8l0-.37A13.17,13.17,0,0,0,79,86.27H43.94A13.16,13.16,0,0,0,30.78,99.43l0,.37Z"/><path class="cls-59" d="M30.78,98.34l.09,1.67H92.11l.09-1.67a14.54,14.54,0,0,0-.09-1.49H30.87A14.54,14.54,0,0,0,30.78,98.34Z"/><path class="cls-60" d="M30.78,100.53l.09,1.67H92.11l.09-1.67A14.71,14.71,0,0,0,92.11,99H30.87A14.71,14.71,0,0,0,30.78,100.53Z"/><path class="cls-61" d="M30.78,99.43l.09,1.67H92.11l.09-1.67a14.71,14.71,0,0,0-.09-1.49H30.87A14.71,14.71,0,0,0,30.78,99.43Z"/><path class="cls-62" d="M33.69,155.73l.38,7.31A13.16,13.16,0,0,0,47.23,176.2H75.75A13.16,13.16,0,0,0,88.91,163l.37-7.31Z"/><path class="cls-63" d="M89.4,153.51l1-19.37c-13.24,14.69-26.77,29.72-37.85,42.06H67.72Z"/><path class="cls-64" d="M51.34,86.27c-6.25,4.88-13.32,10.41-20.41,16l1.21,23.43,40.94-39.4Z"/><path class="cls-65" d="M91.34,94.79A13.23,13.23,0,0,0,83.41,87C67.74,102.23,49,120.34,32.67,136l.83,16Z"/><path class="cls-66" d="M92.11,101.17c-19.21,19-41.47,41-58.26,57.61l.22,4.26a13.12,13.12,0,0,0,5.22,10.48C55,157.64,74.24,138.08,91.08,121Z"/><polygon class="cls-67" points="89.4 154.63 33.58 154.63 33.81 159.02 89.17 159.02 89.4 154.63"/><polygon class="cls-68" points="89.4 152.44 33.58 152.44 33.81 156.83 89.17 156.83 89.4 152.44"/><polygon class="cls-69" points="89.4 153.54 33.58 153.54 33.81 157.93 89.17 157.93 89.4 153.54"/><path class="cls-70" d="M88.91,121.23a12.71,12.71,0,1,1-12.71-12.7A12.71,12.71,0,0,1,88.91,121.23Z"/><path class="cls-71" d="M88.45,121.23A12.25,12.25,0,1,1,76.2,109,12.24,12.24,0,0,1,88.45,121.23Z"/><path class="cls-72" d="M86.44,121.23A10.24,10.24,0,1,1,76.2,111,10.24,10.24,0,0,1,86.44,121.23Z"/><rect class="cls-73" x="75.61" y="115.15" width="1.1" height="6.72"/><path class="cls-74" d="M75.64,129.8a7.51,7.51,0,0,1-1.16-.15l.22-1.08a6.82,6.82,0,0,0,1,.14Zm1.17,0-.08-1.09a8.46,8.46,0,0,0,1-.14l.23,1.07A9,9,0,0,1,76.81,129.8Zm-3.46-.46a8.6,8.6,0,0,1-1.08-.47l.51-1a7.66,7.66,0,0,0,.93.4Zm5.75,0-.38-1a6.07,6.07,0,0,0,.94-.41l.51,1A9.15,9.15,0,0,1,79.1,129.32Zm-7.83-1a9.46,9.46,0,0,1-.91-.74l.75-.8a7.11,7.11,0,0,0,.79.64Zm9.9,0-.64-.89a6.21,6.21,0,0,0,.79-.65l.75.8A7.86,7.86,0,0,1,81.17,128.24Zm-11.61-1.56a8.82,8.82,0,0,1-.68-1l.93-.57a7.93,7.93,0,0,0,.6.83Zm13.31,0L82,126a8.27,8.27,0,0,0,.59-.83l.94.57A8.28,8.28,0,0,1,82.87,126.65Zm-14.53-2a7.35,7.35,0,0,1-.4-1.11l1-.29a7.7,7.7,0,0,0,.35.95Zm15.75,0-1-.44a6.44,6.44,0,0,0,.34-1l1.06.29A10.41,10.41,0,0,1,84.09,124.65Z"/><path class="cls-75" d="M77.85,121.23a1.65,1.65,0,1,1-3.29,0,1.65,1.65,0,0,1,3.29,0Z"/><path class="cls-76" d="M68.54,121.05a7.67,7.67,0,0,1,15.33,0H85a8.77,8.77,0,0,0-17.53,0Z"/><path class="cls-77" d="M60.44,121.23A12.84,12.84,0,1,1,47.6,108.39,12.84,12.84,0,0,1,60.44,121.23Z"/><path class="cls-78" d="M59.85,121.23A12.25,12.25,0,1,1,47.6,109,12.25,12.25,0,0,1,59.85,121.23Z"/><path class="cls-79" d="M57.83,121.23A10.24,10.24,0,1,1,47.6,111,10.24,10.24,0,0,1,57.83,121.23Z"/><rect class="cls-73" x="45.91" y="114.97" width="1.1" height="6.72" transform="translate(-38.81 24.04) rotate(-20.69)"/><path class="cls-74" d="M47,129.8a7.49,7.49,0,0,1-1.17-.15l.22-1.08a6.77,6.77,0,0,0,1,.14Zm1.17,0-.08-1.09a8.46,8.46,0,0,0,1-.14l.22,1.07A9.08,9.08,0,0,1,48.21,129.8Zm-3.47-.46a9.15,9.15,0,0,1-1.07-.47l.5-1a7.8,7.8,0,0,0,.94.4Zm5.75,0-.37-1a6.52,6.52,0,0,0,.94-.41l.5,1A7.88,7.88,0,0,1,50.49,129.32Zm-7.82-1a11,11,0,0,1-.92-.74l.75-.8a9.6,9.6,0,0,0,.79.64Zm9.89,0-.63-.89a7,7,0,0,0,.79-.65l.75.8A8,8,0,0,1,52.56,128.24ZM41,126.68a10.45,10.45,0,0,1-.68-1l.94-.57a6.61,6.61,0,0,0,.59.83Zm13.32,0-.85-.7a8.27,8.27,0,0,0,.59-.83l.93.57A8.21,8.21,0,0,1,54.27,126.65Zm-14.54-2a10.46,10.46,0,0,1-.4-1.11l1.06-.29a7.65,7.65,0,0,0,.34.95Zm15.75,0-1-.44a7.8,7.8,0,0,0,.34-1l1,.29A7.31,7.31,0,0,1,55.48,124.65Z"/><path class="cls-80" d="M49.25,121.23a1.65,1.65,0,1,1-1.65-1.64A1.65,1.65,0,0,1,49.25,121.23Z"/><path class="cls-81" d="M39.93,121.05a7.67,7.67,0,0,1,15.34,0h1.09a8.77,8.77,0,0,0-17.53,0Z"/><path class="cls-82" d="M62.94,21.44C81.92,22.62,97,41.8,97.22,65.37c0,0-2.31,9.47-37,8.93C26.36,73.78,25,65.37,25,65.37c.19-23.57,15.3-42.75,34.28-43.93-20,1.18-35.95,21.38-36.15,46.21,0,0,1.47,8.85,37.11,9.39,36.46.56,38.89-9.39,38.89-9.39C98.89,42.82,83,22.62,62.94,21.44Z"/><path class="cls-83" d="M79.4,31.35c0,5.2-7.76-2.29-17.91-2.29s-18.83,7.49-18.83,2.29S50.89,21.94,61,21.94,79.4,26.15,79.4,31.35Z"/><path class="cls-84" d="M62.42,24.31c16.65.25,30.58,13.62,35.45,32-4.25-20.1-19.1-34.94-36.78-34.94-20.86,0-37.79,20.67-38,46.26a3.32,3.32,0,0,0,.69,1.27C24.83,43.85,41.85,24,62.42,24.31Z"/><path class="cls-85" d="M67.05,17.8c0,1.65-2.47-.73-5.69-.73s-6,2.38-6,.73,2.61-3,5.83-3S67.05,16.15,67.05,17.8Z"/><path class="cls-86" d="M53.22,72a4.07,4.07,0,0,1,0-8.14H70.64a4.07,4.07,0,0,1,0,8.14Z"/><path class="cls-87" d="M73.62,68a3,3,0,0,1-3,3H53.22a3,3,0,0,1-3-3h0a3,3,0,0,1,3-3H70.64a3,3,0,0,1,3,3Z"/><path class="cls-88" d="M79,86.27h-.79A12.57,12.57,0,0,1,90.82,98.84l-3.14,60.77a12.57,12.57,0,0,1-12.57,12.57H47.87A12.57,12.57,0,0,1,35.3,159.61L32.15,98.84A12.57,12.57,0,0,1,44.73,86.27h-.79A13.16,13.16,0,0,0,30.78,99.43L34.07,163A13.16,13.16,0,0,0,47.23,176.2H75.75A13.16,13.16,0,0,0,88.91,163L92.2,99.43A13.17,13.17,0,0,0,79,86.27Z"/><path class="cls-89" d="M86.9,92.13c0,3-11.66.75-25.64.75s-25,2.26-25-.75,11.33-5.45,25.31-5.45S86.9,89.12,86.9,92.13Z"/><path class="cls-90" d="M77.94,171.63c0,.41-7.36.74-16.45.74S45,172,45,171.63s7.37-.73,16.45-.73S77.94,171.23,77.94,171.63Z"/><path class="cls-91" d="M64.6,3.47A3.11,3.11,0,1,1,61.49.37,3.11,3.11,0,0,1,64.6,3.47Z"/><path class="cls-92" d="M62.29,185.16a13.24,13.24,0,0,0-1.24,26.43,12.06,12.06,0,1,1,2.47,0,13.24,13.24,0,0,0-1.23-26.43Z"/><path class="cls-93" d="M26.16,49.7a65.8,65.8,0,0,0,27.47,5.87c15.3,0,29.16-5,39.23-13.08-6.79-12.71-18.48-21.1-31.77-21.1C45.42,21.39,32,33.05,26.16,49.7Z"/><path class="cls-94" d="M91.48,113.19l.72-13.76A13.17,13.17,0,0,0,79,86.27H43.94A13.16,13.16,0,0,0,30.78,99.43l1.78,34.36A57,57,0,0,0,48.33,136C67.61,136,84.17,126.62,91.48,113.19Z"/><path class="cls-95" d="M69.9,84.36c0,.55-3.64,1-8.14,1s-8.13-.45-8.13-1,3.64-1,8.13-1S69.9,83.8,69.9,84.36Z"/></g><g id="Right_Eye" data-name="Right Eye"><path class="cls-96" d="M34.33,54.68a8.91,8.91,0,1,0,8.91-8.91A8.91,8.91,0,0,0,34.33,54.68Z"/><path class="cls-97" d="M33.41,55.14a9.37,9.37,0,1,0,9.37-9.37A9.38,9.38,0,0,0,33.41,55.14Z"/><path id="Right_Eyeball" data-name="Right Eyeball" class="cls-98" d="M38.72,54.68a4.52,4.52,0,1,0,4.52-4.52A4.52,4.52,0,0,0,38.72,54.68Z"/><path class="cls-99" d="M34.33,54.68a8.91,8.91,0,1,0,8.91-8.91A8.91,8.91,0,0,0,34.33,54.68Zm1.37,0a7.54,7.54,0,1,1,7.54,7.54A7.55,7.55,0,0,1,35.7,54.68Z"/></g><g id="Left_Eye" data-name="Left Eye"><path class="cls-100" d="M88.89,54.68A8.91,8.91,0,1,1,80,45.77,8.91,8.91,0,0,1,88.89,54.68Z"/><path class="cls-101" d="M89.8,55.14a9.37,9.37,0,1,1-9.36-9.37A9.37,9.37,0,0,1,89.8,55.14Z"/><path id="Left_EyeBall" data-name="Left EyeBall" class="cls-102" d="M84.5,54.68A4.53,4.53,0,1,1,80,50.16,4.52,4.52,0,0,1,84.5,54.68Z"/><path class="cls-103" d="M80,45.77a8.91,8.91,0,1,0,8.91,8.91A8.91,8.91,0,0,0,80,45.77Zm0,16.45a7.54,7.54,0,1,1,7.54-7.54A7.53,7.53,0,0,1,80,62.22Z"/></g></g></svg>