<svg id="Layer_1" data-name="Layer 1" xmlns="http://www.w3.org/2000/svg" xmlns:xlink="http://www.w3.org/1999/xlink" viewBox="0 0 288 288"><defs><style>.cls-1{fill:#fcfcfc;}.cls-2{opacity:0.17;}.cls-3{clip-path:url(#clip-path);}.cls-4{fill:#314057;fill-rule:evenodd;}</style><clipPath id="clip-path"><rect class="cls-1" width="288" height="288"/></clipPath></defs><title>bgrnd_pattern</title><g class="cls-2"><rect class="cls-1" width="288" height="288"/><g class="cls-3"><path class="cls-4" d="M280.94,190.09c-.36-.86.28-1.25.5-1.75s.6-1.07.93-1.66c-.48-.83-1-1.65-1.42-2.47-.19-.33-.18-.34.08-.87l5.8,3.35Z"/><path class="cls-4" d="M34.36,60.45l-6,3.46c0-.4-.07-.63,0-.78a14.3,14.3,0,0,1,1.08-1.86,1.3,1.3,0,0,0,0-1.67,18.09,18.09,0,0,1-1-1.77,1.59,1.59,0,0,1-.08-.59l.2-.15Z"/><path class="cls-4" d="M14.36,133.78l3.36-5.8c1.17,2,2.26,3.9,3.31,5.73-.22.45-.46.36-.72.21-.85-.5-1.71-1-2.52-1.44-1.1.54-2.12,1-3.15,1.53C14.62,134,14.54,133.93,14.36,133.78Z"/><path class="cls-4" d="M189.25,7.77a1.93,1.93,0,0,1-.6-.09,19.05,19.05,0,0,1-1.86-1.07,1.16,1.16,0,0,0-1.48,0,19.05,19.05,0,0,1-1.86,1.07,2.24,2.24,0,0,1-.65.14,29.66,29.66,0,0,1,3.29-6l3.28,5.67Z"/><path class="cls-4" d="M70.38,63.64a2.07,2.07,0,0,1,.13-.61,18.9,18.9,0,0,1,1.07-1.85,1.18,1.18,0,0,0,0-1.49,17.94,17.94,0,0,1-1.07-1.86,3.27,3.27,0,0,1-.12-.87c2.13,1.22,4,2.3,6,3.5L70.64,63.8Z"/><path class="cls-4" d="M21.13,176c-.88.3-1.28-.31-1.79-.54a17.4,17.4,0,0,1-1.55-.86l-3.14,1.53s-.1-.07-.27-.22c1-1.88,2.15-3.76,3.34-5.82Z"/><path class="cls-4" d="M244.76,186.69,239,190c-.46-.27-.3-.51-.16-.76.39-.68.76-1.37,1.18-2a.86.86,0,0,0,0-1c-.41-.67-.79-1.36-1.18-2-.13-.24-.31-.48.17-.77Z"/><path class="cls-4" d="M189.45,176c-.89.3-1.28-.31-1.79-.54s-1.07-.59-1.56-.86c-1.09.54-2.11,1-3.14,1.53,0,0-.1-.08-.15-.12a33.45,33.45,0,0,1,3.3-5.79Z"/><path class="cls-4" d="M71.94,102.59c-.56-1.1-1.07-2.1-1.56-3.1,0,0,.11-.14.25-.31l5.8,3.35-5.72,3.31c-.5-.21-.36-.48-.19-.77Z"/><path class="cls-4" d="M76.44,18.37l-5.73,3.31c-.42-.17-.41-.39-.24-.68.5-.85,1-1.71,1.47-2.56-.54-1.06-1.06-2.08-1.56-3.11,0,0,.12-.14.26-.3Z"/><path class="cls-4" d="M286.83,270.85l-6,3.45c0-.39-.07-.63,0-.78a14.3,14.3,0,0,1,1.08-1.86,1.29,1.29,0,0,0,0-1.66c-.38-.57-.7-1.17-1-1.77a1.68,1.68,0,0,1-.08-.6l.21-.15Z"/><path class="cls-4" d="M118.51,18.38l-5.74,3.31c-.45-.24-.35-.48-.2-.74.5-.85,1-1.7,1.43-2.5-.54-1.11-1-2.13-1.52-3.16,0,0,.08-.1.23-.26C114.58,16.09,116.47,17.19,118.51,18.38Z"/><path class="cls-4" d="M196.92,57.13l5.56,3.21a32.41,32.41,0,0,1-5.67,3.37c-.35-.2-.21-.44-.07-.69.36-.62.69-1.26,1.08-1.86a1.1,1.1,0,0,0,0-1.39c-.4-.59-.72-1.23-1.08-1.85C196.63,57.68,196.44,57.44,196.92,57.13Z"/><path class="cls-4" d="M118.51,102.54l-5.73,3.31c-.46-.24-.36-.48-.21-.74.5-.85,1-1.71,1.43-2.5-.54-1.11-1-2.13-1.52-3.16,0,0,.08-.1.23-.26C114.58,100.25,116.47,101.34,118.51,102.54Z"/><path class="cls-4" d="M240.26,60.51c-.56-1.1-1.08-2.09-1.57-3.09,0,0,.11-.15.25-.32l5.81,3.35L239,63.76c-.51-.2-.37-.47-.2-.76Z"/><path class="cls-4" d="M239,267.51l5.58,3.22a32.41,32.41,0,0,1-5.67,3.37c-.35-.2-.21-.44-.07-.69.36-.62.69-1.26,1.08-1.85a1.1,1.1,0,0,0,0-1.39,20.92,20.92,0,0,1-1.12-1.95,1.68,1.68,0,0,1-.07-.6Z"/><path class="cls-4" d="M186.1,128.09c1.1,1.91,2.19,3.78,3.24,5.61-.19.44-.43.38-.7.22l-2.54-1.45C185,133,184,133.52,183,134c0,0-.1-.08-.15-.12A32.17,32.17,0,0,1,186.1,128.09Z"/><path class="cls-4" d="M238.88,21.62c-.35-.2-.2-.44-.06-.68.38-.65.73-1.32,1.13-2a1,1,0,0,0,0-1.21c-.4-.63-.75-1.3-1.12-2-.14-.23-.32-.48.16-.78,1.8,1.05,3.68,2.13,5.56,3.21A32,32,0,0,1,238.88,21.62Z"/><path class="cls-4" d="M118.51,270.85l-5.73,3.31c-.46-.23-.36-.47-.21-.73.5-.85,1-1.71,1.43-2.5-.54-1.11-1-2.14-1.52-3.17,0,0,.08-.09.23-.25C114.58,268.56,116.47,269.66,118.51,270.85Z"/><path class="cls-4" d="M281,21.62c-.35-.2-.2-.45,0-.69.38-.68.76-1.37,1.18-2a.89.89,0,0,0,0-1c-.41-.66-.79-1.35-1.18-2-.14-.24-.31-.48.17-.77l5.57,3.21A33.79,33.79,0,0,1,281,21.62Z"/><path class="cls-4" d="M118.38,186.76l-5.6,3.24c-.43-.2-.38-.43-.22-.71.5-.85,1-1.71,1.45-2.53-.54-1.08-1-2.1-1.54-3.13,0,0,.07-.11.12-.16A32.12,32.12,0,0,1,118.38,186.76Z"/><path class="cls-4" d="M70.69,267.52l5.56,3.22a33.36,33.36,0,0,1-5.68,3.36c-.35-.21-.2-.45-.06-.69.37-.66.72-1.32,1.13-2a1,1,0,0,0,0-1.21c-.41-.63-.76-1.3-1.13-1.95C70.38,268.07,70.21,267.82,70.69,267.52Z"/><path class="cls-4" d="M70.64,183.34l5.79,3.35L70.71,190c-.43-.19-.4-.42-.23-.7.49-.85,1-1.71,1.45-2.55-.53-1.06-1-2.08-1.54-3.11C70.37,183.6,70.51,183.49,70.64,183.34Z"/><path class="cls-4" d="M238.85,105.94c-.33-.87.29-1.26.52-1.77a16.82,16.82,0,0,1,.88-1.57c-.54-1.08-1.05-2.1-1.55-3.13,0,0,.08-.1.12-.15a32.2,32.2,0,0,1,5.8,3.28Z"/><path class="cls-4" d="M14.36,7.54l3.25-5.61A31.52,31.52,0,0,1,21,7.65c-.71.4-1.09-.3-1.59-.51a13.74,13.74,0,0,1-1.59-.89L14.62,7.76S14.52,7.68,14.36,7.54Z"/><path class="cls-4" d="M281.11,99.22l5.53,3.2a32.6,32.6,0,0,1-5.68,3.36c-.35-.2-.2-.44-.06-.69.37-.65.73-1.31,1.13-1.94a1,1,0,0,0,0-1.21c-.42-.66-.78-1.36-1.18-2C280.7,99.62,280.69,99.39,281.11,99.22Z"/><path class="cls-4" d="M238.93,225.41l5.82,3.36L239,232.08c-.44-.2-.38-.44-.22-.71l1.45-2.53c-.54-1.08-1.05-2.11-1.55-3.13C238.69,225.68,238.78,225.6,238.93,225.41Z"/><path class="cls-4" d="M196.79,232.17c-.37-.86.28-1.25.5-1.75a17.45,17.45,0,0,1,.88-1.59c-.53-1.06-1-2.08-1.55-3.11,0,0,.12-.15.26-.3l5.79,3.34Z"/><path class="cls-4" d="M71.94,228.83c-.54-1.06-1-2.09-1.56-3.11,0,0,.13-.15.26-.3l5.79,3.34-5.72,3.32c-.43-.19-.4-.42-.23-.7Z"/><path class="cls-4" d="M101.93,48.3c-1.09.56-2.08,1.08-3.08,1.58,0,0-.15-.11-.33-.25l3.35-5.81c1.17,2,2.25,3.87,3.31,5.71-.19.51-.47.37-.75.21Z"/><path class="cls-4" d="M34.36,228.77l-5.73,3.31c-.42-.18-.4-.4-.24-.69.5-.85,1-1.71,1.47-2.56-.53-1.06-1.05-2.08-1.56-3.11,0,0,.12-.14.26-.3Z"/><path class="cls-4" d="M270.19,212.12l3.38,5.86c-.82.45-1.2-.24-1.7-.45a13.74,13.74,0,0,1-1.59-.89l-3.2,1.52a1.75,1.75,0,0,1-.23-.24Z"/><path class="cls-4" d="M101.93,212.22c1.11,1.93,2.19,3.8,3.37,5.83-.33,0-.56.14-.71.07-.49-.23-1-.53-1.43-.79-1.61-.9-1-.88-2.61,0-.45.24-.88.52-1.34.75a1.85,1.85,0,0,1-.55.06A29.49,29.49,0,0,1,101.93,212.22Z"/><path class="cls-4" d="M273.45,49.66c-.23.42-.51.19-.77,0l-2.4-1.38-3.18,1.53s-.09-.08-.26-.23q1.61-2.77,3.22-5.6A29.67,29.67,0,0,1,273.45,49.66Z"/><path class="cls-4" d="M59.86,1.85c1.1,1.91,2.19,3.78,3.37,5.82-.34,0-.58.13-.73.06-.66-.35-1.32-.71-2-1.12a1.16,1.16,0,0,0-1.48,0,19.05,19.05,0,0,1-1.86,1.07,2,2,0,0,1-.65.13A29.39,29.39,0,0,1,59.86,1.85Z"/><path class="cls-4" d="M101.88,1.74l3.31,5.73c-.23.46-.48.35-.73.21l-2.52-1.44c-1.18.42-2.06,1.33-3.32,1.46C99.58,5.67,100.68,3.79,101.88,1.74Z"/><path class="cls-4" d="M144,1.86q1.66,2.86,3.24,5.61c-.2.45-.44.37-.71.21L144,6.24l-3.15,1.54s-.1-.08-.15-.12A34.33,34.33,0,0,1,144,1.86Z"/><path class="cls-4" d="M224.77,7.52l3.34-5.78,3.31,5.73c-.22.46-.46.36-.72.21l-2.56-1.46c-1.12.48-2,1.3-3.16,1.65Z"/><path class="cls-4" d="M273.58,7.6c-.84.42-1.22-.26-1.72-.47a14.22,14.22,0,0,1-1.58-.88c-1.19.31-2,1.37-3.21,1.51,0,0-.08-.1-.21-.25l3.32-5.77Z"/><path class="cls-4" d="M59.87,128.1q1.65,2.86,3.24,5.6c-.21.45-.45.37-.72.22l-2.57-1.47a36.52,36.52,0,0,1-3.31,1.72A30.41,30.41,0,0,1,59.87,128.1Z"/><path class="cls-4" d="M101.88,128l3.3,5.73c-.21.45-.45.36-.71.21L102,132.48c-1.1.54-2.12,1-3.15,1.53,0,0-.1-.07-.27-.22C99.58,131.91,100.69,130,101.88,128Z"/><path class="cls-4" d="M147.33,133.83c-.82.44-1.2-.25-1.7-.46a14.22,14.22,0,0,1-1.58-.88L140.84,134s-.09-.09-.22-.24l3.3-5.74c.69,1,1.17,1.95,1.72,2.87S146.73,132.78,147.33,133.83Z"/><path class="cls-4" d="M231.44,133.86c-.77.41-1.15-.28-1.65-.49a14.22,14.22,0,0,1-1.58-.88L225,134a2.18,2.18,0,0,1-.22-.24l3.22-5.61A33.37,33.37,0,0,1,231.44,133.86Z"/><path class="cls-4" d="M273.52,133.86c-.77.41-1.16-.28-1.65-.49a13.37,13.37,0,0,1-1.58-.88L267.08,134a2.18,2.18,0,0,1-.22-.24l3.22-5.61A34.2,34.2,0,0,1,273.52,133.86Z"/><path class="cls-4" d="M160.45,18.46l-5.59,3.23c-.45-.23-.36-.47-.21-.73.49-.85,1-1.71,1.43-2.51-.53-1.1-1-2.12-1.53-3.15,0,0,.08-.1.13-.15A33.57,33.57,0,0,1,160.45,18.46Z"/><path class="cls-4" d="M28.38,147.84a14.24,14.24,0,0,1,1.46-3.18c-.53-1.07-1-2.09-1.53-3.12,0,0,.08-.1.12-.15a32.38,32.38,0,0,1,5.79,3.3C32.3,145.8,30.42,146.91,28.38,147.84Z"/><path class="cls-4" d="M70.38,147.8a2.07,2.07,0,0,1,.13-.61,19.05,19.05,0,0,1,1.07-1.86,1.16,1.16,0,0,0,0-1.48A17.94,17.94,0,0,1,70.49,142a.92.92,0,0,1,0-.67c2,1,3.89,2.1,5.91,3.3L70.64,148Z"/><path class="cls-4" d="M112.53,147.84a14.26,14.26,0,0,1,1.47-3.18c-.53-1.07-1-2.09-1.53-3.12,0,0,.08-.1.12-.15a32.73,32.73,0,0,1,5.79,3.3C116.46,145.8,114.58,146.91,112.53,147.84Z"/><path class="cls-4" d="M189.29,260.06c-.24.42-.51.18-.77,0l-2.4-1.37-3.18,1.52s-.09-.08-.25-.23l3.22-5.6A30,30,0,0,1,189.29,260.06Z"/><path class="cls-4" d="M196.9,141.28l5.77,3.33-6,3.46c0-.4-.07-.63,0-.79a11.46,11.46,0,0,1,1-1.77,1.38,1.38,0,0,0,0-1.84,14.67,14.67,0,0,1-1-1.68,2.21,2.21,0,0,1-.08-.59Z"/><path class="cls-4" d="M240.24,144.69c-.54-1.1-1-2.13-1.53-3.16,0,0,.08-.1.13-.15a35.35,35.35,0,0,1,5.77,3.31l-5.6,3.23c-.45-.22-.36-.46-.21-.72C239.3,146.35,239.78,145.49,240.24,144.69Z"/><path class="cls-4" d="M280.8,147.81a1.57,1.57,0,0,1,.06-.54c.22-.45.5-.88.75-1.33.9-1.63.91-1,0-2.62-.25-.45-.53-.88-.75-1.34a3.67,3.67,0,0,1-.1-.87c2.12,1.23,4,2.33,6.05,3.5L281,148Z"/><path class="cls-4" d="M59.87,170.18q1.65,2.87,3.24,5.6c-.22.45-.46.37-.72.21l-2.52-1.43c-1.09.54-2.12,1-3.15,1.53,0,0-.1-.08-.15-.12A34.12,34.12,0,0,1,59.87,170.18Z"/><path class="cls-4" d="M101.88,170.05c1.17,2,2.25,3.91,3.31,5.73-.22.46-.46.36-.72.21L102,174.56c-1.1.54-2.12,1-3.15,1.53,0,0-.1-.08-.27-.22C99.58,174,100.69,172.11,101.88,170.05Z"/><path class="cls-4" d="M144,170.18q1.65,2.87,3.24,5.6c-.22.46-.46.36-.73.21L144,174.56c-1.1.54-2.12,1-3.15,1.53,0,0-.1-.08-.15-.12A34,34,0,0,1,144,170.18Z"/><path class="cls-4" d="M17.77,43.91l3.37,5.82c-.32.05-.56.15-.7.08-.5-.23-1-.53-1.43-.8-1.62-.9-1-.87-2.62,0-.45.25-.88.53-1.34.76a1.56,1.56,0,0,1-.55.05A29.46,29.46,0,0,1,17.77,43.91Z"/><path class="cls-4" d="M59.79,43.81l3.31,5.72c-.18.5-.46.38-.75.21-.82-.48-1.65-1-2.46-1.41l-3.2,1.51s-.09-.09-.23-.24Z"/><path class="cls-4" d="M144,43.82c1.18,2,2.26,3.91,3.31,5.73-.21.45-.45.36-.71.21L144,48.32l-3.15,1.54s-.1-.08-.27-.22C141.65,47.75,142.76,45.87,144,43.82Z"/><path class="cls-4" d="M186,43.81l3.3,5.72c-.18.51-.46.37-.74.21l-2.47-1.42c-1.19.33-2,1.37-3.2,1.52,0,0-.09-.1-.22-.24Z"/><path class="cls-4" d="M224.77,49.6l3.34-5.79,3.31,5.74c-.22.45-.46.36-.72.21l-2.55-1.46C227,48.77,226.1,49.6,225,50Z"/><path class="cls-4" d="M228.2,174.56c-1.12.54-2.15,1-3.18,1.52,0,0-.1-.08-.26-.23l3.23-5.6a30.78,30.78,0,0,1,3.38,5.65c-.24.42-.52.18-.77,0C229.77,175.47,229,175,228.2,174.56Z"/><path class="cls-4" d="M273.58,175.91c-.84.43-1.22-.25-1.72-.46a14.28,14.28,0,0,1-1.58-.89c-1.19.32-2,1.37-3.2,1.51,0,0-.09-.09-.22-.24l3.32-5.78Z"/><path class="cls-4" d="M156.12,186.71a36.32,36.32,0,0,1-1.73-3.3,29.71,29.71,0,0,1,6.07,3.35l-5.6,3.24c-.44-.21-.37-.44-.22-.71C155.14,188.43,155.62,187.58,156.12,186.71Z"/><path class="cls-4" d="M21.13,218c-.88.33-1.27-.3-1.78-.52s-1.07-.59-1.57-.88l-3.12,1.55s-.11-.08-.16-.12a32.73,32.73,0,0,1,3.28-5.81Z"/><path class="cls-4" d="M63.07,218c-.71.4-1.09-.3-1.58-.5a15.64,15.64,0,0,1-1.6-.9l-3.19,1.52s-.09-.09-.24-.24l3.22-5.6A31.3,31.3,0,0,1,63.07,218Z"/><path class="cls-4" d="M154.82,57.12l5.77,3.33-6,3.46c0-.4-.07-.63,0-.79a13.53,13.53,0,0,1,1-1.77,1.39,1.39,0,0,0,0-1.84,12.65,12.65,0,0,1-1-1.68,1.59,1.59,0,0,1-.08-.59Z"/><path class="cls-4" d="M144,212.23l3.37,5.82c-.33,0-.57.14-.71.07a13.58,13.58,0,0,1-1.78-1,1.37,1.37,0,0,0-1.84,0,11.54,11.54,0,0,1-1.67,1,2.4,2.4,0,0,1-.65.14A28.76,28.76,0,0,1,144,212.23Z"/><path class="cls-4" d="M189.3,218c-.71.4-1.09-.3-1.58-.51a13.74,13.74,0,0,1-1.59-.89l-3.2,1.52s-.1-.09-.25-.22c1.07-1.86,2.15-3.74,3.24-5.62A31.4,31.4,0,0,1,189.3,218Z"/><path class="cls-4" d="M224.79,217.88l3.32-5.76c1.16,2,2.25,3.89,3.31,5.73-.17.42-.39.41-.68.24-.68-.39-1.37-.75-2-1.18a1,1,0,0,0-1.21,0c-.63.41-1.3.76-1.95,1.14C225.31,218.2,225.06,218.35,224.79,217.88Z"/><path class="cls-4" d="M154.85,225.45l5.74,3.31-5.72,3.32c-.42-.18-.41-.41-.24-.69.5-.85,1-1.71,1.5-2.63-.47-.82-.95-1.64-1.42-2.47C154.57,226,154.32,225.76,154.85,225.45Z"/><path class="cls-4" d="M21.13,260.12c-.88.3-1.28-.31-1.79-.54s-1.07-.59-1.55-.86c-1.09.53-2.12,1-3.15,1.53,0,0-.1-.08-.27-.22,1.05-1.89,2.16-3.76,3.35-5.82C18.89,256.25,20,258.12,21.13,260.12Z"/><path class="cls-4" d="M63.12,260c-.3.49-.54.31-.78.17-.68-.39-1.37-.76-2-1.18a.87.87,0,0,0-1,0c-.66.42-1.35.79-2,1.18-.25.15-.49.29-.76-.16l3.31-5.77Z"/><path class="cls-4" d="M105.29,260.12c-.88.3-1.28-.31-1.79-.54s-1.07-.59-1.55-.86c-1.1.53-2.12,1-3.15,1.53,0,0-.1-.08-.15-.12a33.74,33.74,0,0,1,3.3-5.79Z"/><path class="cls-4" d="M144,254.32c1.11,1.91,2.2,3.78,3.37,5.82-.33,0-.57.13-.72.06a18.89,18.89,0,0,1-1.95-1.12,1.16,1.16,0,0,0-1.48,0,21.44,21.44,0,0,1-1.86,1.08,2.66,2.66,0,0,1-.65.13A30.16,30.16,0,0,1,144,254.32Z"/><path class="cls-4" d="M231.52,260.11c-.88.32-1.27-.3-1.78-.53a16.58,16.58,0,0,1-1.56-.87c-1.08.54-2.11,1.05-3.14,1.54,0,0-.1-.07-.15-.11a32.91,32.91,0,0,1,3.29-5.81Z"/><path class="cls-4" d="M273.4,260.24a1.83,1.83,0,0,1-.59-.09,17.94,17.94,0,0,1-1.86-1.07,1.16,1.16,0,0,0-1.48,0,19.05,19.05,0,0,1-1.86,1.07,2.32,2.32,0,0,1-.65.14,29.2,29.2,0,0,1,3.29-6l3.27,5.67Z"/><path class="cls-4" d="M34.36,270.84l-5.72,3.31c-.51-.19-.37-.47-.21-.75l1.42-2.47c-.33-1.18-1.37-2-1.52-3.2,0,0,.1-.09.26-.21Z"/><path class="cls-4" d="M17.71,85.89,21,91.61c-.19.51-.46.37-.75.21L17.81,90.4c-1.19.32-2,1.37-3.2,1.52,0,0-.09-.1-.22-.25C15.44,89.83,16.53,88,17.71,85.89Z"/><path class="cls-4" d="M59.79,85.89l3.31,5.72c-.16.42-.38.42-.67.25-.68-.39-1.37-.76-2-1.18a1,1,0,0,0-1.22,0c-.62.4-1.29.75-1.94,1.13-.24.14-.49.29-.76-.17Z"/><path class="cls-4" d="M98.53,91.69c1.08-1.88,2.16-3.75,3.35-5.8,1.16,2,2.25,3.9,3.42,5.93-.33,0-.57.14-.71.06a17.26,17.26,0,0,1-1.87-1.06,1.29,1.29,0,0,0-1.66,0,14.09,14.09,0,0,1-1.77,1,2.28,2.28,0,0,1-.6.13Z"/><path class="cls-4" d="M147.36,91.79c-.87.33-1.26-.29-1.77-.52A16.77,16.77,0,0,1,144,90.4l-3.13,1.54s-.1-.07-.15-.11A32.84,32.84,0,0,1,144,86Z"/><path class="cls-4" d="M182.68,91.69l3.35-5.8c1.17,2,2.25,3.9,3.43,5.93-.33,0-.57.14-.72.07a19.05,19.05,0,0,1-1.86-1.07,1.29,1.29,0,0,0-1.66,0,14.84,14.84,0,0,1-1.77,1,1.94,1.94,0,0,1-.6.12Z"/><path class="cls-4" d="M231.38,91.8c-.71.41-1.09-.29-1.58-.5a14.76,14.76,0,0,1-1.6-.89c-1.08.51-2.13,1-3.19,1.51,0,0-.09-.08-.24-.23L228,86.08A30.53,30.53,0,0,1,231.38,91.8Z"/><path class="cls-4" d="M273.46,91.8c-.71.4-1.09-.3-1.59-.5a15.41,15.41,0,0,1-1.59-.89l-3.19,1.51s-.1-.08-.25-.22q1.61-2.79,3.23-5.62A32,32,0,0,1,273.46,91.8Z"/><path class="cls-4" d="M160.6,270.85l-5.73,3.31c-.42-.18-.41-.4-.24-.69l1.46-2.56c-.53-1.05-1.05-2.08-1.55-3.11,0,0,.12-.14.25-.3Z"/><path class="cls-4" d="M28.46,105.94c-.33-.87.29-1.27.52-1.77s.59-1.07.87-1.57c-.53-1.08-1-2.1-1.54-3.13,0,0,.08-.1.12-.16a31.81,31.81,0,0,1,5.79,3.3Z"/><path class="cls-4" d="M202.67,270.85l-5.73,3.31c-.43-.19-.39-.42-.23-.7.5-.85,1-1.71,1.45-2.53-.36-1.19-1.37-2.05-1.56-3.25l.28-.18Z"/><path class="cls-4" d="M160.6,102.53l-5.73,3.31c-.43-.18-.41-.4-.24-.69.5-.85,1-1.71,1.46-2.55-.53-1.07-1.05-2.09-1.55-3.12,0,0,.12-.14.26-.29Z"/><path class="cls-4" d="M196.62,105.72a2.44,2.44,0,0,1,.12-.61,19.14,19.14,0,0,1,1.08-1.86,1.16,1.16,0,0,0,0-1.48,17.94,17.94,0,0,1-1.07-1.86,1.83,1.83,0,0,1-.09-.59l.21-.15,5.83,3.36-5.8,3.35Z"/><path class="cls-4" d="M1,18.35c2.09-1.15,4-2.2,5.89-3.23,0,0,.15.11.33.24-.43.76-.83,1.53-1.3,2.26a1.22,1.22,0,0,0,0,1.5c.48.73.88,1.5,1.28,2.2-.32.45-.56.28-.8.14Z"/><path class="cls-4" d="M28.49,21.77c-.42-.85.26-1.23.47-1.73a16,16,0,0,1,.88-1.58c-.32-1.19-1.37-2-1.5-3.2,0,0,.09-.09.25-.22l5.76,3.33Z"/><path class="cls-4" d="M49.39,15.26c-.53.93-1,1.73-1.44,2.51A1,1,0,0,0,48,19c.48.77.92,1.57,1.47,2.54-.4,0-.64.08-.79,0-1.78-1-3.54-2-5.48-3.15,2-1.13,3.84-2.2,5.7-3.25C48.93,15.07,49.09,15.18,49.39,15.26Z"/><path class="cls-4" d="M85.18,18.34c2.1-1.15,4-2.19,5.91-3.21,0,0,.15.11.32.24-.44.76-.84,1.54-1.32,2.27a1.2,1.2,0,0,0,0,1.49c.47.73.87,1.51,1.43,2.48a3.09,3.09,0,0,1-.88-.11Z"/><path class="cls-4" d="M127.27,18.35c2.08-1.15,4-2.2,5.88-3.23,0,0,.15.1.34.23-.43.76-.83,1.54-1.3,2.27a1.2,1.2,0,0,0,0,1.49c.48.73.88,1.51,1.39,2.4-.36,0-.58.12-.71,0C131.05,20.54,129.26,19.5,127.27,18.35Z"/><path class="cls-4" d="M175.63,15.27c-.53.92-1,1.73-1.45,2.5a1,1,0,0,0,0,1.22c.48.78.92,1.58,1.44,2.49-.34,0-.56.15-.68.08-1.81-1-3.6-2-5.57-3.19,2-1.14,3.85-2.2,5.72-3.25C175.17,15.07,175.33,15.18,175.63,15.27Z"/><path class="cls-4" d="M196.62,21.56a2.28,2.28,0,0,1,.12-.6c.36-.66.71-1.33,1.13-1.95a1.05,1.05,0,0,0,0-1.3c-.41-.63-.77-1.29-1.12-2a1,1,0,0,1,0-.67c2,1,3.9,2.09,5.92,3.29l-5.78,3.34A2.26,2.26,0,0,1,196.62,21.56Z"/><path class="cls-4" d="M211.44,18.36c2.06-1.16,3.93-2.21,5.8-3.24,0,0,.17.06.38.15-.13.28-.24.54-.37.79-.4.78-.82,1.56-1.24,2.34.41.75.82,1.49,1.22,2.24.14.26.25.53.46,1a3.27,3.27,0,0,1-.81-.13C215.13,20.5,213.39,19.49,211.44,18.36Z"/><path class="cls-4" d="M259.76,21.49c-.32,0-.54.14-.66.07-1.81-1-3.6-2.06-5.59-3.2,2.06-1.15,4-2.2,5.86-3.24,0,0,.16.09.35.21-.22.41-.45.81-.66,1.22-.33.63-.89,1.26-.89,1.9s.58,1.19.91,1.79Z"/><path class="cls-4" d="M14.53,28.74c.84.48,1.54.81,2.16,1.25a1.55,1.55,0,0,0,2,0c.63-.44,1.34-.77,2.13-1.22,0,.33.13.54.06.67-1,1.8-2.06,3.6-3.19,5.56l-1.19-2c-.39-.68-.82-1.34-1.17-2S14.43,29.78,14.53,28.74Z"/><path class="cls-4" d="M56.82,28.85c.76.44,1.54.85,2.28,1.33a1.14,1.14,0,0,0,1.4,0c.74-.47,1.52-.88,2.47-1.43,0,.38.07.62,0,.77-1,1.78-2,3.54-3.15,5.48-.44-.75-.82-1.37-1.18-2s-.82-1.35-1.17-2-.9-1.17-.9-1.92Z"/><path class="cls-4" d="M143.94,35c-1.15-2-2.19-3.9-3.23-5.77,0-.06.06-.18.1-.3.47-.1.75.25,1.1.42.7.35,1.38,1,2.07,1s1.32-.63,2-1l1.06-.59c.07.24.21.46.15.57C146.14,31.23,145.08,33.05,143.94,35Z"/><path class="cls-4" d="M186,35.06c-1.15-2.09-2.19-4-3.21-5.84,0,0,.09-.17.2-.37a15,15,0,0,1,1.84,1,1.74,1.74,0,0,0,2.38,0,13.72,13.72,0,0,1,1.74-1c.5.17.36.45.19.73-.71,1.24-1.43,2.48-2.15,3.72C186.71,33.85,186.42,34.35,186,35.06Z"/><path class="cls-4" d="M225.05,28.83l1.45.81c2,1.1,1.18,1.11,3.25,0,.45-.24.89-.49,1.42-.79.07.23.22.46.16.56-1,1.84-2.08,3.66-3.23,5.66-1.15-2-2.2-3.89-3.23-5.76C224.83,29.21,225,29.05,225.05,28.83Z"/><path class="cls-4" d="M267,29c.65-.05,1,.35,1.39.54.65.31,1.27.88,1.9.89s1.2-.57,1.8-.9l1.32-.73c0,.36.08.6,0,.75-1,1.78-2,3.54-3.14,5.48L269,33c-.4-.68-.81-1.35-1.17-2S267,29.79,267,29Z"/><path class="cls-4" d="M7.28,63.54c-.28.1-.4.19-.46.15C5,62.66,3.09,61.61,1,60.45l5.88-3.26s.16.1.35.21c-.29.53-.57,1.06-.86,1.58-1,1.84-1,1.13,0,3C6.67,62.46,7,63,7.28,63.54Z"/><path class="cls-4" d="M43.13,60.44l5.79-3.25s.18.07.33.13a2.35,2.35,0,0,1-.16.55A19.14,19.14,0,0,1,48,59.73a1.18,1.18,0,0,0,0,1.49c.36.53.66,1.11,1,1.68a5.94,5.94,0,0,1,.31.78,2.19,2.19,0,0,1-.75-.11C46.82,62.58,45.08,61.57,43.13,60.44Z"/><path class="cls-4" d="M91.54,63.69a3.6,3.6,0,0,1-.88-.11c-1.75-1-3.49-2-5.24-3A42.16,42.16,0,0,1,91,57.2c.11,0,.23.09.46.19-.46.81-.87,1.59-1.34,2.32a1.22,1.22,0,0,0,0,1.5C90.58,61.94,91,62.71,91.54,63.69Z"/><path class="cls-4" d="M118.52,60.45l-5.73,3.31c-.5-.2-.36-.47-.2-.76L114,60.55c-.32-1.2-1.37-2-1.51-3.22,0,0,.1-.08.26-.21Z"/><path class="cls-4" d="M133.5,57.44c-.47.82-.89,1.6-1.37,2.35a1.07,1.07,0,0,0,0,1.31c.37.57.69,1.17,1,1.77a6,6,0,0,1,.31.7c-.23,0-.42.15-.52.1-1.83-1-3.65-2.08-5.68-3.24,2.09-1.15,4-2.2,5.89-3.23C133.19,57.17,133.31,57.3,133.5,57.44Z"/><path class="cls-4" d="M169.35,60.43c2.07-1.14,4-2.2,5.87-3.24,0,0,.16.1.34.22a8.16,8.16,0,0,1-.78,1.39,2.33,2.33,0,0,0,0,3.35,6.86,6.86,0,0,1,.64,1.16c0,.06,0,.13,0,.28-.18,0-.4.12-.53,0C173.13,62.62,171.34,61.58,169.35,60.43Z"/><path class="cls-4" d="M217.66,57.44c-.45.79-.85,1.54-1.31,2.25a1.2,1.2,0,0,0,0,1.5c.4.59.73,1.23,1.08,1.85a3.8,3.8,0,0,1,.21.55c-.26,0-.49.12-.61,0-1.8-1-3.59-2.05-5.58-3.2l5.87-3.24S217.46,57.3,217.66,57.44Z"/><path class="cls-4" d="M259.71,57.46c-.43.76-.84,1.54-1.31,2.28a1.13,1.13,0,0,0,0,1.4c.39.57.7,1.18,1,1.77a6.23,6.23,0,0,1,.28.74c-.3,0-.51,0-.65,0-1.78-1-3.55-2-5.46-3.14l2-1.19c.68-.4,1.35-.81,2-1.17a4.8,4.8,0,0,1,1.9-.92C259.59,57.28,259.66,57.37,259.71,57.46Z"/><path class="cls-4" d="M282.34,60.51c-.56-1.09-1.08-2.08-1.57-3.08,0,0,.11-.15.25-.33l5.8,3.35-5.71,3.31c-.51-.19-.37-.47-.2-.75C281.38,62.18,281.85,61.35,282.34,60.51Z"/><path class="cls-4" d="M20.84,70.86c0,.32.14.54.08.66-1,1.81-2.06,3.6-3.2,5.57-.45-.78-.82-1.4-1.18-2s-.82-1.34-1.17-2-.92-1.15-.87-2.17l1.75,1c1.8,1,1.12,1,2.9,0Z"/><path class="cls-4" d="M63,70.83c0,.39.07.6,0,.74-1,1.75-2,3.48-3,5.22,0,0-.12.07-.27.16l-3.13-5.6c0-.06.06-.18.1-.31.55-.08.87.34,1.28.53.64.31,1.26.89,1.9.9s1.2-.56,1.8-.89Z"/><path class="cls-4" d="M98.8,70.88c.85.49,1.63.89,2.37,1.37a1.14,1.14,0,0,0,1.4,0c.74-.48,1.52-.89,2.35-1.37.1.22.25.42.21.5-1,1.86-2.11,3.72-3.27,5.74-1.15-2-2.19-3.92-3.23-5.79C98.6,71.28,98.69,71.16,98.8,70.88Z"/><path class="cls-4" d="M143.93,77.14c-1.16-2.09-2.19-4-3.22-5.84,0,0,.08-.17.19-.37l1.41.76c2.06,1.12,1.22,1.14,3.25,0l1.25-.69a1.22,1.22,0,0,1,.28,0c0,.16.13.38.06.5C146.13,73.32,145.09,75.12,143.93,77.14Z"/><path class="cls-4" d="M182.94,70.87c.74.42,1.44.76,2.07,1.2a1.55,1.55,0,0,0,2,0c.62-.44,1.33-.77,2.12-1.22,0,.32.14.54.07.67-1,1.8-2.06,3.6-3.2,5.58-1.15-2-2.2-3.86-3.24-5.72C182.75,71.31,182.86,71.15,182.94,70.87Z"/><path class="cls-4" d="M228.08,77.15c-1.16-2.12-2.19-4-3.21-5.87,0,0,.09-.16.23-.37.73.42,1.48.8,2.18,1.27a1.31,1.31,0,0,0,1.67,0c.67-.46,1.41-.83,2.26-1.32,0,.3.16.54.09.68C230.28,73.34,229.24,75.14,228.08,77.15Z"/><path class="cls-4" d="M273.3,70.85c.07.32.17.51.12.61-1,1.83-2.09,3.66-3.24,5.66-1.15-2-2.2-3.89-3.23-5.76,0-.07.08-.23.18-.47.79.45,1.55.82,2.24,1.3a1.31,1.31,0,0,0,1.67,0C271.71,71.71,272.45,71.34,273.3,70.85Z"/><path class="cls-4" d="M7.26,99.49c-.33.59-.64,1.12-.93,1.66-1,1.72-.93,1.07,0,2.8.29.53.58,1.06.94,1.7-.32,0-.54.14-.66.07-1.81-1-3.6-2.06-5.59-3.21,2.06-1.14,4-2.2,5.86-3.24C6.94,99.25,7.06,99.37,7.26,99.49Z"/><path class="cls-4" d="M43.11,102.51c2.08-1.15,4-2.2,5.89-3.23,0,0,.15.1.33.23-.43.76-.83,1.54-1.3,2.27a1.2,1.2,0,0,0,0,1.49c.48.73.88,1.51,1.44,2.48a3,3,0,0,1-.87-.09C46.84,104.67,45.1,103.66,43.11,102.51Z"/><path class="cls-4" d="M91.4,183.7c-.44.76-.85,1.54-1.32,2.28a1.11,1.11,0,0,0,0,1.4c.38.56.7,1.17,1,1.77a5.12,5.12,0,0,1,.28.74c-.3,0-.52,0-.66,0-1.78-1-3.54-2-5.48-3.16,2.05-1.17,3.93-2.36,5.91-3.34Z"/><path class="cls-4" d="M43.12,144.59c2.06-1.14,4-2.2,5.85-3.24.05,0,.17.1.36.22l-.67,1.22c-.32.63-.88,1.26-.88,1.9s.58,1.19.91,1.79c.2.38.41.76.68,1.25-.32,0-.54.14-.67.07C46.9,146.78,45.11,145.74,43.12,144.59Z"/><path class="cls-4" d="M133.47,183.68a16.54,16.54,0,0,1-1.05,1.84,1.66,1.66,0,0,0,0,2.29,9.52,9.52,0,0,1,.82,1.42,4.68,4.68,0,0,1,.24.69,2.46,2.46,0,0,1-.74-.12c-1.75-1-3.49-2-5.37-3.09l2-1.19c.67-.4,1.34-.81,2-1.17s1.16-.89,1.92-.91Z"/><path class="cls-4" d="M105.2,155.35c-1,2-2.18,3.84-3.34,5.94l-3.23-5.8c0-.06.07-.18.12-.3.53-.06.86.35,1.28.55.64.3,1.26.88,1.89.89s1.2-.58,1.8-.9l1.21-.66Z"/><path class="cls-4" d="M175.59,183.63c-.46.81-.86,1.59-1.34,2.32a1.22,1.22,0,0,0,0,1.5c.47.73.87,1.5,1.43,2.48a3.55,3.55,0,0,1-.89-.12c-1.75-1-3.48-2-5.24-3a45.63,45.63,0,0,1,5.58-3.36C175.25,183.41,175.37,183.53,175.59,183.63Z"/><path class="cls-4" d="M198.16,186.77c-.54-1.11-1-2.14-1.53-3.17,0,0,.09-.09.24-.25,1.87,1.06,3.76,2.14,5.79,3.35L196.93,190c-.45-.24-.35-.48-.2-.74Z"/><path class="cls-4" d="M217.72,189.82c-.37,0-.59.12-.72.05-1.8-1-3.58-2.06-5.57-3.2l5.87-3.24s.16.11.35.24c-.43.76-.83,1.53-1.31,2.26a1.23,1.23,0,0,0,0,1.5C216.81,188.16,217.21,188.94,217.72,189.82Z"/><path class="cls-4" d="M7.32,141.5c-.53.92-1,1.73-1.45,2.5a1,1,0,0,0,0,1.22c.39.61.73,1.23,1.08,1.86a5.32,5.32,0,0,1,.23.64c-.16.07-.28.16-.34.13L1,144.63c2-1.16,3.87-2.23,5.73-3.28C6.85,141.31,7,141.41,7.32,141.5Z"/><path class="cls-4" d="M259.83,183.5c-.59,1-1,1.84-1.51,2.62a1,1,0,0,0,0,1.13c.37.58.69,1.18,1,1.77.13.23.22.48.31.68-.28.38-.52.21-.76.07l-5.31-3.06,2.06-1.23c.64-.38,1.28-.79,1.95-1.11S258.77,183.39,259.83,183.5Z"/><path class="cls-4" d="M267.18,113l1.5.83c1.86,1,1.15,1,3,0l1.59-.9c.07.25.22.47.16.58-1,1.83-2.09,3.65-3.25,5.68-1.14-2.09-2.18-4-3.2-5.9C266.94,113.29,267.06,113.18,267.18,113Z"/><path class="cls-4" d="M14.64,197.11c.85.49,1.63.9,2.36,1.37a1.16,1.16,0,0,0,1.41,0c.73-.48,1.52-.89,2.34-1.37.1.21.26.41.22.49-1,1.86-2.11,3.72-3.27,5.75-1.14-2.05-2.19-3.92-3.22-5.79C14.45,197.52,14.53,197.4,14.64,197.11Z"/><path class="cls-4" d="M59.78,203.37c-1.15-2.06-2.2-3.93-3.23-5.81,0-.05.07-.18.17-.4l1.59.86c1.84,1,1.12,1,3,0l1.68-.95c0,.38.07.61,0,.76C62,199.6,60.93,201.37,59.78,203.37Z"/><path class="cls-4" d="M98.69,197.05c.84.48,1.54.82,2.16,1.26a1.56,1.56,0,0,0,2,0A22.75,22.75,0,0,1,105,197.1c0,.32.13.54.06.66-1,1.81-2.06,3.6-3.19,5.57-.46-.78-.82-1.42-1.19-2.05s-.82-1.34-1.17-2S98.59,198.1,98.69,197.05Z"/><path class="cls-4" d="M143.94,203.36c-1.14-2-2.19-3.9-3.23-5.77,0-.07.09-.22.18-.44l1.46.8c2,1.1,1.18,1.11,3.25,0l1.41-.8c.08.24.22.46.16.57C146.14,199.54,145.09,201.36,143.94,203.36Z"/><path class="cls-4" d="M186,203.37c-1.15-2.07-2.19-3.94-3.22-5.82,0-.05.08-.17.18-.39l1.67.92c1.71.92,1.05.95,2.81,0l1.69-.95a1.9,1.9,0,0,1,.09.63,1.85,1.85,0,0,1-.28.54C188,199.9,187.07,201.52,186,203.37Z"/><path class="cls-4" d="M228.1,203.36l-3.23-5.76c0-.07.09-.23.18-.48.79.45,1.55.83,2.24,1.3a1.3,1.3,0,0,0,1.67,0c.68-.45,1.41-.82,2.2-1.27.08.23.23.46.17.56C230.3,199.53,229.25,201.35,228.1,203.36Z"/><path class="cls-4" d="M270.16,203.39c-1.14-2.1-2.18-4-3.2-5.91,0,0,.1-.15.22-.3l1.68.93c1.6.88,1,.91,2.63,0l1.76-1c.08.25.22.47.16.58C272.38,199.54,271.32,201.36,270.16,203.39Z"/><path class="cls-4" d="M147.06,155c.07.3.18.49.12.59-1,1.83-2.08,3.66-3.24,5.66-1.14-2-2.19-3.88-3.22-5.74-.05-.07.07-.23.16-.49.79.45,1.55.83,2.24,1.3a1.31,1.31,0,0,0,1.67,0C145.47,155.87,146.2,155.51,147.06,155Z"/><path class="cls-4" d="M186,161.29c-1.15-2.07-2.19-3.94-3.22-5.81,0-.06.07-.18.17-.4l1.41.76c2.1,1.14,1.22,1.15,3.34,0,.44-.24.88-.5,1.49-.85,0,.38.08.62,0,.77C188.19,157.53,187.16,159.29,186,161.29Z"/><path class="cls-4" d="M224.91,112.94l1.81,1c1.7.92,1,1,2.81,0l1.68-1c0,.3.17.51.1.63-1,1.81-2.05,3.61-3.19,5.58l-1.18-2c-.4-.68-.82-1.35-1.17-2.05S224.84,114,224.91,112.94Z"/><path class="cls-4" d="M231.22,155c.07.3.18.49.12.59-1,1.84-2.09,3.66-3.24,5.66-1.14-2-2.19-3.88-3.23-5.75,0-.07.08-.23.17-.48.79.45,1.55.83,2.24,1.3a1.31,1.31,0,0,0,1.67,0C229.63,155.87,230.36,155.51,231.22,155Z"/><path class="cls-4" d="M273.3,155c.07.3.17.49.12.59-1,1.84-2.09,3.66-3.24,5.66-1.14-2-2.2-3.88-3.23-5.75,0-.07.08-.23.17-.48.79.45,1.55.83,2.24,1.3a1.31,1.31,0,0,0,1.67,0C271.71,155.87,272.44,155.51,273.3,155Z"/><path class="cls-4" d="M133.62,147.84a7.52,7.52,0,0,1-.88-.1,2.85,2.85,0,0,1-.45-.25l-4.94-2.86c1.05-.69,2.05-1.23,3-1.79,2.54-1.47,2.54-1.47,3.12-1.26-.45.78-.85,1.56-1.32,2.29a1.2,1.2,0,0,0,0,1.49C132.66,146.09,133.06,146.87,133.62,147.84Z"/><path class="cls-4" d="M182.84,113.11c.6,0,.94.36,1.35.55.64.3,1.26.88,1.9.89s1.19-.57,1.79-.9l1.33-.73c0,.36.07.6,0,.74-1,1.78-2,3.55-3.14,5.49-.44-.75-.82-1.37-1.19-2s-.82-1.34-1.16-2S182.75,114,182.84,113.11Z"/><path class="cls-4" d="M1.07,228.76c2-1.13,3.84-2.2,5.71-3.25.07,0,.23.06.44.12a7.39,7.39,0,0,1-1.11,2.08,1.6,1.6,0,0,0,0,2.12c.43.6.74,1.28,1.2,2.09-.38,0-.62.08-.77,0C4.77,230.91,3,229.88,1.07,228.76Z"/><path class="cls-4" d="M140.88,113c.85.49,1.63.89,2.37,1.37a1.13,1.13,0,0,0,1.4,0c.74-.47,1.52-.88,2.38-1.38.07.28.2.5.13.61-1,1.81-2.09,3.59-3.15,5.38,0,0-.06,0-.18.07-1-1.85-2.09-3.72-3.12-5.6C140.68,113.36,140.77,113.23,140.88,113Z"/><path class="cls-4" d="M49.39,231.87c-.32.06-.51.17-.61.11-1.83-1-3.65-2.07-5.67-3.24L49,225.51s.15.11.33.24c-.43.76-.83,1.54-1.3,2.27a1.2,1.2,0,0,0,0,1.49C48.5,230.24,48.9,231,49.39,231.87Z"/><path class="cls-4" d="M101.84,119.23c-1.15-2.12-2.19-4-3.21-5.88,0,0,.1-.16.23-.36.73.42,1.49.8,2.18,1.27a1.3,1.3,0,0,0,1.67,0c.67-.45,1.41-.82,2.27-1.31,0,.3.16.54.08.67C104,115.42,103,117.21,101.84,119.23Z"/><path class="cls-4" d="M91.47,225.66c-.53.92-1,1.73-1.45,2.5a1,1,0,0,0,0,1.22c.48.78.92,1.58,1.47,2.55-.4,0-.64.07-.79,0-1.78-1-3.54-2-5.48-3.15,2-1.13,3.84-2.2,5.7-3.25C91,225.47,91.17,225.57,91.47,225.66Z"/><path class="cls-4" d="M118.52,228.77l-5.74,3.31c-.42-.19-.39-.42-.23-.7.5-.85,1-1.71,1.46-2.55-.53-1.06-1.05-2.09-1.54-3.12,0,0,.12-.14.25-.29Z"/><path class="cls-4" d="M133.48,231.85c-.23.09-.35.19-.4.16-1.88-1-3.75-2.08-5.77-3.21l2.05-1.22c.67-.39,1.34-.81,2-1.16a4.19,4.19,0,0,1,2.19-.9l-1.07,1.93c-.89,1.63-.87,1,0,2.63C132.84,230.66,133.15,231.24,133.48,231.85Z"/><path class="cls-4" d="M175.63,141.5c-.53.92-1,1.72-1.45,2.5a1,1,0,0,0,0,1.22c.39.6.74,1.23,1.08,1.86a4.75,4.75,0,0,1,.24.64c-.17.07-.29.16-.34.13-1.88-1-3.75-2.08-5.8-3.22,2-1.16,3.87-2.23,5.73-3.28C175.17,141.31,175.33,141.41,175.63,141.5Z"/><path class="cls-4" d="M175.61,232a2.85,2.85,0,0,1-.81-.13c-1.75-1-3.48-2-5.38-3.09l2-1.19c.68-.4,1.35-.81,2.05-1.17a4.2,4.2,0,0,1,2.14-.9c-.19.41-.29.67-.42.92-.41.79-.83,1.56-1.25,2.34.41.75.82,1.49,1.22,2.24C175.29,231.29,175.4,231.56,175.61,232Z"/><path class="cls-4" d="M62.91,112.93c.06.32.17.51.11.61-1,1.83-2.09,3.65-3.24,5.66-1.14-2-2.19-3.89-3.22-5.76,0-.07.08-.23.17-.46.79.44,1.55.81,2.24,1.28a1.3,1.3,0,0,0,1.67,0C61.32,113.79,62.05,113.42,62.91,112.93Z"/><path class="cls-4" d="M217.77,232c-.46,0-.7,0-.87-.1-1.75-1-3.48-2-5.4-3.1,1.05-.69,2.06-1.23,3-1.79,2.54-1.47,2.54-1.47,3.13-1.26-.45.77-.85,1.55-1.32,2.28a1.2,1.2,0,0,0,0,1.49C216.81,230.24,217.21,231,217.77,232Z"/><path class="cls-4" d="M14.64,113c.85.49,1.63.9,2.36,1.37a1.14,1.14,0,0,0,1.41,0c.73-.48,1.52-.89,2.37-1.38.08.26.21.48.15.59-1,1.84-2.08,3.66-3.23,5.65-1.14-2-2.19-3.91-3.22-5.78C14.45,113.37,14.53,113.24,14.64,113Z"/><path class="cls-4" d="M259.74,225.74c-.5.87-.94,1.68-1.42,2.46a1,1,0,0,0,0,1.13c.37.58.69,1.18,1,1.77.12.23.21.48.39.88-.35,0-.6,0-.76-.09-1.75-1-3.49-2-5.39-3.1,1-.7,2-1.23,3-1.79C259.15,225.53,259.15,225.53,259.74,225.74Z"/><path class="cls-4" d="M282.32,228.84c-.54-1.1-1-2.12-1.53-3.15,0,0,.08-.1.12-.15a34.22,34.22,0,0,1,5.78,3.31l-5.6,3.23c-.45-.22-.36-.46-.21-.72C281.38,230.5,281.86,229.65,282.32,228.84Z"/><path class="cls-4" d="M20.81,239.23c.1.23.2.35.17.4l-3.24,5.8c-.46-.8-.83-1.42-1.2-2.05s-.82-1.34-1.17-2a4.14,4.14,0,0,1-.88-2.18l1,.53c.75.39,1.5.78,2.26,1.16l2.15-1.17C20.2,239.53,20.47,239.41,20.81,239.23Z"/><path class="cls-4" d="M59.77,245.46c-1.16-2.1-2.19-4-3.22-5.86,0,0,.09-.16.22-.38.68.39,1.38.72,2,1.16a1.55,1.55,0,0,0,2,0,22.75,22.75,0,0,1,2.13-1.22c0,.32.13.54.06.66C62,241.65,60.93,243.44,59.77,245.46Z"/><path class="cls-4" d="M101.85,245.46c-1.16-2.1-2.19-4-3.22-5.86,0,0,.09-.16.22-.38.67.39,1.37.72,2,1.16a1.55,1.55,0,0,0,2,0,23.87,23.87,0,0,1,2.12-1.22c0,.32.14.54.07.66C104.05,241.65,103,243.44,101.85,245.46Z"/><path class="cls-4" d="M143.93,245.46c-1.16-2.1-2.2-4-3.22-5.86,0,0,.09-.16.21-.38.68.39,1.38.72,2,1.16a1.55,1.55,0,0,0,2,0,21.32,21.32,0,0,1,2.12-1.22c0,.32.14.54.07.66C146.13,241.65,145.09,243.44,143.93,245.46Z"/><path class="cls-4" d="M186,245.46c-1.16-2.1-2.2-4-3.22-5.86,0,0,.09-.16.21-.38.68.39,1.38.72,2,1.16a1.55,1.55,0,0,0,2,0,21.32,21.32,0,0,1,2.12-1.22c0,.32.14.54.07.66C188.21,241.65,187.17,243.44,186,245.46Z"/><path class="cls-4" d="M228.08,245.46c-1.15-2.1-2.19-4-3.21-5.86,0,0,.09-.16.21-.38.68.39,1.38.72,2,1.16a1.55,1.55,0,0,0,2,0,22.75,22.75,0,0,1,2.13-1.22c0,.32.13.54.06.66C230.29,241.65,229.25,243.44,228.08,245.46Z"/><path class="cls-4" d="M270.06,245.24q-1.56-2.78-3.11-5.6s.07-.17.16-.4l1.59.86c1.83,1,1.12,1,3,0l1.6-.9c.06.28.18.5.12.62-1,1.79-2.1,3.58-3.16,5.37C270.23,245.2,270.18,245.2,270.06,245.24Z"/><path class="cls-4" d="M253.5,144.58l5.89-3.22s.16.11.33.24c-.43.75-.83,1.53-1.3,2.27a1.19,1.19,0,0,0,0,1.49c.47.73.87,1.5,1.43,2.48a3.19,3.19,0,0,1-.87-.1C257.23,146.75,255.49,145.73,253.5,144.58Z"/><path class="cls-4" d="M211.43,144.59l5.83-3.24c.05,0,.17.08.39.19a17,17,0,0,1-1,1.83,1.83,1.83,0,0,0,0,2.47,16.36,16.36,0,0,1,1.1,1.93c-.37,0-.61.08-.76,0C215.17,146.76,213.4,145.73,211.43,144.59Z"/><path class="cls-4" d="M85.19,144.59l5.88-3.24s.16.11.34.24c-.43.76-.83,1.54-1.31,2.27a1.22,1.22,0,0,0,0,1.49c.47.73.88,1.51,1.37,2.36-.32.07-.51.17-.61.11C89,146.8,87.21,145.75,85.19,144.59Z"/><path class="cls-4" d="M20.83,155c.06.3.17.49.12.59-1,1.84-2.09,3.66-3.24,5.66-1.15-2-2.2-3.88-3.23-5.74,0-.08.08-.23.17-.49.79.45,1.55.83,2.24,1.3a1.31,1.31,0,0,0,1.67,0C19.24,155.87,20,155.51,20.83,155Z"/><path class="cls-4" d="M98.63,29c.66-.06,1,.35,1.4.54.64.31,1.26.88,1.9.89s1.2-.57,1.79-.9l1.33-.73c0,.36.07.6,0,.75-1,1.78-2,3.54-3.15,5.48-.44-.75-.82-1.37-1.18-2s-.82-1.35-1.17-2S98.64,29.79,98.63,29Z"/><path class="cls-4" d="M62.89,155.08c.1.22.19.35.17.4-1,1.87-2.09,3.74-3.24,5.79-.47-.8-.84-1.42-1.2-2.05s-.82-1.34-1.17-2.05-.91-1.15-.88-2.13l1,.45,2.34,1.21c.74-.41,1.49-.83,2.24-1.23C62.34,155.34,62.58,155.24,62.89,155.08Z"/><path class="cls-4" d="M1,186.69c2.12-1.18,4-2.23,5.86-3.26,0,0,.17.08.38.19a15.38,15.38,0,0,1-1,1.83,1.83,1.83,0,0,0,0,2.47,16.22,16.22,0,0,1,1,1.84c-.23.1-.35.2-.4.17C5,188.9,3.1,187.85,1,186.69Z"/><path class="cls-4" d="M253.49,102.5l5.91-3.22s.16.11.32.24c-.43.76-.83,1.54-1.31,2.28a1.2,1.2,0,0,0,0,1.49c.47.73.87,1.5,1.43,2.48a3.1,3.1,0,0,1-.88-.12C257.22,104.66,255.48,103.65,253.49,102.5Z"/><path class="cls-4" d="M7.31,267.73c-.52.93-1,1.73-1.44,2.51a1,1,0,0,0,0,1.22c.48.77.92,1.57,1.48,2.55-.4,0-.64.07-.8,0-1.77-1-3.54-2-5.47-3.15,2-1.13,3.83-2.2,5.69-3.25C6.85,267.54,7,267.65,7.31,267.73Z"/><path class="cls-4" d="M29.85,186.76c-.54-1.09-1-2.12-1.54-3.14,0,0,.08-.1.13-.15a33.52,33.52,0,0,1,5.78,3.3L28.62,190c-.44-.21-.37-.45-.21-.72Z"/><path class="cls-4" d="M49.33,273.92c-.23.1-.35.2-.41.17l-5.8-3.22c1.16-.67,2.14-1.26,3.14-1.82a22.27,22.27,0,0,1,2.84-1.54l.22.28-1,1.74c-.9,1.62-.88,1,0,2.63Z"/><path class="cls-4" d="M217.67,105.62c-.27.1-.4.18-.46.15-1.87-1-3.73-2.08-5.8-3.24l5.88-3.26s.16.1.34.21l-.85,1.58c-1,1.84-1,1.12,0,3C217.07,104.54,217.34,105,217.67,105.62Z"/><path class="cls-4" d="M91.53,274.07c-.46-.05-.7,0-.86-.1-1.75-1-3.49-2-5.4-3.1,1-.7,2-1.23,3-1.79,2.53-1.47,2.53-1.47,3.12-1.27-.44.78-.84,1.56-1.32,2.29a1.22,1.22,0,0,0,0,1.49C90.58,272.32,91,273.1,91.53,274.07Z"/><path class="cls-4" d="M175.57,99.49l-.93,1.66c-.95,1.72-.93,1.07,0,2.8l.94,1.7c-.31,0-.53.14-.66.07-1.8-1-3.59-2.06-5.59-3.21,2.06-1.14,4-2.2,5.86-3.24C175.25,99.25,175.37,99.37,175.57,99.49Z"/><path class="cls-4" d="M127.3,270.85c2-1.15,3.85-2.21,5.71-3.26.08,0,.24.06.53.15a21.73,21.73,0,0,1-1.19,2.05,1.58,1.58,0,0,0,0,2.12,23.13,23.13,0,0,1,1.17,2c-.31,0-.53.15-.65.09C131.07,273,129.27,272,127.3,270.85Z"/><path class="cls-4" d="M49.3,189.64c-.33.44-.57.27-.8.13-1.72-1-3.43-2-5.31-3.06,1.05-.69,2.05-1.22,3-1.79,2.53-1.47,2.53-1.47,3.12-1.26-.44.77-.84,1.55-1.32,2.28a1.22,1.22,0,0,0,0,1.49C48.5,188.16,48.9,188.94,49.3,189.64Z"/><path class="cls-4" d="M169.37,270.83c2.06-1.16,3.92-2.21,5.79-3.24.05,0,.18.06.38.15-.13.28-.23.54-.36.79-.41.79-.83,1.56-1.25,2.34.41.75.82,1.49,1.22,2.24.14.26.25.53.46,1a2.85,2.85,0,0,1-.81-.13C173.05,273,171.31,272,169.37,270.83Z"/><path class="cls-4" d="M160.59,144.61l-6,3.46c0-.4-.07-.63,0-.79a12.34,12.34,0,0,1,1-1.77,1.38,1.38,0,0,0,0-1.84,14,14,0,0,1-1-1.68,1.68,1.68,0,0,1-.08-.6l.2-.14Z"/><path class="cls-4" d="M211.47,270.84c2-1.14,3.84-2.2,5.7-3.25.08,0,.24.06.5.14-.22.4-.39.75-.59,1.09-.28.51-.56,1-.87,1.51a.87.87,0,0,0,0,1c.49.81.94,1.64,1.51,2.63-.39,0-.64.08-.79,0C215.17,273,213.4,272,211.47,270.84Z"/><path class="cls-4" d="M127.28,102.52c2.07-1.17,3.94-2.21,5.81-3.25,0,0,.18.07.39.17-.29.54-.56,1.07-.85,1.59-1,1.87-1,1.15,0,3,.26.48.52,1,.77,1.44,0,0,0,.13-.06.25s-.39.07-.53,0Z"/><path class="cls-4" d="M253.52,270.83c2.06-1.16,3.93-2.21,5.8-3.24.06,0,.18.07.4.16-.15.31-.29.6-.44.88-.39.75-.79,1.5-1.19,2.25l1.17,2.15c.15.28.29.57.55,1.07A3.71,3.71,0,0,1,259,274C257.21,273,255.47,272,253.52,270.83Z"/><path class="cls-4" d="M91.43,99.51c-.41.7-.73,1.39-1.17,2a1.54,1.54,0,0,0,0,2c.45.63.78,1.33,1.24,2.13-.36,0-.58.13-.7,0-1.81-1-3.6-2-5.59-3.2l5.87-3.24S91.22,99.37,91.43,99.51Z"/><path class="cls-4" d="M14.66,281.3a16.69,16.69,0,0,1,2,1.13,1.66,1.66,0,0,0,2.21,0,21.4,21.4,0,0,1,1.93-1.12c.08.24.23.46.17.57-1,1.83-2.09,3.66-3.24,5.65-1.14-2-2.19-3.89-3.22-5.76C14.44,281.68,14.56,281.52,14.66,281.3Z"/><path class="cls-4" d="M62.92,281.24c.06.32.16.52.1.62-1,1.83-2.09,3.65-3.24,5.65-1.14-2-2.19-3.89-3.22-5.76,0-.07.08-.23.18-.47.73.42,1.43.75,2.06,1.2a1.54,1.54,0,0,0,2,0A23.31,23.31,0,0,1,62.92,281.24Z"/><path class="cls-4" d="M101.87,287.5c-1.16-2.1-2.36-3.94-3.39-6A2.2,2.2,0,0,1,100,282c.64.3,1.26.88,1.9.9s1.19-.57,1.79-.9l1.21-.67c.1.2.25.4.21.48C104.08,283.65,103,285.5,101.87,287.5Z"/><path class="cls-4" d="M140.73,281.24l1.13.59c.72.37,1.44,1,2.17,1s1.37-.67,2.06-1.05l1-.51c0,.28.15.5.08.62-1,1.8-2.06,3.6-3.19,5.57l-1.19-2c-.39-.68-.81-1.34-1.17-2S140.69,282.26,140.73,281.24Z"/><path class="cls-4" d="M186,287.53c-1.15-2.07-2.19-3.94-3.22-5.82,0,0,.07-.17.17-.39l1.5.81c2,1.06,1.16,1.09,3.16,0l1.26-.69c.05,0,.12,0,.27,0,0,.17.15.39.09.5C188.22,283.7,187.18,285.5,186,287.53Z"/><path class="cls-4" d="M228,287.32c-1-1.85-2.08-3.72-3.11-5.6,0-.06.07-.18.12-.3.53,0,.86.36,1.28.55.64.31,1.26.89,1.9.89s1.19-.57,1.79-.9l1.24-.68c.06.27.18.49.12.61-1,1.8-2.1,3.58-3.16,5.37C228.15,287.28,228.1,287.28,228,287.32Z"/><path class="cls-4" d="M270.18,287.51c-1.15-2-2.2-3.89-3.23-5.76,0-.07.08-.22.18-.46a22.92,22.92,0,0,1,2.15,1.24,1.4,1.4,0,0,0,1.85,0c.64-.44,1.35-.79,2.11-1.23.08.24.23.47.17.57C272.38,283.69,271.33,285.51,270.18,287.51Z"/></g></g></svg>