<svg xmlns="http://www.w3.org/2000/svg" viewBox="0 0 450 450" width="95%" height="100%" preserveAspectRatio="xMidYMid" style="transform:scale(0.95, -0.95);">
<rect x="0" y="0.0" width="95%" height="5.0%" style="fill:none; stroke: gray;stroke-width:1;"></rect>
<rect x="0" y="22.5" width="95%" height="5.0%" style="fill:none; stroke: gray;stroke-width:1;"></rect>
<rect x="0" y="45.0" width="95%" height="5.0%" style="fill:none; stroke: gray;stroke-width:1;"></rect>
<rect x="0" y="67.5" width="95%" height="5.0%" style="fill:none; stroke: gray;stroke-width:1;"></rect>
<rect x="0" y="90.0" width="95%" height="5.0%" style="fill:none; stroke: gray;stroke-width:1;"></rect>
<rect x="0" y="112.5" width="95%" height="5.0%" style="fill:none; stroke: gray;stroke-width:1;"></rect>
<rect x="0" y="135.0" width="95%" height="5.0%" style="fill:none; stroke: gray;stroke-width:1;"></rect>
<rect x="0" y="157.5" width="95%" height="5.0%" style="fill:none; stroke: gray;stroke-width:1;"></rect>
<rect x="0" y="180.0" width="95%" height="5.0%" style="fill:none; stroke: gray;stroke-width:1;"></rect>
<rect x="0" y="0.0" width="95%" height="45.0%" style="fill: none; stroke: blue; stroke-width: 2;"></rect>
<rect x="0" y="225.0" width="95%" height="5.0%" style="fill:none; stroke: gray;stroke-width:1;"></rect>
<rect x="0" y="247.5" width="95%" height="5.0%" style="fill:none; stroke: gray;stroke-width:1;"></rect>
<rect x="0" y="270.0" width="95%" height="5.0%" style="fill:none; stroke: gray;stroke-width:1;"></rect>
<rect x="0" y="292.5" width="95%" height="5.0%" style="fill:none; stroke: gray;stroke-width:1;"></rect>
<rect x="0" y="315.0" width="95%" height="5.0%" style="fill:none; stroke: gray;stroke-width:1;"></rect>
<rect x="0" y="337.5" width="95%" height="5.0%" style="fill:none; stroke: gray;stroke-width:1;"></rect>
<rect x="0" y="360.0" width="95%" height="5.0%" style="fill:none; stroke: gray;stroke-width:1;"></rect>
<rect x="0" y="382.5" width="95%" height="5.0%" style="fill:none; stroke: gray;stroke-width:1;"></rect>
<rect x="0" y="405.0" width="95%" height="5.0%" style="fill:none; stroke: gray;stroke-width:1;"></rect>
<rect x="0" y="225.0" width="95%" height="45.0%" style="fill: none; stroke: blue; stroke-width: 2;"></rect>
<rect x="0" y="0.0" width="95%" height="45.0%" style="fill:rgba(100, 100, 100, 0.3); stroke: none;"></rect>
<text x="455" y="267.5" style="text-anchor:start;transform:scale(1, -1);transform-origin:50% 50%;fill:blue;stroke:none;font-size:14px;">1 whole</text><line x1="450" y1="262.5" x2="427.5" y2="262.5" style="stroke:blue;stroke-width:2;stroke-linecap:round;transform-origin:50% 50%;transform:scale(1, -1);" /></svg>