<svg xmlns="http://www.w3.org/2000/svg" viewBox="0 0 450 450" width="95%" height="100%" preserveAspectRatio="xMidYMid" style="transform:scale(0.95, -0.95);">
<rect x="0" y="0.0" width="95%" height="9.0%" style="fill:none; stroke: gray;stroke-width:1;"></rect>
<rect x="0" y="40.5" width="95%" height="9.0%" style="fill:none; stroke: gray;stroke-width:1;"></rect>
<rect x="0" y="81.0" width="95%" height="9.0%" style="fill:none; stroke: gray;stroke-width:1;"></rect>
<rect x="0" y="121.5" width="95%" height="9.0%" style="fill:none; stroke: gray;stroke-width:1;"></rect>
<rect x="0" y="162.0" width="95%" height="9.0%" style="fill:none; stroke: gray;stroke-width:1;"></rect>
<rect x="0" y="0.0" width="95%" height="45.0%" style="fill: none; stroke: blue; stroke-width: 2;"></rect>
<rect x="0" y="225.0" width="95%" height="9.0%" style="fill:none; stroke: gray;stroke-width:1;"></rect>
<rect x="0" y="265.5" width="95%" height="9.0%" style="fill:none; stroke: gray;stroke-width:1;"></rect>
<rect x="0" y="306.0" width="95%" height="9.0%" style="fill:none; stroke: gray;stroke-width:1;"></rect>
<rect x="0" y="346.5" width="95%" height="9.0%" style="fill:none; stroke: gray;stroke-width:1;"></rect>
<rect x="0" y="387.0" width="95%" height="9.0%" style="fill:none; stroke: gray;stroke-width:1;"></rect>
<rect x="0" y="225.0" width="95%" height="45.0%" style="fill: none; stroke: blue; stroke-width: 2;"></rect>
<rect x="0" y="0.0" width="95%" height="45.0%" style="fill:rgba(100, 100, 100, 0.3); stroke: none;"></rect>
<text x="455" y="267.5" style="text-anchor:start;transform:scale(1, -1);transform-origin:50% 50%;fill:blue;stroke:none;font-size:14px;">1 whole</text><line x1="450" y1="262.5" x2="427.5" y2="262.5" style="stroke:blue;stroke-width:2;stroke-linecap:round;transform-origin:50% 50%;transform:scale(1, -1);" /></svg>