<svg xmlns="http://www.w3.org/2000/svg" viewBox="0 0 36 40.98"><defs><style>.cls-1{fill:#173042;}</style></defs><title>score_icon</title><g id="Layer_2" data-name="Layer 2"><g id="icons"><path class="cls-1" d="M34.08,34.69l-.1,0c0-.51,0-1.05,0-1.69,0-15.12-8-20-13.33-22H15C10,13,2,16.86,2,33c0,.64,0,1.19,0,1.69l-.1,0a2.26,2.26,0,0,0,.13,4.49l4.39.23A38.26,38.26,0,0,0,18,41a38.26,38.26,0,0,0,11.56-1.57L34,39.18a2.26,2.26,0,0,0,.13-4.49ZM17.28,23.25l2.6,1.34a3.59,3.59,0,0,1,1.91,3.81,3.47,3.47,0,0,1-2.26,2.75v.58a1.25,1.25,0,1,1-2.5,0v-.5a4.38,4.38,0,0,1-2.87-2.48,1.25,1.25,0,0,1,2.29-1,1.87,1.87,0,0,0,1.89,1.13l.13,0a1,1,0,0,0,.85-.86,1.11,1.11,0,0,0-.59-1.19l-2.6-1.34a3.58,3.58,0,0,1-1.89-3.88A3.48,3.48,0,0,1,17,18.76v-.53a1.25,1.25,0,0,1,2.5,0V19a4.36,4.36,0,0,1,2.31,2.28,1.25,1.25,0,0,1-2.29,1,1.88,1.88,0,0,0-1.89-1.12,1,1,0,0,0-1,.87A1.08,1.08,0,0,0,17.28,23.25Z"/><path class="cls-1" d="M22.25.22c-.87-.56-2.35,0-3.6,1.17a1.53,1.53,0,0,1-2.14,0C15.26.2,13.79-.31,12.91.22,10,2,13.92,8.12,14.28,8.47h6.6C21.24,8.12,25,2,22.25.22Z"/></g></g></svg>