<svg xmlns="http://www.w3.org/2000/svg" xmlns:xlink="http://www.w3.org/1999/xlink" viewBox="0 0 260.78 58.79"><defs><style>.cls-1{fill:url(#linear-gradient);}.cls-2{fill:url(#linear-gradient-2);}.cls-3{fill:url(#linear-gradient-3);}</style><linearGradient id="linear-gradient" x1="199.14" y1="29.37" x2="260.78" y2="29.37" gradientUnits="userSpaceOnUse"><stop offset="0.09" stop-color="#ff8a1c" stop-opacity="0.4"/><stop offset="0.59" stop-color="#ff8a1c" stop-opacity="0.4"/></linearGradient><linearGradient id="linear-gradient-2" x1="99.32" y1="29.42" x2="160.96" y2="29.42" xlink:href="#linear-gradient"/><linearGradient id="linear-gradient-3" x1="0" y1="29.42" x2="61.64" y2="29.42" xlink:href="#linear-gradient"/></defs><title>zero_stars</title><g id="Layer_2" data-name="Layer 2"><g id="objects"><path class="cls-1" d="M260.68,22.3C259.24,18,240.32,18,240.32,18S233.19,0,230,0s-10.34,18-10.34,18-18.58.43-20.36,4.26,14,15.42,14,15.42S208.44,56,211,58.4s19-8.52,19-8.52,15.12,10.85,19,8.52-2.24-20.68-2.24-20.68S262.12,26.57,260.68,22.3Zm-7.54,8.06c-3.56,3.22-7.36,6-7.4,6a1.66,1.66,0,0,0-.61,1.87s1.48,4.48,2.49,9.15c1.8,8.33.48,9.57.47,9.58a1.11,1.11,0,0,1-.55.09c-3.42,0-12-5.24-16.59-8.54a1.65,1.65,0,0,0-1-.31,1.68,1.68,0,0,0-.93.28c-5,3.32-14,8.59-16.89,8.59h0c-.76-1.81.46-10.28,2.74-18.94a1.67,1.67,0,0,0-.63-1.77c-7.39-5.44-13.76-11.49-13.42-13.41s9.59-3,18.87-3.25a1.66,1.66,0,0,0,1.51-1.05c2.89-7.32,7.16-16.9,8.79-16.9s5.9,9.58,8.79,16.9a1.66,1.66,0,0,0,1.55,1.05c.05,0,4.72,0,9.49.53,8.49.92,9.28,2.58,9.29,2.6S259.47,24.62,253.14,30.36Z"/><path class="cls-2" d="M160.87,22.35c-1.45-4.26-20.36-4.26-20.36-4.26s-7.13-18-10.35-18-10.34,18-10.34,18-18.58.43-20.36,4.26,14,15.41,14,15.41S108.62,56,111.19,58.44s19-8.52,19-8.52,15.12,10.86,19,8.52-2.24-20.68-2.24-20.68S162.3,26.61,160.87,22.35Zm-7.55,8c-3.56,3.23-7.36,6-7.4,6a1.67,1.67,0,0,0-.6,1.88c0,.05,1.48,4.48,2.48,9.15,1.8,8.33.49,9.57.47,9.58a1.35,1.35,0,0,1-.55.08c-3.42,0-12-5.23-16.58-8.53a1.65,1.65,0,0,0-1-.31,1.63,1.63,0,0,0-.92.28c-5,3.32-14,8.59-16.9,8.59h0c-.75-1.82.46-10.28,2.74-18.94a1.66,1.66,0,0,0-.62-1.77C107,31,100.66,24.93,101,23s9.6-3,18.87-3.25a1.66,1.66,0,0,0,1.51-1.06c2.9-7.31,7.17-16.89,8.79-16.89s5.9,9.58,8.79,16.89a1.68,1.68,0,0,0,1.56,1.06s4.72,0,9.48.53c8.5.92,9.29,2.58,9.29,2.6S159.65,24.67,153.32,30.4Z"/><path class="cls-3" d="M61.54,22.35c-1.44-4.26-20.36-4.26-20.36-4.26S34.05.05,30.84.05s-10.34,18-10.34,18S1.92,18.52.14,22.35s14,15.41,14,15.41S9.3,56,11.87,58.44s19-8.52,19-8.52,15.12,10.86,19,8.52-2.23-20.68-2.23-20.68S63,26.61,61.54,22.35ZM54,30.4c-3.56,3.23-7.36,6-7.4,6A1.68,1.68,0,0,0,46,38.29c0,.05,1.48,4.48,2.49,9.15C50.28,55.77,49,57,49,57a1.42,1.42,0,0,1-.55.08c-3.42,0-12-5.23-16.59-8.53a1.65,1.65,0,0,0-1-.31,1.68,1.68,0,0,0-.93.28c-5,3.32-14,8.59-16.89,8.59h0c-.76-1.82.46-10.28,2.74-18.94a1.67,1.67,0,0,0-.63-1.77C7.7,31,1.33,24.93,1.67,23s9.59-3,18.87-3.25a1.67,1.67,0,0,0,1.51-1.06c2.89-7.31,7.16-16.89,8.79-16.89s5.9,9.58,8.79,16.89a1.67,1.67,0,0,0,1.55,1.06s4.72,0,9.49.53c8.49.92,9.28,2.58,9.29,2.6S60.33,24.67,54,30.4Z"/></g></g></svg>