<svg id="Layer_1" data-name="Layer 1" xmlns="http://www.w3.org/2000/svg" xmlns:xlink="http://www.w3.org/1999/xlink" viewBox="0 0 540 288"><defs><style>.cls-1{opacity:0.1;}.cls-2{fill:url(#linear-gradient);}.cls-3{fill:url(#linear-gradient-2);}.cls-4{fill:url(#linear-gradient-3);}.cls-5{fill:url(#linear-gradient-4);}.cls-6{fill:url(#linear-gradient-5);}.cls-7{fill:url(#linear-gradient-6);}.cls-8{fill:url(#linear-gradient-7);}.cls-9{fill:url(#linear-gradient-8);}.cls-10{fill:url(#linear-gradient-9);}.cls-11{fill:url(#linear-gradient-10);}.cls-12{fill:url(#linear-gradient-11);}.cls-13{fill:url(#linear-gradient-12);}.cls-14{fill:url(#linear-gradient-13);}.cls-15{fill:url(#linear-gradient-14);}.cls-16{fill:url(#linear-gradient-15);}.cls-17{fill:url(#linear-gradient-16);}.cls-18{fill:url(#linear-gradient-17);}.cls-19{fill:url(#linear-gradient-18);}.cls-20{fill:url(#linear-gradient-19);}.cls-21{fill:url(#linear-gradient-20);}.cls-22{fill:url(#linear-gradient-21);}.cls-23{fill:url(#linear-gradient-22);}.cls-24{fill:url(#linear-gradient-23);}.cls-25{fill:url(#linear-gradient-24);}.cls-26{fill:url(#linear-gradient-25);}.cls-27{fill:url(#linear-gradient-26);}.cls-28{fill:url(#linear-gradient-27);}.cls-29{fill:url(#linear-gradient-28);}.cls-30{fill:url(#linear-gradient-29);}.cls-31{fill:url(#linear-gradient-30);}.cls-32{fill:url(#linear-gradient-31);}.cls-33{fill:url(#linear-gradient-32);}.cls-34{fill:url(#linear-gradient-33);}.cls-35{fill:url(#linear-gradient-34);}.cls-36{fill:url(#linear-gradient-35);}.cls-37{fill:url(#linear-gradient-36);}.cls-38{fill:url(#linear-gradient-37);}.cls-39{fill:url(#linear-gradient-38);}.cls-40{fill:url(#linear-gradient-39);}.cls-41{fill:url(#linear-gradient-40);}.cls-42{fill:url(#linear-gradient-41);}.cls-43{fill:url(#linear-gradient-42);}.cls-44{fill:url(#linear-gradient-43);}.cls-45{fill:url(#linear-gradient-44);}.cls-46{fill:url(#linear-gradient-45);}.cls-47{fill:url(#linear-gradient-46);}.cls-48{fill:url(#linear-gradient-47);}.cls-49{fill:url(#linear-gradient-48);}.cls-50{fill:url(#linear-gradient-49);}.cls-51{fill:url(#linear-gradient-50);}.cls-52{fill:url(#linear-gradient-51);}.cls-53{fill:url(#linear-gradient-52);}.cls-54{fill:url(#linear-gradient-53);}.cls-55{fill:url(#linear-gradient-54);}.cls-56{fill:url(#linear-gradient-55);}.cls-57{fill:url(#linear-gradient-56);}.cls-58{fill:url(#linear-gradient-57);}.cls-59{fill:url(#linear-gradient-58);}.cls-60{fill:url(#linear-gradient-59);}.cls-61{fill:url(#linear-gradient-60);}.cls-62{fill:url(#linear-gradient-61);}.cls-63{fill:url(#linear-gradient-62);}.cls-64{fill:url(#linear-gradient-63);}.cls-65{fill:url(#linear-gradient-64);}.cls-66{fill:url(#linear-gradient-65);}.cls-67{fill:url(#linear-gradient-66);}.cls-68{fill:url(#linear-gradient-67);}.cls-69{fill:url(#linear-gradient-68);}.cls-70{fill:url(#linear-gradient-69);}.cls-71{fill:url(#linear-gradient-70);}.cls-72{fill:url(#linear-gradient-71);}.cls-73{fill:url(#linear-gradient-72);}.cls-74{fill:url(#linear-gradient-73);}.cls-75{fill:url(#linear-gradient-74);}.cls-76{fill:url(#linear-gradient-75);}.cls-77{fill:url(#linear-gradient-76);}.cls-78{fill:url(#linear-gradient-77);}.cls-79{fill:url(#linear-gradient-78);}.cls-80{fill:url(#linear-gradient-79);}.cls-81{fill:url(#linear-gradient-80);}.cls-82{fill:url(#linear-gradient-81);}.cls-83{fill:url(#linear-gradient-82);}.cls-84{fill:url(#linear-gradient-83);}.cls-85{fill:url(#linear-gradient-84);}.cls-86{fill:url(#linear-gradient-85);}.cls-87{fill:url(#linear-gradient-86);}.cls-88{fill:url(#linear-gradient-87);}.cls-89{fill:url(#linear-gradient-88);}.cls-90{fill:url(#linear-gradient-89);}.cls-91{fill:url(#linear-gradient-90);}.cls-92{fill:url(#linear-gradient-91);}.cls-93{fill:url(#linear-gradient-92);}.cls-94{fill:url(#linear-gradient-93);}.cls-95{fill:url(#linear-gradient-94);}.cls-96{fill:url(#linear-gradient-95);}.cls-97{fill:url(#linear-gradient-96);}.cls-98{fill:url(#linear-gradient-97);}.cls-99{fill:url(#linear-gradient-98);}.cls-100{fill:url(#linear-gradient-99);}.cls-101{fill:url(#linear-gradient-100);}.cls-102{fill:url(#linear-gradient-101);}.cls-103{fill:url(#linear-gradient-102);}.cls-104{fill:url(#linear-gradient-103);}.cls-105{fill:url(#linear-gradient-104);}.cls-106{fill:url(#linear-gradient-105);}.cls-107{fill:url(#linear-gradient-106);}.cls-108{fill:url(#linear-gradient-107);}.cls-109{fill:url(#linear-gradient-108);}.cls-110{fill:url(#linear-gradient-109);}.cls-111{fill:url(#linear-gradient-110);}.cls-112{fill:url(#linear-gradient-111);}.cls-113{fill:url(#linear-gradient-112);}.cls-114{fill:url(#linear-gradient-113);}.cls-115{fill:url(#linear-gradient-114);}.cls-116{fill:url(#linear-gradient-115);}.cls-117{fill:url(#linear-gradient-116);}.cls-118{fill:url(#linear-gradient-117);}.cls-119{fill:url(#linear-gradient-118);}.cls-120{fill:url(#linear-gradient-119);}.cls-121{fill:url(#linear-gradient-120);}.cls-122{fill:url(#linear-gradient-121);}.cls-123{fill:url(#linear-gradient-122);}.cls-124{fill:url(#linear-gradient-123);}</style><linearGradient id="linear-gradient" x1="-13.46" y1="16.56" x2="49.41" y2="154.72" gradientTransform="matrix(1, 0, 0, -1, 0, 290)" gradientUnits="userSpaceOnUse"><stop offset="0" stop-color="#0096ff"/><stop offset="0.63" stop-color="#36c2ff"/><stop offset="1" stop-color="#50d7ff"/></linearGradient><linearGradient id="linear-gradient-2" x1="41.91" y1="-8.64" x2="104.78" y2="129.52" xlink:href="#linear-gradient"/><linearGradient id="linear-gradient-3" x1="62.79" y1="-18.14" x2="125.66" y2="120.02" xlink:href="#linear-gradient"/><linearGradient id="linear-gradient-4" x1="12.43" y1="4.78" x2="75.3" y2="142.93" xlink:href="#linear-gradient"/><linearGradient id="linear-gradient-5" x1="39.68" y1="-7.63" x2="102.55" y2="130.53" xlink:href="#linear-gradient"/><linearGradient id="linear-gradient-6" x1="32.99" y1="-4.58" x2="95.86" y2="133.58" xlink:href="#linear-gradient"/><linearGradient id="linear-gradient-7" x1="212.7" y1="-86.37" x2="275.57" y2="51.79" xlink:href="#linear-gradient"/><linearGradient id="linear-gradient-8" x1="103.89" y1="-36.84" x2="166.76" y2="101.32" gradientTransform="matrix(1, 0, 0, -1, 0, 290)" gradientUnits="userSpaceOnUse"><stop offset="0" stop-color="#669"/><stop offset="0.08" stop-color="#6f5d9e"/><stop offset="0.71" stop-color="#b31ac5"/><stop offset="1" stop-color="#cd00d4"/></linearGradient><linearGradient id="linear-gradient-9" x1="25.89" y1="-1.35" x2="88.77" y2="136.81" xlink:href="#linear-gradient"/><linearGradient id="linear-gradient-10" x1="94.17" y1="-32.42" x2="157.05" y2="105.73" xlink:href="#linear-gradient"/><linearGradient id="linear-gradient-11" x1="84.27" y1="-27.92" x2="147.15" y2="110.24" xlink:href="#linear-gradient"/><linearGradient id="linear-gradient-12" x1="-18.46" y1="18.83" x2="44.41" y2="156.99" gradientTransform="matrix(1, 0, 0, -1, 0, 290)" gradientUnits="userSpaceOnUse"><stop offset="0" stop-color="#c9c"/><stop offset="1" stop-color="#c9c"/></linearGradient><linearGradient id="linear-gradient-13" x1="26.51" y1="-1.63" x2="89.38" y2="136.53" xlink:href="#linear-gradient"/><linearGradient id="linear-gradient-14" x1="38.24" y1="-6.97" x2="101.11" y2="131.19" xlink:href="#linear-gradient"/><linearGradient id="linear-gradient-15" x1="105.43" y1="-37.55" x2="168.3" y2="100.61" xlink:href="#linear-gradient"/><linearGradient id="linear-gradient-16" x1="71.68" y1="-22.19" x2="134.55" y2="115.97" gradientTransform="matrix(1, 0, 0, -1, 0, 290)" gradientUnits="userSpaceOnUse"><stop offset="0" stop-color="#3c3"/><stop offset="0.33" stop-color="#30de68"/><stop offset="0.79" stop-color="#2cf6ac"/><stop offset="1" stop-color="#2affc6"/></linearGradient><linearGradient id="linear-gradient-17" x1="165.95" y1="-65.09" x2="228.82" y2="73.07" xlink:href="#linear-gradient"/><linearGradient id="linear-gradient-18" x1="-3.21" y1="11.9" x2="59.66" y2="150.05" xlink:href="#linear-gradient"/><linearGradient id="linear-gradient-19" x1="12.01" y1="4.97" x2="74.88" y2="143.13" xlink:href="#linear-gradient"/><linearGradient id="linear-gradient-20" x1="-35.65" y1="26.66" x2="27.22" y2="164.81" xlink:href="#linear-gradient"/><linearGradient id="linear-gradient-21" x1="50.49" y1="-12.55" x2="113.37" y2="125.61" xlink:href="#linear-gradient"/><linearGradient id="linear-gradient-22" x1="181.5" y1="-72.16" x2="244.37" y2="66" xlink:href="#linear-gradient"/><linearGradient id="linear-gradient-23" x1="86.13" y1="-28.77" x2="149.01" y2="109.39" xlink:href="#linear-gradient"/><linearGradient id="linear-gradient-24" x1="106.8" y1="-38.17" x2="169.68" y2="100" xlink:href="#linear-gradient"/><linearGradient id="linear-gradient-25" x1="5.32" y1="8.01" x2="68.2" y2="146.16" xlink:href="#linear-gradient"/><linearGradient id="linear-gradient-26" x1="96.17" y1="-33.33" x2="159.04" y2="104.83" xlink:href="#linear-gradient"/><linearGradient id="linear-gradient-27" x1="56.77" y1="-15.4" x2="119.64" y2="122.76" xlink:href="#linear-gradient"/><linearGradient id="linear-gradient-28" x1="34.83" y1="-5.41" x2="97.7" y2="132.74" xlink:href="#linear-gradient"/><linearGradient id="linear-gradient-29" x1="51.1" y1="-12.82" x2="113.97" y2="125.34" xlink:href="#linear-gradient"/><linearGradient id="linear-gradient-30" x1="3.16" y1="8.99" x2="66.03" y2="147.15" xlink:href="#linear-gradient-8"/><linearGradient id="linear-gradient-31" x1="66.52" y1="-19.84" x2="129.39" y2="118.31" xlink:href="#linear-gradient"/><linearGradient id="linear-gradient-32" x1="-3.41" y1="11.99" x2="59.46" y2="150.14" xlink:href="#linear-gradient"/><linearGradient id="linear-gradient-33" x1="163.69" y1="-64.07" x2="226.57" y2="74.09" xlink:href="#linear-gradient"/><linearGradient id="linear-gradient-34" x1="137.19" y1="-52.01" x2="200.07" y2="86.15" xlink:href="#linear-gradient"/><linearGradient id="linear-gradient-35" x1="-19.45" y1="19.29" x2="43.42" y2="157.44" xlink:href="#linear-gradient"/><linearGradient id="linear-gradient-36" x1="72.6" y1="-22.6" x2="135.47" y2="115.56" xlink:href="#linear-gradient-8"/><linearGradient id="linear-gradient-37" x1="114.52" y1="-41.68" x2="177.39" y2="96.48" xlink:href="#linear-gradient"/><linearGradient id="linear-gradient-38" x1="157.02" y1="-61.03" x2="219.9" y2="77.13" xlink:href="#linear-gradient"/><linearGradient id="linear-gradient-39" x1="261.85" y1="-108.73" x2="324.72" y2="29.42" xlink:href="#linear-gradient"/><linearGradient id="linear-gradient-40" x1="94.52" y1="-32.58" x2="157.39" y2="105.58" xlink:href="#linear-gradient"/><linearGradient id="linear-gradient-41" x1="69.76" y1="-21.31" x2="132.63" y2="116.84" xlink:href="#linear-gradient"/><linearGradient id="linear-gradient-42" x1="284.56" y1="-119.06" x2="347.43" y2="19.09" xlink:href="#linear-gradient"/><linearGradient id="linear-gradient-43" x1="192.93" y1="-77.37" x2="255.81" y2="60.79" xlink:href="#linear-gradient"/><linearGradient id="linear-gradient-44" x1="142.83" y1="-54.57" x2="205.7" y2="83.59" xlink:href="#linear-gradient"/><linearGradient id="linear-gradient-45" x1="258.48" y1="-107.19" x2="321.35" y2="30.96" xlink:href="#linear-gradient"/><linearGradient id="linear-gradient-46" x1="2.31" y1="9.38" x2="65.18" y2="147.54" xlink:href="#linear-gradient"/><linearGradient id="linear-gradient-47" x1="22.1" y1="0.37" x2="84.98" y2="138.54" xlink:href="#linear-gradient"/><linearGradient id="linear-gradient-48" x1="16.41" y1="2.97" x2="79.28" y2="141.12" xlink:href="#linear-gradient"/><linearGradient id="linear-gradient-49" x1="134.77" y1="-50.89" x2="197.64" y2="87.26" xlink:href="#linear-gradient"/><linearGradient id="linear-gradient-50" x1="-13.21" y1="16.45" x2="49.66" y2="154.6" xlink:href="#linear-gradient"/><linearGradient id="linear-gradient-51" x1="225.28" y1="-92.09" x2="288.15" y2="46.07" xlink:href="#linear-gradient"/><linearGradient id="linear-gradient-52" x1="12.3" y1="4.83" x2="75.17" y2="142.99" xlink:href="#linear-gradient"/><linearGradient id="linear-gradient-53" x1="123.42" y1="-45.74" x2="186.29" y2="92.42" xlink:href="#linear-gradient"/><linearGradient id="linear-gradient-54" x1="56.4" y1="-15.24" x2="119.27" y2="122.93" xlink:href="#linear-gradient"/><linearGradient id="linear-gradient-55" x1="83.83" y1="-27.72" x2="146.7" y2="110.44" xlink:href="#linear-gradient"/><linearGradient id="linear-gradient-56" x1="-29.71" y1="23.95" x2="33.17" y2="162.11" xlink:href="#linear-gradient"/><linearGradient id="linear-gradient-57" x1="398.43" y1="321.66" x2="323.48" y2="192.47" xlink:href="#linear-gradient"/><linearGradient id="linear-gradient-58" x1="475.99" y1="276.66" x2="401.04" y2="147.47" xlink:href="#linear-gradient"/><linearGradient id="linear-gradient-59" x1="502.97" y1="261.01" x2="428.02" y2="131.82" xlink:href="#linear-gradient"/><linearGradient id="linear-gradient-60" x1="468.06" y1="281.27" x2="393.11" y2="152.08" xlink:href="#linear-gradient"/><linearGradient id="linear-gradient-61" x1="274.72" y1="393.43" x2="199.77" y2="264.24" xlink:href="#linear-gradient"/><linearGradient id="linear-gradient-62" x1="397.15" y1="322.4" x2="322.2" y2="193.21" xlink:href="#linear-gradient-12"/><linearGradient id="linear-gradient-63" x1="382.91" y1="330.66" x2="307.96" y2="201.47" xlink:href="#linear-gradient"/><linearGradient id="linear-gradient-64" x1="230.57" y1="419.05" x2="155.62" y2="289.86" xlink:href="#linear-gradient"/><linearGradient id="linear-gradient-65" x1="412.51" y1="313.49" x2="337.56" y2="184.3" xlink:href="#linear-gradient"/><linearGradient id="linear-gradient-66" x1="352.55" y1="348.28" x2="277.6" y2="219.09" xlink:href="#linear-gradient-8"/><linearGradient id="linear-gradient-67" x1="522.52" y1="249.67" x2="447.57" y2="120.48" xlink:href="#linear-gradient"/><linearGradient id="linear-gradient-68" x1="548.32" y1="234.7" x2="473.37" y2="105.51" xlink:href="#linear-gradient"/><linearGradient id="linear-gradient-69" x1="494.76" y1="265.78" x2="419.8" y2="136.59" xlink:href="#linear-gradient"/><linearGradient id="linear-gradient-70" x1="464.13" y1="283.54" x2="389.18" y2="154.35" xlink:href="#linear-gradient"/><linearGradient id="linear-gradient-71" x1="559.62" y1="228.15" x2="484.67" y2="98.96" xlink:href="#linear-gradient"/><linearGradient id="linear-gradient-72" x1="502.39" y1="261.35" x2="427.44" y2="132.16" xlink:href="#linear-gradient-16"/><linearGradient id="linear-gradient-73" x1="539.77" y1="239.66" x2="464.82" y2="110.47" xlink:href="#linear-gradient"/><linearGradient id="linear-gradient-74" x1="481.66" y1="273.38" x2="406.7" y2="144.19" xlink:href="#linear-gradient"/><linearGradient id="linear-gradient-75" x1="435.03" y1="300.43" x2="360.08" y2="171.24" xlink:href="#linear-gradient"/><linearGradient id="linear-gradient-76" x1="540.29" y1="239.36" x2="465.34" y2="110.17" xlink:href="#linear-gradient"/><linearGradient id="linear-gradient-77" x1="527.33" y1="246.88" x2="452.38" y2="117.69" xlink:href="#linear-gradient"/><linearGradient id="linear-gradient-78" x1="558.32" y1="228.9" x2="483.37" y2="99.71" xlink:href="#linear-gradient"/><linearGradient id="linear-gradient-79" x1="296.89" y1="380.57" x2="221.94" y2="251.38" xlink:href="#linear-gradient"/><linearGradient id="linear-gradient-80" x1="274.26" y1="393.7" x2="199.31" y2="264.51" xlink:href="#linear-gradient"/><linearGradient id="linear-gradient-81" x1="493.14" y1="266.72" x2="418.19" y2="137.53" xlink:href="#linear-gradient-12"/><linearGradient id="linear-gradient-82" x1="178.49" y1="449.26" x2="103.54" y2="320.07" xlink:href="#linear-gradient"/><linearGradient id="linear-gradient-83" x1="451.86" y1="290.67" x2="376.91" y2="161.48" xlink:href="#linear-gradient"/><linearGradient id="linear-gradient-84" x1="518.07" y1="252.26" x2="443.12" y2="123.06" xlink:href="#linear-gradient"/><linearGradient id="linear-gradient-85" x1="381.25" y1="331.63" x2="306.3" y2="202.44" xlink:href="#linear-gradient"/><linearGradient id="linear-gradient-86" x1="516.39" y1="253.22" x2="441.44" y2="124.03" xlink:href="#linear-gradient"/><linearGradient id="linear-gradient-87" x1="299.67" y1="378.96" x2="224.72" y2="249.76" xlink:href="#linear-gradient"/><linearGradient id="linear-gradient-88" x1="430.86" y1="302.85" x2="355.91" y2="173.65" xlink:href="#linear-gradient-16"/><linearGradient id="linear-gradient-89" x1="504.43" y1="260.16" x2="429.48" y2="130.97" xlink:href="#linear-gradient"/><linearGradient id="linear-gradient-90" x1="317.61" y1="368.55" x2="242.66" y2="239.36" xlink:href="#linear-gradient"/><linearGradient id="linear-gradient-91" x1="530.71" y1="244.92" x2="455.76" y2="115.73" xlink:href="#linear-gradient-16"/><linearGradient id="linear-gradient-92" x1="244.43" y1="411.01" x2="169.47" y2="281.82" xlink:href="#linear-gradient-16"/><linearGradient id="linear-gradient-93" x1="374.78" y1="335.38" x2="299.83" y2="206.19" xlink:href="#linear-gradient"/><linearGradient id="linear-gradient-94" x1="453.02" y1="289.99" x2="378.07" y2="160.8" xlink:href="#linear-gradient"/><linearGradient id="linear-gradient-95" x1="397.84" y1="322" x2="322.89" y2="192.81" xlink:href="#linear-gradient"/><linearGradient id="linear-gradient-96" x1="414.31" y1="312.45" x2="339.36" y2="183.26" xlink:href="#linear-gradient"/><linearGradient id="linear-gradient-97" x1="333.74" y1="359.19" x2="258.79" y2="230" xlink:href="#linear-gradient"/><linearGradient id="linear-gradient-98" x1="469.42" y1="280.48" x2="394.47" y2="151.29" xlink:href="#linear-gradient"/><linearGradient id="linear-gradient-99" x1="477.9" y1="275.56" x2="402.95" y2="146.37" xlink:href="#linear-gradient-8"/><linearGradient id="linear-gradient-100" x1="427.15" y1="305" x2="352.2" y2="175.81" xlink:href="#linear-gradient-12"/><linearGradient id="linear-gradient-101" x1="343.88" y1="353.31" x2="268.93" y2="224.12" xlink:href="#linear-gradient"/><linearGradient id="linear-gradient-102" x1="432.03" y1="302.18" x2="357.08" y2="172.98" xlink:href="#linear-gradient"/><linearGradient id="linear-gradient-103" x1="494.62" y1="265.86" x2="419.67" y2="136.66" xlink:href="#linear-gradient"/><linearGradient id="linear-gradient-104" x1="522.91" y1="249.44" x2="447.96" y2="120.25" xlink:href="#linear-gradient"/><linearGradient id="linear-gradient-105" x1="417.8" y1="310.42" x2="342.85" y2="181.23" xlink:href="#linear-gradient"/><linearGradient id="linear-gradient-106" x1="471.11" y1="279.5" x2="396.16" y2="150.31" xlink:href="#linear-gradient"/><linearGradient id="linear-gradient-107" x1="502.32" y1="261.38" x2="427.38" y2="132.2" xlink:href="#linear-gradient"/><linearGradient id="linear-gradient-108" x1="298.21" y1="379.81" x2="223.25" y2="250.62" xlink:href="#linear-gradient"/><linearGradient id="linear-gradient-109" x1="485.65" y1="271.06" x2="410.7" y2="141.86" xlink:href="#linear-gradient"/><linearGradient id="linear-gradient-110" x1="538.25" y1="240.54" x2="463.3" y2="111.35" xlink:href="#linear-gradient"/><linearGradient id="linear-gradient-111" x1="366.47" y1="340.2" x2="291.52" y2="211.01" xlink:href="#linear-gradient"/><linearGradient id="linear-gradient-112" x1="490.42" y1="268.29" x2="415.47" y2="139.1" xlink:href="#linear-gradient"/><linearGradient id="linear-gradient-113" x1="208.07" y1="432.1" x2="133.12" y2="302.91" xlink:href="#linear-gradient"/><linearGradient id="linear-gradient-114" x1="353" y1="348.01" x2="278.05" y2="218.83" xlink:href="#linear-gradient"/><linearGradient id="linear-gradient-115" x1="454.88" y1="288.91" x2="379.93" y2="159.72" xlink:href="#linear-gradient"/><linearGradient id="linear-gradient-116" x1="565.74" y1="224.59" x2="490.79" y2="95.41" xlink:href="#linear-gradient"/><linearGradient id="linear-gradient-117" x1="520.42" y1="250.89" x2="445.47" y2="121.7" xlink:href="#linear-gradient"/><linearGradient id="linear-gradient-118" x1="447.53" y1="293.17" x2="372.58" y2="163.98" xlink:href="#linear-gradient"/><linearGradient id="linear-gradient-119" x1="511.88" y1="255.85" x2="436.93" y2="126.66" xlink:href="#linear-gradient"/><linearGradient id="linear-gradient-120" x1="545.26" y1="236.48" x2="470.3" y2="107.29" xlink:href="#linear-gradient"/><linearGradient id="linear-gradient-121" x1="366.66" y1="340.09" x2="291.71" y2="210.9" xlink:href="#linear-gradient"/><linearGradient id="linear-gradient-122" x1="494.31" y1="266.04" x2="419.36" y2="136.84" xlink:href="#linear-gradient"/><linearGradient id="linear-gradient-123" x1="446.07" y1="294.03" x2="371.12" y2="164.84" xlink:href="#linear-gradient"/></defs><title>bgrnd</title><g class="cls-1"><polygon class="cls-2" points="30.26 178.1 27.09 178.1 25.51 180.84 27.09 183.59 30.26 183.59 31.85 180.84 30.26 178.1"/><polygon class="cls-3" points="97 178.36 93.66 178.36 91.99 181.25 93.66 184.15 97 184.15 98.67 181.25 97 178.36"/><polygon class="cls-4" points="107.75 213.99 87.77 213.99 77.77 231.3 87.77 248.61 107.75 248.61 117.74 231.3 107.75 213.99"/><polygon class="cls-5" points="29.81 252.78 5.09 252.78 -7.27 274.19 5.09 295.59 29.81 295.59 42.17 274.19 29.81 252.78"/><polygon class="cls-6" points="88.79 191.28 82.03 191.28 78.65 197.13 82.03 202.99 88.79 202.99 92.17 197.13 88.79 191.28"/><polygon class="cls-7" points="46.91 266.59 35.7 266.59 30.09 276.3 35.7 286.01 46.91 286.01 52.52 276.3 46.91 266.59"/><polygon class="cls-8" points="264.96 262.26 261.88 262.26 260.33 264.93 261.88 267.59 264.96 267.59 266.5 264.93 264.96 262.26"/><polygon class="cls-9" points="165.17 193 161.6 193 159.82 196.09 161.6 199.18 165.17 199.18 166.95 196.09 165.17 193"/><polygon class="cls-10" points="50.78 237.71 46.29 237.71 44.05 241.59 46.29 245.48 50.78 245.48 53.02 241.59 50.78 237.71"/><polygon class="cls-11" points="139.63 224.16 132.64 224.16 129.14 230.22 132.64 236.28 139.63 236.28 143.13 230.22 139.63 224.16"/><polygon class="cls-12" points="104.28 275.84 96.2 275.84 92.16 282.84 96.2 289.83 104.28 289.83 108.31 282.84 104.28 275.84"/><polygon class="cls-13" points="31.16 168 5.94 168 -6.67 189.84 5.94 211.68 31.16 211.68 43.77 189.84 31.16 168"/><polygon class="cls-14" points="78.41 178.43 74.75 178.43 72.93 181.59 74.75 184.76 78.41 184.76 80.24 181.59 78.41 178.43"/><polygon class="cls-15" points="78.35 213.94 56.38 213.94 45.4 232.96 56.38 251.99 78.35 251.99 89.33 232.96 78.35 213.94"/><polygon class="cls-16" points="139.82 252.93 135.7 252.93 133.63 256.5 135.7 260.08 139.82 260.08 141.89 256.5 139.82 252.93"/><polygon class="cls-17" points="104.04 246.45 80.91 246.45 69.35 266.48 80.91 286.51 104.04 286.51 115.61 266.48 104.04 246.45"/><polygon class="cls-18" points="200.62 279.69 197.25 279.69 195.56 282.61 197.25 285.53 200.62 285.53 202.3 282.61 200.62 279.69"/><polygon class="cls-19" points="10.38 249.64 4.36 249.64 1.35 254.85 4.36 260.06 10.38 260.06 13.39 254.85 10.38 249.64"/><polygon class="cls-20" points="43.75 217.19 35.58 217.19 31.49 224.26 35.58 231.33 43.75 231.33 47.83 224.26 43.75 217.19"/><polygon class="cls-21" points="6.44 173.26 -3.9 173.26 -9.07 182.22 -3.9 191.18 6.44 191.18 11.61 182.22 6.44 173.26"/><polygon class="cls-22" points="65.11 271.75 59.42 271.75 56.58 276.67 59.42 281.59 65.11 281.59 67.95 276.67 65.11 271.75"/><path class="cls-23" d="M233.36,249.44l2.57,4.46-2.57,4.46h-5.15l-2.57-4.46,2.57-4.46h5.15m.19-.34H228l-2.77,4.8,2.77,4.79h5.53l2.77-4.79-2.77-4.8Z"/><path class="cls-24" d="M121.18,243.34l3.24,5.6-3.24,5.6h-6.47l-3.23-5.6,3.23-5.6h6.47m.24-.42h-7l-3.48,6,3.48,6h7l3.48-6Z"/><path class="cls-25" d="M130.44,278.59l5.06,8.77-5.06,8.78H120.31l-5.07-8.78,5.07-8.77h10.13m.38-.66H119.93l-5.45,9.43,5.45,9.44h10.89l5.44-9.44Z"/><path class="cls-26" d="M46.38,193,49,197.57l-2.63,4.56H41.12l-2.63-4.56L41.12,193h5.26m.2-.35H40.93l-2.83,4.9,2.83,4.9h5.65l2.83-4.9Z"/><path class="cls-27" d="M122.43,266.67l2.27,3.94-2.27,3.93h-4.54l-2.27-3.93,2.27-3.94h4.54m.17-.29h-4.88l-2.44,4.23,2.44,4.22h4.88l2.45-4.22Z"/><path class="cls-28" d="M113.68,181.13l1.55,2.68-1.55,2.69h-3.11L109,183.81l1.55-2.68h3.11m.11-.2h-3.33l-1.67,2.88,1.67,2.89h3.33l1.67-2.89Z"/><path class="cls-29" d="M62.07,240.56,72.74,259,62.07,277.51H40.74L30.07,259l10.67-18.47H62.07m.8-1.39H39.94L28.47,259l11.47,19.9H62.87L74.34,259,62.87,239.17Z"/><path class="cls-30" d="M73.83,253.57,75.26,256l-1.43,2.47H71L69.57,256,71,253.57h2.84m.11-.18H70.88L69.35,256l1.53,2.65h3.06L75.47,256l-1.53-2.64Z"/><path class="cls-31" d="M34,218.8l12.06,20.88L34,260.57H9.91L-2.15,239.68,9.91,218.8H34m.91-1.57H9L-4,239.68,9,262.14H34.94l13-22.46-13-22.45Z"/><path class="cls-32" d="M78.08,285.11l1.38,2.4-1.38,2.41H75.31l-1.39-2.41,1.39-2.4h2.77m.1-.18h-3l-1.49,2.58,1.49,2.59h3l1.49-2.59Z"/><path class="cls-33" d="M27.61,210.66l1.63,2.82-1.63,2.82H24.35l-1.63-2.82,1.63-2.82h3.26m.12-.22h-3.5l-1.75,3,1.75,3h3.5l1.75-3Z"/><path class="cls-34" d="M216.41,239.06l1.72,3-1.72,3H213l-1.72-3,1.72-3h3.45m.12-.22h-3.7L211,242l1.84,3.21h3.7l1.85-3.21-1.85-3.2Z"/><path class="cls-35" d="M165.43,281.37l3,5.18-3,5.18h-6l-3-5.18,3-5.18h6m.23-.39h-6.43L156,286.55l3.22,5.57h6.43l3.21-5.57-3.2-5.55Z"/><path class="cls-36" d="M.26,228.91l3.26,5.63L.26,240.18H-6.25l-3.25-5.64,3.25-5.63H.26m.25-.43h-7l-3.5,6.06,3.5,6.07h7L4,234.54.5,228.48Z"/><path class="cls-37" d="M128.37,193.32l7.06,12.24-7.06,12.23H114.24l-7.06-12.23,7.06-12.24h14.13m.53-.91H113.71l-7.59,13.15,7.59,13.15H128.9l7.59-13.15Z"/><path class="cls-38" d="M158.66,235.4l1.59,2.76-1.59,2.76h-3.19l-1.59-2.76,1.59-2.76h3.19m.12-.21h-3.43l-1.71,3,1.71,3h3.43l1.71-3Z"/><path class="cls-39" d="M201.16,254.92l1.85,3.21-1.85,3.2h-3.7l-1.85-3.2,1.85-3.21h3.7m.14-.24h-4l-2,3.45,2,3.44h4l2-3.44-2-3.45Z"/><path class="cls-40" d="M319.86,271.94l1.52,2.63-1.52,2.63h-3l-1.52-2.63,1.52-2.63h3m.11-.2H316.7l-1.63,2.83,1.63,2.83H320l1.64-2.83L320,271.74Z"/><circle class="cls-41" cx="160.23" cy="178.19" r="0.33"/><path class="cls-42" d="M130.92,179.06a1,1,0,1,1-1-.95h.1A1,1,0,0,1,130.92,179.06Z"/><path class="cls-43" d="M346.05,274.75a.38.38,0,0,1-.37.37.39.39,0,0,1-.37-.37.38.38,0,0,1,.37-.37.36.36,0,0,1,.37.35Z"/><path class="cls-44" d="M250.87,244.8a2.16,2.16,0,1,1-2.16-2.16,2.16,2.16,0,0,1,2.16,2.16Z"/><circle class="cls-45" cx="190.44" cy="239.95" r="0.53"/><path class="cls-46" d="M308.51,287.94a.31.31,0,1,1-.31-.31h0A.31.31,0,0,1,308.51,287.94Z"/><path class="cls-47" d="M3.32,282.4a1.83,1.83,0,1,1-1.84-1.82h0A1.84,1.84,0,0,1,3.32,282.4Z"/><path class="cls-48" d="M57.1,213.36a.29.29,0,1,1-.29-.29.29.29,0,0,1,.29.29Z"/><path class="cls-49" d="M31.77,257.07a1.7,1.7,0,1,1,0-.06Z"/><circle class="cls-50" cx="188.49" cy="222.85" r="0.76"/><circle class="cls-51" cx="9.96" cy="222.64" r="0.66"/><path class="cls-52" d="M290.06,242.33a1.18,1.18,0,1,1-1.18-1.19,1.18,1.18,0,0,1,1.18,1.19Z"/><path class="cls-53" d="M59.1,185a1.22,1.22,0,1,1-1.22-1.22A1.24,1.24,0,0,1,59.1,185Z"/><circle class="cls-54" cx="157.84" cy="260.1" r="0.31"/><path class="cls-55" d="M97.59,215.54a.38.38,0,1,1-.31-.31A.37.37,0,0,1,97.59,215.54Z"/><circle class="cls-56" cx="142.88" cy="187.96" r="1.74"/><path class="cls-57" d="M.37,204.07A1.9,1.9,0,0,1-1.48,206h0a1.9,1.9,0,0,1-1.9-1.89,1.9,1.9,0,0,1,1.9-1.9A1.9,1.9,0,0,1,.37,204.07Z"/><polygon class="cls-58" points="383.59 -6.11 378.53 -6.11 376 -1.73 378.53 2.66 383.59 2.66 386.12 -1.73 383.59 -6.11"/><polygon class="cls-59" points="444.03 68.39 435.6 68.39 431.38 75.69 435.6 82.99 444.03 82.99 448.24 75.69 444.03 68.39"/><polygon class="cls-60" points="486.25 57.73 465.85 57.73 455.64 75.4 465.85 93.07 486.25 93.07 496.45 75.4 486.25 57.73"/><polygon class="cls-61" points="465.83 12.54 459.14 12.54 455.79 18.34 459.14 24.14 465.83 24.14 469.18 18.34 465.83 12.54"/><polygon class="cls-62" points="218.27 -6.17 212 -6.17 208.86 -0.73 212 4.7 218.27 4.7 221.41 -0.73 218.27 -6.17"/><polygon class="cls-63" points="360.47 30.69 330.66 30.69 315.76 56.51 330.66 82.32 360.47 82.32 375.38 56.51 360.47 30.69"/><polygon class="cls-64" points="361.68 -4.09 355.68 -4.09 352.68 1.11 355.68 6.31 361.68 6.31 364.68 1.11 361.68 -4.09"/><polygon class="cls-65" points="147.73 13.73 143.48 13.73 141.35 17.41 143.48 21.09 147.73 21.09 149.85 17.41 147.73 13.73"/><polygon class="cls-66" points="389.87 15.52 385.7 15.52 383.62 19.13 385.7 22.74 389.87 22.74 391.96 19.13 389.87 15.52"/><polygon class="cls-67" points="300.63 31.14 283.31 31.14 274.65 46.14 283.31 61.14 300.63 61.14 309.29 46.14 300.63 31.14"/><polygon class="cls-68" points="481.96 110.14 456.41 110.14 443.63 132.26 456.41 154.39 481.96 154.39 494.73 132.26 481.96 110.14"/><polygon class="cls-69" points="531.49 84.24 512.61 84.24 503.16 100.59 512.61 116.94 531.49 116.94 540.93 100.59 531.49 84.24"/><polygon class="cls-70" points="512.47 -6.33 508.51 -6.33 506.53 -2.91 508.51 0.52 512.47 0.52 514.45 -2.91 512.47 -6.33"/><polygon class="cls-71" points="433.4 59.3 406.44 59.3 392.95 82.66 406.44 106.01 433.4 106.01 446.89 82.66 433.4 59.3"/><polygon class="cls-72" points="525.75 120.2 519.67 120.2 516.63 125.47 519.67 130.73 525.75 130.73 528.79 125.47 525.75 120.2"/><polygon class="cls-73" points="500.14 32.41 471.97 32.41 457.88 56.81 471.97 81.2 500.14 81.2 514.23 56.81 500.14 32.41"/><polygon class="cls-74" points="537.99 53.28 510.04 53.28 496.07 77.49 510.04 101.7 537.99 101.7 551.97 77.49 537.99 53.28"/><polygon class="cls-75" points="463.11 48.53 447.57 48.53 439.81 61.98 447.57 75.43 463.11 75.43 470.87 61.98 463.11 48.53"/><polygon class="cls-76" points="423.61 9.2 408.58 9.2 401.07 22.21 408.58 35.22 423.61 35.22 431.12 22.21 423.61 9.2"/><path class="cls-77" d="M513.67,96.4l11,19-11,19H491.73l-11-19,11-19h21.94m.83-1.4H490.91l-11.8,20.42,11.8,20.43H514.5l11.79-20.43Z"/><path class="cls-78" d="M515.68,63.09l14.11,24.43L515.68,112H487.47L473.36,87.52l14.11-24.43h28.21m1.06-1.84H486.41L471.24,87.52l15.17,26.27h30.33l15.17-26.27Z"/><path class="cls-79" d="M546.39,81.65l2.35,4.07-2.35,4.06H541.7l-2.35-4.06,2.35-4.07h4.69m.18-.31h-5.05L539,85.72l2.52,4.37h5.05l2.52-4.37Z"/><path class="cls-80" d="M246.38-3.56l4,6.93-4,6.94h-8l-4-6.94,4-6.93h8m.31-.52h-8.61l-4.31,7.45,4.31,7.46h8.61L251,3.37l-4.3-7.45Z"/><path class="cls-81" d="M205.81,14.27l1.67,2.91-1.67,2.9h-3.35l-1.68-2.9,1.68-2.91h3.35m.12-.21h-3.6l-1.8,3.12,1.8,3.12h3.6l1.81-3.12Z"/><path class="cls-82" d="M510.53-6.79l11.72,20.3-11.72,20.3H487.08l-11.72-20.3,11.72-20.3h23.45m.88-1.53H486.2L473.6,13.51l12.6,21.83h25.21L524,13.51Z"/><path class="cls-83" d="M86.35-.43l1.85,3.2L86.35,6h-3.7L80.8,2.77l1.85-3.2h3.7m.14-.24h-4l-2,3.44,2,3.45h4l2-3.45Z"/><path class="cls-84" d="M439,21.51l2,3.57-2,3.57h-4.12l-2.06-3.57,2.06-3.57H439m.15-.27H434.7l-2.21,3.84,2.21,3.84h4.43l2.22-3.84-2.22-3.84Z"/><path class="cls-85" d="M542-3.49,544.15.27,542,4h-4.35L535.45.27l2.18-3.76H542m.16-.28h-4.67l-2.34,4,2.34,4.05h4.67l2.32-4-2.34-4Z"/><path class="cls-86" d="M338.61,31.84l2.86,4.95-2.86,4.94H332.9l-2.85-4.94,2.85-4.95h5.71m.22-.37h-6.14l-3.07,5.32,3.07,5.31h6.14l3.06-5.31Z"/><path class="cls-87" d="M515.61,38.05l3.28,5.67-3.28,5.67h-6.54l-3.27-5.67,3.27-5.67h6.54m.25-.42h-7l-3.51,6.09,3.51,6.09h7l3.52-6.09Z"/><path class="cls-88" d="M236.51,19.85l2.63,4.56L236.51,29h-5.26l-2.63-4.55,2.63-4.56h5.26m.2-.34h-5.66l-2.82,4.9,2.82,4.89h5.66l2.83-4.89Z"/><path class="cls-89" d="M400.06,40.09l14.49,25.1-14.49,25.1h-29l-14.49-25.1,14.49-25.1h29m1.09-1.89H370l-15.59,27L370,92.2h31.16l15.58-27-15.58-27Z"/><path class="cls-90" d="M478.8,73.92l11.51,19.93L478.8,113.78h-23L444.28,93.85l11.51-19.93h23m.86-1.49H454.92L442.55,93.85l12.37,21.43h24.74L492,93.85,479.66,72.43Z"/><path class="cls-91" d="M264.2,13.52l3.9,6.75L264.2,27h-7.8l-3.9-6.76,3.9-6.75h7.8m.29-.51H256.1l-4.19,7.26,4.19,7.27h8.39l4.2-7.27L264.49,13Z"/><path class="cls-92" d="M554.31,4.29l13.85,24-13.85,24h-27.7l-13.85-24,13.85-24h27.7m1-1.8H525.57L510.68,28.28l14.89,25.79h29.78l14.89-25.79L555.35,2.49Z"/><path class="cls-93" d="M179.45-9.07l7.84,13.58-7.84,13.58H163.77L155.93,4.51l7.84-13.58h15.68m.59-1H163.18l-8.43,14.6,8.43,14.6H180l8.43-14.6L180-10.09Z"/><path class="cls-94" d="M353.21-8.32l14,24.31-14,24.31H325.14L311.1,16l14-24.31h28.07m1.05-1.82H324.09L309,16l15.09,26.13h30.17L369.35,16,354.26-10.14Z"/><path class="cls-95" d="M402.16,87.61l6.72,11.64-6.72,11.63H388.73L382,99.25l6.72-11.64h13.43m.51-.87H388.23L381,99.25l7.23,12.5h14.44l7.22-12.5-7.22-12.51Z"/><path class="cls-96" d="M365,24.49l2.44,4.22L365,32.93h-4.88l-2.43-4.22,2.43-4.22H365m.18-.32H360l-2.62,4.54L360,33.25h5.24l2.62-4.54-2.62-4.54Z"/><path class="cls-97" d="M370,53.94,376.37,65,370,76.1H357.2L350.78,65l6.4-11.08H370m.48-.84H356.7L349.82,65l6.88,11.91h13.76L377.33,65l-6.87-11.9Z"/><path class="cls-98" d="M293.13.75,306.9,24.59,293.13,48.44H265.6L251.83,24.59,265.6.75h27.53m1-1.79h-29.6l-14.8,25.63,14.8,25.64h29.6L309,24.59,294.16-1Z"/><path class="cls-99" d="M459.49,26.49l8.45,14.63-8.45,14.64h-16.9l-8.45-14.64,8.45-14.63h16.9m.63-1.1H442l-9.09,15.73L442,56.86h18.16l9.09-15.74-9.09-15.73Z"/><path class="cls-100" d="M439.8,80l14.56,25.23L439.8,130.41H410.66l-14.57-25.23L410.66,80H439.8m1.09-1.9H409.57l-15.66,27.13,15.66,27.12h31.32l15.66-27.12L440.89,78.05Z"/><path class="cls-101" d="M405.21,22.71l12.22,21.17L405.21,65H380.77L368.55,43.88l12.22-21.17h24.44m.92-1.59H379.86L366.72,43.88l13.14,22.75h26.27l13.14-22.75Z"/><path class="cls-102" d="M311.86-8.23l12.77,22.11L311.86,36H286.33L273.56,13.88,286.33-8.23h25.53m1-1.66H285.37L271.64,13.88l13.73,23.78h27.45l13.73-23.78L312.82-9.89Z"/><path class="cls-103" d="M374.47,89.29A1.33,1.33,0,1,1,373.1,88h0A1.33,1.33,0,0,1,374.47,89.29Z"/><path class="cls-104" d="M430.26,139.78a2.72,2.72,0,1,1-2.72-2.72,2.72,2.72,0,0,1,2.72,2.72Z"/><path class="cls-105" d="M484.84,107.21a.6.6,0,1,1-.6-.6.6.6,0,0,1,.6.6Z"/><path class="cls-106" d="M405.49,1.44a.37.37,0,1,1-.37-.37h0A.38.38,0,0,1,405.49,1.44Z"/><circle class="cls-107" cx="476.98" cy="0.39" r="0.53"/><path class="cls-108" d="M447.81,123.18a.35.35,0,1,1-.35-.35h0A.35.35,0,0,1,447.81,123.18Z"/><path class="cls-109" d="M223.43,40.46a.8.8,0,1,1-.8-.8.8.8,0,0,1,.8.8Z"/><path class="cls-110" d="M472.94,41.52a.39.39,0,1,1-.39-.39.38.38,0,0,1,.39.39Z"/><path class="cls-111" d="M534.45,57.85a1.07,1.07,0,1,1-1.08-1.06h0A1.07,1.07,0,0,1,534.45,57.85Z"/><path class="cls-112" d="M296.62,72.52a1.42,1.42,0,0,1-2.83.24,1,1,0,0,1,0-.24,1.42,1.42,0,0,1,2.83,0Z"/><path class="cls-113" d="M447.72,96.17a.5.5,0,1,1-.5-.5A.5.5,0,0,1,447.72,96.17Z"/><path class="cls-114" d="M123.23,7.71a2.07,2.07,0,1,1-2.07-2.07h0a2.06,2.06,0,0,1,2.07,2.05Z"/><path class="cls-115" d="M316.55,5.77a.55.55,0,0,1-.54.56h0a.56.56,0,1,1,.55-.57Z"/><path class="cls-116" d="M426.14,53.74a1.8,1.8,0,1,1-1.8-1.8h0A1.81,1.81,0,0,1,426.14,53.74Z"/><path class="cls-117" d="M520.83,143.48a.4.4,0,0,1-.32.45.39.39,0,0,1-.45-.33.24.24,0,0,1,0-.12.4.4,0,0,1,.32-.45.39.39,0,0,1,.45.33A.24.24,0,0,1,520.83,143.48Z"/><path class="cls-118" d="M506.08,65.46a.95.95,0,1,1-.95-.95.94.94,0,0,1,.95.93Z"/><circle class="cls-119" cx="401.83" cy="75.61" r="1.85"/><circle class="cls-120" cx="520.33" cy="19.59" r="0.42"/><path class="cls-121" d="M496.73,137.72a.33.33,0,1,1-.33-.33h0a.32.32,0,0,1,.32.32Z"/><circle class="cls-122" cx="314.43" cy="39.94" r="1.64"/><circle class="cls-123" cx="490.18" cy="31.08" r="0.4"/><path class="cls-124" d="M445-.13A1.16,1.16,0,0,1,443.82,1a1.16,1.16,0,0,1-1.16-1.16h0a1.16,1.16,0,0,1,1.16-1.16h0A1.16,1.16,0,0,1,445-.19Z"/></g></svg>