<svg id="Mathematic_Background" data-name="Mathematic Background" xmlns="http://www.w3.org/2000/svg" viewBox="0 0 644 393.5"><defs><style>.cls-1{fill:#36a9e1;}.cls-12,.cls-2,.cls-5,.cls-6,.cls-8{fill:none;stroke-linecap:round;stroke-linejoin:round;}.cls-2{stroke:#1d1d1b;}.cls-3{fill:#1d1d1b;}.cls-4{fill:#7f8c8d;}.cls-5,.cls-6{stroke:#a22aff;}.cls-5,.cls-6,.cls-8{stroke-width:2px;}.cls-5{stroke-dasharray:11.63 11.63;}.cls-7{fill:#a22aff;}.cls-8{stroke:#0d00f4;}.cls-9{fill:#0d00f4;}.cls-10{fill:#0007ff;}.cls-11,.cls-14{fill:#4aff87;stroke:#000;stroke-miterlimit:10;}.cls-11{opacity:0.4;}.cls-12{stroke:#ff2a5a;stroke-width:1.5px;}.cls-13{fill:#ff2a5a;}.cls-15{fill:#2e7f00;}</style></defs><title>sbs_func4</title><rect class="cls-1" x="119.33" y="370.58" width="322.26" height="0.9"/><rect class="cls-1" x="119.33" y="350.44" width="322.26" height="0.9"/><rect class="cls-1" x="119.33" y="330.3" width="322.26" height="0.9"/><rect class="cls-1" x="119.33" y="310.15" width="322.26" height="0.9"/><rect class="cls-1" x="119.33" y="290.01" width="322.26" height="0.9"/><rect class="cls-1" x="119.33" y="269.87" width="322.26" height="0.9"/><rect class="cls-1" x="119.33" y="249.73" width="322.26" height="0.9"/><rect class="cls-1" x="119.33" y="229.59" width="322.26" height="0.9"/><rect class="cls-1" x="119.33" y="209.45" width="322.26" height="0.9"/><rect class="cls-1" x="119.33" y="189.31" width="322.26" height="0.9"/><rect class="cls-1" x="119.33" y="169.16" width="322.26" height="0.9"/><rect class="cls-1" x="119.33" y="149.02" width="322.26" height="0.9"/><rect class="cls-1" x="119.33" y="128.88" width="322.26" height="0.9"/><rect class="cls-1" x="119.33" y="108.74" width="322.26" height="0.9"/><rect class="cls-1" x="119.33" y="88.6" width="322.26" height="0.9"/><rect class="cls-1" x="119.33" y="68.46" width="322.26" height="0.9"/><rect class="cls-1" x="119.33" y="48.32" width="322.26" height="0.9"/><rect class="cls-1" x="119.33" y="28.18" width="322.26" height="0.9"/><rect class="cls-1" x="441.14" y="31.21" width="0.9" height="339.37"/><rect class="cls-1" x="421" y="31.21" width="0.9" height="339.37"/><rect class="cls-1" x="400.86" y="31.21" width="0.9" height="339.37"/><rect class="cls-1" x="380.72" y="31.21" width="0.9" height="339.37"/><rect class="cls-1" x="360.58" y="31.21" width="0.9" height="339.37"/><rect class="cls-1" x="340.44" y="31.21" width="0.9" height="339.37"/><rect class="cls-1" x="320.3" y="31.21" width="0.9" height="339.37"/><rect class="cls-1" x="300.16" y="31.21" width="0.9" height="339.37"/><rect class="cls-1" x="280.01" y="31.21" width="0.9" height="339.37"/><rect class="cls-1" x="259.87" y="31.21" width="0.9" height="339.37"/><rect class="cls-1" x="239.73" y="31.21" width="0.9" height="339.37"/><rect class="cls-1" x="219.59" y="31.21" width="0.9" height="339.37"/><rect class="cls-1" x="199.45" y="31.21" width="0.9" height="339.37"/><rect class="cls-1" x="179.31" y="31.21" width="0.9" height="339.37"/><rect class="cls-1" x="159.17" y="31.21" width="0.9" height="339.37"/><rect class="cls-1" x="139.02" y="31.21" width="0.9" height="339.37"/><rect class="cls-1" x="118.88" y="31.21" width="0.9" height="339.37"/><line class="cls-2" x1="280.39" y1="22.59" x2="280.39" y2="375.64"/><polygon class="cls-3" points="277.61 24.7 280.38 23.52 283.16 24.7 280.38 18.11 277.61 24.7"/><polygon class="cls-3" points="277.61 373.54 280.38 374.71 283.16 373.54 280.38 380.12 277.61 373.54"/><line class="cls-2" x1="445.6" y1="190.3" x2="115.18" y2="190.3"/><polygon class="cls-3" points="443.49 187.52 444.67 190.3 443.49 193.07 450.07 190.3 443.49 187.52"/><polygon class="cls-3" points="117.29 187.52 116.11 190.3 117.29 193.07 110.71 190.3 117.29 187.52"/><line class="cls-4" x1="144.57" y1="426.35" x2="370.47" y2="200.45"/><line class="cls-5" x1="162.94" y1="407.98" x2="356.21" y2="214.71"/><line class="cls-6" x1="360.32" y1="210.6" x2="364.56" y2="206.36"/><polygon class="cls-7" points="365.45 212.8 363.34 207.58 358.12 205.47 370.47 200.45 365.45 212.8"/><line class="cls-4" x1="145.25" y1="325.2" x2="371.16" y2="99.29"/><line class="cls-8" x1="151.16" y1="319.29" x2="365.25" y2="105.2"/><polygon class="cls-9" points="157.6 320.17 152.38 318.06 150.27 312.84 145.25 325.19 157.6 320.17"/><polygon class="cls-9" points="366.13 111.64 364.02 106.42 358.8 104.31 371.16 99.29 366.13 111.64"/><path class="cls-10" d="M366.36,133.18h-2.27v-1.86h2.27V130a3.79,3.79,0,0,1,.54-2,3.59,3.59,0,0,1,1.42-1.34,4.15,4.15,0,0,1,2-.47,5,5,0,0,1,1.81.29v2a6.65,6.65,0,0,0-.82-.28,3.51,3.51,0,0,0-.92-.11,1.91,1.91,0,0,0-1.38.57,2.11,2.11,0,0,0-.58,1.58v1.12h3.17v1.86h-3.17v10.48h-2.06Z"/><path class="cls-10" d="M375.38,142a15.57,15.57,0,0,1,0-12.32,19.36,19.36,0,0,1,3-4.93l1.5,1.07a16.69,16.69,0,0,0-2.71,4.61,14.21,14.21,0,0,0,0,10.82,17,17,0,0,0,2.71,4.61l-1.5,1.06A19.12,19.12,0,0,1,375.38,142Z"/><path class="cls-10" d="M385.07,137.39l-4.28-6.07h2.32l3.2,4.57,3.07-4.57h2.4l-4.31,6.07,4.4,6.27h-2.39l-3.22-4.74-3.15,4.74h-2.39Z"/><path class="cls-10" d="M392.67,145.89a17,17,0,0,0,2.71-4.61,14.21,14.21,0,0,0,0-10.82,16.69,16.69,0,0,0-2.71-4.61l1.5-1.07a19.36,19.36,0,0,1,3,4.93,15.57,15.57,0,0,1,0,12.32,19.12,19.12,0,0,1-3,4.92Z"/><path class="cls-10" d="M407.1,132.79h10.79v1.7H407.1Zm0,4.6h10.79v1.7H407.1Z"/><path class="cls-10" d="M429.66,137.39l-4.29-6.07h2.33l3.19,4.57,3.07-4.57h2.4l-4.31,6.07,4.41,6.27h-2.4l-3.22-4.74-3.14,4.74h-2.4Z"/><path class="cls-3" d="M443.53,136.16l4.5-4.5v3.65h19V137H448v3.65Z"/><path class="cls-3" d="M479.26,143.41a4.55,4.55,0,0,1-1.68-1.56h-.1v1.81h-2V126.33h2.06v5.11l-.1,1.72h.1a4.46,4.46,0,0,1,1.68-1.59,5,5,0,0,1,2.53-.64,5.49,5.49,0,0,1,3,.85,5.78,5.78,0,0,1,2.13,2.35,7.67,7.67,0,0,1,0,6.74,5.78,5.78,0,0,1-2.13,2.33,5.49,5.49,0,0,1-3,.85A5.11,5.11,0,0,1,479.26,143.41Zm4.3-1.81a4.17,4.17,0,0,0,1.51-1.65,5.59,5.59,0,0,0,0-4.92,4.2,4.2,0,0,0-1.51-1.66,3.77,3.77,0,0,0-4,0A4.14,4.14,0,0,0,478,135a5.73,5.73,0,0,0,0,4.94,4,4,0,0,0,1.5,1.64,3.72,3.72,0,0,0,4,0Z"/><path class="cls-3" d="M491.62,143.52a4.07,4.07,0,0,1-1.65-1.47,4,4,0,0,1-.58-2.12,3.61,3.61,0,0,1,1.48-3.06,6.09,6.09,0,0,1,3.73-1.1,8.52,8.52,0,0,1,2.07.24,5.36,5.36,0,0,1,1.46.56v-.75a2.78,2.78,0,0,0-1-2.22,3.63,3.63,0,0,0-2.44-.83,4.15,4.15,0,0,0-1.92.45,3.43,3.43,0,0,0-1.37,1.24l-1.55-1.16a5,5,0,0,1,2-1.74,6.28,6.28,0,0,1,2.82-.63,5.64,5.64,0,0,1,4,1.32,4.63,4.63,0,0,1,1.44,3.59v7.82h-2v-1.77H498a4.34,4.34,0,0,1-1.59,1.53,4.62,4.62,0,0,1-2.4.63A5.41,5.41,0,0,1,491.62,143.52Zm4.55-1.82a4,4,0,0,0,1.43-1.43,3.79,3.79,0,0,0,.53-2,5,5,0,0,0-1.43-.63,6.51,6.51,0,0,0-1.79-.24,4,4,0,0,0-2.55.7,2.23,2.23,0,0,0-.86,1.82,2,2,0,0,0,.77,1.64,3,3,0,0,0,2,.63A3.68,3.68,0,0,0,496.17,141.7Z"/><path class="cls-3" d="M503.82,143.12a5.07,5.07,0,0,1-1.89-2.39l1.84-.82a3.69,3.69,0,0,0,1.37,1.72,3.53,3.53,0,0,0,2,.6,3.88,3.88,0,0,0,2-.47,1.46,1.46,0,0,0,.82-1.34,1.49,1.49,0,0,0-.65-1.25,6.26,6.26,0,0,0-2.06-.81l-1.5-.39a5.4,5.4,0,0,1-2.42-1.23,3.13,3.13,0,0,1-.3-4.13,4,4,0,0,1,1.7-1.24,6,6,0,0,1,2.3-.44,5.9,5.9,0,0,1,2.9.7,4,4,0,0,1,1.8,2l-1.79.83a3,3,0,0,0-2.93-1.65,3.35,3.35,0,0,0-1.78.47,1.39,1.39,0,0,0-.76,1.2,1.35,1.35,0,0,0,.53,1.1,4.3,4.3,0,0,0,1.6.69l1.79.46a5.84,5.84,0,0,1,2.73,1.37,3,3,0,0,1,.92,2.21,3.18,3.18,0,0,1-.65,2,4.26,4.26,0,0,1-1.77,1.32,6.32,6.32,0,0,1-2.47.46A5.64,5.64,0,0,1,503.82,143.12Z"/><path class="cls-3" d="M514.32,128.61a1.42,1.42,0,0,1-.43-1,1.37,1.37,0,0,1,.43-1,1.42,1.42,0,0,1,1-.43,1.44,1.44,0,0,1,1,.43,1.37,1.37,0,0,1,.43,1,1.45,1.45,0,0,1-.42,1,1.5,1.5,0,0,1-2.1,0Zm0,2.71h2v12.34h-2Z"/><path class="cls-3" d="M521.88,143.19a5.93,5.93,0,0,1-2.23-2.35,7.44,7.44,0,0,1,0-6.71,5.81,5.81,0,0,1,2.23-2.35,6.11,6.11,0,0,1,3.21-.85,5.87,5.87,0,0,1,3.38.93,5.13,5.13,0,0,1,1.95,2.48l-1.86.78a3.63,3.63,0,0,0-1.37-1.73,3.9,3.9,0,0,0-2.19-.6,3.74,3.74,0,0,0-2,.6,4.24,4.24,0,0,0-1.51,1.65,5.53,5.53,0,0,0,0,4.89,4.27,4.27,0,0,0,1.51,1.66,3.74,3.74,0,0,0,2,.6,4.11,4.11,0,0,0,2.25-.61,3.57,3.57,0,0,0,1.4-1.72l1.84.78a5.38,5.38,0,0,1-2,2.46,5.87,5.87,0,0,1-3.38,1A6.12,6.12,0,0,1,521.88,143.19Z"/><path class="cls-3" d="M539.28,133.18H537v-1.86h2.28V130a3.87,3.87,0,0,1,.53-2,3.61,3.61,0,0,1,1.43-1.34,4.13,4.13,0,0,1,2-.47,5,5,0,0,1,1.82.29v2a7.27,7.27,0,0,0-.82-.28,3.57,3.57,0,0,0-.92-.11,1.88,1.88,0,0,0-1.38.57,2.11,2.11,0,0,0-.58,1.58v1.12h3.17v1.86h-3.17v10.48h-2.06Z"/><path class="cls-3" d="M547.86,142.74a5.29,5.29,0,0,1-1.18-3.65v-7.77h2.06v7.45a3.62,3.62,0,0,0,.8,2.59,2.86,2.86,0,0,0,2.16.83,3.21,3.21,0,0,0,1.85-.56,3.84,3.84,0,0,0,1.26-1.45,4.3,4.3,0,0,0,.44-1.89v-7h2.06v12.34h-2v-1.79h-.1a4.12,4.12,0,0,1-1.62,1.55,4.73,4.73,0,0,1-2.37.63A4.33,4.33,0,0,1,547.86,142.74Z"/><path class="cls-3" d="M560.36,131.32h2v1.81h.1a4.21,4.21,0,0,1,1.62-1.56,4.64,4.64,0,0,1,2.37-.64,4.32,4.32,0,0,1,3.4,1.3,5,5,0,0,1,1.18,3.52v7.91h-2.06v-7.6a3.32,3.32,0,0,0-.82-2.49,3.15,3.15,0,0,0-2.26-.78,3,3,0,0,0-1.77.56,3.72,3.72,0,0,0-1.23,1.46,4.36,4.36,0,0,0-.43,1.9v6.95h-2.06Z"/><path class="cls-3" d="M576.31,143.19a6.07,6.07,0,0,1-2.23-2.35,7.44,7.44,0,0,1,0-6.71,5.94,5.94,0,0,1,2.23-2.35,6.12,6.12,0,0,1,3.22-.85,5.89,5.89,0,0,1,3.38.93,5.06,5.06,0,0,1,1.94,2.48l-1.86.78a3.57,3.57,0,0,0-1.37-1.73,3.86,3.86,0,0,0-2.19-.6,3.73,3.73,0,0,0-2,.6,4.24,4.24,0,0,0-1.51,1.65,5.53,5.53,0,0,0,0,4.89,4.27,4.27,0,0,0,1.51,1.66,3.73,3.73,0,0,0,2,.6,4.11,4.11,0,0,0,2.25-.61,3.65,3.65,0,0,0,1.41-1.72l1.84.78a5.45,5.45,0,0,1-2,2.46,5.89,5.89,0,0,1-3.38,1A6.13,6.13,0,0,1,576.31,143.19Z"/><path class="cls-3" d="M590.38,143.61a3.26,3.26,0,0,1-1.07-.65,3,3,0,0,1-.73-1.07,4,4,0,0,1-.24-1.47v-7.24h-2.15v-1.86h2.15v-3.49h2.06v3.49h3v1.86h-3v6.73a2.43,2.43,0,0,0,.38,1.5,1.67,1.67,0,0,0,1.34.53,2.45,2.45,0,0,0,1.35-.41v2a3.36,3.36,0,0,1-.74.24,5,5,0,0,1-1,.08A4,4,0,0,1,590.38,143.61Z"/><path class="cls-3" d="M596.18,128.61a1.42,1.42,0,0,1-.43-1,1.37,1.37,0,0,1,.43-1,1.42,1.42,0,0,1,1-.43,1.4,1.4,0,0,1,1,.43,1.38,1.38,0,0,1,.44,1,1.45,1.45,0,0,1-.42,1,1.5,1.5,0,0,1-2.1,0Zm0,2.71h2v12.34h-2Z"/><path class="cls-3" d="M603.78,143.18a6.06,6.06,0,0,1-2.26-2.37,7.21,7.21,0,0,1,0-6.64,6.06,6.06,0,0,1,2.26-2.37,6.58,6.58,0,0,1,6.54,0,6.06,6.06,0,0,1,2.26,2.37,7.21,7.21,0,0,1,0,6.64,6.06,6.06,0,0,1-2.26,2.37,6.58,6.58,0,0,1-6.54,0Zm5.39-1.56a4.21,4.21,0,0,0,1.57-1.64,5.55,5.55,0,0,0,0-5,4.21,4.21,0,0,0-1.57-1.64,4.25,4.25,0,0,0-4.25,0,4.25,4.25,0,0,0-1.59,1.64,5.55,5.55,0,0,0,0,5,4.25,4.25,0,0,0,1.59,1.64,4.25,4.25,0,0,0,4.25,0Z"/><path class="cls-3" d="M615.54,131.32h2v1.81h.09a4.21,4.21,0,0,1,1.62-1.56,4.7,4.7,0,0,1,2.38-.64,4.35,4.35,0,0,1,3.4,1.3,5,5,0,0,1,1.17,3.52v7.91h-2.06v-7.6a3.28,3.28,0,0,0-.82-2.49,3.14,3.14,0,0,0-2.25-.78,3,3,0,0,0-1.78.56,3.78,3.78,0,0,0-1.22,1.46,4.37,4.37,0,0,0-.44,1.9v6.95h-2.06Z"/><path class="cls-7" d="M362.1,233.69h2v1.81h.1a4.51,4.51,0,0,1,6.21-1.55,3.7,3.7,0,0,1,1.44,1.74,5.14,5.14,0,0,1,1.73-1.74,4.79,4.79,0,0,1,2.51-.65,3.93,3.93,0,0,1,3.2,1.29,5.36,5.36,0,0,1,1.08,3.53V246h-2v-7.6a3.61,3.61,0,0,0-.71-2.49,2.64,2.64,0,0,0-2.08-.78,2.86,2.86,0,0,0-1.67.53,3.66,3.66,0,0,0-1.17,1.43,4.54,4.54,0,0,0-.42,1.94v7h-2.06v-7.58a3.71,3.71,0,0,0-.7-2.51,2.64,2.64,0,0,0-2.06-.78,2.74,2.74,0,0,0-1.67.55,3.69,3.69,0,0,0-1.18,1.45,4.55,4.55,0,0,0-.42,2V246H362.1Z"/><path class="cls-7" d="M384.55,244.4a15.57,15.57,0,0,1,0-12.32,19.36,19.36,0,0,1,3-4.93l1.5,1.07a16.69,16.69,0,0,0-2.71,4.61,14.34,14.34,0,0,0,0,10.82,17,17,0,0,0,2.71,4.61l-1.5,1.06A19.29,19.29,0,0,1,384.55,244.4Z"/><path class="cls-7" d="M394.25,239.76,390,233.69h2.33l3.19,4.57,3.08-4.57H401l-4.31,6.07,4.41,6.27h-2.4l-3.22-4.74L392.29,246h-2.4Z"/><path class="cls-7" d="M401.85,248.26a17.25,17.25,0,0,0,2.71-4.61,14.34,14.34,0,0,0,0-10.82,16.94,16.94,0,0,0-2.71-4.61l1.5-1.07a19.36,19.36,0,0,1,3,4.93,15.57,15.57,0,0,1,0,12.32,19.29,19.29,0,0,1-3,4.92Z"/><circle class="cls-11" cx="240.18" cy="330.3" r="7.07"/><line class="cls-12" x1="239.73" y1="229.59" x2="239.73" y2="324.03"/><polygon class="cls-13" points="235.29 320.66 239.73 322.55 244.18 320.66 239.73 331.19 235.29 320.66"/><circle class="cls-14" cx="240.18" cy="229.59" r="7.07"/><path class="cls-15" d="M263.56,333.73a15.57,15.57,0,0,1,0-12.32,19.29,19.29,0,0,1,3-4.92l1.5,1.06a17,17,0,0,0-2.71,4.61,14.34,14.34,0,0,0,0,10.82,16.69,16.69,0,0,0,2.71,4.61l-1.5,1.07A19.36,19.36,0,0,1,263.56,333.73Z"/><path class="cls-15" d="M270.09,327h11.52v1.69H270.09Z"/><path class="cls-15" d="M284.2,333.31c.5-.5,1.49-1.5,3-3s2.52-2.58,3.1-3.21a13,13,0,0,0,1.67-2.08,3.58,3.58,0,0,0,.44-1.82,2.64,2.64,0,0,0-.38-1.36,2.74,2.74,0,0,0-1.09-1,3.37,3.37,0,0,0-1.7-.4,2.9,2.9,0,0,0-2.1.76,3.64,3.64,0,0,0-1,1.66l-1.89-.75a5.45,5.45,0,0,1,2.56-3,5.05,5.05,0,0,1,2.52-.6,5.4,5.4,0,0,1,2.7.66,4.79,4.79,0,0,1,1.83,1.74,4.55,4.55,0,0,1,.65,2.35q0,2.54-2.66,5.25l-5,5h7.81v2H284.2Z"/><path class="cls-15" d="M297.05,337.38l1.28-2a1.28,1.28,0,0,1-.77-.46,1.37,1.37,0,0,1-.34-1,1.45,1.45,0,0,1,.45-1.07,1.49,1.49,0,0,1,1.1-.45,1.5,1.5,0,0,1,1.1.45,1.45,1.45,0,0,1,.45,1.07,1.93,1.93,0,0,1-.17.79,4.91,4.91,0,0,1-.51.86L298,338Z"/><path class="cls-15" d="M308.76,327h11.53v1.69H308.76Z"/><path class="cls-15" d="M323.65,334.81l7.72-14h-8.49v-2H333.5v2.11l-8,14.83Z"/><path class="cls-15" d="M335.07,337.59a17,17,0,0,0,2.72-4.61,14.34,14.34,0,0,0,0-10.82,17.27,17.27,0,0,0-2.72-4.61l1.5-1.06a19.29,19.29,0,0,1,3,4.92,15.57,15.57,0,0,1,0,12.32,19.36,19.36,0,0,1-3,4.93Z"/><path class="cls-15" d="M151.53,220.88a15.57,15.57,0,0,1,0-12.32,19.12,19.12,0,0,1,3-4.92l1.5,1.06a17,17,0,0,0-2.71,4.61,14.21,14.21,0,0,0,0,10.82,16.69,16.69,0,0,0,2.71,4.61l-1.5,1.07A19.36,19.36,0,0,1,151.53,220.88Z"/><path class="cls-15" d="M158.06,214.17h11.52v1.69H158.06Z"/><path class="cls-15" d="M172.17,220.46c.5-.5,1.49-1.5,3-3s2.52-2.58,3.1-3.21a13,13,0,0,0,1.67-2.08,3.58,3.58,0,0,0,.44-1.82A2.7,2.7,0,0,0,180,209a2.88,2.88,0,0,0-1.09-1,3.47,3.47,0,0,0-1.7-.4,2.9,2.9,0,0,0-2.1.77,3.59,3.59,0,0,0-1,1.66l-1.89-.76a5.46,5.46,0,0,1,.87-1.61,5.3,5.3,0,0,1,1.69-1.42,5.05,5.05,0,0,1,2.52-.6,5.4,5.4,0,0,1,2.7.66,4.79,4.79,0,0,1,1.83,1.74,4.55,4.55,0,0,1,.65,2.35q0,2.53-2.66,5.25l-5,5h7.81v2H172.17Z"/><path class="cls-15" d="M185,224.53l1.28-2a1.28,1.28,0,0,1-.77-.46,1.39,1.39,0,0,1-.34-.95,1.44,1.44,0,0,1,.45-1.07,1.49,1.49,0,0,1,1.1-.45,1.5,1.5,0,0,1,1.1.45,1.44,1.44,0,0,1,.45,1.07,1.93,1.93,0,0,1-.17.79,6.59,6.59,0,0,1-.51.86l-1.6,2.42Z"/><path class="cls-15" d="M196.73,214.17h11.52v1.69H196.73Z"/><path class="cls-15" d="M210.84,220.46c.5-.5,1.5-1.5,3-3s2.52-2.58,3.1-3.21a13.61,13.61,0,0,0,1.67-2.08,3.58,3.58,0,0,0,.44-1.82,2.7,2.7,0,0,0-.38-1.37,2.88,2.88,0,0,0-1.09-1,3.47,3.47,0,0,0-1.7-.4,2.89,2.89,0,0,0-2.1.77,3.61,3.61,0,0,0-1,1.66l-1.89-.76a5.75,5.75,0,0,1,.88-1.61,5.3,5.3,0,0,1,1.69-1.42,5.05,5.05,0,0,1,2.52-.6,5.45,5.45,0,0,1,2.7.66,4.69,4.69,0,0,1,1.82,1.74,4.47,4.47,0,0,1,.66,2.35q0,2.53-2.66,5.25l-5,5h7.82v2H210.84Z"/><path class="cls-15" d="M223,224.74a16.94,16.94,0,0,0,2.71-4.61,14.34,14.34,0,0,0,0-10.82A17.25,17.25,0,0,0,223,204.7l1.5-1.06a19.12,19.12,0,0,1,3,4.92,15.57,15.57,0,0,1,0,12.32,19.36,19.36,0,0,1-3,4.93Z"/></svg>