<svg id="Mathematic_Background" data-name="Mathematic Background" xmlns="http://www.w3.org/2000/svg" viewBox="0 0 385 385"><defs><style>.cls-1{fill:#36a9e1;}.cls-10,.cls-14,.cls-2,.cls-5,.cls-7,.cls-8{fill:none;stroke-linecap:round;stroke-linejoin:round;}.cls-2,.cls-5{stroke:#1d1d1b;}.cls-3{fill:#1d1d1b;}.cls-4{fill:#0007ff;}.cls-10,.cls-5,.cls-7,.cls-8{stroke-width:2px;}.cls-6{fill:#7f8c8d;}.cls-7,.cls-8{stroke:#a22aff;}.cls-7{stroke-dasharray:11.63 11.63;}.cls-9{fill:#a22aff;}.cls-10{stroke:#0d00f4;}.cls-11{fill:#0d00f4;}.cls-12{fill:#349946;}.cls-13,.cls-16{fill:#4aff87;stroke:#000;stroke-miterlimit:10;}.cls-13{opacity:0.4;}.cls-14{stroke:#ff2a5a;stroke-width:1.5px;}.cls-15{fill:#ff2a5a;}</style></defs><title>sbs_func4_square</title><rect class="cls-1" x="44.68" y="344.89" width="294.05" height="0.82"/><rect class="cls-1" x="44.68" y="326.52" width="294.05" height="0.82"/><rect class="cls-1" x="44.68" y="308.14" width="294.05" height="0.82"/><rect class="cls-1" x="44.68" y="289.76" width="294.05" height="0.82"/><rect class="cls-1" x="44.68" y="271.38" width="294.05" height="0.82"/><rect class="cls-1" x="44.68" y="253.01" width="294.05" height="0.82"/><rect class="cls-1" x="44.68" y="234.63" width="294.05" height="0.82"/><rect class="cls-1" x="44.68" y="216.25" width="294.05" height="0.82"/><rect class="cls-1" x="44.68" y="197.87" width="294.05" height="0.82"/><rect class="cls-1" x="44.68" y="179.49" width="294.05" height="0.82"/><rect class="cls-1" x="44.68" y="161.12" width="294.05" height="0.82"/><rect class="cls-1" x="44.68" y="142.74" width="294.05" height="0.82"/><rect class="cls-1" x="44.68" y="124.36" width="294.05" height="0.82"/><rect class="cls-1" x="44.68" y="105.98" width="294.05" height="0.82"/><rect class="cls-1" x="44.68" y="87.6" width="294.05" height="0.82"/><rect class="cls-1" x="44.68" y="69.23" width="294.05" height="0.82"/><rect class="cls-1" x="44.68" y="50.85" width="294.05" height="0.82"/><rect class="cls-1" x="44.68" y="34.3" width="294.05" height="0.82"/><rect class="cls-1" x="338.32" y="35.24" width="0.82" height="309.65"/><rect class="cls-1" x="319.94" y="35.24" width="0.82" height="309.65"/><rect class="cls-1" x="301.56" y="35.24" width="0.82" height="309.65"/><rect class="cls-1" x="283.19" y="35.24" width="0.82" height="309.65"/><rect class="cls-1" x="264.81" y="35.24" width="0.82" height="309.65"/><rect class="cls-1" x="246.43" y="35.24" width="0.82" height="309.65"/><rect class="cls-1" x="228.05" y="35.24" width="0.82" height="309.65"/><rect class="cls-1" x="209.68" y="35.24" width="0.82" height="309.65"/><rect class="cls-1" x="191.3" y="35.24" width="0.82" height="309.65"/><rect class="cls-1" x="172.92" y="35.24" width="0.82" height="309.65"/><rect class="cls-1" x="154.54" y="35.24" width="0.82" height="309.65"/><rect class="cls-1" x="136.16" y="35.24" width="0.82" height="309.65"/><rect class="cls-1" x="117.79" y="35.24" width="0.82" height="309.65"/><rect class="cls-1" x="99.41" y="35.24" width="0.82" height="309.65"/><rect class="cls-1" x="81.03" y="35.24" width="0.82" height="309.65"/><rect class="cls-1" x="62.65" y="35.24" width="0.82" height="309.65"/><rect class="cls-1" x="44.27" y="35.24" width="0.82" height="309.65"/><line class="cls-2" x1="191.64" y1="27.77" x2="191.64" y2="349.12"/><polygon class="cls-3" points="188.86 29.88 191.64 28.7 194.41 29.88 191.64 23.29 188.86 29.88"/><polygon class="cls-3" points="188.86 347.02 191.64 348.2 194.41 347.02 191.64 353.6 188.86 347.02"/><line class="cls-2" x1="341.99" y1="180.4" x2="41.29" y2="180.4"/><polygon class="cls-3" points="339.88 177.62 341.06 180.4 339.88 183.17 346.47 180.4 339.88 177.62"/><polygon class="cls-3" points="43.4 177.62 42.22 180.4 43.4 183.17 36.81 180.4 43.4 177.62"/><path class="cls-4" d="M270.09,128.28H268v-1.7h2.08v-1.21a3.53,3.53,0,0,1,.48-1.86,3.27,3.27,0,0,1,1.31-1.22,3.75,3.75,0,0,1,1.81-.43,4.61,4.61,0,0,1,1.65.26V124c-.26-.1-.51-.18-.75-.25a2.93,2.93,0,0,0-.84-.1,1.75,1.75,0,0,0-1.26.52,2,2,0,0,0-.53,1.45v1h2.9v1.7H272v9.57h-1.87Z"/><path class="cls-4" d="M278.31,136.35a14.19,14.19,0,0,1,0-11.24,17.91,17.91,0,0,1,2.77-4.49l1.37,1A15.52,15.52,0,0,0,280,125.8a13,13,0,0,0,0,9.87,15.52,15.52,0,0,0,2.47,4.21l-1.37,1A18,18,0,0,1,278.31,136.35Z"/><path class="cls-4" d="M287.16,132.13l-3.91-5.55h2.12l2.91,4.18,2.81-4.18h2.19l-3.94,5.55,4,5.72h-2.18l-2.94-4.33-2.87,4.33h-2.19Z"/><path class="cls-4" d="M294.09,139.88a15.54,15.54,0,0,0,2.48-4.21,13,13,0,0,0,0-9.87,15.54,15.54,0,0,0-2.48-4.21l1.37-1a17.36,17.36,0,0,1,2.77,4.49,14.19,14.19,0,0,1,0,11.24,17.42,17.42,0,0,1-2.77,4.5Z"/><path class="cls-4" d="M307.26,127.93h9.85v1.55h-9.85Zm0,4.2h9.85v1.54h-9.85Z"/><path class="cls-4" d="M327.84,132.13l-3.91-5.55h2.12l2.91,4.18,2.81-4.18H334L330,132.13l4,5.72h-2.18l-2.94-4.33-2.87,4.33h-2.19Z"/><path class="cls-3" d="M224.91,29.83a4.1,4.1,0,0,1-1.54-1.42h-.09v1.65H221.5V14.25h1.87v4.66l-.09,1.57h.09A4,4,0,0,1,224.91,19a4.54,4.54,0,0,1,2.3-.58,5,5,0,0,1,2.74.77,5.32,5.32,0,0,1,2,2.14,7.1,7.1,0,0,1,0,6.15,5.29,5.29,0,0,1-2,2.13,5,5,0,0,1-2.74.78A4.55,4.55,0,0,1,224.91,29.83Zm3.92-1.64a3.92,3.92,0,0,0,1.38-1.52,5.08,5.08,0,0,0,0-4.48,3.82,3.82,0,0,0-1.38-1.51,3.44,3.44,0,0,0-3.67,0,3.76,3.76,0,0,0-1.37,1.5,4.78,4.78,0,0,0-.51,2.25,4.73,4.73,0,0,0,.51,2.25,3.86,3.86,0,0,0,1.37,1.51,3.5,3.5,0,0,0,3.67,0Z"/><path class="cls-3" d="M236.18,29.93a3.55,3.55,0,0,1-2-3.27,3.28,3.28,0,0,1,1.35-2.79,5.51,5.51,0,0,1,3.4-1,8.16,8.16,0,0,1,1.89.22,5,5,0,0,1,1.33.51v-.68a2.52,2.52,0,0,0-.88-2,3.29,3.29,0,0,0-2.23-.77,3.82,3.82,0,0,0-1.75.41A3.23,3.23,0,0,0,236,21.67l-1.41-1.06A4.48,4.48,0,0,1,236.41,19a5.78,5.78,0,0,1,2.58-.57,5.16,5.16,0,0,1,3.61,1.2,4.23,4.23,0,0,1,1.31,3.28v7.13h-1.79V28.45H242a4,4,0,0,1-1.45,1.39,4.27,4.27,0,0,1-2.19.58A5,5,0,0,1,236.18,29.93Zm4.15-1.66a3.63,3.63,0,0,0,1.31-1.3,3.45,3.45,0,0,0,.48-1.79,4.59,4.59,0,0,0-1.3-.57,5.85,5.85,0,0,0-1.64-.22,3.62,3.62,0,0,0-2.33.64,2,2,0,0,0-.78,1.65,1.87,1.87,0,0,0,.71,1.51,2.74,2.74,0,0,0,1.79.57A3.32,3.32,0,0,0,240.33,28.27Z"/><path class="cls-3" d="M247.31,29.57a4.69,4.69,0,0,1-1.72-2.18l1.68-.75a3.33,3.33,0,0,0,1.25,1.57,3.19,3.19,0,0,0,1.82.55,3.57,3.57,0,0,0,1.81-.43,1.36,1.36,0,0,0,.75-1.23,1.32,1.32,0,0,0-.6-1.13,5.26,5.26,0,0,0-1.87-.74l-1.37-.36a4.88,4.88,0,0,1-2.21-1.12,2.86,2.86,0,0,1-.28-3.77,3.82,3.82,0,0,1,1.56-1.14,5.6,5.6,0,0,1,2.1-.39,5.37,5.37,0,0,1,2.64.64,3.56,3.56,0,0,1,1.64,1.79l-1.63.75a2.73,2.73,0,0,0-2.67-1.51,3.12,3.12,0,0,0-1.63.43,1.28,1.28,0,0,0-.69,1.1,1.21,1.21,0,0,0,.48,1,3.84,3.84,0,0,0,1.46.63l1.63.42A5.38,5.38,0,0,1,254,25a2.73,2.73,0,0,1,.84,2,2.91,2.91,0,0,1-.6,1.82A3.68,3.68,0,0,1,252.59,30a5.85,5.85,0,0,1-2.25.42A5.21,5.21,0,0,1,247.31,29.57Z"/><path class="cls-3" d="M256.9,16.33a1.3,1.3,0,0,1-.4-.95,1.25,1.25,0,0,1,.4-.94,1.3,1.3,0,0,1,1-.39,1.33,1.33,0,0,1,.95.39,1.28,1.28,0,0,1,.39.94,1.32,1.32,0,0,1-.38.95,1.36,1.36,0,0,1-1.91,0Zm0,2.47h1.85V30.06h-1.85Z"/><path class="cls-3" d="M263.79,29.63a5.36,5.36,0,0,1-2-2.14,6.8,6.8,0,0,1,0-6.13,5.3,5.3,0,0,1,2-2.14,5.61,5.61,0,0,1,2.94-.77,5.34,5.34,0,0,1,3.08.85,4.6,4.6,0,0,1,1.77,2.26l-1.7.71a3.26,3.26,0,0,0-1.24-1.58,3.6,3.6,0,0,0-2-.54,3.44,3.44,0,0,0-1.86.54,4,4,0,0,0-1.38,1.51,5,5,0,0,0,0,4.46,4,4,0,0,0,1.38,1.51,3.36,3.36,0,0,0,1.86.54,3.7,3.7,0,0,0,2.05-.55A3.27,3.27,0,0,0,270,26.59l1.68.71a4.93,4.93,0,0,1-1.84,2.25,5.34,5.34,0,0,1-3.08.87A5.63,5.63,0,0,1,263.79,29.63Z"/><path class="cls-3" d="M279.67,20.5h-2.08V18.8h2.08V17.58a3.52,3.52,0,0,1,.48-1.85,3.37,3.37,0,0,1,1.31-1.23,3.87,3.87,0,0,1,1.81-.43,4.6,4.6,0,0,1,1.65.27v1.83a6.59,6.59,0,0,0-.75-.25,2.93,2.93,0,0,0-.84-.1,1.75,1.75,0,0,0-1.26.52,1.93,1.93,0,0,0-.53,1.44v1h2.9v1.7h-2.9v9.56h-1.87Z"/><path class="cls-3" d="M287.5,29.22a4.77,4.77,0,0,1-1.08-3.33V18.8h1.88v6.8A3.26,3.26,0,0,0,289,28a2.62,2.62,0,0,0,2,.75,2.92,2.92,0,0,0,1.69-.5,3.42,3.42,0,0,0,1.14-1.33,3.69,3.69,0,0,0,.41-1.72V18.8h1.88V30.06h-1.79V28.43h-.09a3.68,3.68,0,0,1-1.48,1.41,4.34,4.34,0,0,1-2.16.58A3.92,3.92,0,0,1,287.5,29.22Z"/><path class="cls-3" d="M298.9,18.8h1.79v1.66h.09A3.78,3.78,0,0,1,302.26,19a4.27,4.27,0,0,1,2.16-.58,4,4,0,0,1,3.11,1.18,4.63,4.63,0,0,1,1.07,3.21v7.22h-1.88V23.13a3,3,0,0,0-.75-2.28,2.87,2.87,0,0,0-2.05-.7,2.81,2.81,0,0,0-1.63.5A3.38,3.38,0,0,0,301.18,22a3.88,3.88,0,0,0-.4,1.73v6.34H298.9Z"/><path class="cls-3" d="M313.46,29.63a5.46,5.46,0,0,1-2-2.14,6.88,6.88,0,0,1,0-6.13,5.39,5.39,0,0,1,2-2.14,5.58,5.58,0,0,1,2.93-.77,5.35,5.35,0,0,1,3.09.85,4.6,4.6,0,0,1,1.77,2.26l-1.7.71a3.22,3.22,0,0,0-1.25-1.58,3.55,3.55,0,0,0-2-.54,3.44,3.44,0,0,0-1.86.54,4,4,0,0,0-1.38,1.51,5,5,0,0,0,0,4.46,4,4,0,0,0,1.38,1.51,3.36,3.36,0,0,0,1.86.54,3.7,3.7,0,0,0,2.05-.55,3.33,3.33,0,0,0,1.28-1.57l1.68.71a4.93,4.93,0,0,1-1.84,2.25,5.35,5.35,0,0,1-3.09.87A5.59,5.59,0,0,1,313.46,29.63Z"/><path class="cls-3" d="M326.3,30a2.9,2.9,0,0,1-1-.6,2.69,2.69,0,0,1-.67-1,3.81,3.81,0,0,1-.22-1.35V20.5h-2V18.8h2V15.62h1.88V18.8h2.74v1.7h-2.74v6.14a2.23,2.23,0,0,0,.35,1.37,1.54,1.54,0,0,0,1.22.48,2.29,2.29,0,0,0,1.24-.37V30a2.57,2.57,0,0,1-.68.22,4.24,4.24,0,0,1-.87.07A3.49,3.49,0,0,1,326.3,30Z"/><path class="cls-3" d="M331.59,16.33a1.3,1.3,0,0,1-.4-.95,1.25,1.25,0,0,1,.4-.94,1.3,1.3,0,0,1,1-.39,1.31,1.31,0,0,1,.95.39,1.29,1.29,0,0,1,.4.94,1.33,1.33,0,0,1-.39.95,1.36,1.36,0,0,1-1.91,0Zm0,2.47h1.86V30.06h-1.86Z"/><path class="cls-3" d="M338.52,29.62a5.56,5.56,0,0,1-2.06-2.16,6.55,6.55,0,0,1,0-6.05,5.52,5.52,0,0,1,2.06-2.17,6,6,0,0,1,6,0,5.52,5.52,0,0,1,2.06,2.17,6.55,6.55,0,0,1,0,6.05,5.56,5.56,0,0,1-2.06,2.16,6,6,0,0,1-6,0Zm4.92-1.42a3.94,3.94,0,0,0,1.43-1.49,4.63,4.63,0,0,0,.54-2.28,4.57,4.57,0,0,0-.54-2.27,3.8,3.8,0,0,0-1.43-1.49,3.76,3.76,0,0,0-1.94-.52,3.82,3.82,0,0,0-1.94.52,3.76,3.76,0,0,0-1.44,1.49,4.46,4.46,0,0,0-.55,2.27,4.53,4.53,0,0,0,.55,2.28,3.79,3.79,0,0,0,3.38,2A3.85,3.85,0,0,0,343.44,28.2Z"/><path class="cls-3" d="M349.26,18.8h1.79v1.66h.08A3.85,3.85,0,0,1,352.61,19a4.28,4.28,0,0,1,2.17-.58,4,4,0,0,1,3.1,1.18A4.63,4.63,0,0,1,359,22.84v7.22h-1.87V23.13a3,3,0,0,0-.76-2.28,2.87,2.87,0,0,0-2.05-.7,2.8,2.8,0,0,0-1.62.5A3.49,3.49,0,0,0,351.53,22a4,4,0,0,0-.4,1.73v6.34h-1.87Z"/><line class="cls-5" x1="301.56" y1="112.1" x2="301.56" y2="34.59"/><polygon class="cls-3" points="305.27 109.29 301.56 110.87 297.86 109.29 301.56 118.07 305.27 109.29"/><line class="cls-6" x1="50.57" y1="422.35" x2="276.47" y2="196.45"/><line class="cls-7" x1="68.94" y1="403.98" x2="262.21" y2="210.71"/><line class="cls-8" x1="266.32" y1="206.6" x2="270.56" y2="202.36"/><polygon class="cls-9" points="271.45 208.8 269.34 203.58 264.12 201.47 276.47 196.45 271.45 208.8"/><path class="cls-9" d="M268.1,229.69h2v1.81h.1a4.51,4.51,0,0,1,6.21-1.55,3.7,3.7,0,0,1,1.44,1.74,5.14,5.14,0,0,1,1.73-1.74,4.79,4.79,0,0,1,2.51-.65,3.93,3.93,0,0,1,3.2,1.29,5.36,5.36,0,0,1,1.08,3.53V242h-2v-7.6a3.61,3.61,0,0,0-.71-2.49,2.64,2.64,0,0,0-2.08-.78,2.86,2.86,0,0,0-1.67.53,3.66,3.66,0,0,0-1.17,1.43,4.54,4.54,0,0,0-.42,1.94v7h-2.06v-7.58a3.71,3.71,0,0,0-.7-2.51,2.64,2.64,0,0,0-2.06-.78,2.74,2.74,0,0,0-1.67.55,3.69,3.69,0,0,0-1.18,1.45,4.55,4.55,0,0,0-.42,2V242H268.1Z"/><path class="cls-9" d="M290.55,240.4a15.57,15.57,0,0,1,0-12.32,19.36,19.36,0,0,1,3-4.93l1.5,1.07a16.69,16.69,0,0,0-2.71,4.61,14.34,14.34,0,0,0,0,10.82,17,17,0,0,0,2.71,4.61l-1.5,1.06A19.29,19.29,0,0,1,290.55,240.4Z"/><path class="cls-9" d="M300.25,235.76,296,229.69h2.33l3.19,4.57,3.08-4.57H307l-4.31,6.07,4.41,6.27h-2.4l-3.22-4.74L298.29,242h-2.4Z"/><path class="cls-9" d="M307.85,244.26a17.25,17.25,0,0,0,2.71-4.61,14.34,14.34,0,0,0,0-10.82,16.94,16.94,0,0,0-2.71-4.61l1.5-1.07a19.36,19.36,0,0,1,3,4.93,15.57,15.57,0,0,1,0,12.32,19.29,19.29,0,0,1-3,4.92Z"/><line class="cls-6" x1="68.33" y1="303.48" x2="274.46" y2="97.36"/><line class="cls-10" x1="74.24" y1="297.58" x2="268.55" y2="103.27"/><polygon class="cls-11" points="80.69 298.46 75.46 296.35 73.36 291.13 68.33 303.49 80.69 298.46"/><polygon class="cls-11" points="269.44 109.71 267.33 104.49 262.1 102.38 274.46 97.36 269.44 109.71"/><path class="cls-12" d="M66.53,207.88a15.57,15.57,0,0,1,0-12.32,19.12,19.12,0,0,1,3-4.92l1.5,1.06a17,17,0,0,0-2.71,4.61,14.21,14.21,0,0,0,0,10.82,16.69,16.69,0,0,0,2.71,4.61l-1.5,1.07A19.36,19.36,0,0,1,66.53,207.88Z"/><path class="cls-12" d="M73.06,201.17H84.58v1.69H73.06Z"/><path class="cls-12" d="M87.17,207.46c.5-.5,1.49-1.5,3-3s2.52-2.58,3.1-3.21a13,13,0,0,0,1.67-2.08,3.58,3.58,0,0,0,.44-1.82A2.7,2.7,0,0,0,95,196a2.88,2.88,0,0,0-1.09-1,3.47,3.47,0,0,0-1.7-.4,2.9,2.9,0,0,0-2.1.77,3.59,3.59,0,0,0-1,1.66l-1.89-.76a5.46,5.46,0,0,1,.87-1.61,5.3,5.3,0,0,1,1.69-1.42,5.05,5.05,0,0,1,2.52-.6,5.4,5.4,0,0,1,2.7.66A4.79,4.79,0,0,1,96.78,195a4.55,4.55,0,0,1,.65,2.35q0,2.53-2.66,5.25l-5,5h7.81v2H87.17Z"/><path class="cls-12" d="M100,211.53l1.28-2a1.28,1.28,0,0,1-.77-.46,1.39,1.39,0,0,1-.34-.95,1.44,1.44,0,0,1,.45-1.07,1.49,1.49,0,0,1,1.1-.45,1.5,1.5,0,0,1,1.1.45,1.44,1.44,0,0,1,.45,1.07,1.93,1.93,0,0,1-.17.79,6.59,6.59,0,0,1-.51.86l-1.6,2.42Z"/><path class="cls-12" d="M111.73,201.17h11.52v1.69H111.73Z"/><path class="cls-12" d="M125.84,207.46c.5-.5,1.5-1.5,3-3s2.52-2.58,3.1-3.21a13.61,13.61,0,0,0,1.67-2.08,3.58,3.58,0,0,0,.44-1.82,2.7,2.7,0,0,0-.38-1.37,2.88,2.88,0,0,0-1.09-1,3.47,3.47,0,0,0-1.7-.4,2.89,2.89,0,0,0-2.1.77,3.61,3.61,0,0,0-1,1.66l-1.89-.76a5.75,5.75,0,0,1,.88-1.61,5.3,5.3,0,0,1,1.69-1.42,5.05,5.05,0,0,1,2.52-.6,5.45,5.45,0,0,1,2.7.66,4.69,4.69,0,0,1,1.82,1.74,4.47,4.47,0,0,1,.66,2.35q0,2.53-2.66,5.25l-5,5h7.82v2H125.84Z"/><path class="cls-12" d="M138,211.74a16.94,16.94,0,0,0,2.71-4.61,14.34,14.34,0,0,0,0-10.82A17.25,17.25,0,0,0,138,191.7l1.5-1.06a19.12,19.12,0,0,1,3,4.92,15.57,15.57,0,0,1,0,12.32,19.36,19.36,0,0,1-3,4.93Z"/><circle class="cls-13" cx="155.18" cy="317.3" r="7.07"/><line class="cls-14" x1="154.73" y1="216.59" x2="154.73" y2="311.03"/><polygon class="cls-15" points="150.29 307.66 154.73 309.55 159.18 307.66 154.73 318.19 150.29 307.66"/><path class="cls-12" d="M178.56,320.73a15.57,15.57,0,0,1,0-12.32,19.29,19.29,0,0,1,3-4.92l1.5,1.06a17,17,0,0,0-2.71,4.61,14.34,14.34,0,0,0,0,10.82,16.69,16.69,0,0,0,2.71,4.61l-1.5,1.07A19.36,19.36,0,0,1,178.56,320.73Z"/><path class="cls-12" d="M185.09,314h11.52v1.69H185.09Z"/><path class="cls-12" d="M199.2,320.31c.5-.5,1.49-1.5,3-3s2.52-2.58,3.1-3.21a13,13,0,0,0,1.67-2.08,3.58,3.58,0,0,0,.44-1.82,2.64,2.64,0,0,0-.38-1.36,2.74,2.74,0,0,0-1.09-1,3.37,3.37,0,0,0-1.7-.4,2.9,2.9,0,0,0-2.1.76,3.64,3.64,0,0,0-1,1.66l-1.89-.75a5.45,5.45,0,0,1,2.56-3,5.05,5.05,0,0,1,2.52-.6,5.4,5.4,0,0,1,2.7.66,4.79,4.79,0,0,1,1.83,1.74,4.55,4.55,0,0,1,.65,2.35q0,2.54-2.66,5.25l-5,5h7.81v2H199.2Z"/><path class="cls-12" d="M212.05,324.38l1.28-2a1.28,1.28,0,0,1-.77-.46,1.37,1.37,0,0,1-.34-1,1.45,1.45,0,0,1,.45-1.07,1.49,1.49,0,0,1,1.1-.45,1.5,1.5,0,0,1,1.1.45,1.45,1.45,0,0,1,.45,1.07,1.93,1.93,0,0,1-.17.79,4.91,4.91,0,0,1-.51.86L213,325Z"/><path class="cls-12" d="M223.76,314h11.53v1.69H223.76Z"/><path class="cls-12" d="M238.65,321.81l7.72-14h-8.49v-2H248.5v2.11l-8,14.83Z"/><path class="cls-12" d="M250.07,324.59a17,17,0,0,0,2.72-4.61,14.34,14.34,0,0,0,0-10.82,17.27,17.27,0,0,0-2.72-4.61l1.5-1.06a19.29,19.29,0,0,1,3,4.92,15.57,15.57,0,0,1,0,12.32,19.36,19.36,0,0,1-3,4.93Z"/><circle class="cls-16" cx="155.18" cy="216.59" r="7.07"/></svg>