<svg xmlns="http://www.w3.org/2000/svg" viewBox="0 0 55.3 55.29"><defs><style>.cls-1{fill:#fff;}</style></defs><title>audio_icon_white</title><g id="Layer_2" data-name="Layer 2"><g id="Layer_1-2" data-name="Layer 1"><g id="icons_expand_" data-name="icons expand "><rect class="cls-1" x="9" y="21.25" width="2.47" height="1.3"/><rect class="cls-1" x="8.17" y="27.3" width="3.3" height="1.3"/><rect class="cls-1" x="9" y="33.35" width="2.47" height="1.3"/><path class="cls-1" d="M48.23,11.77a.64.64,0,0,0-.42.81h0A49.94,49.94,0,0,1,50.07,28c0,13.87-4.79,25.23-10.78,26C44.45,50.4,48,40.12,48,28a54.44,54.44,0,0,0-1.55-13.16.65.65,0,0,0-1.26.32h0A52.87,52.87,0,0,1,46.71,28c0,12.8-4.16,23.76-9.72,25.7-4-1.41-7.49-7.77-9-16.47A9.34,9.34,0,0,0,35.7,25.64a.64.64,0,0,0-.78-.47h0a.63.63,0,0,0-.47.75v0a7.89,7.89,0,0,1,.25,2,8.09,8.09,0,0,1-6.84,8c-.09-.69-.18-1.39-.25-2.1a.67.67,0,0,0-.72-.59.66.66,0,0,0-.58.72h0c.9,8.77,3.66,15.67,7.29,19-6-2.16-11.59-7.48-14.75-11A.64.64,0,0,0,18,42h0a.64.64,0,0,0-.05.91h0C22,47.55,30.3,55.29,38.67,55.29c7.12,0,12.7-12,12.7-27.3a51.55,51.55,0,0,0-2.32-15.8.65.65,0,0,0-.82-.42Z"/><path class="cls-1" d="M55.11.19a.66.66,0,0,0-.92,0L47,7.35C44.73,3,41.79.68,38.67.68h-.32C27.53.94,17.08,13.78,15.48,15.83H3.74l-.19.29a21.63,21.63,0,0,0,0,23.74l.19.29H14.23l-11,11a.66.66,0,0,0,0,.92.76.76,0,0,0,.46.19.66.66,0,0,0,.46-.19l51-51A.66.66,0,0,0,55.11.19ZM46.05,8.33l-1.3,1.31c-1.48-3.53-3.35-6.13-5.44-7.59C41.78,2.38,44.14,4.57,46.05,8.33ZM27.81,20.05a7.94,7.94,0,0,1,4.37,2.15l-4.91,4.91A55.5,55.5,0,0,1,27.81,20.05Zm.2-1.28c1.43-8.62,4.83-15.06,8.93-16.49,2.61.88,5,3.84,6.8,8.36L33.1,21.28A9.24,9.24,0,0,0,28,18.77ZM26,28v.42l-10,10A26.62,26.62,0,0,1,14,28c0-.9.05-1.81.13-2.7a.64.64,0,0,0-.56-.71h0a.64.64,0,0,0-.71.58c-.09.93-.14,1.88-.14,2.83a27.84,27.84,0,0,0,2.1,10.85H8.36A26.37,26.37,0,0,1,6.09,28,26.39,26.39,0,0,1,8.36,17.13h6.45a25.61,25.61,0,0,0-1,2.87.65.65,0,0,0,.44.8h.18a.65.65,0,0,0,.63-.47,23.34,23.34,0,0,1,1.34-3.55c.19-.24.94-1.18,2.1-2.49A48.6,48.6,0,0,0,16.38,28a42.41,42.41,0,0,0,.33,5.28.66.66,0,0,0,.64.57h.08a.66.66,0,0,0,.57-.72A42.06,42.06,0,0,1,17.68,28a49.69,49.69,0,0,1,2.81-15.84c3.21-3.27,7.94-7.33,13-9.18C29,7.16,26,16.66,26,28ZM1.3,28A20.21,20.21,0,0,1,4.45,17.13H6.94a28.47,28.47,0,0,0,0,21.72H4.45A20.26,20.26,0,0,1,1.3,28Z"/></g></g></g></svg>