<svg xmlns="http://www.w3.org/2000/svg" viewBox="0 0 55.3 55.29"><defs><style>.cls-1{fill:#414042;}</style></defs><title>audio_icon</title><g id="Layer_2" data-name="Layer 2"><g id="icons_expand_" data-name="icons [expand]"><rect class="cls-1" x="9" y="21.25" width="2.47" height="1.3"/><rect class="cls-1" x="8.17" y="27.3" width="3.3" height="1.3"/><rect class="cls-1" x="9" y="33.35" width="2.47" height="1.3"/><path class="cls-1" d="M48.23,11.77a.65.65,0,0,0-.42.82A49.94,49.94,0,0,1,50.07,28c0,13.87-4.79,25.23-10.78,26C44.45,50.4,48,40.12,48,28a54.51,54.51,0,0,0-1.55-13.16.66.66,0,0,0-.79-.47.65.65,0,0,0-.47.79A52.93,52.93,0,0,1,46.71,28c0,12.8-4.16,23.76-9.72,25.7-4-1.41-7.49-7.77-9-16.47A9.38,9.38,0,0,0,36,28a9.14,9.14,0,0,0-.3-2.36.64.64,0,0,0-.79-.46.63.63,0,0,0-.46.79,8,8,0,0,1,.25,2,8.08,8.08,0,0,1-6.84,8c-.09-.69-.18-1.39-.25-2.1a.65.65,0,0,0-1.3.13c.9,8.77,3.66,15.67,7.29,19.05-6-2.16-11.59-7.48-14.75-11a.64.64,0,0,0-.91-.05.65.65,0,0,0-.05.92C22,47.55,30.3,55.29,38.67,55.29c7.12,0,12.7-12,12.7-27.3a51.53,51.53,0,0,0-2.32-15.8A.65.65,0,0,0,48.23,11.77Z"/><path class="cls-1" d="M55.11.19a.66.66,0,0,0-.92,0L47,7.35C44.73,3,41.79.68,38.67.68l-.32,0C27.53.94,17.08,13.78,15.48,15.83H3.74l-.19.29a21.62,21.62,0,0,0,0,23.74l.19.29H14.23l-11,11a.66.66,0,0,0,0,.92.7.7,0,0,0,.46.19.66.66,0,0,0,.46-.19l51-51A.66.66,0,0,0,55.11.19ZM46.05,8.33l-1.3,1.31c-1.48-3.53-3.35-6.13-5.44-7.59C41.78,2.38,44.14,4.57,46.05,8.33ZM27.81,20.05a8,8,0,0,1,4.37,2.15l-4.91,4.91A56.5,56.5,0,0,1,27.81,20.05Zm.2-1.28c1.43-8.62,4.83-15.06,8.93-16.49,2.61.88,5,3.84,6.8,8.36L33.1,21.28A9.25,9.25,0,0,0,28,18.77ZM26,28c0,.14,0,.28,0,.42l-10,10A26.52,26.52,0,0,1,14,28c0-.9.05-1.81.13-2.7a.64.64,0,0,0-.58-.71.65.65,0,0,0-.71.58c-.09.93-.14,1.88-.14,2.83A27.8,27.8,0,0,0,14.8,38.85H8.36A26.29,26.29,0,0,1,6.09,28,26.33,26.33,0,0,1,8.36,17.13h6.45a25.63,25.63,0,0,0-1,2.87.65.65,0,0,0,.44.8.57.57,0,0,0,.18,0,.65.65,0,0,0,.63-.47,23.86,23.86,0,0,1,1.34-3.55c.19-.24.94-1.18,2.1-2.49A48.7,48.7,0,0,0,16.38,28a43.26,43.26,0,0,0,.33,5.28.65.65,0,0,0,.64.57h.08a.65.65,0,0,0,.57-.72A42.81,42.81,0,0,1,17.68,28a49.64,49.64,0,0,1,2.81-15.84c3.21-3.27,7.94-7.33,13-9.18C29,7.16,26,16.66,26,28ZM1.3,28A20.19,20.19,0,0,1,4.45,17.13H6.94a28.5,28.5,0,0,0,0,21.72H4.45A20.19,20.19,0,0,1,1.3,28Z"/></g></g></svg>