<svg id="Mathematic_Background" data-name="Mathematic Background" xmlns="http://www.w3.org/2000/svg" viewBox="0 0 644 393.5">
  <defs>
    <style>
      .cls-1 {
        fill: orange;
        opacity: 0.5;
      }

      .cls-2 {
        fill: #9964aa;
      }

      .cls-3 {
        fill: none;
        stroke: #9964aa;
        stroke-linecap: round;
        stroke-linejoin: round;
        stroke-width: 2px;
      }
    </style>
  </defs>
  <title>sbs_cotf5</title>
  <g>
    <path class="cls-1" d="M218.48,197c1.48-1.48,4.44-4.47,8.85-9s7.49-7.67,9.22-9.54a39.82,39.82,0,0,0,5-6.19,10.63,10.63,0,0,0,1.29-5.4,8,8,0,0,0-1.11-4.07,8.47,8.47,0,0,0-3.24-3.09,10.18,10.18,0,0,0-5.08-1.19,8.54,8.54,0,0,0-6.23,2.27,10.77,10.77,0,0,0-3.06,4.93l-5.61-2.24a16.19,16.19,0,0,1,7.63-9,15.11,15.11,0,0,1,7.49-1.76,16.21,16.21,0,0,1,8,1.94,14.32,14.32,0,0,1,5.43,5.18,13.31,13.31,0,0,1,1.94,7q0,7.56-7.92,15.62l-14.76,14.83h23.26v5.83h-31.1Z"/>
    <path d="M215.24,219.06h34.27v5H215.24Z"/>
    <path class="cls-2" d="M227.69,294.8a16.52,16.52,0,0,1-5.87-4.07,16.12,16.12,0,0,1-3.78-6.94l5.55-2.31a12.39,12.39,0,0,0,3.92,6.48,9.87,9.87,0,0,0,6.52,2.31,11.29,11.29,0,0,0,5.11-1.19,9.64,9.64,0,0,0,3.78-3.31,8.35,8.35,0,0,0,1.4-4.72,8,8,0,0,0-1.4-4.61,9.62,9.62,0,0,0-3.82-3.27,11.68,11.68,0,0,0-5.29-1.19h-4.25v-5.69h3.82A9.85,9.85,0,0,0,240,264a7.48,7.48,0,0,0,2.67-6,6.81,6.81,0,0,0-2.59-5.55,9.91,9.91,0,0,0-6.41-2.08,8.4,8.4,0,0,0-5.87,1.94,11,11,0,0,0-3.06,4.75l-5.61-2.37a15.68,15.68,0,0,1,5-7,14.26,14.26,0,0,1,9.54-3.14,17.14,17.14,0,0,1,7.77,1.73,13.36,13.36,0,0,1,5.44,4.83,12.55,12.55,0,0,1,2,6.91,10.75,10.75,0,0,1-1.94,6.48,14,14,0,0,1-4.83,4.18V269a14.26,14.26,0,0,1,6,4.65,11.9,11.9,0,0,1,2.38,7.38,14.2,14.2,0,0,1-2.2,7.77,15,15,0,0,1-6,5.4,17.85,17.85,0,0,1-8.31,2A16.88,16.88,0,0,1,227.69,294.8Z"/>
  </g>
  <g>
    <path class="cls-1" d="M405.32,197q2.24-2.22,8.85-9t9.22-9.54a39.22,39.22,0,0,0,5-6.19,10.63,10.63,0,0,0,1.3-5.4,8,8,0,0,0-1.12-4.07,8.47,8.47,0,0,0-3.24-3.09,10.18,10.18,0,0,0-5.08-1.19,8.5,8.5,0,0,0-6.22,2.27,10.71,10.71,0,0,0-3.07,4.93l-5.61-2.24a16.19,16.19,0,0,1,7.63-9,15.11,15.11,0,0,1,7.49-1.76,16.21,16.21,0,0,1,8,1.94,14.25,14.25,0,0,1,5.43,5.18,13.32,13.32,0,0,1,2,7q0,7.56-7.92,15.62l-14.76,14.83h23.25v5.83h-31.1Z"/>
    <path d="M402.08,219.06h34.27v5H402.08Z"/>
    <path class="cls-2" d="M413.42,293.72a16.93,16.93,0,0,1-6-6.15,16.12,16.12,0,0,1-2.12-8,18.5,18.5,0,0,1,1.62-7.6,54.73,54.73,0,0,1,4.64-8.1l12.89-19.37,4.9,3.39L417,265.28l.15.14a10.74,10.74,0,0,1,6.33-1.72,14.41,14.41,0,0,1,7.35,2.09,16.7,16.7,0,0,1,5.86,5.72,14.91,14.91,0,0,1,2.27,8.1,15.35,15.35,0,0,1-2.3,8.1,17.75,17.75,0,0,1-6.16,6.08,15.89,15.89,0,0,1-8.31,2.31A16.27,16.27,0,0,1,413.42,293.72Zm14.08-4.86a10.53,10.53,0,0,0,3.88-3.82,10.57,10.57,0,0,0,0-10.65,10.64,10.64,0,0,0-9.21-5.22,10.81,10.81,0,0,0-5.37,1.4,10.57,10.57,0,0,0-3.92,3.82,10.57,10.57,0,0,0,0,10.65,10.49,10.49,0,0,0,3.92,3.82,10.72,10.72,0,0,0,5.37,1.41A10.52,10.52,0,0,0,427.5,288.86Z"/>
  </g>
  <g>
    <rect class="cls-1" x="471.16" y="296.93" width="148.03" height="49.96"/>
    <rect class="cls-1" x="471.16" y="246.89" width="148.03" height="49.96"/>
    <rect class="cls-3" x="471.16" y="46.89" width="148.03" height="300"/>
    <rect class="cls-3" x="471.16" y="296.93" width="148.03" height="49.96"/>
    <rect class="cls-3" x="471.16" y="246.97" width="148.03" height="49.96"/>
    <rect class="cls-3" x="471.16" y="196.86" width="148.03" height="49.96"/>
    <rect class="cls-3" x="471.16" y="146.75" width="148.03" height="49.96"/>
    <rect class="cls-3" x="471.16" y="96.79" width="148.03" height="49.96"/>
  </g>
  <g>
    <rect class="cls-1" x="26.42" y="146.89" width="148.03" height="200"/>
    <rect class="cls-3" x="26.42" y="46.89" width="148.03" height="300"/>
    <rect class="cls-3" x="26.42" y="246.89" width="148.03" height="100"/>
    <rect class="cls-3" x="26.42" y="146.89" width="148.03" height="100"/>
  </g>
  <path d="M313.42,230.11l21.09-9.72v-.29l-21.09-9.72v-5.62L341,218v4.47l-27.57,13.24Z"/>
  <g>
    <path d="M202.29,57.76c.5-.49,1.48-1.49,3-3s2.5-2.55,3.07-3.18A13,13,0,0,0,210,49.53a3.53,3.53,0,0,0,.43-1.8,2.65,2.65,0,0,0-.37-1.36,2.9,2.9,0,0,0-1.08-1,3.46,3.46,0,0,0-1.69-.39,2.87,2.87,0,0,0-2.08.75,3.61,3.61,0,0,0-1,1.65l-1.87-.75a5.44,5.44,0,0,1,.86-1.59,5.25,5.25,0,0,1,1.68-1.42,5.11,5.11,0,0,1,2.5-.59,5.45,5.45,0,0,1,2.68.65,4.78,4.78,0,0,1,1.81,1.73,4.45,4.45,0,0,1,.65,2.33q0,2.52-2.64,5.2l-4.92,5h7.75V59.8H202.29Z"/>
    <path d="M224.21,59.75a3.1,3.1,0,0,1-1.06-.64,2.93,2.93,0,0,1-.73-1.06,4,4,0,0,1-.23-1.46V49.41h-2.14V47.56h2.14V44.11h2v3.45h3v1.85h-3v6.67a2.35,2.35,0,0,0,.38,1.49,1.65,1.65,0,0,0,1.32.53,2.5,2.5,0,0,0,1.34-.41v2a3.28,3.28,0,0,1-.73.24,5,5,0,0,1-.95.07A3.93,3.93,0,0,1,224.21,59.75Z"/>
    <path d="M229.79,42.62h2v5.06l-.09,1.68h.09a4.08,4.08,0,0,1,1.6-1.56,4.78,4.78,0,0,1,2.39-.62,4.31,4.31,0,0,1,3.4,1.31A4.94,4.94,0,0,1,240.4,52V59.8h-2V52.27a3.22,3.22,0,0,0-.84-2.45,3,3,0,0,0-2.18-.79,3,3,0,0,0-1.77.57A4.26,4.26,0,0,0,231.83,53V59.8h-2Z"/>
    <path d="M243.5,44.87a1.39,1.39,0,0,1-.44-1,1.37,1.37,0,0,1,.44-1,1.41,1.41,0,0,1,1-.42,1.43,1.43,0,0,1,1,.42,1.36,1.36,0,0,1,.43,1,1.47,1.47,0,0,1-1.46,1.47A1.39,1.39,0,0,1,243.5,44.87Zm0,2.69h2V59.8h-2Z"/>
    <path d="M248.75,47.56h1.95v2h.09a3.33,3.33,0,0,1,1.39-1.67,4,4,0,0,1,2.16-.66,3.88,3.88,0,0,1,1.44.24v2.21a3.72,3.72,0,0,0-1.72-.38,2.83,2.83,0,0,0-1.64.5,3.64,3.64,0,0,0-1.18,1.36,3.84,3.84,0,0,0-.45,1.83V59.8h-2Z"/>
    <path d="M259.25,59.35a5.9,5.9,0,0,1-2.1-2.32,7.63,7.63,0,0,1,0-6.68,5.79,5.79,0,0,1,2.1-2.33,5.46,5.46,0,0,1,3-.84,5,5,0,0,1,2.52.63,4.75,4.75,0,0,1,1.68,1.58h.09l-.09-1.71V42.62h2V59.8h-1.95V58h-.09a4.77,4.77,0,0,1-1.68,1.55,5,5,0,0,1-2.52.64A5.46,5.46,0,0,1,259.25,59.35Zm5.21-1.59A4.21,4.21,0,0,0,266,56.13a5.64,5.64,0,0,0,0-4.9,4.28,4.28,0,0,0-1.49-1.63,3.74,3.74,0,0,0-2-.57,3.79,3.79,0,0,0-2,.57,4.22,4.22,0,0,0-1.5,1.65,5.57,5.57,0,0,0,0,4.87,4.19,4.19,0,0,0,1.5,1.64,3.72,3.72,0,0,0,2,.58A3.67,3.67,0,0,0,264.46,57.76Z"/>
    <path d="M272.34,59.26a5,5,0,0,1-1.87-2.36l1.83-.82a3.63,3.63,0,0,0,1.35,1.71,3.49,3.49,0,0,0,2,.6,3.91,3.91,0,0,0,2-.47,1.48,1.48,0,0,0,.82-1.33,1.46,1.46,0,0,0-.65-1.24,5.93,5.93,0,0,0-2-.8l-1.49-.39a5.36,5.36,0,0,1-2.4-1.22,3.07,3.07,0,0,1-.3-4.09,4.05,4.05,0,0,1,1.69-1.24,6,6,0,0,1,2.28-.43,5.89,5.89,0,0,1,2.87.69,4,4,0,0,1,1.79,2l-1.78.81a3,3,0,0,0-2.9-1.63,3.34,3.34,0,0,0-1.77.47,1.38,1.38,0,0,0-.75,1.19,1.3,1.3,0,0,0,.53,1.09,4.11,4.11,0,0,0,1.58.68l1.78.46a5.8,5.8,0,0,1,2.71,1.36,3,3,0,0,1,.91,2.19,3.2,3.2,0,0,1-.65,2,4,4,0,0,1-1.75,1.31,6.44,6.44,0,0,1-2.45.46A5.58,5.58,0,0,1,272.34,59.26Z"/>
    <path d="M288.45,44.87a1.38,1.38,0,0,1-.43-1,1.36,1.36,0,0,1,.43-1,1.47,1.47,0,0,1,2.06,0,1.36,1.36,0,0,1,.43,1,1.41,1.41,0,0,1-.42,1,1.38,1.38,0,0,1-1,.44A1.41,1.41,0,0,1,288.45,44.87Zm0,2.69h2V59.8h-2Z"/>
    <path d="M294.69,59.26a5,5,0,0,1-1.87-2.36l1.82-.82A3.65,3.65,0,0,0,296,57.79a3.49,3.49,0,0,0,2,.6,3.89,3.89,0,0,0,2-.47,1.5,1.5,0,0,0,.17-2.57,5.93,5.93,0,0,0-2-.8l-1.49-.39a5.46,5.46,0,0,1-2.4-1.22,3.1,3.1,0,0,1-.3-4.09,4.09,4.09,0,0,1,1.7-1.24,6.27,6.27,0,0,1,5.14.26,4,4,0,0,1,1.79,2l-1.77.81A3,3,0,0,0,297.83,49a3.28,3.28,0,0,0-1.76.47,1.37,1.37,0,0,0-.76,1.19,1.33,1.33,0,0,0,.53,1.09,4.11,4.11,0,0,0,1.58.68l1.78.46a5.8,5.8,0,0,1,2.71,1.36,3,3,0,0,1,.91,2.19,3.19,3.19,0,0,1-.64,2,4.13,4.13,0,0,1-1.76,1.31,6.39,6.39,0,0,1-2.44.46A5.56,5.56,0,0,1,294.69,59.26Z"/>
    <path d="M312.44,64.36a4.91,4.91,0,0,1-1.89-2.42l1.85-.79a3.61,3.61,0,0,0,1.36,1.71,3.82,3.82,0,0,0,2.24.66,3.88,3.88,0,0,0,2.94-1.1,4.36,4.36,0,0,0,1-3.12V57.93h-.09a4.54,4.54,0,0,1-1.69,1.52,5.09,5.09,0,0,1-2.49.59,5.39,5.39,0,0,1-2.89-.81A6,6,0,0,1,310.74,57a7.68,7.68,0,0,1,0-6.66,5.88,5.88,0,0,1,2.08-2.3,5.39,5.39,0,0,1,2.89-.81,5.09,5.09,0,0,1,2.49.59,4.43,4.43,0,0,1,1.69,1.54H320V47.56h1.95V59.32a5.93,5.93,0,0,1-1.63,4.5,6.76,6.76,0,0,1-7.86.54ZM318,57.64a4,4,0,0,0,1.44-1.58,5.87,5.87,0,0,0,0-4.92A3.85,3.85,0,0,0,318,49.57a4,4,0,0,0-4,0,4,4,0,0,0-1.45,1.58,5.24,5.24,0,0,0-.54,2.45,5.31,5.31,0,0,0,.54,2.46A3.84,3.84,0,0,0,314,57.65a3.89,3.89,0,0,0,2,.54A3.71,3.71,0,0,0,318,57.64Z"/>
    <path d="M325,47.56h1.95v2H327a3.33,3.33,0,0,1,1.39-1.67,4,4,0,0,1,2.16-.66,3.88,3.88,0,0,1,1.44.24v2.21a3.75,3.75,0,0,0-1.72-.38,2.83,2.83,0,0,0-1.64.5,3.64,3.64,0,0,0-1.18,1.36A3.84,3.84,0,0,0,327,53V59.8h-2Z"/>
    <path d="M335.54,59.35A5.87,5.87,0,0,1,333.36,57a7,7,0,0,1-.78-3.32,7.27,7.27,0,0,1,.74-3.27,5.88,5.88,0,0,1,2.07-2.37,5.49,5.49,0,0,1,3.12-.89,5.93,5.93,0,0,1,3.12.8,5.38,5.38,0,0,1,2,2.22,7.21,7.21,0,0,1,.71,3.24,2.88,2.88,0,0,1-.07.63h-9.68a4.88,4.88,0,0,0,.68,2.35,3.88,3.88,0,0,0,1.52,1.44,4.15,4.15,0,0,0,1.93.48,4,4,0,0,0,3.63-2.21l1.72.84A6.08,6.08,0,0,1,342,59.32a6.45,6.45,0,0,1-6.42,0Zm6.67-7a4,4,0,0,0-.43-1.54,3.35,3.35,0,0,0-1.22-1.3,3.79,3.79,0,0,0-2.07-.52,3.43,3.43,0,0,0-2.44.92,4.5,4.5,0,0,0-1.31,2.44Z"/>
    <path d="M348.38,59.66a4,4,0,0,1-1.64-1.45,3.94,3.94,0,0,1-.57-2.1,3.57,3.57,0,0,1,1.46-3,6,6,0,0,1,3.7-1.09,8.35,8.35,0,0,1,2.05.24,5.18,5.18,0,0,1,1.45.55V52a2.75,2.75,0,0,0-1-2.2,3.59,3.59,0,0,0-2.42-.83,4.06,4.06,0,0,0-1.9.45,3.4,3.4,0,0,0-1.37,1.23l-1.53-1.15a4.91,4.91,0,0,1,2-1.73,6.28,6.28,0,0,1,2.79-.62,5.57,5.57,0,0,1,3.93,1.31,4.6,4.6,0,0,1,1.43,3.56V59.8h-1.95V58.05h-.1a4.26,4.26,0,0,1-1.58,1.51,4.54,4.54,0,0,1-2.37.63A5.3,5.3,0,0,1,348.38,59.66Zm4.51-1.8a4,4,0,0,0,1.41-1.42,3.75,3.75,0,0,0,.53-1.94,5,5,0,0,0-1.41-.63,6.48,6.48,0,0,0-1.78-.24,3.93,3.93,0,0,0-2.53.7,2.21,2.21,0,0,0-.86,1.8,2,2,0,0,0,.77,1.63,3,3,0,0,0,2,.63A3.75,3.75,0,0,0,352.89,57.86Z"/>
    <path d="M362.69,59.75a3.24,3.24,0,0,1-1.07-.64,3,3,0,0,1-.72-1.06,4,4,0,0,1-.24-1.46V49.41h-2.13V47.56h2.13V44.11h2v3.45h3v1.85h-3v6.67a2.35,2.35,0,0,0,.39,1.49,1.65,1.65,0,0,0,1.32.53,2.5,2.5,0,0,0,1.34-.41v2a3.28,3.28,0,0,1-.73.24,5,5,0,0,1-.95.07A3.89,3.89,0,0,1,362.69,59.75Z"/>
    <path d="M369.93,59.35A5.85,5.85,0,0,1,367.76,57a7,7,0,0,1-.79-3.32,7.27,7.27,0,0,1,.74-3.27,6,6,0,0,1,2.07-2.37,5.49,5.49,0,0,1,3.12-.89A5.93,5.93,0,0,1,376,48a5.38,5.38,0,0,1,2,2.22,7.21,7.21,0,0,1,.71,3.24,2.38,2.38,0,0,1-.07.63H369a4.77,4.77,0,0,0,.67,2.35,4,4,0,0,0,1.52,1.44,4.15,4.15,0,0,0,1.93.48,4,4,0,0,0,3.63-2.21l1.73.84a6.18,6.18,0,0,1-2.15,2.35,6.45,6.45,0,0,1-6.42,0Zm6.67-7a4,4,0,0,0-.43-1.54,3.4,3.4,0,0,0-1.21-1.3,3.85,3.85,0,0,0-2.08-.52,3.45,3.45,0,0,0-2.44.92,4.5,4.5,0,0,0-1.31,2.44Z"/>
    <path d="M381.13,47.56h1.95v2h.09a3.35,3.35,0,0,1,1.4-1.67,4.07,4.07,0,0,1,3.6-.42v2.21a3.76,3.76,0,0,0-1.73-.38,2.8,2.8,0,0,0-1.63.5,3.66,3.66,0,0,0-1.19,1.36,3.84,3.84,0,0,0-.45,1.83V59.8h-2Z"/>
    <path d="M399,59.75a3.14,3.14,0,0,1-1.07-.64,3,3,0,0,1-.72-1.06,4,4,0,0,1-.24-1.46V49.41h-2.14V47.56H397V44.11h2v3.45h3v1.85h-3v6.67a2.42,2.42,0,0,0,.38,1.49,1.67,1.67,0,0,0,1.32.53,2.53,2.53,0,0,0,1.35-.41v2a3.36,3.36,0,0,1-.74.24,4.87,4.87,0,0,1-.94.07A3.85,3.85,0,0,1,399,59.75Z"/>
    <path d="M404.61,42.62h2v5.06l-.1,1.68h.1a4,4,0,0,1,1.59-1.56,4.81,4.81,0,0,1,2.39-.62A4.33,4.33,0,0,1,414,48.49,5,5,0,0,1,415.21,52V59.8h-2V52.27a3.22,3.22,0,0,0-.84-2.45,3,3,0,0,0-2.18-.79,3,3,0,0,0-1.76.57,4.2,4.2,0,0,0-1.28,1.49,4.13,4.13,0,0,0-.46,1.9V59.8h-2Z"/>
    <path d="M419.54,59.66a4,4,0,0,1-1.64-1.45,3.94,3.94,0,0,1-.57-2.1,3.57,3.57,0,0,1,1.46-3,6,6,0,0,1,3.7-1.09,8.35,8.35,0,0,1,2.05.24,5.31,5.31,0,0,1,1.45.55V52a2.75,2.75,0,0,0-1-2.2,3.59,3.59,0,0,0-2.42-.83,4.06,4.06,0,0,0-1.9.45,3.4,3.4,0,0,0-1.37,1.23l-1.53-1.15a4.91,4.91,0,0,1,2-1.73,6.28,6.28,0,0,1,2.79-.62,5.57,5.57,0,0,1,3.93,1.31,4.59,4.59,0,0,1,1.42,3.56V59.8H426V58.05h-.1a4.34,4.34,0,0,1-1.58,1.51,4.55,4.55,0,0,1-2.38.63A5.28,5.28,0,0,1,419.54,59.66Zm4.51-1.8a4,4,0,0,0,1.41-1.42A3.75,3.75,0,0,0,426,54.5a5,5,0,0,0-1.41-.63,6.54,6.54,0,0,0-1.78-.24,3.93,3.93,0,0,0-2.53.7,2.2,2.2,0,0,0-.85,1.8,2,2,0,0,0,.76,1.63,3,3,0,0,0,1.95.63A3.73,3.73,0,0,0,424.05,57.86Z"/>
    <path d="M430.77,47.56h1.94v1.8h.1a4.09,4.09,0,0,1,1.61-1.55,4.63,4.63,0,0,1,2.35-.63,4.34,4.34,0,0,1,3.37,1.28A5,5,0,0,1,441.3,52V59.8h-2V52.27a3.3,3.3,0,0,0-.81-2.48,3.15,3.15,0,0,0-2.24-.76,3,3,0,0,0-1.76.55A3.73,3.73,0,0,0,433.24,51a4.27,4.27,0,0,0-.43,1.88V59.8h-2Z"/>
    <path d="M283,86.56c.5-.49,1.48-1.49,2.95-3S288.4,81,289,80.39a13.4,13.4,0,0,0,1.65-2.06,3.53,3.53,0,0,0,.43-1.8,2.65,2.65,0,0,0-.37-1.36,2.9,2.9,0,0,0-1.08-1,3.43,3.43,0,0,0-1.69-.39,2.89,2.89,0,0,0-2.08.75,3.61,3.61,0,0,0-1,1.65L283,75.4a5.26,5.26,0,0,1,.87-1.59,5.12,5.12,0,0,1,4.17-2,5.45,5.45,0,0,1,2.68.65,4.78,4.78,0,0,1,1.81,1.73,4.45,4.45,0,0,1,.65,2.33q0,2.52-2.64,5.2l-4.92,5h7.75V88.6H283Z"/>
    <path d="M302.54,88.06a5,5,0,0,1-1.88-2.36l1.83-.82a3.63,3.63,0,0,0,1.35,1.71,3.49,3.49,0,0,0,2,.6,3.91,3.91,0,0,0,2-.47,1.5,1.5,0,0,0,.17-2.57,5.93,5.93,0,0,0-2-.8L304.43,83a5.46,5.46,0,0,1-2.4-1.22,3.1,3.1,0,0,1-.3-4.09,4.12,4.12,0,0,1,1.69-1.24A6,6,0,0,1,305.7,76a5.86,5.86,0,0,1,2.87.69,4,4,0,0,1,1.79,2l-1.78.81a3,3,0,0,0-2.9-1.63,3.28,3.28,0,0,0-1.76.47,1.37,1.37,0,0,0-.76,1.19,1.33,1.33,0,0,0,.53,1.09,4.11,4.11,0,0,0,1.58.68l1.78.46a5.8,5.8,0,0,1,2.71,1.36,3,3,0,0,1,.91,2.19,3.14,3.14,0,0,1-.65,2,4,4,0,0,1-1.75,1.31,6.4,6.4,0,0,1-2.45.46A5.55,5.55,0,0,1,302.54,88.06Z"/>
    <path d="M313,73.67a1.38,1.38,0,0,1-.43-1,1.36,1.36,0,0,1,.43-1,1.43,1.43,0,0,1,1-.42,1.45,1.45,0,0,1,1,.42,1.46,1.46,0,1,1-2.07,2Zm0,2.69h2V88.6h-2Z"/>
    <path d="M321.33,82.39l-4.25-6h2.3l3.17,4.54,3.05-4.54H328l-4.28,6,4.37,6.21H325.7l-3.2-4.7-3.12,4.7H317Z"/>
    <path d="M333.22,88.55a3.24,3.24,0,0,1-1.07-.64,3,3,0,0,1-.72-1.06,4,4,0,0,1-.24-1.46V78.21h-2.13V76.36h2.13V72.91h2v3.45h3v1.85h-3v6.67a2.35,2.35,0,0,0,.39,1.49,1.65,1.65,0,0,0,1.32.53,2.5,2.5,0,0,0,1.34-.41v2a3.28,3.28,0,0,1-.73.24,5.05,5.05,0,0,1-.95.07A3.85,3.85,0,0,1,333.22,88.55Z"/>
    <path d="M338.8,71.42h2v5.06l-.1,1.68h.1a4.08,4.08,0,0,1,1.6-1.56,4.75,4.75,0,0,1,2.38-.62,4.32,4.32,0,0,1,3.41,1.31,4.94,4.94,0,0,1,1.18,3.46V88.6h-2V81.07a3.22,3.22,0,0,0-.84-2.45,3.05,3.05,0,0,0-2.19-.79,3,3,0,0,0-1.76.57,4.08,4.08,0,0,0-1.27,1.49,4.14,4.14,0,0,0-.47,1.9V88.6h-2Z"/>
    <path d="M353.2,88.06a5,5,0,0,1-1.87-2.36l1.82-.82a3.71,3.71,0,0,0,1.36,1.71,3.49,3.49,0,0,0,2,.6,3.93,3.93,0,0,0,2-.47,1.47,1.47,0,0,0,.81-1.33,1.43,1.43,0,0,0-.65-1.24,5.93,5.93,0,0,0-2-.8L355.1,83a5.36,5.36,0,0,1-2.4-1.22,3.07,3.07,0,0,1-.3-4.09,4,4,0,0,1,1.69-1.24,6.29,6.29,0,0,1,5.15.26,4,4,0,0,1,1.78,2l-1.77.81a3,3,0,0,0-2.91-1.63,3.28,3.28,0,0,0-1.76.47,1.39,1.39,0,0,0-.76,1.19,1.33,1.33,0,0,0,.53,1.09,4.09,4.09,0,0,0,1.59.68l1.77.46a5.75,5.75,0,0,1,2.71,1.36,3,3,0,0,1,.92,2.19,3.2,3.2,0,0,1-.65,2,4.09,4.09,0,0,1-1.75,1.31,6.48,6.48,0,0,1-2.45.46A5.58,5.58,0,0,1,353.2,88.06Z"/>
  </g>
</svg>
