<svg xmlns="http://www.w3.org/2000/svg" viewBox="0 0 56.71 56.71"><defs><style>.cls-1,.cls-2{fill:none;stroke-miterlimit:10;}.cls-1{stroke:#b5d9d6;stroke-width:0.6px;}.cls-2{stroke:#99ccc7;stroke-width:1.21px;}</style></defs><title>grid_icon</title><g id="Layer_2" data-name="Layer 2"><g id="Objects"><rect class="cls-1" x="0.6" y="0.6" width="5.55" height="5.55"/><rect class="cls-1" x="6.16" y="0.6" width="5.55" height="5.55"/><rect class="cls-1" x="11.71" y="0.6" width="5.55" height="5.55"/><rect class="cls-1" x="17.26" y="0.6" width="5.55" height="5.55"/><rect class="cls-1" x="22.81" y="0.6" width="5.55" height="5.55"/><rect class="cls-1" x="28.36" y="0.6" width="5.55" height="5.55"/><rect class="cls-1" x="33.91" y="0.6" width="5.55" height="5.55"/><rect class="cls-1" x="39.46" y="0.6" width="5.55" height="5.55"/><rect class="cls-1" x="45.01" y="0.6" width="5.55" height="5.55"/><rect class="cls-1" x="50.56" y="0.6" width="5.55" height="5.55"/><rect class="cls-1" x="0.6" y="6.15" width="5.55" height="5.55"/><rect class="cls-1" x="6.16" y="6.15" width="5.55" height="5.55"/><rect class="cls-1" x="11.71" y="6.15" width="5.55" height="5.55"/><rect class="cls-1" x="17.26" y="6.15" width="5.55" height="5.55"/><rect class="cls-1" x="22.81" y="6.15" width="5.55" height="5.55"/><rect class="cls-1" x="28.36" y="6.15" width="5.55" height="5.55"/><rect class="cls-1" x="33.91" y="6.15" width="5.55" height="5.55"/><rect class="cls-1" x="39.46" y="6.15" width="5.55" height="5.55"/><rect class="cls-1" x="45.01" y="6.15" width="5.55" height="5.55"/><rect class="cls-1" x="50.56" y="6.15" width="5.55" height="5.55"/><rect class="cls-1" x="0.6" y="11.7" width="5.55" height="5.55"/><rect class="cls-1" x="6.16" y="11.7" width="5.55" height="5.55"/><rect class="cls-1" x="11.71" y="11.7" width="5.55" height="5.55"/><rect class="cls-1" x="17.26" y="11.7" width="5.55" height="5.55"/><rect class="cls-1" x="22.81" y="11.7" width="5.55" height="5.55"/><rect class="cls-1" x="28.36" y="11.7" width="5.55" height="5.55"/><rect class="cls-1" x="33.91" y="11.7" width="5.55" height="5.55"/><rect class="cls-1" x="39.46" y="11.7" width="5.55" height="5.55"/><rect class="cls-1" x="45.01" y="11.7" width="5.55" height="5.55"/><rect class="cls-1" x="50.56" y="11.7" width="5.55" height="5.55"/><rect class="cls-1" x="0.6" y="17.26" width="5.55" height="5.55"/><rect class="cls-1" x="6.16" y="17.26" width="5.55" height="5.55"/><rect class="cls-1" x="11.71" y="17.26" width="5.55" height="5.55"/><rect class="cls-1" x="17.26" y="17.26" width="5.55" height="5.55"/><rect class="cls-1" x="22.81" y="17.26" width="5.55" height="5.55"/><rect class="cls-1" x="28.36" y="17.26" width="5.55" height="5.55"/><rect class="cls-1" x="33.91" y="17.26" width="5.55" height="5.55"/><rect class="cls-1" x="39.46" y="17.26" width="5.55" height="5.55"/><rect class="cls-1" x="45.01" y="17.26" width="5.55" height="5.55"/><rect class="cls-1" x="50.56" y="17.26" width="5.55" height="5.55"/><rect class="cls-1" x="0.6" y="22.8" width="5.55" height="5.55"/><rect class="cls-1" x="6.16" y="22.8" width="5.55" height="5.55"/><rect class="cls-1" x="11.71" y="22.8" width="5.55" height="5.55"/><rect class="cls-1" x="17.26" y="22.8" width="5.55" height="5.55"/><rect class="cls-1" x="22.81" y="22.8" width="5.55" height="5.55"/><rect class="cls-1" x="28.36" y="22.8" width="5.55" height="5.55"/><rect class="cls-1" x="33.91" y="22.8" width="5.55" height="5.55"/><rect class="cls-1" x="39.46" y="22.8" width="5.55" height="5.55"/><rect class="cls-1" x="45.01" y="22.8" width="5.55" height="5.55"/><rect class="cls-1" x="50.56" y="22.8" width="5.55" height="5.55"/><rect class="cls-1" x="0.6" y="28.35" width="5.55" height="5.55"/><rect class="cls-1" x="6.16" y="28.35" width="5.55" height="5.55"/><rect class="cls-1" x="11.71" y="28.35" width="5.55" height="5.55"/><rect class="cls-1" x="17.26" y="28.35" width="5.55" height="5.55"/><rect class="cls-1" x="22.81" y="28.35" width="5.55" height="5.55"/><rect class="cls-1" x="28.36" y="28.35" width="5.55" height="5.55"/><rect class="cls-1" x="33.91" y="28.35" width="5.55" height="5.55"/><rect class="cls-1" x="39.46" y="28.35" width="5.55" height="5.55"/><rect class="cls-1" x="45.01" y="28.35" width="5.55" height="5.55"/><rect class="cls-1" x="50.56" y="28.35" width="5.55" height="5.55"/><rect class="cls-1" x="0.6" y="33.9" width="5.55" height="5.55"/><rect class="cls-1" x="6.16" y="33.9" width="5.55" height="5.55"/><rect class="cls-1" x="11.71" y="33.9" width="5.55" height="5.55"/><rect class="cls-1" x="17.26" y="33.9" width="5.55" height="5.55"/><rect class="cls-1" x="22.81" y="33.9" width="5.55" height="5.55"/><rect class="cls-1" x="28.36" y="33.9" width="5.55" height="5.55"/><rect class="cls-1" x="33.91" y="33.9" width="5.55" height="5.55"/><rect class="cls-1" x="39.46" y="33.9" width="5.55" height="5.55"/><rect class="cls-1" x="45.01" y="33.9" width="5.55" height="5.55"/><rect class="cls-1" x="50.56" y="33.9" width="5.55" height="5.55"/><rect class="cls-1" x="0.6" y="39.45" width="5.55" height="5.55"/><rect class="cls-1" x="6.16" y="39.45" width="5.55" height="5.55"/><rect class="cls-1" x="11.71" y="39.45" width="5.55" height="5.55"/><rect class="cls-1" x="17.26" y="39.45" width="5.55" height="5.55"/><rect class="cls-1" x="22.81" y="39.45" width="5.55" height="5.55"/><rect class="cls-1" x="28.36" y="39.45" width="5.55" height="5.55"/><rect class="cls-1" x="33.91" y="39.45" width="5.55" height="5.55"/><rect class="cls-1" x="39.46" y="39.45" width="5.55" height="5.55"/><rect class="cls-1" x="45.01" y="39.45" width="5.55" height="5.55"/><rect class="cls-1" x="50.56" y="39.45" width="5.55" height="5.55"/><rect class="cls-1" x="0.6" y="45" width="5.55" height="5.55"/><rect class="cls-1" x="6.16" y="45" width="5.55" height="5.55"/><rect class="cls-1" x="11.71" y="45" width="5.55" height="5.55"/><rect class="cls-1" x="17.26" y="45" width="5.55" height="5.55"/><rect class="cls-1" x="22.81" y="45" width="5.55" height="5.55"/><rect class="cls-1" x="28.36" y="45" width="5.55" height="5.55"/><rect class="cls-1" x="33.91" y="45" width="5.55" height="5.55"/><rect class="cls-1" x="39.46" y="45" width="5.55" height="5.55"/><rect class="cls-1" x="45.01" y="45" width="5.55" height="5.55"/><rect class="cls-1" x="50.56" y="45" width="5.55" height="5.55"/><rect class="cls-1" x="0.6" y="50.55" width="5.55" height="5.55"/><rect class="cls-1" x="6.16" y="50.55" width="5.55" height="5.55"/><rect class="cls-1" x="11.71" y="50.55" width="5.55" height="5.55"/><rect class="cls-1" x="17.26" y="50.55" width="5.55" height="5.55"/><rect class="cls-1" x="22.81" y="50.55" width="5.55" height="5.55"/><rect class="cls-1" x="28.36" y="50.55" width="5.55" height="5.55"/><rect class="cls-1" x="33.91" y="50.55" width="5.55" height="5.55"/><rect class="cls-1" x="39.46" y="50.55" width="5.55" height="5.55"/><rect class="cls-1" x="45.01" y="50.55" width="5.55" height="5.55"/><rect class="cls-1" x="50.56" y="50.55" width="5.55" height="5.55"/><rect class="cls-2" x="0.6" y="0.6" width="55.5" height="55.5"/></g></g></svg>